M48
; DRILL file {KiCad 9.0.7} date 2026-01-13T09:51:03-0600
; FORMAT={-:-/ absolute / metric / decimal}
; #@! TF.CreationDate,2026-01-13T09:51:03-06:00
; #@! TF.GenerationSoftware,Kicad,Pcbnew,9.0.7
; #@! TF.FileFunction,Plated,1,2,PTH
FMAT,2
METRIC
; #@! TA.AperFunction,Plated,PTH,ViaDrill
T1C0.300
%
G90
G05
T1
X37.6Y-40.4
X37.6Y-57.4
X37.6Y-74.4
X37.6Y-91.4
X51.8Y-40.4
X51.8Y-57.4
X51.8Y-74.4
X51.8Y-91.4
X54.6Y-40.4
X54.6Y-57.4
X54.6Y-74.4
X54.6Y-91.4
X68.8Y-40.4
X68.8Y-57.4
X68.8Y-74.4
X68.8Y-91.4
X71.6Y-40.4
X71.6Y-57.4
X71.6Y-74.4
X71.6Y-91.4
X85.8Y-40.4
X85.8Y-57.4
X85.8Y-74.4
X85.8Y-91.4
X88.6Y-40.4
X88.6Y-57.4
X88.6Y-74.4
X88.6Y-91.4
X102.8Y-40.4
X102.8Y-57.4
X102.8Y-74.4
X102.8Y-91.4
X105.6Y-40.4
X105.6Y-57.4
X105.6Y-74.4
X105.6Y-91.4
X119.8Y-40.4
X119.8Y-57.4
X119.8Y-74.4
X119.8Y-91.4
X123.0Y-40.4
X123.0Y-57.4
X123.0Y-74.4
X123.0Y-91.4
X126.977Y-26.77
X127.6Y-27.5
X128.0Y-24.3
X128.25Y-28.0
X128.75Y-39.5
X128.867Y-27.491
M30
