%TF.GenerationSoftware,KiCad,Pcbnew,9.0.7*%
%TF.CreationDate,2026-01-23T21:58:34-06:00*%
%TF.ProjectId,LillyKey,4c696c6c-794b-4657-992e-6b696361645f,rev?*%
%TF.SameCoordinates,Original*%
%TF.FileFunction,Soldermask,Top*%
%TF.FilePolarity,Negative*%
%FSLAX46Y46*%
G04 Gerber Fmt 4.6, Leading zero omitted, Abs format (unit mm)*
G04 Created by KiCad (PCBNEW 9.0.7) date 2026-01-23 21:58:34*
%MOMM*%
%LPD*%
G01*
G04 APERTURE LIST*
G04 Aperture macros list*
%AMRoundRect*
0 Rectangle with rounded corners*
0 $1 Rounding radius*
0 $2 $3 $4 $5 $6 $7 $8 $9 X,Y pos of 4 corners*
0 Add a 4 corners polygon primitive as box body*
4,1,4,$2,$3,$4,$5,$6,$7,$8,$9,$2,$3,0*
0 Add four circle primitives for the rounded corners*
1,1,$1+$1,$2,$3*
1,1,$1+$1,$4,$5*
1,1,$1+$1,$6,$7*
1,1,$1+$1,$8,$9*
0 Add four rect primitives between the rounded corners*
20,1,$1+$1,$2,$3,$4,$5,0*
20,1,$1+$1,$4,$5,$6,$7,0*
20,1,$1+$1,$6,$7,$8,$9,0*
20,1,$1+$1,$8,$9,$2,$3,0*%
G04 Aperture macros list end*
%ADD10C,1.212309*%
%ADD11C,3.800000*%
%ADD12C,1.600000*%
%ADD13O,2.750000X1.800000*%
%ADD14C,1.900000*%
%ADD15C,3.050000*%
%ADD16C,5.050000*%
%ADD17RoundRect,0.250000X-1.025000X-1.000000X1.025000X-1.000000X1.025000X1.000000X-1.025000X1.000000X0*%
%ADD18R,1.498600X3.403600*%
%ADD19R,0.990600X3.505200*%
%ADD20RoundRect,0.225000X0.225000X0.375000X-0.225000X0.375000X-0.225000X-0.375000X0.225000X-0.375000X0*%
G04 APERTURE END LIST*
D10*
X149471058Y-62189882D02*
X149611398Y-62196720D01*
X149751736Y-62210453D01*
X149892160Y-62231620D01*
X150032755Y-62260760D01*
X150173607Y-62298412D01*
X150314804Y-62345115D01*
X150456431Y-62401408D01*
X150598575Y-62467831D01*
X150741321Y-62544923D01*
X150879458Y-62629999D01*
X151008054Y-62719888D01*
X151127619Y-62814394D01*
X151238663Y-62913322D01*
X151341697Y-63016478D01*
X151437230Y-63123667D01*
X151525773Y-63234694D01*
X151607836Y-63349364D01*
X151683928Y-63467482D01*
X151754560Y-63588854D01*
X151820242Y-63713284D01*
X151881484Y-63840579D01*
X151992687Y-64102980D01*
X152092252Y-64374499D01*
X152455725Y-65520576D01*
X152558300Y-65814303D01*
X152673719Y-66107796D01*
X152806063Y-66399496D01*
X152879857Y-66544187D01*
X152959411Y-66687845D01*
X153044046Y-66828571D01*
X153132455Y-66964823D01*
X153318903Y-67225286D01*
X153515366Y-67471988D01*
X153718453Y-67707685D01*
X154529249Y-68595501D01*
X154714609Y-68817485D01*
X154886253Y-69044991D01*
X154965873Y-69161675D01*
X155040792Y-69280773D01*
X155110587Y-69402628D01*
X155174834Y-69527585D01*
X155233110Y-69655988D01*
X155284991Y-69788182D01*
X155330052Y-69924511D01*
X155367871Y-70065319D01*
X155398024Y-70210950D01*
X155420086Y-70361749D01*
X155433634Y-70518061D01*
X155438244Y-70680229D01*
X155433634Y-70842397D01*
X155420086Y-70998709D01*
X155398024Y-71149508D01*
X155367871Y-71295139D01*
X155330052Y-71435947D01*
X155284991Y-71572276D01*
X155233110Y-71704470D01*
X155174834Y-71832873D01*
X155110587Y-71957830D01*
X155040792Y-72079685D01*
X154965873Y-72198783D01*
X154886253Y-72315467D01*
X154714609Y-72542973D01*
X154529249Y-72764957D01*
X153718453Y-73652773D01*
X153515366Y-73888470D01*
X153318903Y-74135172D01*
X153132455Y-74395635D01*
X153044046Y-74531887D01*
X152959411Y-74672613D01*
X152806063Y-74960962D01*
X152673720Y-75252662D01*
X152558301Y-75546155D01*
X152455726Y-75839883D01*
X152092252Y-76985961D01*
X151992688Y-77257479D01*
X151881484Y-77519880D01*
X151754560Y-77771605D01*
X151607836Y-78011095D01*
X151525773Y-78125765D01*
X151437230Y-78236792D01*
X151341697Y-78343981D01*
X151238663Y-78447137D01*
X151127619Y-78546065D01*
X151008054Y-78640571D01*
X150879458Y-78730460D01*
X150741321Y-78815536D01*
X150598575Y-78892628D01*
X150456431Y-78959051D01*
X150314804Y-79015344D01*
X150173607Y-79062047D01*
X150032755Y-79099699D01*
X149892160Y-79128839D01*
X149751736Y-79150006D01*
X149611398Y-79163739D01*
X149471058Y-79170578D01*
X149330631Y-79171061D01*
X149049169Y-79155118D01*
X148766321Y-79120222D01*
X148481397Y-79070688D01*
X147307128Y-78812427D01*
X147001465Y-78754396D01*
X146689583Y-78707605D01*
X146370791Y-78676368D01*
X146044399Y-78664997D01*
X145718008Y-78676368D01*
X145399217Y-78707605D01*
X145087335Y-78754396D01*
X144781673Y-78812427D01*
X143607404Y-79070689D01*
X143322480Y-79120223D01*
X143039632Y-79155118D01*
X142758169Y-79171062D01*
X142617742Y-79170578D01*
X142477403Y-79163740D01*
X142337064Y-79150006D01*
X142196641Y-79128839D01*
X142056046Y-79099699D01*
X141915193Y-79062047D01*
X141773996Y-79015344D01*
X141632369Y-78959051D01*
X141490225Y-78892628D01*
X141347479Y-78815536D01*
X141209342Y-78730460D01*
X141080747Y-78640571D01*
X140961182Y-78546065D01*
X140850137Y-78447137D01*
X140747103Y-78343981D01*
X140651570Y-78236792D01*
X140563027Y-78125765D01*
X140480965Y-78011095D01*
X140404872Y-77892977D01*
X140334240Y-77771605D01*
X140268558Y-77647174D01*
X140207316Y-77519880D01*
X140096113Y-77257479D01*
X139996549Y-76985960D01*
X139633075Y-75839882D01*
X139530500Y-75546155D01*
X139415081Y-75252662D01*
X139282737Y-74960962D01*
X139208944Y-74816271D01*
X139129389Y-74672613D01*
X139044754Y-74531887D01*
X138956345Y-74395635D01*
X138769897Y-74135172D01*
X138573434Y-73888470D01*
X138370346Y-73652773D01*
X137559550Y-72764957D01*
X137374190Y-72542973D01*
X137202546Y-72315467D01*
X137122927Y-72198783D01*
X137048008Y-72079685D01*
X136978213Y-71957830D01*
X136913966Y-71832873D01*
X136855690Y-71704470D01*
X136803809Y-71572276D01*
X136758748Y-71435947D01*
X136720929Y-71295139D01*
X136690777Y-71149508D01*
X136668715Y-70998709D01*
X136655167Y-70842397D01*
X136650556Y-70680229D01*
X136655167Y-70518061D01*
X136668715Y-70361749D01*
X136690777Y-70210950D01*
X136720929Y-70065319D01*
X136758748Y-69924511D01*
X136803809Y-69788182D01*
X136855690Y-69655988D01*
X136913966Y-69527585D01*
X136978213Y-69402628D01*
X137048008Y-69280773D01*
X137122927Y-69161675D01*
X137202546Y-69044991D01*
X137374190Y-68817485D01*
X137559550Y-68595501D01*
X138370346Y-67707685D01*
X138573434Y-67471988D01*
X138769897Y-67225286D01*
X138956345Y-66964823D01*
X139044754Y-66828571D01*
X139129389Y-66687845D01*
X139282737Y-66399496D01*
X139415081Y-66107796D01*
X139530500Y-65814303D01*
X139633075Y-65520576D01*
X139996549Y-64374498D01*
X140096113Y-64102979D01*
X140207316Y-63840578D01*
X140334240Y-63588853D01*
X140480965Y-63349363D01*
X140563027Y-63234693D01*
X140651570Y-63123667D01*
X140747103Y-63016478D01*
X140850137Y-62913322D01*
X140961182Y-62814393D01*
X141080747Y-62719888D01*
X141209342Y-62629999D01*
X141347479Y-62544923D01*
X141490225Y-62467831D01*
X141632369Y-62401408D01*
X141773996Y-62345115D01*
X141915193Y-62298412D01*
X142056046Y-62260760D01*
X142196641Y-62231620D01*
X142337064Y-62210453D01*
X142477403Y-62196720D01*
X142617742Y-62189882D01*
X142758169Y-62189398D01*
X143039632Y-62205342D01*
X143322480Y-62240237D01*
X143607404Y-62289771D01*
X144781673Y-62548033D01*
X145087335Y-62606064D01*
X145399217Y-62652855D01*
X145718008Y-62684092D01*
X146044399Y-62695463D01*
X146370791Y-62684092D01*
X146689583Y-62652855D01*
X147001465Y-62606064D01*
X147307128Y-62548033D01*
X148481397Y-62289771D01*
X148766321Y-62240237D01*
X149049169Y-62205342D01*
X149330631Y-62189398D01*
X149471058Y-62189882D01*
D11*
%TO.C,REF\u002A\u002A*%
X159000000Y-111000000D03*
%TD*%
D12*
%TO.C,U2*%
X140665000Y-30278000D03*
X149555000Y-30278000D03*
X140665000Y-32183000D03*
X149555000Y-32183000D03*
D13*
X153204960Y-24880000D03*
X153204960Y-27420000D03*
X153204960Y-29960000D03*
X153204960Y-32500000D03*
X153204960Y-35040000D03*
X153204960Y-37580000D03*
X153204960Y-40120000D03*
X137015040Y-40120000D03*
X137015040Y-37580000D03*
X137015040Y-35040000D03*
X137015040Y-32500000D03*
X137015040Y-29960000D03*
X137015040Y-27420000D03*
X137015040Y-24880000D03*
%TD*%
D14*
%TO.C,SW1*%
X28500000Y-34000000D03*
D15*
X29000000Y-30200000D03*
D12*
X29000000Y-39150000D03*
D15*
X34000000Y-28100000D03*
D16*
X34000000Y-34000000D03*
D15*
X39000000Y-30200000D03*
D12*
X39150000Y-39000000D03*
D14*
X39500000Y-34000000D03*
D17*
X37500000Y-28000000D03*
X25500000Y-30200000D03*
%TD*%
D11*
%TO.C,REF\u002A\u002A*%
X159000000Y-25000000D03*
%TD*%
%TO.C,REF\u002A\u002A*%
X25000000Y-25000000D03*
%TD*%
%TO.C,REF\u002A\u002A*%
X25000000Y-111000000D03*
%TD*%
D18*
%TO.C,J1*%
X149350001Y-55560000D03*
X142649999Y-55560000D03*
D19*
X147000001Y-49809999D03*
X144999999Y-49809999D03*
%TD*%
D20*
%TO.C,D27*%
X69800000Y-105950000D03*
X66500000Y-105950000D03*
%TD*%
%TO.C,D18*%
X120800000Y-71950000D03*
X117500000Y-71950000D03*
%TD*%
%TO.C,D7*%
X35800000Y-54950000D03*
X32500000Y-54950000D03*
%TD*%
%TO.C,D9*%
X69800000Y-54950000D03*
X66500000Y-54950000D03*
%TD*%
%TO.C,D10*%
X86800000Y-54950000D03*
X83500000Y-54950000D03*
%TD*%
%TO.C,D15*%
X69800000Y-71950000D03*
X66500000Y-71950000D03*
%TD*%
%TO.C,D22*%
X86800000Y-88950000D03*
X83500000Y-88950000D03*
%TD*%
%TO.C,D14*%
X52800000Y-71950000D03*
X49500000Y-71950000D03*
%TD*%
%TO.C,D16*%
X86800000Y-71950000D03*
X83500000Y-71950000D03*
%TD*%
%TO.C,D5*%
X103800000Y-37950000D03*
X100500000Y-37950000D03*
%TD*%
%TO.C,D13*%
X35800000Y-71950000D03*
X32500000Y-71950000D03*
%TD*%
%TO.C,D8*%
X52800000Y-54950000D03*
X49500000Y-54950000D03*
%TD*%
%TO.C,D29*%
X103800000Y-105950000D03*
X100500000Y-105950000D03*
%TD*%
%TO.C,D2*%
X52800000Y-37950000D03*
X49500000Y-37950000D03*
%TD*%
%TO.C,D4*%
X86800000Y-37950000D03*
X83500000Y-37950000D03*
%TD*%
%TO.C,D26*%
X52800000Y-105950000D03*
X49500000Y-105950000D03*
%TD*%
%TO.C,D3*%
X69800000Y-37950000D03*
X66500000Y-37950000D03*
%TD*%
%TO.C,D28*%
X86800000Y-105950000D03*
X83500000Y-105950000D03*
%TD*%
%TO.C,D6*%
X120800000Y-37950000D03*
X117500000Y-37950000D03*
%TD*%
%TO.C,D23*%
X103800000Y-88950000D03*
X100500000Y-88950000D03*
%TD*%
%TO.C,D12*%
X120800000Y-54950000D03*
X117500000Y-54950000D03*
%TD*%
%TO.C,D24*%
X120800000Y-88950000D03*
X117500000Y-88950000D03*
%TD*%
%TO.C,D30*%
X120800000Y-105950000D03*
X117500000Y-105950000D03*
%TD*%
%TO.C,D20*%
X52800000Y-88950000D03*
X49500000Y-88950000D03*
%TD*%
%TO.C,D11*%
X103800000Y-54950000D03*
X100500000Y-54950000D03*
%TD*%
%TO.C,D1*%
X35800000Y-37950000D03*
X32500000Y-37950000D03*
%TD*%
%TO.C,D17*%
X103800000Y-71950000D03*
X100500000Y-71950000D03*
%TD*%
%TO.C,D19*%
X35800000Y-88950000D03*
X32500000Y-88950000D03*
%TD*%
%TO.C,D21*%
X69800000Y-88950000D03*
X66500000Y-88950000D03*
%TD*%
%TO.C,D25*%
X35800000Y-105950000D03*
X32500000Y-105950000D03*
%TD*%
D14*
%TO.C,SW7*%
X28500000Y-51000000D03*
D15*
X29000000Y-47200000D03*
D12*
X29000000Y-56150000D03*
D15*
X34000000Y-45100000D03*
D16*
X34000000Y-51000000D03*
D15*
X39000000Y-47200000D03*
D12*
X39150000Y-56000000D03*
D14*
X39500000Y-51000000D03*
D17*
X37500000Y-45000000D03*
X25500000Y-47200000D03*
%TD*%
D14*
%TO.C,SW6*%
X113500000Y-34000000D03*
D15*
X114000000Y-30200000D03*
D12*
X114000000Y-39150000D03*
D15*
X119000000Y-28100000D03*
D16*
X119000000Y-34000000D03*
D15*
X124000000Y-30200000D03*
D12*
X124150000Y-39000000D03*
D14*
X124500000Y-34000000D03*
D17*
X122500000Y-28000000D03*
X110500000Y-30200000D03*
%TD*%
D14*
%TO.C,SW19*%
X28500000Y-85000000D03*
D15*
X29000000Y-81200000D03*
D12*
X29000000Y-90150000D03*
D15*
X34000000Y-79100000D03*
D16*
X34000000Y-85000000D03*
D15*
X39000000Y-81200000D03*
D12*
X39150000Y-90000000D03*
D14*
X39500000Y-85000000D03*
D17*
X37500000Y-79000000D03*
X25500000Y-81200000D03*
%TD*%
D14*
%TO.C,SW10*%
X79500000Y-51000000D03*
D15*
X80000000Y-47200000D03*
D12*
X80000000Y-56150000D03*
D15*
X85000000Y-45100000D03*
D16*
X85000000Y-51000000D03*
D15*
X90000000Y-47200000D03*
D12*
X90150000Y-56000000D03*
D14*
X90500000Y-51000000D03*
D17*
X88500000Y-45000000D03*
X76500000Y-47200000D03*
%TD*%
D14*
%TO.C,SW25*%
X28500000Y-102000000D03*
D15*
X29000000Y-98200000D03*
D12*
X29000000Y-107150000D03*
D15*
X34000000Y-96100000D03*
D16*
X34000000Y-102000000D03*
D15*
X39000000Y-98200000D03*
D12*
X39150000Y-107000000D03*
D14*
X39500000Y-102000000D03*
D17*
X37500000Y-96000000D03*
X25500000Y-98200000D03*
%TD*%
D14*
%TO.C,SW16*%
X79500000Y-68000000D03*
D15*
X80000000Y-64200000D03*
D12*
X80000000Y-73150000D03*
D15*
X85000000Y-62100000D03*
D16*
X85000000Y-68000000D03*
D15*
X90000000Y-64200000D03*
D12*
X90150000Y-73000000D03*
D14*
X90500000Y-68000000D03*
D17*
X88500000Y-62000000D03*
X76500000Y-64200000D03*
%TD*%
D14*
%TO.C,SW18*%
X113500000Y-68000000D03*
D15*
X114000000Y-64200000D03*
D12*
X114000000Y-73150000D03*
D15*
X119000000Y-62100000D03*
D16*
X119000000Y-68000000D03*
D15*
X124000000Y-64200000D03*
D12*
X124150000Y-73000000D03*
D14*
X124500000Y-68000000D03*
D17*
X122500000Y-62000000D03*
X110500000Y-64200000D03*
%TD*%
D14*
%TO.C,SW27*%
X62500000Y-102000000D03*
D15*
X63000000Y-98200000D03*
D12*
X63000000Y-107150000D03*
D15*
X68000000Y-96100000D03*
D16*
X68000000Y-102000000D03*
D15*
X73000000Y-98200000D03*
D12*
X73150000Y-107000000D03*
D14*
X73500000Y-102000000D03*
D17*
X71500000Y-96000000D03*
X59500000Y-98200000D03*
%TD*%
D14*
%TO.C,SW2*%
X45500000Y-34000000D03*
D15*
X46000000Y-30200000D03*
D12*
X46000000Y-39150000D03*
D15*
X51000000Y-28100000D03*
D16*
X51000000Y-34000000D03*
D15*
X56000000Y-30200000D03*
D12*
X56150000Y-39000000D03*
D14*
X56500000Y-34000000D03*
D17*
X54500000Y-28000000D03*
X42500000Y-30200000D03*
%TD*%
D14*
%TO.C,SW24*%
X113500000Y-85000000D03*
D15*
X114000000Y-81200000D03*
D12*
X114000000Y-90150000D03*
D15*
X119000000Y-79100000D03*
D16*
X119000000Y-85000000D03*
D15*
X124000000Y-81200000D03*
D12*
X124150000Y-90000000D03*
D14*
X124500000Y-85000000D03*
D17*
X122500000Y-79000000D03*
X110500000Y-81200000D03*
%TD*%
D14*
%TO.C,SW29*%
X96500000Y-102000000D03*
D15*
X97000000Y-98200000D03*
D12*
X97000000Y-107150000D03*
D15*
X102000000Y-96100000D03*
D16*
X102000000Y-102000000D03*
D15*
X107000000Y-98200000D03*
D12*
X107150000Y-107000000D03*
D14*
X107500000Y-102000000D03*
D17*
X105500000Y-96000000D03*
X93500000Y-98200000D03*
%TD*%
D14*
%TO.C,SW5*%
X96500000Y-34000000D03*
D15*
X97000000Y-30200000D03*
D12*
X97000000Y-39150000D03*
D15*
X102000000Y-28100000D03*
D16*
X102000000Y-34000000D03*
D15*
X107000000Y-30200000D03*
D12*
X107150000Y-39000000D03*
D14*
X107500000Y-34000000D03*
D17*
X105500000Y-28000000D03*
X93500000Y-30200000D03*
%TD*%
D14*
%TO.C,SW8*%
X45500000Y-51000000D03*
D15*
X46000000Y-47200000D03*
D12*
X46000000Y-56150000D03*
D15*
X51000000Y-45100000D03*
D16*
X51000000Y-51000000D03*
D15*
X56000000Y-47200000D03*
D12*
X56150000Y-56000000D03*
D14*
X56500000Y-51000000D03*
D17*
X54500000Y-45000000D03*
X42500000Y-47200000D03*
%TD*%
D14*
%TO.C,SW23*%
X96500000Y-85000000D03*
D15*
X97000000Y-81200000D03*
D12*
X97000000Y-90150000D03*
D15*
X102000000Y-79100000D03*
D16*
X102000000Y-85000000D03*
D15*
X107000000Y-81200000D03*
D12*
X107150000Y-90000000D03*
D14*
X107500000Y-85000000D03*
D17*
X105500000Y-79000000D03*
X93500000Y-81200000D03*
%TD*%
D14*
%TO.C,SW13*%
X28500000Y-68000000D03*
D15*
X29000000Y-64200000D03*
D12*
X29000000Y-73150000D03*
D15*
X34000000Y-62100000D03*
D16*
X34000000Y-68000000D03*
D15*
X39000000Y-64200000D03*
D12*
X39150000Y-73000000D03*
D14*
X39500000Y-68000000D03*
D17*
X37500000Y-62000000D03*
X25500000Y-64200000D03*
%TD*%
D14*
%TO.C,SW9*%
X62500000Y-51000000D03*
D15*
X63000000Y-47200000D03*
D12*
X63000000Y-56150000D03*
D15*
X68000000Y-45100000D03*
D16*
X68000000Y-51000000D03*
D15*
X73000000Y-47200000D03*
D12*
X73150000Y-56000000D03*
D14*
X73500000Y-51000000D03*
D17*
X71500000Y-45000000D03*
X59500000Y-47200000D03*
%TD*%
D14*
%TO.C,SW21*%
X62500000Y-85000000D03*
D15*
X63000000Y-81200000D03*
D12*
X63000000Y-90150000D03*
D15*
X68000000Y-79100000D03*
D16*
X68000000Y-85000000D03*
D15*
X73000000Y-81200000D03*
D12*
X73150000Y-90000000D03*
D14*
X73500000Y-85000000D03*
D17*
X71500000Y-79000000D03*
X59500000Y-81200000D03*
%TD*%
D14*
%TO.C,SW30*%
X113500000Y-102000000D03*
D15*
X114000000Y-98200000D03*
D12*
X114000000Y-107150000D03*
D15*
X119000000Y-96100000D03*
D16*
X119000000Y-102000000D03*
D15*
X124000000Y-98200000D03*
D12*
X124150000Y-107000000D03*
D14*
X124500000Y-102000000D03*
D17*
X122500000Y-96000000D03*
X110500000Y-98200000D03*
%TD*%
D14*
%TO.C,SW3*%
X62500000Y-34000000D03*
D15*
X63000000Y-30200000D03*
D12*
X63000000Y-39150000D03*
D15*
X68000000Y-28100000D03*
D16*
X68000000Y-34000000D03*
D15*
X73000000Y-30200000D03*
D12*
X73150000Y-39000000D03*
D14*
X73500000Y-34000000D03*
D17*
X71500000Y-28000000D03*
X59500000Y-30200000D03*
%TD*%
D14*
%TO.C,SW4*%
X79500000Y-34000000D03*
D15*
X80000000Y-30200000D03*
D12*
X80000000Y-39150000D03*
D15*
X85000000Y-28100000D03*
D16*
X85000000Y-34000000D03*
D15*
X90000000Y-30200000D03*
D12*
X90150000Y-39000000D03*
D14*
X90500000Y-34000000D03*
D17*
X88500000Y-28000000D03*
X76500000Y-30200000D03*
%TD*%
D14*
%TO.C,SW22*%
X79500000Y-85000000D03*
D15*
X80000000Y-81200000D03*
D12*
X80000000Y-90150000D03*
D15*
X85000000Y-79100000D03*
D16*
X85000000Y-85000000D03*
D15*
X90000000Y-81200000D03*
D12*
X90150000Y-90000000D03*
D14*
X90500000Y-85000000D03*
D17*
X88500000Y-79000000D03*
X76500000Y-81200000D03*
%TD*%
D14*
%TO.C,SW11*%
X96500000Y-51000000D03*
D15*
X97000000Y-47200000D03*
D12*
X97000000Y-56150000D03*
D15*
X102000000Y-45100000D03*
D16*
X102000000Y-51000000D03*
D15*
X107000000Y-47200000D03*
D12*
X107150000Y-56000000D03*
D14*
X107500000Y-51000000D03*
D17*
X105500000Y-45000000D03*
X93500000Y-47200000D03*
%TD*%
D14*
%TO.C,SW28*%
X79500000Y-102000000D03*
D15*
X80000000Y-98200000D03*
D12*
X80000000Y-107150000D03*
D15*
X85000000Y-96100000D03*
D16*
X85000000Y-102000000D03*
D15*
X90000000Y-98200000D03*
D12*
X90150000Y-107000000D03*
D14*
X90500000Y-102000000D03*
D17*
X88500000Y-96000000D03*
X76500000Y-98200000D03*
%TD*%
D14*
%TO.C,SW12*%
X113500000Y-51000000D03*
D15*
X114000000Y-47200000D03*
D12*
X114000000Y-56150000D03*
D15*
X119000000Y-45100000D03*
D16*
X119000000Y-51000000D03*
D15*
X124000000Y-47200000D03*
D12*
X124150000Y-56000000D03*
D14*
X124500000Y-51000000D03*
D17*
X122500000Y-45000000D03*
X110500000Y-47200000D03*
%TD*%
D14*
%TO.C,SW17*%
X96500000Y-68000000D03*
D15*
X97000000Y-64200000D03*
D12*
X97000000Y-73150000D03*
D15*
X102000000Y-62100000D03*
D16*
X102000000Y-68000000D03*
D15*
X107000000Y-64200000D03*
D12*
X107150000Y-73000000D03*
D14*
X107500000Y-68000000D03*
D17*
X105500000Y-62000000D03*
X93500000Y-64200000D03*
%TD*%
D14*
%TO.C,SW14*%
X45500000Y-68000000D03*
D15*
X46000000Y-64200000D03*
D12*
X46000000Y-73150000D03*
D15*
X51000000Y-62100000D03*
D16*
X51000000Y-68000000D03*
D15*
X56000000Y-64200000D03*
D12*
X56150000Y-73000000D03*
D14*
X56500000Y-68000000D03*
D17*
X54500000Y-62000000D03*
X42500000Y-64200000D03*
%TD*%
D14*
%TO.C,SW20*%
X45500000Y-85000000D03*
D15*
X46000000Y-81200000D03*
D12*
X46000000Y-90150000D03*
D15*
X51000000Y-79100000D03*
D16*
X51000000Y-85000000D03*
D15*
X56000000Y-81200000D03*
D12*
X56150000Y-90000000D03*
D14*
X56500000Y-85000000D03*
D17*
X54500000Y-79000000D03*
X42500000Y-81200000D03*
%TD*%
D14*
%TO.C,SW26*%
X45500000Y-102000000D03*
D15*
X46000000Y-98200000D03*
D12*
X46000000Y-107150000D03*
D15*
X51000000Y-96100000D03*
D16*
X51000000Y-102000000D03*
D15*
X56000000Y-98200000D03*
D12*
X56150000Y-107000000D03*
D14*
X56500000Y-102000000D03*
D17*
X54500000Y-96000000D03*
X42500000Y-98200000D03*
%TD*%
D14*
%TO.C,SW15*%
X62500000Y-68000000D03*
D15*
X63000000Y-64200000D03*
D12*
X63000000Y-73150000D03*
D15*
X68000000Y-62100000D03*
D16*
X68000000Y-68000000D03*
D15*
X73000000Y-64200000D03*
D12*
X73150000Y-73000000D03*
D14*
X73500000Y-68000000D03*
D17*
X71500000Y-62000000D03*
X59500000Y-64200000D03*
%TD*%
M02*
