%TF.GenerationSoftware,KiCad,Pcbnew,9.0.7*%
%TF.CreationDate,2026-01-23T21:58:34-06:00*%
%TF.ProjectId,LillyKey,4c696c6c-794b-4657-992e-6b696361645f,rev?*%
%TF.SameCoordinates,Original*%
%TF.FileFunction,Legend,Bot*%
%TF.FilePolarity,Positive*%
%FSLAX46Y46*%
G04 Gerber Fmt 4.6, Leading zero omitted, Abs format (unit mm)*
G04 Created by KiCad (PCBNEW 9.0.7) date 2026-01-23 21:58:34*
%MOMM*%
%LPD*%
G01*
G04 APERTURE LIST*
%ADD10C,0.048492*%
%ADD11C,0.594825*%
%ADD12C,0.100000*%
%ADD13C,0.120000*%
%ADD14C,0.152400*%
G04 APERTURE END LIST*
D10*
X143723840Y-102596516D02*
X143785660Y-102599660D01*
X143845813Y-102604899D01*
X143904297Y-102612234D01*
X143961114Y-102621664D01*
X144016263Y-102633191D01*
X144069744Y-102646812D01*
X144121557Y-102662530D01*
X144171702Y-102680343D01*
X144220179Y-102700251D01*
X144266989Y-102722256D01*
X144312130Y-102746355D01*
X144355604Y-102772551D01*
X144397410Y-102800842D01*
X144437548Y-102831228D01*
X144476018Y-102863710D01*
X144512478Y-102898609D01*
X144546585Y-102934876D01*
X144578340Y-102972512D01*
X144607744Y-103011516D01*
X144634794Y-103051889D01*
X144659493Y-103093631D01*
X144681839Y-103136741D01*
X144701833Y-103181219D01*
X144719475Y-103227066D01*
X144734764Y-103274282D01*
X144747701Y-103322866D01*
X144758286Y-103372819D01*
X144766519Y-103424140D01*
X144772400Y-103476829D01*
X144775928Y-103530887D01*
X144777104Y-103586313D01*
X144777100Y-103586313D01*
X144776459Y-103628268D01*
X144774534Y-103669282D01*
X144771326Y-103709355D01*
X144766836Y-103748487D01*
X144761062Y-103786679D01*
X144754005Y-103823929D01*
X144745665Y-103860239D01*
X144736042Y-103895607D01*
X144725136Y-103930035D01*
X144712947Y-103963522D01*
X144699475Y-103996068D01*
X144684720Y-104027673D01*
X144668682Y-104058338D01*
X144651361Y-104088061D01*
X144632757Y-104116844D01*
X144612870Y-104144686D01*
X144591166Y-104171351D01*
X144568478Y-104196606D01*
X144544806Y-104220449D01*
X144520151Y-104242880D01*
X144494512Y-104263900D01*
X144467890Y-104283509D01*
X144440283Y-104301707D01*
X144411693Y-104318493D01*
X144382120Y-104333868D01*
X144351562Y-104347832D01*
X144320021Y-104360384D01*
X144287495Y-104371525D01*
X144253987Y-104381254D01*
X144219494Y-104389573D01*
X144184017Y-104396480D01*
X144147557Y-104401975D01*
X144147557Y-104407419D01*
X144722356Y-104407419D01*
X144722356Y-104900102D01*
X140726140Y-104900102D01*
X140726140Y-104407419D01*
X141602025Y-104407419D01*
X142286309Y-104418371D01*
X142286309Y-104412927D01*
X142250512Y-104406748D01*
X142215656Y-104399157D01*
X142181741Y-104390155D01*
X142148766Y-104379741D01*
X142116733Y-104367916D01*
X142085641Y-104354680D01*
X142055490Y-104340032D01*
X142026280Y-104323973D01*
X141998011Y-104306502D01*
X141970683Y-104287620D01*
X141944295Y-104267327D01*
X141918848Y-104245622D01*
X141894343Y-104222506D01*
X141870778Y-104197978D01*
X141848154Y-104172040D01*
X141826470Y-104144689D01*
X141805920Y-104116848D01*
X141786696Y-104088065D01*
X141768797Y-104058341D01*
X141752225Y-104027677D01*
X141736978Y-103996072D01*
X141723058Y-103963526D01*
X141710463Y-103930039D01*
X141699194Y-103895611D01*
X141689250Y-103860242D01*
X141680633Y-103823932D01*
X141673341Y-103786681D01*
X141667696Y-103750543D01*
X142083764Y-103750543D01*
X142084512Y-103788350D01*
X142086758Y-103825130D01*
X142090500Y-103860884D01*
X142095739Y-103895611D01*
X142102475Y-103929312D01*
X142110707Y-103961986D01*
X142120437Y-103993634D01*
X142131664Y-104024256D01*
X142144387Y-104053851D01*
X142158607Y-104082419D01*
X142174325Y-104109962D01*
X142191539Y-104136478D01*
X142210250Y-104161968D01*
X142230458Y-104186431D01*
X142252163Y-104209868D01*
X142275365Y-104232279D01*
X142299892Y-104253491D01*
X142325575Y-104273335D01*
X142352412Y-104291811D01*
X142380403Y-104308918D01*
X142409550Y-104324656D01*
X142439851Y-104339026D01*
X142471307Y-104352027D01*
X142503917Y-104363660D01*
X142537683Y-104373924D01*
X142572603Y-104382819D01*
X142608677Y-104390346D01*
X142645906Y-104396505D01*
X142684290Y-104401295D01*
X142723829Y-104404716D01*
X142764522Y-104406769D01*
X142806370Y-104407453D01*
X143627507Y-104407453D01*
X143669355Y-104406769D01*
X143710048Y-104404716D01*
X143749587Y-104401295D01*
X143787971Y-104396505D01*
X143825200Y-104390346D01*
X143861275Y-104382819D01*
X143896195Y-104373924D01*
X143929960Y-104363660D01*
X143962571Y-104352027D01*
X143994026Y-104339026D01*
X144024327Y-104324656D01*
X144053474Y-104308918D01*
X144081466Y-104291811D01*
X144108303Y-104273335D01*
X144133985Y-104253491D01*
X144158513Y-104232279D01*
X144181715Y-104209868D01*
X144203420Y-104186431D01*
X144223628Y-104161968D01*
X144242339Y-104136478D01*
X144259553Y-104109962D01*
X144275270Y-104082419D01*
X144289490Y-104053851D01*
X144302214Y-104024256D01*
X144313440Y-103993634D01*
X144323170Y-103961986D01*
X144331403Y-103929312D01*
X144338139Y-103895611D01*
X144343378Y-103860884D01*
X144347120Y-103825130D01*
X144349365Y-103788350D01*
X144350114Y-103750543D01*
X144349472Y-103712074D01*
X144347548Y-103674673D01*
X144344340Y-103638342D01*
X144339850Y-103603080D01*
X144334076Y-103568887D01*
X144327020Y-103535763D01*
X144318680Y-103503709D01*
X144309057Y-103472723D01*
X144298152Y-103442807D01*
X144285963Y-103413960D01*
X144272491Y-103386182D01*
X144257737Y-103359474D01*
X144241699Y-103333834D01*
X144224378Y-103309264D01*
X144205774Y-103285762D01*
X144185887Y-103263330D01*
X144164567Y-103242118D01*
X144141664Y-103222274D01*
X144117179Y-103203798D01*
X144091111Y-103186691D01*
X144063462Y-103170953D01*
X144034230Y-103156583D01*
X144003415Y-103143582D01*
X143971019Y-103131949D01*
X143937040Y-103121685D01*
X143901478Y-103112789D01*
X143864334Y-103105262D01*
X143825608Y-103099104D01*
X143785300Y-103094314D01*
X143743409Y-103090893D01*
X143699937Y-103088840D01*
X143654881Y-103088156D01*
X142778996Y-103088156D01*
X142733299Y-103088840D01*
X142689269Y-103090893D01*
X142646907Y-103094314D01*
X142606213Y-103099104D01*
X142567188Y-103105262D01*
X142529830Y-103112789D01*
X142494140Y-103121685D01*
X142460118Y-103131949D01*
X142427764Y-103143582D01*
X142397078Y-103156583D01*
X142368060Y-103170953D01*
X142340710Y-103186691D01*
X142315028Y-103203798D01*
X142291014Y-103222274D01*
X142268668Y-103242118D01*
X142247990Y-103263330D01*
X142228103Y-103285762D01*
X142209499Y-103309264D01*
X142192179Y-103333834D01*
X142176141Y-103359474D01*
X142161386Y-103386182D01*
X142147914Y-103413960D01*
X142135726Y-103442807D01*
X142124820Y-103472723D01*
X142115197Y-103503709D01*
X142106858Y-103535763D01*
X142099801Y-103568887D01*
X142094028Y-103603080D01*
X142089537Y-103638342D01*
X142086330Y-103674673D01*
X142084405Y-103712074D01*
X142083764Y-103750543D01*
X141667696Y-103750543D01*
X141667375Y-103748490D01*
X141662735Y-103709357D01*
X141659421Y-103669283D01*
X141657432Y-103628269D01*
X141656769Y-103586313D01*
X141657946Y-103530245D01*
X141661474Y-103475631D01*
X141667354Y-103422471D01*
X141675587Y-103370765D01*
X141686171Y-103320513D01*
X141699108Y-103271715D01*
X141714398Y-103224371D01*
X141732039Y-103178481D01*
X141752033Y-103134046D01*
X141774379Y-103091064D01*
X141799078Y-103049536D01*
X141826128Y-103009463D01*
X141855532Y-102970843D01*
X141887287Y-102933678D01*
X141921395Y-102897967D01*
X141957856Y-102863710D01*
X141996347Y-102831228D01*
X142036549Y-102800842D01*
X142078462Y-102772551D01*
X142122085Y-102746355D01*
X142167419Y-102722256D01*
X142214464Y-102700251D01*
X142263219Y-102680343D01*
X142313685Y-102662530D01*
X142365861Y-102646812D01*
X142419748Y-102633191D01*
X142475346Y-102621664D01*
X142532655Y-102612234D01*
X142591674Y-102604899D01*
X142652404Y-102599660D01*
X142714845Y-102596516D01*
X142778996Y-102595468D01*
X143660351Y-102595468D01*
X143723840Y-102596516D01*
G36*
X143723840Y-102596516D02*
G01*
X143785660Y-102599660D01*
X143845813Y-102604899D01*
X143904297Y-102612234D01*
X143961114Y-102621664D01*
X144016263Y-102633191D01*
X144069744Y-102646812D01*
X144121557Y-102662530D01*
X144171702Y-102680343D01*
X144220179Y-102700251D01*
X144266989Y-102722256D01*
X144312130Y-102746355D01*
X144355604Y-102772551D01*
X144397410Y-102800842D01*
X144437548Y-102831228D01*
X144476018Y-102863710D01*
X144512478Y-102898609D01*
X144546585Y-102934876D01*
X144578340Y-102972512D01*
X144607744Y-103011516D01*
X144634794Y-103051889D01*
X144659493Y-103093631D01*
X144681839Y-103136741D01*
X144701833Y-103181219D01*
X144719475Y-103227066D01*
X144734764Y-103274282D01*
X144747701Y-103322866D01*
X144758286Y-103372819D01*
X144766519Y-103424140D01*
X144772400Y-103476829D01*
X144775928Y-103530887D01*
X144777104Y-103586313D01*
X144777100Y-103586313D01*
X144776459Y-103628268D01*
X144774534Y-103669282D01*
X144771326Y-103709355D01*
X144766836Y-103748487D01*
X144761062Y-103786679D01*
X144754005Y-103823929D01*
X144745665Y-103860239D01*
X144736042Y-103895607D01*
X144725136Y-103930035D01*
X144712947Y-103963522D01*
X144699475Y-103996068D01*
X144684720Y-104027673D01*
X144668682Y-104058338D01*
X144651361Y-104088061D01*
X144632757Y-104116844D01*
X144612870Y-104144686D01*
X144591166Y-104171351D01*
X144568478Y-104196606D01*
X144544806Y-104220449D01*
X144520151Y-104242880D01*
X144494512Y-104263900D01*
X144467890Y-104283509D01*
X144440283Y-104301707D01*
X144411693Y-104318493D01*
X144382120Y-104333868D01*
X144351562Y-104347832D01*
X144320021Y-104360384D01*
X144287495Y-104371525D01*
X144253987Y-104381254D01*
X144219494Y-104389573D01*
X144184017Y-104396480D01*
X144147557Y-104401975D01*
X144147557Y-104407419D01*
X144722356Y-104407419D01*
X144722356Y-104900102D01*
X140726140Y-104900102D01*
X140726140Y-104407419D01*
X141602025Y-104407419D01*
X142286309Y-104418371D01*
X142286309Y-104412927D01*
X142250512Y-104406748D01*
X142215656Y-104399157D01*
X142181741Y-104390155D01*
X142148766Y-104379741D01*
X142116733Y-104367916D01*
X142085641Y-104354680D01*
X142055490Y-104340032D01*
X142026280Y-104323973D01*
X141998011Y-104306502D01*
X141970683Y-104287620D01*
X141944295Y-104267327D01*
X141918848Y-104245622D01*
X141894343Y-104222506D01*
X141870778Y-104197978D01*
X141848154Y-104172040D01*
X141826470Y-104144689D01*
X141805920Y-104116848D01*
X141786696Y-104088065D01*
X141768797Y-104058341D01*
X141752225Y-104027677D01*
X141736978Y-103996072D01*
X141723058Y-103963526D01*
X141710463Y-103930039D01*
X141699194Y-103895611D01*
X141689250Y-103860242D01*
X141680633Y-103823932D01*
X141673341Y-103786681D01*
X141667696Y-103750543D01*
X142083764Y-103750543D01*
X142084512Y-103788350D01*
X142086758Y-103825130D01*
X142090500Y-103860884D01*
X142095739Y-103895611D01*
X142102475Y-103929312D01*
X142110707Y-103961986D01*
X142120437Y-103993634D01*
X142131664Y-104024256D01*
X142144387Y-104053851D01*
X142158607Y-104082419D01*
X142174325Y-104109962D01*
X142191539Y-104136478D01*
X142210250Y-104161968D01*
X142230458Y-104186431D01*
X142252163Y-104209868D01*
X142275365Y-104232279D01*
X142299892Y-104253491D01*
X142325575Y-104273335D01*
X142352412Y-104291811D01*
X142380403Y-104308918D01*
X142409550Y-104324656D01*
X142439851Y-104339026D01*
X142471307Y-104352027D01*
X142503917Y-104363660D01*
X142537683Y-104373924D01*
X142572603Y-104382819D01*
X142608677Y-104390346D01*
X142645906Y-104396505D01*
X142684290Y-104401295D01*
X142723829Y-104404716D01*
X142764522Y-104406769D01*
X142806370Y-104407453D01*
X143627507Y-104407453D01*
X143669355Y-104406769D01*
X143710048Y-104404716D01*
X143749587Y-104401295D01*
X143787971Y-104396505D01*
X143825200Y-104390346D01*
X143861275Y-104382819D01*
X143896195Y-104373924D01*
X143929960Y-104363660D01*
X143962571Y-104352027D01*
X143994026Y-104339026D01*
X144024327Y-104324656D01*
X144053474Y-104308918D01*
X144081466Y-104291811D01*
X144108303Y-104273335D01*
X144133985Y-104253491D01*
X144158513Y-104232279D01*
X144181715Y-104209868D01*
X144203420Y-104186431D01*
X144223628Y-104161968D01*
X144242339Y-104136478D01*
X144259553Y-104109962D01*
X144275270Y-104082419D01*
X144289490Y-104053851D01*
X144302214Y-104024256D01*
X144313440Y-103993634D01*
X144323170Y-103961986D01*
X144331403Y-103929312D01*
X144338139Y-103895611D01*
X144343378Y-103860884D01*
X144347120Y-103825130D01*
X144349365Y-103788350D01*
X144350114Y-103750543D01*
X144349472Y-103712074D01*
X144347548Y-103674673D01*
X144344340Y-103638342D01*
X144339850Y-103603080D01*
X144334076Y-103568887D01*
X144327020Y-103535763D01*
X144318680Y-103503709D01*
X144309057Y-103472723D01*
X144298152Y-103442807D01*
X144285963Y-103413960D01*
X144272491Y-103386182D01*
X144257737Y-103359474D01*
X144241699Y-103333834D01*
X144224378Y-103309264D01*
X144205774Y-103285762D01*
X144185887Y-103263330D01*
X144164567Y-103242118D01*
X144141664Y-103222274D01*
X144117179Y-103203798D01*
X144091111Y-103186691D01*
X144063462Y-103170953D01*
X144034230Y-103156583D01*
X144003415Y-103143582D01*
X143971019Y-103131949D01*
X143937040Y-103121685D01*
X143901478Y-103112789D01*
X143864334Y-103105262D01*
X143825608Y-103099104D01*
X143785300Y-103094314D01*
X143743409Y-103090893D01*
X143699937Y-103088840D01*
X143654881Y-103088156D01*
X142778996Y-103088156D01*
X142733299Y-103088840D01*
X142689269Y-103090893D01*
X142646907Y-103094314D01*
X142606213Y-103099104D01*
X142567188Y-103105262D01*
X142529830Y-103112789D01*
X142494140Y-103121685D01*
X142460118Y-103131949D01*
X142427764Y-103143582D01*
X142397078Y-103156583D01*
X142368060Y-103170953D01*
X142340710Y-103186691D01*
X142315028Y-103203798D01*
X142291014Y-103222274D01*
X142268668Y-103242118D01*
X142247990Y-103263330D01*
X142228103Y-103285762D01*
X142209499Y-103309264D01*
X142192179Y-103333834D01*
X142176141Y-103359474D01*
X142161386Y-103386182D01*
X142147914Y-103413960D01*
X142135726Y-103442807D01*
X142124820Y-103472723D01*
X142115197Y-103503709D01*
X142106858Y-103535763D01*
X142099801Y-103568887D01*
X142094028Y-103603080D01*
X142089537Y-103638342D01*
X142086330Y-103674673D01*
X142084405Y-103712074D01*
X142083764Y-103750543D01*
X141667696Y-103750543D01*
X141667375Y-103748490D01*
X141662735Y-103709357D01*
X141659421Y-103669283D01*
X141657432Y-103628269D01*
X141656769Y-103586313D01*
X141657946Y-103530245D01*
X141661474Y-103475631D01*
X141667354Y-103422471D01*
X141675587Y-103370765D01*
X141686171Y-103320513D01*
X141699108Y-103271715D01*
X141714398Y-103224371D01*
X141732039Y-103178481D01*
X141752033Y-103134046D01*
X141774379Y-103091064D01*
X141799078Y-103049536D01*
X141826128Y-103009463D01*
X141855532Y-102970843D01*
X141887287Y-102933678D01*
X141921395Y-102897967D01*
X141957856Y-102863710D01*
X141996347Y-102831228D01*
X142036549Y-102800842D01*
X142078462Y-102772551D01*
X142122085Y-102746355D01*
X142167419Y-102722256D01*
X142214464Y-102700251D01*
X142263219Y-102680343D01*
X142313685Y-102662530D01*
X142365861Y-102646812D01*
X142419748Y-102633191D01*
X142475346Y-102621664D01*
X142532655Y-102612234D01*
X142591674Y-102604899D01*
X142652404Y-102599660D01*
X142714845Y-102596516D01*
X142778996Y-102595468D01*
X143660351Y-102595468D01*
X143723840Y-102596516D01*
G37*
X140844277Y-87032539D02*
X140863352Y-87033758D01*
X140881913Y-87035789D01*
X140899962Y-87038633D01*
X140917497Y-87042290D01*
X140934518Y-87046759D01*
X140951027Y-87052040D01*
X140967022Y-87058134D01*
X140982504Y-87065041D01*
X140997473Y-87072760D01*
X141011929Y-87081292D01*
X141025871Y-87090637D01*
X141039300Y-87100794D01*
X141052216Y-87111763D01*
X141064619Y-87123546D01*
X141076508Y-87136141D01*
X141087778Y-87149441D01*
X141098320Y-87163341D01*
X141108135Y-87177839D01*
X141117223Y-87192936D01*
X141125584Y-87208631D01*
X141133218Y-87224926D01*
X141140124Y-87241819D01*
X141146304Y-87259311D01*
X141151756Y-87277401D01*
X141156482Y-87296091D01*
X141160480Y-87315379D01*
X141163752Y-87335266D01*
X141166296Y-87355751D01*
X141168114Y-87376836D01*
X141169204Y-87398519D01*
X141169568Y-87420801D01*
X141169204Y-87443084D01*
X141168114Y-87464767D01*
X141166296Y-87485852D01*
X141163752Y-87506338D01*
X141160480Y-87526226D01*
X141156482Y-87545514D01*
X141151756Y-87564204D01*
X141146304Y-87582295D01*
X141140124Y-87599787D01*
X141133218Y-87616680D01*
X141125584Y-87632975D01*
X141117223Y-87648670D01*
X141108135Y-87663767D01*
X141098320Y-87678265D01*
X141087778Y-87692165D01*
X141076508Y-87705465D01*
X141064619Y-87718060D01*
X141052216Y-87729842D01*
X141039300Y-87740812D01*
X141025870Y-87750969D01*
X141011928Y-87760314D01*
X140997472Y-87768845D01*
X140982503Y-87776565D01*
X140967021Y-87783471D01*
X140951025Y-87789566D01*
X140934517Y-87794847D01*
X140917495Y-87799316D01*
X140899960Y-87802973D01*
X140881912Y-87805816D01*
X140863351Y-87807848D01*
X140844276Y-87809067D01*
X140824689Y-87809473D01*
X140804438Y-87809067D01*
X140784744Y-87807848D01*
X140765605Y-87805816D01*
X140747023Y-87802973D01*
X140728996Y-87799316D01*
X140711526Y-87794847D01*
X140694611Y-87789566D01*
X140678252Y-87783471D01*
X140662450Y-87776565D01*
X140647203Y-87768845D01*
X140632513Y-87760314D01*
X140618378Y-87750969D01*
X140604799Y-87740812D01*
X140591776Y-87729842D01*
X140579310Y-87718060D01*
X140567399Y-87705465D01*
X140555467Y-87692165D01*
X140544305Y-87678265D01*
X140533913Y-87663767D01*
X140524290Y-87648670D01*
X140515438Y-87632975D01*
X140507355Y-87616680D01*
X140500042Y-87599787D01*
X140493499Y-87582295D01*
X140487725Y-87564204D01*
X140482721Y-87545514D01*
X140478488Y-87526226D01*
X140475023Y-87506338D01*
X140472329Y-87485852D01*
X140470405Y-87464767D01*
X140469250Y-87443084D01*
X140468865Y-87420801D01*
X140469250Y-87398519D01*
X140470405Y-87376836D01*
X140472329Y-87355751D01*
X140475023Y-87335266D01*
X140478488Y-87315379D01*
X140482721Y-87296091D01*
X140487725Y-87277401D01*
X140493499Y-87259311D01*
X140500042Y-87241819D01*
X140507355Y-87224926D01*
X140515438Y-87208631D01*
X140524290Y-87192936D01*
X140533913Y-87177839D01*
X140544305Y-87163341D01*
X140555467Y-87149441D01*
X140567399Y-87136141D01*
X140579310Y-87123546D01*
X140591776Y-87111763D01*
X140604799Y-87100794D01*
X140618378Y-87090637D01*
X140632513Y-87081292D01*
X140647203Y-87072760D01*
X140662450Y-87065041D01*
X140678252Y-87058134D01*
X140694611Y-87052040D01*
X140711526Y-87046759D01*
X140728996Y-87042290D01*
X140747023Y-87038633D01*
X140765605Y-87035789D01*
X140784744Y-87033758D01*
X140804438Y-87032539D01*
X140824689Y-87032133D01*
X140844277Y-87032539D01*
G36*
X140844277Y-87032539D02*
G01*
X140863352Y-87033758D01*
X140881913Y-87035789D01*
X140899962Y-87038633D01*
X140917497Y-87042290D01*
X140934518Y-87046759D01*
X140951027Y-87052040D01*
X140967022Y-87058134D01*
X140982504Y-87065041D01*
X140997473Y-87072760D01*
X141011929Y-87081292D01*
X141025871Y-87090637D01*
X141039300Y-87100794D01*
X141052216Y-87111763D01*
X141064619Y-87123546D01*
X141076508Y-87136141D01*
X141087778Y-87149441D01*
X141098320Y-87163341D01*
X141108135Y-87177839D01*
X141117223Y-87192936D01*
X141125584Y-87208631D01*
X141133218Y-87224926D01*
X141140124Y-87241819D01*
X141146304Y-87259311D01*
X141151756Y-87277401D01*
X141156482Y-87296091D01*
X141160480Y-87315379D01*
X141163752Y-87335266D01*
X141166296Y-87355751D01*
X141168114Y-87376836D01*
X141169204Y-87398519D01*
X141169568Y-87420801D01*
X141169204Y-87443084D01*
X141168114Y-87464767D01*
X141166296Y-87485852D01*
X141163752Y-87506338D01*
X141160480Y-87526226D01*
X141156482Y-87545514D01*
X141151756Y-87564204D01*
X141146304Y-87582295D01*
X141140124Y-87599787D01*
X141133218Y-87616680D01*
X141125584Y-87632975D01*
X141117223Y-87648670D01*
X141108135Y-87663767D01*
X141098320Y-87678265D01*
X141087778Y-87692165D01*
X141076508Y-87705465D01*
X141064619Y-87718060D01*
X141052216Y-87729842D01*
X141039300Y-87740812D01*
X141025870Y-87750969D01*
X141011928Y-87760314D01*
X140997472Y-87768845D01*
X140982503Y-87776565D01*
X140967021Y-87783471D01*
X140951025Y-87789566D01*
X140934517Y-87794847D01*
X140917495Y-87799316D01*
X140899960Y-87802973D01*
X140881912Y-87805816D01*
X140863351Y-87807848D01*
X140844276Y-87809067D01*
X140824689Y-87809473D01*
X140804438Y-87809067D01*
X140784744Y-87807848D01*
X140765605Y-87805816D01*
X140747023Y-87802973D01*
X140728996Y-87799316D01*
X140711526Y-87794847D01*
X140694611Y-87789566D01*
X140678252Y-87783471D01*
X140662450Y-87776565D01*
X140647203Y-87768845D01*
X140632513Y-87760314D01*
X140618378Y-87750969D01*
X140604799Y-87740812D01*
X140591776Y-87729842D01*
X140579310Y-87718060D01*
X140567399Y-87705465D01*
X140555467Y-87692165D01*
X140544305Y-87678265D01*
X140533913Y-87663767D01*
X140524290Y-87648670D01*
X140515438Y-87632975D01*
X140507355Y-87616680D01*
X140500042Y-87599787D01*
X140493499Y-87582295D01*
X140487725Y-87564204D01*
X140482721Y-87545514D01*
X140478488Y-87526226D01*
X140475023Y-87506338D01*
X140472329Y-87485852D01*
X140470405Y-87464767D01*
X140469250Y-87443084D01*
X140468865Y-87420801D01*
X140469250Y-87398519D01*
X140470405Y-87376836D01*
X140472329Y-87355751D01*
X140475023Y-87335266D01*
X140478488Y-87315379D01*
X140482721Y-87296091D01*
X140487725Y-87277401D01*
X140493499Y-87259311D01*
X140500042Y-87241819D01*
X140507355Y-87224926D01*
X140515438Y-87208631D01*
X140524290Y-87192936D01*
X140533913Y-87177839D01*
X140544305Y-87163341D01*
X140555467Y-87149441D01*
X140567399Y-87136141D01*
X140579310Y-87123546D01*
X140591776Y-87111763D01*
X140604799Y-87100794D01*
X140618378Y-87090637D01*
X140632513Y-87081292D01*
X140647203Y-87072760D01*
X140662450Y-87065041D01*
X140678252Y-87058134D01*
X140694611Y-87052040D01*
X140711526Y-87046759D01*
X140728996Y-87042290D01*
X140747023Y-87038633D01*
X140765605Y-87035789D01*
X140784744Y-87033758D01*
X140804438Y-87032539D01*
X140824689Y-87032133D01*
X140844277Y-87032539D01*
G37*
X141175042Y-90185308D02*
X143873852Y-90185308D01*
X143921174Y-90186228D01*
X143967342Y-90188986D01*
X144012354Y-90193584D01*
X144056213Y-90200020D01*
X144098916Y-90208296D01*
X144140465Y-90218410D01*
X144180859Y-90230364D01*
X144220098Y-90244157D01*
X144258183Y-90259788D01*
X144295113Y-90277259D01*
X144330888Y-90296568D01*
X144365509Y-90317717D01*
X144398975Y-90340705D01*
X144431286Y-90365531D01*
X144462442Y-90392197D01*
X144492444Y-90420702D01*
X144520285Y-90451430D01*
X144546331Y-90483398D01*
X144570580Y-90516607D01*
X144593033Y-90551056D01*
X144613690Y-90586746D01*
X144632550Y-90623676D01*
X144649615Y-90661846D01*
X144664883Y-90701256D01*
X144678355Y-90741907D01*
X144690030Y-90783798D01*
X144699910Y-90826929D01*
X144707993Y-90871301D01*
X144714280Y-90916912D01*
X144718771Y-90963764D01*
X144721465Y-91011857D01*
X144722363Y-91061189D01*
X144722367Y-91991815D01*
X144273480Y-91991815D01*
X144273480Y-91061189D01*
X144273074Y-91039571D01*
X144271855Y-91018508D01*
X144269824Y-90998001D01*
X144266980Y-90978050D01*
X144263323Y-90958655D01*
X144258854Y-90939815D01*
X144253573Y-90921532D01*
X144247478Y-90903805D01*
X144240571Y-90886634D01*
X144232852Y-90870019D01*
X144224320Y-90853959D01*
X144214975Y-90838456D01*
X144204817Y-90823509D01*
X144193847Y-90809118D01*
X144182064Y-90795282D01*
X144169469Y-90782003D01*
X144155484Y-90769408D01*
X144140900Y-90757626D01*
X144125717Y-90746656D01*
X144109936Y-90736499D01*
X144093556Y-90727154D01*
X144076577Y-90718622D01*
X144058999Y-90710902D01*
X144040823Y-90703995D01*
X144022048Y-90697901D01*
X144002674Y-90692619D01*
X143982701Y-90688149D01*
X143962130Y-90684493D01*
X143940959Y-90681648D01*
X143919190Y-90679617D01*
X143896823Y-90678398D01*
X143873856Y-90677992D01*
X140726151Y-90677992D01*
X140726151Y-89145197D01*
X141175042Y-89145197D01*
X141175042Y-90185308D01*
G36*
X141175042Y-90185308D02*
G01*
X143873852Y-90185308D01*
X143921174Y-90186228D01*
X143967342Y-90188986D01*
X144012354Y-90193584D01*
X144056213Y-90200020D01*
X144098916Y-90208296D01*
X144140465Y-90218410D01*
X144180859Y-90230364D01*
X144220098Y-90244157D01*
X144258183Y-90259788D01*
X144295113Y-90277259D01*
X144330888Y-90296568D01*
X144365509Y-90317717D01*
X144398975Y-90340705D01*
X144431286Y-90365531D01*
X144462442Y-90392197D01*
X144492444Y-90420702D01*
X144520285Y-90451430D01*
X144546331Y-90483398D01*
X144570580Y-90516607D01*
X144593033Y-90551056D01*
X144613690Y-90586746D01*
X144632550Y-90623676D01*
X144649615Y-90661846D01*
X144664883Y-90701256D01*
X144678355Y-90741907D01*
X144690030Y-90783798D01*
X144699910Y-90826929D01*
X144707993Y-90871301D01*
X144714280Y-90916912D01*
X144718771Y-90963764D01*
X144721465Y-91011857D01*
X144722363Y-91061189D01*
X144722367Y-91991815D01*
X144273480Y-91991815D01*
X144273480Y-91061189D01*
X144273074Y-91039571D01*
X144271855Y-91018508D01*
X144269824Y-90998001D01*
X144266980Y-90978050D01*
X144263323Y-90958655D01*
X144258854Y-90939815D01*
X144253573Y-90921532D01*
X144247478Y-90903805D01*
X144240571Y-90886634D01*
X144232852Y-90870019D01*
X144224320Y-90853959D01*
X144214975Y-90838456D01*
X144204817Y-90823509D01*
X144193847Y-90809118D01*
X144182064Y-90795282D01*
X144169469Y-90782003D01*
X144155484Y-90769408D01*
X144140900Y-90757626D01*
X144125717Y-90746656D01*
X144109936Y-90736499D01*
X144093556Y-90727154D01*
X144076577Y-90718622D01*
X144058999Y-90710902D01*
X144040823Y-90703995D01*
X144022048Y-90697901D01*
X144002674Y-90692619D01*
X143982701Y-90688149D01*
X143962130Y-90684493D01*
X143940959Y-90681648D01*
X143919190Y-90679617D01*
X143896823Y-90678398D01*
X143873856Y-90677992D01*
X140726151Y-90677992D01*
X140726151Y-89145197D01*
X141175042Y-89145197D01*
X141175042Y-90185308D01*
G37*
X149361866Y-86064254D02*
X149412696Y-86067461D01*
X149462285Y-86072807D01*
X149510634Y-86080292D01*
X149557743Y-86089915D01*
X149603611Y-86101676D01*
X149648239Y-86115576D01*
X149691627Y-86131614D01*
X149733775Y-86149790D01*
X149774682Y-86170104D01*
X149814349Y-86192557D01*
X149852775Y-86217149D01*
X149889961Y-86243878D01*
X149925907Y-86272746D01*
X149960612Y-86303752D01*
X149994076Y-86336897D01*
X150025234Y-86371859D01*
X150054380Y-86408319D01*
X150081517Y-86446275D01*
X150106644Y-86485729D01*
X150129760Y-86526679D01*
X150150866Y-86569126D01*
X150169962Y-86613070D01*
X150187048Y-86658510D01*
X150202123Y-86705448D01*
X150215189Y-86753883D01*
X150226244Y-86803814D01*
X150235290Y-86855243D01*
X150242325Y-86908168D01*
X150247350Y-86962590D01*
X150250365Y-87018510D01*
X150251370Y-87075924D01*
X150250750Y-87123907D01*
X150248890Y-87170694D01*
X150245789Y-87216284D01*
X150241448Y-87260677D01*
X150235867Y-87303872D01*
X150229046Y-87345869D01*
X150220984Y-87386670D01*
X150211682Y-87426272D01*
X150201140Y-87464677D01*
X150189357Y-87501885D01*
X150176335Y-87537896D01*
X150162072Y-87572709D01*
X150146569Y-87606324D01*
X150129825Y-87638743D01*
X150111842Y-87669964D01*
X150092618Y-87699987D01*
X150071639Y-87728663D01*
X150049763Y-87755842D01*
X150026989Y-87781524D01*
X150003317Y-87805709D01*
X149978746Y-87828397D01*
X149953278Y-87849588D01*
X149926911Y-87869282D01*
X149899647Y-87887480D01*
X149871484Y-87904180D01*
X149842423Y-87919384D01*
X149812464Y-87933091D01*
X149781607Y-87945301D01*
X149749852Y-87956014D01*
X149717198Y-87965231D01*
X149683647Y-87972951D01*
X149649197Y-87979173D01*
X149649197Y-87990125D01*
X150196622Y-87990125D01*
X150196622Y-88477335D01*
X148127351Y-88477335D01*
X148069314Y-88476180D01*
X148012903Y-88472716D01*
X147958117Y-88466942D01*
X147904957Y-88458859D01*
X147853421Y-88448467D01*
X147803511Y-88435765D01*
X147755227Y-88420753D01*
X147708567Y-88403432D01*
X147663533Y-88383802D01*
X147620124Y-88361862D01*
X147578340Y-88337613D01*
X147538182Y-88311054D01*
X147499649Y-88282187D01*
X147462740Y-88251009D01*
X147427457Y-88217522D01*
X147393800Y-88181726D01*
X147361980Y-88144454D01*
X147332213Y-88105172D01*
X147304500Y-88063880D01*
X147278839Y-88020578D01*
X147255231Y-87975265D01*
X147233677Y-87927943D01*
X147214175Y-87878610D01*
X147196726Y-87827268D01*
X147181329Y-87773915D01*
X147167986Y-87718553D01*
X147156696Y-87661180D01*
X147147458Y-87601797D01*
X147140273Y-87540404D01*
X147135141Y-87477000D01*
X147132062Y-87411587D01*
X147131036Y-87344164D01*
X147131955Y-87281980D01*
X147134714Y-87221335D01*
X147139311Y-87162230D01*
X147145748Y-87104665D01*
X147154024Y-87048640D01*
X147164139Y-86994154D01*
X147176093Y-86941208D01*
X147189885Y-86889801D01*
X147205517Y-86839934D01*
X147222988Y-86791607D01*
X147242297Y-86744820D01*
X147263446Y-86699571D01*
X147286433Y-86655863D01*
X147311260Y-86613694D01*
X147337925Y-86573065D01*
X147366429Y-86533975D01*
X147395661Y-86497409D01*
X147425876Y-86462980D01*
X147457075Y-86430691D01*
X147489258Y-86400539D01*
X147522424Y-86372526D01*
X147556574Y-86346652D01*
X147591708Y-86322916D01*
X147627826Y-86301318D01*
X147664927Y-86281859D01*
X147703012Y-86264538D01*
X147742081Y-86249356D01*
X147782133Y-86236312D01*
X147823169Y-86225406D01*
X147865189Y-86216639D01*
X147908193Y-86210009D01*
X147952180Y-86205519D01*
X147952180Y-86698206D01*
X147929235Y-86700216D01*
X147906931Y-86703508D01*
X147885269Y-86708084D01*
X147864249Y-86713943D01*
X147843870Y-86721086D01*
X147833921Y-86725138D01*
X147824133Y-86729511D01*
X147814505Y-86734204D01*
X147805037Y-86739219D01*
X147786583Y-86750210D01*
X147768770Y-86762484D01*
X147751599Y-86776042D01*
X147735069Y-86790882D01*
X147719180Y-86807005D01*
X147703934Y-86824412D01*
X147689328Y-86843101D01*
X147675364Y-86863073D01*
X147662041Y-86884329D01*
X147649446Y-86906653D01*
X147637663Y-86929833D01*
X147626693Y-86953869D01*
X147616535Y-86978759D01*
X147607190Y-87004506D01*
X147598658Y-87031107D01*
X147590939Y-87058564D01*
X147584032Y-87086877D01*
X147577938Y-87116044D01*
X147572656Y-87146067D01*
X147568187Y-87176946D01*
X147564530Y-87208680D01*
X147561686Y-87241269D01*
X147559655Y-87274713D01*
X147558436Y-87309013D01*
X147558030Y-87344168D01*
X147558602Y-87383572D01*
X147560318Y-87421726D01*
X147563178Y-87458629D01*
X147567182Y-87494281D01*
X147572330Y-87528683D01*
X147578623Y-87561833D01*
X147586059Y-87593732D01*
X147594639Y-87624380D01*
X147604364Y-87653778D01*
X147615232Y-87681924D01*
X147627245Y-87708820D01*
X147640401Y-87734464D01*
X147654702Y-87758858D01*
X147670147Y-87782000D01*
X147686735Y-87803892D01*
X147704468Y-87824533D01*
X147723345Y-87843923D01*
X147743366Y-87862061D01*
X147764530Y-87878949D01*
X147786839Y-87894586D01*
X147810292Y-87908972D01*
X147834889Y-87922107D01*
X147860630Y-87933991D01*
X147887515Y-87944625D01*
X147915544Y-87954007D01*
X147944717Y-87962138D01*
X147975034Y-87969018D01*
X148006496Y-87974648D01*
X148039101Y-87979026D01*
X148072850Y-87982153D01*
X148107743Y-87984030D01*
X148143780Y-87984655D01*
X148379174Y-87984655D01*
X148379174Y-87108774D01*
X148762372Y-87108774D01*
X148762372Y-87984655D01*
X149183881Y-87984655D01*
X149221025Y-87983821D01*
X149257186Y-87981319D01*
X149292364Y-87977149D01*
X149326557Y-87971311D01*
X149359767Y-87963806D01*
X149391992Y-87954632D01*
X149423235Y-87943790D01*
X149453493Y-87931280D01*
X149482767Y-87917103D01*
X149511058Y-87901257D01*
X149538365Y-87883744D01*
X149564689Y-87864563D01*
X149590028Y-87843713D01*
X149614384Y-87821196D01*
X149637757Y-87797011D01*
X149660145Y-87771158D01*
X149681358Y-87743893D01*
X149701202Y-87715473D01*
X149719678Y-87685899D01*
X149736785Y-87655170D01*
X149752524Y-87623286D01*
X149766894Y-87590248D01*
X149779895Y-87556055D01*
X149791528Y-87520707D01*
X149801793Y-87484205D01*
X149810689Y-87446548D01*
X149818216Y-87407737D01*
X149824375Y-87367770D01*
X149829165Y-87326650D01*
X149832587Y-87284374D01*
X149834640Y-87240944D01*
X149835324Y-87196359D01*
X149834768Y-87159900D01*
X149833100Y-87124424D01*
X149830321Y-87089932D01*
X149826429Y-87056423D01*
X149821425Y-87023898D01*
X149815310Y-86992357D01*
X149808082Y-86961800D01*
X149799742Y-86932226D01*
X149790291Y-86903636D01*
X149779727Y-86876029D01*
X149768051Y-86849407D01*
X149755263Y-86823767D01*
X149741363Y-86799112D01*
X149726351Y-86775440D01*
X149710227Y-86752751D01*
X149692990Y-86731046D01*
X149674109Y-86711160D01*
X149654415Y-86692557D01*
X149633908Y-86675236D01*
X149612588Y-86659198D01*
X149590456Y-86644444D01*
X149567511Y-86630972D01*
X149543754Y-86618783D01*
X149519184Y-86607878D01*
X149493801Y-86598255D01*
X149467606Y-86589915D01*
X149440598Y-86582858D01*
X149412778Y-86577084D01*
X149384144Y-86572594D01*
X149354699Y-86569386D01*
X149324441Y-86567461D01*
X149293370Y-86566820D01*
X149263647Y-86567397D01*
X149234693Y-86569129D01*
X149206510Y-86572016D01*
X149179096Y-86576058D01*
X149152452Y-86581254D01*
X149126577Y-86587605D01*
X149101473Y-86595111D01*
X149077138Y-86603771D01*
X149053573Y-86613586D01*
X149030777Y-86624556D01*
X149008752Y-86636681D01*
X148987496Y-86649961D01*
X148967010Y-86664395D01*
X148947294Y-86679985D01*
X148928348Y-86696729D01*
X148910172Y-86714628D01*
X148892274Y-86734130D01*
X148875531Y-86754316D01*
X148859943Y-86775186D01*
X148845510Y-86796741D01*
X148832231Y-86818980D01*
X148820106Y-86841903D01*
X148809137Y-86865511D01*
X148799322Y-86889803D01*
X148790662Y-86914779D01*
X148783156Y-86940440D01*
X148776805Y-86966785D01*
X148771609Y-86993814D01*
X148767568Y-87021527D01*
X148764681Y-87049925D01*
X148762949Y-87079007D01*
X148762372Y-87108774D01*
X148379174Y-87108774D01*
X148379174Y-87054029D01*
X148379644Y-87018020D01*
X148381056Y-86982523D01*
X148383408Y-86947539D01*
X148386701Y-86913069D01*
X148390935Y-86879112D01*
X148396109Y-86845667D01*
X148402225Y-86812736D01*
X148409281Y-86780319D01*
X148417279Y-86748414D01*
X148426217Y-86717022D01*
X148436097Y-86686144D01*
X148446917Y-86655779D01*
X148458678Y-86625927D01*
X148471380Y-86596588D01*
X148485024Y-86567762D01*
X148499608Y-86539450D01*
X148514342Y-86511779D01*
X148529802Y-86484877D01*
X148545990Y-86458746D01*
X148562905Y-86433385D01*
X148580547Y-86408793D01*
X148598916Y-86384972D01*
X148618011Y-86361920D01*
X148637834Y-86339638D01*
X148658384Y-86318126D01*
X148679661Y-86297384D01*
X148701665Y-86277411D01*
X148724395Y-86258209D01*
X148747853Y-86239776D01*
X148772037Y-86222113D01*
X148796949Y-86205220D01*
X148822587Y-86189096D01*
X148848867Y-86173850D01*
X148875704Y-86159586D01*
X148903096Y-86146307D01*
X148931045Y-86134011D01*
X148959549Y-86122699D01*
X148988610Y-86112370D01*
X149018226Y-86103025D01*
X149048399Y-86094663D01*
X149079127Y-86087286D01*
X149110412Y-86080892D01*
X149142253Y-86075481D01*
X149174649Y-86071054D01*
X149207602Y-86067611D01*
X149241111Y-86065152D01*
X149275175Y-86063676D01*
X149293370Y-86063418D01*
X149309796Y-86063185D01*
X149361866Y-86064254D01*
G36*
X149361866Y-86064254D02*
G01*
X149412696Y-86067461D01*
X149462285Y-86072807D01*
X149510634Y-86080292D01*
X149557743Y-86089915D01*
X149603611Y-86101676D01*
X149648239Y-86115576D01*
X149691627Y-86131614D01*
X149733775Y-86149790D01*
X149774682Y-86170104D01*
X149814349Y-86192557D01*
X149852775Y-86217149D01*
X149889961Y-86243878D01*
X149925907Y-86272746D01*
X149960612Y-86303752D01*
X149994076Y-86336897D01*
X150025234Y-86371859D01*
X150054380Y-86408319D01*
X150081517Y-86446275D01*
X150106644Y-86485729D01*
X150129760Y-86526679D01*
X150150866Y-86569126D01*
X150169962Y-86613070D01*
X150187048Y-86658510D01*
X150202123Y-86705448D01*
X150215189Y-86753883D01*
X150226244Y-86803814D01*
X150235290Y-86855243D01*
X150242325Y-86908168D01*
X150247350Y-86962590D01*
X150250365Y-87018510D01*
X150251370Y-87075924D01*
X150250750Y-87123907D01*
X150248890Y-87170694D01*
X150245789Y-87216284D01*
X150241448Y-87260677D01*
X150235867Y-87303872D01*
X150229046Y-87345869D01*
X150220984Y-87386670D01*
X150211682Y-87426272D01*
X150201140Y-87464677D01*
X150189357Y-87501885D01*
X150176335Y-87537896D01*
X150162072Y-87572709D01*
X150146569Y-87606324D01*
X150129825Y-87638743D01*
X150111842Y-87669964D01*
X150092618Y-87699987D01*
X150071639Y-87728663D01*
X150049763Y-87755842D01*
X150026989Y-87781524D01*
X150003317Y-87805709D01*
X149978746Y-87828397D01*
X149953278Y-87849588D01*
X149926911Y-87869282D01*
X149899647Y-87887480D01*
X149871484Y-87904180D01*
X149842423Y-87919384D01*
X149812464Y-87933091D01*
X149781607Y-87945301D01*
X149749852Y-87956014D01*
X149717198Y-87965231D01*
X149683647Y-87972951D01*
X149649197Y-87979173D01*
X149649197Y-87990125D01*
X150196622Y-87990125D01*
X150196622Y-88477335D01*
X148127351Y-88477335D01*
X148069314Y-88476180D01*
X148012903Y-88472716D01*
X147958117Y-88466942D01*
X147904957Y-88458859D01*
X147853421Y-88448467D01*
X147803511Y-88435765D01*
X147755227Y-88420753D01*
X147708567Y-88403432D01*
X147663533Y-88383802D01*
X147620124Y-88361862D01*
X147578340Y-88337613D01*
X147538182Y-88311054D01*
X147499649Y-88282187D01*
X147462740Y-88251009D01*
X147427457Y-88217522D01*
X147393800Y-88181726D01*
X147361980Y-88144454D01*
X147332213Y-88105172D01*
X147304500Y-88063880D01*
X147278839Y-88020578D01*
X147255231Y-87975265D01*
X147233677Y-87927943D01*
X147214175Y-87878610D01*
X147196726Y-87827268D01*
X147181329Y-87773915D01*
X147167986Y-87718553D01*
X147156696Y-87661180D01*
X147147458Y-87601797D01*
X147140273Y-87540404D01*
X147135141Y-87477000D01*
X147132062Y-87411587D01*
X147131036Y-87344164D01*
X147131955Y-87281980D01*
X147134714Y-87221335D01*
X147139311Y-87162230D01*
X147145748Y-87104665D01*
X147154024Y-87048640D01*
X147164139Y-86994154D01*
X147176093Y-86941208D01*
X147189885Y-86889801D01*
X147205517Y-86839934D01*
X147222988Y-86791607D01*
X147242297Y-86744820D01*
X147263446Y-86699571D01*
X147286433Y-86655863D01*
X147311260Y-86613694D01*
X147337925Y-86573065D01*
X147366429Y-86533975D01*
X147395661Y-86497409D01*
X147425876Y-86462980D01*
X147457075Y-86430691D01*
X147489258Y-86400539D01*
X147522424Y-86372526D01*
X147556574Y-86346652D01*
X147591708Y-86322916D01*
X147627826Y-86301318D01*
X147664927Y-86281859D01*
X147703012Y-86264538D01*
X147742081Y-86249356D01*
X147782133Y-86236312D01*
X147823169Y-86225406D01*
X147865189Y-86216639D01*
X147908193Y-86210009D01*
X147952180Y-86205519D01*
X147952180Y-86698206D01*
X147929235Y-86700216D01*
X147906931Y-86703508D01*
X147885269Y-86708084D01*
X147864249Y-86713943D01*
X147843870Y-86721086D01*
X147833921Y-86725138D01*
X147824133Y-86729511D01*
X147814505Y-86734204D01*
X147805037Y-86739219D01*
X147786583Y-86750210D01*
X147768770Y-86762484D01*
X147751599Y-86776042D01*
X147735069Y-86790882D01*
X147719180Y-86807005D01*
X147703934Y-86824412D01*
X147689328Y-86843101D01*
X147675364Y-86863073D01*
X147662041Y-86884329D01*
X147649446Y-86906653D01*
X147637663Y-86929833D01*
X147626693Y-86953869D01*
X147616535Y-86978759D01*
X147607190Y-87004506D01*
X147598658Y-87031107D01*
X147590939Y-87058564D01*
X147584032Y-87086877D01*
X147577938Y-87116044D01*
X147572656Y-87146067D01*
X147568187Y-87176946D01*
X147564530Y-87208680D01*
X147561686Y-87241269D01*
X147559655Y-87274713D01*
X147558436Y-87309013D01*
X147558030Y-87344168D01*
X147558602Y-87383572D01*
X147560318Y-87421726D01*
X147563178Y-87458629D01*
X147567182Y-87494281D01*
X147572330Y-87528683D01*
X147578623Y-87561833D01*
X147586059Y-87593732D01*
X147594639Y-87624380D01*
X147604364Y-87653778D01*
X147615232Y-87681924D01*
X147627245Y-87708820D01*
X147640401Y-87734464D01*
X147654702Y-87758858D01*
X147670147Y-87782000D01*
X147686735Y-87803892D01*
X147704468Y-87824533D01*
X147723345Y-87843923D01*
X147743366Y-87862061D01*
X147764530Y-87878949D01*
X147786839Y-87894586D01*
X147810292Y-87908972D01*
X147834889Y-87922107D01*
X147860630Y-87933991D01*
X147887515Y-87944625D01*
X147915544Y-87954007D01*
X147944717Y-87962138D01*
X147975034Y-87969018D01*
X148006496Y-87974648D01*
X148039101Y-87979026D01*
X148072850Y-87982153D01*
X148107743Y-87984030D01*
X148143780Y-87984655D01*
X148379174Y-87984655D01*
X148379174Y-87108774D01*
X148762372Y-87108774D01*
X148762372Y-87984655D01*
X149183881Y-87984655D01*
X149221025Y-87983821D01*
X149257186Y-87981319D01*
X149292364Y-87977149D01*
X149326557Y-87971311D01*
X149359767Y-87963806D01*
X149391992Y-87954632D01*
X149423235Y-87943790D01*
X149453493Y-87931280D01*
X149482767Y-87917103D01*
X149511058Y-87901257D01*
X149538365Y-87883744D01*
X149564689Y-87864563D01*
X149590028Y-87843713D01*
X149614384Y-87821196D01*
X149637757Y-87797011D01*
X149660145Y-87771158D01*
X149681358Y-87743893D01*
X149701202Y-87715473D01*
X149719678Y-87685899D01*
X149736785Y-87655170D01*
X149752524Y-87623286D01*
X149766894Y-87590248D01*
X149779895Y-87556055D01*
X149791528Y-87520707D01*
X149801793Y-87484205D01*
X149810689Y-87446548D01*
X149818216Y-87407737D01*
X149824375Y-87367770D01*
X149829165Y-87326650D01*
X149832587Y-87284374D01*
X149834640Y-87240944D01*
X149835324Y-87196359D01*
X149834768Y-87159900D01*
X149833100Y-87124424D01*
X149830321Y-87089932D01*
X149826429Y-87056423D01*
X149821425Y-87023898D01*
X149815310Y-86992357D01*
X149808082Y-86961800D01*
X149799742Y-86932226D01*
X149790291Y-86903636D01*
X149779727Y-86876029D01*
X149768051Y-86849407D01*
X149755263Y-86823767D01*
X149741363Y-86799112D01*
X149726351Y-86775440D01*
X149710227Y-86752751D01*
X149692990Y-86731046D01*
X149674109Y-86711160D01*
X149654415Y-86692557D01*
X149633908Y-86675236D01*
X149612588Y-86659198D01*
X149590456Y-86644444D01*
X149567511Y-86630972D01*
X149543754Y-86618783D01*
X149519184Y-86607878D01*
X149493801Y-86598255D01*
X149467606Y-86589915D01*
X149440598Y-86582858D01*
X149412778Y-86577084D01*
X149384144Y-86572594D01*
X149354699Y-86569386D01*
X149324441Y-86567461D01*
X149293370Y-86566820D01*
X149263647Y-86567397D01*
X149234693Y-86569129D01*
X149206510Y-86572016D01*
X149179096Y-86576058D01*
X149152452Y-86581254D01*
X149126577Y-86587605D01*
X149101473Y-86595111D01*
X149077138Y-86603771D01*
X149053573Y-86613586D01*
X149030777Y-86624556D01*
X149008752Y-86636681D01*
X148987496Y-86649961D01*
X148967010Y-86664395D01*
X148947294Y-86679985D01*
X148928348Y-86696729D01*
X148910172Y-86714628D01*
X148892274Y-86734130D01*
X148875531Y-86754316D01*
X148859943Y-86775186D01*
X148845510Y-86796741D01*
X148832231Y-86818980D01*
X148820106Y-86841903D01*
X148809137Y-86865511D01*
X148799322Y-86889803D01*
X148790662Y-86914779D01*
X148783156Y-86940440D01*
X148776805Y-86966785D01*
X148771609Y-86993814D01*
X148767568Y-87021527D01*
X148764681Y-87049925D01*
X148762949Y-87079007D01*
X148762372Y-87108774D01*
X148379174Y-87108774D01*
X148379174Y-87054029D01*
X148379644Y-87018020D01*
X148381056Y-86982523D01*
X148383408Y-86947539D01*
X148386701Y-86913069D01*
X148390935Y-86879112D01*
X148396109Y-86845667D01*
X148402225Y-86812736D01*
X148409281Y-86780319D01*
X148417279Y-86748414D01*
X148426217Y-86717022D01*
X148436097Y-86686144D01*
X148446917Y-86655779D01*
X148458678Y-86625927D01*
X148471380Y-86596588D01*
X148485024Y-86567762D01*
X148499608Y-86539450D01*
X148514342Y-86511779D01*
X148529802Y-86484877D01*
X148545990Y-86458746D01*
X148562905Y-86433385D01*
X148580547Y-86408793D01*
X148598916Y-86384972D01*
X148618011Y-86361920D01*
X148637834Y-86339638D01*
X148658384Y-86318126D01*
X148679661Y-86297384D01*
X148701665Y-86277411D01*
X148724395Y-86258209D01*
X148747853Y-86239776D01*
X148772037Y-86222113D01*
X148796949Y-86205220D01*
X148822587Y-86189096D01*
X148848867Y-86173850D01*
X148875704Y-86159586D01*
X148903096Y-86146307D01*
X148931045Y-86134011D01*
X148959549Y-86122699D01*
X148988610Y-86112370D01*
X149018226Y-86103025D01*
X149048399Y-86094663D01*
X149079127Y-86087286D01*
X149110412Y-86080892D01*
X149142253Y-86075481D01*
X149174649Y-86071054D01*
X149207602Y-86067611D01*
X149241111Y-86065152D01*
X149275175Y-86063676D01*
X149293370Y-86063418D01*
X149309796Y-86063185D01*
X149361866Y-86064254D01*
G37*
X144722363Y-85422697D02*
X144273473Y-85422697D01*
X144273473Y-83616190D01*
X140726151Y-83616190D01*
X140726151Y-83123503D01*
X144722363Y-83123503D01*
X144722363Y-85422697D01*
G36*
X144722363Y-85422697D02*
G01*
X144273473Y-85422697D01*
X144273473Y-83616190D01*
X140726151Y-83616190D01*
X140726151Y-83123503D01*
X144722363Y-83123503D01*
X144722363Y-85422697D01*
G37*
D11*
X151349892Y-83093592D02*
X151453408Y-104626966D01*
D10*
X148280625Y-89484640D02*
X150196622Y-89484640D01*
X150196622Y-89977320D01*
X149621823Y-89977320D01*
X149621823Y-89982763D01*
X149658284Y-89988259D01*
X149693761Y-89995166D01*
X149728254Y-90003484D01*
X149761763Y-90013214D01*
X149794288Y-90024355D01*
X149825830Y-90036907D01*
X149856387Y-90050870D01*
X149885961Y-90066245D01*
X149914551Y-90083032D01*
X149942158Y-90101229D01*
X149968780Y-90120838D01*
X149994419Y-90141858D01*
X150019075Y-90164290D01*
X150042747Y-90188133D01*
X150065435Y-90213387D01*
X150087140Y-90240053D01*
X150107026Y-90267895D01*
X150125630Y-90296677D01*
X150142951Y-90326401D01*
X150158988Y-90357065D01*
X150173743Y-90388671D01*
X150187215Y-90421217D01*
X150199405Y-90454703D01*
X150210311Y-90489131D01*
X150219934Y-90524500D01*
X150228274Y-90560809D01*
X150235331Y-90598060D01*
X150241105Y-90636251D01*
X150245596Y-90675383D01*
X150248804Y-90715457D01*
X150250729Y-90756471D01*
X150251370Y-90798425D01*
X150251370Y-90798433D01*
X150250194Y-90854502D01*
X150246666Y-90909116D01*
X150240785Y-90962276D01*
X150232552Y-91013983D01*
X150221967Y-91064235D01*
X150209029Y-91113033D01*
X150193740Y-91160376D01*
X150176098Y-91206266D01*
X150156103Y-91250702D01*
X150133757Y-91293683D01*
X150109059Y-91335211D01*
X150082008Y-91375284D01*
X150052605Y-91413903D01*
X150020850Y-91451068D01*
X149986743Y-91486779D01*
X149950284Y-91521036D01*
X149911813Y-91553518D01*
X149871675Y-91583904D01*
X149829868Y-91612195D01*
X149786394Y-91638390D01*
X149741252Y-91662490D01*
X149694442Y-91684494D01*
X149645965Y-91704402D01*
X149595819Y-91722215D01*
X149544006Y-91737932D01*
X149490524Y-91751553D01*
X149435375Y-91763079D01*
X149378558Y-91772509D01*
X149320073Y-91779844D01*
X149259920Y-91785083D01*
X149198099Y-91788226D01*
X149134610Y-91789274D01*
X148253258Y-91789274D01*
X148189107Y-91788226D01*
X148126666Y-91785083D01*
X148065936Y-91779844D01*
X148006917Y-91772509D01*
X147949608Y-91763079D01*
X147894010Y-91751553D01*
X147840123Y-91737932D01*
X147787946Y-91722215D01*
X147737480Y-91704402D01*
X147688725Y-91684494D01*
X147641680Y-91662490D01*
X147596346Y-91638390D01*
X147552722Y-91612195D01*
X147510809Y-91583904D01*
X147470606Y-91553518D01*
X147432114Y-91521036D01*
X147395654Y-91486779D01*
X147361547Y-91451068D01*
X147329792Y-91413903D01*
X147300388Y-91375284D01*
X147273338Y-91335211D01*
X147248639Y-91293683D01*
X147226293Y-91250702D01*
X147206299Y-91206266D01*
X147188657Y-91160376D01*
X147173368Y-91113033D01*
X147160431Y-91064235D01*
X147149846Y-91013983D01*
X147141613Y-90962276D01*
X147135732Y-90909116D01*
X147132204Y-90854502D01*
X147131028Y-90798433D01*
X147131691Y-90756457D01*
X147133680Y-90715379D01*
X147136994Y-90675198D01*
X147141634Y-90635916D01*
X147141901Y-90634199D01*
X147558018Y-90634199D01*
X147558660Y-90672669D01*
X147560585Y-90710069D01*
X147563792Y-90746400D01*
X147568283Y-90781663D01*
X147574057Y-90815855D01*
X147581113Y-90848979D01*
X147589453Y-90881033D01*
X147599076Y-90912019D01*
X147609982Y-90941935D01*
X147622171Y-90970781D01*
X147635642Y-90998559D01*
X147650397Y-91025267D01*
X147666435Y-91050906D01*
X147683755Y-91075476D01*
X147702359Y-91098977D01*
X147722245Y-91121408D01*
X147742923Y-91142622D01*
X147765269Y-91162466D01*
X147789283Y-91180942D01*
X147814965Y-91198049D01*
X147842315Y-91213788D01*
X147871333Y-91228158D01*
X147902019Y-91241160D01*
X147934373Y-91252793D01*
X147968394Y-91263057D01*
X148004084Y-91271953D01*
X148041442Y-91279480D01*
X148080468Y-91285638D01*
X148121162Y-91290428D01*
X148163523Y-91293850D01*
X148207553Y-91295903D01*
X148253251Y-91296587D01*
X149129140Y-91296587D01*
X149174195Y-91295903D01*
X149217668Y-91293850D01*
X149259559Y-91290428D01*
X149299867Y-91285638D01*
X149338593Y-91279480D01*
X149375737Y-91271953D01*
X149411298Y-91263057D01*
X149445277Y-91252793D01*
X149477674Y-91241160D01*
X149508488Y-91228158D01*
X149537720Y-91213788D01*
X149565370Y-91198049D01*
X149591437Y-91180942D01*
X149615922Y-91162466D01*
X149638825Y-91142622D01*
X149660145Y-91121408D01*
X149680032Y-91098977D01*
X149698635Y-91075476D01*
X149715956Y-91050906D01*
X149731993Y-91025267D01*
X149746747Y-90998559D01*
X149760219Y-90970781D01*
X149772407Y-90941935D01*
X149783313Y-90912019D01*
X149792935Y-90881033D01*
X149801274Y-90848979D01*
X149808331Y-90815855D01*
X149814104Y-90781663D01*
X149818595Y-90746400D01*
X149821802Y-90710069D01*
X149823727Y-90672669D01*
X149824368Y-90634199D01*
X149824376Y-90634199D01*
X149823627Y-90597034D01*
X149821382Y-90560810D01*
X149817640Y-90525527D01*
X149812401Y-90491184D01*
X149805665Y-90457783D01*
X149797433Y-90425322D01*
X149787703Y-90393802D01*
X149776477Y-90363223D01*
X149763753Y-90333585D01*
X149749533Y-90304888D01*
X149733816Y-90277132D01*
X149716603Y-90250316D01*
X149697892Y-90224442D01*
X149677684Y-90199508D01*
X149655980Y-90175516D01*
X149632779Y-90152464D01*
X149608251Y-90131251D01*
X149582568Y-90111407D01*
X149555730Y-90092932D01*
X149527738Y-90075825D01*
X149498591Y-90060086D01*
X149468290Y-90045717D01*
X149436834Y-90032715D01*
X149404223Y-90021083D01*
X149370458Y-90010819D01*
X149335538Y-90001923D01*
X149299464Y-89994396D01*
X149262235Y-89988237D01*
X149223851Y-89983447D01*
X149184313Y-89980026D01*
X149143620Y-89977973D01*
X149101773Y-89977289D01*
X148280625Y-89977289D01*
X148238777Y-89977973D01*
X148198084Y-89980026D01*
X148158545Y-89983447D01*
X148120161Y-89988237D01*
X148082932Y-89994396D01*
X148046857Y-90001923D01*
X148011937Y-90010819D01*
X147978172Y-90021083D01*
X147945562Y-90032715D01*
X147914106Y-90045717D01*
X147883805Y-90060086D01*
X147854658Y-90075825D01*
X147826666Y-90092932D01*
X147799829Y-90111407D01*
X147774147Y-90131251D01*
X147749619Y-90152464D01*
X147726418Y-90175516D01*
X147704714Y-90199508D01*
X147684506Y-90224442D01*
X147665795Y-90250316D01*
X147648581Y-90277132D01*
X147632864Y-90304888D01*
X147618643Y-90333585D01*
X147605920Y-90363223D01*
X147594693Y-90393802D01*
X147584963Y-90425322D01*
X147576730Y-90457783D01*
X147569994Y-90491184D01*
X147564755Y-90525527D01*
X147561012Y-90560810D01*
X147558767Y-90597034D01*
X147558018Y-90634199D01*
X147141901Y-90634199D01*
X147147601Y-90597532D01*
X147154893Y-90560046D01*
X147163510Y-90523459D01*
X147173454Y-90487769D01*
X147184723Y-90452977D01*
X147197319Y-90419084D01*
X147211240Y-90386088D01*
X147226487Y-90353991D01*
X147243059Y-90322792D01*
X147260958Y-90292491D01*
X147280182Y-90263088D01*
X147300732Y-90234583D01*
X147322415Y-90207896D01*
X147345039Y-90182577D01*
X147368604Y-90158627D01*
X147393109Y-90136046D01*
X147418556Y-90114833D01*
X147444943Y-90094989D01*
X147472272Y-90076514D01*
X147500541Y-90059407D01*
X147529751Y-90043669D01*
X147559903Y-90029299D01*
X147590995Y-90016298D01*
X147623028Y-90004665D01*
X147656002Y-89994401D01*
X147689918Y-89985505D01*
X147724774Y-89977978D01*
X147760571Y-89971819D01*
X147760571Y-89966379D01*
X147076287Y-89977320D01*
X146200410Y-89977320D01*
X146200410Y-89484640D01*
X148280625Y-89484640D01*
G36*
X148280625Y-89484640D02*
G01*
X150196622Y-89484640D01*
X150196622Y-89977320D01*
X149621823Y-89977320D01*
X149621823Y-89982763D01*
X149658284Y-89988259D01*
X149693761Y-89995166D01*
X149728254Y-90003484D01*
X149761763Y-90013214D01*
X149794288Y-90024355D01*
X149825830Y-90036907D01*
X149856387Y-90050870D01*
X149885961Y-90066245D01*
X149914551Y-90083032D01*
X149942158Y-90101229D01*
X149968780Y-90120838D01*
X149994419Y-90141858D01*
X150019075Y-90164290D01*
X150042747Y-90188133D01*
X150065435Y-90213387D01*
X150087140Y-90240053D01*
X150107026Y-90267895D01*
X150125630Y-90296677D01*
X150142951Y-90326401D01*
X150158988Y-90357065D01*
X150173743Y-90388671D01*
X150187215Y-90421217D01*
X150199405Y-90454703D01*
X150210311Y-90489131D01*
X150219934Y-90524500D01*
X150228274Y-90560809D01*
X150235331Y-90598060D01*
X150241105Y-90636251D01*
X150245596Y-90675383D01*
X150248804Y-90715457D01*
X150250729Y-90756471D01*
X150251370Y-90798425D01*
X150251370Y-90798433D01*
X150250194Y-90854502D01*
X150246666Y-90909116D01*
X150240785Y-90962276D01*
X150232552Y-91013983D01*
X150221967Y-91064235D01*
X150209029Y-91113033D01*
X150193740Y-91160376D01*
X150176098Y-91206266D01*
X150156103Y-91250702D01*
X150133757Y-91293683D01*
X150109059Y-91335211D01*
X150082008Y-91375284D01*
X150052605Y-91413903D01*
X150020850Y-91451068D01*
X149986743Y-91486779D01*
X149950284Y-91521036D01*
X149911813Y-91553518D01*
X149871675Y-91583904D01*
X149829868Y-91612195D01*
X149786394Y-91638390D01*
X149741252Y-91662490D01*
X149694442Y-91684494D01*
X149645965Y-91704402D01*
X149595819Y-91722215D01*
X149544006Y-91737932D01*
X149490524Y-91751553D01*
X149435375Y-91763079D01*
X149378558Y-91772509D01*
X149320073Y-91779844D01*
X149259920Y-91785083D01*
X149198099Y-91788226D01*
X149134610Y-91789274D01*
X148253258Y-91789274D01*
X148189107Y-91788226D01*
X148126666Y-91785083D01*
X148065936Y-91779844D01*
X148006917Y-91772509D01*
X147949608Y-91763079D01*
X147894010Y-91751553D01*
X147840123Y-91737932D01*
X147787946Y-91722215D01*
X147737480Y-91704402D01*
X147688725Y-91684494D01*
X147641680Y-91662490D01*
X147596346Y-91638390D01*
X147552722Y-91612195D01*
X147510809Y-91583904D01*
X147470606Y-91553518D01*
X147432114Y-91521036D01*
X147395654Y-91486779D01*
X147361547Y-91451068D01*
X147329792Y-91413903D01*
X147300388Y-91375284D01*
X147273338Y-91335211D01*
X147248639Y-91293683D01*
X147226293Y-91250702D01*
X147206299Y-91206266D01*
X147188657Y-91160376D01*
X147173368Y-91113033D01*
X147160431Y-91064235D01*
X147149846Y-91013983D01*
X147141613Y-90962276D01*
X147135732Y-90909116D01*
X147132204Y-90854502D01*
X147131028Y-90798433D01*
X147131691Y-90756457D01*
X147133680Y-90715379D01*
X147136994Y-90675198D01*
X147141634Y-90635916D01*
X147141901Y-90634199D01*
X147558018Y-90634199D01*
X147558660Y-90672669D01*
X147560585Y-90710069D01*
X147563792Y-90746400D01*
X147568283Y-90781663D01*
X147574057Y-90815855D01*
X147581113Y-90848979D01*
X147589453Y-90881033D01*
X147599076Y-90912019D01*
X147609982Y-90941935D01*
X147622171Y-90970781D01*
X147635642Y-90998559D01*
X147650397Y-91025267D01*
X147666435Y-91050906D01*
X147683755Y-91075476D01*
X147702359Y-91098977D01*
X147722245Y-91121408D01*
X147742923Y-91142622D01*
X147765269Y-91162466D01*
X147789283Y-91180942D01*
X147814965Y-91198049D01*
X147842315Y-91213788D01*
X147871333Y-91228158D01*
X147902019Y-91241160D01*
X147934373Y-91252793D01*
X147968394Y-91263057D01*
X148004084Y-91271953D01*
X148041442Y-91279480D01*
X148080468Y-91285638D01*
X148121162Y-91290428D01*
X148163523Y-91293850D01*
X148207553Y-91295903D01*
X148253251Y-91296587D01*
X149129140Y-91296587D01*
X149174195Y-91295903D01*
X149217668Y-91293850D01*
X149259559Y-91290428D01*
X149299867Y-91285638D01*
X149338593Y-91279480D01*
X149375737Y-91271953D01*
X149411298Y-91263057D01*
X149445277Y-91252793D01*
X149477674Y-91241160D01*
X149508488Y-91228158D01*
X149537720Y-91213788D01*
X149565370Y-91198049D01*
X149591437Y-91180942D01*
X149615922Y-91162466D01*
X149638825Y-91142622D01*
X149660145Y-91121408D01*
X149680032Y-91098977D01*
X149698635Y-91075476D01*
X149715956Y-91050906D01*
X149731993Y-91025267D01*
X149746747Y-90998559D01*
X149760219Y-90970781D01*
X149772407Y-90941935D01*
X149783313Y-90912019D01*
X149792935Y-90881033D01*
X149801274Y-90848979D01*
X149808331Y-90815855D01*
X149814104Y-90781663D01*
X149818595Y-90746400D01*
X149821802Y-90710069D01*
X149823727Y-90672669D01*
X149824368Y-90634199D01*
X149824376Y-90634199D01*
X149823627Y-90597034D01*
X149821382Y-90560810D01*
X149817640Y-90525527D01*
X149812401Y-90491184D01*
X149805665Y-90457783D01*
X149797433Y-90425322D01*
X149787703Y-90393802D01*
X149776477Y-90363223D01*
X149763753Y-90333585D01*
X149749533Y-90304888D01*
X149733816Y-90277132D01*
X149716603Y-90250316D01*
X149697892Y-90224442D01*
X149677684Y-90199508D01*
X149655980Y-90175516D01*
X149632779Y-90152464D01*
X149608251Y-90131251D01*
X149582568Y-90111407D01*
X149555730Y-90092932D01*
X149527738Y-90075825D01*
X149498591Y-90060086D01*
X149468290Y-90045717D01*
X149436834Y-90032715D01*
X149404223Y-90021083D01*
X149370458Y-90010819D01*
X149335538Y-90001923D01*
X149299464Y-89994396D01*
X149262235Y-89988237D01*
X149223851Y-89983447D01*
X149184313Y-89980026D01*
X149143620Y-89977973D01*
X149101773Y-89977289D01*
X148280625Y-89977289D01*
X148238777Y-89977973D01*
X148198084Y-89980026D01*
X148158545Y-89983447D01*
X148120161Y-89988237D01*
X148082932Y-89994396D01*
X148046857Y-90001923D01*
X148011937Y-90010819D01*
X147978172Y-90021083D01*
X147945562Y-90032715D01*
X147914106Y-90045717D01*
X147883805Y-90060086D01*
X147854658Y-90075825D01*
X147826666Y-90092932D01*
X147799829Y-90111407D01*
X147774147Y-90131251D01*
X147749619Y-90152464D01*
X147726418Y-90175516D01*
X147704714Y-90199508D01*
X147684506Y-90224442D01*
X147665795Y-90250316D01*
X147648581Y-90277132D01*
X147632864Y-90304888D01*
X147618643Y-90333585D01*
X147605920Y-90363223D01*
X147594693Y-90393802D01*
X147584963Y-90425322D01*
X147576730Y-90457783D01*
X147569994Y-90491184D01*
X147564755Y-90525527D01*
X147561012Y-90560810D01*
X147558767Y-90597034D01*
X147558018Y-90634199D01*
X147141901Y-90634199D01*
X147147601Y-90597532D01*
X147154893Y-90560046D01*
X147163510Y-90523459D01*
X147173454Y-90487769D01*
X147184723Y-90452977D01*
X147197319Y-90419084D01*
X147211240Y-90386088D01*
X147226487Y-90353991D01*
X147243059Y-90322792D01*
X147260958Y-90292491D01*
X147280182Y-90263088D01*
X147300732Y-90234583D01*
X147322415Y-90207896D01*
X147345039Y-90182577D01*
X147368604Y-90158627D01*
X147393109Y-90136046D01*
X147418556Y-90114833D01*
X147444943Y-90094989D01*
X147472272Y-90076514D01*
X147500541Y-90059407D01*
X147529751Y-90043669D01*
X147559903Y-90029299D01*
X147590995Y-90016298D01*
X147623028Y-90004665D01*
X147656002Y-89994401D01*
X147689918Y-89985505D01*
X147724774Y-89977978D01*
X147760571Y-89971819D01*
X147760571Y-89966379D01*
X147076287Y-89977320D01*
X146200410Y-89977320D01*
X146200410Y-89484640D01*
X148280625Y-89484640D01*
G37*
X150196622Y-85422697D02*
X149747731Y-85422697D01*
X149747731Y-83616190D01*
X146200410Y-83616190D01*
X146200410Y-83123503D01*
X150196622Y-83123503D01*
X150196622Y-85422697D01*
G36*
X150196622Y-85422697D02*
G01*
X149747731Y-85422697D01*
X149747731Y-83616190D01*
X146200410Y-83616190D01*
X146200410Y-83123503D01*
X150196622Y-83123503D01*
X150196622Y-85422697D01*
G37*
X144536240Y-93683363D02*
X145707734Y-93239950D01*
X145707734Y-93754537D01*
X141711522Y-95254484D01*
X141711522Y-94734430D01*
X143572770Y-94072042D01*
X143628198Y-94052882D01*
X143684993Y-94033722D01*
X143743156Y-94014561D01*
X143802689Y-93995401D01*
X143832284Y-93986164D01*
X143860853Y-93977611D01*
X143888395Y-93969742D01*
X143914911Y-93962557D01*
X143940400Y-93956056D01*
X143964864Y-93950239D01*
X143988301Y-93945106D01*
X144010712Y-93940656D01*
X143988301Y-93936209D01*
X143964864Y-93931076D01*
X143940401Y-93925260D01*
X143914912Y-93918759D01*
X143888396Y-93911573D01*
X143860854Y-93903704D01*
X143832285Y-93895150D01*
X143802689Y-93885912D01*
X143743156Y-93866410D01*
X143684993Y-93846223D01*
X143628198Y-93825352D01*
X143572770Y-93803797D01*
X141711522Y-93092142D01*
X141711522Y-92561140D01*
X144536240Y-93683363D01*
G36*
X144536240Y-93683363D02*
G01*
X145707734Y-93239950D01*
X145707734Y-93754537D01*
X141711522Y-95254484D01*
X141711522Y-94734430D01*
X143572770Y-94072042D01*
X143628198Y-94052882D01*
X143684993Y-94033722D01*
X143743156Y-94014561D01*
X143802689Y-93995401D01*
X143832284Y-93986164D01*
X143860853Y-93977611D01*
X143888395Y-93969742D01*
X143914911Y-93962557D01*
X143940400Y-93956056D01*
X143964864Y-93950239D01*
X143988301Y-93945106D01*
X144010712Y-93940656D01*
X143988301Y-93936209D01*
X143964864Y-93931076D01*
X143940401Y-93925260D01*
X143914912Y-93918759D01*
X143888396Y-93911573D01*
X143860854Y-93903704D01*
X143832285Y-93895150D01*
X143802689Y-93885912D01*
X143743156Y-93866410D01*
X143684993Y-93846223D01*
X143628198Y-93825352D01*
X143572770Y-93803797D01*
X141711522Y-93092142D01*
X141711522Y-92561140D01*
X144536240Y-93683363D01*
G37*
D12*
X151349892Y-83093592D02*
X151453408Y-104626966D01*
D10*
X142636670Y-96053720D02*
X144722363Y-96053720D01*
X144722363Y-96546408D01*
X143080083Y-96546408D01*
X143080083Y-97340174D01*
X143078842Y-97409073D01*
X143075122Y-97476176D01*
X143068920Y-97541482D01*
X143060239Y-97604993D01*
X143049076Y-97666707D01*
X143035434Y-97726624D01*
X143019310Y-97784746D01*
X143000706Y-97841071D01*
X142979622Y-97895600D01*
X142956057Y-97948332D01*
X142930012Y-97999269D01*
X142901486Y-98048409D01*
X142870480Y-98095753D01*
X142836993Y-98141300D01*
X142801026Y-98185052D01*
X142762578Y-98227007D01*
X142721370Y-98267443D01*
X142678495Y-98305271D01*
X142633952Y-98340490D01*
X142587741Y-98373100D01*
X142539863Y-98403102D01*
X142490316Y-98430495D01*
X142439102Y-98455279D01*
X142386219Y-98477454D01*
X142331669Y-98497020D01*
X142275451Y-98513978D01*
X142217565Y-98528327D01*
X142158012Y-98540067D01*
X142096790Y-98549198D01*
X142033901Y-98555720D01*
X141969344Y-98559633D01*
X141903119Y-98560938D01*
X141836915Y-98559633D01*
X141772422Y-98555720D01*
X141709640Y-98549198D01*
X141648568Y-98540067D01*
X141589207Y-98528327D01*
X141531556Y-98513978D01*
X141475616Y-98497020D01*
X141421386Y-98477454D01*
X141368868Y-98455279D01*
X141318059Y-98430495D01*
X141268962Y-98403102D01*
X141221575Y-98373100D01*
X141175899Y-98340490D01*
X141131933Y-98305271D01*
X141089678Y-98267443D01*
X141049134Y-98227007D01*
X141010023Y-98185052D01*
X140973435Y-98141300D01*
X140939371Y-98095753D01*
X140907830Y-98048409D01*
X140878812Y-97999269D01*
X140852317Y-97948332D01*
X140828346Y-97895600D01*
X140806897Y-97841071D01*
X140787973Y-97784746D01*
X140771571Y-97726624D01*
X140757693Y-97666707D01*
X140746338Y-97604993D01*
X140737506Y-97541482D01*
X140731198Y-97476176D01*
X140727413Y-97409073D01*
X140726151Y-97340174D01*
X140726151Y-96546408D01*
X141169568Y-96546408D01*
X141169568Y-97340174D01*
X141170338Y-97380033D01*
X141172647Y-97418866D01*
X141176496Y-97456673D01*
X141181885Y-97493453D01*
X141188814Y-97529207D01*
X141197282Y-97563934D01*
X141207290Y-97597635D01*
X141218837Y-97630309D01*
X141231924Y-97661957D01*
X141246551Y-97692579D01*
X141262717Y-97722174D01*
X141280423Y-97750743D01*
X141299668Y-97778285D01*
X141320454Y-97804801D01*
X141342778Y-97830290D01*
X141366643Y-97854753D01*
X141391832Y-97878618D01*
X141418134Y-97900942D01*
X141445547Y-97921727D01*
X141474073Y-97940973D01*
X141503711Y-97958679D01*
X141534461Y-97974845D01*
X141566323Y-97989472D01*
X141599297Y-98002559D01*
X141633383Y-98014106D01*
X141668581Y-98024114D01*
X141704891Y-98032582D01*
X141742312Y-98039511D01*
X141780846Y-98044900D01*
X141820492Y-98048749D01*
X141861249Y-98051058D01*
X141903119Y-98051828D01*
X141944347Y-98051058D01*
X141984548Y-98048749D01*
X142023723Y-98044900D01*
X142061872Y-98039511D01*
X142098994Y-98032582D01*
X142135090Y-98024114D01*
X142170159Y-98014106D01*
X142204202Y-98002559D01*
X142237219Y-97989472D01*
X142269209Y-97974845D01*
X142300172Y-97958679D01*
X142330109Y-97940973D01*
X142359020Y-97921727D01*
X142386903Y-97900942D01*
X142413761Y-97878618D01*
X142439591Y-97854753D01*
X142463456Y-97830290D01*
X142485781Y-97804801D01*
X142506567Y-97778285D01*
X142525813Y-97750743D01*
X142543519Y-97722174D01*
X142559686Y-97692579D01*
X142574313Y-97661957D01*
X142587400Y-97630309D01*
X142598948Y-97597635D01*
X142608956Y-97563934D01*
X142617424Y-97529207D01*
X142624352Y-97493453D01*
X142629741Y-97456673D01*
X142633590Y-97418866D01*
X142635900Y-97380033D01*
X142636670Y-97340174D01*
X142636670Y-96546404D01*
X141169568Y-96546408D01*
X140726151Y-96546408D01*
X140726151Y-96053720D01*
X142636670Y-96053720D01*
G36*
X142636670Y-96053720D02*
G01*
X144722363Y-96053720D01*
X144722363Y-96546408D01*
X143080083Y-96546408D01*
X143080083Y-97340174D01*
X143078842Y-97409073D01*
X143075122Y-97476176D01*
X143068920Y-97541482D01*
X143060239Y-97604993D01*
X143049076Y-97666707D01*
X143035434Y-97726624D01*
X143019310Y-97784746D01*
X143000706Y-97841071D01*
X142979622Y-97895600D01*
X142956057Y-97948332D01*
X142930012Y-97999269D01*
X142901486Y-98048409D01*
X142870480Y-98095753D01*
X142836993Y-98141300D01*
X142801026Y-98185052D01*
X142762578Y-98227007D01*
X142721370Y-98267443D01*
X142678495Y-98305271D01*
X142633952Y-98340490D01*
X142587741Y-98373100D01*
X142539863Y-98403102D01*
X142490316Y-98430495D01*
X142439102Y-98455279D01*
X142386219Y-98477454D01*
X142331669Y-98497020D01*
X142275451Y-98513978D01*
X142217565Y-98528327D01*
X142158012Y-98540067D01*
X142096790Y-98549198D01*
X142033901Y-98555720D01*
X141969344Y-98559633D01*
X141903119Y-98560938D01*
X141836915Y-98559633D01*
X141772422Y-98555720D01*
X141709640Y-98549198D01*
X141648568Y-98540067D01*
X141589207Y-98528327D01*
X141531556Y-98513978D01*
X141475616Y-98497020D01*
X141421386Y-98477454D01*
X141368868Y-98455279D01*
X141318059Y-98430495D01*
X141268962Y-98403102D01*
X141221575Y-98373100D01*
X141175899Y-98340490D01*
X141131933Y-98305271D01*
X141089678Y-98267443D01*
X141049134Y-98227007D01*
X141010023Y-98185052D01*
X140973435Y-98141300D01*
X140939371Y-98095753D01*
X140907830Y-98048409D01*
X140878812Y-97999269D01*
X140852317Y-97948332D01*
X140828346Y-97895600D01*
X140806897Y-97841071D01*
X140787973Y-97784746D01*
X140771571Y-97726624D01*
X140757693Y-97666707D01*
X140746338Y-97604993D01*
X140737506Y-97541482D01*
X140731198Y-97476176D01*
X140727413Y-97409073D01*
X140726151Y-97340174D01*
X140726151Y-96546408D01*
X141169568Y-96546408D01*
X141169568Y-97340174D01*
X141170338Y-97380033D01*
X141172647Y-97418866D01*
X141176496Y-97456673D01*
X141181885Y-97493453D01*
X141188814Y-97529207D01*
X141197282Y-97563934D01*
X141207290Y-97597635D01*
X141218837Y-97630309D01*
X141231924Y-97661957D01*
X141246551Y-97692579D01*
X141262717Y-97722174D01*
X141280423Y-97750743D01*
X141299668Y-97778285D01*
X141320454Y-97804801D01*
X141342778Y-97830290D01*
X141366643Y-97854753D01*
X141391832Y-97878618D01*
X141418134Y-97900942D01*
X141445547Y-97921727D01*
X141474073Y-97940973D01*
X141503711Y-97958679D01*
X141534461Y-97974845D01*
X141566323Y-97989472D01*
X141599297Y-98002559D01*
X141633383Y-98014106D01*
X141668581Y-98024114D01*
X141704891Y-98032582D01*
X141742312Y-98039511D01*
X141780846Y-98044900D01*
X141820492Y-98048749D01*
X141861249Y-98051058D01*
X141903119Y-98051828D01*
X141944347Y-98051058D01*
X141984548Y-98048749D01*
X142023723Y-98044900D01*
X142061872Y-98039511D01*
X142098994Y-98032582D01*
X142135090Y-98024114D01*
X142170159Y-98014106D01*
X142204202Y-98002559D01*
X142237219Y-97989472D01*
X142269209Y-97974845D01*
X142300172Y-97958679D01*
X142330109Y-97940973D01*
X142359020Y-97921727D01*
X142386903Y-97900942D01*
X142413761Y-97878618D01*
X142439591Y-97854753D01*
X142463456Y-97830290D01*
X142485781Y-97804801D01*
X142506567Y-97778285D01*
X142525813Y-97750743D01*
X142543519Y-97722174D01*
X142559686Y-97692579D01*
X142574313Y-97661957D01*
X142587400Y-97630309D01*
X142598948Y-97597635D01*
X142608956Y-97563934D01*
X142617424Y-97529207D01*
X142624352Y-97493453D01*
X142629741Y-97456673D01*
X142633590Y-97418866D01*
X142635900Y-97380033D01*
X142636670Y-97340174D01*
X142636670Y-96546404D01*
X141169568Y-96546408D01*
X140726151Y-96546408D01*
X140726151Y-96053720D01*
X142636670Y-96053720D01*
G37*
X143887604Y-99202495D02*
X143938433Y-99205702D01*
X143988022Y-99211048D01*
X144036371Y-99218533D01*
X144083480Y-99228156D01*
X144129348Y-99239917D01*
X144173976Y-99253816D01*
X144217364Y-99269854D01*
X144259512Y-99288031D01*
X144300419Y-99308345D01*
X144340086Y-99330798D01*
X144378513Y-99355390D01*
X144415699Y-99382119D01*
X144451646Y-99410987D01*
X144486352Y-99441993D01*
X144519818Y-99475138D01*
X144550974Y-99510100D01*
X144580121Y-99546560D01*
X144607257Y-99584516D01*
X144632382Y-99623969D01*
X144655498Y-99664920D01*
X144676603Y-99707367D01*
X144695699Y-99751311D01*
X144712784Y-99796751D01*
X144727859Y-99843689D01*
X144740924Y-99892124D01*
X144751979Y-99942055D01*
X144761024Y-99993484D01*
X144768059Y-100046409D01*
X144773084Y-100100831D01*
X144776099Y-100156750D01*
X144777104Y-100214166D01*
X144777100Y-100214155D01*
X144776480Y-100262141D01*
X144774620Y-100308929D01*
X144771519Y-100354519D01*
X144767178Y-100398912D01*
X144761597Y-100442107D01*
X144754776Y-100484105D01*
X144746714Y-100524906D01*
X144737412Y-100564508D01*
X144726870Y-100602913D01*
X144715088Y-100640121D01*
X144702065Y-100676131D01*
X144687802Y-100710944D01*
X144672299Y-100744559D01*
X144655555Y-100776977D01*
X144637572Y-100808197D01*
X144618348Y-100838220D01*
X144597370Y-100866897D01*
X144575495Y-100894076D01*
X144552721Y-100919759D01*
X144529049Y-100943944D01*
X144504479Y-100966632D01*
X144479011Y-100987824D01*
X144452644Y-101007518D01*
X144425380Y-101025716D01*
X144397217Y-101042417D01*
X144368157Y-101057621D01*
X144338198Y-101071328D01*
X144307341Y-101083538D01*
X144275586Y-101094251D01*
X144242932Y-101103468D01*
X144209381Y-101111188D01*
X144174931Y-101117410D01*
X144174931Y-101128362D01*
X144722356Y-101128362D01*
X144722356Y-101615572D01*
X142653088Y-101615572D01*
X142595052Y-101614417D01*
X142538641Y-101610953D01*
X142483855Y-101605180D01*
X142430694Y-101597097D01*
X142379159Y-101586704D01*
X142329249Y-101574003D01*
X142280965Y-101558991D01*
X142234305Y-101541671D01*
X142189271Y-101522040D01*
X142145862Y-101500101D01*
X142104078Y-101475852D01*
X142063920Y-101449293D01*
X142025386Y-101420425D01*
X141988478Y-101389247D01*
X141953195Y-101355760D01*
X141919537Y-101319963D01*
X141887718Y-101282691D01*
X141857951Y-101243409D01*
X141830238Y-101202117D01*
X141804577Y-101158815D01*
X141780969Y-101113502D01*
X141759414Y-101066180D01*
X141739912Y-101016847D01*
X141722463Y-100965505D01*
X141707067Y-100912152D01*
X141693724Y-100856790D01*
X141682433Y-100799417D01*
X141673196Y-100740034D01*
X141666011Y-100678641D01*
X141660879Y-100615237D01*
X141657800Y-100549824D01*
X141656773Y-100482401D01*
X141657693Y-100420217D01*
X141660451Y-100359572D01*
X141665049Y-100300467D01*
X141671486Y-100242902D01*
X141679762Y-100186877D01*
X141689877Y-100132391D01*
X141701830Y-100079445D01*
X141715623Y-100028038D01*
X141731255Y-99978171D01*
X141748726Y-99929844D01*
X141768035Y-99883057D01*
X141789184Y-99837808D01*
X141812171Y-99794100D01*
X141836998Y-99751931D01*
X141863663Y-99711302D01*
X141892167Y-99672212D01*
X141921398Y-99635646D01*
X141951614Y-99601218D01*
X141982813Y-99568929D01*
X142014995Y-99538778D01*
X142048162Y-99510765D01*
X142082312Y-99484891D01*
X142117446Y-99461155D01*
X142153564Y-99439557D01*
X142190665Y-99420098D01*
X142228750Y-99402777D01*
X142267819Y-99387595D01*
X142307871Y-99374551D01*
X142348907Y-99363646D01*
X142390927Y-99354878D01*
X142433930Y-99348250D01*
X142477917Y-99343759D01*
X142477917Y-99836447D01*
X142454972Y-99838456D01*
X142432669Y-99841749D01*
X142411007Y-99846325D01*
X142389987Y-99852184D01*
X142369608Y-99859326D01*
X142359659Y-99863379D01*
X142349870Y-99867752D01*
X142340242Y-99872445D01*
X142330775Y-99877460D01*
X142312320Y-99888451D01*
X142294508Y-99900725D01*
X142277336Y-99914282D01*
X142260807Y-99929123D01*
X142244918Y-99945246D01*
X142229671Y-99962652D01*
X142215066Y-99981342D01*
X142201102Y-100001314D01*
X142187779Y-100022569D01*
X142175184Y-100044894D01*
X142163402Y-100068074D01*
X142152432Y-100092109D01*
X142142275Y-100117000D01*
X142132931Y-100142747D01*
X142124399Y-100169348D01*
X142116680Y-100196805D01*
X142109773Y-100225117D01*
X142103679Y-100254285D01*
X142098397Y-100284308D01*
X142093928Y-100315187D01*
X142090272Y-100346920D01*
X142087428Y-100379509D01*
X142085397Y-100412954D01*
X142084178Y-100447253D01*
X142083771Y-100482408D01*
X142084343Y-100521814D01*
X142086060Y-100559968D01*
X142088920Y-100596871D01*
X142092924Y-100632523D01*
X142098072Y-100666925D01*
X142104364Y-100700075D01*
X142111801Y-100731974D01*
X142120381Y-100762623D01*
X142130105Y-100792020D01*
X142140974Y-100820167D01*
X142152986Y-100847062D01*
X142166143Y-100872707D01*
X142180443Y-100897100D01*
X142195888Y-100920243D01*
X142212476Y-100942134D01*
X142230209Y-100962775D01*
X142249086Y-100982165D01*
X142269106Y-101000303D01*
X142290271Y-101017191D01*
X142312580Y-101032828D01*
X142336033Y-101047214D01*
X142360629Y-101060349D01*
X142386370Y-101072233D01*
X142413255Y-101082866D01*
X142441284Y-101092248D01*
X142470457Y-101100379D01*
X142500774Y-101107259D01*
X142532235Y-101112888D01*
X142564839Y-101117267D01*
X142598588Y-101120394D01*
X142633481Y-101122271D01*
X142669518Y-101122896D01*
X142904912Y-101122896D01*
X142904912Y-100247015D01*
X143288098Y-100247015D01*
X143288098Y-101122896D01*
X143709618Y-101122896D01*
X143746762Y-101122062D01*
X143782923Y-101119560D01*
X143818100Y-101115390D01*
X143852293Y-101109552D01*
X143885502Y-101102046D01*
X143917728Y-101092873D01*
X143948969Y-101082031D01*
X143979228Y-101069521D01*
X144008502Y-101055344D01*
X144036793Y-101039498D01*
X144064101Y-101021985D01*
X144090424Y-101002803D01*
X144115765Y-100981954D01*
X144140121Y-100959437D01*
X144163494Y-100935252D01*
X144185883Y-100909399D01*
X144207096Y-100882135D01*
X144226940Y-100853715D01*
X144245415Y-100824141D01*
X144262522Y-100793412D01*
X144278261Y-100761529D01*
X144292630Y-100728491D01*
X144305632Y-100694297D01*
X144317264Y-100658950D01*
X144327528Y-100622447D01*
X144336424Y-100584790D01*
X144343951Y-100545978D01*
X144350110Y-100506012D01*
X144354899Y-100464891D01*
X144358321Y-100422615D01*
X144360374Y-100379185D01*
X144361058Y-100334600D01*
X144361054Y-100334600D01*
X144360498Y-100298141D01*
X144358830Y-100262665D01*
X144356050Y-100228172D01*
X144352158Y-100194664D01*
X144347155Y-100162139D01*
X144341039Y-100130598D01*
X144333811Y-100100041D01*
X144325471Y-100070467D01*
X144316019Y-100041877D01*
X144305456Y-100014270D01*
X144293780Y-99987647D01*
X144280992Y-99962008D01*
X144267092Y-99937353D01*
X144252080Y-99913681D01*
X144235956Y-99890992D01*
X144218720Y-99869287D01*
X144199838Y-99849401D01*
X144180143Y-99830797D01*
X144159636Y-99813477D01*
X144138316Y-99797439D01*
X144116184Y-99782685D01*
X144093239Y-99769213D01*
X144069481Y-99757024D01*
X144044911Y-99746118D01*
X144019528Y-99736496D01*
X143993332Y-99728156D01*
X143966324Y-99721099D01*
X143938504Y-99715325D01*
X143909871Y-99710835D01*
X143880425Y-99707627D01*
X143850167Y-99705702D01*
X143819096Y-99705061D01*
X143789373Y-99705638D01*
X143760420Y-99707370D01*
X143732237Y-99710257D01*
X143704823Y-99714298D01*
X143678180Y-99719495D01*
X143652306Y-99725846D01*
X143627201Y-99733351D01*
X143602867Y-99742012D01*
X143579302Y-99751827D01*
X143556507Y-99762797D01*
X143534482Y-99774922D01*
X143513226Y-99788202D01*
X143492740Y-99802636D01*
X143473023Y-99818226D01*
X143454076Y-99834970D01*
X143435899Y-99852869D01*
X143418001Y-99872371D01*
X143401258Y-99892557D01*
X143385669Y-99913427D01*
X143371236Y-99934982D01*
X143357957Y-99957221D01*
X143345833Y-99980144D01*
X143334863Y-100003752D01*
X143325048Y-100028044D01*
X143316388Y-100053020D01*
X143308883Y-100078680D01*
X143302532Y-100105025D01*
X143297336Y-100132055D01*
X143293294Y-100159768D01*
X143290407Y-100188166D01*
X143288675Y-100217248D01*
X143288098Y-100247015D01*
X142904912Y-100247015D01*
X142904912Y-100192270D01*
X142905382Y-100156260D01*
X142906793Y-100120764D01*
X142909146Y-100085780D01*
X142912438Y-100051310D01*
X142916672Y-100017352D01*
X142921847Y-99983908D01*
X142927963Y-99950977D01*
X142935019Y-99918559D01*
X142943017Y-99886655D01*
X142951955Y-99855263D01*
X142961834Y-99824385D01*
X142972655Y-99794019D01*
X142984416Y-99764167D01*
X142997118Y-99734829D01*
X143010761Y-99706003D01*
X143025346Y-99677690D01*
X143040080Y-99650019D01*
X143055541Y-99623118D01*
X143071729Y-99596987D01*
X143088644Y-99571626D01*
X143106286Y-99547034D01*
X143124655Y-99523213D01*
X143143751Y-99500161D01*
X143163574Y-99477879D01*
X143184124Y-99456367D01*
X143205401Y-99435625D01*
X143227404Y-99415652D01*
X143250135Y-99396449D01*
X143273593Y-99378017D01*
X143297778Y-99360354D01*
X143322689Y-99343460D01*
X143348328Y-99327337D01*
X143374608Y-99312090D01*
X143401444Y-99297827D01*
X143428836Y-99284548D01*
X143456784Y-99272252D01*
X143485288Y-99260939D01*
X143514348Y-99250611D01*
X143543965Y-99241266D01*
X143574137Y-99232904D01*
X143604865Y-99225526D01*
X143636150Y-99219132D01*
X143667990Y-99213722D01*
X143700387Y-99209295D01*
X143733340Y-99205852D01*
X143766848Y-99203393D01*
X143800913Y-99201917D01*
X143819096Y-99201659D01*
X143835534Y-99201425D01*
X143887604Y-99202495D01*
G36*
X143887604Y-99202495D02*
G01*
X143938433Y-99205702D01*
X143988022Y-99211048D01*
X144036371Y-99218533D01*
X144083480Y-99228156D01*
X144129348Y-99239917D01*
X144173976Y-99253816D01*
X144217364Y-99269854D01*
X144259512Y-99288031D01*
X144300419Y-99308345D01*
X144340086Y-99330798D01*
X144378513Y-99355390D01*
X144415699Y-99382119D01*
X144451646Y-99410987D01*
X144486352Y-99441993D01*
X144519818Y-99475138D01*
X144550974Y-99510100D01*
X144580121Y-99546560D01*
X144607257Y-99584516D01*
X144632382Y-99623969D01*
X144655498Y-99664920D01*
X144676603Y-99707367D01*
X144695699Y-99751311D01*
X144712784Y-99796751D01*
X144727859Y-99843689D01*
X144740924Y-99892124D01*
X144751979Y-99942055D01*
X144761024Y-99993484D01*
X144768059Y-100046409D01*
X144773084Y-100100831D01*
X144776099Y-100156750D01*
X144777104Y-100214166D01*
X144777100Y-100214155D01*
X144776480Y-100262141D01*
X144774620Y-100308929D01*
X144771519Y-100354519D01*
X144767178Y-100398912D01*
X144761597Y-100442107D01*
X144754776Y-100484105D01*
X144746714Y-100524906D01*
X144737412Y-100564508D01*
X144726870Y-100602913D01*
X144715088Y-100640121D01*
X144702065Y-100676131D01*
X144687802Y-100710944D01*
X144672299Y-100744559D01*
X144655555Y-100776977D01*
X144637572Y-100808197D01*
X144618348Y-100838220D01*
X144597370Y-100866897D01*
X144575495Y-100894076D01*
X144552721Y-100919759D01*
X144529049Y-100943944D01*
X144504479Y-100966632D01*
X144479011Y-100987824D01*
X144452644Y-101007518D01*
X144425380Y-101025716D01*
X144397217Y-101042417D01*
X144368157Y-101057621D01*
X144338198Y-101071328D01*
X144307341Y-101083538D01*
X144275586Y-101094251D01*
X144242932Y-101103468D01*
X144209381Y-101111188D01*
X144174931Y-101117410D01*
X144174931Y-101128362D01*
X144722356Y-101128362D01*
X144722356Y-101615572D01*
X142653088Y-101615572D01*
X142595052Y-101614417D01*
X142538641Y-101610953D01*
X142483855Y-101605180D01*
X142430694Y-101597097D01*
X142379159Y-101586704D01*
X142329249Y-101574003D01*
X142280965Y-101558991D01*
X142234305Y-101541671D01*
X142189271Y-101522040D01*
X142145862Y-101500101D01*
X142104078Y-101475852D01*
X142063920Y-101449293D01*
X142025386Y-101420425D01*
X141988478Y-101389247D01*
X141953195Y-101355760D01*
X141919537Y-101319963D01*
X141887718Y-101282691D01*
X141857951Y-101243409D01*
X141830238Y-101202117D01*
X141804577Y-101158815D01*
X141780969Y-101113502D01*
X141759414Y-101066180D01*
X141739912Y-101016847D01*
X141722463Y-100965505D01*
X141707067Y-100912152D01*
X141693724Y-100856790D01*
X141682433Y-100799417D01*
X141673196Y-100740034D01*
X141666011Y-100678641D01*
X141660879Y-100615237D01*
X141657800Y-100549824D01*
X141656773Y-100482401D01*
X141657693Y-100420217D01*
X141660451Y-100359572D01*
X141665049Y-100300467D01*
X141671486Y-100242902D01*
X141679762Y-100186877D01*
X141689877Y-100132391D01*
X141701830Y-100079445D01*
X141715623Y-100028038D01*
X141731255Y-99978171D01*
X141748726Y-99929844D01*
X141768035Y-99883057D01*
X141789184Y-99837808D01*
X141812171Y-99794100D01*
X141836998Y-99751931D01*
X141863663Y-99711302D01*
X141892167Y-99672212D01*
X141921398Y-99635646D01*
X141951614Y-99601218D01*
X141982813Y-99568929D01*
X142014995Y-99538778D01*
X142048162Y-99510765D01*
X142082312Y-99484891D01*
X142117446Y-99461155D01*
X142153564Y-99439557D01*
X142190665Y-99420098D01*
X142228750Y-99402777D01*
X142267819Y-99387595D01*
X142307871Y-99374551D01*
X142348907Y-99363646D01*
X142390927Y-99354878D01*
X142433930Y-99348250D01*
X142477917Y-99343759D01*
X142477917Y-99836447D01*
X142454972Y-99838456D01*
X142432669Y-99841749D01*
X142411007Y-99846325D01*
X142389987Y-99852184D01*
X142369608Y-99859326D01*
X142359659Y-99863379D01*
X142349870Y-99867752D01*
X142340242Y-99872445D01*
X142330775Y-99877460D01*
X142312320Y-99888451D01*
X142294508Y-99900725D01*
X142277336Y-99914282D01*
X142260807Y-99929123D01*
X142244918Y-99945246D01*
X142229671Y-99962652D01*
X142215066Y-99981342D01*
X142201102Y-100001314D01*
X142187779Y-100022569D01*
X142175184Y-100044894D01*
X142163402Y-100068074D01*
X142152432Y-100092109D01*
X142142275Y-100117000D01*
X142132931Y-100142747D01*
X142124399Y-100169348D01*
X142116680Y-100196805D01*
X142109773Y-100225117D01*
X142103679Y-100254285D01*
X142098397Y-100284308D01*
X142093928Y-100315187D01*
X142090272Y-100346920D01*
X142087428Y-100379509D01*
X142085397Y-100412954D01*
X142084178Y-100447253D01*
X142083771Y-100482408D01*
X142084343Y-100521814D01*
X142086060Y-100559968D01*
X142088920Y-100596871D01*
X142092924Y-100632523D01*
X142098072Y-100666925D01*
X142104364Y-100700075D01*
X142111801Y-100731974D01*
X142120381Y-100762623D01*
X142130105Y-100792020D01*
X142140974Y-100820167D01*
X142152986Y-100847062D01*
X142166143Y-100872707D01*
X142180443Y-100897100D01*
X142195888Y-100920243D01*
X142212476Y-100942134D01*
X142230209Y-100962775D01*
X142249086Y-100982165D01*
X142269106Y-101000303D01*
X142290271Y-101017191D01*
X142312580Y-101032828D01*
X142336033Y-101047214D01*
X142360629Y-101060349D01*
X142386370Y-101072233D01*
X142413255Y-101082866D01*
X142441284Y-101092248D01*
X142470457Y-101100379D01*
X142500774Y-101107259D01*
X142532235Y-101112888D01*
X142564839Y-101117267D01*
X142598588Y-101120394D01*
X142633481Y-101122271D01*
X142669518Y-101122896D01*
X142904912Y-101122896D01*
X142904912Y-100247015D01*
X143288098Y-100247015D01*
X143288098Y-101122896D01*
X143709618Y-101122896D01*
X143746762Y-101122062D01*
X143782923Y-101119560D01*
X143818100Y-101115390D01*
X143852293Y-101109552D01*
X143885502Y-101102046D01*
X143917728Y-101092873D01*
X143948969Y-101082031D01*
X143979228Y-101069521D01*
X144008502Y-101055344D01*
X144036793Y-101039498D01*
X144064101Y-101021985D01*
X144090424Y-101002803D01*
X144115765Y-100981954D01*
X144140121Y-100959437D01*
X144163494Y-100935252D01*
X144185883Y-100909399D01*
X144207096Y-100882135D01*
X144226940Y-100853715D01*
X144245415Y-100824141D01*
X144262522Y-100793412D01*
X144278261Y-100761529D01*
X144292630Y-100728491D01*
X144305632Y-100694297D01*
X144317264Y-100658950D01*
X144327528Y-100622447D01*
X144336424Y-100584790D01*
X144343951Y-100545978D01*
X144350110Y-100506012D01*
X144354899Y-100464891D01*
X144358321Y-100422615D01*
X144360374Y-100379185D01*
X144361058Y-100334600D01*
X144361054Y-100334600D01*
X144360498Y-100298141D01*
X144358830Y-100262665D01*
X144356050Y-100228172D01*
X144352158Y-100194664D01*
X144347155Y-100162139D01*
X144341039Y-100130598D01*
X144333811Y-100100041D01*
X144325471Y-100070467D01*
X144316019Y-100041877D01*
X144305456Y-100014270D01*
X144293780Y-99987647D01*
X144280992Y-99962008D01*
X144267092Y-99937353D01*
X144252080Y-99913681D01*
X144235956Y-99890992D01*
X144218720Y-99869287D01*
X144199838Y-99849401D01*
X144180143Y-99830797D01*
X144159636Y-99813477D01*
X144138316Y-99797439D01*
X144116184Y-99782685D01*
X144093239Y-99769213D01*
X144069481Y-99757024D01*
X144044911Y-99746118D01*
X144019528Y-99736496D01*
X143993332Y-99728156D01*
X143966324Y-99721099D01*
X143938504Y-99715325D01*
X143909871Y-99710835D01*
X143880425Y-99707627D01*
X143850167Y-99705702D01*
X143819096Y-99705061D01*
X143789373Y-99705638D01*
X143760420Y-99707370D01*
X143732237Y-99710257D01*
X143704823Y-99714298D01*
X143678180Y-99719495D01*
X143652306Y-99725846D01*
X143627201Y-99733351D01*
X143602867Y-99742012D01*
X143579302Y-99751827D01*
X143556507Y-99762797D01*
X143534482Y-99774922D01*
X143513226Y-99788202D01*
X143492740Y-99802636D01*
X143473023Y-99818226D01*
X143454076Y-99834970D01*
X143435899Y-99852869D01*
X143418001Y-99872371D01*
X143401258Y-99892557D01*
X143385669Y-99913427D01*
X143371236Y-99934982D01*
X143357957Y-99957221D01*
X143345833Y-99980144D01*
X143334863Y-100003752D01*
X143325048Y-100028044D01*
X143316388Y-100053020D01*
X143308883Y-100078680D01*
X143302532Y-100105025D01*
X143297336Y-100132055D01*
X143293294Y-100159768D01*
X143290407Y-100188166D01*
X143288675Y-100217248D01*
X143288098Y-100247015D01*
X142904912Y-100247015D01*
X142904912Y-100192270D01*
X142905382Y-100156260D01*
X142906793Y-100120764D01*
X142909146Y-100085780D01*
X142912438Y-100051310D01*
X142916672Y-100017352D01*
X142921847Y-99983908D01*
X142927963Y-99950977D01*
X142935019Y-99918559D01*
X142943017Y-99886655D01*
X142951955Y-99855263D01*
X142961834Y-99824385D01*
X142972655Y-99794019D01*
X142984416Y-99764167D01*
X142997118Y-99734829D01*
X143010761Y-99706003D01*
X143025346Y-99677690D01*
X143040080Y-99650019D01*
X143055541Y-99623118D01*
X143071729Y-99596987D01*
X143088644Y-99571626D01*
X143106286Y-99547034D01*
X143124655Y-99523213D01*
X143143751Y-99500161D01*
X143163574Y-99477879D01*
X143184124Y-99456367D01*
X143205401Y-99435625D01*
X143227404Y-99415652D01*
X143250135Y-99396449D01*
X143273593Y-99378017D01*
X143297778Y-99360354D01*
X143322689Y-99343460D01*
X143348328Y-99327337D01*
X143374608Y-99312090D01*
X143401444Y-99297827D01*
X143428836Y-99284548D01*
X143456784Y-99272252D01*
X143485288Y-99260939D01*
X143514348Y-99250611D01*
X143543965Y-99241266D01*
X143574137Y-99232904D01*
X143604865Y-99225526D01*
X143636150Y-99219132D01*
X143667990Y-99213722D01*
X143700387Y-99209295D01*
X143733340Y-99205852D01*
X143766848Y-99203393D01*
X143800913Y-99201917D01*
X143819096Y-99201659D01*
X143835534Y-99201425D01*
X143887604Y-99202495D01*
G37*
X144722363Y-88734625D02*
X144273473Y-88734625D01*
X144273473Y-87721887D01*
X141711518Y-87721887D01*
X141711518Y-86271208D01*
X142160405Y-86271208D01*
X142160405Y-87229200D01*
X144273473Y-87229200D01*
X144273473Y-86161722D01*
X144722363Y-86161722D01*
X144722363Y-88734625D01*
G36*
X144722363Y-88734625D02*
G01*
X144273473Y-88734625D01*
X144273473Y-87721887D01*
X141711518Y-87721887D01*
X141711518Y-86271208D01*
X142160405Y-86271208D01*
X142160405Y-87229200D01*
X144273473Y-87229200D01*
X144273473Y-86161722D01*
X144722363Y-86161722D01*
X144722363Y-88734625D01*
G37*
D13*
%TO.C,SW1*%
X31584000Y-26591000D02*
X32521000Y-25654000D01*
X32521000Y-25654000D02*
X35268000Y-25654000D01*
X32521000Y-30446000D02*
X31500000Y-29425000D01*
X35168000Y-30446000D02*
X32521000Y-30446000D01*
X35268000Y-25654000D02*
X35671000Y-25734000D01*
X35671000Y-25734000D02*
X36013000Y-25963000D01*
X35730000Y-30551000D02*
X35168000Y-30446000D01*
X36013000Y-25963000D02*
X36546000Y-26496000D01*
X36209000Y-30850000D02*
X35730000Y-30551000D01*
X36546000Y-26496000D02*
X36546000Y-26718000D01*
X36546000Y-26718000D02*
X36633000Y-27156000D01*
X36547000Y-31303000D02*
X36209000Y-30850000D01*
X36633000Y-27156000D02*
X36877000Y-27523000D01*
X36701000Y-31861000D02*
X36547000Y-31303000D01*
X36783000Y-32159000D02*
X36701000Y-31861000D01*
X36877000Y-27523000D02*
X37244000Y-27767000D01*
X36976000Y-32417000D02*
X36783000Y-32159000D01*
X37244000Y-27767000D02*
X37682000Y-27854000D01*
X37250000Y-32587000D02*
X36976000Y-32417000D01*
X37560000Y-32646000D02*
X37250000Y-32587000D01*
X37682000Y-27854000D02*
X40482000Y-27854000D01*
X40482000Y-27854000D02*
X40809000Y-27919000D01*
X40809000Y-27919000D02*
X41092000Y-28108000D01*
X41092000Y-28108000D02*
X41281000Y-28391000D01*
X41281000Y-28391000D02*
X41366000Y-28818000D01*
X41283000Y-31704000D02*
X41646000Y-31704000D01*
X41646000Y-31704000D02*
X41646000Y-32646000D01*
X41646000Y-32646000D02*
X37560000Y-32646000D01*
D14*
%TO.C,J1*%
X150076700Y-48332999D02*
X150076700Y-53525460D01*
X148267961Y-57197599D02*
X143732039Y-57197599D01*
X147828041Y-48332999D02*
X150076700Y-48332999D01*
X141923300Y-53525460D02*
X141923300Y-48332999D01*
X141923300Y-48332999D02*
X144171959Y-48332999D01*
D13*
%TO.C,D27*%
X65790000Y-106950000D02*
X69800000Y-106950000D01*
X65790000Y-106950000D02*
X65790000Y-104950000D01*
X65790000Y-104950000D02*
X69800000Y-104950000D01*
%TO.C,D18*%
X116790000Y-72950000D02*
X120800000Y-72950000D01*
X116790000Y-72950000D02*
X116790000Y-70950000D01*
X116790000Y-70950000D02*
X120800000Y-70950000D01*
%TO.C,D7*%
X31790000Y-55950000D02*
X35800000Y-55950000D01*
X31790000Y-55950000D02*
X31790000Y-53950000D01*
X31790000Y-53950000D02*
X35800000Y-53950000D01*
%TO.C,D9*%
X65790000Y-55950000D02*
X69800000Y-55950000D01*
X65790000Y-55950000D02*
X65790000Y-53950000D01*
X65790000Y-53950000D02*
X69800000Y-53950000D01*
%TO.C,D10*%
X82790000Y-55950000D02*
X86800000Y-55950000D01*
X82790000Y-55950000D02*
X82790000Y-53950000D01*
X82790000Y-53950000D02*
X86800000Y-53950000D01*
%TO.C,D15*%
X65790000Y-72950000D02*
X69800000Y-72950000D01*
X65790000Y-72950000D02*
X65790000Y-70950000D01*
X65790000Y-70950000D02*
X69800000Y-70950000D01*
%TO.C,D22*%
X82790000Y-89950000D02*
X86800000Y-89950000D01*
X82790000Y-89950000D02*
X82790000Y-87950000D01*
X82790000Y-87950000D02*
X86800000Y-87950000D01*
%TO.C,D14*%
X48790000Y-72950000D02*
X52800000Y-72950000D01*
X48790000Y-72950000D02*
X48790000Y-70950000D01*
X48790000Y-70950000D02*
X52800000Y-70950000D01*
%TO.C,D16*%
X82790000Y-72950000D02*
X86800000Y-72950000D01*
X82790000Y-72950000D02*
X82790000Y-70950000D01*
X82790000Y-70950000D02*
X86800000Y-70950000D01*
%TO.C,D5*%
X99790000Y-38950000D02*
X103800000Y-38950000D01*
X99790000Y-38950000D02*
X99790000Y-36950000D01*
X99790000Y-36950000D02*
X103800000Y-36950000D01*
%TO.C,D13*%
X31790000Y-72950000D02*
X35800000Y-72950000D01*
X31790000Y-72950000D02*
X31790000Y-70950000D01*
X31790000Y-70950000D02*
X35800000Y-70950000D01*
%TO.C,D8*%
X48790000Y-55950000D02*
X52800000Y-55950000D01*
X48790000Y-55950000D02*
X48790000Y-53950000D01*
X48790000Y-53950000D02*
X52800000Y-53950000D01*
%TO.C,D29*%
X99790000Y-106950000D02*
X103800000Y-106950000D01*
X99790000Y-106950000D02*
X99790000Y-104950000D01*
X99790000Y-104950000D02*
X103800000Y-104950000D01*
%TO.C,D2*%
X48790000Y-38950000D02*
X52800000Y-38950000D01*
X48790000Y-38950000D02*
X48790000Y-36950000D01*
X48790000Y-36950000D02*
X52800000Y-36950000D01*
%TO.C,D4*%
X82790000Y-38950000D02*
X86800000Y-38950000D01*
X82790000Y-38950000D02*
X82790000Y-36950000D01*
X82790000Y-36950000D02*
X86800000Y-36950000D01*
%TO.C,D26*%
X48790000Y-106950000D02*
X52800000Y-106950000D01*
X48790000Y-106950000D02*
X48790000Y-104950000D01*
X48790000Y-104950000D02*
X52800000Y-104950000D01*
%TO.C,D3*%
X65790000Y-38950000D02*
X69800000Y-38950000D01*
X65790000Y-38950000D02*
X65790000Y-36950000D01*
X65790000Y-36950000D02*
X69800000Y-36950000D01*
%TO.C,D28*%
X82790000Y-106950000D02*
X86800000Y-106950000D01*
X82790000Y-106950000D02*
X82790000Y-104950000D01*
X82790000Y-104950000D02*
X86800000Y-104950000D01*
%TO.C,D6*%
X116790000Y-38950000D02*
X120800000Y-38950000D01*
X116790000Y-38950000D02*
X116790000Y-36950000D01*
X116790000Y-36950000D02*
X120800000Y-36950000D01*
%TO.C,D23*%
X99790000Y-89950000D02*
X103800000Y-89950000D01*
X99790000Y-89950000D02*
X99790000Y-87950000D01*
X99790000Y-87950000D02*
X103800000Y-87950000D01*
%TO.C,D12*%
X116790000Y-55950000D02*
X120800000Y-55950000D01*
X116790000Y-55950000D02*
X116790000Y-53950000D01*
X116790000Y-53950000D02*
X120800000Y-53950000D01*
%TO.C,D24*%
X116790000Y-89950000D02*
X120800000Y-89950000D01*
X116790000Y-89950000D02*
X116790000Y-87950000D01*
X116790000Y-87950000D02*
X120800000Y-87950000D01*
%TO.C,D30*%
X116790000Y-106950000D02*
X120800000Y-106950000D01*
X116790000Y-106950000D02*
X116790000Y-104950000D01*
X116790000Y-104950000D02*
X120800000Y-104950000D01*
%TO.C,D20*%
X48790000Y-89950000D02*
X52800000Y-89950000D01*
X48790000Y-89950000D02*
X48790000Y-87950000D01*
X48790000Y-87950000D02*
X52800000Y-87950000D01*
%TO.C,D11*%
X99790000Y-55950000D02*
X103800000Y-55950000D01*
X99790000Y-55950000D02*
X99790000Y-53950000D01*
X99790000Y-53950000D02*
X103800000Y-53950000D01*
%TO.C,D1*%
X31790000Y-38950000D02*
X35800000Y-38950000D01*
X31790000Y-38950000D02*
X31790000Y-36950000D01*
X31790000Y-36950000D02*
X35800000Y-36950000D01*
%TO.C,D17*%
X99790000Y-72950000D02*
X103800000Y-72950000D01*
X99790000Y-72950000D02*
X99790000Y-70950000D01*
X99790000Y-70950000D02*
X103800000Y-70950000D01*
%TO.C,D19*%
X31790000Y-89950000D02*
X35800000Y-89950000D01*
X31790000Y-89950000D02*
X31790000Y-87950000D01*
X31790000Y-87950000D02*
X35800000Y-87950000D01*
%TO.C,D21*%
X65790000Y-89950000D02*
X69800000Y-89950000D01*
X65790000Y-89950000D02*
X65790000Y-87950000D01*
X65790000Y-87950000D02*
X69800000Y-87950000D01*
%TO.C,D25*%
X31790000Y-106950000D02*
X35800000Y-106950000D01*
X31790000Y-106950000D02*
X31790000Y-104950000D01*
X31790000Y-104950000D02*
X35800000Y-104950000D01*
%TO.C,SW7*%
X31584000Y-43591000D02*
X32521000Y-42654000D01*
X32521000Y-42654000D02*
X35268000Y-42654000D01*
X32521000Y-47446000D02*
X31500000Y-46425000D01*
X35168000Y-47446000D02*
X32521000Y-47446000D01*
X35268000Y-42654000D02*
X35671000Y-42734000D01*
X35671000Y-42734000D02*
X36013000Y-42963000D01*
X35730000Y-47551000D02*
X35168000Y-47446000D01*
X36013000Y-42963000D02*
X36546000Y-43496000D01*
X36209000Y-47850000D02*
X35730000Y-47551000D01*
X36546000Y-43496000D02*
X36546000Y-43718000D01*
X36546000Y-43718000D02*
X36633000Y-44156000D01*
X36547000Y-48303000D02*
X36209000Y-47850000D01*
X36633000Y-44156000D02*
X36877000Y-44523000D01*
X36701000Y-48861000D02*
X36547000Y-48303000D01*
X36783000Y-49159000D02*
X36701000Y-48861000D01*
X36877000Y-44523000D02*
X37244000Y-44767000D01*
X36976000Y-49417000D02*
X36783000Y-49159000D01*
X37244000Y-44767000D02*
X37682000Y-44854000D01*
X37250000Y-49587000D02*
X36976000Y-49417000D01*
X37560000Y-49646000D02*
X37250000Y-49587000D01*
X37682000Y-44854000D02*
X40482000Y-44854000D01*
X40482000Y-44854000D02*
X40809000Y-44919000D01*
X40809000Y-44919000D02*
X41092000Y-45108000D01*
X41092000Y-45108000D02*
X41281000Y-45391000D01*
X41281000Y-45391000D02*
X41366000Y-45818000D01*
X41283000Y-48704000D02*
X41646000Y-48704000D01*
X41646000Y-48704000D02*
X41646000Y-49646000D01*
X41646000Y-49646000D02*
X37560000Y-49646000D01*
%TO.C,SW6*%
X116584000Y-26591000D02*
X117521000Y-25654000D01*
X117521000Y-25654000D02*
X120268000Y-25654000D01*
X117521000Y-30446000D02*
X116500000Y-29425000D01*
X120168000Y-30446000D02*
X117521000Y-30446000D01*
X120268000Y-25654000D02*
X120671000Y-25734000D01*
X120671000Y-25734000D02*
X121013000Y-25963000D01*
X120730000Y-30551000D02*
X120168000Y-30446000D01*
X121013000Y-25963000D02*
X121546000Y-26496000D01*
X121209000Y-30850000D02*
X120730000Y-30551000D01*
X121546000Y-26496000D02*
X121546000Y-26718000D01*
X121546000Y-26718000D02*
X121633000Y-27156000D01*
X121547000Y-31303000D02*
X121209000Y-30850000D01*
X121633000Y-27156000D02*
X121877000Y-27523000D01*
X121701000Y-31861000D02*
X121547000Y-31303000D01*
X121783000Y-32159000D02*
X121701000Y-31861000D01*
X121877000Y-27523000D02*
X122244000Y-27767000D01*
X121976000Y-32417000D02*
X121783000Y-32159000D01*
X122244000Y-27767000D02*
X122682000Y-27854000D01*
X122250000Y-32587000D02*
X121976000Y-32417000D01*
X122560000Y-32646000D02*
X122250000Y-32587000D01*
X122682000Y-27854000D02*
X125482000Y-27854000D01*
X125482000Y-27854000D02*
X125809000Y-27919000D01*
X125809000Y-27919000D02*
X126092000Y-28108000D01*
X126092000Y-28108000D02*
X126281000Y-28391000D01*
X126281000Y-28391000D02*
X126366000Y-28818000D01*
X126283000Y-31704000D02*
X126646000Y-31704000D01*
X126646000Y-31704000D02*
X126646000Y-32646000D01*
X126646000Y-32646000D02*
X122560000Y-32646000D01*
%TO.C,SW19*%
X31584000Y-77591000D02*
X32521000Y-76654000D01*
X32521000Y-76654000D02*
X35268000Y-76654000D01*
X32521000Y-81446000D02*
X31500000Y-80425000D01*
X35168000Y-81446000D02*
X32521000Y-81446000D01*
X35268000Y-76654000D02*
X35671000Y-76734000D01*
X35671000Y-76734000D02*
X36013000Y-76963000D01*
X35730000Y-81551000D02*
X35168000Y-81446000D01*
X36013000Y-76963000D02*
X36546000Y-77496000D01*
X36209000Y-81850000D02*
X35730000Y-81551000D01*
X36546000Y-77496000D02*
X36546000Y-77718000D01*
X36546000Y-77718000D02*
X36633000Y-78156000D01*
X36547000Y-82303000D02*
X36209000Y-81850000D01*
X36633000Y-78156000D02*
X36877000Y-78523000D01*
X36701000Y-82861000D02*
X36547000Y-82303000D01*
X36783000Y-83159000D02*
X36701000Y-82861000D01*
X36877000Y-78523000D02*
X37244000Y-78767000D01*
X36976000Y-83417000D02*
X36783000Y-83159000D01*
X37244000Y-78767000D02*
X37682000Y-78854000D01*
X37250000Y-83587000D02*
X36976000Y-83417000D01*
X37560000Y-83646000D02*
X37250000Y-83587000D01*
X37682000Y-78854000D02*
X40482000Y-78854000D01*
X40482000Y-78854000D02*
X40809000Y-78919000D01*
X40809000Y-78919000D02*
X41092000Y-79108000D01*
X41092000Y-79108000D02*
X41281000Y-79391000D01*
X41281000Y-79391000D02*
X41366000Y-79818000D01*
X41283000Y-82704000D02*
X41646000Y-82704000D01*
X41646000Y-82704000D02*
X41646000Y-83646000D01*
X41646000Y-83646000D02*
X37560000Y-83646000D01*
%TO.C,SW10*%
X82584000Y-43591000D02*
X83521000Y-42654000D01*
X83521000Y-42654000D02*
X86268000Y-42654000D01*
X83521000Y-47446000D02*
X82500000Y-46425000D01*
X86168000Y-47446000D02*
X83521000Y-47446000D01*
X86268000Y-42654000D02*
X86671000Y-42734000D01*
X86671000Y-42734000D02*
X87013000Y-42963000D01*
X86730000Y-47551000D02*
X86168000Y-47446000D01*
X87013000Y-42963000D02*
X87546000Y-43496000D01*
X87209000Y-47850000D02*
X86730000Y-47551000D01*
X87546000Y-43496000D02*
X87546000Y-43718000D01*
X87546000Y-43718000D02*
X87633000Y-44156000D01*
X87547000Y-48303000D02*
X87209000Y-47850000D01*
X87633000Y-44156000D02*
X87877000Y-44523000D01*
X87701000Y-48861000D02*
X87547000Y-48303000D01*
X87783000Y-49159000D02*
X87701000Y-48861000D01*
X87877000Y-44523000D02*
X88244000Y-44767000D01*
X87976000Y-49417000D02*
X87783000Y-49159000D01*
X88244000Y-44767000D02*
X88682000Y-44854000D01*
X88250000Y-49587000D02*
X87976000Y-49417000D01*
X88560000Y-49646000D02*
X88250000Y-49587000D01*
X88682000Y-44854000D02*
X91482000Y-44854000D01*
X91482000Y-44854000D02*
X91809000Y-44919000D01*
X91809000Y-44919000D02*
X92092000Y-45108000D01*
X92092000Y-45108000D02*
X92281000Y-45391000D01*
X92281000Y-45391000D02*
X92366000Y-45818000D01*
X92283000Y-48704000D02*
X92646000Y-48704000D01*
X92646000Y-48704000D02*
X92646000Y-49646000D01*
X92646000Y-49646000D02*
X88560000Y-49646000D01*
%TO.C,SW25*%
X31584000Y-94591000D02*
X32521000Y-93654000D01*
X32521000Y-93654000D02*
X35268000Y-93654000D01*
X32521000Y-98446000D02*
X31500000Y-97425000D01*
X35168000Y-98446000D02*
X32521000Y-98446000D01*
X35268000Y-93654000D02*
X35671000Y-93734000D01*
X35671000Y-93734000D02*
X36013000Y-93963000D01*
X35730000Y-98551000D02*
X35168000Y-98446000D01*
X36013000Y-93963000D02*
X36546000Y-94496000D01*
X36209000Y-98850000D02*
X35730000Y-98551000D01*
X36546000Y-94496000D02*
X36546000Y-94718000D01*
X36546000Y-94718000D02*
X36633000Y-95156000D01*
X36547000Y-99303000D02*
X36209000Y-98850000D01*
X36633000Y-95156000D02*
X36877000Y-95523000D01*
X36701000Y-99861000D02*
X36547000Y-99303000D01*
X36783000Y-100159000D02*
X36701000Y-99861000D01*
X36877000Y-95523000D02*
X37244000Y-95767000D01*
X36976000Y-100417000D02*
X36783000Y-100159000D01*
X37244000Y-95767000D02*
X37682000Y-95854000D01*
X37250000Y-100587000D02*
X36976000Y-100417000D01*
X37560000Y-100646000D02*
X37250000Y-100587000D01*
X37682000Y-95854000D02*
X40482000Y-95854000D01*
X40482000Y-95854000D02*
X40809000Y-95919000D01*
X40809000Y-95919000D02*
X41092000Y-96108000D01*
X41092000Y-96108000D02*
X41281000Y-96391000D01*
X41281000Y-96391000D02*
X41366000Y-96818000D01*
X41283000Y-99704000D02*
X41646000Y-99704000D01*
X41646000Y-99704000D02*
X41646000Y-100646000D01*
X41646000Y-100646000D02*
X37560000Y-100646000D01*
%TO.C,SW16*%
X82584000Y-60591000D02*
X83521000Y-59654000D01*
X83521000Y-59654000D02*
X86268000Y-59654000D01*
X83521000Y-64446000D02*
X82500000Y-63425000D01*
X86168000Y-64446000D02*
X83521000Y-64446000D01*
X86268000Y-59654000D02*
X86671000Y-59734000D01*
X86671000Y-59734000D02*
X87013000Y-59963000D01*
X86730000Y-64551000D02*
X86168000Y-64446000D01*
X87013000Y-59963000D02*
X87546000Y-60496000D01*
X87209000Y-64850000D02*
X86730000Y-64551000D01*
X87546000Y-60496000D02*
X87546000Y-60718000D01*
X87546000Y-60718000D02*
X87633000Y-61156000D01*
X87547000Y-65303000D02*
X87209000Y-64850000D01*
X87633000Y-61156000D02*
X87877000Y-61523000D01*
X87701000Y-65861000D02*
X87547000Y-65303000D01*
X87783000Y-66159000D02*
X87701000Y-65861000D01*
X87877000Y-61523000D02*
X88244000Y-61767000D01*
X87976000Y-66417000D02*
X87783000Y-66159000D01*
X88244000Y-61767000D02*
X88682000Y-61854000D01*
X88250000Y-66587000D02*
X87976000Y-66417000D01*
X88560000Y-66646000D02*
X88250000Y-66587000D01*
X88682000Y-61854000D02*
X91482000Y-61854000D01*
X91482000Y-61854000D02*
X91809000Y-61919000D01*
X91809000Y-61919000D02*
X92092000Y-62108000D01*
X92092000Y-62108000D02*
X92281000Y-62391000D01*
X92281000Y-62391000D02*
X92366000Y-62818000D01*
X92283000Y-65704000D02*
X92646000Y-65704000D01*
X92646000Y-65704000D02*
X92646000Y-66646000D01*
X92646000Y-66646000D02*
X88560000Y-66646000D01*
%TO.C,SW18*%
X116584000Y-60591000D02*
X117521000Y-59654000D01*
X117521000Y-59654000D02*
X120268000Y-59654000D01*
X117521000Y-64446000D02*
X116500000Y-63425000D01*
X120168000Y-64446000D02*
X117521000Y-64446000D01*
X120268000Y-59654000D02*
X120671000Y-59734000D01*
X120671000Y-59734000D02*
X121013000Y-59963000D01*
X120730000Y-64551000D02*
X120168000Y-64446000D01*
X121013000Y-59963000D02*
X121546000Y-60496000D01*
X121209000Y-64850000D02*
X120730000Y-64551000D01*
X121546000Y-60496000D02*
X121546000Y-60718000D01*
X121546000Y-60718000D02*
X121633000Y-61156000D01*
X121547000Y-65303000D02*
X121209000Y-64850000D01*
X121633000Y-61156000D02*
X121877000Y-61523000D01*
X121701000Y-65861000D02*
X121547000Y-65303000D01*
X121783000Y-66159000D02*
X121701000Y-65861000D01*
X121877000Y-61523000D02*
X122244000Y-61767000D01*
X121976000Y-66417000D02*
X121783000Y-66159000D01*
X122244000Y-61767000D02*
X122682000Y-61854000D01*
X122250000Y-66587000D02*
X121976000Y-66417000D01*
X122560000Y-66646000D02*
X122250000Y-66587000D01*
X122682000Y-61854000D02*
X125482000Y-61854000D01*
X125482000Y-61854000D02*
X125809000Y-61919000D01*
X125809000Y-61919000D02*
X126092000Y-62108000D01*
X126092000Y-62108000D02*
X126281000Y-62391000D01*
X126281000Y-62391000D02*
X126366000Y-62818000D01*
X126283000Y-65704000D02*
X126646000Y-65704000D01*
X126646000Y-65704000D02*
X126646000Y-66646000D01*
X126646000Y-66646000D02*
X122560000Y-66646000D01*
%TO.C,SW27*%
X65584000Y-94591000D02*
X66521000Y-93654000D01*
X66521000Y-93654000D02*
X69268000Y-93654000D01*
X66521000Y-98446000D02*
X65500000Y-97425000D01*
X69168000Y-98446000D02*
X66521000Y-98446000D01*
X69268000Y-93654000D02*
X69671000Y-93734000D01*
X69671000Y-93734000D02*
X70013000Y-93963000D01*
X69730000Y-98551000D02*
X69168000Y-98446000D01*
X70013000Y-93963000D02*
X70546000Y-94496000D01*
X70209000Y-98850000D02*
X69730000Y-98551000D01*
X70546000Y-94496000D02*
X70546000Y-94718000D01*
X70546000Y-94718000D02*
X70633000Y-95156000D01*
X70547000Y-99303000D02*
X70209000Y-98850000D01*
X70633000Y-95156000D02*
X70877000Y-95523000D01*
X70701000Y-99861000D02*
X70547000Y-99303000D01*
X70783000Y-100159000D02*
X70701000Y-99861000D01*
X70877000Y-95523000D02*
X71244000Y-95767000D01*
X70976000Y-100417000D02*
X70783000Y-100159000D01*
X71244000Y-95767000D02*
X71682000Y-95854000D01*
X71250000Y-100587000D02*
X70976000Y-100417000D01*
X71560000Y-100646000D02*
X71250000Y-100587000D01*
X71682000Y-95854000D02*
X74482000Y-95854000D01*
X74482000Y-95854000D02*
X74809000Y-95919000D01*
X74809000Y-95919000D02*
X75092000Y-96108000D01*
X75092000Y-96108000D02*
X75281000Y-96391000D01*
X75281000Y-96391000D02*
X75366000Y-96818000D01*
X75283000Y-99704000D02*
X75646000Y-99704000D01*
X75646000Y-99704000D02*
X75646000Y-100646000D01*
X75646000Y-100646000D02*
X71560000Y-100646000D01*
%TO.C,SW2*%
X48584000Y-26591000D02*
X49521000Y-25654000D01*
X49521000Y-25654000D02*
X52268000Y-25654000D01*
X49521000Y-30446000D02*
X48500000Y-29425000D01*
X52168000Y-30446000D02*
X49521000Y-30446000D01*
X52268000Y-25654000D02*
X52671000Y-25734000D01*
X52671000Y-25734000D02*
X53013000Y-25963000D01*
X52730000Y-30551000D02*
X52168000Y-30446000D01*
X53013000Y-25963000D02*
X53546000Y-26496000D01*
X53209000Y-30850000D02*
X52730000Y-30551000D01*
X53546000Y-26496000D02*
X53546000Y-26718000D01*
X53546000Y-26718000D02*
X53633000Y-27156000D01*
X53547000Y-31303000D02*
X53209000Y-30850000D01*
X53633000Y-27156000D02*
X53877000Y-27523000D01*
X53701000Y-31861000D02*
X53547000Y-31303000D01*
X53783000Y-32159000D02*
X53701000Y-31861000D01*
X53877000Y-27523000D02*
X54244000Y-27767000D01*
X53976000Y-32417000D02*
X53783000Y-32159000D01*
X54244000Y-27767000D02*
X54682000Y-27854000D01*
X54250000Y-32587000D02*
X53976000Y-32417000D01*
X54560000Y-32646000D02*
X54250000Y-32587000D01*
X54682000Y-27854000D02*
X57482000Y-27854000D01*
X57482000Y-27854000D02*
X57809000Y-27919000D01*
X57809000Y-27919000D02*
X58092000Y-28108000D01*
X58092000Y-28108000D02*
X58281000Y-28391000D01*
X58281000Y-28391000D02*
X58366000Y-28818000D01*
X58283000Y-31704000D02*
X58646000Y-31704000D01*
X58646000Y-31704000D02*
X58646000Y-32646000D01*
X58646000Y-32646000D02*
X54560000Y-32646000D01*
%TO.C,SW24*%
X116584000Y-77591000D02*
X117521000Y-76654000D01*
X117521000Y-76654000D02*
X120268000Y-76654000D01*
X117521000Y-81446000D02*
X116500000Y-80425000D01*
X120168000Y-81446000D02*
X117521000Y-81446000D01*
X120268000Y-76654000D02*
X120671000Y-76734000D01*
X120671000Y-76734000D02*
X121013000Y-76963000D01*
X120730000Y-81551000D02*
X120168000Y-81446000D01*
X121013000Y-76963000D02*
X121546000Y-77496000D01*
X121209000Y-81850000D02*
X120730000Y-81551000D01*
X121546000Y-77496000D02*
X121546000Y-77718000D01*
X121546000Y-77718000D02*
X121633000Y-78156000D01*
X121547000Y-82303000D02*
X121209000Y-81850000D01*
X121633000Y-78156000D02*
X121877000Y-78523000D01*
X121701000Y-82861000D02*
X121547000Y-82303000D01*
X121783000Y-83159000D02*
X121701000Y-82861000D01*
X121877000Y-78523000D02*
X122244000Y-78767000D01*
X121976000Y-83417000D02*
X121783000Y-83159000D01*
X122244000Y-78767000D02*
X122682000Y-78854000D01*
X122250000Y-83587000D02*
X121976000Y-83417000D01*
X122560000Y-83646000D02*
X122250000Y-83587000D01*
X122682000Y-78854000D02*
X125482000Y-78854000D01*
X125482000Y-78854000D02*
X125809000Y-78919000D01*
X125809000Y-78919000D02*
X126092000Y-79108000D01*
X126092000Y-79108000D02*
X126281000Y-79391000D01*
X126281000Y-79391000D02*
X126366000Y-79818000D01*
X126283000Y-82704000D02*
X126646000Y-82704000D01*
X126646000Y-82704000D02*
X126646000Y-83646000D01*
X126646000Y-83646000D02*
X122560000Y-83646000D01*
%TO.C,SW29*%
X99584000Y-94591000D02*
X100521000Y-93654000D01*
X100521000Y-93654000D02*
X103268000Y-93654000D01*
X100521000Y-98446000D02*
X99500000Y-97425000D01*
X103168000Y-98446000D02*
X100521000Y-98446000D01*
X103268000Y-93654000D02*
X103671000Y-93734000D01*
X103671000Y-93734000D02*
X104013000Y-93963000D01*
X103730000Y-98551000D02*
X103168000Y-98446000D01*
X104013000Y-93963000D02*
X104546000Y-94496000D01*
X104209000Y-98850000D02*
X103730000Y-98551000D01*
X104546000Y-94496000D02*
X104546000Y-94718000D01*
X104546000Y-94718000D02*
X104633000Y-95156000D01*
X104547000Y-99303000D02*
X104209000Y-98850000D01*
X104633000Y-95156000D02*
X104877000Y-95523000D01*
X104701000Y-99861000D02*
X104547000Y-99303000D01*
X104783000Y-100159000D02*
X104701000Y-99861000D01*
X104877000Y-95523000D02*
X105244000Y-95767000D01*
X104976000Y-100417000D02*
X104783000Y-100159000D01*
X105244000Y-95767000D02*
X105682000Y-95854000D01*
X105250000Y-100587000D02*
X104976000Y-100417000D01*
X105560000Y-100646000D02*
X105250000Y-100587000D01*
X105682000Y-95854000D02*
X108482000Y-95854000D01*
X108482000Y-95854000D02*
X108809000Y-95919000D01*
X108809000Y-95919000D02*
X109092000Y-96108000D01*
X109092000Y-96108000D02*
X109281000Y-96391000D01*
X109281000Y-96391000D02*
X109366000Y-96818000D01*
X109283000Y-99704000D02*
X109646000Y-99704000D01*
X109646000Y-99704000D02*
X109646000Y-100646000D01*
X109646000Y-100646000D02*
X105560000Y-100646000D01*
%TO.C,SW5*%
X99584000Y-26591000D02*
X100521000Y-25654000D01*
X100521000Y-25654000D02*
X103268000Y-25654000D01*
X100521000Y-30446000D02*
X99500000Y-29425000D01*
X103168000Y-30446000D02*
X100521000Y-30446000D01*
X103268000Y-25654000D02*
X103671000Y-25734000D01*
X103671000Y-25734000D02*
X104013000Y-25963000D01*
X103730000Y-30551000D02*
X103168000Y-30446000D01*
X104013000Y-25963000D02*
X104546000Y-26496000D01*
X104209000Y-30850000D02*
X103730000Y-30551000D01*
X104546000Y-26496000D02*
X104546000Y-26718000D01*
X104546000Y-26718000D02*
X104633000Y-27156000D01*
X104547000Y-31303000D02*
X104209000Y-30850000D01*
X104633000Y-27156000D02*
X104877000Y-27523000D01*
X104701000Y-31861000D02*
X104547000Y-31303000D01*
X104783000Y-32159000D02*
X104701000Y-31861000D01*
X104877000Y-27523000D02*
X105244000Y-27767000D01*
X104976000Y-32417000D02*
X104783000Y-32159000D01*
X105244000Y-27767000D02*
X105682000Y-27854000D01*
X105250000Y-32587000D02*
X104976000Y-32417000D01*
X105560000Y-32646000D02*
X105250000Y-32587000D01*
X105682000Y-27854000D02*
X108482000Y-27854000D01*
X108482000Y-27854000D02*
X108809000Y-27919000D01*
X108809000Y-27919000D02*
X109092000Y-28108000D01*
X109092000Y-28108000D02*
X109281000Y-28391000D01*
X109281000Y-28391000D02*
X109366000Y-28818000D01*
X109283000Y-31704000D02*
X109646000Y-31704000D01*
X109646000Y-31704000D02*
X109646000Y-32646000D01*
X109646000Y-32646000D02*
X105560000Y-32646000D01*
%TO.C,SW8*%
X48584000Y-43591000D02*
X49521000Y-42654000D01*
X49521000Y-42654000D02*
X52268000Y-42654000D01*
X49521000Y-47446000D02*
X48500000Y-46425000D01*
X52168000Y-47446000D02*
X49521000Y-47446000D01*
X52268000Y-42654000D02*
X52671000Y-42734000D01*
X52671000Y-42734000D02*
X53013000Y-42963000D01*
X52730000Y-47551000D02*
X52168000Y-47446000D01*
X53013000Y-42963000D02*
X53546000Y-43496000D01*
X53209000Y-47850000D02*
X52730000Y-47551000D01*
X53546000Y-43496000D02*
X53546000Y-43718000D01*
X53546000Y-43718000D02*
X53633000Y-44156000D01*
X53547000Y-48303000D02*
X53209000Y-47850000D01*
X53633000Y-44156000D02*
X53877000Y-44523000D01*
X53701000Y-48861000D02*
X53547000Y-48303000D01*
X53783000Y-49159000D02*
X53701000Y-48861000D01*
X53877000Y-44523000D02*
X54244000Y-44767000D01*
X53976000Y-49417000D02*
X53783000Y-49159000D01*
X54244000Y-44767000D02*
X54682000Y-44854000D01*
X54250000Y-49587000D02*
X53976000Y-49417000D01*
X54560000Y-49646000D02*
X54250000Y-49587000D01*
X54682000Y-44854000D02*
X57482000Y-44854000D01*
X57482000Y-44854000D02*
X57809000Y-44919000D01*
X57809000Y-44919000D02*
X58092000Y-45108000D01*
X58092000Y-45108000D02*
X58281000Y-45391000D01*
X58281000Y-45391000D02*
X58366000Y-45818000D01*
X58283000Y-48704000D02*
X58646000Y-48704000D01*
X58646000Y-48704000D02*
X58646000Y-49646000D01*
X58646000Y-49646000D02*
X54560000Y-49646000D01*
%TO.C,SW23*%
X99584000Y-77591000D02*
X100521000Y-76654000D01*
X100521000Y-76654000D02*
X103268000Y-76654000D01*
X100521000Y-81446000D02*
X99500000Y-80425000D01*
X103168000Y-81446000D02*
X100521000Y-81446000D01*
X103268000Y-76654000D02*
X103671000Y-76734000D01*
X103671000Y-76734000D02*
X104013000Y-76963000D01*
X103730000Y-81551000D02*
X103168000Y-81446000D01*
X104013000Y-76963000D02*
X104546000Y-77496000D01*
X104209000Y-81850000D02*
X103730000Y-81551000D01*
X104546000Y-77496000D02*
X104546000Y-77718000D01*
X104546000Y-77718000D02*
X104633000Y-78156000D01*
X104547000Y-82303000D02*
X104209000Y-81850000D01*
X104633000Y-78156000D02*
X104877000Y-78523000D01*
X104701000Y-82861000D02*
X104547000Y-82303000D01*
X104783000Y-83159000D02*
X104701000Y-82861000D01*
X104877000Y-78523000D02*
X105244000Y-78767000D01*
X104976000Y-83417000D02*
X104783000Y-83159000D01*
X105244000Y-78767000D02*
X105682000Y-78854000D01*
X105250000Y-83587000D02*
X104976000Y-83417000D01*
X105560000Y-83646000D02*
X105250000Y-83587000D01*
X105682000Y-78854000D02*
X108482000Y-78854000D01*
X108482000Y-78854000D02*
X108809000Y-78919000D01*
X108809000Y-78919000D02*
X109092000Y-79108000D01*
X109092000Y-79108000D02*
X109281000Y-79391000D01*
X109281000Y-79391000D02*
X109366000Y-79818000D01*
X109283000Y-82704000D02*
X109646000Y-82704000D01*
X109646000Y-82704000D02*
X109646000Y-83646000D01*
X109646000Y-83646000D02*
X105560000Y-83646000D01*
%TO.C,SW13*%
X31584000Y-60591000D02*
X32521000Y-59654000D01*
X32521000Y-59654000D02*
X35268000Y-59654000D01*
X32521000Y-64446000D02*
X31500000Y-63425000D01*
X35168000Y-64446000D02*
X32521000Y-64446000D01*
X35268000Y-59654000D02*
X35671000Y-59734000D01*
X35671000Y-59734000D02*
X36013000Y-59963000D01*
X35730000Y-64551000D02*
X35168000Y-64446000D01*
X36013000Y-59963000D02*
X36546000Y-60496000D01*
X36209000Y-64850000D02*
X35730000Y-64551000D01*
X36546000Y-60496000D02*
X36546000Y-60718000D01*
X36546000Y-60718000D02*
X36633000Y-61156000D01*
X36547000Y-65303000D02*
X36209000Y-64850000D01*
X36633000Y-61156000D02*
X36877000Y-61523000D01*
X36701000Y-65861000D02*
X36547000Y-65303000D01*
X36783000Y-66159000D02*
X36701000Y-65861000D01*
X36877000Y-61523000D02*
X37244000Y-61767000D01*
X36976000Y-66417000D02*
X36783000Y-66159000D01*
X37244000Y-61767000D02*
X37682000Y-61854000D01*
X37250000Y-66587000D02*
X36976000Y-66417000D01*
X37560000Y-66646000D02*
X37250000Y-66587000D01*
X37682000Y-61854000D02*
X40482000Y-61854000D01*
X40482000Y-61854000D02*
X40809000Y-61919000D01*
X40809000Y-61919000D02*
X41092000Y-62108000D01*
X41092000Y-62108000D02*
X41281000Y-62391000D01*
X41281000Y-62391000D02*
X41366000Y-62818000D01*
X41283000Y-65704000D02*
X41646000Y-65704000D01*
X41646000Y-65704000D02*
X41646000Y-66646000D01*
X41646000Y-66646000D02*
X37560000Y-66646000D01*
%TO.C,SW9*%
X65584000Y-43591000D02*
X66521000Y-42654000D01*
X66521000Y-42654000D02*
X69268000Y-42654000D01*
X66521000Y-47446000D02*
X65500000Y-46425000D01*
X69168000Y-47446000D02*
X66521000Y-47446000D01*
X69268000Y-42654000D02*
X69671000Y-42734000D01*
X69671000Y-42734000D02*
X70013000Y-42963000D01*
X69730000Y-47551000D02*
X69168000Y-47446000D01*
X70013000Y-42963000D02*
X70546000Y-43496000D01*
X70209000Y-47850000D02*
X69730000Y-47551000D01*
X70546000Y-43496000D02*
X70546000Y-43718000D01*
X70546000Y-43718000D02*
X70633000Y-44156000D01*
X70547000Y-48303000D02*
X70209000Y-47850000D01*
X70633000Y-44156000D02*
X70877000Y-44523000D01*
X70701000Y-48861000D02*
X70547000Y-48303000D01*
X70783000Y-49159000D02*
X70701000Y-48861000D01*
X70877000Y-44523000D02*
X71244000Y-44767000D01*
X70976000Y-49417000D02*
X70783000Y-49159000D01*
X71244000Y-44767000D02*
X71682000Y-44854000D01*
X71250000Y-49587000D02*
X70976000Y-49417000D01*
X71560000Y-49646000D02*
X71250000Y-49587000D01*
X71682000Y-44854000D02*
X74482000Y-44854000D01*
X74482000Y-44854000D02*
X74809000Y-44919000D01*
X74809000Y-44919000D02*
X75092000Y-45108000D01*
X75092000Y-45108000D02*
X75281000Y-45391000D01*
X75281000Y-45391000D02*
X75366000Y-45818000D01*
X75283000Y-48704000D02*
X75646000Y-48704000D01*
X75646000Y-48704000D02*
X75646000Y-49646000D01*
X75646000Y-49646000D02*
X71560000Y-49646000D01*
%TO.C,SW21*%
X65584000Y-77591000D02*
X66521000Y-76654000D01*
X66521000Y-76654000D02*
X69268000Y-76654000D01*
X66521000Y-81446000D02*
X65500000Y-80425000D01*
X69168000Y-81446000D02*
X66521000Y-81446000D01*
X69268000Y-76654000D02*
X69671000Y-76734000D01*
X69671000Y-76734000D02*
X70013000Y-76963000D01*
X69730000Y-81551000D02*
X69168000Y-81446000D01*
X70013000Y-76963000D02*
X70546000Y-77496000D01*
X70209000Y-81850000D02*
X69730000Y-81551000D01*
X70546000Y-77496000D02*
X70546000Y-77718000D01*
X70546000Y-77718000D02*
X70633000Y-78156000D01*
X70547000Y-82303000D02*
X70209000Y-81850000D01*
X70633000Y-78156000D02*
X70877000Y-78523000D01*
X70701000Y-82861000D02*
X70547000Y-82303000D01*
X70783000Y-83159000D02*
X70701000Y-82861000D01*
X70877000Y-78523000D02*
X71244000Y-78767000D01*
X70976000Y-83417000D02*
X70783000Y-83159000D01*
X71244000Y-78767000D02*
X71682000Y-78854000D01*
X71250000Y-83587000D02*
X70976000Y-83417000D01*
X71560000Y-83646000D02*
X71250000Y-83587000D01*
X71682000Y-78854000D02*
X74482000Y-78854000D01*
X74482000Y-78854000D02*
X74809000Y-78919000D01*
X74809000Y-78919000D02*
X75092000Y-79108000D01*
X75092000Y-79108000D02*
X75281000Y-79391000D01*
X75281000Y-79391000D02*
X75366000Y-79818000D01*
X75283000Y-82704000D02*
X75646000Y-82704000D01*
X75646000Y-82704000D02*
X75646000Y-83646000D01*
X75646000Y-83646000D02*
X71560000Y-83646000D01*
%TO.C,SW30*%
X116584000Y-94591000D02*
X117521000Y-93654000D01*
X117521000Y-93654000D02*
X120268000Y-93654000D01*
X117521000Y-98446000D02*
X116500000Y-97425000D01*
X120168000Y-98446000D02*
X117521000Y-98446000D01*
X120268000Y-93654000D02*
X120671000Y-93734000D01*
X120671000Y-93734000D02*
X121013000Y-93963000D01*
X120730000Y-98551000D02*
X120168000Y-98446000D01*
X121013000Y-93963000D02*
X121546000Y-94496000D01*
X121209000Y-98850000D02*
X120730000Y-98551000D01*
X121546000Y-94496000D02*
X121546000Y-94718000D01*
X121546000Y-94718000D02*
X121633000Y-95156000D01*
X121547000Y-99303000D02*
X121209000Y-98850000D01*
X121633000Y-95156000D02*
X121877000Y-95523000D01*
X121701000Y-99861000D02*
X121547000Y-99303000D01*
X121783000Y-100159000D02*
X121701000Y-99861000D01*
X121877000Y-95523000D02*
X122244000Y-95767000D01*
X121976000Y-100417000D02*
X121783000Y-100159000D01*
X122244000Y-95767000D02*
X122682000Y-95854000D01*
X122250000Y-100587000D02*
X121976000Y-100417000D01*
X122560000Y-100646000D02*
X122250000Y-100587000D01*
X122682000Y-95854000D02*
X125482000Y-95854000D01*
X125482000Y-95854000D02*
X125809000Y-95919000D01*
X125809000Y-95919000D02*
X126092000Y-96108000D01*
X126092000Y-96108000D02*
X126281000Y-96391000D01*
X126281000Y-96391000D02*
X126366000Y-96818000D01*
X126283000Y-99704000D02*
X126646000Y-99704000D01*
X126646000Y-99704000D02*
X126646000Y-100646000D01*
X126646000Y-100646000D02*
X122560000Y-100646000D01*
%TO.C,SW3*%
X65584000Y-26591000D02*
X66521000Y-25654000D01*
X66521000Y-25654000D02*
X69268000Y-25654000D01*
X66521000Y-30446000D02*
X65500000Y-29425000D01*
X69168000Y-30446000D02*
X66521000Y-30446000D01*
X69268000Y-25654000D02*
X69671000Y-25734000D01*
X69671000Y-25734000D02*
X70013000Y-25963000D01*
X69730000Y-30551000D02*
X69168000Y-30446000D01*
X70013000Y-25963000D02*
X70546000Y-26496000D01*
X70209000Y-30850000D02*
X69730000Y-30551000D01*
X70546000Y-26496000D02*
X70546000Y-26718000D01*
X70546000Y-26718000D02*
X70633000Y-27156000D01*
X70547000Y-31303000D02*
X70209000Y-30850000D01*
X70633000Y-27156000D02*
X70877000Y-27523000D01*
X70701000Y-31861000D02*
X70547000Y-31303000D01*
X70783000Y-32159000D02*
X70701000Y-31861000D01*
X70877000Y-27523000D02*
X71244000Y-27767000D01*
X70976000Y-32417000D02*
X70783000Y-32159000D01*
X71244000Y-27767000D02*
X71682000Y-27854000D01*
X71250000Y-32587000D02*
X70976000Y-32417000D01*
X71560000Y-32646000D02*
X71250000Y-32587000D01*
X71682000Y-27854000D02*
X74482000Y-27854000D01*
X74482000Y-27854000D02*
X74809000Y-27919000D01*
X74809000Y-27919000D02*
X75092000Y-28108000D01*
X75092000Y-28108000D02*
X75281000Y-28391000D01*
X75281000Y-28391000D02*
X75366000Y-28818000D01*
X75283000Y-31704000D02*
X75646000Y-31704000D01*
X75646000Y-31704000D02*
X75646000Y-32646000D01*
X75646000Y-32646000D02*
X71560000Y-32646000D01*
%TO.C,SW4*%
X82584000Y-26591000D02*
X83521000Y-25654000D01*
X83521000Y-25654000D02*
X86268000Y-25654000D01*
X83521000Y-30446000D02*
X82500000Y-29425000D01*
X86168000Y-30446000D02*
X83521000Y-30446000D01*
X86268000Y-25654000D02*
X86671000Y-25734000D01*
X86671000Y-25734000D02*
X87013000Y-25963000D01*
X86730000Y-30551000D02*
X86168000Y-30446000D01*
X87013000Y-25963000D02*
X87546000Y-26496000D01*
X87209000Y-30850000D02*
X86730000Y-30551000D01*
X87546000Y-26496000D02*
X87546000Y-26718000D01*
X87546000Y-26718000D02*
X87633000Y-27156000D01*
X87547000Y-31303000D02*
X87209000Y-30850000D01*
X87633000Y-27156000D02*
X87877000Y-27523000D01*
X87701000Y-31861000D02*
X87547000Y-31303000D01*
X87783000Y-32159000D02*
X87701000Y-31861000D01*
X87877000Y-27523000D02*
X88244000Y-27767000D01*
X87976000Y-32417000D02*
X87783000Y-32159000D01*
X88244000Y-27767000D02*
X88682000Y-27854000D01*
X88250000Y-32587000D02*
X87976000Y-32417000D01*
X88560000Y-32646000D02*
X88250000Y-32587000D01*
X88682000Y-27854000D02*
X91482000Y-27854000D01*
X91482000Y-27854000D02*
X91809000Y-27919000D01*
X91809000Y-27919000D02*
X92092000Y-28108000D01*
X92092000Y-28108000D02*
X92281000Y-28391000D01*
X92281000Y-28391000D02*
X92366000Y-28818000D01*
X92283000Y-31704000D02*
X92646000Y-31704000D01*
X92646000Y-31704000D02*
X92646000Y-32646000D01*
X92646000Y-32646000D02*
X88560000Y-32646000D01*
%TO.C,SW22*%
X82584000Y-77591000D02*
X83521000Y-76654000D01*
X83521000Y-76654000D02*
X86268000Y-76654000D01*
X83521000Y-81446000D02*
X82500000Y-80425000D01*
X86168000Y-81446000D02*
X83521000Y-81446000D01*
X86268000Y-76654000D02*
X86671000Y-76734000D01*
X86671000Y-76734000D02*
X87013000Y-76963000D01*
X86730000Y-81551000D02*
X86168000Y-81446000D01*
X87013000Y-76963000D02*
X87546000Y-77496000D01*
X87209000Y-81850000D02*
X86730000Y-81551000D01*
X87546000Y-77496000D02*
X87546000Y-77718000D01*
X87546000Y-77718000D02*
X87633000Y-78156000D01*
X87547000Y-82303000D02*
X87209000Y-81850000D01*
X87633000Y-78156000D02*
X87877000Y-78523000D01*
X87701000Y-82861000D02*
X87547000Y-82303000D01*
X87783000Y-83159000D02*
X87701000Y-82861000D01*
X87877000Y-78523000D02*
X88244000Y-78767000D01*
X87976000Y-83417000D02*
X87783000Y-83159000D01*
X88244000Y-78767000D02*
X88682000Y-78854000D01*
X88250000Y-83587000D02*
X87976000Y-83417000D01*
X88560000Y-83646000D02*
X88250000Y-83587000D01*
X88682000Y-78854000D02*
X91482000Y-78854000D01*
X91482000Y-78854000D02*
X91809000Y-78919000D01*
X91809000Y-78919000D02*
X92092000Y-79108000D01*
X92092000Y-79108000D02*
X92281000Y-79391000D01*
X92281000Y-79391000D02*
X92366000Y-79818000D01*
X92283000Y-82704000D02*
X92646000Y-82704000D01*
X92646000Y-82704000D02*
X92646000Y-83646000D01*
X92646000Y-83646000D02*
X88560000Y-83646000D01*
%TO.C,SW11*%
X99584000Y-43591000D02*
X100521000Y-42654000D01*
X100521000Y-42654000D02*
X103268000Y-42654000D01*
X100521000Y-47446000D02*
X99500000Y-46425000D01*
X103168000Y-47446000D02*
X100521000Y-47446000D01*
X103268000Y-42654000D02*
X103671000Y-42734000D01*
X103671000Y-42734000D02*
X104013000Y-42963000D01*
X103730000Y-47551000D02*
X103168000Y-47446000D01*
X104013000Y-42963000D02*
X104546000Y-43496000D01*
X104209000Y-47850000D02*
X103730000Y-47551000D01*
X104546000Y-43496000D02*
X104546000Y-43718000D01*
X104546000Y-43718000D02*
X104633000Y-44156000D01*
X104547000Y-48303000D02*
X104209000Y-47850000D01*
X104633000Y-44156000D02*
X104877000Y-44523000D01*
X104701000Y-48861000D02*
X104547000Y-48303000D01*
X104783000Y-49159000D02*
X104701000Y-48861000D01*
X104877000Y-44523000D02*
X105244000Y-44767000D01*
X104976000Y-49417000D02*
X104783000Y-49159000D01*
X105244000Y-44767000D02*
X105682000Y-44854000D01*
X105250000Y-49587000D02*
X104976000Y-49417000D01*
X105560000Y-49646000D02*
X105250000Y-49587000D01*
X105682000Y-44854000D02*
X108482000Y-44854000D01*
X108482000Y-44854000D02*
X108809000Y-44919000D01*
X108809000Y-44919000D02*
X109092000Y-45108000D01*
X109092000Y-45108000D02*
X109281000Y-45391000D01*
X109281000Y-45391000D02*
X109366000Y-45818000D01*
X109283000Y-48704000D02*
X109646000Y-48704000D01*
X109646000Y-48704000D02*
X109646000Y-49646000D01*
X109646000Y-49646000D02*
X105560000Y-49646000D01*
%TO.C,SW28*%
X82584000Y-94591000D02*
X83521000Y-93654000D01*
X83521000Y-93654000D02*
X86268000Y-93654000D01*
X83521000Y-98446000D02*
X82500000Y-97425000D01*
X86168000Y-98446000D02*
X83521000Y-98446000D01*
X86268000Y-93654000D02*
X86671000Y-93734000D01*
X86671000Y-93734000D02*
X87013000Y-93963000D01*
X86730000Y-98551000D02*
X86168000Y-98446000D01*
X87013000Y-93963000D02*
X87546000Y-94496000D01*
X87209000Y-98850000D02*
X86730000Y-98551000D01*
X87546000Y-94496000D02*
X87546000Y-94718000D01*
X87546000Y-94718000D02*
X87633000Y-95156000D01*
X87547000Y-99303000D02*
X87209000Y-98850000D01*
X87633000Y-95156000D02*
X87877000Y-95523000D01*
X87701000Y-99861000D02*
X87547000Y-99303000D01*
X87783000Y-100159000D02*
X87701000Y-99861000D01*
X87877000Y-95523000D02*
X88244000Y-95767000D01*
X87976000Y-100417000D02*
X87783000Y-100159000D01*
X88244000Y-95767000D02*
X88682000Y-95854000D01*
X88250000Y-100587000D02*
X87976000Y-100417000D01*
X88560000Y-100646000D02*
X88250000Y-100587000D01*
X88682000Y-95854000D02*
X91482000Y-95854000D01*
X91482000Y-95854000D02*
X91809000Y-95919000D01*
X91809000Y-95919000D02*
X92092000Y-96108000D01*
X92092000Y-96108000D02*
X92281000Y-96391000D01*
X92281000Y-96391000D02*
X92366000Y-96818000D01*
X92283000Y-99704000D02*
X92646000Y-99704000D01*
X92646000Y-99704000D02*
X92646000Y-100646000D01*
X92646000Y-100646000D02*
X88560000Y-100646000D01*
%TO.C,SW12*%
X116584000Y-43591000D02*
X117521000Y-42654000D01*
X117521000Y-42654000D02*
X120268000Y-42654000D01*
X117521000Y-47446000D02*
X116500000Y-46425000D01*
X120168000Y-47446000D02*
X117521000Y-47446000D01*
X120268000Y-42654000D02*
X120671000Y-42734000D01*
X120671000Y-42734000D02*
X121013000Y-42963000D01*
X120730000Y-47551000D02*
X120168000Y-47446000D01*
X121013000Y-42963000D02*
X121546000Y-43496000D01*
X121209000Y-47850000D02*
X120730000Y-47551000D01*
X121546000Y-43496000D02*
X121546000Y-43718000D01*
X121546000Y-43718000D02*
X121633000Y-44156000D01*
X121547000Y-48303000D02*
X121209000Y-47850000D01*
X121633000Y-44156000D02*
X121877000Y-44523000D01*
X121701000Y-48861000D02*
X121547000Y-48303000D01*
X121783000Y-49159000D02*
X121701000Y-48861000D01*
X121877000Y-44523000D02*
X122244000Y-44767000D01*
X121976000Y-49417000D02*
X121783000Y-49159000D01*
X122244000Y-44767000D02*
X122682000Y-44854000D01*
X122250000Y-49587000D02*
X121976000Y-49417000D01*
X122560000Y-49646000D02*
X122250000Y-49587000D01*
X122682000Y-44854000D02*
X125482000Y-44854000D01*
X125482000Y-44854000D02*
X125809000Y-44919000D01*
X125809000Y-44919000D02*
X126092000Y-45108000D01*
X126092000Y-45108000D02*
X126281000Y-45391000D01*
X126281000Y-45391000D02*
X126366000Y-45818000D01*
X126283000Y-48704000D02*
X126646000Y-48704000D01*
X126646000Y-48704000D02*
X126646000Y-49646000D01*
X126646000Y-49646000D02*
X122560000Y-49646000D01*
%TO.C,SW17*%
X99584000Y-60591000D02*
X100521000Y-59654000D01*
X100521000Y-59654000D02*
X103268000Y-59654000D01*
X100521000Y-64446000D02*
X99500000Y-63425000D01*
X103168000Y-64446000D02*
X100521000Y-64446000D01*
X103268000Y-59654000D02*
X103671000Y-59734000D01*
X103671000Y-59734000D02*
X104013000Y-59963000D01*
X103730000Y-64551000D02*
X103168000Y-64446000D01*
X104013000Y-59963000D02*
X104546000Y-60496000D01*
X104209000Y-64850000D02*
X103730000Y-64551000D01*
X104546000Y-60496000D02*
X104546000Y-60718000D01*
X104546000Y-60718000D02*
X104633000Y-61156000D01*
X104547000Y-65303000D02*
X104209000Y-64850000D01*
X104633000Y-61156000D02*
X104877000Y-61523000D01*
X104701000Y-65861000D02*
X104547000Y-65303000D01*
X104783000Y-66159000D02*
X104701000Y-65861000D01*
X104877000Y-61523000D02*
X105244000Y-61767000D01*
X104976000Y-66417000D02*
X104783000Y-66159000D01*
X105244000Y-61767000D02*
X105682000Y-61854000D01*
X105250000Y-66587000D02*
X104976000Y-66417000D01*
X105560000Y-66646000D02*
X105250000Y-66587000D01*
X105682000Y-61854000D02*
X108482000Y-61854000D01*
X108482000Y-61854000D02*
X108809000Y-61919000D01*
X108809000Y-61919000D02*
X109092000Y-62108000D01*
X109092000Y-62108000D02*
X109281000Y-62391000D01*
X109281000Y-62391000D02*
X109366000Y-62818000D01*
X109283000Y-65704000D02*
X109646000Y-65704000D01*
X109646000Y-65704000D02*
X109646000Y-66646000D01*
X109646000Y-66646000D02*
X105560000Y-66646000D01*
%TO.C,SW14*%
X48584000Y-60591000D02*
X49521000Y-59654000D01*
X49521000Y-59654000D02*
X52268000Y-59654000D01*
X49521000Y-64446000D02*
X48500000Y-63425000D01*
X52168000Y-64446000D02*
X49521000Y-64446000D01*
X52268000Y-59654000D02*
X52671000Y-59734000D01*
X52671000Y-59734000D02*
X53013000Y-59963000D01*
X52730000Y-64551000D02*
X52168000Y-64446000D01*
X53013000Y-59963000D02*
X53546000Y-60496000D01*
X53209000Y-64850000D02*
X52730000Y-64551000D01*
X53546000Y-60496000D02*
X53546000Y-60718000D01*
X53546000Y-60718000D02*
X53633000Y-61156000D01*
X53547000Y-65303000D02*
X53209000Y-64850000D01*
X53633000Y-61156000D02*
X53877000Y-61523000D01*
X53701000Y-65861000D02*
X53547000Y-65303000D01*
X53783000Y-66159000D02*
X53701000Y-65861000D01*
X53877000Y-61523000D02*
X54244000Y-61767000D01*
X53976000Y-66417000D02*
X53783000Y-66159000D01*
X54244000Y-61767000D02*
X54682000Y-61854000D01*
X54250000Y-66587000D02*
X53976000Y-66417000D01*
X54560000Y-66646000D02*
X54250000Y-66587000D01*
X54682000Y-61854000D02*
X57482000Y-61854000D01*
X57482000Y-61854000D02*
X57809000Y-61919000D01*
X57809000Y-61919000D02*
X58092000Y-62108000D01*
X58092000Y-62108000D02*
X58281000Y-62391000D01*
X58281000Y-62391000D02*
X58366000Y-62818000D01*
X58283000Y-65704000D02*
X58646000Y-65704000D01*
X58646000Y-65704000D02*
X58646000Y-66646000D01*
X58646000Y-66646000D02*
X54560000Y-66646000D01*
%TO.C,SW20*%
X48584000Y-77591000D02*
X49521000Y-76654000D01*
X49521000Y-76654000D02*
X52268000Y-76654000D01*
X49521000Y-81446000D02*
X48500000Y-80425000D01*
X52168000Y-81446000D02*
X49521000Y-81446000D01*
X52268000Y-76654000D02*
X52671000Y-76734000D01*
X52671000Y-76734000D02*
X53013000Y-76963000D01*
X52730000Y-81551000D02*
X52168000Y-81446000D01*
X53013000Y-76963000D02*
X53546000Y-77496000D01*
X53209000Y-81850000D02*
X52730000Y-81551000D01*
X53546000Y-77496000D02*
X53546000Y-77718000D01*
X53546000Y-77718000D02*
X53633000Y-78156000D01*
X53547000Y-82303000D02*
X53209000Y-81850000D01*
X53633000Y-78156000D02*
X53877000Y-78523000D01*
X53701000Y-82861000D02*
X53547000Y-82303000D01*
X53783000Y-83159000D02*
X53701000Y-82861000D01*
X53877000Y-78523000D02*
X54244000Y-78767000D01*
X53976000Y-83417000D02*
X53783000Y-83159000D01*
X54244000Y-78767000D02*
X54682000Y-78854000D01*
X54250000Y-83587000D02*
X53976000Y-83417000D01*
X54560000Y-83646000D02*
X54250000Y-83587000D01*
X54682000Y-78854000D02*
X57482000Y-78854000D01*
X57482000Y-78854000D02*
X57809000Y-78919000D01*
X57809000Y-78919000D02*
X58092000Y-79108000D01*
X58092000Y-79108000D02*
X58281000Y-79391000D01*
X58281000Y-79391000D02*
X58366000Y-79818000D01*
X58283000Y-82704000D02*
X58646000Y-82704000D01*
X58646000Y-82704000D02*
X58646000Y-83646000D01*
X58646000Y-83646000D02*
X54560000Y-83646000D01*
%TO.C,SW26*%
X48584000Y-94591000D02*
X49521000Y-93654000D01*
X49521000Y-93654000D02*
X52268000Y-93654000D01*
X49521000Y-98446000D02*
X48500000Y-97425000D01*
X52168000Y-98446000D02*
X49521000Y-98446000D01*
X52268000Y-93654000D02*
X52671000Y-93734000D01*
X52671000Y-93734000D02*
X53013000Y-93963000D01*
X52730000Y-98551000D02*
X52168000Y-98446000D01*
X53013000Y-93963000D02*
X53546000Y-94496000D01*
X53209000Y-98850000D02*
X52730000Y-98551000D01*
X53546000Y-94496000D02*
X53546000Y-94718000D01*
X53546000Y-94718000D02*
X53633000Y-95156000D01*
X53547000Y-99303000D02*
X53209000Y-98850000D01*
X53633000Y-95156000D02*
X53877000Y-95523000D01*
X53701000Y-99861000D02*
X53547000Y-99303000D01*
X53783000Y-100159000D02*
X53701000Y-99861000D01*
X53877000Y-95523000D02*
X54244000Y-95767000D01*
X53976000Y-100417000D02*
X53783000Y-100159000D01*
X54244000Y-95767000D02*
X54682000Y-95854000D01*
X54250000Y-100587000D02*
X53976000Y-100417000D01*
X54560000Y-100646000D02*
X54250000Y-100587000D01*
X54682000Y-95854000D02*
X57482000Y-95854000D01*
X57482000Y-95854000D02*
X57809000Y-95919000D01*
X57809000Y-95919000D02*
X58092000Y-96108000D01*
X58092000Y-96108000D02*
X58281000Y-96391000D01*
X58281000Y-96391000D02*
X58366000Y-96818000D01*
X58283000Y-99704000D02*
X58646000Y-99704000D01*
X58646000Y-99704000D02*
X58646000Y-100646000D01*
X58646000Y-100646000D02*
X54560000Y-100646000D01*
%TO.C,SW15*%
X65584000Y-60591000D02*
X66521000Y-59654000D01*
X66521000Y-59654000D02*
X69268000Y-59654000D01*
X66521000Y-64446000D02*
X65500000Y-63425000D01*
X69168000Y-64446000D02*
X66521000Y-64446000D01*
X69268000Y-59654000D02*
X69671000Y-59734000D01*
X69671000Y-59734000D02*
X70013000Y-59963000D01*
X69730000Y-64551000D02*
X69168000Y-64446000D01*
X70013000Y-59963000D02*
X70546000Y-60496000D01*
X70209000Y-64850000D02*
X69730000Y-64551000D01*
X70546000Y-60496000D02*
X70546000Y-60718000D01*
X70546000Y-60718000D02*
X70633000Y-61156000D01*
X70547000Y-65303000D02*
X70209000Y-64850000D01*
X70633000Y-61156000D02*
X70877000Y-61523000D01*
X70701000Y-65861000D02*
X70547000Y-65303000D01*
X70783000Y-66159000D02*
X70701000Y-65861000D01*
X70877000Y-61523000D02*
X71244000Y-61767000D01*
X70976000Y-66417000D02*
X70783000Y-66159000D01*
X71244000Y-61767000D02*
X71682000Y-61854000D01*
X71250000Y-66587000D02*
X70976000Y-66417000D01*
X71560000Y-66646000D02*
X71250000Y-66587000D01*
X71682000Y-61854000D02*
X74482000Y-61854000D01*
X74482000Y-61854000D02*
X74809000Y-61919000D01*
X74809000Y-61919000D02*
X75092000Y-62108000D01*
X75092000Y-62108000D02*
X75281000Y-62391000D01*
X75281000Y-62391000D02*
X75366000Y-62818000D01*
X75283000Y-65704000D02*
X75646000Y-65704000D01*
X75646000Y-65704000D02*
X75646000Y-66646000D01*
X75646000Y-66646000D02*
X71560000Y-66646000D01*
%TD*%
M02*
