%TF.GenerationSoftware,KiCad,Pcbnew,9.0.7*%
%TF.CreationDate,2026-01-23T21:58:32-06:00*%
%TF.ProjectId,LillyKey,4c696c6c-794b-4657-992e-6b696361645f,rev?*%
%TF.SameCoordinates,Original*%
%TF.FileFunction,Copper,L2,Bot*%
%TF.FilePolarity,Positive*%
%FSLAX46Y46*%
G04 Gerber Fmt 4.6, Leading zero omitted, Abs format (unit mm)*
G04 Created by KiCad (PCBNEW 9.0.7) date 2026-01-23 21:58:32*
%MOMM*%
%LPD*%
G01*
G04 APERTURE LIST*
G04 Aperture macros list*
%AMRoundRect*
0 Rectangle with rounded corners*
0 $1 Rounding radius*
0 $2 $3 $4 $5 $6 $7 $8 $9 X,Y pos of 4 corners*
0 Add a 4 corners polygon primitive as box body*
4,1,4,$2,$3,$4,$5,$6,$7,$8,$9,$2,$3,0*
0 Add four circle primitives for the rounded corners*
1,1,$1+$1,$2,$3*
1,1,$1+$1,$4,$5*
1,1,$1+$1,$6,$7*
1,1,$1+$1,$8,$9*
0 Add four rect primitives between the rounded corners*
20,1,$1+$1,$2,$3,$4,$5,0*
20,1,$1+$1,$4,$5,$6,$7,0*
20,1,$1+$1,$6,$7,$8,$9,0*
20,1,$1+$1,$8,$9,$2,$3,0*%
G04 Aperture macros list end*
%TA.AperFunction,ComponentPad*%
%ADD10C,3.800000*%
%TD*%
%TA.AperFunction,ComponentPad*%
%ADD11C,1.600000*%
%TD*%
%TA.AperFunction,SMDPad,CuDef*%
%ADD12O,2.750000X1.800000*%
%TD*%
%TA.AperFunction,SMDPad,CuDef*%
%ADD13RoundRect,0.250000X-1.025000X-1.000000X1.025000X-1.000000X1.025000X1.000000X-1.025000X1.000000X0*%
%TD*%
%TA.AperFunction,SMDPad,CuDef*%
%ADD14R,1.498600X3.403600*%
%TD*%
%TA.AperFunction,SMDPad,CuDef*%
%ADD15R,0.990600X3.505200*%
%TD*%
%TA.AperFunction,SMDPad,CuDef*%
%ADD16RoundRect,0.225000X-0.225000X-0.375000X0.225000X-0.375000X0.225000X0.375000X-0.225000X0.375000X0*%
%TD*%
%TA.AperFunction,ViaPad*%
%ADD17C,0.600000*%
%TD*%
%TA.AperFunction,Conductor*%
%ADD18C,0.200000*%
%TD*%
G04 APERTURE END LIST*
D10*
%TO.P,REF\u002A\u002A,1*%
%TO.N,N/C*%
X159000000Y-111000000D03*
%TD*%
D11*
%TO.P,U2,20*%
%TO.N,N/C*%
X140665000Y-30278000D03*
X149555000Y-30278000D03*
%TO.P,U2,32,BAT*%
%TO.N,/VBAT*%
X140665000Y-32183000D03*
X149555000Y-32183000D03*
D12*
%TO.P,U2,14,5V*%
%TO.N,unconnected-(U2-5V-Pad14)*%
X137015040Y-24880000D03*
%TO.P,U2,13,GND*%
%TO.N,GND*%
X137015040Y-27420000D03*
%TO.P,U2,12,3V3*%
%TO.N,unconnected-(U2-3V3-Pad12)*%
X137015040Y-29960000D03*
%TO.P,U2,11,P1.15_D10_MOSI*%
%TO.N,/ROW4*%
X137015040Y-32500000D03*
%TO.P,U2,10,P1.14_D9_MISO*%
%TO.N,/ROW3*%
X137015040Y-35040000D03*
%TO.P,U2,9,P1.13_D8_SCK*%
%TO.N,/ROW2*%
X137015040Y-37580000D03*
%TO.P,U2,8,P1.12_D7_RX*%
%TO.N,/ROW1*%
X137015040Y-40120000D03*
%TO.P,U2,7,P1.11_D6_TX*%
%TO.N,/ROW0*%
X153204960Y-40120000D03*
%TO.P,U2,6,P0.05_A5_D5_SCL*%
%TO.N,/COL5*%
X153204960Y-37580000D03*
%TO.P,U2,5,P0.04_A4_D4_SDA*%
%TO.N,/COL4*%
X153204960Y-35040000D03*
%TO.P,U2,4,P0.29_A3_D3*%
%TO.N,/COL3*%
X153204960Y-32500000D03*
%TO.P,U2,3,P0.28_A2_D2*%
%TO.N,/COL2*%
X153204960Y-29960000D03*
%TO.P,U2,2,P0.03_A1_D1*%
%TO.N,/COL1*%
X153204960Y-27420000D03*
%TO.P,U2,1,P0.02_A0_D0*%
%TO.N,/COL0*%
X153204960Y-24880000D03*
%TD*%
D13*
%TO.P,SW1,1,1*%
%TO.N,/COL0*%
X30500000Y-28000000D03*
%TO.P,SW1,2,2*%
%TO.N,Net-(D1-A)*%
X42500000Y-30200000D03*
%TD*%
D10*
%TO.P,REF\u002A\u002A,1*%
%TO.N,N/C*%
X159000000Y-25000000D03*
%TD*%
%TO.P,REF\u002A\u002A,1*%
%TO.N,N/C*%
X25000000Y-25000000D03*
%TD*%
%TO.P,REF\u002A\u002A,1*%
%TO.N,N/C*%
X25000000Y-111000000D03*
%TD*%
D14*
%TO.P,J1,4*%
%TO.N,N/C*%
X142649999Y-55560000D03*
%TO.P,J1,3*%
X149350001Y-55560000D03*
D15*
%TO.P,J1,2,Pin_2*%
%TO.N,GND*%
X144999999Y-49809999D03*
%TO.P,J1,1,Pin_1*%
%TO.N,/VBAT*%
X147000001Y-49809999D03*
%TD*%
D16*
%TO.P,D27,2,A*%
%TO.N,Net-(D27-A)*%
X69800000Y-105950000D03*
%TO.P,D27,1,K*%
%TO.N,/ROW4*%
X66500000Y-105950000D03*
%TD*%
%TO.P,D18,2,A*%
%TO.N,Net-(D18-A)*%
X120800000Y-71950000D03*
%TO.P,D18,1,K*%
%TO.N,/ROW2*%
X117500000Y-71950000D03*
%TD*%
%TO.P,D7,2,A*%
%TO.N,Net-(D7-A)*%
X35800000Y-54950000D03*
%TO.P,D7,1,K*%
%TO.N,/ROW1*%
X32500000Y-54950000D03*
%TD*%
%TO.P,D9,2,A*%
%TO.N,Net-(D9-A)*%
X69800000Y-54950000D03*
%TO.P,D9,1,K*%
%TO.N,/ROW1*%
X66500000Y-54950000D03*
%TD*%
%TO.P,D10,2,A*%
%TO.N,Net-(D10-A)*%
X86800000Y-54950000D03*
%TO.P,D10,1,K*%
%TO.N,/ROW1*%
X83500000Y-54950000D03*
%TD*%
%TO.P,D15,2,A*%
%TO.N,Net-(D15-A)*%
X69800000Y-71950000D03*
%TO.P,D15,1,K*%
%TO.N,/ROW2*%
X66500000Y-71950000D03*
%TD*%
%TO.P,D22,2,A*%
%TO.N,Net-(D22-A)*%
X86800000Y-88950000D03*
%TO.P,D22,1,K*%
%TO.N,/ROW3*%
X83500000Y-88950000D03*
%TD*%
%TO.P,D14,2,A*%
%TO.N,Net-(D14-A)*%
X52800000Y-71950000D03*
%TO.P,D14,1,K*%
%TO.N,/ROW2*%
X49500000Y-71950000D03*
%TD*%
%TO.P,D16,2,A*%
%TO.N,Net-(D16-A)*%
X86800000Y-71950000D03*
%TO.P,D16,1,K*%
%TO.N,/ROW2*%
X83500000Y-71950000D03*
%TD*%
%TO.P,D5,2,A*%
%TO.N,Net-(D5-A)*%
X103800000Y-37950000D03*
%TO.P,D5,1,K*%
%TO.N,/ROW0*%
X100500000Y-37950000D03*
%TD*%
%TO.P,D13,2,A*%
%TO.N,Net-(D13-A)*%
X35800000Y-71950000D03*
%TO.P,D13,1,K*%
%TO.N,/ROW2*%
X32500000Y-71950000D03*
%TD*%
%TO.P,D8,2,A*%
%TO.N,Net-(D8-A)*%
X52800000Y-54950000D03*
%TO.P,D8,1,K*%
%TO.N,/ROW1*%
X49500000Y-54950000D03*
%TD*%
%TO.P,D29,2,A*%
%TO.N,Net-(D29-A)*%
X103800000Y-105950000D03*
%TO.P,D29,1,K*%
%TO.N,/ROW4*%
X100500000Y-105950000D03*
%TD*%
%TO.P,D2,2,A*%
%TO.N,Net-(D2-A)*%
X52800000Y-37950000D03*
%TO.P,D2,1,K*%
%TO.N,/ROW0*%
X49500000Y-37950000D03*
%TD*%
%TO.P,D4,2,A*%
%TO.N,Net-(D4-A)*%
X86800000Y-37950000D03*
%TO.P,D4,1,K*%
%TO.N,/ROW0*%
X83500000Y-37950000D03*
%TD*%
%TO.P,D26,2,A*%
%TO.N,Net-(D26-A)*%
X52800000Y-105950000D03*
%TO.P,D26,1,K*%
%TO.N,/ROW4*%
X49500000Y-105950000D03*
%TD*%
%TO.P,D3,2,A*%
%TO.N,Net-(D3-A)*%
X69800000Y-37950000D03*
%TO.P,D3,1,K*%
%TO.N,/ROW0*%
X66500000Y-37950000D03*
%TD*%
%TO.P,D28,2,A*%
%TO.N,Net-(D28-A)*%
X86800000Y-105950000D03*
%TO.P,D28,1,K*%
%TO.N,/ROW4*%
X83500000Y-105950000D03*
%TD*%
%TO.P,D6,2,A*%
%TO.N,Net-(D6-A)*%
X120800000Y-37950000D03*
%TO.P,D6,1,K*%
%TO.N,/ROW0*%
X117500000Y-37950000D03*
%TD*%
%TO.P,D23,2,A*%
%TO.N,Net-(D23-A)*%
X103800000Y-88950000D03*
%TO.P,D23,1,K*%
%TO.N,/ROW3*%
X100500000Y-88950000D03*
%TD*%
%TO.P,D12,2,A*%
%TO.N,Net-(D12-A)*%
X120800000Y-54950000D03*
%TO.P,D12,1,K*%
%TO.N,/ROW1*%
X117500000Y-54950000D03*
%TD*%
%TO.P,D24,2,A*%
%TO.N,Net-(D24-A)*%
X120800000Y-88950000D03*
%TO.P,D24,1,K*%
%TO.N,/ROW3*%
X117500000Y-88950000D03*
%TD*%
%TO.P,D30,2,A*%
%TO.N,Net-(D30-A)*%
X120800000Y-105950000D03*
%TO.P,D30,1,K*%
%TO.N,/ROW4*%
X117500000Y-105950000D03*
%TD*%
%TO.P,D20,2,A*%
%TO.N,Net-(D20-A)*%
X52800000Y-88950000D03*
%TO.P,D20,1,K*%
%TO.N,/ROW3*%
X49500000Y-88950000D03*
%TD*%
%TO.P,D11,2,A*%
%TO.N,Net-(D11-A)*%
X103800000Y-54950000D03*
%TO.P,D11,1,K*%
%TO.N,/ROW1*%
X100500000Y-54950000D03*
%TD*%
%TO.P,D1,2,A*%
%TO.N,Net-(D1-A)*%
X35800000Y-37950000D03*
%TO.P,D1,1,K*%
%TO.N,/ROW0*%
X32500000Y-37950000D03*
%TD*%
%TO.P,D17,2,A*%
%TO.N,Net-(D17-A)*%
X103800000Y-71950000D03*
%TO.P,D17,1,K*%
%TO.N,/ROW2*%
X100500000Y-71950000D03*
%TD*%
%TO.P,D19,2,A*%
%TO.N,Net-(D19-A)*%
X35800000Y-88950000D03*
%TO.P,D19,1,K*%
%TO.N,/ROW3*%
X32500000Y-88950000D03*
%TD*%
%TO.P,D21,2,A*%
%TO.N,Net-(D21-A)*%
X69800000Y-88950000D03*
%TO.P,D21,1,K*%
%TO.N,/ROW3*%
X66500000Y-88950000D03*
%TD*%
%TO.P,D25,2,A*%
%TO.N,Net-(D25-A)*%
X35800000Y-105950000D03*
%TO.P,D25,1,K*%
%TO.N,/ROW4*%
X32500000Y-105950000D03*
%TD*%
D13*
%TO.P,SW7,1,1*%
%TO.N,/COL0*%
X30500000Y-45000000D03*
%TO.P,SW7,2,2*%
%TO.N,Net-(D7-A)*%
X42500000Y-47200000D03*
%TD*%
%TO.P,SW6,1,1*%
%TO.N,/COL5*%
X115500000Y-28000000D03*
%TO.P,SW6,2,2*%
%TO.N,Net-(D6-A)*%
X127500000Y-30200000D03*
%TD*%
%TO.P,SW19,1,1*%
%TO.N,/COL0*%
X30500000Y-79000000D03*
%TO.P,SW19,2,2*%
%TO.N,Net-(D19-A)*%
X42500000Y-81200000D03*
%TD*%
%TO.P,SW10,1,1*%
%TO.N,/COL3*%
X81500000Y-45000000D03*
%TO.P,SW10,2,2*%
%TO.N,Net-(D10-A)*%
X93500000Y-47200000D03*
%TD*%
%TO.P,SW25,1,1*%
%TO.N,/COL0*%
X30500000Y-96000000D03*
%TO.P,SW25,2,2*%
%TO.N,Net-(D25-A)*%
X42500000Y-98200000D03*
%TD*%
%TO.P,SW16,1,1*%
%TO.N,/COL3*%
X81500000Y-62000000D03*
%TO.P,SW16,2,2*%
%TO.N,Net-(D16-A)*%
X93500000Y-64200000D03*
%TD*%
%TO.P,SW18,1,1*%
%TO.N,/COL5*%
X115500000Y-62000000D03*
%TO.P,SW18,2,2*%
%TO.N,Net-(D18-A)*%
X127500000Y-64200000D03*
%TD*%
%TO.P,SW27,1,1*%
%TO.N,/COL2*%
X64500000Y-96000000D03*
%TO.P,SW27,2,2*%
%TO.N,Net-(D27-A)*%
X76500000Y-98200000D03*
%TD*%
%TO.P,SW2,1,1*%
%TO.N,/COL1*%
X47500000Y-28000000D03*
%TO.P,SW2,2,2*%
%TO.N,Net-(D2-A)*%
X59500000Y-30200000D03*
%TD*%
%TO.P,SW24,1,1*%
%TO.N,/COL5*%
X115500000Y-79000000D03*
%TO.P,SW24,2,2*%
%TO.N,Net-(D24-A)*%
X127500000Y-81200000D03*
%TD*%
%TO.P,SW29,1,1*%
%TO.N,/COL4*%
X98500000Y-96000000D03*
%TO.P,SW29,2,2*%
%TO.N,Net-(D29-A)*%
X110500000Y-98200000D03*
%TD*%
%TO.P,SW5,1,1*%
%TO.N,/COL4*%
X98500000Y-28000000D03*
%TO.P,SW5,2,2*%
%TO.N,Net-(D5-A)*%
X110500000Y-30200000D03*
%TD*%
%TO.P,SW8,1,1*%
%TO.N,/COL1*%
X47500000Y-45000000D03*
%TO.P,SW8,2,2*%
%TO.N,Net-(D8-A)*%
X59500000Y-47200000D03*
%TD*%
%TO.P,SW23,1,1*%
%TO.N,/COL4*%
X98500000Y-79000000D03*
%TO.P,SW23,2,2*%
%TO.N,Net-(D23-A)*%
X110500000Y-81200000D03*
%TD*%
%TO.P,SW13,1,1*%
%TO.N,/COL0*%
X30500000Y-62000000D03*
%TO.P,SW13,2,2*%
%TO.N,Net-(D13-A)*%
X42500000Y-64200000D03*
%TD*%
%TO.P,SW9,1,1*%
%TO.N,/COL2*%
X64500000Y-45000000D03*
%TO.P,SW9,2,2*%
%TO.N,Net-(D9-A)*%
X76500000Y-47200000D03*
%TD*%
%TO.P,SW21,1,1*%
%TO.N,/COL2*%
X64500000Y-79000000D03*
%TO.P,SW21,2,2*%
%TO.N,Net-(D21-A)*%
X76500000Y-81200000D03*
%TD*%
%TO.P,SW30,1,1*%
%TO.N,/COL5*%
X115500000Y-96000000D03*
%TO.P,SW30,2,2*%
%TO.N,Net-(D30-A)*%
X127500000Y-98200000D03*
%TD*%
%TO.P,SW3,1,1*%
%TO.N,/COL2*%
X64500000Y-28000000D03*
%TO.P,SW3,2,2*%
%TO.N,Net-(D3-A)*%
X76500000Y-30200000D03*
%TD*%
%TO.P,SW4,1,1*%
%TO.N,/COL3*%
X81500000Y-28000000D03*
%TO.P,SW4,2,2*%
%TO.N,Net-(D4-A)*%
X93500000Y-30200000D03*
%TD*%
%TO.P,SW22,1,1*%
%TO.N,/COL3*%
X81500000Y-79000000D03*
%TO.P,SW22,2,2*%
%TO.N,Net-(D22-A)*%
X93500000Y-81200000D03*
%TD*%
%TO.P,SW11,1,1*%
%TO.N,/COL4*%
X98500000Y-45000000D03*
%TO.P,SW11,2,2*%
%TO.N,Net-(D11-A)*%
X110500000Y-47200000D03*
%TD*%
%TO.P,SW28,1,1*%
%TO.N,/COL3*%
X81500000Y-96000000D03*
%TO.P,SW28,2,2*%
%TO.N,Net-(D28-A)*%
X93500000Y-98200000D03*
%TD*%
%TO.P,SW12,1,1*%
%TO.N,/COL5*%
X115500000Y-45000000D03*
%TO.P,SW12,2,2*%
%TO.N,Net-(D12-A)*%
X127500000Y-47200000D03*
%TD*%
%TO.P,SW17,1,1*%
%TO.N,/COL4*%
X98500000Y-62000000D03*
%TO.P,SW17,2,2*%
%TO.N,Net-(D17-A)*%
X110500000Y-64200000D03*
%TD*%
%TO.P,SW14,1,1*%
%TO.N,/COL1*%
X47500000Y-62000000D03*
%TO.P,SW14,2,2*%
%TO.N,Net-(D14-A)*%
X59500000Y-64200000D03*
%TD*%
%TO.P,SW20,1,1*%
%TO.N,/COL1*%
X47500000Y-79000000D03*
%TO.P,SW20,2,2*%
%TO.N,Net-(D20-A)*%
X59500000Y-81200000D03*
%TD*%
%TO.P,SW26,1,1*%
%TO.N,/COL1*%
X47500000Y-96000000D03*
%TO.P,SW26,2,2*%
%TO.N,Net-(D26-A)*%
X59500000Y-98200000D03*
%TD*%
%TO.P,SW15,1,1*%
%TO.N,/COL2*%
X64500000Y-62000000D03*
%TO.P,SW15,2,2*%
%TO.N,Net-(D15-A)*%
X76500000Y-64200000D03*
%TD*%
D17*
%TO.N,/ROW3*%
X139220000Y-35560000D03*
%TO.N,/COL4*%
X151000000Y-34520000D03*
%TO.N,/COL2*%
X151272040Y-28540000D03*
%TO.N,/ROW1*%
X139220000Y-40640000D03*
%TO.N,/ROW2*%
X139220000Y-38100000D03*
%TO.N,/COL5*%
X151000000Y-37060000D03*
%TO.N,/COL0*%
X151000000Y-24360000D03*
%TO.N,/ROW4*%
X138947960Y-33920000D03*
%TO.N,/COL3*%
X151139960Y-33320000D03*
%TO.N,unconnected-(U2-3V3-Pad12)*%
X139080040Y-29140000D03*
%TO.N,GND*%
X139220000Y-27940000D03*
%TO.N,unconnected-(U2-5V-Pad14)*%
X139220000Y-25400000D03*
%TO.N,/COL1*%
X151000000Y-26900000D03*
%TO.N,/ROW0*%
X151000000Y-39600000D03*
%TO.N,GND*%
X149476002Y-51031999D03*
%TO.N,/VBAT*%
X151158002Y-48809999D03*
%TO.N,/COL3*%
X85023101Y-47174872D03*
%TO.N,/ROW4*%
X67514000Y-105950000D03*
X84514000Y-105950000D03*
%TO.N,/ROW1*%
X67514000Y-54950000D03*
%TO.N,/ROW0*%
X67514000Y-37950000D03*
%TO.N,/ROW4*%
X118514000Y-105950000D03*
%TO.N,/ROW3*%
X101514000Y-88950000D03*
%TO.N,/COL4*%
X102023101Y-47174872D03*
%TO.N,/COL1*%
X51023101Y-30174872D03*
%TO.N,Net-(D23-A)*%
X102784000Y-88950000D03*
%TO.N,Net-(D11-A)*%
X102784000Y-54950000D03*
%TO.N,Net-(D12-A)*%
X119784000Y-54950000D03*
%TO.N,/ROW3*%
X67514000Y-88950000D03*
X118514000Y-88950000D03*
%TO.N,/COL1*%
X51023101Y-47174872D03*
X51023101Y-98174872D03*
X51023101Y-64174872D03*
%TO.N,Net-(D9-A)*%
X68784000Y-54950000D03*
%TO.N,/ROW3*%
X50514000Y-88950000D03*
X84514000Y-88950000D03*
X33514000Y-88950000D03*
%TO.N,Net-(D20-A)*%
X51784000Y-88950000D03*
%TO.N,/ROW2*%
X118514000Y-71950000D03*
%TO.N,/ROW4*%
X101514000Y-105950000D03*
%TO.N,/ROW2*%
X101514000Y-71950000D03*
%TO.N,Net-(D4-A)*%
X85784000Y-37950000D03*
%TO.N,/COL2*%
X68023101Y-64174872D03*
X68023101Y-30174872D03*
X68023101Y-47174872D03*
%TO.N,/ROW2*%
X33514000Y-71950000D03*
%TO.N,/COL4*%
X102023101Y-98174872D03*
%TO.N,Net-(D30-A)*%
X119784000Y-105950000D03*
%TO.N,/COL4*%
X102023101Y-30174872D03*
%TO.N,Net-(D14-A)*%
X51784000Y-71950000D03*
%TO.N,/COL4*%
X102023101Y-81174872D03*
%TO.N,/ROW2*%
X50514000Y-71950000D03*
%TO.N,Net-(D13-A)*%
X34784000Y-71950000D03*
%TO.N,/COL2*%
X68023101Y-81174872D03*
%TO.N,Net-(D3-A)*%
X68784000Y-37950000D03*
%TO.N,Net-(D6-A)*%
X119784000Y-37950000D03*
%TO.N,Net-(D10-A)*%
X85784000Y-54950000D03*
%TO.N,/COL2*%
X68023101Y-98174872D03*
%TO.N,/COL3*%
X85023101Y-64174872D03*
%TO.N,/COL0*%
X34023101Y-47174872D03*
%TO.N,/COL1*%
X51023101Y-81174872D03*
%TO.N,/COL0*%
X34023101Y-30174872D03*
%TO.N,/ROW4*%
X33514000Y-105950000D03*
%TO.N,/COL5*%
X119023101Y-81174872D03*
X119023101Y-30174872D03*
%TO.N,Net-(D18-A)*%
X119784000Y-71950000D03*
%TO.N,/COL3*%
X85023101Y-98174872D03*
%TO.N,Net-(D22-A)*%
X85784000Y-88950000D03*
%TO.N,/COL0*%
X34023101Y-98174872D03*
%TO.N,Net-(D8-A)*%
X51784000Y-54950000D03*
%TO.N,/ROW2*%
X67514000Y-71950000D03*
%TO.N,Net-(D21-A)*%
X68784000Y-88950000D03*
%TO.N,Net-(D17-A)*%
X102784000Y-71950000D03*
%TO.N,/COL3*%
X85023101Y-30174872D03*
X85023101Y-81174872D03*
%TO.N,/COL5*%
X119023101Y-98174872D03*
%TO.N,Net-(D7-A)*%
X34784000Y-54950000D03*
%TO.N,/COL5*%
X119023101Y-64174872D03*
%TO.N,Net-(D24-A)*%
X119784000Y-88950000D03*
%TO.N,/COL4*%
X102023101Y-64174872D03*
%TO.N,/ROW0*%
X118514000Y-37950000D03*
%TO.N,Net-(D16-A)*%
X85784000Y-71950000D03*
%TO.N,Net-(D15-A)*%
X68784000Y-71950000D03*
%TO.N,/ROW1*%
X33514000Y-54950000D03*
%TO.N,/ROW4*%
X50514000Y-105950000D03*
%TO.N,/COL0*%
X34023101Y-64174872D03*
X34023101Y-81174872D03*
%TO.N,Net-(D19-A)*%
X34784000Y-88950000D03*
%TO.N,/COL5*%
X119023101Y-47174872D03*
%TO.N,Net-(D29-A)*%
X102784000Y-105950000D03*
%TO.N,Net-(D2-A)*%
X51784000Y-37950000D03*
%TO.N,/ROW1*%
X84514000Y-54950000D03*
%TO.N,Net-(D5-A)*%
X102784000Y-37950000D03*
%TO.N,/ROW2*%
X84514000Y-71950000D03*
%TO.N,/ROW1*%
X118514000Y-54950000D03*
X101514000Y-54950000D03*
X50514000Y-54950000D03*
%TO.N,/ROW0*%
X101514000Y-37950000D03*
%TO.N,Net-(D27-A)*%
X68784000Y-105950000D03*
%TO.N,/ROW0*%
X84514000Y-37950000D03*
X33514000Y-37950000D03*
X50514000Y-37950000D03*
%TO.N,Net-(D28-A)*%
X85784000Y-105950000D03*
%TO.N,Net-(D26-A)*%
X51784000Y-105950000D03*
%TO.N,Net-(D25-A)*%
X34784000Y-105950000D03*
%TO.N,Net-(D1-A)*%
X34784000Y-37950000D03*
%TD*%
D18*
%TO.N,/COL3*%
X152859960Y-33320000D02*
X151139960Y-33320000D01*
%TO.N,/COL1*%
X153159960Y-26900000D02*
X151000000Y-26900000D01*
%TO.N,unconnected-(U2-5V-Pad14)*%
X136540040Y-24880000D02*
X137060040Y-25400000D01*
%TO.N,/ROW2*%
X137060040Y-38100000D02*
X139220000Y-38100000D01*
%TO.N,/ROW4*%
X138947960Y-33920000D02*
X137960040Y-33920000D01*
%TO.N,/ROW1*%
X137060040Y-40640000D02*
X139220000Y-40640000D01*
%TO.N,unconnected-(U2-3V3-Pad12)*%
X136540040Y-29960000D02*
X137360040Y-29140000D01*
%TO.N,/COL4*%
X153159960Y-34520000D02*
X151000000Y-34520000D01*
%TO.N,/COL5*%
X153159960Y-37060000D02*
X151000000Y-37060000D01*
%TO.N,/ROW2*%
X136540040Y-37580000D02*
X137060040Y-38100000D01*
%TO.N,/COL4*%
X153679960Y-35040000D02*
X153159960Y-34520000D01*
%TO.N,/ROW3*%
X136540040Y-35040000D02*
X137060040Y-35560000D01*
%TO.N,/COL1*%
X153679960Y-27420000D02*
X153159960Y-26900000D01*
%TO.N,GND*%
X136540040Y-27420000D02*
X137060040Y-27940000D01*
%TO.N,/ROW0*%
X153159960Y-39600000D02*
X151000000Y-39600000D01*
%TO.N,/ROW3*%
X137060040Y-35560000D02*
X139220000Y-35560000D01*
%TO.N,/COL0*%
X153679960Y-24880000D02*
X153159960Y-24360000D01*
%TO.N,unconnected-(U2-5V-Pad14)*%
X137060040Y-25400000D02*
X139220000Y-25400000D01*
%TO.N,/COL0*%
X153159960Y-24360000D02*
X151000000Y-24360000D01*
%TO.N,GND*%
X137060040Y-27940000D02*
X139220000Y-27940000D01*
%TO.N,/COL5*%
X153679960Y-37580000D02*
X153159960Y-37060000D01*
%TO.N,/COL2*%
X151647960Y-28540000D02*
X152259960Y-28540000D01*
X152259960Y-28540000D02*
X153679960Y-29960000D01*
%TO.N,/COL3*%
X153679960Y-32500000D02*
X152859960Y-33320000D01*
%TO.N,/ROW0*%
X153679960Y-40120000D02*
X153159960Y-39600000D01*
%TO.N,unconnected-(U2-3V3-Pad12)*%
X137360040Y-29140000D02*
X139080040Y-29140000D01*
%TO.N,/COL2*%
X151272040Y-28540000D02*
X151647960Y-28540000D01*
%TO.N,/ROW1*%
X136540040Y-40120000D02*
X137060040Y-40640000D01*
%TO.N,/ROW4*%
X137960040Y-33920000D02*
X136540040Y-32500000D01*
%TO.N,GND*%
X148644402Y-51863599D02*
X146203701Y-51863599D01*
X149476002Y-51031999D02*
X148644402Y-51863599D01*
X144999999Y-50659897D02*
X144999999Y-49809999D01*
X146203701Y-51863599D02*
X144999999Y-50659897D01*
%TO.N,/VBAT*%
X151158002Y-48809999D02*
X150158002Y-49809999D01*
X150158002Y-49809999D02*
X147000001Y-49809999D01*
%TO.N,/COL4*%
X100674872Y-30174872D02*
X102023101Y-30174872D01*
X98500000Y-96000000D02*
X100674872Y-98174872D01*
X98500000Y-28000000D02*
X99124000Y-28624000D01*
%TO.N,/COL5*%
X115500000Y-96000000D02*
X117674872Y-98174872D01*
%TO.N,Net-(D17-A)*%
X105389892Y-71950000D02*
X103800000Y-71950000D01*
%TO.N,Net-(D14-A)*%
X59500000Y-66839892D02*
X54389892Y-71950000D01*
X54389892Y-71950000D02*
X52800000Y-71950000D01*
X51784000Y-71950000D02*
X52800000Y-71950000D01*
%TO.N,/COL3*%
X81876000Y-78624000D02*
X81500000Y-79000000D01*
%TO.N,Net-(D19-A)*%
X42500000Y-81200000D02*
X42500000Y-83839892D01*
%TO.N,Net-(D30-A)*%
X122389892Y-105950000D02*
X120800000Y-105950000D01*
%TO.N,/COL5*%
X115500000Y-79000000D02*
X117674872Y-81174872D01*
%TO.N,/COL3*%
X81500000Y-28000000D02*
X83674872Y-30174872D01*
%TO.N,Net-(D4-A)*%
X88389892Y-37950000D02*
X86800000Y-37950000D01*
%TO.N,Net-(D30-A)*%
X119784000Y-105950000D02*
X120800000Y-105950000D01*
%TO.N,/COL0*%
X30500000Y-45000000D02*
X32674872Y-47174872D01*
%TO.N,/COL5*%
X117674872Y-47174872D02*
X119023101Y-47174872D01*
%TO.N,/COL0*%
X30500000Y-28000000D02*
X30876000Y-28376000D01*
X30876000Y-45376000D02*
X30876000Y-61624000D01*
%TO.N,Net-(D21-A)*%
X68784000Y-88950000D02*
X69800000Y-88950000D01*
%TO.N,/ROW2*%
X118514000Y-71950000D02*
X117500000Y-71950000D01*
X33514000Y-71950000D02*
X32500000Y-71950000D01*
X67514000Y-71950000D02*
X66500000Y-71950000D01*
X101514000Y-71950000D02*
X100500000Y-71950000D01*
%TO.N,Net-(D18-A)*%
X119784000Y-71950000D02*
X120800000Y-71950000D01*
%TO.N,/COL0*%
X32674872Y-98174872D02*
X34023101Y-98174872D01*
%TO.N,/COL2*%
X64500000Y-28000000D02*
X64876000Y-28376000D01*
%TO.N,/COL4*%
X98500000Y-45000000D02*
X100674872Y-47174872D01*
%TO.N,/ROW3*%
X118514000Y-88950000D02*
X117500000Y-88950000D01*
X84514000Y-88950000D02*
X83500000Y-88950000D01*
%TO.N,/ROW2*%
X84514000Y-71950000D02*
X83500000Y-71950000D01*
%TO.N,/COL1*%
X47500000Y-45000000D02*
X47876000Y-45376000D01*
%TO.N,Net-(D4-A)*%
X93500000Y-32839892D02*
X88389892Y-37950000D01*
X85784000Y-37950000D02*
X86800000Y-37950000D01*
%TO.N,/COL1*%
X47500000Y-62000000D02*
X49674872Y-64174872D01*
%TO.N,Net-(D10-A)*%
X93500000Y-49839892D02*
X88389892Y-54950000D01*
%TO.N,/COL1*%
X47876000Y-45376000D02*
X47876000Y-61624000D01*
%TO.N,/COL0*%
X30500000Y-62000000D02*
X32674872Y-64174872D01*
%TO.N,/ROW3*%
X101514000Y-88950000D02*
X100500000Y-88950000D01*
%TO.N,/COL2*%
X66674872Y-81174872D02*
X68023101Y-81174872D01*
%TO.N,Net-(D22-A)*%
X88389892Y-88950000D02*
X86800000Y-88950000D01*
%TO.N,Net-(D9-A)*%
X76500000Y-49839892D02*
X71389892Y-54950000D01*
%TO.N,/COL1*%
X47876000Y-95624000D02*
X47500000Y-96000000D01*
%TO.N,/ROW4*%
X33514000Y-105950000D02*
X32500000Y-105950000D01*
%TO.N,Net-(D9-A)*%
X71389892Y-54950000D02*
X69800000Y-54950000D01*
%TO.N,/COL2*%
X64500000Y-62000000D02*
X66674872Y-64174872D01*
%TO.N,/COL1*%
X49674872Y-47174872D02*
X51023101Y-47174872D01*
%TO.N,Net-(D20-A)*%
X51784000Y-88950000D02*
X52800000Y-88950000D01*
X59500000Y-83839892D02*
X54389892Y-88950000D01*
X59500000Y-81200000D02*
X59500000Y-83839892D01*
%TO.N,/COL5*%
X115876000Y-61624000D02*
X115500000Y-62000000D01*
X115500000Y-45000000D02*
X117674872Y-47174872D01*
%TO.N,/COL3*%
X81500000Y-28000000D02*
X81876000Y-28376000D01*
%TO.N,/COL1*%
X47500000Y-79000000D02*
X47876000Y-79376000D01*
X47876000Y-79376000D02*
X47876000Y-95624000D01*
X49674872Y-98174872D02*
X51023101Y-98174872D01*
%TO.N,/COL5*%
X115876000Y-45376000D02*
X115876000Y-61624000D01*
%TO.N,/COL1*%
X47500000Y-96000000D02*
X49674872Y-98174872D01*
%TO.N,Net-(D24-A)*%
X127500000Y-83839892D02*
X122389892Y-88950000D01*
%TO.N,/COL1*%
X47500000Y-45000000D02*
X49674872Y-47174872D01*
%TO.N,Net-(D24-A)*%
X127500000Y-81200000D02*
X127500000Y-83839892D01*
%TO.N,/COL2*%
X64876000Y-79376000D02*
X64500000Y-79000000D01*
%TO.N,Net-(D20-A)*%
X54389892Y-88950000D02*
X52800000Y-88950000D01*
%TO.N,/COL2*%
X66674872Y-30174872D02*
X68023101Y-30174872D01*
%TO.N,/COL4*%
X98876000Y-62376000D02*
X98876000Y-78624000D01*
%TO.N,Net-(D4-A)*%
X93500000Y-30200000D02*
X93500000Y-32839892D01*
%TO.N,Net-(D8-A)*%
X51784000Y-54950000D02*
X52800000Y-54950000D01*
X59500000Y-49839892D02*
X54389892Y-54950000D01*
X54389892Y-54950000D02*
X52800000Y-54950000D01*
%TO.N,/COL3*%
X81876000Y-95624000D02*
X81500000Y-96000000D01*
%TO.N,Net-(D19-A)*%
X37389892Y-88950000D02*
X35800000Y-88950000D01*
%TO.N,/COL0*%
X32674872Y-64174872D02*
X34023101Y-64174872D01*
X30500000Y-62000000D02*
X30876000Y-62376000D01*
X30500000Y-79000000D02*
X32674872Y-81174872D01*
%TO.N,/ROW3*%
X50514000Y-88950000D02*
X49500000Y-88950000D01*
%TO.N,Net-(D2-A)*%
X54389892Y-37950000D02*
X52800000Y-37950000D01*
X59500000Y-32839892D02*
X54389892Y-37950000D01*
%TO.N,/COL4*%
X100674872Y-98174872D02*
X102023101Y-98174872D01*
%TO.N,/COL0*%
X32674872Y-30174872D02*
X34023101Y-30174872D01*
%TO.N,Net-(D26-A)*%
X51784000Y-105950000D02*
X52800000Y-105950000D01*
%TO.N,/COL0*%
X30876000Y-78624000D02*
X30500000Y-79000000D01*
%TO.N,Net-(D1-A)*%
X42500000Y-32839892D02*
X37389892Y-37950000D01*
%TO.N,/COL0*%
X30500000Y-96000000D02*
X32674872Y-98174872D01*
%TO.N,/COL2*%
X64500000Y-79000000D02*
X66674872Y-81174872D01*
%TO.N,/COL1*%
X47876000Y-78624000D02*
X47500000Y-79000000D01*
%TO.N,Net-(D8-A)*%
X59500000Y-47200000D02*
X59500000Y-49839892D01*
%TO.N,Net-(D15-A)*%
X76500000Y-64200000D02*
X76500000Y-66839892D01*
%TO.N,/COL1*%
X47500000Y-28000000D02*
X47876000Y-28376000D01*
%TO.N,Net-(D13-A)*%
X42500000Y-66839892D02*
X37389892Y-71950000D01*
X34784000Y-71950000D02*
X35800000Y-71950000D01*
%TO.N,/COL0*%
X32674872Y-81174872D02*
X34023101Y-81174872D01*
X30876000Y-61624000D02*
X30500000Y-62000000D01*
%TO.N,Net-(D13-A)*%
X42500000Y-64200000D02*
X42500000Y-66839892D01*
%TO.N,/COL4*%
X98500000Y-62000000D02*
X100674872Y-64174872D01*
%TO.N,/COL2*%
X64876000Y-28376000D02*
X64876000Y-61624000D01*
X66674872Y-64174872D02*
X68023101Y-64174872D01*
%TO.N,/COL5*%
X117674872Y-98174872D02*
X119023101Y-98174872D01*
%TO.N,Net-(D10-A)*%
X85784000Y-54950000D02*
X86800000Y-54950000D01*
%TO.N,/COL0*%
X30500000Y-45000000D02*
X30876000Y-45376000D01*
%TO.N,/ROW4*%
X67514000Y-105950000D02*
X66500000Y-105950000D01*
%TO.N,Net-(D6-A)*%
X119784000Y-37950000D02*
X120800000Y-37950000D01*
%TO.N,/COL4*%
X98876000Y-61624000D02*
X98500000Y-62000000D01*
%TO.N,Net-(D6-A)*%
X127500000Y-30200000D02*
X127500000Y-32839892D01*
%TO.N,Net-(D23-A)*%
X105389892Y-88950000D02*
X103800000Y-88950000D01*
%TO.N,Net-(D6-A)*%
X127500000Y-32839892D02*
X122389892Y-37950000D01*
%TO.N,Net-(D22-A)*%
X85784000Y-88950000D02*
X86800000Y-88950000D01*
%TO.N,Net-(D9-A)*%
X76500000Y-47200000D02*
X76500000Y-49839892D01*
%TO.N,/COL3*%
X83674872Y-30174872D02*
X85023101Y-30174872D01*
%TO.N,Net-(D9-A)*%
X68784000Y-54950000D02*
X69800000Y-54950000D01*
%TO.N,Net-(D6-A)*%
X122389892Y-37950000D02*
X120800000Y-37950000D01*
%TO.N,Net-(D18-A)*%
X122389892Y-71950000D02*
X120800000Y-71950000D01*
%TO.N,/COL1*%
X49674872Y-64174872D02*
X51023101Y-64174872D01*
%TO.N,Net-(D16-A)*%
X85784000Y-71950000D02*
X86800000Y-71950000D01*
%TO.N,/COL2*%
X64876000Y-62376000D02*
X64876000Y-78624000D01*
%TO.N,/COL5*%
X117674872Y-81174872D02*
X119023101Y-81174872D01*
%TO.N,Net-(D13-A)*%
X37389892Y-71950000D02*
X35800000Y-71950000D01*
%TO.N,Net-(D3-A)*%
X76500000Y-30200000D02*
X76500000Y-32839892D01*
%TO.N,/COL5*%
X116124000Y-95376000D02*
X115500000Y-96000000D01*
%TO.N,/COL4*%
X100674872Y-81174872D02*
X102023101Y-81174872D01*
%TO.N,Net-(D11-A)*%
X105389892Y-54950000D02*
X103800000Y-54950000D01*
%TO.N,Net-(D27-A)*%
X76500000Y-98200000D02*
X76500000Y-100839892D01*
%TO.N,Net-(D24-A)*%
X119784000Y-88950000D02*
X120800000Y-88950000D01*
%TO.N,Net-(D19-A)*%
X34784000Y-88950000D02*
X35800000Y-88950000D01*
%TO.N,/COL0*%
X30876000Y-44624000D02*
X30500000Y-45000000D01*
%TO.N,Net-(D14-A)*%
X59500000Y-64200000D02*
X59500000Y-66839892D01*
%TO.N,/COL1*%
X47876000Y-62376000D02*
X47876000Y-78624000D01*
%TO.N,Net-(D5-A)*%
X105389892Y-37950000D02*
X103800000Y-37950000D01*
%TO.N,/COL4*%
X99124000Y-79624000D02*
X99124000Y-95376000D01*
%TO.N,Net-(D22-A)*%
X93500000Y-81200000D02*
X93500000Y-83839892D01*
%TO.N,/ROW0*%
X50514000Y-37950000D02*
X49500000Y-37950000D01*
%TO.N,Net-(D23-A)*%
X102784000Y-88950000D02*
X103800000Y-88950000D01*
%TO.N,/COL2*%
X66674872Y-47174872D02*
X68023101Y-47174872D01*
%TO.N,Net-(D23-A)*%
X110500000Y-81200000D02*
X110500000Y-83839892D01*
%TO.N,Net-(D24-A)*%
X122389892Y-88950000D02*
X120800000Y-88950000D01*
%TO.N,Net-(D17-A)*%
X102784000Y-71950000D02*
X103800000Y-71950000D01*
%TO.N,/COL0*%
X32674872Y-47174872D02*
X34023101Y-47174872D01*
%TO.N,/ROW3*%
X33514000Y-88950000D02*
X32500000Y-88950000D01*
%TO.N,/COL2*%
X66674872Y-98174872D02*
X68023101Y-98174872D01*
%TO.N,/COL1*%
X47500000Y-79000000D02*
X49674872Y-81174872D01*
%TO.N,/COL5*%
X115500000Y-62000000D02*
X117674872Y-64174872D01*
%TO.N,Net-(D11-A)*%
X102784000Y-54950000D02*
X103800000Y-54950000D01*
%TO.N,/COL5*%
X115876000Y-28376000D02*
X115876000Y-44624000D01*
X115500000Y-28000000D02*
X115876000Y-28376000D01*
X115500000Y-45000000D02*
X115876000Y-45376000D01*
%TO.N,Net-(D27-A)*%
X68784000Y-105950000D02*
X69800000Y-105950000D01*
%TO.N,Net-(D2-A)*%
X59500000Y-30200000D02*
X59500000Y-32839892D01*
%TO.N,/COL2*%
X64500000Y-62000000D02*
X64876000Y-62376000D01*
%TO.N,/COL3*%
X81500000Y-62000000D02*
X83674872Y-64174872D01*
%TO.N,Net-(D23-A)*%
X110500000Y-83839892D02*
X105389892Y-88950000D01*
%TO.N,/COL3*%
X81876000Y-28376000D02*
X81876000Y-44624000D01*
%TO.N,Net-(D17-A)*%
X110500000Y-64200000D02*
X110500000Y-66839892D01*
%TO.N,/COL2*%
X64876000Y-28376000D02*
X64876000Y-44624000D01*
%TO.N,Net-(D3-A)*%
X76500000Y-32839892D02*
X71389892Y-37950000D01*
%TO.N,Net-(D21-A)*%
X76500000Y-81200000D02*
X76500000Y-83839892D01*
%TO.N,Net-(D10-A)*%
X93500000Y-47200000D02*
X93500000Y-49839892D01*
%TO.N,Net-(D21-A)*%
X76500000Y-83839892D02*
X71389892Y-88950000D01*
%TO.N,Net-(D1-A)*%
X37389892Y-37950000D02*
X35800000Y-37950000D01*
%TO.N,/COL3*%
X81876000Y-44624000D02*
X81500000Y-45000000D01*
%TO.N,Net-(D10-A)*%
X88389892Y-54950000D02*
X86800000Y-54950000D01*
%TO.N,/ROW2*%
X50514000Y-71950000D02*
X49500000Y-71950000D01*
%TO.N,/COL5*%
X115876000Y-62376000D02*
X115876000Y-78624000D01*
%TO.N,Net-(D15-A)*%
X68784000Y-71950000D02*
X69800000Y-71950000D01*
%TO.N,/COL4*%
X100674872Y-64174872D02*
X102023101Y-64174872D01*
%TO.N,/COL1*%
X49674872Y-81174872D02*
X51023101Y-81174872D01*
%TO.N,/COL5*%
X117674872Y-30174872D02*
X119023101Y-30174872D01*
%TO.N,Net-(D21-A)*%
X71389892Y-88950000D02*
X69800000Y-88950000D01*
%TO.N,/COL5*%
X116124000Y-79624000D02*
X116124000Y-95376000D01*
%TO.N,Net-(D1-A)*%
X34784000Y-37950000D02*
X35800000Y-37950000D01*
%TO.N,/COL5*%
X115876000Y-78624000D02*
X115500000Y-79000000D01*
%TO.N,/COL0*%
X30500000Y-28000000D02*
X32674872Y-30174872D01*
%TO.N,/COL1*%
X47500000Y-28000000D02*
X49674872Y-30174872D01*
%TO.N,/COL2*%
X64876000Y-95624000D02*
X64876000Y-79376000D01*
%TO.N,/ROW4*%
X50514000Y-105950000D02*
X49500000Y-105950000D01*
%TO.N,/COL2*%
X64876000Y-78624000D02*
X64500000Y-79000000D01*
%TO.N,/ROW3*%
X67514000Y-88950000D02*
X66500000Y-88950000D01*
%TO.N,/COL2*%
X64500000Y-96000000D02*
X64876000Y-95624000D01*
X64876000Y-61624000D02*
X64500000Y-62000000D01*
%TO.N,Net-(D16-A)*%
X93500000Y-66839892D02*
X88389892Y-71950000D01*
%TO.N,/COL2*%
X64500000Y-28000000D02*
X66674872Y-30174872D01*
%TO.N,Net-(D16-A)*%
X93500000Y-64200000D02*
X93500000Y-66839892D01*
X88389892Y-71950000D02*
X86800000Y-71950000D01*
%TO.N,/COL1*%
X49674872Y-30174872D02*
X51023101Y-30174872D01*
%TO.N,Net-(D3-A)*%
X68784000Y-37950000D02*
X69800000Y-37950000D01*
%TO.N,Net-(D15-A)*%
X71389892Y-71950000D02*
X69800000Y-71950000D01*
%TO.N,/COL5*%
X115876000Y-44624000D02*
X115500000Y-45000000D01*
%TO.N,Net-(D15-A)*%
X76500000Y-66839892D02*
X71389892Y-71950000D01*
%TO.N,Net-(D7-A)*%
X42500000Y-49839892D02*
X37389892Y-54950000D01*
X42500000Y-47200000D02*
X42500000Y-49839892D01*
%TO.N,/ROW4*%
X84514000Y-105950000D02*
X83500000Y-105950000D01*
%TO.N,/ROW1*%
X84514000Y-54950000D02*
X83500000Y-54950000D01*
%TO.N,/ROW4*%
X101514000Y-105950000D02*
X100500000Y-105950000D01*
%TO.N,Net-(D22-A)*%
X93500000Y-83839892D02*
X88389892Y-88950000D01*
%TO.N,/COL0*%
X30876000Y-95624000D02*
X30500000Y-96000000D01*
%TO.N,Net-(D17-A)*%
X110500000Y-66839892D02*
X105389892Y-71950000D01*
%TO.N,/COL5*%
X115500000Y-62000000D02*
X115876000Y-62376000D01*
%TO.N,/COL0*%
X30876000Y-28376000D02*
X30876000Y-44624000D01*
%TO.N,/COL3*%
X81876000Y-62376000D02*
X81876000Y-95624000D01*
%TO.N,Net-(D18-A)*%
X127500000Y-64200000D02*
X127500000Y-66839892D01*
X127500000Y-66839892D02*
X122389892Y-71950000D01*
%TO.N,/COL4*%
X98500000Y-79000000D02*
X100674872Y-81174872D01*
%TO.N,Net-(D1-A)*%
X42500000Y-30200000D02*
X42500000Y-32839892D01*
%TO.N,/COL1*%
X47876000Y-44624000D02*
X47500000Y-45000000D01*
%TO.N,/COL4*%
X98876000Y-45376000D02*
X98876000Y-61624000D01*
%TO.N,/COL3*%
X81876000Y-61624000D02*
X81500000Y-62000000D01*
%TO.N,/ROW4*%
X118514000Y-105950000D02*
X117500000Y-105950000D01*
%TO.N,/COL1*%
X47500000Y-62000000D02*
X47876000Y-62376000D01*
%TO.N,Net-(D7-A)*%
X34784000Y-54950000D02*
X35800000Y-54950000D01*
%TO.N,/COL2*%
X64876000Y-44624000D02*
X64500000Y-45000000D01*
%TO.N,/COL3*%
X83674872Y-98174872D02*
X85023101Y-98174872D01*
%TO.N,/COL4*%
X98500000Y-28000000D02*
X100674872Y-30174872D01*
%TO.N,/COL2*%
X64500000Y-96000000D02*
X66674872Y-98174872D01*
%TO.N,Net-(D7-A)*%
X37389892Y-54950000D02*
X35800000Y-54950000D01*
%TO.N,/COL3*%
X81500000Y-45000000D02*
X83674872Y-47174872D01*
X81876000Y-62376000D02*
X81876000Y-78624000D01*
X83674872Y-47174872D02*
X85023101Y-47174872D01*
%TO.N,/COL4*%
X98876000Y-78624000D02*
X98500000Y-79000000D01*
%TO.N,/COL5*%
X115500000Y-28000000D02*
X117674872Y-30174872D01*
X115500000Y-79000000D02*
X116124000Y-79624000D01*
X117674872Y-64174872D02*
X119023101Y-64174872D01*
%TO.N,/COL4*%
X99124000Y-95376000D02*
X98500000Y-96000000D01*
X98500000Y-62000000D02*
X98876000Y-62376000D01*
X99124000Y-44376000D02*
X98500000Y-45000000D01*
X99124000Y-28624000D02*
X99124000Y-44376000D01*
X98500000Y-79000000D02*
X99124000Y-79624000D01*
X100674872Y-47174872D02*
X102023101Y-47174872D01*
%TO.N,/COL3*%
X81500000Y-96000000D02*
X83674872Y-98174872D01*
X83674872Y-64174872D02*
X85023101Y-64174872D01*
X81876000Y-45376000D02*
X81876000Y-61624000D01*
X81500000Y-45000000D02*
X81876000Y-45376000D01*
X81500000Y-79000000D02*
X83674872Y-81174872D01*
X81500000Y-62000000D02*
X81876000Y-62376000D01*
X83674872Y-81174872D02*
X85023101Y-81174872D01*
%TO.N,Net-(D12-A)*%
X127500000Y-49839892D02*
X122389892Y-54950000D01*
X119784000Y-54950000D02*
X120800000Y-54950000D01*
X122389892Y-54950000D02*
X120800000Y-54950000D01*
X127500000Y-47200000D02*
X127500000Y-49839892D01*
%TO.N,/COL4*%
X98500000Y-45000000D02*
X98876000Y-45376000D01*
%TO.N,Net-(D2-A)*%
X51784000Y-37950000D02*
X52800000Y-37950000D01*
%TO.N,Net-(D3-A)*%
X71389892Y-37950000D02*
X69800000Y-37950000D01*
%TO.N,Net-(D11-A)*%
X110500000Y-49839892D02*
X105389892Y-54950000D01*
X110500000Y-47200000D02*
X110500000Y-49839892D01*
%TO.N,Net-(D5-A)*%
X110500000Y-32839892D02*
X105389892Y-37950000D01*
X102784000Y-37950000D02*
X103800000Y-37950000D01*
X110500000Y-30200000D02*
X110500000Y-32839892D01*
%TO.N,/ROW1*%
X101514000Y-54950000D02*
X100500000Y-54950000D01*
X118514000Y-54950000D02*
X117500000Y-54950000D01*
X67514000Y-54950000D02*
X66500000Y-54950000D01*
X50514000Y-54950000D02*
X49500000Y-54950000D01*
X33514000Y-54950000D02*
X32500000Y-54950000D01*
%TO.N,Net-(D29-A)*%
X102784000Y-105950000D02*
X103800000Y-105950000D01*
%TO.N,/ROW0*%
X84514000Y-37950000D02*
X83500000Y-37950000D01*
X67514000Y-37950000D02*
X66500000Y-37950000D01*
X118514000Y-37950000D02*
X117500000Y-37950000D01*
X33514000Y-37950000D02*
X32500000Y-37950000D01*
X101514000Y-37950000D02*
X100500000Y-37950000D01*
%TO.N,Net-(D27-A)*%
X76500000Y-100839892D02*
X71389892Y-105950000D01*
%TO.N,/COL0*%
X30876000Y-62376000D02*
X30876000Y-78624000D01*
%TO.N,Net-(D30-A)*%
X127500000Y-98200000D02*
X127500000Y-100839892D01*
X127500000Y-100839892D02*
X122389892Y-105950000D01*
%TO.N,Net-(D29-A)*%
X105389892Y-105950000D02*
X103800000Y-105950000D01*
X110500000Y-98200000D02*
X110500000Y-100839892D01*
X110500000Y-100839892D02*
X105389892Y-105950000D01*
%TO.N,Net-(D28-A)*%
X88389892Y-105950000D02*
X86800000Y-105950000D01*
X93500000Y-98200000D02*
X93500000Y-100839892D01*
X93500000Y-100839892D02*
X88389892Y-105950000D01*
X85784000Y-105950000D02*
X86800000Y-105950000D01*
%TO.N,Net-(D27-A)*%
X71389892Y-105950000D02*
X69800000Y-105950000D01*
%TO.N,Net-(D26-A)*%
X59500000Y-100839892D02*
X54389892Y-105950000D01*
X59500000Y-98200000D02*
X59500000Y-100839892D01*
X54389892Y-105950000D02*
X52800000Y-105950000D01*
%TO.N,Net-(D25-A)*%
X34784000Y-105950000D02*
X35800000Y-105950000D01*
X42500000Y-98200000D02*
X42500000Y-100839892D01*
X42500000Y-100839892D02*
X37389892Y-105950000D01*
X37389892Y-105950000D02*
X35800000Y-105950000D01*
%TO.N,/COL0*%
X30876000Y-62376000D02*
X30876000Y-95624000D01*
%TO.N,/COL1*%
X47876000Y-61624000D02*
X47500000Y-62000000D01*
X47876000Y-28376000D02*
X47876000Y-44624000D01*
%TO.N,Net-(D19-A)*%
X42500000Y-83839892D02*
X37389892Y-88950000D01*
%TO.N,/COL2*%
X64500000Y-45000000D02*
X66674872Y-47174872D01*
%TD*%
M02*
