%TF.GenerationSoftware,KiCad,Pcbnew,9.0.7*%
%TF.CreationDate,2026-01-23T21:58:33-06:00*%
%TF.ProjectId,LillyKey,4c696c6c-794b-4657-992e-6b696361645f,rev?*%
%TF.SameCoordinates,Original*%
%TF.FileFunction,Legend,Top*%
%TF.FilePolarity,Positive*%
%FSLAX46Y46*%
G04 Gerber Fmt 4.6, Leading zero omitted, Abs format (unit mm)*
G04 Created by KiCad (PCBNEW 9.0.7) date 2026-01-23 21:58:33*
%MOMM*%
%LPD*%
G01*
G04 APERTURE LIST*
%ADD10C,0.048492*%
%ADD11C,0.594825*%
%ADD12C,0.100000*%
%ADD13C,0.120000*%
%ADD14C,0.152400*%
G04 APERTURE END LIST*
D10*
D11*
X140738909Y-83093592D02*
X140635393Y-104626966D01*
D10*
X151362650Y-83616190D02*
X147815328Y-83616190D01*
X147815328Y-85422697D01*
X147366438Y-85422697D01*
X147366438Y-83123503D01*
X151362650Y-83123503D01*
X151362650Y-83616190D01*
G36*
X151362650Y-83616190D02*
G01*
X147815328Y-83616190D01*
X147815328Y-85422697D01*
X147366438Y-85422697D01*
X147366438Y-83123503D01*
X151362650Y-83123503D01*
X151362650Y-83616190D01*
G37*
X147815328Y-87229200D02*
X149928396Y-87229200D01*
X149928396Y-86271208D01*
X150377283Y-86271208D01*
X150377283Y-87721887D01*
X147815328Y-87721887D01*
X147815328Y-88734625D01*
X147366438Y-88734625D01*
X147366438Y-86161722D01*
X147815328Y-86161722D01*
X147815328Y-87229200D01*
G36*
X147815328Y-87229200D02*
G01*
X149928396Y-87229200D01*
X149928396Y-86271208D01*
X150377283Y-86271208D01*
X150377283Y-87721887D01*
X147815328Y-87721887D01*
X147815328Y-88734625D01*
X147366438Y-88734625D01*
X147366438Y-86161722D01*
X147815328Y-86161722D01*
X147815328Y-87229200D01*
G37*
X149309805Y-102595468D02*
X149373956Y-102596516D01*
X149436397Y-102599660D01*
X149497127Y-102604899D01*
X149556146Y-102612234D01*
X149613455Y-102621664D01*
X149669053Y-102633191D01*
X149722940Y-102646812D01*
X149775116Y-102662530D01*
X149825582Y-102680343D01*
X149874337Y-102700251D01*
X149921382Y-102722256D01*
X149966716Y-102746355D01*
X150010339Y-102772551D01*
X150052252Y-102800842D01*
X150092454Y-102831228D01*
X150130945Y-102863710D01*
X150167406Y-102897967D01*
X150201514Y-102933678D01*
X150233269Y-102970843D01*
X150262673Y-103009463D01*
X150289723Y-103049536D01*
X150314422Y-103091064D01*
X150336768Y-103134046D01*
X150356762Y-103178481D01*
X150374403Y-103224371D01*
X150389693Y-103271715D01*
X150402630Y-103320513D01*
X150413214Y-103370765D01*
X150421447Y-103422471D01*
X150427327Y-103475631D01*
X150430855Y-103530245D01*
X150432032Y-103586313D01*
X150431369Y-103628269D01*
X150429380Y-103669283D01*
X150426066Y-103709357D01*
X150421426Y-103748490D01*
X150415460Y-103786681D01*
X150408168Y-103823932D01*
X150399551Y-103860242D01*
X150389607Y-103895611D01*
X150378338Y-103930039D01*
X150365743Y-103963526D01*
X150351823Y-103996072D01*
X150336576Y-104027677D01*
X150320004Y-104058341D01*
X150302105Y-104088065D01*
X150282881Y-104116848D01*
X150262331Y-104144689D01*
X150240647Y-104172040D01*
X150218023Y-104197978D01*
X150194458Y-104222506D01*
X150169953Y-104245622D01*
X150144506Y-104267327D01*
X150118118Y-104287620D01*
X150090790Y-104306502D01*
X150062521Y-104323973D01*
X150033311Y-104340032D01*
X150003160Y-104354680D01*
X149972068Y-104367916D01*
X149940035Y-104379741D01*
X149907060Y-104390155D01*
X149873145Y-104399157D01*
X149838289Y-104406748D01*
X149802492Y-104412927D01*
X149802492Y-104418371D01*
X150486776Y-104407419D01*
X151362661Y-104407419D01*
X151362661Y-104900102D01*
X147366445Y-104900102D01*
X147366445Y-104407419D01*
X147941244Y-104407419D01*
X147941244Y-104401975D01*
X147904784Y-104396480D01*
X147869307Y-104389573D01*
X147834814Y-104381254D01*
X147801306Y-104371525D01*
X147768780Y-104360384D01*
X147737239Y-104347832D01*
X147706681Y-104333868D01*
X147677108Y-104318493D01*
X147648518Y-104301707D01*
X147620911Y-104283509D01*
X147594289Y-104263900D01*
X147568650Y-104242880D01*
X147543995Y-104220449D01*
X147520323Y-104196606D01*
X147497635Y-104171351D01*
X147475931Y-104144686D01*
X147456044Y-104116844D01*
X147437440Y-104088061D01*
X147420119Y-104058338D01*
X147404081Y-104027673D01*
X147389326Y-103996068D01*
X147375854Y-103963522D01*
X147363665Y-103930035D01*
X147352759Y-103895607D01*
X147343136Y-103860239D01*
X147334796Y-103823929D01*
X147327739Y-103786679D01*
X147322276Y-103750543D01*
X147738687Y-103750543D01*
X147739436Y-103788350D01*
X147741681Y-103825130D01*
X147745423Y-103860884D01*
X147750662Y-103895611D01*
X147757398Y-103929312D01*
X147765631Y-103961986D01*
X147775361Y-103993634D01*
X147786587Y-104024256D01*
X147799311Y-104053851D01*
X147813531Y-104082419D01*
X147829248Y-104109962D01*
X147846462Y-104136478D01*
X147865173Y-104161968D01*
X147885381Y-104186431D01*
X147907086Y-104209868D01*
X147930288Y-104232279D01*
X147954816Y-104253491D01*
X147980498Y-104273335D01*
X148007335Y-104291811D01*
X148035327Y-104308918D01*
X148064474Y-104324656D01*
X148094775Y-104339026D01*
X148126230Y-104352027D01*
X148158841Y-104363660D01*
X148192606Y-104373924D01*
X148227526Y-104382819D01*
X148263601Y-104390346D01*
X148300830Y-104396505D01*
X148339214Y-104401295D01*
X148378753Y-104404716D01*
X148419446Y-104406769D01*
X148461294Y-104407453D01*
X149282431Y-104407453D01*
X149324279Y-104406769D01*
X149364972Y-104404716D01*
X149404511Y-104401295D01*
X149442895Y-104396505D01*
X149480124Y-104390346D01*
X149516198Y-104382819D01*
X149551118Y-104373924D01*
X149584884Y-104363660D01*
X149617494Y-104352027D01*
X149648950Y-104339026D01*
X149679251Y-104324656D01*
X149708398Y-104308918D01*
X149736389Y-104291811D01*
X149763226Y-104273335D01*
X149788909Y-104253491D01*
X149813436Y-104232279D01*
X149836638Y-104209868D01*
X149858343Y-104186431D01*
X149878551Y-104161968D01*
X149897262Y-104136478D01*
X149914476Y-104109962D01*
X149930194Y-104082419D01*
X149944414Y-104053851D01*
X149957137Y-104024256D01*
X149968364Y-103993634D01*
X149978094Y-103961986D01*
X149986326Y-103929312D01*
X149993062Y-103895611D01*
X149998301Y-103860884D01*
X150002043Y-103825130D01*
X150004289Y-103788350D01*
X150005037Y-103750543D01*
X150004396Y-103712074D01*
X150002471Y-103674673D01*
X149999264Y-103638342D01*
X149994773Y-103603080D01*
X149989000Y-103568887D01*
X149981943Y-103535763D01*
X149973604Y-103503709D01*
X149963981Y-103472723D01*
X149953075Y-103442807D01*
X149940887Y-103413960D01*
X149927415Y-103386182D01*
X149912660Y-103359474D01*
X149896622Y-103333834D01*
X149879302Y-103309264D01*
X149860698Y-103285762D01*
X149840811Y-103263330D01*
X149820133Y-103242118D01*
X149797787Y-103222274D01*
X149773773Y-103203798D01*
X149748091Y-103186691D01*
X149720741Y-103170953D01*
X149691723Y-103156583D01*
X149661037Y-103143582D01*
X149628683Y-103131949D01*
X149594661Y-103121685D01*
X149558971Y-103112789D01*
X149521613Y-103105262D01*
X149482588Y-103099104D01*
X149441894Y-103094314D01*
X149399532Y-103090893D01*
X149355502Y-103088840D01*
X149309805Y-103088156D01*
X148433920Y-103088156D01*
X148388864Y-103088840D01*
X148345392Y-103090893D01*
X148303501Y-103094314D01*
X148263193Y-103099104D01*
X148224467Y-103105262D01*
X148187323Y-103112789D01*
X148151761Y-103121685D01*
X148117782Y-103131949D01*
X148085386Y-103143582D01*
X148054571Y-103156583D01*
X148025339Y-103170953D01*
X147997690Y-103186691D01*
X147971622Y-103203798D01*
X147947137Y-103222274D01*
X147924234Y-103242118D01*
X147902914Y-103263330D01*
X147883027Y-103285762D01*
X147864423Y-103309264D01*
X147847102Y-103333834D01*
X147831064Y-103359474D01*
X147816310Y-103386182D01*
X147802838Y-103413960D01*
X147790649Y-103442807D01*
X147779744Y-103472723D01*
X147770121Y-103503709D01*
X147761781Y-103535763D01*
X147754725Y-103568887D01*
X147748951Y-103603080D01*
X147744461Y-103638342D01*
X147741253Y-103674673D01*
X147739329Y-103712074D01*
X147738687Y-103750543D01*
X147322276Y-103750543D01*
X147321965Y-103748487D01*
X147317475Y-103709355D01*
X147314267Y-103669282D01*
X147312342Y-103628268D01*
X147311701Y-103586313D01*
X147311697Y-103586313D01*
X147312873Y-103530887D01*
X147316401Y-103476829D01*
X147322282Y-103424140D01*
X147330515Y-103372819D01*
X147341100Y-103322866D01*
X147354037Y-103274282D01*
X147369326Y-103227066D01*
X147386968Y-103181219D01*
X147406962Y-103136741D01*
X147429308Y-103093631D01*
X147454007Y-103051889D01*
X147481057Y-103011516D01*
X147510461Y-102972512D01*
X147542216Y-102934876D01*
X147576323Y-102898609D01*
X147612783Y-102863710D01*
X147651253Y-102831228D01*
X147691391Y-102800842D01*
X147733197Y-102772551D01*
X147776671Y-102746355D01*
X147821812Y-102722256D01*
X147868622Y-102700251D01*
X147917099Y-102680343D01*
X147967244Y-102662530D01*
X148019057Y-102646812D01*
X148072538Y-102633191D01*
X148127687Y-102621664D01*
X148184504Y-102612234D01*
X148242988Y-102604899D01*
X148303141Y-102599660D01*
X148364961Y-102596516D01*
X148428450Y-102595468D01*
X149309805Y-102595468D01*
G36*
X149309805Y-102595468D02*
G01*
X149373956Y-102596516D01*
X149436397Y-102599660D01*
X149497127Y-102604899D01*
X149556146Y-102612234D01*
X149613455Y-102621664D01*
X149669053Y-102633191D01*
X149722940Y-102646812D01*
X149775116Y-102662530D01*
X149825582Y-102680343D01*
X149874337Y-102700251D01*
X149921382Y-102722256D01*
X149966716Y-102746355D01*
X150010339Y-102772551D01*
X150052252Y-102800842D01*
X150092454Y-102831228D01*
X150130945Y-102863710D01*
X150167406Y-102897967D01*
X150201514Y-102933678D01*
X150233269Y-102970843D01*
X150262673Y-103009463D01*
X150289723Y-103049536D01*
X150314422Y-103091064D01*
X150336768Y-103134046D01*
X150356762Y-103178481D01*
X150374403Y-103224371D01*
X150389693Y-103271715D01*
X150402630Y-103320513D01*
X150413214Y-103370765D01*
X150421447Y-103422471D01*
X150427327Y-103475631D01*
X150430855Y-103530245D01*
X150432032Y-103586313D01*
X150431369Y-103628269D01*
X150429380Y-103669283D01*
X150426066Y-103709357D01*
X150421426Y-103748490D01*
X150415460Y-103786681D01*
X150408168Y-103823932D01*
X150399551Y-103860242D01*
X150389607Y-103895611D01*
X150378338Y-103930039D01*
X150365743Y-103963526D01*
X150351823Y-103996072D01*
X150336576Y-104027677D01*
X150320004Y-104058341D01*
X150302105Y-104088065D01*
X150282881Y-104116848D01*
X150262331Y-104144689D01*
X150240647Y-104172040D01*
X150218023Y-104197978D01*
X150194458Y-104222506D01*
X150169953Y-104245622D01*
X150144506Y-104267327D01*
X150118118Y-104287620D01*
X150090790Y-104306502D01*
X150062521Y-104323973D01*
X150033311Y-104340032D01*
X150003160Y-104354680D01*
X149972068Y-104367916D01*
X149940035Y-104379741D01*
X149907060Y-104390155D01*
X149873145Y-104399157D01*
X149838289Y-104406748D01*
X149802492Y-104412927D01*
X149802492Y-104418371D01*
X150486776Y-104407419D01*
X151362661Y-104407419D01*
X151362661Y-104900102D01*
X147366445Y-104900102D01*
X147366445Y-104407419D01*
X147941244Y-104407419D01*
X147941244Y-104401975D01*
X147904784Y-104396480D01*
X147869307Y-104389573D01*
X147834814Y-104381254D01*
X147801306Y-104371525D01*
X147768780Y-104360384D01*
X147737239Y-104347832D01*
X147706681Y-104333868D01*
X147677108Y-104318493D01*
X147648518Y-104301707D01*
X147620911Y-104283509D01*
X147594289Y-104263900D01*
X147568650Y-104242880D01*
X147543995Y-104220449D01*
X147520323Y-104196606D01*
X147497635Y-104171351D01*
X147475931Y-104144686D01*
X147456044Y-104116844D01*
X147437440Y-104088061D01*
X147420119Y-104058338D01*
X147404081Y-104027673D01*
X147389326Y-103996068D01*
X147375854Y-103963522D01*
X147363665Y-103930035D01*
X147352759Y-103895607D01*
X147343136Y-103860239D01*
X147334796Y-103823929D01*
X147327739Y-103786679D01*
X147322276Y-103750543D01*
X147738687Y-103750543D01*
X147739436Y-103788350D01*
X147741681Y-103825130D01*
X147745423Y-103860884D01*
X147750662Y-103895611D01*
X147757398Y-103929312D01*
X147765631Y-103961986D01*
X147775361Y-103993634D01*
X147786587Y-104024256D01*
X147799311Y-104053851D01*
X147813531Y-104082419D01*
X147829248Y-104109962D01*
X147846462Y-104136478D01*
X147865173Y-104161968D01*
X147885381Y-104186431D01*
X147907086Y-104209868D01*
X147930288Y-104232279D01*
X147954816Y-104253491D01*
X147980498Y-104273335D01*
X148007335Y-104291811D01*
X148035327Y-104308918D01*
X148064474Y-104324656D01*
X148094775Y-104339026D01*
X148126230Y-104352027D01*
X148158841Y-104363660D01*
X148192606Y-104373924D01*
X148227526Y-104382819D01*
X148263601Y-104390346D01*
X148300830Y-104396505D01*
X148339214Y-104401295D01*
X148378753Y-104404716D01*
X148419446Y-104406769D01*
X148461294Y-104407453D01*
X149282431Y-104407453D01*
X149324279Y-104406769D01*
X149364972Y-104404716D01*
X149404511Y-104401295D01*
X149442895Y-104396505D01*
X149480124Y-104390346D01*
X149516198Y-104382819D01*
X149551118Y-104373924D01*
X149584884Y-104363660D01*
X149617494Y-104352027D01*
X149648950Y-104339026D01*
X149679251Y-104324656D01*
X149708398Y-104308918D01*
X149736389Y-104291811D01*
X149763226Y-104273335D01*
X149788909Y-104253491D01*
X149813436Y-104232279D01*
X149836638Y-104209868D01*
X149858343Y-104186431D01*
X149878551Y-104161968D01*
X149897262Y-104136478D01*
X149914476Y-104109962D01*
X149930194Y-104082419D01*
X149944414Y-104053851D01*
X149957137Y-104024256D01*
X149968364Y-103993634D01*
X149978094Y-103961986D01*
X149986326Y-103929312D01*
X149993062Y-103895611D01*
X149998301Y-103860884D01*
X150002043Y-103825130D01*
X150004289Y-103788350D01*
X150005037Y-103750543D01*
X150004396Y-103712074D01*
X150002471Y-103674673D01*
X149999264Y-103638342D01*
X149994773Y-103603080D01*
X149989000Y-103568887D01*
X149981943Y-103535763D01*
X149973604Y-103503709D01*
X149963981Y-103472723D01*
X149953075Y-103442807D01*
X149940887Y-103413960D01*
X149927415Y-103386182D01*
X149912660Y-103359474D01*
X149896622Y-103333834D01*
X149879302Y-103309264D01*
X149860698Y-103285762D01*
X149840811Y-103263330D01*
X149820133Y-103242118D01*
X149797787Y-103222274D01*
X149773773Y-103203798D01*
X149748091Y-103186691D01*
X149720741Y-103170953D01*
X149691723Y-103156583D01*
X149661037Y-103143582D01*
X149628683Y-103131949D01*
X149594661Y-103121685D01*
X149558971Y-103112789D01*
X149521613Y-103105262D01*
X149482588Y-103099104D01*
X149441894Y-103094314D01*
X149399532Y-103090893D01*
X149355502Y-103088840D01*
X149309805Y-103088156D01*
X148433920Y-103088156D01*
X148388864Y-103088840D01*
X148345392Y-103090893D01*
X148303501Y-103094314D01*
X148263193Y-103099104D01*
X148224467Y-103105262D01*
X148187323Y-103112789D01*
X148151761Y-103121685D01*
X148117782Y-103131949D01*
X148085386Y-103143582D01*
X148054571Y-103156583D01*
X148025339Y-103170953D01*
X147997690Y-103186691D01*
X147971622Y-103203798D01*
X147947137Y-103222274D01*
X147924234Y-103242118D01*
X147902914Y-103263330D01*
X147883027Y-103285762D01*
X147864423Y-103309264D01*
X147847102Y-103333834D01*
X147831064Y-103359474D01*
X147816310Y-103386182D01*
X147802838Y-103413960D01*
X147790649Y-103442807D01*
X147779744Y-103472723D01*
X147770121Y-103503709D01*
X147761781Y-103535763D01*
X147754725Y-103568887D01*
X147748951Y-103603080D01*
X147744461Y-103638342D01*
X147741253Y-103674673D01*
X147739329Y-103712074D01*
X147738687Y-103750543D01*
X147322276Y-103750543D01*
X147321965Y-103748487D01*
X147317475Y-103709355D01*
X147314267Y-103669282D01*
X147312342Y-103628268D01*
X147311701Y-103586313D01*
X147311697Y-103586313D01*
X147312873Y-103530887D01*
X147316401Y-103476829D01*
X147322282Y-103424140D01*
X147330515Y-103372819D01*
X147341100Y-103322866D01*
X147354037Y-103274282D01*
X147369326Y-103227066D01*
X147386968Y-103181219D01*
X147406962Y-103136741D01*
X147429308Y-103093631D01*
X147454007Y-103051889D01*
X147481057Y-103011516D01*
X147510461Y-102972512D01*
X147542216Y-102934876D01*
X147576323Y-102898609D01*
X147612783Y-102863710D01*
X147651253Y-102831228D01*
X147691391Y-102800842D01*
X147733197Y-102772551D01*
X147776671Y-102746355D01*
X147821812Y-102722256D01*
X147868622Y-102700251D01*
X147917099Y-102680343D01*
X147967244Y-102662530D01*
X148019057Y-102646812D01*
X148072538Y-102633191D01*
X148127687Y-102621664D01*
X148184504Y-102612234D01*
X148242988Y-102604899D01*
X148303141Y-102599660D01*
X148364961Y-102596516D01*
X148428450Y-102595468D01*
X149309805Y-102595468D01*
G37*
X148269705Y-99201659D02*
X148287888Y-99201917D01*
X148321953Y-99203393D01*
X148355461Y-99205852D01*
X148388414Y-99209295D01*
X148420811Y-99213722D01*
X148452651Y-99219132D01*
X148483936Y-99225526D01*
X148514664Y-99232904D01*
X148544836Y-99241266D01*
X148574453Y-99250611D01*
X148603513Y-99260939D01*
X148632017Y-99272252D01*
X148659965Y-99284548D01*
X148687357Y-99297827D01*
X148714193Y-99312090D01*
X148740473Y-99327337D01*
X148766112Y-99343460D01*
X148791023Y-99360354D01*
X148815208Y-99378017D01*
X148838666Y-99396449D01*
X148861397Y-99415652D01*
X148883400Y-99435625D01*
X148904677Y-99456367D01*
X148925227Y-99477879D01*
X148945050Y-99500161D01*
X148964146Y-99523213D01*
X148982515Y-99547034D01*
X149000157Y-99571626D01*
X149017072Y-99596987D01*
X149033260Y-99623118D01*
X149048721Y-99650019D01*
X149063455Y-99677690D01*
X149078040Y-99706003D01*
X149091683Y-99734829D01*
X149104385Y-99764167D01*
X149116146Y-99794019D01*
X149126967Y-99824385D01*
X149136846Y-99855263D01*
X149145784Y-99886655D01*
X149153782Y-99918559D01*
X149160838Y-99950977D01*
X149166954Y-99983908D01*
X149172129Y-100017352D01*
X149176363Y-100051310D01*
X149179655Y-100085780D01*
X149182008Y-100120764D01*
X149183419Y-100156260D01*
X149183889Y-100192270D01*
X149183889Y-101122896D01*
X149419283Y-101122896D01*
X149455320Y-101122271D01*
X149490213Y-101120394D01*
X149523962Y-101117267D01*
X149556566Y-101112888D01*
X149588027Y-101107259D01*
X149618344Y-101100379D01*
X149647517Y-101092248D01*
X149675546Y-101082866D01*
X149702431Y-101072233D01*
X149728172Y-101060349D01*
X149752768Y-101047214D01*
X149776221Y-101032828D01*
X149798530Y-101017191D01*
X149819695Y-101000303D01*
X149839715Y-100982165D01*
X149858592Y-100962775D01*
X149876325Y-100942134D01*
X149892913Y-100920243D01*
X149908358Y-100897100D01*
X149922658Y-100872707D01*
X149935815Y-100847062D01*
X149947827Y-100820167D01*
X149958696Y-100792020D01*
X149968420Y-100762623D01*
X149977000Y-100731974D01*
X149984437Y-100700075D01*
X149990729Y-100666925D01*
X149995877Y-100632523D01*
X149999881Y-100596871D01*
X150002741Y-100559968D01*
X150004458Y-100521814D01*
X150005030Y-100482408D01*
X150004623Y-100447253D01*
X150003404Y-100412954D01*
X150001373Y-100379509D01*
X149998529Y-100346920D01*
X149994873Y-100315187D01*
X149990404Y-100284308D01*
X149985122Y-100254285D01*
X149979028Y-100225117D01*
X149972121Y-100196805D01*
X149964402Y-100169348D01*
X149955870Y-100142747D01*
X149946526Y-100117000D01*
X149936369Y-100092109D01*
X149925399Y-100068074D01*
X149913617Y-100044894D01*
X149901022Y-100022569D01*
X149887699Y-100001314D01*
X149873735Y-99981342D01*
X149859130Y-99962652D01*
X149843883Y-99945246D01*
X149827994Y-99929123D01*
X149811465Y-99914282D01*
X149794293Y-99900725D01*
X149776481Y-99888451D01*
X149758026Y-99877460D01*
X149748559Y-99872445D01*
X149738931Y-99867752D01*
X149729142Y-99863379D01*
X149719193Y-99859326D01*
X149698814Y-99852184D01*
X149677794Y-99846325D01*
X149656132Y-99841749D01*
X149633829Y-99838456D01*
X149610884Y-99836447D01*
X149610884Y-99343759D01*
X149654871Y-99348250D01*
X149697874Y-99354878D01*
X149739894Y-99363646D01*
X149780930Y-99374551D01*
X149820982Y-99387595D01*
X149860051Y-99402777D01*
X149898136Y-99420098D01*
X149935237Y-99439557D01*
X149971355Y-99461155D01*
X150006489Y-99484891D01*
X150040639Y-99510765D01*
X150073806Y-99538778D01*
X150105988Y-99568929D01*
X150137187Y-99601218D01*
X150167403Y-99635646D01*
X150196634Y-99672212D01*
X150225138Y-99711302D01*
X150251803Y-99751931D01*
X150276630Y-99794100D01*
X150299617Y-99837808D01*
X150320766Y-99883057D01*
X150340075Y-99929844D01*
X150357546Y-99978171D01*
X150373178Y-100028038D01*
X150386971Y-100079445D01*
X150398924Y-100132391D01*
X150409039Y-100186877D01*
X150417315Y-100242902D01*
X150423752Y-100300467D01*
X150428350Y-100359572D01*
X150431108Y-100420217D01*
X150432028Y-100482401D01*
X150431001Y-100549824D01*
X150427922Y-100615237D01*
X150422790Y-100678641D01*
X150415605Y-100740034D01*
X150406368Y-100799417D01*
X150395077Y-100856790D01*
X150381734Y-100912152D01*
X150366338Y-100965505D01*
X150348889Y-101016847D01*
X150329387Y-101066180D01*
X150307832Y-101113502D01*
X150284224Y-101158815D01*
X150258563Y-101202117D01*
X150230850Y-101243409D01*
X150201083Y-101282691D01*
X150169264Y-101319963D01*
X150135606Y-101355760D01*
X150100323Y-101389247D01*
X150063415Y-101420425D01*
X150024881Y-101449293D01*
X149984723Y-101475852D01*
X149942939Y-101500101D01*
X149899530Y-101522040D01*
X149854496Y-101541671D01*
X149807836Y-101558991D01*
X149759552Y-101574003D01*
X149709642Y-101586704D01*
X149658107Y-101597097D01*
X149604946Y-101605180D01*
X149550160Y-101610953D01*
X149493749Y-101614417D01*
X149435713Y-101615572D01*
X147366445Y-101615572D01*
X147366445Y-101128362D01*
X147913870Y-101128362D01*
X147913870Y-101117410D01*
X147879420Y-101111188D01*
X147845869Y-101103468D01*
X147813215Y-101094251D01*
X147781460Y-101083538D01*
X147750603Y-101071328D01*
X147720644Y-101057621D01*
X147691584Y-101042417D01*
X147663421Y-101025716D01*
X147636157Y-101007518D01*
X147609790Y-100987824D01*
X147584322Y-100966632D01*
X147559752Y-100943944D01*
X147536080Y-100919759D01*
X147513306Y-100894076D01*
X147491431Y-100866897D01*
X147470453Y-100838220D01*
X147451229Y-100808197D01*
X147433246Y-100776977D01*
X147416502Y-100744559D01*
X147400999Y-100710944D01*
X147386736Y-100676131D01*
X147373713Y-100640121D01*
X147361931Y-100602913D01*
X147351389Y-100564508D01*
X147342087Y-100524906D01*
X147334025Y-100484105D01*
X147327204Y-100442107D01*
X147321623Y-100398912D01*
X147317282Y-100354519D01*
X147315927Y-100334600D01*
X147727743Y-100334600D01*
X147728427Y-100379185D01*
X147730480Y-100422615D01*
X147733902Y-100464891D01*
X147738691Y-100506012D01*
X147744850Y-100545978D01*
X147752377Y-100584790D01*
X147761273Y-100622447D01*
X147771537Y-100658950D01*
X147783169Y-100694297D01*
X147796171Y-100728491D01*
X147810540Y-100761529D01*
X147826279Y-100793412D01*
X147843386Y-100824141D01*
X147861861Y-100853715D01*
X147881705Y-100882135D01*
X147902918Y-100909399D01*
X147925307Y-100935252D01*
X147948680Y-100959437D01*
X147973036Y-100981954D01*
X147998377Y-101002803D01*
X148024700Y-101021985D01*
X148052008Y-101039498D01*
X148080299Y-101055344D01*
X148109573Y-101069521D01*
X148139832Y-101082031D01*
X148171073Y-101092873D01*
X148203299Y-101102046D01*
X148236508Y-101109552D01*
X148270701Y-101115390D01*
X148305878Y-101119560D01*
X148342039Y-101122062D01*
X148379183Y-101122896D01*
X148800703Y-101122896D01*
X148800703Y-100247015D01*
X148800126Y-100217248D01*
X148798394Y-100188166D01*
X148795507Y-100159768D01*
X148791465Y-100132055D01*
X148786269Y-100105025D01*
X148779918Y-100078680D01*
X148772413Y-100053020D01*
X148763753Y-100028044D01*
X148753938Y-100003752D01*
X148742968Y-99980144D01*
X148730844Y-99957221D01*
X148717565Y-99934982D01*
X148703132Y-99913427D01*
X148687543Y-99892557D01*
X148670800Y-99872371D01*
X148652902Y-99852869D01*
X148634725Y-99834970D01*
X148615778Y-99818226D01*
X148596061Y-99802636D01*
X148575575Y-99788202D01*
X148554319Y-99774922D01*
X148532294Y-99762797D01*
X148509499Y-99751827D01*
X148485934Y-99742012D01*
X148461600Y-99733351D01*
X148436495Y-99725846D01*
X148410621Y-99719495D01*
X148383978Y-99714298D01*
X148356564Y-99710257D01*
X148328381Y-99707370D01*
X148299428Y-99705638D01*
X148269705Y-99705061D01*
X148238634Y-99705702D01*
X148208376Y-99707627D01*
X148178930Y-99710835D01*
X148150297Y-99715325D01*
X148122477Y-99721099D01*
X148095469Y-99728156D01*
X148069273Y-99736496D01*
X148043890Y-99746118D01*
X148019320Y-99757024D01*
X147995562Y-99769213D01*
X147972617Y-99782685D01*
X147950485Y-99797439D01*
X147929165Y-99813477D01*
X147908658Y-99830797D01*
X147888963Y-99849401D01*
X147870081Y-99869287D01*
X147852845Y-99890992D01*
X147836721Y-99913681D01*
X147821709Y-99937353D01*
X147807809Y-99962008D01*
X147795021Y-99987647D01*
X147783345Y-100014270D01*
X147772782Y-100041877D01*
X147763330Y-100070467D01*
X147754990Y-100100041D01*
X147747762Y-100130598D01*
X147741646Y-100162139D01*
X147736643Y-100194664D01*
X147732751Y-100228172D01*
X147729971Y-100262665D01*
X147728303Y-100298141D01*
X147727747Y-100334600D01*
X147727743Y-100334600D01*
X147315927Y-100334600D01*
X147314181Y-100308929D01*
X147312321Y-100262141D01*
X147311701Y-100214155D01*
X147311697Y-100214166D01*
X147312702Y-100156750D01*
X147315717Y-100100831D01*
X147320742Y-100046409D01*
X147327777Y-99993484D01*
X147336822Y-99942055D01*
X147347877Y-99892124D01*
X147360942Y-99843689D01*
X147376017Y-99796751D01*
X147393102Y-99751311D01*
X147412198Y-99707367D01*
X147433303Y-99664920D01*
X147456419Y-99623969D01*
X147481544Y-99584516D01*
X147508680Y-99546560D01*
X147537827Y-99510100D01*
X147568983Y-99475138D01*
X147602449Y-99441993D01*
X147637155Y-99410987D01*
X147673102Y-99382119D01*
X147710288Y-99355390D01*
X147748715Y-99330798D01*
X147788382Y-99308345D01*
X147829289Y-99288031D01*
X147871437Y-99269854D01*
X147914825Y-99253816D01*
X147959453Y-99239917D01*
X148005321Y-99228156D01*
X148052430Y-99218533D01*
X148100779Y-99211048D01*
X148150368Y-99205702D01*
X148201197Y-99202495D01*
X148253267Y-99201425D01*
X148269705Y-99201659D01*
G36*
X148269705Y-99201659D02*
G01*
X148287888Y-99201917D01*
X148321953Y-99203393D01*
X148355461Y-99205852D01*
X148388414Y-99209295D01*
X148420811Y-99213722D01*
X148452651Y-99219132D01*
X148483936Y-99225526D01*
X148514664Y-99232904D01*
X148544836Y-99241266D01*
X148574453Y-99250611D01*
X148603513Y-99260939D01*
X148632017Y-99272252D01*
X148659965Y-99284548D01*
X148687357Y-99297827D01*
X148714193Y-99312090D01*
X148740473Y-99327337D01*
X148766112Y-99343460D01*
X148791023Y-99360354D01*
X148815208Y-99378017D01*
X148838666Y-99396449D01*
X148861397Y-99415652D01*
X148883400Y-99435625D01*
X148904677Y-99456367D01*
X148925227Y-99477879D01*
X148945050Y-99500161D01*
X148964146Y-99523213D01*
X148982515Y-99547034D01*
X149000157Y-99571626D01*
X149017072Y-99596987D01*
X149033260Y-99623118D01*
X149048721Y-99650019D01*
X149063455Y-99677690D01*
X149078040Y-99706003D01*
X149091683Y-99734829D01*
X149104385Y-99764167D01*
X149116146Y-99794019D01*
X149126967Y-99824385D01*
X149136846Y-99855263D01*
X149145784Y-99886655D01*
X149153782Y-99918559D01*
X149160838Y-99950977D01*
X149166954Y-99983908D01*
X149172129Y-100017352D01*
X149176363Y-100051310D01*
X149179655Y-100085780D01*
X149182008Y-100120764D01*
X149183419Y-100156260D01*
X149183889Y-100192270D01*
X149183889Y-101122896D01*
X149419283Y-101122896D01*
X149455320Y-101122271D01*
X149490213Y-101120394D01*
X149523962Y-101117267D01*
X149556566Y-101112888D01*
X149588027Y-101107259D01*
X149618344Y-101100379D01*
X149647517Y-101092248D01*
X149675546Y-101082866D01*
X149702431Y-101072233D01*
X149728172Y-101060349D01*
X149752768Y-101047214D01*
X149776221Y-101032828D01*
X149798530Y-101017191D01*
X149819695Y-101000303D01*
X149839715Y-100982165D01*
X149858592Y-100962775D01*
X149876325Y-100942134D01*
X149892913Y-100920243D01*
X149908358Y-100897100D01*
X149922658Y-100872707D01*
X149935815Y-100847062D01*
X149947827Y-100820167D01*
X149958696Y-100792020D01*
X149968420Y-100762623D01*
X149977000Y-100731974D01*
X149984437Y-100700075D01*
X149990729Y-100666925D01*
X149995877Y-100632523D01*
X149999881Y-100596871D01*
X150002741Y-100559968D01*
X150004458Y-100521814D01*
X150005030Y-100482408D01*
X150004623Y-100447253D01*
X150003404Y-100412954D01*
X150001373Y-100379509D01*
X149998529Y-100346920D01*
X149994873Y-100315187D01*
X149990404Y-100284308D01*
X149985122Y-100254285D01*
X149979028Y-100225117D01*
X149972121Y-100196805D01*
X149964402Y-100169348D01*
X149955870Y-100142747D01*
X149946526Y-100117000D01*
X149936369Y-100092109D01*
X149925399Y-100068074D01*
X149913617Y-100044894D01*
X149901022Y-100022569D01*
X149887699Y-100001314D01*
X149873735Y-99981342D01*
X149859130Y-99962652D01*
X149843883Y-99945246D01*
X149827994Y-99929123D01*
X149811465Y-99914282D01*
X149794293Y-99900725D01*
X149776481Y-99888451D01*
X149758026Y-99877460D01*
X149748559Y-99872445D01*
X149738931Y-99867752D01*
X149729142Y-99863379D01*
X149719193Y-99859326D01*
X149698814Y-99852184D01*
X149677794Y-99846325D01*
X149656132Y-99841749D01*
X149633829Y-99838456D01*
X149610884Y-99836447D01*
X149610884Y-99343759D01*
X149654871Y-99348250D01*
X149697874Y-99354878D01*
X149739894Y-99363646D01*
X149780930Y-99374551D01*
X149820982Y-99387595D01*
X149860051Y-99402777D01*
X149898136Y-99420098D01*
X149935237Y-99439557D01*
X149971355Y-99461155D01*
X150006489Y-99484891D01*
X150040639Y-99510765D01*
X150073806Y-99538778D01*
X150105988Y-99568929D01*
X150137187Y-99601218D01*
X150167403Y-99635646D01*
X150196634Y-99672212D01*
X150225138Y-99711302D01*
X150251803Y-99751931D01*
X150276630Y-99794100D01*
X150299617Y-99837808D01*
X150320766Y-99883057D01*
X150340075Y-99929844D01*
X150357546Y-99978171D01*
X150373178Y-100028038D01*
X150386971Y-100079445D01*
X150398924Y-100132391D01*
X150409039Y-100186877D01*
X150417315Y-100242902D01*
X150423752Y-100300467D01*
X150428350Y-100359572D01*
X150431108Y-100420217D01*
X150432028Y-100482401D01*
X150431001Y-100549824D01*
X150427922Y-100615237D01*
X150422790Y-100678641D01*
X150415605Y-100740034D01*
X150406368Y-100799417D01*
X150395077Y-100856790D01*
X150381734Y-100912152D01*
X150366338Y-100965505D01*
X150348889Y-101016847D01*
X150329387Y-101066180D01*
X150307832Y-101113502D01*
X150284224Y-101158815D01*
X150258563Y-101202117D01*
X150230850Y-101243409D01*
X150201083Y-101282691D01*
X150169264Y-101319963D01*
X150135606Y-101355760D01*
X150100323Y-101389247D01*
X150063415Y-101420425D01*
X150024881Y-101449293D01*
X149984723Y-101475852D01*
X149942939Y-101500101D01*
X149899530Y-101522040D01*
X149854496Y-101541671D01*
X149807836Y-101558991D01*
X149759552Y-101574003D01*
X149709642Y-101586704D01*
X149658107Y-101597097D01*
X149604946Y-101605180D01*
X149550160Y-101610953D01*
X149493749Y-101614417D01*
X149435713Y-101615572D01*
X147366445Y-101615572D01*
X147366445Y-101128362D01*
X147913870Y-101128362D01*
X147913870Y-101117410D01*
X147879420Y-101111188D01*
X147845869Y-101103468D01*
X147813215Y-101094251D01*
X147781460Y-101083538D01*
X147750603Y-101071328D01*
X147720644Y-101057621D01*
X147691584Y-101042417D01*
X147663421Y-101025716D01*
X147636157Y-101007518D01*
X147609790Y-100987824D01*
X147584322Y-100966632D01*
X147559752Y-100943944D01*
X147536080Y-100919759D01*
X147513306Y-100894076D01*
X147491431Y-100866897D01*
X147470453Y-100838220D01*
X147451229Y-100808197D01*
X147433246Y-100776977D01*
X147416502Y-100744559D01*
X147400999Y-100710944D01*
X147386736Y-100676131D01*
X147373713Y-100640121D01*
X147361931Y-100602913D01*
X147351389Y-100564508D01*
X147342087Y-100524906D01*
X147334025Y-100484105D01*
X147327204Y-100442107D01*
X147321623Y-100398912D01*
X147317282Y-100354519D01*
X147315927Y-100334600D01*
X147727743Y-100334600D01*
X147728427Y-100379185D01*
X147730480Y-100422615D01*
X147733902Y-100464891D01*
X147738691Y-100506012D01*
X147744850Y-100545978D01*
X147752377Y-100584790D01*
X147761273Y-100622447D01*
X147771537Y-100658950D01*
X147783169Y-100694297D01*
X147796171Y-100728491D01*
X147810540Y-100761529D01*
X147826279Y-100793412D01*
X147843386Y-100824141D01*
X147861861Y-100853715D01*
X147881705Y-100882135D01*
X147902918Y-100909399D01*
X147925307Y-100935252D01*
X147948680Y-100959437D01*
X147973036Y-100981954D01*
X147998377Y-101002803D01*
X148024700Y-101021985D01*
X148052008Y-101039498D01*
X148080299Y-101055344D01*
X148109573Y-101069521D01*
X148139832Y-101082031D01*
X148171073Y-101092873D01*
X148203299Y-101102046D01*
X148236508Y-101109552D01*
X148270701Y-101115390D01*
X148305878Y-101119560D01*
X148342039Y-101122062D01*
X148379183Y-101122896D01*
X148800703Y-101122896D01*
X148800703Y-100247015D01*
X148800126Y-100217248D01*
X148798394Y-100188166D01*
X148795507Y-100159768D01*
X148791465Y-100132055D01*
X148786269Y-100105025D01*
X148779918Y-100078680D01*
X148772413Y-100053020D01*
X148763753Y-100028044D01*
X148753938Y-100003752D01*
X148742968Y-99980144D01*
X148730844Y-99957221D01*
X148717565Y-99934982D01*
X148703132Y-99913427D01*
X148687543Y-99892557D01*
X148670800Y-99872371D01*
X148652902Y-99852869D01*
X148634725Y-99834970D01*
X148615778Y-99818226D01*
X148596061Y-99802636D01*
X148575575Y-99788202D01*
X148554319Y-99774922D01*
X148532294Y-99762797D01*
X148509499Y-99751827D01*
X148485934Y-99742012D01*
X148461600Y-99733351D01*
X148436495Y-99725846D01*
X148410621Y-99719495D01*
X148383978Y-99714298D01*
X148356564Y-99710257D01*
X148328381Y-99707370D01*
X148299428Y-99705638D01*
X148269705Y-99705061D01*
X148238634Y-99705702D01*
X148208376Y-99707627D01*
X148178930Y-99710835D01*
X148150297Y-99715325D01*
X148122477Y-99721099D01*
X148095469Y-99728156D01*
X148069273Y-99736496D01*
X148043890Y-99746118D01*
X148019320Y-99757024D01*
X147995562Y-99769213D01*
X147972617Y-99782685D01*
X147950485Y-99797439D01*
X147929165Y-99813477D01*
X147908658Y-99830797D01*
X147888963Y-99849401D01*
X147870081Y-99869287D01*
X147852845Y-99890992D01*
X147836721Y-99913681D01*
X147821709Y-99937353D01*
X147807809Y-99962008D01*
X147795021Y-99987647D01*
X147783345Y-100014270D01*
X147772782Y-100041877D01*
X147763330Y-100070467D01*
X147754990Y-100100041D01*
X147747762Y-100130598D01*
X147741646Y-100162139D01*
X147736643Y-100194664D01*
X147732751Y-100228172D01*
X147729971Y-100262665D01*
X147728303Y-100298141D01*
X147727747Y-100334600D01*
X147727743Y-100334600D01*
X147315927Y-100334600D01*
X147314181Y-100308929D01*
X147312321Y-100262141D01*
X147311701Y-100214155D01*
X147311697Y-100214166D01*
X147312702Y-100156750D01*
X147315717Y-100100831D01*
X147320742Y-100046409D01*
X147327777Y-99993484D01*
X147336822Y-99942055D01*
X147347877Y-99892124D01*
X147360942Y-99843689D01*
X147376017Y-99796751D01*
X147393102Y-99751311D01*
X147412198Y-99707367D01*
X147433303Y-99664920D01*
X147456419Y-99623969D01*
X147481544Y-99584516D01*
X147508680Y-99546560D01*
X147537827Y-99510100D01*
X147568983Y-99475138D01*
X147602449Y-99441993D01*
X147637155Y-99410987D01*
X147673102Y-99382119D01*
X147710288Y-99355390D01*
X147748715Y-99330798D01*
X147788382Y-99308345D01*
X147829289Y-99288031D01*
X147871437Y-99269854D01*
X147914825Y-99253816D01*
X147959453Y-99239917D01*
X148005321Y-99228156D01*
X148052430Y-99218533D01*
X148100779Y-99211048D01*
X148150368Y-99205702D01*
X148201197Y-99202495D01*
X148253267Y-99201425D01*
X148269705Y-99201659D01*
G37*
X143808176Y-89484640D02*
X145888391Y-89484640D01*
X145888391Y-89977320D01*
X145012514Y-89977320D01*
X144328230Y-89966379D01*
X144328230Y-89971819D01*
X144364027Y-89977978D01*
X144398883Y-89985505D01*
X144432799Y-89994401D01*
X144465773Y-90004665D01*
X144497806Y-90016298D01*
X144528898Y-90029299D01*
X144559050Y-90043669D01*
X144588260Y-90059407D01*
X144616529Y-90076514D01*
X144643858Y-90094989D01*
X144670245Y-90114833D01*
X144695692Y-90136046D01*
X144720197Y-90158627D01*
X144743762Y-90182577D01*
X144766386Y-90207896D01*
X144788069Y-90234583D01*
X144808619Y-90263088D01*
X144827843Y-90292491D01*
X144845742Y-90322792D01*
X144862314Y-90353991D01*
X144877561Y-90386088D01*
X144891482Y-90419084D01*
X144904078Y-90452977D01*
X144915347Y-90487769D01*
X144925291Y-90523459D01*
X144933908Y-90560046D01*
X144941200Y-90597532D01*
X144947167Y-90635916D01*
X144951807Y-90675198D01*
X144955121Y-90715379D01*
X144957110Y-90756457D01*
X144957773Y-90798433D01*
X144956597Y-90854502D01*
X144953069Y-90909116D01*
X144947188Y-90962276D01*
X144938955Y-91013983D01*
X144928370Y-91064235D01*
X144915433Y-91113033D01*
X144900144Y-91160376D01*
X144882502Y-91206266D01*
X144862508Y-91250702D01*
X144840162Y-91293683D01*
X144815463Y-91335211D01*
X144788413Y-91375284D01*
X144759009Y-91413903D01*
X144727254Y-91451068D01*
X144693147Y-91486779D01*
X144656687Y-91521036D01*
X144618195Y-91553518D01*
X144577992Y-91583904D01*
X144536079Y-91612195D01*
X144492455Y-91638390D01*
X144447121Y-91662490D01*
X144400076Y-91684494D01*
X144351321Y-91704402D01*
X144300855Y-91722215D01*
X144248678Y-91737932D01*
X144194791Y-91751553D01*
X144139193Y-91763079D01*
X144081884Y-91772509D01*
X144022865Y-91779844D01*
X143962135Y-91785083D01*
X143899694Y-91788226D01*
X143835543Y-91789274D01*
X142954191Y-91789274D01*
X142890702Y-91788226D01*
X142828881Y-91785083D01*
X142768728Y-91779844D01*
X142710243Y-91772509D01*
X142653426Y-91763079D01*
X142598277Y-91751553D01*
X142544795Y-91737932D01*
X142492982Y-91722215D01*
X142442836Y-91704402D01*
X142394359Y-91684494D01*
X142347549Y-91662490D01*
X142302407Y-91638390D01*
X142258933Y-91612195D01*
X142217126Y-91583904D01*
X142176988Y-91553518D01*
X142138517Y-91521036D01*
X142102058Y-91486779D01*
X142067951Y-91451068D01*
X142036196Y-91413903D01*
X142006793Y-91375284D01*
X141979742Y-91335211D01*
X141955044Y-91293683D01*
X141932698Y-91250702D01*
X141912703Y-91206266D01*
X141895061Y-91160376D01*
X141879772Y-91113033D01*
X141866834Y-91064235D01*
X141856249Y-91013983D01*
X141848016Y-90962276D01*
X141842135Y-90909116D01*
X141838607Y-90854502D01*
X141837431Y-90798433D01*
X141837431Y-90798425D01*
X141838072Y-90756471D01*
X141839997Y-90715457D01*
X141843205Y-90675383D01*
X141847696Y-90636251D01*
X141848006Y-90634199D01*
X142264425Y-90634199D01*
X142264433Y-90634199D01*
X142265074Y-90672669D01*
X142266999Y-90710069D01*
X142270206Y-90746400D01*
X142274697Y-90781663D01*
X142280470Y-90815855D01*
X142287527Y-90848979D01*
X142295866Y-90881033D01*
X142305488Y-90912019D01*
X142316394Y-90941935D01*
X142328582Y-90970781D01*
X142342054Y-90998559D01*
X142356808Y-91025267D01*
X142372845Y-91050906D01*
X142390166Y-91075476D01*
X142408769Y-91098977D01*
X142428656Y-91121408D01*
X142449976Y-91142622D01*
X142472879Y-91162466D01*
X142497364Y-91180942D01*
X142523431Y-91198049D01*
X142551081Y-91213788D01*
X142580313Y-91228158D01*
X142611127Y-91241160D01*
X142643524Y-91252793D01*
X142677503Y-91263057D01*
X142713064Y-91271953D01*
X142750208Y-91279480D01*
X142788934Y-91285638D01*
X142829242Y-91290428D01*
X142871133Y-91293850D01*
X142914606Y-91295903D01*
X142959661Y-91296587D01*
X143835550Y-91296587D01*
X143881248Y-91295903D01*
X143925278Y-91293850D01*
X143967639Y-91290428D01*
X144008333Y-91285638D01*
X144047359Y-91279480D01*
X144084717Y-91271953D01*
X144120407Y-91263057D01*
X144154428Y-91252793D01*
X144186782Y-91241160D01*
X144217468Y-91228158D01*
X144246486Y-91213788D01*
X144273836Y-91198049D01*
X144299518Y-91180942D01*
X144323532Y-91162466D01*
X144345878Y-91142622D01*
X144366556Y-91121408D01*
X144386442Y-91098977D01*
X144405046Y-91075476D01*
X144422366Y-91050906D01*
X144438404Y-91025267D01*
X144453159Y-90998559D01*
X144466630Y-90970781D01*
X144478819Y-90941935D01*
X144489725Y-90912019D01*
X144499348Y-90881033D01*
X144507688Y-90848979D01*
X144514744Y-90815855D01*
X144520518Y-90781663D01*
X144525009Y-90746400D01*
X144528216Y-90710069D01*
X144530141Y-90672669D01*
X144530783Y-90634199D01*
X144530034Y-90597034D01*
X144527789Y-90560810D01*
X144524046Y-90525527D01*
X144518807Y-90491184D01*
X144512071Y-90457783D01*
X144503838Y-90425322D01*
X144494108Y-90393802D01*
X144482881Y-90363223D01*
X144470158Y-90333585D01*
X144455937Y-90304888D01*
X144440220Y-90277132D01*
X144423006Y-90250316D01*
X144404295Y-90224442D01*
X144384087Y-90199508D01*
X144362383Y-90175516D01*
X144339182Y-90152464D01*
X144314654Y-90131251D01*
X144288972Y-90111407D01*
X144262135Y-90092932D01*
X144234143Y-90075825D01*
X144204996Y-90060086D01*
X144174695Y-90045717D01*
X144143239Y-90032715D01*
X144110629Y-90021083D01*
X144076864Y-90010819D01*
X144041944Y-90001923D01*
X144005869Y-89994396D01*
X143968640Y-89988237D01*
X143930256Y-89983447D01*
X143890717Y-89980026D01*
X143850024Y-89977973D01*
X143808176Y-89977289D01*
X142987028Y-89977289D01*
X142945181Y-89977973D01*
X142904488Y-89980026D01*
X142864950Y-89983447D01*
X142826566Y-89988237D01*
X142789337Y-89994396D01*
X142753263Y-90001923D01*
X142718343Y-90010819D01*
X142684578Y-90021083D01*
X142651967Y-90032715D01*
X142620511Y-90045717D01*
X142590210Y-90060086D01*
X142561063Y-90075825D01*
X142533071Y-90092932D01*
X142506233Y-90111407D01*
X142480550Y-90131251D01*
X142456022Y-90152464D01*
X142432821Y-90175516D01*
X142411117Y-90199508D01*
X142390909Y-90224442D01*
X142372198Y-90250316D01*
X142354985Y-90277132D01*
X142339268Y-90304888D01*
X142325048Y-90333585D01*
X142312324Y-90363223D01*
X142301098Y-90393802D01*
X142291368Y-90425322D01*
X142283136Y-90457783D01*
X142276400Y-90491184D01*
X142271161Y-90525527D01*
X142267419Y-90560810D01*
X142265174Y-90597034D01*
X142264425Y-90634199D01*
X141848006Y-90634199D01*
X141853470Y-90598060D01*
X141860527Y-90560809D01*
X141868867Y-90524500D01*
X141878490Y-90489131D01*
X141889396Y-90454703D01*
X141901586Y-90421217D01*
X141915058Y-90388671D01*
X141929813Y-90357065D01*
X141945850Y-90326401D01*
X141963171Y-90296677D01*
X141981775Y-90267895D01*
X142001661Y-90240053D01*
X142023366Y-90213387D01*
X142046054Y-90188133D01*
X142069726Y-90164290D01*
X142094382Y-90141858D01*
X142120021Y-90120838D01*
X142146643Y-90101229D01*
X142174250Y-90083032D01*
X142202840Y-90066245D01*
X142232414Y-90050870D01*
X142262971Y-90036907D01*
X142294513Y-90024355D01*
X142327038Y-90013214D01*
X142360547Y-90003484D01*
X142395040Y-89995166D01*
X142430517Y-89988259D01*
X142466978Y-89982763D01*
X142466978Y-89977320D01*
X141892179Y-89977320D01*
X141892179Y-89484640D01*
X143808176Y-89484640D01*
G36*
X143808176Y-89484640D02*
G01*
X145888391Y-89484640D01*
X145888391Y-89977320D01*
X145012514Y-89977320D01*
X144328230Y-89966379D01*
X144328230Y-89971819D01*
X144364027Y-89977978D01*
X144398883Y-89985505D01*
X144432799Y-89994401D01*
X144465773Y-90004665D01*
X144497806Y-90016298D01*
X144528898Y-90029299D01*
X144559050Y-90043669D01*
X144588260Y-90059407D01*
X144616529Y-90076514D01*
X144643858Y-90094989D01*
X144670245Y-90114833D01*
X144695692Y-90136046D01*
X144720197Y-90158627D01*
X144743762Y-90182577D01*
X144766386Y-90207896D01*
X144788069Y-90234583D01*
X144808619Y-90263088D01*
X144827843Y-90292491D01*
X144845742Y-90322792D01*
X144862314Y-90353991D01*
X144877561Y-90386088D01*
X144891482Y-90419084D01*
X144904078Y-90452977D01*
X144915347Y-90487769D01*
X144925291Y-90523459D01*
X144933908Y-90560046D01*
X144941200Y-90597532D01*
X144947167Y-90635916D01*
X144951807Y-90675198D01*
X144955121Y-90715379D01*
X144957110Y-90756457D01*
X144957773Y-90798433D01*
X144956597Y-90854502D01*
X144953069Y-90909116D01*
X144947188Y-90962276D01*
X144938955Y-91013983D01*
X144928370Y-91064235D01*
X144915433Y-91113033D01*
X144900144Y-91160376D01*
X144882502Y-91206266D01*
X144862508Y-91250702D01*
X144840162Y-91293683D01*
X144815463Y-91335211D01*
X144788413Y-91375284D01*
X144759009Y-91413903D01*
X144727254Y-91451068D01*
X144693147Y-91486779D01*
X144656687Y-91521036D01*
X144618195Y-91553518D01*
X144577992Y-91583904D01*
X144536079Y-91612195D01*
X144492455Y-91638390D01*
X144447121Y-91662490D01*
X144400076Y-91684494D01*
X144351321Y-91704402D01*
X144300855Y-91722215D01*
X144248678Y-91737932D01*
X144194791Y-91751553D01*
X144139193Y-91763079D01*
X144081884Y-91772509D01*
X144022865Y-91779844D01*
X143962135Y-91785083D01*
X143899694Y-91788226D01*
X143835543Y-91789274D01*
X142954191Y-91789274D01*
X142890702Y-91788226D01*
X142828881Y-91785083D01*
X142768728Y-91779844D01*
X142710243Y-91772509D01*
X142653426Y-91763079D01*
X142598277Y-91751553D01*
X142544795Y-91737932D01*
X142492982Y-91722215D01*
X142442836Y-91704402D01*
X142394359Y-91684494D01*
X142347549Y-91662490D01*
X142302407Y-91638390D01*
X142258933Y-91612195D01*
X142217126Y-91583904D01*
X142176988Y-91553518D01*
X142138517Y-91521036D01*
X142102058Y-91486779D01*
X142067951Y-91451068D01*
X142036196Y-91413903D01*
X142006793Y-91375284D01*
X141979742Y-91335211D01*
X141955044Y-91293683D01*
X141932698Y-91250702D01*
X141912703Y-91206266D01*
X141895061Y-91160376D01*
X141879772Y-91113033D01*
X141866834Y-91064235D01*
X141856249Y-91013983D01*
X141848016Y-90962276D01*
X141842135Y-90909116D01*
X141838607Y-90854502D01*
X141837431Y-90798433D01*
X141837431Y-90798425D01*
X141838072Y-90756471D01*
X141839997Y-90715457D01*
X141843205Y-90675383D01*
X141847696Y-90636251D01*
X141848006Y-90634199D01*
X142264425Y-90634199D01*
X142264433Y-90634199D01*
X142265074Y-90672669D01*
X142266999Y-90710069D01*
X142270206Y-90746400D01*
X142274697Y-90781663D01*
X142280470Y-90815855D01*
X142287527Y-90848979D01*
X142295866Y-90881033D01*
X142305488Y-90912019D01*
X142316394Y-90941935D01*
X142328582Y-90970781D01*
X142342054Y-90998559D01*
X142356808Y-91025267D01*
X142372845Y-91050906D01*
X142390166Y-91075476D01*
X142408769Y-91098977D01*
X142428656Y-91121408D01*
X142449976Y-91142622D01*
X142472879Y-91162466D01*
X142497364Y-91180942D01*
X142523431Y-91198049D01*
X142551081Y-91213788D01*
X142580313Y-91228158D01*
X142611127Y-91241160D01*
X142643524Y-91252793D01*
X142677503Y-91263057D01*
X142713064Y-91271953D01*
X142750208Y-91279480D01*
X142788934Y-91285638D01*
X142829242Y-91290428D01*
X142871133Y-91293850D01*
X142914606Y-91295903D01*
X142959661Y-91296587D01*
X143835550Y-91296587D01*
X143881248Y-91295903D01*
X143925278Y-91293850D01*
X143967639Y-91290428D01*
X144008333Y-91285638D01*
X144047359Y-91279480D01*
X144084717Y-91271953D01*
X144120407Y-91263057D01*
X144154428Y-91252793D01*
X144186782Y-91241160D01*
X144217468Y-91228158D01*
X144246486Y-91213788D01*
X144273836Y-91198049D01*
X144299518Y-91180942D01*
X144323532Y-91162466D01*
X144345878Y-91142622D01*
X144366556Y-91121408D01*
X144386442Y-91098977D01*
X144405046Y-91075476D01*
X144422366Y-91050906D01*
X144438404Y-91025267D01*
X144453159Y-90998559D01*
X144466630Y-90970781D01*
X144478819Y-90941935D01*
X144489725Y-90912019D01*
X144499348Y-90881033D01*
X144507688Y-90848979D01*
X144514744Y-90815855D01*
X144520518Y-90781663D01*
X144525009Y-90746400D01*
X144528216Y-90710069D01*
X144530141Y-90672669D01*
X144530783Y-90634199D01*
X144530034Y-90597034D01*
X144527789Y-90560810D01*
X144524046Y-90525527D01*
X144518807Y-90491184D01*
X144512071Y-90457783D01*
X144503838Y-90425322D01*
X144494108Y-90393802D01*
X144482881Y-90363223D01*
X144470158Y-90333585D01*
X144455937Y-90304888D01*
X144440220Y-90277132D01*
X144423006Y-90250316D01*
X144404295Y-90224442D01*
X144384087Y-90199508D01*
X144362383Y-90175516D01*
X144339182Y-90152464D01*
X144314654Y-90131251D01*
X144288972Y-90111407D01*
X144262135Y-90092932D01*
X144234143Y-90075825D01*
X144204996Y-90060086D01*
X144174695Y-90045717D01*
X144143239Y-90032715D01*
X144110629Y-90021083D01*
X144076864Y-90010819D01*
X144041944Y-90001923D01*
X144005869Y-89994396D01*
X143968640Y-89988237D01*
X143930256Y-89983447D01*
X143890717Y-89980026D01*
X143850024Y-89977973D01*
X143808176Y-89977289D01*
X142987028Y-89977289D01*
X142945181Y-89977973D01*
X142904488Y-89980026D01*
X142864950Y-89983447D01*
X142826566Y-89988237D01*
X142789337Y-89994396D01*
X142753263Y-90001923D01*
X142718343Y-90010819D01*
X142684578Y-90021083D01*
X142651967Y-90032715D01*
X142620511Y-90045717D01*
X142590210Y-90060086D01*
X142561063Y-90075825D01*
X142533071Y-90092932D01*
X142506233Y-90111407D01*
X142480550Y-90131251D01*
X142456022Y-90152464D01*
X142432821Y-90175516D01*
X142411117Y-90199508D01*
X142390909Y-90224442D01*
X142372198Y-90250316D01*
X142354985Y-90277132D01*
X142339268Y-90304888D01*
X142325048Y-90333585D01*
X142312324Y-90363223D01*
X142301098Y-90393802D01*
X142291368Y-90425322D01*
X142283136Y-90457783D01*
X142276400Y-90491184D01*
X142271161Y-90525527D01*
X142267419Y-90560810D01*
X142265174Y-90597034D01*
X142264425Y-90634199D01*
X141848006Y-90634199D01*
X141853470Y-90598060D01*
X141860527Y-90560809D01*
X141868867Y-90524500D01*
X141878490Y-90489131D01*
X141889396Y-90454703D01*
X141901586Y-90421217D01*
X141915058Y-90388671D01*
X141929813Y-90357065D01*
X141945850Y-90326401D01*
X141963171Y-90296677D01*
X141981775Y-90267895D01*
X142001661Y-90240053D01*
X142023366Y-90213387D01*
X142046054Y-90188133D01*
X142069726Y-90164290D01*
X142094382Y-90141858D01*
X142120021Y-90120838D01*
X142146643Y-90101229D01*
X142174250Y-90083032D01*
X142202840Y-90066245D01*
X142232414Y-90050870D01*
X142262971Y-90036907D01*
X142294513Y-90024355D01*
X142327038Y-90013214D01*
X142360547Y-90003484D01*
X142395040Y-89995166D01*
X142430517Y-89988259D01*
X142466978Y-89982763D01*
X142466978Y-89977320D01*
X141892179Y-89977320D01*
X141892179Y-89484640D01*
X143808176Y-89484640D01*
G37*
X151362650Y-90677992D02*
X148214945Y-90677992D01*
X148191978Y-90678398D01*
X148169611Y-90679617D01*
X148147842Y-90681648D01*
X148126671Y-90684493D01*
X148106100Y-90688149D01*
X148086127Y-90692619D01*
X148066753Y-90697901D01*
X148047978Y-90703995D01*
X148029802Y-90710902D01*
X148012224Y-90718622D01*
X147995245Y-90727154D01*
X147978865Y-90736499D01*
X147963084Y-90746656D01*
X147947901Y-90757626D01*
X147933317Y-90769408D01*
X147919332Y-90782003D01*
X147906737Y-90795282D01*
X147894954Y-90809118D01*
X147883984Y-90823509D01*
X147873826Y-90838456D01*
X147864481Y-90853959D01*
X147855949Y-90870019D01*
X147848230Y-90886634D01*
X147841323Y-90903805D01*
X147835228Y-90921532D01*
X147829947Y-90939815D01*
X147825478Y-90958655D01*
X147821821Y-90978050D01*
X147818977Y-90998001D01*
X147816946Y-91018508D01*
X147815727Y-91039571D01*
X147815321Y-91061189D01*
X147815321Y-91991815D01*
X147366434Y-91991815D01*
X147366438Y-91061189D01*
X147367336Y-91011857D01*
X147370030Y-90963764D01*
X147374521Y-90916912D01*
X147380808Y-90871301D01*
X147388891Y-90826929D01*
X147398771Y-90783798D01*
X147410446Y-90741907D01*
X147423918Y-90701256D01*
X147439186Y-90661846D01*
X147456251Y-90623676D01*
X147475111Y-90586746D01*
X147495768Y-90551056D01*
X147518221Y-90516607D01*
X147542470Y-90483398D01*
X147568516Y-90451430D01*
X147596357Y-90420702D01*
X147626359Y-90392197D01*
X147657515Y-90365531D01*
X147689826Y-90340705D01*
X147723292Y-90317717D01*
X147757913Y-90296568D01*
X147793688Y-90277259D01*
X147830618Y-90259788D01*
X147868703Y-90244157D01*
X147907942Y-90230364D01*
X147948336Y-90218410D01*
X147989885Y-90208296D01*
X148032588Y-90200020D01*
X148076447Y-90193584D01*
X148121459Y-90188986D01*
X148167627Y-90186228D01*
X148214949Y-90185308D01*
X150913759Y-90185308D01*
X150913759Y-89145197D01*
X151362650Y-89145197D01*
X151362650Y-90677992D01*
G36*
X151362650Y-90677992D02*
G01*
X148214945Y-90677992D01*
X148191978Y-90678398D01*
X148169611Y-90679617D01*
X148147842Y-90681648D01*
X148126671Y-90684493D01*
X148106100Y-90688149D01*
X148086127Y-90692619D01*
X148066753Y-90697901D01*
X148047978Y-90703995D01*
X148029802Y-90710902D01*
X148012224Y-90718622D01*
X147995245Y-90727154D01*
X147978865Y-90736499D01*
X147963084Y-90746656D01*
X147947901Y-90757626D01*
X147933317Y-90769408D01*
X147919332Y-90782003D01*
X147906737Y-90795282D01*
X147894954Y-90809118D01*
X147883984Y-90823509D01*
X147873826Y-90838456D01*
X147864481Y-90853959D01*
X147855949Y-90870019D01*
X147848230Y-90886634D01*
X147841323Y-90903805D01*
X147835228Y-90921532D01*
X147829947Y-90939815D01*
X147825478Y-90958655D01*
X147821821Y-90978050D01*
X147818977Y-90998001D01*
X147816946Y-91018508D01*
X147815727Y-91039571D01*
X147815321Y-91061189D01*
X147815321Y-91991815D01*
X147366434Y-91991815D01*
X147366438Y-91061189D01*
X147367336Y-91011857D01*
X147370030Y-90963764D01*
X147374521Y-90916912D01*
X147380808Y-90871301D01*
X147388891Y-90826929D01*
X147398771Y-90783798D01*
X147410446Y-90741907D01*
X147423918Y-90701256D01*
X147439186Y-90661846D01*
X147456251Y-90623676D01*
X147475111Y-90586746D01*
X147495768Y-90551056D01*
X147518221Y-90516607D01*
X147542470Y-90483398D01*
X147568516Y-90451430D01*
X147596357Y-90420702D01*
X147626359Y-90392197D01*
X147657515Y-90365531D01*
X147689826Y-90340705D01*
X147723292Y-90317717D01*
X147757913Y-90296568D01*
X147793688Y-90277259D01*
X147830618Y-90259788D01*
X147868703Y-90244157D01*
X147907942Y-90230364D01*
X147948336Y-90218410D01*
X147989885Y-90208296D01*
X148032588Y-90200020D01*
X148076447Y-90193584D01*
X148121459Y-90188986D01*
X148167627Y-90186228D01*
X148214949Y-90185308D01*
X150913759Y-90185308D01*
X150913759Y-89145197D01*
X151362650Y-89145197D01*
X151362650Y-90677992D01*
G37*
D12*
X140738909Y-83093592D02*
X140635393Y-104626966D01*
D10*
X151284363Y-87032539D02*
X151304057Y-87033758D01*
X151323196Y-87035789D01*
X151341778Y-87038633D01*
X151359805Y-87042290D01*
X151377275Y-87046759D01*
X151394190Y-87052040D01*
X151410549Y-87058134D01*
X151426351Y-87065041D01*
X151441598Y-87072760D01*
X151456288Y-87081292D01*
X151470423Y-87090637D01*
X151484002Y-87100794D01*
X151497025Y-87111763D01*
X151509491Y-87123546D01*
X151521402Y-87136141D01*
X151533334Y-87149441D01*
X151544496Y-87163341D01*
X151554888Y-87177839D01*
X151564511Y-87192936D01*
X151573363Y-87208631D01*
X151581446Y-87224926D01*
X151588759Y-87241819D01*
X151595302Y-87259311D01*
X151601076Y-87277401D01*
X151606080Y-87296091D01*
X151610313Y-87315379D01*
X151613778Y-87335266D01*
X151616472Y-87355751D01*
X151618396Y-87376836D01*
X151619551Y-87398519D01*
X151619936Y-87420801D01*
X151619551Y-87443084D01*
X151618396Y-87464767D01*
X151616472Y-87485852D01*
X151613778Y-87506338D01*
X151610313Y-87526226D01*
X151606080Y-87545514D01*
X151601076Y-87564204D01*
X151595302Y-87582295D01*
X151588759Y-87599787D01*
X151581446Y-87616680D01*
X151573363Y-87632975D01*
X151564511Y-87648670D01*
X151554888Y-87663767D01*
X151544496Y-87678265D01*
X151533334Y-87692165D01*
X151521402Y-87705465D01*
X151509491Y-87718060D01*
X151497025Y-87729842D01*
X151484002Y-87740812D01*
X151470423Y-87750969D01*
X151456288Y-87760314D01*
X151441598Y-87768845D01*
X151426351Y-87776565D01*
X151410549Y-87783471D01*
X151394190Y-87789566D01*
X151377275Y-87794847D01*
X151359805Y-87799316D01*
X151341778Y-87802973D01*
X151323196Y-87805816D01*
X151304057Y-87807848D01*
X151284363Y-87809067D01*
X151264112Y-87809473D01*
X151244525Y-87809067D01*
X151225450Y-87807848D01*
X151206889Y-87805816D01*
X151188841Y-87802973D01*
X151171306Y-87799316D01*
X151154284Y-87794847D01*
X151137776Y-87789566D01*
X151121780Y-87783471D01*
X151106298Y-87776565D01*
X151091329Y-87768845D01*
X151076873Y-87760314D01*
X151062931Y-87750969D01*
X151049501Y-87740812D01*
X151036585Y-87729842D01*
X151024182Y-87718060D01*
X151012293Y-87705465D01*
X151001023Y-87692165D01*
X150990481Y-87678265D01*
X150980666Y-87663767D01*
X150971578Y-87648670D01*
X150963217Y-87632975D01*
X150955583Y-87616680D01*
X150948677Y-87599787D01*
X150942497Y-87582295D01*
X150937045Y-87564204D01*
X150932319Y-87545514D01*
X150928321Y-87526226D01*
X150925049Y-87506338D01*
X150922505Y-87485852D01*
X150920687Y-87464767D01*
X150919597Y-87443084D01*
X150919233Y-87420801D01*
X150919597Y-87398519D01*
X150920687Y-87376836D01*
X150922505Y-87355751D01*
X150925049Y-87335266D01*
X150928321Y-87315379D01*
X150932319Y-87296091D01*
X150937045Y-87277401D01*
X150942497Y-87259311D01*
X150948677Y-87241819D01*
X150955583Y-87224926D01*
X150963217Y-87208631D01*
X150971578Y-87192936D01*
X150980666Y-87177839D01*
X150990481Y-87163341D01*
X151001023Y-87149441D01*
X151012293Y-87136141D01*
X151024182Y-87123546D01*
X151036585Y-87111763D01*
X151049501Y-87100794D01*
X151062930Y-87090637D01*
X151076872Y-87081292D01*
X151091328Y-87072760D01*
X151106297Y-87065041D01*
X151121779Y-87058134D01*
X151137774Y-87052040D01*
X151154283Y-87046759D01*
X151171304Y-87042290D01*
X151188839Y-87038633D01*
X151206888Y-87035789D01*
X151225449Y-87033758D01*
X151244524Y-87032539D01*
X151264112Y-87032133D01*
X151284363Y-87032539D01*
G36*
X151284363Y-87032539D02*
G01*
X151304057Y-87033758D01*
X151323196Y-87035789D01*
X151341778Y-87038633D01*
X151359805Y-87042290D01*
X151377275Y-87046759D01*
X151394190Y-87052040D01*
X151410549Y-87058134D01*
X151426351Y-87065041D01*
X151441598Y-87072760D01*
X151456288Y-87081292D01*
X151470423Y-87090637D01*
X151484002Y-87100794D01*
X151497025Y-87111763D01*
X151509491Y-87123546D01*
X151521402Y-87136141D01*
X151533334Y-87149441D01*
X151544496Y-87163341D01*
X151554888Y-87177839D01*
X151564511Y-87192936D01*
X151573363Y-87208631D01*
X151581446Y-87224926D01*
X151588759Y-87241819D01*
X151595302Y-87259311D01*
X151601076Y-87277401D01*
X151606080Y-87296091D01*
X151610313Y-87315379D01*
X151613778Y-87335266D01*
X151616472Y-87355751D01*
X151618396Y-87376836D01*
X151619551Y-87398519D01*
X151619936Y-87420801D01*
X151619551Y-87443084D01*
X151618396Y-87464767D01*
X151616472Y-87485852D01*
X151613778Y-87506338D01*
X151610313Y-87526226D01*
X151606080Y-87545514D01*
X151601076Y-87564204D01*
X151595302Y-87582295D01*
X151588759Y-87599787D01*
X151581446Y-87616680D01*
X151573363Y-87632975D01*
X151564511Y-87648670D01*
X151554888Y-87663767D01*
X151544496Y-87678265D01*
X151533334Y-87692165D01*
X151521402Y-87705465D01*
X151509491Y-87718060D01*
X151497025Y-87729842D01*
X151484002Y-87740812D01*
X151470423Y-87750969D01*
X151456288Y-87760314D01*
X151441598Y-87768845D01*
X151426351Y-87776565D01*
X151410549Y-87783471D01*
X151394190Y-87789566D01*
X151377275Y-87794847D01*
X151359805Y-87799316D01*
X151341778Y-87802973D01*
X151323196Y-87805816D01*
X151304057Y-87807848D01*
X151284363Y-87809067D01*
X151264112Y-87809473D01*
X151244525Y-87809067D01*
X151225450Y-87807848D01*
X151206889Y-87805816D01*
X151188841Y-87802973D01*
X151171306Y-87799316D01*
X151154284Y-87794847D01*
X151137776Y-87789566D01*
X151121780Y-87783471D01*
X151106298Y-87776565D01*
X151091329Y-87768845D01*
X151076873Y-87760314D01*
X151062931Y-87750969D01*
X151049501Y-87740812D01*
X151036585Y-87729842D01*
X151024182Y-87718060D01*
X151012293Y-87705465D01*
X151001023Y-87692165D01*
X150990481Y-87678265D01*
X150980666Y-87663767D01*
X150971578Y-87648670D01*
X150963217Y-87632975D01*
X150955583Y-87616680D01*
X150948677Y-87599787D01*
X150942497Y-87582295D01*
X150937045Y-87564204D01*
X150932319Y-87545514D01*
X150928321Y-87526226D01*
X150925049Y-87506338D01*
X150922505Y-87485852D01*
X150920687Y-87464767D01*
X150919597Y-87443084D01*
X150919233Y-87420801D01*
X150919597Y-87398519D01*
X150920687Y-87376836D01*
X150922505Y-87355751D01*
X150925049Y-87335266D01*
X150928321Y-87315379D01*
X150932319Y-87296091D01*
X150937045Y-87277401D01*
X150942497Y-87259311D01*
X150948677Y-87241819D01*
X150955583Y-87224926D01*
X150963217Y-87208631D01*
X150971578Y-87192936D01*
X150980666Y-87177839D01*
X150990481Y-87163341D01*
X151001023Y-87149441D01*
X151012293Y-87136141D01*
X151024182Y-87123546D01*
X151036585Y-87111763D01*
X151049501Y-87100794D01*
X151062930Y-87090637D01*
X151076872Y-87081292D01*
X151091328Y-87072760D01*
X151106297Y-87065041D01*
X151121779Y-87058134D01*
X151137774Y-87052040D01*
X151154283Y-87046759D01*
X151171304Y-87042290D01*
X151188839Y-87038633D01*
X151206888Y-87035789D01*
X151225449Y-87033758D01*
X151244524Y-87032539D01*
X151264112Y-87032133D01*
X151284363Y-87032539D01*
G37*
X149452131Y-96053720D02*
X151362650Y-96053720D01*
X151362650Y-97340174D01*
X151361388Y-97409073D01*
X151357603Y-97476176D01*
X151351295Y-97541482D01*
X151342463Y-97604993D01*
X151331108Y-97666707D01*
X151317230Y-97726624D01*
X151300828Y-97784746D01*
X151281904Y-97841071D01*
X151260455Y-97895600D01*
X151236484Y-97948332D01*
X151209989Y-97999269D01*
X151180971Y-98048409D01*
X151149430Y-98095753D01*
X151115366Y-98141300D01*
X151078778Y-98185052D01*
X151039667Y-98227007D01*
X150999123Y-98267443D01*
X150956868Y-98305271D01*
X150912902Y-98340490D01*
X150867226Y-98373100D01*
X150819839Y-98403102D01*
X150770742Y-98430495D01*
X150719933Y-98455279D01*
X150667415Y-98477454D01*
X150613185Y-98497020D01*
X150557245Y-98513978D01*
X150499594Y-98528327D01*
X150440233Y-98540067D01*
X150379161Y-98549198D01*
X150316379Y-98555720D01*
X150251886Y-98559633D01*
X150185682Y-98560938D01*
X150119457Y-98559633D01*
X150054900Y-98555720D01*
X149992011Y-98549198D01*
X149930789Y-98540067D01*
X149871236Y-98528327D01*
X149813350Y-98513978D01*
X149757132Y-98497020D01*
X149702582Y-98477454D01*
X149649699Y-98455279D01*
X149598485Y-98430495D01*
X149548938Y-98403102D01*
X149501060Y-98373100D01*
X149454849Y-98340490D01*
X149410306Y-98305271D01*
X149367431Y-98267443D01*
X149326223Y-98227007D01*
X149287775Y-98185052D01*
X149251808Y-98141300D01*
X149218321Y-98095753D01*
X149187315Y-98048409D01*
X149158789Y-97999269D01*
X149132744Y-97948332D01*
X149109179Y-97895600D01*
X149088095Y-97841071D01*
X149069491Y-97784746D01*
X149053367Y-97726624D01*
X149039725Y-97666707D01*
X149028562Y-97604993D01*
X149019881Y-97541482D01*
X149013679Y-97476176D01*
X149009959Y-97409073D01*
X149008718Y-97340174D01*
X149452131Y-97340174D01*
X149452901Y-97380033D01*
X149455211Y-97418866D01*
X149459060Y-97456673D01*
X149464449Y-97493453D01*
X149471377Y-97529207D01*
X149479845Y-97563934D01*
X149489853Y-97597635D01*
X149501401Y-97630309D01*
X149514488Y-97661957D01*
X149529115Y-97692579D01*
X149545282Y-97722174D01*
X149562988Y-97750743D01*
X149582234Y-97778285D01*
X149603020Y-97804801D01*
X149625345Y-97830290D01*
X149649210Y-97854753D01*
X149675040Y-97878618D01*
X149701898Y-97900942D01*
X149729781Y-97921727D01*
X149758692Y-97940973D01*
X149788629Y-97958679D01*
X149819592Y-97974845D01*
X149851582Y-97989472D01*
X149884599Y-98002559D01*
X149918642Y-98014106D01*
X149953711Y-98024114D01*
X149989807Y-98032582D01*
X150026929Y-98039511D01*
X150065078Y-98044900D01*
X150104253Y-98048749D01*
X150144454Y-98051058D01*
X150185682Y-98051828D01*
X150227552Y-98051058D01*
X150268309Y-98048749D01*
X150307955Y-98044900D01*
X150346489Y-98039511D01*
X150383910Y-98032582D01*
X150420220Y-98024114D01*
X150455418Y-98014106D01*
X150489504Y-98002559D01*
X150522478Y-97989472D01*
X150554340Y-97974845D01*
X150585090Y-97958679D01*
X150614728Y-97940973D01*
X150643254Y-97921727D01*
X150670667Y-97900942D01*
X150696969Y-97878618D01*
X150722158Y-97854753D01*
X150746023Y-97830290D01*
X150768347Y-97804801D01*
X150789133Y-97778285D01*
X150808378Y-97750743D01*
X150826084Y-97722174D01*
X150842250Y-97692579D01*
X150856877Y-97661957D01*
X150869964Y-97630309D01*
X150881511Y-97597635D01*
X150891519Y-97563934D01*
X150899987Y-97529207D01*
X150906916Y-97493453D01*
X150912305Y-97456673D01*
X150916154Y-97418866D01*
X150918463Y-97380033D01*
X150919233Y-97340174D01*
X150919233Y-96546408D01*
X149452131Y-96546404D01*
X149452131Y-97340174D01*
X149008718Y-97340174D01*
X149008718Y-96546408D01*
X147366438Y-96546408D01*
X147366438Y-96053720D01*
X149452131Y-96053720D01*
G36*
X149452131Y-96053720D02*
G01*
X151362650Y-96053720D01*
X151362650Y-97340174D01*
X151361388Y-97409073D01*
X151357603Y-97476176D01*
X151351295Y-97541482D01*
X151342463Y-97604993D01*
X151331108Y-97666707D01*
X151317230Y-97726624D01*
X151300828Y-97784746D01*
X151281904Y-97841071D01*
X151260455Y-97895600D01*
X151236484Y-97948332D01*
X151209989Y-97999269D01*
X151180971Y-98048409D01*
X151149430Y-98095753D01*
X151115366Y-98141300D01*
X151078778Y-98185052D01*
X151039667Y-98227007D01*
X150999123Y-98267443D01*
X150956868Y-98305271D01*
X150912902Y-98340490D01*
X150867226Y-98373100D01*
X150819839Y-98403102D01*
X150770742Y-98430495D01*
X150719933Y-98455279D01*
X150667415Y-98477454D01*
X150613185Y-98497020D01*
X150557245Y-98513978D01*
X150499594Y-98528327D01*
X150440233Y-98540067D01*
X150379161Y-98549198D01*
X150316379Y-98555720D01*
X150251886Y-98559633D01*
X150185682Y-98560938D01*
X150119457Y-98559633D01*
X150054900Y-98555720D01*
X149992011Y-98549198D01*
X149930789Y-98540067D01*
X149871236Y-98528327D01*
X149813350Y-98513978D01*
X149757132Y-98497020D01*
X149702582Y-98477454D01*
X149649699Y-98455279D01*
X149598485Y-98430495D01*
X149548938Y-98403102D01*
X149501060Y-98373100D01*
X149454849Y-98340490D01*
X149410306Y-98305271D01*
X149367431Y-98267443D01*
X149326223Y-98227007D01*
X149287775Y-98185052D01*
X149251808Y-98141300D01*
X149218321Y-98095753D01*
X149187315Y-98048409D01*
X149158789Y-97999269D01*
X149132744Y-97948332D01*
X149109179Y-97895600D01*
X149088095Y-97841071D01*
X149069491Y-97784746D01*
X149053367Y-97726624D01*
X149039725Y-97666707D01*
X149028562Y-97604993D01*
X149019881Y-97541482D01*
X149013679Y-97476176D01*
X149009959Y-97409073D01*
X149008718Y-97340174D01*
X149452131Y-97340174D01*
X149452901Y-97380033D01*
X149455211Y-97418866D01*
X149459060Y-97456673D01*
X149464449Y-97493453D01*
X149471377Y-97529207D01*
X149479845Y-97563934D01*
X149489853Y-97597635D01*
X149501401Y-97630309D01*
X149514488Y-97661957D01*
X149529115Y-97692579D01*
X149545282Y-97722174D01*
X149562988Y-97750743D01*
X149582234Y-97778285D01*
X149603020Y-97804801D01*
X149625345Y-97830290D01*
X149649210Y-97854753D01*
X149675040Y-97878618D01*
X149701898Y-97900942D01*
X149729781Y-97921727D01*
X149758692Y-97940973D01*
X149788629Y-97958679D01*
X149819592Y-97974845D01*
X149851582Y-97989472D01*
X149884599Y-98002559D01*
X149918642Y-98014106D01*
X149953711Y-98024114D01*
X149989807Y-98032582D01*
X150026929Y-98039511D01*
X150065078Y-98044900D01*
X150104253Y-98048749D01*
X150144454Y-98051058D01*
X150185682Y-98051828D01*
X150227552Y-98051058D01*
X150268309Y-98048749D01*
X150307955Y-98044900D01*
X150346489Y-98039511D01*
X150383910Y-98032582D01*
X150420220Y-98024114D01*
X150455418Y-98014106D01*
X150489504Y-98002559D01*
X150522478Y-97989472D01*
X150554340Y-97974845D01*
X150585090Y-97958679D01*
X150614728Y-97940973D01*
X150643254Y-97921727D01*
X150670667Y-97900942D01*
X150696969Y-97878618D01*
X150722158Y-97854753D01*
X150746023Y-97830290D01*
X150768347Y-97804801D01*
X150789133Y-97778285D01*
X150808378Y-97750743D01*
X150826084Y-97722174D01*
X150842250Y-97692579D01*
X150856877Y-97661957D01*
X150869964Y-97630309D01*
X150881511Y-97597635D01*
X150891519Y-97563934D01*
X150899987Y-97529207D01*
X150906916Y-97493453D01*
X150912305Y-97456673D01*
X150916154Y-97418866D01*
X150918463Y-97380033D01*
X150919233Y-97340174D01*
X150919233Y-96546408D01*
X149452131Y-96546404D01*
X149452131Y-97340174D01*
X149008718Y-97340174D01*
X149008718Y-96546408D01*
X147366438Y-96546408D01*
X147366438Y-96053720D01*
X149452131Y-96053720D01*
G37*
X142795431Y-86063418D02*
X142813626Y-86063676D01*
X142847690Y-86065152D01*
X142881199Y-86067611D01*
X142914152Y-86071054D01*
X142946548Y-86075481D01*
X142978389Y-86080892D01*
X143009674Y-86087286D01*
X143040402Y-86094663D01*
X143070575Y-86103025D01*
X143100191Y-86112370D01*
X143129252Y-86122699D01*
X143157756Y-86134011D01*
X143185705Y-86146307D01*
X143213097Y-86159586D01*
X143239934Y-86173850D01*
X143266214Y-86189096D01*
X143291852Y-86205220D01*
X143316764Y-86222113D01*
X143340948Y-86239776D01*
X143364406Y-86258209D01*
X143387136Y-86277411D01*
X143409140Y-86297384D01*
X143430417Y-86318126D01*
X143450967Y-86339638D01*
X143470790Y-86361920D01*
X143489885Y-86384972D01*
X143508254Y-86408793D01*
X143525896Y-86433385D01*
X143542811Y-86458746D01*
X143558999Y-86484877D01*
X143574459Y-86511779D01*
X143589193Y-86539450D01*
X143603777Y-86567762D01*
X143617421Y-86596588D01*
X143630123Y-86625927D01*
X143641884Y-86655779D01*
X143652704Y-86686144D01*
X143662584Y-86717022D01*
X143671522Y-86748414D01*
X143679520Y-86780319D01*
X143686576Y-86812736D01*
X143692692Y-86845667D01*
X143697866Y-86879112D01*
X143702100Y-86913069D01*
X143705393Y-86947539D01*
X143707745Y-86982523D01*
X143709157Y-87018020D01*
X143709627Y-87054029D01*
X143709627Y-87984655D01*
X143945021Y-87984655D01*
X143981058Y-87984030D01*
X144015951Y-87982153D01*
X144049700Y-87979026D01*
X144082305Y-87974648D01*
X144113767Y-87969018D01*
X144144084Y-87962138D01*
X144173257Y-87954007D01*
X144201286Y-87944625D01*
X144228171Y-87933991D01*
X144253912Y-87922107D01*
X144278509Y-87908972D01*
X144301962Y-87894586D01*
X144324271Y-87878949D01*
X144345435Y-87862061D01*
X144365456Y-87843923D01*
X144384333Y-87824533D01*
X144402066Y-87803892D01*
X144418654Y-87782000D01*
X144434099Y-87758858D01*
X144448400Y-87734464D01*
X144461556Y-87708820D01*
X144473569Y-87681924D01*
X144484437Y-87653778D01*
X144494162Y-87624380D01*
X144502742Y-87593732D01*
X144510178Y-87561833D01*
X144516471Y-87528683D01*
X144521619Y-87494281D01*
X144525623Y-87458629D01*
X144528483Y-87421726D01*
X144530199Y-87383572D01*
X144530771Y-87344168D01*
X144530365Y-87309013D01*
X144529146Y-87274713D01*
X144527115Y-87241269D01*
X144524271Y-87208680D01*
X144520614Y-87176946D01*
X144516145Y-87146067D01*
X144510863Y-87116044D01*
X144504769Y-87086877D01*
X144497862Y-87058564D01*
X144490143Y-87031107D01*
X144481611Y-87004506D01*
X144472266Y-86978759D01*
X144462108Y-86953869D01*
X144451138Y-86929833D01*
X144439355Y-86906653D01*
X144426760Y-86884329D01*
X144413437Y-86863073D01*
X144399473Y-86843101D01*
X144384867Y-86824412D01*
X144369621Y-86807005D01*
X144353732Y-86790882D01*
X144337202Y-86776042D01*
X144320031Y-86762484D01*
X144302218Y-86750210D01*
X144283764Y-86739219D01*
X144274296Y-86734204D01*
X144264668Y-86729511D01*
X144254880Y-86725138D01*
X144244931Y-86721086D01*
X144224552Y-86713943D01*
X144203532Y-86708084D01*
X144181870Y-86703508D01*
X144159566Y-86700216D01*
X144136621Y-86698206D01*
X144136621Y-86205519D01*
X144180608Y-86210009D01*
X144223612Y-86216639D01*
X144265632Y-86225406D01*
X144306668Y-86236312D01*
X144346720Y-86249356D01*
X144385789Y-86264538D01*
X144423874Y-86281859D01*
X144460975Y-86301318D01*
X144497093Y-86322916D01*
X144532227Y-86346652D01*
X144566377Y-86372526D01*
X144599543Y-86400539D01*
X144631726Y-86430691D01*
X144662925Y-86462980D01*
X144693140Y-86497409D01*
X144722372Y-86533975D01*
X144750876Y-86573065D01*
X144777541Y-86613694D01*
X144802368Y-86655863D01*
X144825355Y-86699571D01*
X144846504Y-86744820D01*
X144865813Y-86791607D01*
X144883284Y-86839934D01*
X144898916Y-86889801D01*
X144912708Y-86941208D01*
X144924662Y-86994154D01*
X144934777Y-87048640D01*
X144943053Y-87104665D01*
X144949490Y-87162230D01*
X144954087Y-87221335D01*
X144956846Y-87281980D01*
X144957765Y-87344164D01*
X144956739Y-87411587D01*
X144953660Y-87477000D01*
X144948528Y-87540404D01*
X144941343Y-87601797D01*
X144932105Y-87661180D01*
X144920815Y-87718553D01*
X144907472Y-87773915D01*
X144892075Y-87827268D01*
X144874626Y-87878610D01*
X144855124Y-87927943D01*
X144833570Y-87975265D01*
X144809962Y-88020578D01*
X144784301Y-88063880D01*
X144756588Y-88105172D01*
X144726821Y-88144454D01*
X144695001Y-88181726D01*
X144661344Y-88217522D01*
X144626061Y-88251009D01*
X144589152Y-88282187D01*
X144550619Y-88311054D01*
X144510461Y-88337613D01*
X144468677Y-88361862D01*
X144425268Y-88383802D01*
X144380234Y-88403432D01*
X144333574Y-88420753D01*
X144285290Y-88435765D01*
X144235380Y-88448467D01*
X144183844Y-88458859D01*
X144130684Y-88466942D01*
X144075898Y-88472716D01*
X144019487Y-88476180D01*
X143961450Y-88477335D01*
X141892179Y-88477335D01*
X141892179Y-87990125D01*
X142439604Y-87990125D01*
X142439604Y-87979173D01*
X142405154Y-87972951D01*
X142371603Y-87965231D01*
X142338949Y-87956014D01*
X142307194Y-87945301D01*
X142276337Y-87933091D01*
X142246378Y-87919384D01*
X142217317Y-87904180D01*
X142189154Y-87887480D01*
X142161890Y-87869282D01*
X142135523Y-87849588D01*
X142110055Y-87828397D01*
X142085484Y-87805709D01*
X142061812Y-87781524D01*
X142039038Y-87755842D01*
X142017162Y-87728663D01*
X141996183Y-87699987D01*
X141976959Y-87669964D01*
X141958976Y-87638743D01*
X141942232Y-87606324D01*
X141926729Y-87572709D01*
X141912466Y-87537896D01*
X141899444Y-87501885D01*
X141887661Y-87464677D01*
X141877119Y-87426272D01*
X141867817Y-87386670D01*
X141859755Y-87345869D01*
X141852934Y-87303872D01*
X141847353Y-87260677D01*
X141843012Y-87216284D01*
X141841657Y-87196359D01*
X142253477Y-87196359D01*
X142254161Y-87240944D01*
X142256214Y-87284374D01*
X142259636Y-87326650D01*
X142264426Y-87367770D01*
X142270585Y-87407737D01*
X142278112Y-87446548D01*
X142287008Y-87484205D01*
X142297273Y-87520707D01*
X142308906Y-87556055D01*
X142321907Y-87590248D01*
X142336277Y-87623286D01*
X142352016Y-87655170D01*
X142369123Y-87685899D01*
X142387599Y-87715473D01*
X142407443Y-87743893D01*
X142428656Y-87771158D01*
X142451044Y-87797011D01*
X142474417Y-87821196D01*
X142498773Y-87843713D01*
X142524112Y-87864563D01*
X142550436Y-87883744D01*
X142577743Y-87901257D01*
X142606034Y-87917103D01*
X142635308Y-87931280D01*
X142665566Y-87943790D01*
X142696809Y-87954632D01*
X142729034Y-87963806D01*
X142762244Y-87971311D01*
X142796437Y-87977149D01*
X142831615Y-87981319D01*
X142867776Y-87983821D01*
X142904920Y-87984655D01*
X143326429Y-87984655D01*
X143326429Y-87108774D01*
X143325852Y-87079007D01*
X143324120Y-87049925D01*
X143321233Y-87021527D01*
X143317192Y-86993814D01*
X143311996Y-86966785D01*
X143305645Y-86940440D01*
X143298139Y-86914779D01*
X143289479Y-86889803D01*
X143279664Y-86865511D01*
X143268695Y-86841903D01*
X143256570Y-86818980D01*
X143243291Y-86796741D01*
X143228858Y-86775186D01*
X143213270Y-86754316D01*
X143196527Y-86734130D01*
X143178629Y-86714628D01*
X143160453Y-86696729D01*
X143141507Y-86679985D01*
X143121791Y-86664395D01*
X143101305Y-86649961D01*
X143080049Y-86636681D01*
X143058024Y-86624556D01*
X143035228Y-86613586D01*
X143011663Y-86603771D01*
X142987328Y-86595111D01*
X142962224Y-86587605D01*
X142936349Y-86581254D01*
X142909705Y-86576058D01*
X142882291Y-86572016D01*
X142854108Y-86569129D01*
X142825154Y-86567397D01*
X142795431Y-86566820D01*
X142764360Y-86567461D01*
X142734102Y-86569386D01*
X142704657Y-86572594D01*
X142676023Y-86577084D01*
X142648203Y-86582858D01*
X142621195Y-86589915D01*
X142595000Y-86598255D01*
X142569617Y-86607878D01*
X142545047Y-86618783D01*
X142521290Y-86630972D01*
X142498345Y-86644444D01*
X142476213Y-86659198D01*
X142454893Y-86675236D01*
X142434386Y-86692557D01*
X142414692Y-86711160D01*
X142395811Y-86731046D01*
X142378574Y-86752751D01*
X142362450Y-86775440D01*
X142347438Y-86799112D01*
X142333538Y-86823767D01*
X142320750Y-86849407D01*
X142309074Y-86876029D01*
X142298510Y-86903636D01*
X142289059Y-86932226D01*
X142280719Y-86961800D01*
X142273491Y-86992357D01*
X142267376Y-87023898D01*
X142262372Y-87056423D01*
X142258480Y-87089932D01*
X142255701Y-87124424D01*
X142254033Y-87159900D01*
X142253477Y-87196359D01*
X141841657Y-87196359D01*
X141839911Y-87170694D01*
X141838051Y-87123907D01*
X141837431Y-87075924D01*
X141838436Y-87018510D01*
X141841451Y-86962590D01*
X141846476Y-86908168D01*
X141853511Y-86855243D01*
X141862557Y-86803814D01*
X141873612Y-86753883D01*
X141886678Y-86705448D01*
X141901753Y-86658510D01*
X141918839Y-86613070D01*
X141937935Y-86569126D01*
X141959041Y-86526679D01*
X141982157Y-86485729D01*
X142007284Y-86446275D01*
X142034421Y-86408319D01*
X142063567Y-86371859D01*
X142094725Y-86336897D01*
X142128189Y-86303752D01*
X142162894Y-86272746D01*
X142198840Y-86243878D01*
X142236026Y-86217149D01*
X142274452Y-86192557D01*
X142314119Y-86170104D01*
X142355026Y-86149790D01*
X142397174Y-86131614D01*
X142440562Y-86115576D01*
X142485190Y-86101676D01*
X142531058Y-86089915D01*
X142578167Y-86080292D01*
X142626516Y-86072807D01*
X142676105Y-86067461D01*
X142726935Y-86064254D01*
X142779005Y-86063185D01*
X142795431Y-86063418D01*
G36*
X142795431Y-86063418D02*
G01*
X142813626Y-86063676D01*
X142847690Y-86065152D01*
X142881199Y-86067611D01*
X142914152Y-86071054D01*
X142946548Y-86075481D01*
X142978389Y-86080892D01*
X143009674Y-86087286D01*
X143040402Y-86094663D01*
X143070575Y-86103025D01*
X143100191Y-86112370D01*
X143129252Y-86122699D01*
X143157756Y-86134011D01*
X143185705Y-86146307D01*
X143213097Y-86159586D01*
X143239934Y-86173850D01*
X143266214Y-86189096D01*
X143291852Y-86205220D01*
X143316764Y-86222113D01*
X143340948Y-86239776D01*
X143364406Y-86258209D01*
X143387136Y-86277411D01*
X143409140Y-86297384D01*
X143430417Y-86318126D01*
X143450967Y-86339638D01*
X143470790Y-86361920D01*
X143489885Y-86384972D01*
X143508254Y-86408793D01*
X143525896Y-86433385D01*
X143542811Y-86458746D01*
X143558999Y-86484877D01*
X143574459Y-86511779D01*
X143589193Y-86539450D01*
X143603777Y-86567762D01*
X143617421Y-86596588D01*
X143630123Y-86625927D01*
X143641884Y-86655779D01*
X143652704Y-86686144D01*
X143662584Y-86717022D01*
X143671522Y-86748414D01*
X143679520Y-86780319D01*
X143686576Y-86812736D01*
X143692692Y-86845667D01*
X143697866Y-86879112D01*
X143702100Y-86913069D01*
X143705393Y-86947539D01*
X143707745Y-86982523D01*
X143709157Y-87018020D01*
X143709627Y-87054029D01*
X143709627Y-87984655D01*
X143945021Y-87984655D01*
X143981058Y-87984030D01*
X144015951Y-87982153D01*
X144049700Y-87979026D01*
X144082305Y-87974648D01*
X144113767Y-87969018D01*
X144144084Y-87962138D01*
X144173257Y-87954007D01*
X144201286Y-87944625D01*
X144228171Y-87933991D01*
X144253912Y-87922107D01*
X144278509Y-87908972D01*
X144301962Y-87894586D01*
X144324271Y-87878949D01*
X144345435Y-87862061D01*
X144365456Y-87843923D01*
X144384333Y-87824533D01*
X144402066Y-87803892D01*
X144418654Y-87782000D01*
X144434099Y-87758858D01*
X144448400Y-87734464D01*
X144461556Y-87708820D01*
X144473569Y-87681924D01*
X144484437Y-87653778D01*
X144494162Y-87624380D01*
X144502742Y-87593732D01*
X144510178Y-87561833D01*
X144516471Y-87528683D01*
X144521619Y-87494281D01*
X144525623Y-87458629D01*
X144528483Y-87421726D01*
X144530199Y-87383572D01*
X144530771Y-87344168D01*
X144530365Y-87309013D01*
X144529146Y-87274713D01*
X144527115Y-87241269D01*
X144524271Y-87208680D01*
X144520614Y-87176946D01*
X144516145Y-87146067D01*
X144510863Y-87116044D01*
X144504769Y-87086877D01*
X144497862Y-87058564D01*
X144490143Y-87031107D01*
X144481611Y-87004506D01*
X144472266Y-86978759D01*
X144462108Y-86953869D01*
X144451138Y-86929833D01*
X144439355Y-86906653D01*
X144426760Y-86884329D01*
X144413437Y-86863073D01*
X144399473Y-86843101D01*
X144384867Y-86824412D01*
X144369621Y-86807005D01*
X144353732Y-86790882D01*
X144337202Y-86776042D01*
X144320031Y-86762484D01*
X144302218Y-86750210D01*
X144283764Y-86739219D01*
X144274296Y-86734204D01*
X144264668Y-86729511D01*
X144254880Y-86725138D01*
X144244931Y-86721086D01*
X144224552Y-86713943D01*
X144203532Y-86708084D01*
X144181870Y-86703508D01*
X144159566Y-86700216D01*
X144136621Y-86698206D01*
X144136621Y-86205519D01*
X144180608Y-86210009D01*
X144223612Y-86216639D01*
X144265632Y-86225406D01*
X144306668Y-86236312D01*
X144346720Y-86249356D01*
X144385789Y-86264538D01*
X144423874Y-86281859D01*
X144460975Y-86301318D01*
X144497093Y-86322916D01*
X144532227Y-86346652D01*
X144566377Y-86372526D01*
X144599543Y-86400539D01*
X144631726Y-86430691D01*
X144662925Y-86462980D01*
X144693140Y-86497409D01*
X144722372Y-86533975D01*
X144750876Y-86573065D01*
X144777541Y-86613694D01*
X144802368Y-86655863D01*
X144825355Y-86699571D01*
X144846504Y-86744820D01*
X144865813Y-86791607D01*
X144883284Y-86839934D01*
X144898916Y-86889801D01*
X144912708Y-86941208D01*
X144924662Y-86994154D01*
X144934777Y-87048640D01*
X144943053Y-87104665D01*
X144949490Y-87162230D01*
X144954087Y-87221335D01*
X144956846Y-87281980D01*
X144957765Y-87344164D01*
X144956739Y-87411587D01*
X144953660Y-87477000D01*
X144948528Y-87540404D01*
X144941343Y-87601797D01*
X144932105Y-87661180D01*
X144920815Y-87718553D01*
X144907472Y-87773915D01*
X144892075Y-87827268D01*
X144874626Y-87878610D01*
X144855124Y-87927943D01*
X144833570Y-87975265D01*
X144809962Y-88020578D01*
X144784301Y-88063880D01*
X144756588Y-88105172D01*
X144726821Y-88144454D01*
X144695001Y-88181726D01*
X144661344Y-88217522D01*
X144626061Y-88251009D01*
X144589152Y-88282187D01*
X144550619Y-88311054D01*
X144510461Y-88337613D01*
X144468677Y-88361862D01*
X144425268Y-88383802D01*
X144380234Y-88403432D01*
X144333574Y-88420753D01*
X144285290Y-88435765D01*
X144235380Y-88448467D01*
X144183844Y-88458859D01*
X144130684Y-88466942D01*
X144075898Y-88472716D01*
X144019487Y-88476180D01*
X143961450Y-88477335D01*
X141892179Y-88477335D01*
X141892179Y-87990125D01*
X142439604Y-87990125D01*
X142439604Y-87979173D01*
X142405154Y-87972951D01*
X142371603Y-87965231D01*
X142338949Y-87956014D01*
X142307194Y-87945301D01*
X142276337Y-87933091D01*
X142246378Y-87919384D01*
X142217317Y-87904180D01*
X142189154Y-87887480D01*
X142161890Y-87869282D01*
X142135523Y-87849588D01*
X142110055Y-87828397D01*
X142085484Y-87805709D01*
X142061812Y-87781524D01*
X142039038Y-87755842D01*
X142017162Y-87728663D01*
X141996183Y-87699987D01*
X141976959Y-87669964D01*
X141958976Y-87638743D01*
X141942232Y-87606324D01*
X141926729Y-87572709D01*
X141912466Y-87537896D01*
X141899444Y-87501885D01*
X141887661Y-87464677D01*
X141877119Y-87426272D01*
X141867817Y-87386670D01*
X141859755Y-87345869D01*
X141852934Y-87303872D01*
X141847353Y-87260677D01*
X141843012Y-87216284D01*
X141841657Y-87196359D01*
X142253477Y-87196359D01*
X142254161Y-87240944D01*
X142256214Y-87284374D01*
X142259636Y-87326650D01*
X142264426Y-87367770D01*
X142270585Y-87407737D01*
X142278112Y-87446548D01*
X142287008Y-87484205D01*
X142297273Y-87520707D01*
X142308906Y-87556055D01*
X142321907Y-87590248D01*
X142336277Y-87623286D01*
X142352016Y-87655170D01*
X142369123Y-87685899D01*
X142387599Y-87715473D01*
X142407443Y-87743893D01*
X142428656Y-87771158D01*
X142451044Y-87797011D01*
X142474417Y-87821196D01*
X142498773Y-87843713D01*
X142524112Y-87864563D01*
X142550436Y-87883744D01*
X142577743Y-87901257D01*
X142606034Y-87917103D01*
X142635308Y-87931280D01*
X142665566Y-87943790D01*
X142696809Y-87954632D01*
X142729034Y-87963806D01*
X142762244Y-87971311D01*
X142796437Y-87977149D01*
X142831615Y-87981319D01*
X142867776Y-87983821D01*
X142904920Y-87984655D01*
X143326429Y-87984655D01*
X143326429Y-87108774D01*
X143325852Y-87079007D01*
X143324120Y-87049925D01*
X143321233Y-87021527D01*
X143317192Y-86993814D01*
X143311996Y-86966785D01*
X143305645Y-86940440D01*
X143298139Y-86914779D01*
X143289479Y-86889803D01*
X143279664Y-86865511D01*
X143268695Y-86841903D01*
X143256570Y-86818980D01*
X143243291Y-86796741D01*
X143228858Y-86775186D01*
X143213270Y-86754316D01*
X143196527Y-86734130D01*
X143178629Y-86714628D01*
X143160453Y-86696729D01*
X143141507Y-86679985D01*
X143121791Y-86664395D01*
X143101305Y-86649961D01*
X143080049Y-86636681D01*
X143058024Y-86624556D01*
X143035228Y-86613586D01*
X143011663Y-86603771D01*
X142987328Y-86595111D01*
X142962224Y-86587605D01*
X142936349Y-86581254D01*
X142909705Y-86576058D01*
X142882291Y-86572016D01*
X142854108Y-86569129D01*
X142825154Y-86567397D01*
X142795431Y-86566820D01*
X142764360Y-86567461D01*
X142734102Y-86569386D01*
X142704657Y-86572594D01*
X142676023Y-86577084D01*
X142648203Y-86582858D01*
X142621195Y-86589915D01*
X142595000Y-86598255D01*
X142569617Y-86607878D01*
X142545047Y-86618783D01*
X142521290Y-86630972D01*
X142498345Y-86644444D01*
X142476213Y-86659198D01*
X142454893Y-86675236D01*
X142434386Y-86692557D01*
X142414692Y-86711160D01*
X142395811Y-86731046D01*
X142378574Y-86752751D01*
X142362450Y-86775440D01*
X142347438Y-86799112D01*
X142333538Y-86823767D01*
X142320750Y-86849407D01*
X142309074Y-86876029D01*
X142298510Y-86903636D01*
X142289059Y-86932226D01*
X142280719Y-86961800D01*
X142273491Y-86992357D01*
X142267376Y-87023898D01*
X142262372Y-87056423D01*
X142258480Y-87089932D01*
X142255701Y-87124424D01*
X142254033Y-87159900D01*
X142253477Y-87196359D01*
X141841657Y-87196359D01*
X141839911Y-87170694D01*
X141838051Y-87123907D01*
X141837431Y-87075924D01*
X141838436Y-87018510D01*
X141841451Y-86962590D01*
X141846476Y-86908168D01*
X141853511Y-86855243D01*
X141862557Y-86803814D01*
X141873612Y-86753883D01*
X141886678Y-86705448D01*
X141901753Y-86658510D01*
X141918839Y-86613070D01*
X141937935Y-86569126D01*
X141959041Y-86526679D01*
X141982157Y-86485729D01*
X142007284Y-86446275D01*
X142034421Y-86408319D01*
X142063567Y-86371859D01*
X142094725Y-86336897D01*
X142128189Y-86303752D01*
X142162894Y-86272746D01*
X142198840Y-86243878D01*
X142236026Y-86217149D01*
X142274452Y-86192557D01*
X142314119Y-86170104D01*
X142355026Y-86149790D01*
X142397174Y-86131614D01*
X142440562Y-86115576D01*
X142485190Y-86101676D01*
X142531058Y-86089915D01*
X142578167Y-86080292D01*
X142626516Y-86072807D01*
X142676105Y-86067461D01*
X142726935Y-86064254D01*
X142779005Y-86063185D01*
X142795431Y-86063418D01*
G37*
X145888391Y-83616190D02*
X142341070Y-83616190D01*
X142341070Y-85422697D01*
X141892179Y-85422697D01*
X141892179Y-83123503D01*
X145888391Y-83123503D01*
X145888391Y-83616190D01*
G36*
X145888391Y-83616190D02*
G01*
X142341070Y-83616190D01*
X142341070Y-85422697D01*
X141892179Y-85422697D01*
X141892179Y-83123503D01*
X145888391Y-83123503D01*
X145888391Y-83616190D01*
G37*
X150377279Y-93092142D02*
X148516031Y-93803797D01*
X148460603Y-93825352D01*
X148403808Y-93846223D01*
X148345645Y-93866410D01*
X148286112Y-93885912D01*
X148256516Y-93895150D01*
X148227947Y-93903704D01*
X148200405Y-93911573D01*
X148173889Y-93918759D01*
X148148400Y-93925260D01*
X148123937Y-93931076D01*
X148100500Y-93936209D01*
X148078089Y-93940656D01*
X148100500Y-93945106D01*
X148123937Y-93950239D01*
X148148401Y-93956056D01*
X148173890Y-93962557D01*
X148200406Y-93969742D01*
X148227948Y-93977611D01*
X148256517Y-93986164D01*
X148286112Y-93995401D01*
X148345645Y-94014561D01*
X148403808Y-94033722D01*
X148460603Y-94052882D01*
X148516031Y-94072042D01*
X150377279Y-94734430D01*
X150377279Y-95254484D01*
X146381067Y-93754537D01*
X146381067Y-93239950D01*
X147552561Y-93683363D01*
X150377279Y-92561140D01*
X150377279Y-93092142D01*
G36*
X150377279Y-93092142D02*
G01*
X148516031Y-93803797D01*
X148460603Y-93825352D01*
X148403808Y-93846223D01*
X148345645Y-93866410D01*
X148286112Y-93885912D01*
X148256516Y-93895150D01*
X148227947Y-93903704D01*
X148200405Y-93911573D01*
X148173889Y-93918759D01*
X148148400Y-93925260D01*
X148123937Y-93931076D01*
X148100500Y-93936209D01*
X148078089Y-93940656D01*
X148100500Y-93945106D01*
X148123937Y-93950239D01*
X148148401Y-93956056D01*
X148173890Y-93962557D01*
X148200406Y-93969742D01*
X148227948Y-93977611D01*
X148256517Y-93986164D01*
X148286112Y-93995401D01*
X148345645Y-94014561D01*
X148403808Y-94033722D01*
X148460603Y-94052882D01*
X148516031Y-94072042D01*
X150377279Y-94734430D01*
X150377279Y-95254484D01*
X146381067Y-93754537D01*
X146381067Y-93239950D01*
X147552561Y-93683363D01*
X150377279Y-92561140D01*
X150377279Y-93092142D01*
G37*
D13*
%TO.C,SW1*%
X26354000Y-31704000D02*
X26354000Y-32646000D01*
X26354000Y-32646000D02*
X30440000Y-32646000D01*
X26717000Y-31704000D02*
X26354000Y-31704000D01*
X26719000Y-28391000D02*
X26634000Y-28818000D01*
X26908000Y-28108000D02*
X26719000Y-28391000D01*
X27191000Y-27919000D02*
X26908000Y-28108000D01*
X27518000Y-27854000D02*
X27191000Y-27919000D01*
X30318000Y-27854000D02*
X27518000Y-27854000D01*
X30440000Y-32646000D02*
X30750000Y-32587000D01*
X30750000Y-32587000D02*
X31024000Y-32417000D01*
X30756000Y-27767000D02*
X30318000Y-27854000D01*
X31024000Y-32417000D02*
X31217000Y-32159000D01*
X31123000Y-27523000D02*
X30756000Y-27767000D01*
X31217000Y-32159000D02*
X31299000Y-31861000D01*
X31299000Y-31861000D02*
X31453000Y-31303000D01*
X31367000Y-27156000D02*
X31123000Y-27523000D01*
X31453000Y-31303000D02*
X31791000Y-30850000D01*
X31454000Y-26496000D02*
X31454000Y-26718000D01*
X31454000Y-26718000D02*
X31367000Y-27156000D01*
X31791000Y-30850000D02*
X32270000Y-30551000D01*
X31987000Y-25963000D02*
X31454000Y-26496000D01*
X32270000Y-30551000D02*
X32832000Y-30446000D01*
X32329000Y-25734000D02*
X31987000Y-25963000D01*
X32732000Y-25654000D02*
X32329000Y-25734000D01*
X32832000Y-30446000D02*
X35479000Y-30446000D01*
X35479000Y-25654000D02*
X32732000Y-25654000D01*
X35479000Y-30446000D02*
X36500000Y-29425000D01*
X36416000Y-26591000D02*
X35479000Y-25654000D01*
D14*
%TO.C,J1*%
X150076700Y-53525460D02*
X150076700Y-48332999D01*
X150076700Y-48332999D02*
X147828041Y-48332999D01*
X144171959Y-48332999D02*
X141923300Y-48332999D01*
X143732039Y-57197599D02*
X148267961Y-57197599D01*
X141923300Y-48332999D02*
X141923300Y-53525460D01*
D13*
%TO.C,D27*%
X65790000Y-106950000D02*
X69800000Y-106950000D01*
X65790000Y-104950000D02*
X69800000Y-104950000D01*
X65790000Y-104950000D02*
X65790000Y-106950000D01*
%TO.C,D18*%
X116790000Y-72950000D02*
X120800000Y-72950000D01*
X116790000Y-70950000D02*
X120800000Y-70950000D01*
X116790000Y-70950000D02*
X116790000Y-72950000D01*
%TO.C,D7*%
X31790000Y-55950000D02*
X35800000Y-55950000D01*
X31790000Y-53950000D02*
X35800000Y-53950000D01*
X31790000Y-53950000D02*
X31790000Y-55950000D01*
%TO.C,D9*%
X65790000Y-55950000D02*
X69800000Y-55950000D01*
X65790000Y-53950000D02*
X69800000Y-53950000D01*
X65790000Y-53950000D02*
X65790000Y-55950000D01*
%TO.C,D10*%
X82790000Y-55950000D02*
X86800000Y-55950000D01*
X82790000Y-53950000D02*
X86800000Y-53950000D01*
X82790000Y-53950000D02*
X82790000Y-55950000D01*
%TO.C,D15*%
X65790000Y-72950000D02*
X69800000Y-72950000D01*
X65790000Y-70950000D02*
X69800000Y-70950000D01*
X65790000Y-70950000D02*
X65790000Y-72950000D01*
%TO.C,D22*%
X82790000Y-89950000D02*
X86800000Y-89950000D01*
X82790000Y-87950000D02*
X86800000Y-87950000D01*
X82790000Y-87950000D02*
X82790000Y-89950000D01*
%TO.C,D14*%
X48790000Y-72950000D02*
X52800000Y-72950000D01*
X48790000Y-70950000D02*
X52800000Y-70950000D01*
X48790000Y-70950000D02*
X48790000Y-72950000D01*
%TO.C,D16*%
X82790000Y-72950000D02*
X86800000Y-72950000D01*
X82790000Y-70950000D02*
X86800000Y-70950000D01*
X82790000Y-70950000D02*
X82790000Y-72950000D01*
%TO.C,D5*%
X99790000Y-38950000D02*
X103800000Y-38950000D01*
X99790000Y-36950000D02*
X103800000Y-36950000D01*
X99790000Y-36950000D02*
X99790000Y-38950000D01*
%TO.C,D13*%
X31790000Y-72950000D02*
X35800000Y-72950000D01*
X31790000Y-70950000D02*
X35800000Y-70950000D01*
X31790000Y-70950000D02*
X31790000Y-72950000D01*
%TO.C,D8*%
X48790000Y-55950000D02*
X52800000Y-55950000D01*
X48790000Y-53950000D02*
X52800000Y-53950000D01*
X48790000Y-53950000D02*
X48790000Y-55950000D01*
%TO.C,D29*%
X99790000Y-106950000D02*
X103800000Y-106950000D01*
X99790000Y-104950000D02*
X103800000Y-104950000D01*
X99790000Y-104950000D02*
X99790000Y-106950000D01*
%TO.C,D2*%
X48790000Y-38950000D02*
X52800000Y-38950000D01*
X48790000Y-36950000D02*
X52800000Y-36950000D01*
X48790000Y-36950000D02*
X48790000Y-38950000D01*
%TO.C,D4*%
X82790000Y-38950000D02*
X86800000Y-38950000D01*
X82790000Y-36950000D02*
X86800000Y-36950000D01*
X82790000Y-36950000D02*
X82790000Y-38950000D01*
%TO.C,D26*%
X48790000Y-106950000D02*
X52800000Y-106950000D01*
X48790000Y-104950000D02*
X52800000Y-104950000D01*
X48790000Y-104950000D02*
X48790000Y-106950000D01*
%TO.C,D3*%
X65790000Y-38950000D02*
X69800000Y-38950000D01*
X65790000Y-36950000D02*
X69800000Y-36950000D01*
X65790000Y-36950000D02*
X65790000Y-38950000D01*
%TO.C,D28*%
X82790000Y-106950000D02*
X86800000Y-106950000D01*
X82790000Y-104950000D02*
X86800000Y-104950000D01*
X82790000Y-104950000D02*
X82790000Y-106950000D01*
%TO.C,D6*%
X116790000Y-38950000D02*
X120800000Y-38950000D01*
X116790000Y-36950000D02*
X120800000Y-36950000D01*
X116790000Y-36950000D02*
X116790000Y-38950000D01*
%TO.C,D23*%
X99790000Y-89950000D02*
X103800000Y-89950000D01*
X99790000Y-87950000D02*
X103800000Y-87950000D01*
X99790000Y-87950000D02*
X99790000Y-89950000D01*
%TO.C,D12*%
X116790000Y-55950000D02*
X120800000Y-55950000D01*
X116790000Y-53950000D02*
X120800000Y-53950000D01*
X116790000Y-53950000D02*
X116790000Y-55950000D01*
%TO.C,D24*%
X116790000Y-89950000D02*
X120800000Y-89950000D01*
X116790000Y-87950000D02*
X120800000Y-87950000D01*
X116790000Y-87950000D02*
X116790000Y-89950000D01*
%TO.C,D30*%
X116790000Y-106950000D02*
X120800000Y-106950000D01*
X116790000Y-104950000D02*
X120800000Y-104950000D01*
X116790000Y-104950000D02*
X116790000Y-106950000D01*
%TO.C,D20*%
X48790000Y-89950000D02*
X52800000Y-89950000D01*
X48790000Y-87950000D02*
X52800000Y-87950000D01*
X48790000Y-87950000D02*
X48790000Y-89950000D01*
%TO.C,D11*%
X99790000Y-55950000D02*
X103800000Y-55950000D01*
X99790000Y-53950000D02*
X103800000Y-53950000D01*
X99790000Y-53950000D02*
X99790000Y-55950000D01*
%TO.C,D1*%
X31790000Y-38950000D02*
X35800000Y-38950000D01*
X31790000Y-36950000D02*
X35800000Y-36950000D01*
X31790000Y-36950000D02*
X31790000Y-38950000D01*
%TO.C,D17*%
X99790000Y-72950000D02*
X103800000Y-72950000D01*
X99790000Y-70950000D02*
X103800000Y-70950000D01*
X99790000Y-70950000D02*
X99790000Y-72950000D01*
%TO.C,D19*%
X31790000Y-89950000D02*
X35800000Y-89950000D01*
X31790000Y-87950000D02*
X35800000Y-87950000D01*
X31790000Y-87950000D02*
X31790000Y-89950000D01*
%TO.C,D21*%
X65790000Y-89950000D02*
X69800000Y-89950000D01*
X65790000Y-87950000D02*
X69800000Y-87950000D01*
X65790000Y-87950000D02*
X65790000Y-89950000D01*
%TO.C,D25*%
X31790000Y-106950000D02*
X35800000Y-106950000D01*
X31790000Y-104950000D02*
X35800000Y-104950000D01*
X31790000Y-104950000D02*
X31790000Y-106950000D01*
%TO.C,SW7*%
X26354000Y-48704000D02*
X26354000Y-49646000D01*
X26354000Y-49646000D02*
X30440000Y-49646000D01*
X26717000Y-48704000D02*
X26354000Y-48704000D01*
X26719000Y-45391000D02*
X26634000Y-45818000D01*
X26908000Y-45108000D02*
X26719000Y-45391000D01*
X27191000Y-44919000D02*
X26908000Y-45108000D01*
X27518000Y-44854000D02*
X27191000Y-44919000D01*
X30318000Y-44854000D02*
X27518000Y-44854000D01*
X30440000Y-49646000D02*
X30750000Y-49587000D01*
X30750000Y-49587000D02*
X31024000Y-49417000D01*
X30756000Y-44767000D02*
X30318000Y-44854000D01*
X31024000Y-49417000D02*
X31217000Y-49159000D01*
X31123000Y-44523000D02*
X30756000Y-44767000D01*
X31217000Y-49159000D02*
X31299000Y-48861000D01*
X31299000Y-48861000D02*
X31453000Y-48303000D01*
X31367000Y-44156000D02*
X31123000Y-44523000D01*
X31453000Y-48303000D02*
X31791000Y-47850000D01*
X31454000Y-43496000D02*
X31454000Y-43718000D01*
X31454000Y-43718000D02*
X31367000Y-44156000D01*
X31791000Y-47850000D02*
X32270000Y-47551000D01*
X31987000Y-42963000D02*
X31454000Y-43496000D01*
X32270000Y-47551000D02*
X32832000Y-47446000D01*
X32329000Y-42734000D02*
X31987000Y-42963000D01*
X32732000Y-42654000D02*
X32329000Y-42734000D01*
X32832000Y-47446000D02*
X35479000Y-47446000D01*
X35479000Y-42654000D02*
X32732000Y-42654000D01*
X35479000Y-47446000D02*
X36500000Y-46425000D01*
X36416000Y-43591000D02*
X35479000Y-42654000D01*
%TO.C,SW6*%
X111354000Y-31704000D02*
X111354000Y-32646000D01*
X111354000Y-32646000D02*
X115440000Y-32646000D01*
X111717000Y-31704000D02*
X111354000Y-31704000D01*
X111719000Y-28391000D02*
X111634000Y-28818000D01*
X111908000Y-28108000D02*
X111719000Y-28391000D01*
X112191000Y-27919000D02*
X111908000Y-28108000D01*
X112518000Y-27854000D02*
X112191000Y-27919000D01*
X115318000Y-27854000D02*
X112518000Y-27854000D01*
X115440000Y-32646000D02*
X115750000Y-32587000D01*
X115750000Y-32587000D02*
X116024000Y-32417000D01*
X115756000Y-27767000D02*
X115318000Y-27854000D01*
X116024000Y-32417000D02*
X116217000Y-32159000D01*
X116123000Y-27523000D02*
X115756000Y-27767000D01*
X116217000Y-32159000D02*
X116299000Y-31861000D01*
X116299000Y-31861000D02*
X116453000Y-31303000D01*
X116367000Y-27156000D02*
X116123000Y-27523000D01*
X116453000Y-31303000D02*
X116791000Y-30850000D01*
X116454000Y-26496000D02*
X116454000Y-26718000D01*
X116454000Y-26718000D02*
X116367000Y-27156000D01*
X116791000Y-30850000D02*
X117270000Y-30551000D01*
X116987000Y-25963000D02*
X116454000Y-26496000D01*
X117270000Y-30551000D02*
X117832000Y-30446000D01*
X117329000Y-25734000D02*
X116987000Y-25963000D01*
X117732000Y-25654000D02*
X117329000Y-25734000D01*
X117832000Y-30446000D02*
X120479000Y-30446000D01*
X120479000Y-25654000D02*
X117732000Y-25654000D01*
X120479000Y-30446000D02*
X121500000Y-29425000D01*
X121416000Y-26591000D02*
X120479000Y-25654000D01*
%TO.C,SW19*%
X26354000Y-82704000D02*
X26354000Y-83646000D01*
X26354000Y-83646000D02*
X30440000Y-83646000D01*
X26717000Y-82704000D02*
X26354000Y-82704000D01*
X26719000Y-79391000D02*
X26634000Y-79818000D01*
X26908000Y-79108000D02*
X26719000Y-79391000D01*
X27191000Y-78919000D02*
X26908000Y-79108000D01*
X27518000Y-78854000D02*
X27191000Y-78919000D01*
X30318000Y-78854000D02*
X27518000Y-78854000D01*
X30440000Y-83646000D02*
X30750000Y-83587000D01*
X30750000Y-83587000D02*
X31024000Y-83417000D01*
X30756000Y-78767000D02*
X30318000Y-78854000D01*
X31024000Y-83417000D02*
X31217000Y-83159000D01*
X31123000Y-78523000D02*
X30756000Y-78767000D01*
X31217000Y-83159000D02*
X31299000Y-82861000D01*
X31299000Y-82861000D02*
X31453000Y-82303000D01*
X31367000Y-78156000D02*
X31123000Y-78523000D01*
X31453000Y-82303000D02*
X31791000Y-81850000D01*
X31454000Y-77496000D02*
X31454000Y-77718000D01*
X31454000Y-77718000D02*
X31367000Y-78156000D01*
X31791000Y-81850000D02*
X32270000Y-81551000D01*
X31987000Y-76963000D02*
X31454000Y-77496000D01*
X32270000Y-81551000D02*
X32832000Y-81446000D01*
X32329000Y-76734000D02*
X31987000Y-76963000D01*
X32732000Y-76654000D02*
X32329000Y-76734000D01*
X32832000Y-81446000D02*
X35479000Y-81446000D01*
X35479000Y-76654000D02*
X32732000Y-76654000D01*
X35479000Y-81446000D02*
X36500000Y-80425000D01*
X36416000Y-77591000D02*
X35479000Y-76654000D01*
%TO.C,SW10*%
X77354000Y-48704000D02*
X77354000Y-49646000D01*
X77354000Y-49646000D02*
X81440000Y-49646000D01*
X77717000Y-48704000D02*
X77354000Y-48704000D01*
X77719000Y-45391000D02*
X77634000Y-45818000D01*
X77908000Y-45108000D02*
X77719000Y-45391000D01*
X78191000Y-44919000D02*
X77908000Y-45108000D01*
X78518000Y-44854000D02*
X78191000Y-44919000D01*
X81318000Y-44854000D02*
X78518000Y-44854000D01*
X81440000Y-49646000D02*
X81750000Y-49587000D01*
X81750000Y-49587000D02*
X82024000Y-49417000D01*
X81756000Y-44767000D02*
X81318000Y-44854000D01*
X82024000Y-49417000D02*
X82217000Y-49159000D01*
X82123000Y-44523000D02*
X81756000Y-44767000D01*
X82217000Y-49159000D02*
X82299000Y-48861000D01*
X82299000Y-48861000D02*
X82453000Y-48303000D01*
X82367000Y-44156000D02*
X82123000Y-44523000D01*
X82453000Y-48303000D02*
X82791000Y-47850000D01*
X82454000Y-43496000D02*
X82454000Y-43718000D01*
X82454000Y-43718000D02*
X82367000Y-44156000D01*
X82791000Y-47850000D02*
X83270000Y-47551000D01*
X82987000Y-42963000D02*
X82454000Y-43496000D01*
X83270000Y-47551000D02*
X83832000Y-47446000D01*
X83329000Y-42734000D02*
X82987000Y-42963000D01*
X83732000Y-42654000D02*
X83329000Y-42734000D01*
X83832000Y-47446000D02*
X86479000Y-47446000D01*
X86479000Y-42654000D02*
X83732000Y-42654000D01*
X86479000Y-47446000D02*
X87500000Y-46425000D01*
X87416000Y-43591000D02*
X86479000Y-42654000D01*
%TO.C,SW25*%
X26354000Y-99704000D02*
X26354000Y-100646000D01*
X26354000Y-100646000D02*
X30440000Y-100646000D01*
X26717000Y-99704000D02*
X26354000Y-99704000D01*
X26719000Y-96391000D02*
X26634000Y-96818000D01*
X26908000Y-96108000D02*
X26719000Y-96391000D01*
X27191000Y-95919000D02*
X26908000Y-96108000D01*
X27518000Y-95854000D02*
X27191000Y-95919000D01*
X30318000Y-95854000D02*
X27518000Y-95854000D01*
X30440000Y-100646000D02*
X30750000Y-100587000D01*
X30750000Y-100587000D02*
X31024000Y-100417000D01*
X30756000Y-95767000D02*
X30318000Y-95854000D01*
X31024000Y-100417000D02*
X31217000Y-100159000D01*
X31123000Y-95523000D02*
X30756000Y-95767000D01*
X31217000Y-100159000D02*
X31299000Y-99861000D01*
X31299000Y-99861000D02*
X31453000Y-99303000D01*
X31367000Y-95156000D02*
X31123000Y-95523000D01*
X31453000Y-99303000D02*
X31791000Y-98850000D01*
X31454000Y-94496000D02*
X31454000Y-94718000D01*
X31454000Y-94718000D02*
X31367000Y-95156000D01*
X31791000Y-98850000D02*
X32270000Y-98551000D01*
X31987000Y-93963000D02*
X31454000Y-94496000D01*
X32270000Y-98551000D02*
X32832000Y-98446000D01*
X32329000Y-93734000D02*
X31987000Y-93963000D01*
X32732000Y-93654000D02*
X32329000Y-93734000D01*
X32832000Y-98446000D02*
X35479000Y-98446000D01*
X35479000Y-93654000D02*
X32732000Y-93654000D01*
X35479000Y-98446000D02*
X36500000Y-97425000D01*
X36416000Y-94591000D02*
X35479000Y-93654000D01*
%TO.C,SW16*%
X77354000Y-65704000D02*
X77354000Y-66646000D01*
X77354000Y-66646000D02*
X81440000Y-66646000D01*
X77717000Y-65704000D02*
X77354000Y-65704000D01*
X77719000Y-62391000D02*
X77634000Y-62818000D01*
X77908000Y-62108000D02*
X77719000Y-62391000D01*
X78191000Y-61919000D02*
X77908000Y-62108000D01*
X78518000Y-61854000D02*
X78191000Y-61919000D01*
X81318000Y-61854000D02*
X78518000Y-61854000D01*
X81440000Y-66646000D02*
X81750000Y-66587000D01*
X81750000Y-66587000D02*
X82024000Y-66417000D01*
X81756000Y-61767000D02*
X81318000Y-61854000D01*
X82024000Y-66417000D02*
X82217000Y-66159000D01*
X82123000Y-61523000D02*
X81756000Y-61767000D01*
X82217000Y-66159000D02*
X82299000Y-65861000D01*
X82299000Y-65861000D02*
X82453000Y-65303000D01*
X82367000Y-61156000D02*
X82123000Y-61523000D01*
X82453000Y-65303000D02*
X82791000Y-64850000D01*
X82454000Y-60496000D02*
X82454000Y-60718000D01*
X82454000Y-60718000D02*
X82367000Y-61156000D01*
X82791000Y-64850000D02*
X83270000Y-64551000D01*
X82987000Y-59963000D02*
X82454000Y-60496000D01*
X83270000Y-64551000D02*
X83832000Y-64446000D01*
X83329000Y-59734000D02*
X82987000Y-59963000D01*
X83732000Y-59654000D02*
X83329000Y-59734000D01*
X83832000Y-64446000D02*
X86479000Y-64446000D01*
X86479000Y-59654000D02*
X83732000Y-59654000D01*
X86479000Y-64446000D02*
X87500000Y-63425000D01*
X87416000Y-60591000D02*
X86479000Y-59654000D01*
%TO.C,SW18*%
X111354000Y-65704000D02*
X111354000Y-66646000D01*
X111354000Y-66646000D02*
X115440000Y-66646000D01*
X111717000Y-65704000D02*
X111354000Y-65704000D01*
X111719000Y-62391000D02*
X111634000Y-62818000D01*
X111908000Y-62108000D02*
X111719000Y-62391000D01*
X112191000Y-61919000D02*
X111908000Y-62108000D01*
X112518000Y-61854000D02*
X112191000Y-61919000D01*
X115318000Y-61854000D02*
X112518000Y-61854000D01*
X115440000Y-66646000D02*
X115750000Y-66587000D01*
X115750000Y-66587000D02*
X116024000Y-66417000D01*
X115756000Y-61767000D02*
X115318000Y-61854000D01*
X116024000Y-66417000D02*
X116217000Y-66159000D01*
X116123000Y-61523000D02*
X115756000Y-61767000D01*
X116217000Y-66159000D02*
X116299000Y-65861000D01*
X116299000Y-65861000D02*
X116453000Y-65303000D01*
X116367000Y-61156000D02*
X116123000Y-61523000D01*
X116453000Y-65303000D02*
X116791000Y-64850000D01*
X116454000Y-60496000D02*
X116454000Y-60718000D01*
X116454000Y-60718000D02*
X116367000Y-61156000D01*
X116791000Y-64850000D02*
X117270000Y-64551000D01*
X116987000Y-59963000D02*
X116454000Y-60496000D01*
X117270000Y-64551000D02*
X117832000Y-64446000D01*
X117329000Y-59734000D02*
X116987000Y-59963000D01*
X117732000Y-59654000D02*
X117329000Y-59734000D01*
X117832000Y-64446000D02*
X120479000Y-64446000D01*
X120479000Y-59654000D02*
X117732000Y-59654000D01*
X120479000Y-64446000D02*
X121500000Y-63425000D01*
X121416000Y-60591000D02*
X120479000Y-59654000D01*
%TO.C,SW27*%
X60354000Y-99704000D02*
X60354000Y-100646000D01*
X60354000Y-100646000D02*
X64440000Y-100646000D01*
X60717000Y-99704000D02*
X60354000Y-99704000D01*
X60719000Y-96391000D02*
X60634000Y-96818000D01*
X60908000Y-96108000D02*
X60719000Y-96391000D01*
X61191000Y-95919000D02*
X60908000Y-96108000D01*
X61518000Y-95854000D02*
X61191000Y-95919000D01*
X64318000Y-95854000D02*
X61518000Y-95854000D01*
X64440000Y-100646000D02*
X64750000Y-100587000D01*
X64750000Y-100587000D02*
X65024000Y-100417000D01*
X64756000Y-95767000D02*
X64318000Y-95854000D01*
X65024000Y-100417000D02*
X65217000Y-100159000D01*
X65123000Y-95523000D02*
X64756000Y-95767000D01*
X65217000Y-100159000D02*
X65299000Y-99861000D01*
X65299000Y-99861000D02*
X65453000Y-99303000D01*
X65367000Y-95156000D02*
X65123000Y-95523000D01*
X65453000Y-99303000D02*
X65791000Y-98850000D01*
X65454000Y-94496000D02*
X65454000Y-94718000D01*
X65454000Y-94718000D02*
X65367000Y-95156000D01*
X65791000Y-98850000D02*
X66270000Y-98551000D01*
X65987000Y-93963000D02*
X65454000Y-94496000D01*
X66270000Y-98551000D02*
X66832000Y-98446000D01*
X66329000Y-93734000D02*
X65987000Y-93963000D01*
X66732000Y-93654000D02*
X66329000Y-93734000D01*
X66832000Y-98446000D02*
X69479000Y-98446000D01*
X69479000Y-93654000D02*
X66732000Y-93654000D01*
X69479000Y-98446000D02*
X70500000Y-97425000D01*
X70416000Y-94591000D02*
X69479000Y-93654000D01*
%TO.C,SW2*%
X43354000Y-31704000D02*
X43354000Y-32646000D01*
X43354000Y-32646000D02*
X47440000Y-32646000D01*
X43717000Y-31704000D02*
X43354000Y-31704000D01*
X43719000Y-28391000D02*
X43634000Y-28818000D01*
X43908000Y-28108000D02*
X43719000Y-28391000D01*
X44191000Y-27919000D02*
X43908000Y-28108000D01*
X44518000Y-27854000D02*
X44191000Y-27919000D01*
X47318000Y-27854000D02*
X44518000Y-27854000D01*
X47440000Y-32646000D02*
X47750000Y-32587000D01*
X47750000Y-32587000D02*
X48024000Y-32417000D01*
X47756000Y-27767000D02*
X47318000Y-27854000D01*
X48024000Y-32417000D02*
X48217000Y-32159000D01*
X48123000Y-27523000D02*
X47756000Y-27767000D01*
X48217000Y-32159000D02*
X48299000Y-31861000D01*
X48299000Y-31861000D02*
X48453000Y-31303000D01*
X48367000Y-27156000D02*
X48123000Y-27523000D01*
X48453000Y-31303000D02*
X48791000Y-30850000D01*
X48454000Y-26496000D02*
X48454000Y-26718000D01*
X48454000Y-26718000D02*
X48367000Y-27156000D01*
X48791000Y-30850000D02*
X49270000Y-30551000D01*
X48987000Y-25963000D02*
X48454000Y-26496000D01*
X49270000Y-30551000D02*
X49832000Y-30446000D01*
X49329000Y-25734000D02*
X48987000Y-25963000D01*
X49732000Y-25654000D02*
X49329000Y-25734000D01*
X49832000Y-30446000D02*
X52479000Y-30446000D01*
X52479000Y-25654000D02*
X49732000Y-25654000D01*
X52479000Y-30446000D02*
X53500000Y-29425000D01*
X53416000Y-26591000D02*
X52479000Y-25654000D01*
%TO.C,SW24*%
X111354000Y-82704000D02*
X111354000Y-83646000D01*
X111354000Y-83646000D02*
X115440000Y-83646000D01*
X111717000Y-82704000D02*
X111354000Y-82704000D01*
X111719000Y-79391000D02*
X111634000Y-79818000D01*
X111908000Y-79108000D02*
X111719000Y-79391000D01*
X112191000Y-78919000D02*
X111908000Y-79108000D01*
X112518000Y-78854000D02*
X112191000Y-78919000D01*
X115318000Y-78854000D02*
X112518000Y-78854000D01*
X115440000Y-83646000D02*
X115750000Y-83587000D01*
X115750000Y-83587000D02*
X116024000Y-83417000D01*
X115756000Y-78767000D02*
X115318000Y-78854000D01*
X116024000Y-83417000D02*
X116217000Y-83159000D01*
X116123000Y-78523000D02*
X115756000Y-78767000D01*
X116217000Y-83159000D02*
X116299000Y-82861000D01*
X116299000Y-82861000D02*
X116453000Y-82303000D01*
X116367000Y-78156000D02*
X116123000Y-78523000D01*
X116453000Y-82303000D02*
X116791000Y-81850000D01*
X116454000Y-77496000D02*
X116454000Y-77718000D01*
X116454000Y-77718000D02*
X116367000Y-78156000D01*
X116791000Y-81850000D02*
X117270000Y-81551000D01*
X116987000Y-76963000D02*
X116454000Y-77496000D01*
X117270000Y-81551000D02*
X117832000Y-81446000D01*
X117329000Y-76734000D02*
X116987000Y-76963000D01*
X117732000Y-76654000D02*
X117329000Y-76734000D01*
X117832000Y-81446000D02*
X120479000Y-81446000D01*
X120479000Y-76654000D02*
X117732000Y-76654000D01*
X120479000Y-81446000D02*
X121500000Y-80425000D01*
X121416000Y-77591000D02*
X120479000Y-76654000D01*
%TO.C,SW29*%
X94354000Y-99704000D02*
X94354000Y-100646000D01*
X94354000Y-100646000D02*
X98440000Y-100646000D01*
X94717000Y-99704000D02*
X94354000Y-99704000D01*
X94719000Y-96391000D02*
X94634000Y-96818000D01*
X94908000Y-96108000D02*
X94719000Y-96391000D01*
X95191000Y-95919000D02*
X94908000Y-96108000D01*
X95518000Y-95854000D02*
X95191000Y-95919000D01*
X98318000Y-95854000D02*
X95518000Y-95854000D01*
X98440000Y-100646000D02*
X98750000Y-100587000D01*
X98750000Y-100587000D02*
X99024000Y-100417000D01*
X98756000Y-95767000D02*
X98318000Y-95854000D01*
X99024000Y-100417000D02*
X99217000Y-100159000D01*
X99123000Y-95523000D02*
X98756000Y-95767000D01*
X99217000Y-100159000D02*
X99299000Y-99861000D01*
X99299000Y-99861000D02*
X99453000Y-99303000D01*
X99367000Y-95156000D02*
X99123000Y-95523000D01*
X99453000Y-99303000D02*
X99791000Y-98850000D01*
X99454000Y-94496000D02*
X99454000Y-94718000D01*
X99454000Y-94718000D02*
X99367000Y-95156000D01*
X99791000Y-98850000D02*
X100270000Y-98551000D01*
X99987000Y-93963000D02*
X99454000Y-94496000D01*
X100270000Y-98551000D02*
X100832000Y-98446000D01*
X100329000Y-93734000D02*
X99987000Y-93963000D01*
X100732000Y-93654000D02*
X100329000Y-93734000D01*
X100832000Y-98446000D02*
X103479000Y-98446000D01*
X103479000Y-93654000D02*
X100732000Y-93654000D01*
X103479000Y-98446000D02*
X104500000Y-97425000D01*
X104416000Y-94591000D02*
X103479000Y-93654000D01*
%TO.C,SW5*%
X94354000Y-31704000D02*
X94354000Y-32646000D01*
X94354000Y-32646000D02*
X98440000Y-32646000D01*
X94717000Y-31704000D02*
X94354000Y-31704000D01*
X94719000Y-28391000D02*
X94634000Y-28818000D01*
X94908000Y-28108000D02*
X94719000Y-28391000D01*
X95191000Y-27919000D02*
X94908000Y-28108000D01*
X95518000Y-27854000D02*
X95191000Y-27919000D01*
X98318000Y-27854000D02*
X95518000Y-27854000D01*
X98440000Y-32646000D02*
X98750000Y-32587000D01*
X98750000Y-32587000D02*
X99024000Y-32417000D01*
X98756000Y-27767000D02*
X98318000Y-27854000D01*
X99024000Y-32417000D02*
X99217000Y-32159000D01*
X99123000Y-27523000D02*
X98756000Y-27767000D01*
X99217000Y-32159000D02*
X99299000Y-31861000D01*
X99299000Y-31861000D02*
X99453000Y-31303000D01*
X99367000Y-27156000D02*
X99123000Y-27523000D01*
X99453000Y-31303000D02*
X99791000Y-30850000D01*
X99454000Y-26496000D02*
X99454000Y-26718000D01*
X99454000Y-26718000D02*
X99367000Y-27156000D01*
X99791000Y-30850000D02*
X100270000Y-30551000D01*
X99987000Y-25963000D02*
X99454000Y-26496000D01*
X100270000Y-30551000D02*
X100832000Y-30446000D01*
X100329000Y-25734000D02*
X99987000Y-25963000D01*
X100732000Y-25654000D02*
X100329000Y-25734000D01*
X100832000Y-30446000D02*
X103479000Y-30446000D01*
X103479000Y-25654000D02*
X100732000Y-25654000D01*
X103479000Y-30446000D02*
X104500000Y-29425000D01*
X104416000Y-26591000D02*
X103479000Y-25654000D01*
%TO.C,SW8*%
X43354000Y-48704000D02*
X43354000Y-49646000D01*
X43354000Y-49646000D02*
X47440000Y-49646000D01*
X43717000Y-48704000D02*
X43354000Y-48704000D01*
X43719000Y-45391000D02*
X43634000Y-45818000D01*
X43908000Y-45108000D02*
X43719000Y-45391000D01*
X44191000Y-44919000D02*
X43908000Y-45108000D01*
X44518000Y-44854000D02*
X44191000Y-44919000D01*
X47318000Y-44854000D02*
X44518000Y-44854000D01*
X47440000Y-49646000D02*
X47750000Y-49587000D01*
X47750000Y-49587000D02*
X48024000Y-49417000D01*
X47756000Y-44767000D02*
X47318000Y-44854000D01*
X48024000Y-49417000D02*
X48217000Y-49159000D01*
X48123000Y-44523000D02*
X47756000Y-44767000D01*
X48217000Y-49159000D02*
X48299000Y-48861000D01*
X48299000Y-48861000D02*
X48453000Y-48303000D01*
X48367000Y-44156000D02*
X48123000Y-44523000D01*
X48453000Y-48303000D02*
X48791000Y-47850000D01*
X48454000Y-43496000D02*
X48454000Y-43718000D01*
X48454000Y-43718000D02*
X48367000Y-44156000D01*
X48791000Y-47850000D02*
X49270000Y-47551000D01*
X48987000Y-42963000D02*
X48454000Y-43496000D01*
X49270000Y-47551000D02*
X49832000Y-47446000D01*
X49329000Y-42734000D02*
X48987000Y-42963000D01*
X49732000Y-42654000D02*
X49329000Y-42734000D01*
X49832000Y-47446000D02*
X52479000Y-47446000D01*
X52479000Y-42654000D02*
X49732000Y-42654000D01*
X52479000Y-47446000D02*
X53500000Y-46425000D01*
X53416000Y-43591000D02*
X52479000Y-42654000D01*
%TO.C,SW23*%
X94354000Y-82704000D02*
X94354000Y-83646000D01*
X94354000Y-83646000D02*
X98440000Y-83646000D01*
X94717000Y-82704000D02*
X94354000Y-82704000D01*
X94719000Y-79391000D02*
X94634000Y-79818000D01*
X94908000Y-79108000D02*
X94719000Y-79391000D01*
X95191000Y-78919000D02*
X94908000Y-79108000D01*
X95518000Y-78854000D02*
X95191000Y-78919000D01*
X98318000Y-78854000D02*
X95518000Y-78854000D01*
X98440000Y-83646000D02*
X98750000Y-83587000D01*
X98750000Y-83587000D02*
X99024000Y-83417000D01*
X98756000Y-78767000D02*
X98318000Y-78854000D01*
X99024000Y-83417000D02*
X99217000Y-83159000D01*
X99123000Y-78523000D02*
X98756000Y-78767000D01*
X99217000Y-83159000D02*
X99299000Y-82861000D01*
X99299000Y-82861000D02*
X99453000Y-82303000D01*
X99367000Y-78156000D02*
X99123000Y-78523000D01*
X99453000Y-82303000D02*
X99791000Y-81850000D01*
X99454000Y-77496000D02*
X99454000Y-77718000D01*
X99454000Y-77718000D02*
X99367000Y-78156000D01*
X99791000Y-81850000D02*
X100270000Y-81551000D01*
X99987000Y-76963000D02*
X99454000Y-77496000D01*
X100270000Y-81551000D02*
X100832000Y-81446000D01*
X100329000Y-76734000D02*
X99987000Y-76963000D01*
X100732000Y-76654000D02*
X100329000Y-76734000D01*
X100832000Y-81446000D02*
X103479000Y-81446000D01*
X103479000Y-76654000D02*
X100732000Y-76654000D01*
X103479000Y-81446000D02*
X104500000Y-80425000D01*
X104416000Y-77591000D02*
X103479000Y-76654000D01*
%TO.C,SW13*%
X26354000Y-65704000D02*
X26354000Y-66646000D01*
X26354000Y-66646000D02*
X30440000Y-66646000D01*
X26717000Y-65704000D02*
X26354000Y-65704000D01*
X26719000Y-62391000D02*
X26634000Y-62818000D01*
X26908000Y-62108000D02*
X26719000Y-62391000D01*
X27191000Y-61919000D02*
X26908000Y-62108000D01*
X27518000Y-61854000D02*
X27191000Y-61919000D01*
X30318000Y-61854000D02*
X27518000Y-61854000D01*
X30440000Y-66646000D02*
X30750000Y-66587000D01*
X30750000Y-66587000D02*
X31024000Y-66417000D01*
X30756000Y-61767000D02*
X30318000Y-61854000D01*
X31024000Y-66417000D02*
X31217000Y-66159000D01*
X31123000Y-61523000D02*
X30756000Y-61767000D01*
X31217000Y-66159000D02*
X31299000Y-65861000D01*
X31299000Y-65861000D02*
X31453000Y-65303000D01*
X31367000Y-61156000D02*
X31123000Y-61523000D01*
X31453000Y-65303000D02*
X31791000Y-64850000D01*
X31454000Y-60496000D02*
X31454000Y-60718000D01*
X31454000Y-60718000D02*
X31367000Y-61156000D01*
X31791000Y-64850000D02*
X32270000Y-64551000D01*
X31987000Y-59963000D02*
X31454000Y-60496000D01*
X32270000Y-64551000D02*
X32832000Y-64446000D01*
X32329000Y-59734000D02*
X31987000Y-59963000D01*
X32732000Y-59654000D02*
X32329000Y-59734000D01*
X32832000Y-64446000D02*
X35479000Y-64446000D01*
X35479000Y-59654000D02*
X32732000Y-59654000D01*
X35479000Y-64446000D02*
X36500000Y-63425000D01*
X36416000Y-60591000D02*
X35479000Y-59654000D01*
%TO.C,SW9*%
X60354000Y-48704000D02*
X60354000Y-49646000D01*
X60354000Y-49646000D02*
X64440000Y-49646000D01*
X60717000Y-48704000D02*
X60354000Y-48704000D01*
X60719000Y-45391000D02*
X60634000Y-45818000D01*
X60908000Y-45108000D02*
X60719000Y-45391000D01*
X61191000Y-44919000D02*
X60908000Y-45108000D01*
X61518000Y-44854000D02*
X61191000Y-44919000D01*
X64318000Y-44854000D02*
X61518000Y-44854000D01*
X64440000Y-49646000D02*
X64750000Y-49587000D01*
X64750000Y-49587000D02*
X65024000Y-49417000D01*
X64756000Y-44767000D02*
X64318000Y-44854000D01*
X65024000Y-49417000D02*
X65217000Y-49159000D01*
X65123000Y-44523000D02*
X64756000Y-44767000D01*
X65217000Y-49159000D02*
X65299000Y-48861000D01*
X65299000Y-48861000D02*
X65453000Y-48303000D01*
X65367000Y-44156000D02*
X65123000Y-44523000D01*
X65453000Y-48303000D02*
X65791000Y-47850000D01*
X65454000Y-43496000D02*
X65454000Y-43718000D01*
X65454000Y-43718000D02*
X65367000Y-44156000D01*
X65791000Y-47850000D02*
X66270000Y-47551000D01*
X65987000Y-42963000D02*
X65454000Y-43496000D01*
X66270000Y-47551000D02*
X66832000Y-47446000D01*
X66329000Y-42734000D02*
X65987000Y-42963000D01*
X66732000Y-42654000D02*
X66329000Y-42734000D01*
X66832000Y-47446000D02*
X69479000Y-47446000D01*
X69479000Y-42654000D02*
X66732000Y-42654000D01*
X69479000Y-47446000D02*
X70500000Y-46425000D01*
X70416000Y-43591000D02*
X69479000Y-42654000D01*
%TO.C,SW21*%
X60354000Y-82704000D02*
X60354000Y-83646000D01*
X60354000Y-83646000D02*
X64440000Y-83646000D01*
X60717000Y-82704000D02*
X60354000Y-82704000D01*
X60719000Y-79391000D02*
X60634000Y-79818000D01*
X60908000Y-79108000D02*
X60719000Y-79391000D01*
X61191000Y-78919000D02*
X60908000Y-79108000D01*
X61518000Y-78854000D02*
X61191000Y-78919000D01*
X64318000Y-78854000D02*
X61518000Y-78854000D01*
X64440000Y-83646000D02*
X64750000Y-83587000D01*
X64750000Y-83587000D02*
X65024000Y-83417000D01*
X64756000Y-78767000D02*
X64318000Y-78854000D01*
X65024000Y-83417000D02*
X65217000Y-83159000D01*
X65123000Y-78523000D02*
X64756000Y-78767000D01*
X65217000Y-83159000D02*
X65299000Y-82861000D01*
X65299000Y-82861000D02*
X65453000Y-82303000D01*
X65367000Y-78156000D02*
X65123000Y-78523000D01*
X65453000Y-82303000D02*
X65791000Y-81850000D01*
X65454000Y-77496000D02*
X65454000Y-77718000D01*
X65454000Y-77718000D02*
X65367000Y-78156000D01*
X65791000Y-81850000D02*
X66270000Y-81551000D01*
X65987000Y-76963000D02*
X65454000Y-77496000D01*
X66270000Y-81551000D02*
X66832000Y-81446000D01*
X66329000Y-76734000D02*
X65987000Y-76963000D01*
X66732000Y-76654000D02*
X66329000Y-76734000D01*
X66832000Y-81446000D02*
X69479000Y-81446000D01*
X69479000Y-76654000D02*
X66732000Y-76654000D01*
X69479000Y-81446000D02*
X70500000Y-80425000D01*
X70416000Y-77591000D02*
X69479000Y-76654000D01*
%TO.C,SW30*%
X111354000Y-99704000D02*
X111354000Y-100646000D01*
X111354000Y-100646000D02*
X115440000Y-100646000D01*
X111717000Y-99704000D02*
X111354000Y-99704000D01*
X111719000Y-96391000D02*
X111634000Y-96818000D01*
X111908000Y-96108000D02*
X111719000Y-96391000D01*
X112191000Y-95919000D02*
X111908000Y-96108000D01*
X112518000Y-95854000D02*
X112191000Y-95919000D01*
X115318000Y-95854000D02*
X112518000Y-95854000D01*
X115440000Y-100646000D02*
X115750000Y-100587000D01*
X115750000Y-100587000D02*
X116024000Y-100417000D01*
X115756000Y-95767000D02*
X115318000Y-95854000D01*
X116024000Y-100417000D02*
X116217000Y-100159000D01*
X116123000Y-95523000D02*
X115756000Y-95767000D01*
X116217000Y-100159000D02*
X116299000Y-99861000D01*
X116299000Y-99861000D02*
X116453000Y-99303000D01*
X116367000Y-95156000D02*
X116123000Y-95523000D01*
X116453000Y-99303000D02*
X116791000Y-98850000D01*
X116454000Y-94496000D02*
X116454000Y-94718000D01*
X116454000Y-94718000D02*
X116367000Y-95156000D01*
X116791000Y-98850000D02*
X117270000Y-98551000D01*
X116987000Y-93963000D02*
X116454000Y-94496000D01*
X117270000Y-98551000D02*
X117832000Y-98446000D01*
X117329000Y-93734000D02*
X116987000Y-93963000D01*
X117732000Y-93654000D02*
X117329000Y-93734000D01*
X117832000Y-98446000D02*
X120479000Y-98446000D01*
X120479000Y-93654000D02*
X117732000Y-93654000D01*
X120479000Y-98446000D02*
X121500000Y-97425000D01*
X121416000Y-94591000D02*
X120479000Y-93654000D01*
%TO.C,SW3*%
X60354000Y-31704000D02*
X60354000Y-32646000D01*
X60354000Y-32646000D02*
X64440000Y-32646000D01*
X60717000Y-31704000D02*
X60354000Y-31704000D01*
X60719000Y-28391000D02*
X60634000Y-28818000D01*
X60908000Y-28108000D02*
X60719000Y-28391000D01*
X61191000Y-27919000D02*
X60908000Y-28108000D01*
X61518000Y-27854000D02*
X61191000Y-27919000D01*
X64318000Y-27854000D02*
X61518000Y-27854000D01*
X64440000Y-32646000D02*
X64750000Y-32587000D01*
X64750000Y-32587000D02*
X65024000Y-32417000D01*
X64756000Y-27767000D02*
X64318000Y-27854000D01*
X65024000Y-32417000D02*
X65217000Y-32159000D01*
X65123000Y-27523000D02*
X64756000Y-27767000D01*
X65217000Y-32159000D02*
X65299000Y-31861000D01*
X65299000Y-31861000D02*
X65453000Y-31303000D01*
X65367000Y-27156000D02*
X65123000Y-27523000D01*
X65453000Y-31303000D02*
X65791000Y-30850000D01*
X65454000Y-26496000D02*
X65454000Y-26718000D01*
X65454000Y-26718000D02*
X65367000Y-27156000D01*
X65791000Y-30850000D02*
X66270000Y-30551000D01*
X65987000Y-25963000D02*
X65454000Y-26496000D01*
X66270000Y-30551000D02*
X66832000Y-30446000D01*
X66329000Y-25734000D02*
X65987000Y-25963000D01*
X66732000Y-25654000D02*
X66329000Y-25734000D01*
X66832000Y-30446000D02*
X69479000Y-30446000D01*
X69479000Y-25654000D02*
X66732000Y-25654000D01*
X69479000Y-30446000D02*
X70500000Y-29425000D01*
X70416000Y-26591000D02*
X69479000Y-25654000D01*
%TO.C,SW4*%
X77354000Y-31704000D02*
X77354000Y-32646000D01*
X77354000Y-32646000D02*
X81440000Y-32646000D01*
X77717000Y-31704000D02*
X77354000Y-31704000D01*
X77719000Y-28391000D02*
X77634000Y-28818000D01*
X77908000Y-28108000D02*
X77719000Y-28391000D01*
X78191000Y-27919000D02*
X77908000Y-28108000D01*
X78518000Y-27854000D02*
X78191000Y-27919000D01*
X81318000Y-27854000D02*
X78518000Y-27854000D01*
X81440000Y-32646000D02*
X81750000Y-32587000D01*
X81750000Y-32587000D02*
X82024000Y-32417000D01*
X81756000Y-27767000D02*
X81318000Y-27854000D01*
X82024000Y-32417000D02*
X82217000Y-32159000D01*
X82123000Y-27523000D02*
X81756000Y-27767000D01*
X82217000Y-32159000D02*
X82299000Y-31861000D01*
X82299000Y-31861000D02*
X82453000Y-31303000D01*
X82367000Y-27156000D02*
X82123000Y-27523000D01*
X82453000Y-31303000D02*
X82791000Y-30850000D01*
X82454000Y-26496000D02*
X82454000Y-26718000D01*
X82454000Y-26718000D02*
X82367000Y-27156000D01*
X82791000Y-30850000D02*
X83270000Y-30551000D01*
X82987000Y-25963000D02*
X82454000Y-26496000D01*
X83270000Y-30551000D02*
X83832000Y-30446000D01*
X83329000Y-25734000D02*
X82987000Y-25963000D01*
X83732000Y-25654000D02*
X83329000Y-25734000D01*
X83832000Y-30446000D02*
X86479000Y-30446000D01*
X86479000Y-25654000D02*
X83732000Y-25654000D01*
X86479000Y-30446000D02*
X87500000Y-29425000D01*
X87416000Y-26591000D02*
X86479000Y-25654000D01*
%TO.C,SW22*%
X77354000Y-82704000D02*
X77354000Y-83646000D01*
X77354000Y-83646000D02*
X81440000Y-83646000D01*
X77717000Y-82704000D02*
X77354000Y-82704000D01*
X77719000Y-79391000D02*
X77634000Y-79818000D01*
X77908000Y-79108000D02*
X77719000Y-79391000D01*
X78191000Y-78919000D02*
X77908000Y-79108000D01*
X78518000Y-78854000D02*
X78191000Y-78919000D01*
X81318000Y-78854000D02*
X78518000Y-78854000D01*
X81440000Y-83646000D02*
X81750000Y-83587000D01*
X81750000Y-83587000D02*
X82024000Y-83417000D01*
X81756000Y-78767000D02*
X81318000Y-78854000D01*
X82024000Y-83417000D02*
X82217000Y-83159000D01*
X82123000Y-78523000D02*
X81756000Y-78767000D01*
X82217000Y-83159000D02*
X82299000Y-82861000D01*
X82299000Y-82861000D02*
X82453000Y-82303000D01*
X82367000Y-78156000D02*
X82123000Y-78523000D01*
X82453000Y-82303000D02*
X82791000Y-81850000D01*
X82454000Y-77496000D02*
X82454000Y-77718000D01*
X82454000Y-77718000D02*
X82367000Y-78156000D01*
X82791000Y-81850000D02*
X83270000Y-81551000D01*
X82987000Y-76963000D02*
X82454000Y-77496000D01*
X83270000Y-81551000D02*
X83832000Y-81446000D01*
X83329000Y-76734000D02*
X82987000Y-76963000D01*
X83732000Y-76654000D02*
X83329000Y-76734000D01*
X83832000Y-81446000D02*
X86479000Y-81446000D01*
X86479000Y-76654000D02*
X83732000Y-76654000D01*
X86479000Y-81446000D02*
X87500000Y-80425000D01*
X87416000Y-77591000D02*
X86479000Y-76654000D01*
%TO.C,SW11*%
X94354000Y-48704000D02*
X94354000Y-49646000D01*
X94354000Y-49646000D02*
X98440000Y-49646000D01*
X94717000Y-48704000D02*
X94354000Y-48704000D01*
X94719000Y-45391000D02*
X94634000Y-45818000D01*
X94908000Y-45108000D02*
X94719000Y-45391000D01*
X95191000Y-44919000D02*
X94908000Y-45108000D01*
X95518000Y-44854000D02*
X95191000Y-44919000D01*
X98318000Y-44854000D02*
X95518000Y-44854000D01*
X98440000Y-49646000D02*
X98750000Y-49587000D01*
X98750000Y-49587000D02*
X99024000Y-49417000D01*
X98756000Y-44767000D02*
X98318000Y-44854000D01*
X99024000Y-49417000D02*
X99217000Y-49159000D01*
X99123000Y-44523000D02*
X98756000Y-44767000D01*
X99217000Y-49159000D02*
X99299000Y-48861000D01*
X99299000Y-48861000D02*
X99453000Y-48303000D01*
X99367000Y-44156000D02*
X99123000Y-44523000D01*
X99453000Y-48303000D02*
X99791000Y-47850000D01*
X99454000Y-43496000D02*
X99454000Y-43718000D01*
X99454000Y-43718000D02*
X99367000Y-44156000D01*
X99791000Y-47850000D02*
X100270000Y-47551000D01*
X99987000Y-42963000D02*
X99454000Y-43496000D01*
X100270000Y-47551000D02*
X100832000Y-47446000D01*
X100329000Y-42734000D02*
X99987000Y-42963000D01*
X100732000Y-42654000D02*
X100329000Y-42734000D01*
X100832000Y-47446000D02*
X103479000Y-47446000D01*
X103479000Y-42654000D02*
X100732000Y-42654000D01*
X103479000Y-47446000D02*
X104500000Y-46425000D01*
X104416000Y-43591000D02*
X103479000Y-42654000D01*
%TO.C,SW28*%
X77354000Y-99704000D02*
X77354000Y-100646000D01*
X77354000Y-100646000D02*
X81440000Y-100646000D01*
X77717000Y-99704000D02*
X77354000Y-99704000D01*
X77719000Y-96391000D02*
X77634000Y-96818000D01*
X77908000Y-96108000D02*
X77719000Y-96391000D01*
X78191000Y-95919000D02*
X77908000Y-96108000D01*
X78518000Y-95854000D02*
X78191000Y-95919000D01*
X81318000Y-95854000D02*
X78518000Y-95854000D01*
X81440000Y-100646000D02*
X81750000Y-100587000D01*
X81750000Y-100587000D02*
X82024000Y-100417000D01*
X81756000Y-95767000D02*
X81318000Y-95854000D01*
X82024000Y-100417000D02*
X82217000Y-100159000D01*
X82123000Y-95523000D02*
X81756000Y-95767000D01*
X82217000Y-100159000D02*
X82299000Y-99861000D01*
X82299000Y-99861000D02*
X82453000Y-99303000D01*
X82367000Y-95156000D02*
X82123000Y-95523000D01*
X82453000Y-99303000D02*
X82791000Y-98850000D01*
X82454000Y-94496000D02*
X82454000Y-94718000D01*
X82454000Y-94718000D02*
X82367000Y-95156000D01*
X82791000Y-98850000D02*
X83270000Y-98551000D01*
X82987000Y-93963000D02*
X82454000Y-94496000D01*
X83270000Y-98551000D02*
X83832000Y-98446000D01*
X83329000Y-93734000D02*
X82987000Y-93963000D01*
X83732000Y-93654000D02*
X83329000Y-93734000D01*
X83832000Y-98446000D02*
X86479000Y-98446000D01*
X86479000Y-93654000D02*
X83732000Y-93654000D01*
X86479000Y-98446000D02*
X87500000Y-97425000D01*
X87416000Y-94591000D02*
X86479000Y-93654000D01*
%TO.C,SW12*%
X111354000Y-48704000D02*
X111354000Y-49646000D01*
X111354000Y-49646000D02*
X115440000Y-49646000D01*
X111717000Y-48704000D02*
X111354000Y-48704000D01*
X111719000Y-45391000D02*
X111634000Y-45818000D01*
X111908000Y-45108000D02*
X111719000Y-45391000D01*
X112191000Y-44919000D02*
X111908000Y-45108000D01*
X112518000Y-44854000D02*
X112191000Y-44919000D01*
X115318000Y-44854000D02*
X112518000Y-44854000D01*
X115440000Y-49646000D02*
X115750000Y-49587000D01*
X115750000Y-49587000D02*
X116024000Y-49417000D01*
X115756000Y-44767000D02*
X115318000Y-44854000D01*
X116024000Y-49417000D02*
X116217000Y-49159000D01*
X116123000Y-44523000D02*
X115756000Y-44767000D01*
X116217000Y-49159000D02*
X116299000Y-48861000D01*
X116299000Y-48861000D02*
X116453000Y-48303000D01*
X116367000Y-44156000D02*
X116123000Y-44523000D01*
X116453000Y-48303000D02*
X116791000Y-47850000D01*
X116454000Y-43496000D02*
X116454000Y-43718000D01*
X116454000Y-43718000D02*
X116367000Y-44156000D01*
X116791000Y-47850000D02*
X117270000Y-47551000D01*
X116987000Y-42963000D02*
X116454000Y-43496000D01*
X117270000Y-47551000D02*
X117832000Y-47446000D01*
X117329000Y-42734000D02*
X116987000Y-42963000D01*
X117732000Y-42654000D02*
X117329000Y-42734000D01*
X117832000Y-47446000D02*
X120479000Y-47446000D01*
X120479000Y-42654000D02*
X117732000Y-42654000D01*
X120479000Y-47446000D02*
X121500000Y-46425000D01*
X121416000Y-43591000D02*
X120479000Y-42654000D01*
%TO.C,SW17*%
X94354000Y-65704000D02*
X94354000Y-66646000D01*
X94354000Y-66646000D02*
X98440000Y-66646000D01*
X94717000Y-65704000D02*
X94354000Y-65704000D01*
X94719000Y-62391000D02*
X94634000Y-62818000D01*
X94908000Y-62108000D02*
X94719000Y-62391000D01*
X95191000Y-61919000D02*
X94908000Y-62108000D01*
X95518000Y-61854000D02*
X95191000Y-61919000D01*
X98318000Y-61854000D02*
X95518000Y-61854000D01*
X98440000Y-66646000D02*
X98750000Y-66587000D01*
X98750000Y-66587000D02*
X99024000Y-66417000D01*
X98756000Y-61767000D02*
X98318000Y-61854000D01*
X99024000Y-66417000D02*
X99217000Y-66159000D01*
X99123000Y-61523000D02*
X98756000Y-61767000D01*
X99217000Y-66159000D02*
X99299000Y-65861000D01*
X99299000Y-65861000D02*
X99453000Y-65303000D01*
X99367000Y-61156000D02*
X99123000Y-61523000D01*
X99453000Y-65303000D02*
X99791000Y-64850000D01*
X99454000Y-60496000D02*
X99454000Y-60718000D01*
X99454000Y-60718000D02*
X99367000Y-61156000D01*
X99791000Y-64850000D02*
X100270000Y-64551000D01*
X99987000Y-59963000D02*
X99454000Y-60496000D01*
X100270000Y-64551000D02*
X100832000Y-64446000D01*
X100329000Y-59734000D02*
X99987000Y-59963000D01*
X100732000Y-59654000D02*
X100329000Y-59734000D01*
X100832000Y-64446000D02*
X103479000Y-64446000D01*
X103479000Y-59654000D02*
X100732000Y-59654000D01*
X103479000Y-64446000D02*
X104500000Y-63425000D01*
X104416000Y-60591000D02*
X103479000Y-59654000D01*
%TO.C,SW14*%
X43354000Y-65704000D02*
X43354000Y-66646000D01*
X43354000Y-66646000D02*
X47440000Y-66646000D01*
X43717000Y-65704000D02*
X43354000Y-65704000D01*
X43719000Y-62391000D02*
X43634000Y-62818000D01*
X43908000Y-62108000D02*
X43719000Y-62391000D01*
X44191000Y-61919000D02*
X43908000Y-62108000D01*
X44518000Y-61854000D02*
X44191000Y-61919000D01*
X47318000Y-61854000D02*
X44518000Y-61854000D01*
X47440000Y-66646000D02*
X47750000Y-66587000D01*
X47750000Y-66587000D02*
X48024000Y-66417000D01*
X47756000Y-61767000D02*
X47318000Y-61854000D01*
X48024000Y-66417000D02*
X48217000Y-66159000D01*
X48123000Y-61523000D02*
X47756000Y-61767000D01*
X48217000Y-66159000D02*
X48299000Y-65861000D01*
X48299000Y-65861000D02*
X48453000Y-65303000D01*
X48367000Y-61156000D02*
X48123000Y-61523000D01*
X48453000Y-65303000D02*
X48791000Y-64850000D01*
X48454000Y-60496000D02*
X48454000Y-60718000D01*
X48454000Y-60718000D02*
X48367000Y-61156000D01*
X48791000Y-64850000D02*
X49270000Y-64551000D01*
X48987000Y-59963000D02*
X48454000Y-60496000D01*
X49270000Y-64551000D02*
X49832000Y-64446000D01*
X49329000Y-59734000D02*
X48987000Y-59963000D01*
X49732000Y-59654000D02*
X49329000Y-59734000D01*
X49832000Y-64446000D02*
X52479000Y-64446000D01*
X52479000Y-59654000D02*
X49732000Y-59654000D01*
X52479000Y-64446000D02*
X53500000Y-63425000D01*
X53416000Y-60591000D02*
X52479000Y-59654000D01*
%TO.C,SW20*%
X43354000Y-82704000D02*
X43354000Y-83646000D01*
X43354000Y-83646000D02*
X47440000Y-83646000D01*
X43717000Y-82704000D02*
X43354000Y-82704000D01*
X43719000Y-79391000D02*
X43634000Y-79818000D01*
X43908000Y-79108000D02*
X43719000Y-79391000D01*
X44191000Y-78919000D02*
X43908000Y-79108000D01*
X44518000Y-78854000D02*
X44191000Y-78919000D01*
X47318000Y-78854000D02*
X44518000Y-78854000D01*
X47440000Y-83646000D02*
X47750000Y-83587000D01*
X47750000Y-83587000D02*
X48024000Y-83417000D01*
X47756000Y-78767000D02*
X47318000Y-78854000D01*
X48024000Y-83417000D02*
X48217000Y-83159000D01*
X48123000Y-78523000D02*
X47756000Y-78767000D01*
X48217000Y-83159000D02*
X48299000Y-82861000D01*
X48299000Y-82861000D02*
X48453000Y-82303000D01*
X48367000Y-78156000D02*
X48123000Y-78523000D01*
X48453000Y-82303000D02*
X48791000Y-81850000D01*
X48454000Y-77496000D02*
X48454000Y-77718000D01*
X48454000Y-77718000D02*
X48367000Y-78156000D01*
X48791000Y-81850000D02*
X49270000Y-81551000D01*
X48987000Y-76963000D02*
X48454000Y-77496000D01*
X49270000Y-81551000D02*
X49832000Y-81446000D01*
X49329000Y-76734000D02*
X48987000Y-76963000D01*
X49732000Y-76654000D02*
X49329000Y-76734000D01*
X49832000Y-81446000D02*
X52479000Y-81446000D01*
X52479000Y-76654000D02*
X49732000Y-76654000D01*
X52479000Y-81446000D02*
X53500000Y-80425000D01*
X53416000Y-77591000D02*
X52479000Y-76654000D01*
%TO.C,SW26*%
X43354000Y-99704000D02*
X43354000Y-100646000D01*
X43354000Y-100646000D02*
X47440000Y-100646000D01*
X43717000Y-99704000D02*
X43354000Y-99704000D01*
X43719000Y-96391000D02*
X43634000Y-96818000D01*
X43908000Y-96108000D02*
X43719000Y-96391000D01*
X44191000Y-95919000D02*
X43908000Y-96108000D01*
X44518000Y-95854000D02*
X44191000Y-95919000D01*
X47318000Y-95854000D02*
X44518000Y-95854000D01*
X47440000Y-100646000D02*
X47750000Y-100587000D01*
X47750000Y-100587000D02*
X48024000Y-100417000D01*
X47756000Y-95767000D02*
X47318000Y-95854000D01*
X48024000Y-100417000D02*
X48217000Y-100159000D01*
X48123000Y-95523000D02*
X47756000Y-95767000D01*
X48217000Y-100159000D02*
X48299000Y-99861000D01*
X48299000Y-99861000D02*
X48453000Y-99303000D01*
X48367000Y-95156000D02*
X48123000Y-95523000D01*
X48453000Y-99303000D02*
X48791000Y-98850000D01*
X48454000Y-94496000D02*
X48454000Y-94718000D01*
X48454000Y-94718000D02*
X48367000Y-95156000D01*
X48791000Y-98850000D02*
X49270000Y-98551000D01*
X48987000Y-93963000D02*
X48454000Y-94496000D01*
X49270000Y-98551000D02*
X49832000Y-98446000D01*
X49329000Y-93734000D02*
X48987000Y-93963000D01*
X49732000Y-93654000D02*
X49329000Y-93734000D01*
X49832000Y-98446000D02*
X52479000Y-98446000D01*
X52479000Y-93654000D02*
X49732000Y-93654000D01*
X52479000Y-98446000D02*
X53500000Y-97425000D01*
X53416000Y-94591000D02*
X52479000Y-93654000D01*
%TO.C,SW15*%
X60354000Y-65704000D02*
X60354000Y-66646000D01*
X60354000Y-66646000D02*
X64440000Y-66646000D01*
X60717000Y-65704000D02*
X60354000Y-65704000D01*
X60719000Y-62391000D02*
X60634000Y-62818000D01*
X60908000Y-62108000D02*
X60719000Y-62391000D01*
X61191000Y-61919000D02*
X60908000Y-62108000D01*
X61518000Y-61854000D02*
X61191000Y-61919000D01*
X64318000Y-61854000D02*
X61518000Y-61854000D01*
X64440000Y-66646000D02*
X64750000Y-66587000D01*
X64750000Y-66587000D02*
X65024000Y-66417000D01*
X64756000Y-61767000D02*
X64318000Y-61854000D01*
X65024000Y-66417000D02*
X65217000Y-66159000D01*
X65123000Y-61523000D02*
X64756000Y-61767000D01*
X65217000Y-66159000D02*
X65299000Y-65861000D01*
X65299000Y-65861000D02*
X65453000Y-65303000D01*
X65367000Y-61156000D02*
X65123000Y-61523000D01*
X65453000Y-65303000D02*
X65791000Y-64850000D01*
X65454000Y-60496000D02*
X65454000Y-60718000D01*
X65454000Y-60718000D02*
X65367000Y-61156000D01*
X65791000Y-64850000D02*
X66270000Y-64551000D01*
X65987000Y-59963000D02*
X65454000Y-60496000D01*
X66270000Y-64551000D02*
X66832000Y-64446000D01*
X66329000Y-59734000D02*
X65987000Y-59963000D01*
X66732000Y-59654000D02*
X66329000Y-59734000D01*
X66832000Y-64446000D02*
X69479000Y-64446000D01*
X69479000Y-59654000D02*
X66732000Y-59654000D01*
X69479000Y-64446000D02*
X70500000Y-63425000D01*
X70416000Y-60591000D02*
X69479000Y-59654000D01*
%TD*%
M02*
