%TF.GenerationSoftware,KiCad,Pcbnew,9.0.7*%
%TF.CreationDate,2026-01-26T14:59:18-06:00*%
%TF.ProjectId,LillyKey,4c696c6c-794b-4657-992e-6b696361645f,rev?*%
%TF.SameCoordinates,Original*%
%TF.FileFunction,Paste,Bot*%
%TF.FilePolarity,Positive*%
%FSLAX46Y46*%
G04 Gerber Fmt 4.6, Leading zero omitted, Abs format (unit mm)*
G04 Created by KiCad (PCBNEW 9.0.7) date 2026-01-26 14:59:18*
%MOMM*%
%LPD*%
G01*
G04 APERTURE LIST*
G04 Aperture macros list*
%AMRoundRect*
0 Rectangle with rounded corners*
0 $1 Rounding radius*
0 $2 $3 $4 $5 $6 $7 $8 $9 X,Y pos of 4 corners*
0 Add a 4 corners polygon primitive as box body*
4,1,4,$2,$3,$4,$5,$6,$7,$8,$9,$2,$3,0*
0 Add four circle primitives for the rounded corners*
1,1,$1+$1,$2,$3*
1,1,$1+$1,$4,$5*
1,1,$1+$1,$6,$7*
1,1,$1+$1,$8,$9*
0 Add four rect primitives between the rounded corners*
20,1,$1+$1,$2,$3,$4,$5,0*
20,1,$1+$1,$4,$5,$6,$7,0*
20,1,$1+$1,$6,$7,$8,$9,0*
20,1,$1+$1,$8,$9,$2,$3,0*%
G04 Aperture macros list end*
%ADD10RoundRect,0.250000X1.025000X1.000000X-1.025000X1.000000X-1.025000X-1.000000X1.025000X-1.000000X0*%
%ADD11RoundRect,0.225000X-0.225000X-0.375000X0.225000X-0.375000X0.225000X0.375000X-0.225000X0.375000X0*%
%ADD12R,0.990600X3.505200*%
%ADD13R,1.498600X3.403600*%
%ADD14O,2.750000X1.800000*%
G04 APERTURE END LIST*
D10*
%TO.C,SW10*%
X76500000Y-54800000D03*
X88500000Y-57000000D03*
%TD*%
%TO.C,SW30*%
X110500000Y-105800000D03*
X122500000Y-108000000D03*
%TD*%
%TO.C,SW29*%
X93500000Y-105800000D03*
X105500000Y-108000000D03*
%TD*%
%TO.C,SW28*%
X76500000Y-105800000D03*
X88500000Y-108000000D03*
%TD*%
%TO.C,SW27*%
X59500000Y-105800000D03*
X71500000Y-108000000D03*
%TD*%
%TO.C,SW26*%
X42500000Y-105800000D03*
X54500000Y-108000000D03*
%TD*%
%TO.C,SW25*%
X25500000Y-105800000D03*
X37500000Y-108000000D03*
%TD*%
%TO.C,SW24*%
X110500000Y-88800000D03*
X122500000Y-91000000D03*
%TD*%
%TO.C,SW23*%
X93500000Y-88800000D03*
X105500000Y-91000000D03*
%TD*%
%TO.C,SW22*%
X76500000Y-88800000D03*
X88500000Y-91000000D03*
%TD*%
%TO.C,SW21*%
X59500000Y-88800000D03*
X71500000Y-91000000D03*
%TD*%
%TO.C,SW20*%
X42500000Y-88800000D03*
X54500000Y-91000000D03*
%TD*%
%TO.C,SW19*%
X25500000Y-88800000D03*
X37500000Y-91000000D03*
%TD*%
%TO.C,SW18*%
X110500000Y-71800000D03*
X122500000Y-74000000D03*
%TD*%
%TO.C,SW17*%
X93500000Y-71800000D03*
X105500000Y-74000000D03*
%TD*%
%TO.C,SW16*%
X76500000Y-71800000D03*
X88500000Y-74000000D03*
%TD*%
%TO.C,SW15*%
X59500000Y-71800000D03*
X71500000Y-74000000D03*
%TD*%
%TO.C,SW14*%
X42500000Y-71800000D03*
X54500000Y-74000000D03*
%TD*%
%TO.C,SW13*%
X25500000Y-71800000D03*
X37500000Y-74000000D03*
%TD*%
%TO.C,SW12*%
X110500000Y-54800000D03*
X122500000Y-57000000D03*
%TD*%
%TO.C,SW11*%
X93500000Y-54800000D03*
X105500000Y-57000000D03*
%TD*%
%TO.C,SW9*%
X59500000Y-54800000D03*
X71500000Y-57000000D03*
%TD*%
%TO.C,SW8*%
X42500000Y-54800000D03*
X54500000Y-57000000D03*
%TD*%
%TO.C,SW7*%
X25500000Y-54800000D03*
X37500000Y-57000000D03*
%TD*%
%TO.C,SW6*%
X110500000Y-37800000D03*
X122500000Y-40000000D03*
%TD*%
%TO.C,SW5*%
X93500000Y-37800000D03*
X105500000Y-40000000D03*
%TD*%
%TO.C,SW4*%
X76500000Y-37800000D03*
X88500000Y-40000000D03*
%TD*%
%TO.C,SW3*%
X59500000Y-37800000D03*
X71500000Y-40000000D03*
%TD*%
%TO.C,SW2*%
X42500000Y-37800000D03*
X54500000Y-40000000D03*
%TD*%
%TO.C,SW1*%
X25500000Y-37800000D03*
X37500000Y-40000000D03*
%TD*%
D11*
%TO.C,D2*%
X49200000Y-29000000D03*
X52500000Y-29000000D03*
%TD*%
D12*
%TO.C,J1*%
X145999999Y-49809999D03*
D13*
X143649999Y-55560000D03*
D12*
X148000001Y-49809999D03*
D13*
X150350001Y-55560000D03*
%TD*%
D11*
%TO.C,D30*%
X120500000Y-97000000D03*
X117200000Y-97000000D03*
%TD*%
%TO.C,D29*%
X103500000Y-97000000D03*
X100200000Y-97000000D03*
%TD*%
%TO.C,D28*%
X86500000Y-97000000D03*
X83200000Y-97000000D03*
%TD*%
%TO.C,D27*%
X69500000Y-97000000D03*
X66200000Y-97000000D03*
%TD*%
%TO.C,D26*%
X52500000Y-97000000D03*
X49200000Y-97000000D03*
%TD*%
%TO.C,D25*%
X35500000Y-97000000D03*
X32200000Y-97000000D03*
%TD*%
%TO.C,D24*%
X120500000Y-80000000D03*
X117200000Y-80000000D03*
%TD*%
%TO.C,D23*%
X103500000Y-80000000D03*
X100200000Y-80000000D03*
%TD*%
%TO.C,D22*%
X86500000Y-80000000D03*
X83200000Y-80000000D03*
%TD*%
%TO.C,D21*%
X69500000Y-80000000D03*
X66200000Y-80000000D03*
%TD*%
%TO.C,D20*%
X52500000Y-80000000D03*
X49200000Y-80000000D03*
%TD*%
%TO.C,D19*%
X35500000Y-80000000D03*
X32200000Y-80000000D03*
%TD*%
%TO.C,D18*%
X120500000Y-63000000D03*
X117200000Y-63000000D03*
%TD*%
%TO.C,D17*%
X103500000Y-63000000D03*
X100200000Y-63000000D03*
%TD*%
%TO.C,D16*%
X86500000Y-63000000D03*
X83200000Y-63000000D03*
%TD*%
%TO.C,D15*%
X69500000Y-63000000D03*
X66200000Y-63000000D03*
%TD*%
%TO.C,D14*%
X52500000Y-63000000D03*
X49200000Y-63000000D03*
%TD*%
%TO.C,D13*%
X35500000Y-63000000D03*
X32200000Y-63000000D03*
%TD*%
%TO.C,D12*%
X120500000Y-46000000D03*
X117200000Y-46000000D03*
%TD*%
%TO.C,D11*%
X103500000Y-46000000D03*
X100200000Y-46000000D03*
%TD*%
%TO.C,D10*%
X86500000Y-46000000D03*
X83200000Y-46000000D03*
%TD*%
%TO.C,D9*%
X69500000Y-46000000D03*
X66200000Y-46000000D03*
%TD*%
%TO.C,D8*%
X52500000Y-46000000D03*
X49200000Y-46000000D03*
%TD*%
%TO.C,D7*%
X35500000Y-46000000D03*
X32200000Y-46000000D03*
%TD*%
%TO.C,D6*%
X120500000Y-29000000D03*
X117200000Y-29000000D03*
%TD*%
%TO.C,D5*%
X103500000Y-29000000D03*
X100200000Y-29000000D03*
%TD*%
%TO.C,D4*%
X86500000Y-29000000D03*
X83200000Y-29000000D03*
%TD*%
%TO.C,D3*%
X69500000Y-29000000D03*
X66200000Y-29000000D03*
%TD*%
%TO.C,D1*%
X35500000Y-29000000D03*
X32200000Y-29000000D03*
%TD*%
D14*
%TO.C,U2*%
X153204960Y-24880000D03*
X153204960Y-27420000D03*
X153204960Y-29960000D03*
X153204960Y-32500000D03*
X153204960Y-35040000D03*
X153204960Y-37580000D03*
X153204960Y-40120000D03*
X137015040Y-40120000D03*
X137015040Y-37580000D03*
X137015040Y-35040000D03*
X137015040Y-32500000D03*
X137015040Y-29960000D03*
X137015040Y-27420000D03*
X137015040Y-24880000D03*
%TD*%
M02*
