<?xml version="1.0" standalone="no"?>
 <!DOCTYPE svg PUBLIC "-//W3C//DTD SVG 1.1//EN" 
 "http://www.w3.org/Graphics/SVG/1.1/DTD/svg11.dtd"> 
<svg
  xmlns:svg="http://www.w3.org/2000/svg"
  xmlns="http://www.w3.org/2000/svg"
  xmlns:xlink="http://www.w3.org/1999/xlink"
  version="1.1"
  width="297.0022mm" height="210.0072mm" viewBox="0.0000 0.0000 297.0022 210.0072">
<title>SVG Image created as LillyKey-F_Silkscreen.svg date 2026/01/26 13:50:19 </title>
  <desc>Image generated by PCBNEW </desc>
<g style="fill:#000000; fill-opacity:1.0000;stroke:#000000; stroke-opacity:1.0000;
stroke-linecap:round; stroke-linejoin:round;"
 transform="translate(0 0) scale(1 1)">
<path style="fill:#000000; fill-opacity:1.0000; 
stroke:#000000; stroke-width:0.0485; stroke-opacity:1; 
stroke-linecap:round; stroke-linejoin:round;fill-rule:evenodd;"
d="M 146.8440,81.9207
143.2967,81.9207
143.2967,83.7272
142.8478,83.7272
142.8478,81.4280
146.8440,81.4280
Z" /> 
<path style="fill:#000000; fill-opacity:1.0000; 
stroke:#000000; stroke-width:0.0485; stroke-opacity:1; 
stroke-linecap:round; stroke-linejoin:round;fill-rule:evenodd;"
d="M 152.3183,81.9207
148.7709,81.9207
148.7709,83.7272
148.3220,83.7272
148.3220,81.4280
152.3183,81.4280
Z" /> 
<path style="fill:#000000; fill-opacity:1.0000; 
stroke:#000000; stroke-width:0.0485; stroke-opacity:1; 
stroke-linecap:round; stroke-linejoin:round;fill-rule:evenodd;"
d="M 149.2253,97.5062
149.2435,97.5065
149.2776,97.5079
149.3111,97.5104
149.3440,97.5138
149.3764,97.5183
149.4083,97.5237
149.4395,97.5301
149.4703,97.5374
149.5004,97.5458
149.5301,97.5551
149.5591,97.5655
149.5876,97.5768
149.6156,97.5891
149.6430,97.6024
149.6698,97.6166
149.6961,97.6319
149.7217,97.6480
149.7466,97.6649
149.7708,97.6826
149.7943,97.7010
149.8170,97.7202
149.8390,97.7402
149.8603,97.7609
149.8808,97.7824
149.9007,97.8047
149.9197,97.8277
149.9381,97.8516
149.9558,97.8762
149.9727,97.9015
149.9889,97.9277
150.0043,97.9546
150.0191,97.9822
150.0336,98.0105
150.0473,98.0394
150.0600,98.0687
150.0717,98.0986
150.0826,98.1289
150.0924,98.1598
150.1014,98.1912
150.1094,98.2231
150.1164,98.2555
150.1226,98.2884
150.1277,98.3219
150.1320,98.3558
150.1353,98.3903
150.1376,98.4253
150.1390,98.4608
150.1395,98.4968
150.1395,99.4274
150.3749,99.4274
150.4109,99.4268
150.4458,99.4249
150.4796,99.4218
150.5122,99.4174
150.5436,99.4118
150.5739,99.4049
150.6031,99.3968
150.6311,99.3874
150.6580,99.3768
150.6838,99.3649
150.7084,99.3518
150.7318,99.3374
150.7541,99.3217
150.7753,99.3048
150.7953,99.2867
150.8142,99.2673
150.8319,99.2467
150.8485,99.2248
150.8640,99.2016
150.8783,99.1772
150.8914,99.1516
150.9034,99.1247
150.9143,99.0966
150.9240,99.0672
150.9326,99.0365
150.9400,99.0046
150.9463,98.9715
150.9515,98.9371
150.9555,98.9014
150.9583,98.8645
150.9601,98.8264
150.9606,98.7869
150.9602,98.7518
150.9590,98.7175
150.9570,98.6840
150.9541,98.6515
150.9505,98.6197
150.9460,98.5888
150.9407,98.5588
150.9346,98.5297
150.9277,98.5013
150.9200,98.4739
150.9115,98.4473
150.9021,98.4215
150.8920,98.3966
150.8810,98.3726
150.8692,98.3494
150.8566,98.3271
150.8433,98.3059
150.8293,98.2859
150.8147,98.2672
150.7995,98.2498
150.7836,98.2337
150.7671,98.2188
150.7499,98.2053
150.7321,98.1930
150.7136,98.1820
150.7042,98.1770
150.6945,98.1723
150.6847,98.1679
150.6748,98.1639
150.6544,98.1567
150.6334,98.1509
150.6117,98.1463
150.5894,98.1430
150.5665,98.1410
150.5665,97.6483
150.6105,97.6528
150.6535,97.6594
150.6955,97.6682
150.7365,97.6791
150.7766,97.6921
150.8157,97.7073
150.8537,97.7246
150.8908,97.7441
150.9270,97.7657
150.9621,97.7894
150.9962,97.8153
151.0294,97.8433
151.0616,97.8735
151.0928,97.9058
151.1230,97.9402
151.1522,97.9767
151.1807,98.0158
151.2074,98.0565
151.2322,98.0986
151.2552,98.1423
151.2764,98.1876
151.2957,98.2344
151.3131,98.2827
151.3288,98.3326
151.3426,98.3840
151.3545,98.4369
151.3646,98.4914
151.3729,98.5474
151.3794,98.6050
151.3840,98.6641
151.3867,98.7248
151.3876,98.7869
151.3866,98.8544
151.3835,98.9198
151.3784,98.9832
151.3712,99.0446
151.3620,99.1040
151.3507,99.1613
151.3373,99.2167
151.3219,99.2700
151.3045,99.3214
151.2850,99.3707
151.2634,99.4180
151.2398,99.4634
151.2142,99.5067
151.1865,99.5479
151.1567,99.5872
151.1249,99.6245
151.0912,99.6603
151.0559,99.6938
151.0190,99.7250
150.9805,99.7538
150.9403,99.7804
150.8985,99.8046
150.8551,99.8266
150.8101,99.8462
150.7634,99.8635
150.7152,99.8785
150.6652,99.8912
150.6137,99.9016
150.5605,99.9097
150.5058,99.9155
150.4493,99.9190
150.3913,99.9201
148.3220,99.9201
148.3220,99.4329
148.8695,99.4329
148.8695,99.4219
148.8350,99.4157
148.8015,99.4080
148.7688,99.3988
148.7371,99.3881
148.7062,99.3759
148.6762,99.3622
148.6472,99.3470
148.6190,99.3303
148.5918,99.3121
148.5654,99.2924
148.5399,99.2712
148.5154,99.2485
148.4917,99.2243
148.4689,99.1986
148.4470,99.1714
148.4261,99.1428
148.4068,99.1127
148.3888,99.0815
148.3721,99.0491
148.3566,99.0155
148.3423,98.9807
148.3293,98.9447
148.3175,98.9074
148.3070,98.8690
148.2977,98.8294
148.2896,98.7886
148.2828,98.7466
148.2772,98.7034
148.2729,98.6591
148.2715,98.6391
148.6833,98.6391
148.6840,98.6837
148.6861,98.7272
148.6895,98.7694
148.6943,98.8105
148.7005,98.8505
148.7080,98.8893
148.7169,98.9270
148.7271,98.9635
148.7388,98.9988
148.7518,99.0330
148.7661,99.0661
148.7819,99.0979
148.7990,99.1287
148.8175,99.1583
148.8373,99.1867
148.8585,99.2139
148.8809,99.2398
148.9043,99.2640
148.9286,99.2865
148.9540,99.3073
148.9803,99.3265
149.0076,99.3440
149.0359,99.3599
149.0652,99.3741
149.0954,99.3866
149.1267,99.3974
149.1589,99.4066
149.1921,99.4141
149.2263,99.4199
149.2615,99.4241
149.2976,99.4266
149.3348,99.4274
149.7563,99.4274
149.7563,98.5516
149.7557,98.5218
149.7540,98.4927
149.7511,98.4643
149.7471,98.4366
149.7419,98.4096
149.7355,98.3832
149.7280,98.3576
149.7194,98.3326
149.7095,98.3083
149.6986,98.2847
149.6864,98.2618
149.6732,98.2395
149.6587,98.2180
149.6431,98.1971
149.6264,98.1769
149.6085,98.1574
149.5903,98.1395
149.5714,98.1228
149.5517,98.1072
149.5312,98.0927
149.5099,98.0795
149.4879,98.0673
149.4651,98.0564
149.4415,98.0465
149.4172,98.0379
149.3921,98.0304
149.3662,98.0240
149.3396,98.0188
149.3122,98.0148
149.2840,98.0119
149.2550,98.0102
149.2253,98.0096
149.1942,98.0102
149.1640,98.0122
149.1345,98.0154
149.1059,98.0199
149.0781,98.0256
149.0511,98.0327
149.0249,98.0410
148.9995,98.0507
148.9749,98.0616
148.9512,98.0737
148.9282,98.0872
148.9061,98.1020
148.8848,98.1180
148.8643,98.1353
148.8446,98.1539
148.8257,98.1738
148.8084,98.1955
148.7923,98.2182
148.7773,98.2419
148.7634,98.2665
148.7506,98.2922
148.7389,98.3188
148.7284,98.3464
148.7189,98.3750
148.7106,98.4046
148.7034,98.4351
148.6972,98.4667
148.6922,98.4992
148.6884,98.5327
148.6856,98.5672
148.6839,98.6027
148.6833,98.6391
148.6833,98.6391
148.2715,98.6391
148.2698,98.6135
148.2679,98.5667
148.2673,98.5187
148.2673,98.5187
148.2683,98.4613
148.2713,98.4054
148.2763,98.3509
148.2834,98.2980
148.2924,98.2466
148.3035,98.1967
148.3165,98.1482
148.3316,98.1013
148.3487,98.0558
148.3678,98.0119
148.3889,97.9695
148.4120,97.9285
148.4371,97.8891
148.4643,97.8511
148.4934,97.8146
148.5246,97.7797
148.5580,97.7465
148.5928,97.7155
148.6287,97.6867
148.6659,97.6599
148.7043,97.6353
148.7440,97.6129
148.7849,97.5926
148.8270,97.5744
148.8704,97.5584
148.9151,97.5445
148.9609,97.5327
149.0080,97.5231
149.0564,97.5156
149.1060,97.5102
149.1568,97.5070
149.2089,97.5060
Z" /> 
<path style="fill:#000000; fill-opacity:1.0000; 
stroke:#000000; stroke-width:0.0485; stroke-opacity:1; 
stroke-linecap:round; stroke-linejoin:round;fill-rule:evenodd;"
d="M 150.4077,94.3583
152.3183,94.3583
152.3183,95.6447
152.3170,95.7136
152.3132,95.7807
152.3069,95.8460
152.2981,95.9095
152.2867,95.9712
152.2728,96.0312
152.2564,96.0893
152.2375,96.1456
152.2161,96.2001
152.1921,96.2529
152.1656,96.3038
152.1366,96.3529
152.1050,96.4003
152.0710,96.4458
152.0344,96.4896
151.9953,96.5315
151.9547,96.5720
151.9125,96.6098
151.8685,96.6450
151.8228,96.6776
151.7754,96.7076
151.7263,96.7350
151.6755,96.7598
151.6230,96.7820
151.5688,96.8016
151.5128,96.8185
151.4552,96.8329
151.3958,96.8446
151.3348,96.8537
151.2720,96.8603
151.2075,96.8642
151.1413,96.8655
151.0751,96.8642
151.0105,96.8603
150.9476,96.8537
150.8864,96.8446
150.8268,96.8329
150.7690,96.8185
150.7127,96.8016
150.6582,96.7820
150.6053,96.7598
150.5541,96.7350
150.5045,96.7076
150.4567,96.6776
150.4104,96.6450
150.3659,96.6098
150.3230,96.5720
150.2818,96.5315
150.2434,96.4896
150.2074,96.4458
150.1739,96.4003
150.1429,96.3529
150.1144,96.3038
150.0883,96.2529
150.0648,96.2001
150.0437,96.1456
150.0251,96.0893
150.0090,96.0312
149.9953,95.9712
149.9842,95.9095
149.9755,95.8460
149.9693,95.7807
149.9656,95.7136
149.9643,95.6447
150.4077,95.6447
150.4085,95.6846
150.4108,95.7234
150.4147,95.7612
150.4201,95.7980
150.4270,95.8337
150.4354,95.8685
150.4455,95.9022
150.4570,95.9348
150.4701,95.9665
150.4847,95.9971
150.5009,96.0267
150.5186,96.0553
150.5378,96.0828
150.5586,96.1093
150.5809,96.1348
150.6048,96.1593
150.6306,96.1832
150.6575,96.2055
150.6854,96.2263
150.7143,96.2455
150.7442,96.2632
150.7752,96.2794
150.8072,96.2940
150.8402,96.3071
150.8742,96.3186
150.9093,96.3287
150.9454,96.3371
150.9825,96.3440
151.0207,96.3494
151.0599,96.3533
151.1001,96.3556
151.1413,96.3564
151.1832,96.3556
151.2239,96.3533
151.2636,96.3494
151.3021,96.3440
151.3395,96.3371
151.3758,96.3287
151.4110,96.3186
151.4451,96.3071
151.4781,96.2940
151.5099,96.2794
151.5407,96.2632
151.5703,96.2455
151.5989,96.2263
151.6263,96.2055
151.6526,96.1832
151.6778,96.1593
151.7016,96.1348
151.7239,96.1093
151.7447,96.0828
151.7640,96.0553
151.7817,96.0267
151.7979,95.9971
151.8125,95.9665
151.8256,95.9348
151.8371,95.9022
151.8471,95.8685
151.8556,95.8337
151.8625,95.7980
151.8679,95.7612
151.8718,95.7234
151.8741,95.6846
151.8748,95.6447
151.8748,94.8509
150.4077,94.8509
150.4077,95.6447
149.9643,95.6447
149.9643,94.8509
148.3220,94.8509
148.3220,94.3583
Z" /> 
<path style="fill:#000000; fill-opacity:1.0000; 
stroke:#000000; stroke-width:0.0485; stroke-opacity:1; 
stroke-linecap:round; stroke-linejoin:round;fill-rule:evenodd;"
d="M 144.7638,87.7892
146.8440,87.7892
146.8440,88.2819
145.9681,88.2819
145.2838,88.2709
145.2838,88.2764
145.3196,88.2825
145.3545,88.2900
145.3884,88.2989
145.4214,88.3092
145.4534,88.3208
145.4845,88.3338
145.5147,88.3482
145.5439,88.3639
145.5721,88.3811
145.5995,88.3995
145.6258,88.4194
145.6513,88.4406
145.6758,88.4632
145.6994,88.4871
145.7220,88.5124
145.7437,88.5391
145.7642,88.5676
145.7834,88.5970
145.8013,88.6273
145.8179,88.6585
145.8332,88.6906
145.8471,88.7236
145.8597,88.7575
145.8709,88.7923
145.8809,88.8280
145.8895,88.8646
145.8968,88.9021
145.9028,88.9405
145.9074,88.9797
145.9107,89.0199
145.9127,89.0610
145.9134,89.1030
145.9122,89.1590
145.9087,89.2137
145.9028,89.2668
145.8946,89.3185
145.8840,89.3688
145.8710,89.4176
145.8557,89.4649
145.8381,89.5108
145.8181,89.5552
145.7958,89.5982
145.7711,89.6397
145.7440,89.6798
145.7146,89.7184
145.6829,89.7556
145.6487,89.7913
145.6123,89.8256
145.5738,89.8581
145.5336,89.8884
145.4917,89.9167
145.4481,89.9429
145.4027,89.9670
145.3557,89.9890
145.3069,90.0089
145.2565,90.0268
145.2043,90.0425
145.1504,90.0561
145.0948,90.0676
145.0375,90.0770
144.9785,90.0844
144.9177,90.0896
144.8553,90.0928
144.7911,90.0938
143.9098,90.0938
143.8463,90.0928
143.7845,90.0896
143.7243,90.0844
143.6658,90.0770
143.6090,90.0676
143.5539,90.0561
143.5004,90.0425
143.4486,90.0268
143.3984,90.0089
143.3500,89.9890
143.3031,89.9670
143.2580,89.9429
143.2145,89.9167
143.1727,89.8884
143.1326,89.8581
143.0941,89.8256
143.0577,89.7913
143.0236,89.7556
142.9918,89.7184
142.9624,89.6798
142.9353,89.6397
142.9106,89.5982
142.8883,89.5552
142.8683,89.5108
142.8507,89.4649
142.8354,89.4176
142.8224,89.3688
142.8118,89.3185
142.8036,89.2668
142.7977,89.2137
142.7942,89.1590
142.7930,89.1030
142.7930,89.1030
142.7937,89.0610
142.7956,89.0200
142.7988,88.9799
142.8033,88.9408
142.8036,88.9387
143.2200,88.9387
143.2200,88.9387
143.2207,88.9772
143.2226,89.0146
143.2258,89.0509
143.2303,89.0862
143.2361,89.1204
143.2431,89.1535
143.2515,89.1856
143.2611,89.2166
143.2720,89.2465
143.2842,89.2753
143.2977,89.3031
143.3124,89.3298
143.3284,89.3554
143.3458,89.3800
143.3644,89.4035
143.3843,89.4259
143.4056,89.4472
143.4285,89.4670
143.4530,89.4855
143.4790,89.5026
143.5067,89.5183
143.5359,89.5327
143.5667,89.5457
143.5991,89.5573
143.6331,89.5676
143.6687,89.5765
143.7058,89.5840
143.7445,89.5902
143.7848,89.5950
143.8267,89.5984
143.8702,89.6004
143.9153,89.6011
144.7912,89.6011
144.8368,89.6004
144.8809,89.5984
144.9232,89.5950
144.9639,89.5902
145.0030,89.5840
145.0403,89.5765
145.0760,89.5676
145.1100,89.5573
145.1424,89.5457
145.1731,89.5327
145.2021,89.5183
145.2294,89.5026
145.2551,89.4855
145.2791,89.4670
145.3015,89.4472
145.3222,89.4259
145.3420,89.4035
145.3606,89.3800
145.3780,89.3554
145.3940,89.3298
145.4088,89.3031
145.4222,89.2753
145.4344,89.2465
145.4453,89.2166
145.4549,89.1856
145.4633,89.1535
145.4703,89.1204
145.4761,89.0862
145.4806,89.0509
145.4838,89.0146
145.4857,88.9772
145.4864,88.9387
145.4856,88.9016
145.4834,88.8653
145.4796,88.8301
145.4744,88.7957
145.4677,88.7623
145.4594,88.7299
145.4497,88.6983
145.4385,88.6678
145.4258,88.6381
145.4115,88.6094
145.3958,88.5817
145.3786,88.5549
145.3599,88.5290
145.3397,88.5040
145.3180,88.4801
145.2948,88.4570
145.2703,88.4358
145.2446,88.4159
145.2177,88.3975
145.1897,88.3804
145.1606,88.3646
145.1303,88.3503
145.0988,88.3373
145.0662,88.3256
145.0325,88.3154
144.9975,88.3065
144.9615,88.2989
144.9242,88.2928
144.8859,88.2880
144.8463,88.2846
144.8056,88.2825
144.7638,88.2818
143.9426,88.2818
143.9008,88.2825
143.8601,88.2846
143.8206,88.2880
143.7822,88.2928
143.7449,88.2989
143.7089,88.3065
143.6739,88.3154
143.6402,88.3256
143.6076,88.3373
143.5761,88.3503
143.5458,88.3646
143.5167,88.3804
143.4887,88.3975
143.4618,88.4159
143.4362,88.4358
143.4116,88.4570
143.3884,88.4801
143.3667,88.5040
143.3465,88.5290
143.3278,88.5549
143.3106,88.5817
143.2949,88.6094
143.2806,88.6381
143.2679,88.6678
143.2567,88.6983
143.2470,88.7299
143.2387,88.7623
143.2320,88.7957
143.2268,88.8301
143.2230,88.8653
143.2208,88.9016
143.2200,88.9387
142.8036,88.9387
142.8091,88.9026
142.8161,88.8653
142.8245,88.8290
142.8341,88.7937
142.8450,88.7592
142.8572,88.7258
142.8707,88.6932
142.8854,88.6616
142.9015,88.6309
142.9188,88.6012
142.9374,88.5724
142.9573,88.5446
142.9790,88.5179
143.0017,88.4927
143.0253,88.4688
143.0500,88.4464
143.0756,88.4254
143.1022,88.4058
143.1299,88.3876
143.1584,88.3708
143.1880,88.3554
143.2186,88.3414
143.2501,88.3289
143.2826,88.3178
143.3161,88.3080
143.3506,88.2997
143.3861,88.2928
143.4226,88.2873
143.4226,88.2819
142.8478,88.2819
142.8478,87.7892
Z" /> 
<path style="fill:#000000; fill-opacity:1.0000; 
stroke:#000000; stroke-width:0.0485; stroke-opacity:1; 
stroke-linecap:round; stroke-linejoin:round;fill-rule:evenodd;"
d="M 152.3183,88.9825
149.1705,88.9825
149.1476,88.9829
149.1252,88.9842
149.1034,88.9862
149.0823,88.9890
149.0617,88.9927
149.0417,88.9972
149.0224,89.0024
149.0036,89.0085
148.9854,89.0154
148.9678,89.0232
148.9508,89.0317
148.9345,89.0410
148.9187,89.0512
148.9035,89.0622
148.8889,89.0739
148.8749,89.0865
148.8623,89.0998
148.8506,89.1137
148.8396,89.1280
148.8294,89.1430
148.8201,89.1585
148.8115,89.1746
148.8038,89.1912
148.7969,89.2083
148.7908,89.2261
148.7855,89.2444
148.7811,89.2632
148.7774,89.2826
148.7746,89.3025
148.7725,89.3230
148.7713,89.3441
148.7709,89.3657
148.7709,90.2964
148.3220,90.2964
148.3220,89.3657
148.3229,89.3164
148.3256,89.2683
148.3301,89.2214
148.3364,89.1758
148.3445,89.1315
148.3544,89.0883
148.3660,89.0464
148.3795,89.0058
148.3948,88.9664
148.4119,88.9282
148.4307,88.8913
148.4514,88.8556
148.4738,88.8211
148.4981,88.7879
148.5241,88.7560
148.5520,88.7252
148.5820,88.6967
148.6131,88.6701
148.6454,88.6452
148.6789,88.6223
148.7135,88.6011
148.7493,88.5818
148.7862,88.5643
148.8243,88.5487
148.8635,88.5349
148.9039,88.5229
148.9455,88.5128
148.9882,88.5046
149.0320,88.4981
149.0771,88.4935
149.1232,88.4908
149.1705,88.4898
151.8694,88.4898
151.8694,87.4497
152.3183,87.4497
Z" /> 
</g>
<g style="fill:none; 
stroke:#000000; stroke-width:0.1000; stroke-opacity:1; 
stroke-linecap:round; stroke-linejoin:round;">
<path d="M141.6945 81.3981
L141.5910 102.9315
" />
<path style="fill:#000000; fill-opacity:1.0000; 
stroke:#000000; stroke-width:0.0485; stroke-opacity:1; 
stroke-linecap:round; stroke-linejoin:round;fill-rule:evenodd;"
d="M 152.2400,85.3371
152.2597,85.3383
152.2788,85.3403
152.2974,85.3432
152.3154,85.3468
152.3329,85.3513
152.3498,85.3566
152.3662,85.3627
152.3820,85.3696
152.3972,85.3773
152.4119,85.3858
152.4260,85.3952
152.4396,85.4053
152.4526,85.4163
152.4651,85.4281
152.4770,85.4407
152.4889,85.4540
152.5001,85.4679
152.5105,85.4824
152.5201,85.4975
152.5290,85.5132
152.5370,85.5295
152.5444,85.5464
152.5509,85.5638
152.5567,85.5819
152.5617,85.6006
152.5659,85.6199
152.5694,85.6398
152.5721,85.6603
152.5740,85.6814
152.5752,85.7031
152.5755,85.7253
152.5752,85.7476
152.5740,85.7693
152.5721,85.7904
152.5694,85.8109
152.5659,85.8308
152.5617,85.8501
152.5567,85.8687
152.5509,85.8868
152.5444,85.9043
152.5370,85.9212
152.5290,85.9375
152.5201,85.9532
152.5105,85.9683
152.5001,85.9828
152.4889,85.9967
152.4770,86.0100
152.4651,86.0226
152.4526,86.0344
152.4396,86.0453
152.4260,86.0555
152.4119,86.0649
152.3972,86.0734
152.3820,86.0811
152.3662,86.0880
152.3498,86.0941
152.3329,86.0994
152.3154,86.1039
152.2974,86.1075
152.2788,86.1104
152.2597,86.1124
152.2400,86.1136
152.2197,86.1140
152.2001,86.1136
152.1811,86.1124
152.1625,86.1104
152.1444,86.1075
152.1269,86.1039
152.1099,86.0994
152.0934,86.0941
152.0774,86.0880
152.0619,86.0811
152.0469,86.0734
152.0325,86.0649
152.0185,86.0555
152.0051,86.0453
151.9922,86.0344
151.9798,86.0226
151.9679,86.0100
151.9566,85.9967
151.9461,85.9828
151.9363,85.9683
151.9272,85.9532
151.9188,85.9375
151.9112,85.9212
151.9043,85.9043
151.8981,85.8868
151.8926,85.8687
151.8879,85.8501
151.8839,85.8308
151.8807,85.8109
151.8781,85.7904
151.8763,85.7693
151.8752,85.7476
151.8748,85.7253
151.8752,85.7031
151.8763,85.6814
151.8781,85.6603
151.8807,85.6398
151.8839,85.6199
151.8879,85.6006
151.8926,85.5819
151.8981,85.5638
151.9043,85.5464
151.9112,85.5295
151.9188,85.5132
151.9272,85.4975
151.9363,85.4824
151.9461,85.4679
151.9566,85.4540
151.9679,85.4407
151.9798,85.4281
151.9922,85.4163
152.0051,85.4053
152.0185,85.3952
152.0325,85.3858
152.0469,85.3773
152.0619,85.3696
152.0774,85.3627
152.0934,85.3566
152.1099,85.3513
152.1269,85.3468
152.1444,85.3432
152.1625,85.3403
152.1810,85.3383
152.2001,85.3371
152.2197,85.3367
Z" /> 
<path style="fill:#000000; fill-opacity:1.0000; 
stroke:#000000; stroke-width:0.0485; stroke-opacity:1; 
stroke-linecap:round; stroke-linejoin:round;fill-rule:evenodd;"
d="M 151.3329,91.3967
149.4716,92.1083
149.4162,92.1299
149.3594,92.1508
149.3012,92.1709
149.2417,92.1904
149.2121,92.1997
149.1835,92.2082
149.1560,92.2161
149.1295,92.2233
149.1040,92.2298
149.0795,92.2356
149.0561,92.2407
149.0337,92.2452
149.0561,92.2496
149.0795,92.2548
149.1040,92.2606
149.1295,92.2671
149.1560,92.2743
149.1835,92.2821
149.2121,92.2907
149.2417,92.2999
149.3012,92.3191
149.3594,92.3383
149.4162,92.3574
149.4716,92.3766
151.3329,93.0390
151.3329,93.5590
147.3367,92.0591
147.3367,91.5445
148.5082,91.9879
151.3329,90.8657
Z" /> 
<path style="fill:#000000; fill-opacity:1.0000; 
stroke:#000000; stroke-width:0.0485; stroke-opacity:1; 
stroke-linecap:round; stroke-linejoin:round;fill-rule:evenodd;"
d="M 148.7709,85.5337
150.8840,85.5337
150.8840,84.5757
151.3329,84.5757
151.3329,86.0264
148.7709,86.0264
148.7709,87.0392
148.3220,87.0392
148.3220,84.4663
148.7709,84.4663
Z" /> 
<path style="fill:#000000; fill-opacity:1.0000; 
stroke:#000000; stroke-width:0.0485; stroke-opacity:1; 
stroke-linecap:round; stroke-linejoin:round;fill-rule:evenodd;"
d="M 150.2654,100.9000
150.3296,100.9011
150.3920,100.9042
150.4527,100.9094
150.5117,100.9168
150.5691,100.9262
150.6247,100.9377
150.6785,100.9513
150.7307,100.9671
150.7812,100.9849
150.8299,101.0048
150.8770,101.0268
150.9223,101.0509
150.9659,101.0771
151.0079,101.1054
151.0481,101.1358
151.0865,101.1682
151.1230,101.2025
151.1571,101.2382
151.1889,101.2754
151.2183,101.3140
151.2453,101.3541
151.2700,101.3956
151.2924,101.4386
151.3124,101.4830
151.3300,101.5289
151.3453,101.5763
151.3582,101.6251
151.3688,101.6753
151.3770,101.7270
151.3829,101.7802
151.3865,101.8348
151.3876,101.8909
151.3870,101.9328
151.3850,101.9738
151.3817,102.0139
151.3770,102.0530
151.3711,102.0912
151.3638,102.1285
151.3552,102.1648
151.3452,102.2001
151.3339,102.2346
151.3213,102.2681
151.3074,102.3006
151.2922,102.3322
151.2756,102.3629
151.2577,102.3926
151.2385,102.4214
151.2179,102.4492
151.1962,102.4766
151.1736,102.5025
151.1501,102.5270
151.1256,102.5502
151.1001,102.5719
151.0737,102.5922
151.0464,102.6110
151.0181,102.6285
150.9889,102.6446
150.9588,102.6592
150.9277,102.6725
150.8956,102.6843
150.8627,102.6947
150.8287,102.7037
150.7939,102.7113
150.7581,102.7175
150.7581,102.7229
151.4424,102.7120
152.3183,102.7120
152.3183,103.2046
148.3220,103.2046
148.3220,102.7120
148.8968,102.7120
148.8968,102.7065
148.8604,102.7010
148.8249,102.6941
148.7904,102.6858
148.7569,102.6761
148.7244,102.6649
148.6928,102.6524
148.6623,102.6384
148.6327,102.6230
148.6041,102.6062
148.5765,102.5880
148.5499,102.5684
148.5243,102.5474
148.4996,102.5250
148.4759,102.5011
148.4532,102.4759
148.4315,102.4492
148.4116,102.4214
148.3930,102.3926
148.3757,102.3629
148.3597,102.3322
148.3449,102.3006
148.3315,102.2681
148.3193,102.2346
148.3084,102.2001
148.2987,102.1648
148.2904,102.1285
148.2833,102.0912
148.2779,102.0551
148.6943,102.0551
148.6950,102.0929
148.6973,102.1297
148.7010,102.1654
148.7063,102.2001
148.7130,102.2338
148.7212,102.2665
148.7310,102.2982
148.7422,102.3288
148.7549,102.3584
148.7691,102.3870
148.7848,102.4145
148.8021,102.4410
148.8208,102.4665
148.8410,102.4910
148.8627,102.5144
148.8859,102.5368
148.9104,102.5580
148.9361,102.5779
148.9629,102.5963
148.9909,102.6135
149.0201,102.6292
149.0504,102.6436
149.0818,102.6566
149.1144,102.6682
149.1482,102.6785
149.1831,102.6874
149.2192,102.6949
149.2564,102.7010
149.2948,102.7058
149.3344,102.7093
149.3750,102.7113
149.4169,102.7120
150.2380,102.7120
150.2799,102.7113
150.3206,102.7093
150.3601,102.7058
150.3985,102.7010
150.4357,102.6949
150.4718,102.6874
150.5067,102.6785
150.5405,102.6682
150.5731,102.6566
150.6046,102.6436
150.6349,102.6292
150.6640,102.6135
150.6920,102.5963
150.7188,102.5779
150.7445,102.5580
150.7690,102.5368
150.7922,102.5144
150.8139,102.4910
150.8342,102.4665
150.8529,102.4410
150.8701,102.4145
150.8858,102.3870
150.9000,102.3584
150.9127,102.3288
150.9240,102.2982
150.9337,102.2665
150.9419,102.2338
150.9487,102.2001
150.9539,102.1654
150.9576,102.1297
150.9599,102.0929
150.9606,102.0551
150.9600,102.0166
150.9581,101.9792
150.9549,101.9429
150.9504,101.9076
150.9446,101.8734
150.9375,101.8403
150.9292,101.8082
150.9196,101.7773
150.9087,101.7473
150.8965,101.7185
150.8830,101.6907
150.8683,101.6640
150.8522,101.6384
150.8349,101.6138
150.8163,101.5903
150.7964,101.5679
150.7757,101.5467
150.7534,101.5268
150.7294,101.5083
150.7037,101.4912
150.6763,101.4755
150.6473,101.4611
150.6166,101.4481
150.5843,101.4365
150.5503,101.4262
150.5146,101.4173
150.4772,101.4098
150.4382,101.4036
150.3975,101.3989
150.3551,101.3954
150.3111,101.3934
150.2654,101.3927
149.3895,101.3927
149.3445,101.3934
149.3010,101.3954
149.2591,101.3989
149.2188,101.4036
149.1801,101.4098
149.1429,101.4173
149.1074,101.4262
149.0734,101.4365
149.0410,101.4481
149.0102,101.4611
148.9809,101.4755
148.9533,101.4912
148.9272,101.5083
148.9027,101.5268
148.8798,101.5467
148.8585,101.5679
148.8386,101.5903
148.8200,101.6138
148.8027,101.6384
148.7867,101.6640
148.7719,101.6907
148.7584,101.7185
148.7463,101.7473
148.7353,101.7773
148.7257,101.8082
148.7174,101.8403
148.7103,101.8734
148.7046,101.9076
148.7001,101.9429
148.6969,101.9792
148.6949,102.0166
148.6943,102.0551
148.2779,102.0551
148.2776,102.0530
148.2731,102.0139
148.2699,101.9738
148.2679,101.9328
148.2673,101.8909
148.2673,101.8909
148.2685,101.8354
148.2720,101.7814
148.2779,101.7287
148.2861,101.6774
148.2967,101.6274
148.3096,101.5788
148.3249,101.5316
148.3426,101.4858
148.3626,101.4413
148.3849,101.3982
148.4096,101.3564
148.4367,101.3161
148.4661,101.2770
148.4978,101.2394
148.5319,101.2031
148.5684,101.1682
148.6069,101.1358
148.6470,101.1054
148.6888,101.0771
148.7323,101.0509
148.7774,101.0268
148.8242,101.0048
148.8727,100.9849
148.9228,100.9671
148.9747,100.9513
149.0281,100.9377
149.0833,100.9262
149.1401,100.9168
149.1986,100.9094
149.2587,100.9042
149.3206,100.9011
149.3841,100.9000
Z" /> 
</g>
<g style="fill:none; 
stroke:#000000; stroke-width:0.5948; stroke-opacity:1; 
stroke-linecap:round; stroke-linejoin:round;">
<path d="M141.6945 81.3981
L141.5910 102.9315
" />
<path style="fill:#000000; fill-opacity:1.0000; 
stroke:#000000; stroke-width:0.0485; stroke-opacity:1; 
stroke-linecap:round; stroke-linejoin:round;fill-rule:evenodd;"
d="M 143.7510,84.3680
143.7692,84.3682
143.8033,84.3697
143.8368,84.3721
143.8698,84.3756
143.9021,84.3800
143.9340,84.3854
143.9653,84.3918
143.9960,84.3992
144.0262,84.4076
144.0558,84.4169
144.0849,84.4272
144.1134,84.4385
144.1413,84.4508
144.1687,84.4641
144.1955,84.4784
144.2218,84.4936
144.2475,84.5098
144.2724,84.5266
144.2965,84.5443
144.3200,84.5627
144.3427,84.5819
144.3647,84.6019
144.3860,84.6227
144.4066,84.6442
144.4264,84.6665
144.4455,84.6895
144.4639,84.7133
144.4815,84.7379
144.4984,84.7633
144.5146,84.7894
144.5301,84.8163
144.5448,84.8440
144.5594,84.8723
144.5730,84.9011
144.5857,84.9305
144.5975,84.9603
144.6083,84.9907
144.6182,85.0216
144.6271,85.0530
144.6351,85.0849
144.6422,85.1173
144.6483,85.1502
144.6535,85.1836
144.6577,85.2176
144.6610,85.2521
144.6633,85.2871
144.6648,85.3226
144.6652,85.3586
144.6652,86.2892
144.9006,86.2892
144.9367,86.2886
144.9716,86.2867
145.0053,86.2836
145.0379,86.2792
145.0694,86.2736
145.0997,86.2667
145.1289,86.2585
145.1569,86.2492
145.1838,86.2385
145.2095,86.2266
145.2341,86.2135
145.2576,86.1991
145.2799,86.1835
145.3010,86.1666
145.3211,86.1485
145.3399,86.1291
145.3577,86.1084
145.3743,86.0865
145.3897,86.0634
145.4040,86.0390
145.4172,86.0134
145.4292,85.9865
145.4400,85.9583
145.4498,85.9289
145.4583,85.8983
145.4658,85.8664
145.4721,85.8332
145.4772,85.7988
145.4812,85.7632
145.4841,85.7263
145.4858,85.6881
145.4864,85.6487
145.4860,85.6135
145.4847,85.5793
145.4827,85.5458
145.4799,85.5132
145.4762,85.4815
145.4717,85.4506
145.4665,85.4206
145.4604,85.3914
145.4535,85.3631
145.4457,85.3356
145.4372,85.3090
145.4279,85.2833
145.4177,85.2584
145.4067,85.2344
145.3950,85.2112
145.3824,85.1889
145.3690,85.1676
145.3551,85.1476
145.3405,85.1289
145.3252,85.1115
145.3093,85.0954
145.2928,85.0806
145.2756,85.0670
145.2578,85.0547
145.2394,85.0438
145.2299,85.0387
145.2203,85.0340
145.2105,85.0297
145.2005,85.0256
145.1802,85.0185
145.1591,85.0126
145.1375,85.0080
145.1152,85.0048
145.0922,85.0027
145.0922,84.5101
145.1362,84.5145
145.1792,84.5212
145.2212,84.5299
145.2623,84.5408
145.3023,84.5539
145.3414,84.5691
145.3795,84.5864
145.4166,84.6059
145.4527,84.6275
145.4878,84.6512
145.5220,84.6771
145.5551,84.7051
145.5873,84.7352
145.6185,84.7675
145.6487,84.8019
145.6780,84.8385
145.7065,84.8776
145.7331,84.9182
145.7580,84.9604
145.7810,85.0041
145.8021,85.0494
145.8214,85.0961
145.8389,85.1445
145.8545,85.1943
145.8683,85.2457
145.8803,85.2987
145.8904,85.3532
145.8987,85.4092
145.9051,85.4668
145.9097,85.5259
145.9124,85.5865
145.9134,85.6487
145.9123,85.7161
145.9093,85.7815
145.9041,85.8449
145.8969,85.9063
145.8877,85.9657
145.8764,86.0231
145.8631,86.0785
145.8477,86.1318
145.8302,86.1831
145.8107,86.2325
145.7892,86.2798
145.7656,86.3251
145.7399,86.3684
145.7122,86.4097
145.6824,86.4490
145.6506,86.4863
145.6169,86.5221
145.5817,86.5555
145.5448,86.5867
145.5062,86.6156
145.4661,86.6422
145.4243,86.6664
145.3809,86.6883
145.3358,86.7080
145.2892,86.7253
145.2409,86.7403
145.1910,86.7530
145.1394,86.7634
145.0863,86.7715
145.0315,86.7773
144.9751,86.7807
144.9171,86.7819
142.8478,86.7819
142.8478,86.2947
143.3952,86.2947
143.3952,86.2837
143.3608,86.2775
143.3272,86.2698
143.2945,86.2606
143.2628,86.2498
143.2319,86.2376
143.2020,86.2239
143.1729,86.2087
143.1448,86.1920
143.1175,86.1738
143.0911,86.1541
143.0657,86.1329
143.0411,86.1102
143.0174,86.0861
142.9946,86.0604
142.9728,86.0332
142.9518,86.0045
142.9326,85.9745
142.9146,85.9433
142.8978,85.9109
142.8823,85.8772
142.8681,85.8424
142.8550,85.8064
142.8433,85.7692
142.8327,85.7308
142.8234,85.6912
142.8154,85.6504
142.8085,85.6084
142.8030,85.5652
142.7986,85.5208
142.7973,85.5009
143.2091,85.5009
143.2098,85.5455
143.2118,85.5889
143.2152,85.6312
143.2200,85.6723
143.2262,85.7123
143.2337,85.7511
143.2426,85.7887
143.2529,85.8252
143.2645,85.8606
143.2775,85.8948
143.2919,85.9278
143.3076,85.9597
143.3247,85.9904
143.3432,86.0200
143.3630,86.0484
143.3843,86.0757
143.4066,86.1015
143.4300,86.1257
143.4544,86.1482
143.4797,86.1691
143.5060,86.1883
143.5333,86.2058
143.5616,86.2216
143.5909,86.2358
143.6212,86.2483
143.6524,86.2592
143.6846,86.2683
143.7178,86.2758
143.7520,86.2817
143.7872,86.2859
143.8234,86.2884
143.8605,86.2892
144.2820,86.2892
144.2820,85.4133
144.2815,85.3835
144.2797,85.3545
144.2768,85.3261
144.2728,85.2984
144.2676,85.2713
144.2612,85.2450
144.2537,85.2193
144.2451,85.1943
144.2353,85.1700
144.2243,85.1464
144.2122,85.1235
144.1989,85.1013
144.1845,85.0797
144.1689,85.0589
144.1521,85.0387
144.1342,85.0192
144.1161,85.0013
144.0971,84.9845
144.0774,84.9689
144.0569,84.9545
144.0357,84.9412
144.0136,84.9291
143.9908,84.9181
143.9673,84.9083
143.9429,84.8996
143.9178,84.8921
143.8919,84.8858
143.8653,84.8806
143.8379,84.8766
143.8097,84.8737
143.7808,84.8719
143.7510,84.8714
143.7200,84.8720
143.6897,84.8739
143.6603,84.8771
143.6316,84.8816
143.6038,84.8874
143.5768,84.8945
143.5506,84.9028
143.5252,84.9124
143.5006,84.9233
143.4769,84.9355
143.4539,84.9490
143.4318,84.9637
143.4105,84.9798
143.3900,84.9971
143.3703,85.0157
143.3514,85.0356
143.3342,85.0573
143.3181,85.0800
143.3030,85.1036
143.2891,85.1283
143.2764,85.1539
143.2647,85.1806
143.2541,85.2082
143.2447,85.2368
143.2363,85.2663
143.2291,85.2969
143.2230,85.3284
143.2180,85.3610
143.2141,85.3945
143.2113,85.4290
143.2096,85.4644
143.2091,85.5009
142.7973,85.5009
142.7955,85.4752
142.7937,85.4284
142.7930,85.3805
142.7940,85.3230
142.7971,85.2671
142.8021,85.2127
142.8091,85.1598
142.8182,85.1084
142.8292,85.0584
142.8423,85.0100
142.8574,84.9630
142.8744,84.9176
142.8935,84.8737
142.9146,84.8312
142.9378,84.7903
142.9629,84.7508
142.9900,84.7129
143.0192,84.6764
143.0503,84.6414
143.0838,84.6083
143.1185,84.5773
143.1544,84.5484
143.1916,84.5217
143.2301,84.4971
143.2697,84.4746
143.3106,84.4543
143.3528,84.4362
143.3962,84.4201
143.4408,84.4062
143.4867,84.3945
143.5338,84.3848
143.5821,84.3773
143.6317,84.3720
143.6825,84.3688
143.7346,84.3677
Z" /> 
</g>
<g style="fill:none; 
stroke:#000000; stroke-width:0.1200; stroke-opacity:1; 
stroke-linecap:round; stroke-linejoin:round;">
<path d="M126.6460 53.2960
L126.6460 52.3540
" />
<path d="M126.6460 52.3540
L122.5600 52.3540
" />
<path d="M126.2830 53.2960
L126.6460 53.2960
" />
<path d="M126.2810 56.6090
L126.3660 56.1820
" />
<path d="M126.0920 56.8920
L126.2810 56.6090
" />
<path d="M125.8090 57.0810
L126.0920 56.8920
" />
<path d="M125.4820 57.1460
L125.8090 57.0810
" />
<path d="M122.6820 57.1460
L125.4820 57.1460
" />
<path d="M122.5600 52.3540
L122.2500 52.4130
" />
<path d="M122.2500 52.4130
L121.9760 52.5830
" />
<path d="M122.2440 57.2330
L122.6820 57.1460
" />
<path d="M121.9760 52.5830
L121.7830 52.8410
" />
<path d="M121.8770 57.4770
L122.2440 57.2330
" />
<path d="M121.7830 52.8410
L121.7010 53.1390
" />
<path d="M121.7010 53.1390
L121.5470 53.6970
" />
<path d="M121.6330 57.8440
L121.8770 57.4770
" />
<path d="M121.5470 53.6970
L121.2090 54.1500
" />
<path d="M121.5460 58.5040
L121.5460 58.2820
" />
<path d="M121.5460 58.2820
L121.6330 57.8440
" />
<path d="M121.2090 54.1500
L120.7300 54.4490
" />
<path d="M121.0130 59.0370
L121.5460 58.5040
" />
<path d="M120.7300 54.4490
L120.1680 54.5540
" />
<path d="M120.6710 59.2660
L121.0130 59.0370
" />
<path d="M120.2680 59.3460
L120.6710 59.2660
" />
<path d="M120.1680 54.5540
L117.5210 54.5540
" />
<path d="M117.5210 59.3460
L120.2680 59.3460
" />
<path d="M117.5210 54.5540
L116.5000 55.5750
" />
<path d="M116.5840 58.4090
L117.5210 59.3460
" />
<path d="M126.6460 70.2960
L126.6460 69.3540
" />
<path d="M126.6460 69.3540
L122.5600 69.3540
" />
<path d="M126.2830 70.2960
L126.6460 70.2960
" />
<path d="M126.2810 73.6090
L126.3660 73.1820
" />
<path d="M126.0920 73.8920
L126.2810 73.6090
" />
<path d="M125.8090 74.0810
L126.0920 73.8920
" />
<path d="M125.4820 74.1460
L125.8090 74.0810
" />
<path d="M122.6820 74.1460
L125.4820 74.1460
" />
<path d="M122.5600 69.3540
L122.2500 69.4130
" />
<path d="M122.2500 69.4130
L121.9760 69.5830
" />
<path d="M122.2440 74.2330
L122.6820 74.1460
" />
<path d="M121.9760 69.5830
L121.7830 69.8410
" />
<path d="M121.8770 74.4770
L122.2440 74.2330
" />
<path d="M121.7830 69.8410
L121.7010 70.1390
" />
<path d="M121.7010 70.1390
L121.5470 70.6970
" />
<path d="M121.6330 74.8440
L121.8770 74.4770
" />
<path d="M121.5470 70.6970
L121.2090 71.1500
" />
<path d="M121.5460 75.5040
L121.5460 75.2820
" />
<path d="M121.5460 75.2820
L121.6330 74.8440
" />
<path d="M121.2090 71.1500
L120.7300 71.4490
" />
<path d="M121.0130 76.0370
L121.5460 75.5040
" />
<path d="M120.7300 71.4490
L120.1680 71.5540
" />
<path d="M120.6710 76.2660
L121.0130 76.0370
" />
<path d="M120.2680 76.3460
L120.6710 76.2660
" />
<path d="M120.1680 71.5540
L117.5210 71.5540
" />
<path d="M117.5210 76.3460
L120.2680 76.3460
" />
<path d="M117.5210 71.5540
L116.5000 72.5750
" />
<path d="M116.5840 75.4090
L117.5210 76.3460
" />
</g>
<g style="fill:none; 
stroke:#000000; stroke-width:0.1524; stroke-opacity:1; 
stroke-linecap:round; stroke-linejoin:round;">
<path d="M151.0767 53.5255
L151.0767 48.3330
" />
<path d="M151.0767 48.3330
L148.8280 48.3330
" />
<path d="M145.1720 48.3330
L142.9233 48.3330
" />
<path d="M144.7320 57.1976
L149.2680 57.1976
" />
<path d="M142.9233 48.3330
L142.9233 53.5255
" />
</g>
<g style="fill:none; 
stroke:#000000; stroke-width:0.1200; stroke-opacity:1; 
stroke-linecap:round; stroke-linejoin:round;">
<path d="M31.5840 58.4090
L32.5210 59.3460
" />
<path d="M32.5210 54.5540
L31.5000 55.5750
" />
<path d="M32.5210 59.3460
L35.2680 59.3460
" />
<path d="M35.1680 54.5540
L32.5210 54.5540
" />
<path d="M35.2680 59.3460
L35.6710 59.2660
" />
<path d="M35.6710 59.2660
L36.0130 59.0370
" />
<path d="M35.7300 54.4490
L35.1680 54.5540
" />
<path d="M36.0130 59.0370
L36.5460 58.5040
" />
<path d="M36.2090 54.1500
L35.7300 54.4490
" />
<path d="M36.5460 58.2820
L36.6330 57.8440
" />
<path d="M36.5460 58.5040
L36.5460 58.2820
" />
<path d="M36.5470 53.6970
L36.2090 54.1500
" />
<path d="M36.6330 57.8440
L36.8770 57.4770
" />
<path d="M36.7010 53.1390
L36.5470 53.6970
" />
<path d="M36.7830 52.8410
L36.7010 53.1390
" />
<path d="M36.8770 57.4770
L37.2440 57.2330
" />
<path d="M36.9760 52.5830
L36.7830 52.8410
" />
<path d="M37.2440 57.2330
L37.6820 57.1460
" />
<path d="M37.2500 52.4130
L36.9760 52.5830
" />
<path d="M37.5600 52.3540
L37.2500 52.4130
" />
<path d="M37.6820 57.1460
L40.4820 57.1460
" />
<path d="M40.4820 57.1460
L40.8090 57.0810
" />
<path d="M40.8090 57.0810
L41.0920 56.8920
" />
<path d="M41.0920 56.8920
L41.2810 56.6090
" />
<path d="M41.2810 56.6090
L41.3660 56.1820
" />
<path d="M41.2830 53.2960
L41.6460 53.2960
" />
<path d="M41.6460 52.3540
L37.5600 52.3540
" />
<path d="M41.6460 53.2960
L41.6460 52.3540
" />
<path d="M116.5840 41.4090
L117.5210 42.3460
" />
<path d="M117.5210 37.5540
L116.5000 38.5750
" />
<path d="M117.5210 42.3460
L120.2680 42.3460
" />
<path d="M120.1680 37.5540
L117.5210 37.5540
" />
<path d="M120.2680 42.3460
L120.6710 42.2660
" />
<path d="M120.6710 42.2660
L121.0130 42.0370
" />
<path d="M120.7300 37.4490
L120.1680 37.5540
" />
<path d="M121.0130 42.0370
L121.5460 41.5040
" />
<path d="M121.2090 37.1500
L120.7300 37.4490
" />
<path d="M121.5460 41.2820
L121.6330 40.8440
" />
<path d="M121.5460 41.5040
L121.5460 41.2820
" />
<path d="M121.5470 36.6970
L121.2090 37.1500
" />
<path d="M121.6330 40.8440
L121.8770 40.4770
" />
<path d="M121.7010 36.1390
L121.5470 36.6970
" />
<path d="M121.7830 35.8410
L121.7010 36.1390
" />
<path d="M121.8770 40.4770
L122.2440 40.2330
" />
<path d="M121.9760 35.5830
L121.7830 35.8410
" />
<path d="M122.2440 40.2330
L122.6820 40.1460
" />
<path d="M122.2500 35.4130
L121.9760 35.5830
" />
<path d="M122.5600 35.3540
L122.2500 35.4130
" />
<path d="M122.6820 40.1460
L125.4820 40.1460
" />
<path d="M125.4820 40.1460
L125.8090 40.0810
" />
<path d="M125.8090 40.0810
L126.0920 39.8920
" />
<path d="M126.0920 39.8920
L126.2810 39.6090
" />
<path d="M126.2810 39.6090
L126.3660 39.1820
" />
<path d="M126.2830 36.2960
L126.6460 36.2960
" />
<path d="M126.6460 35.3540
L122.5600 35.3540
" />
<path d="M126.6460 36.2960
L126.6460 35.3540
" />
<path d="M31.5840 92.4090
L32.5210 93.3460
" />
<path d="M32.5210 88.5540
L31.5000 89.5750
" />
<path d="M32.5210 93.3460
L35.2680 93.3460
" />
<path d="M35.1680 88.5540
L32.5210 88.5540
" />
<path d="M35.2680 93.3460
L35.6710 93.2660
" />
<path d="M35.6710 93.2660
L36.0130 93.0370
" />
<path d="M35.7300 88.4490
L35.1680 88.5540
" />
<path d="M36.0130 93.0370
L36.5460 92.5040
" />
<path d="M36.2090 88.1500
L35.7300 88.4490
" />
<path d="M36.5460 92.2820
L36.6330 91.8440
" />
<path d="M36.5460 92.5040
L36.5460 92.2820
" />
<path d="M36.5470 87.6970
L36.2090 88.1500
" />
<path d="M36.6330 91.8440
L36.8770 91.4770
" />
<path d="M36.7010 87.1390
L36.5470 87.6970
" />
<path d="M36.7830 86.8410
L36.7010 87.1390
" />
<path d="M36.8770 91.4770
L37.2440 91.2330
" />
<path d="M36.9760 86.5830
L36.7830 86.8410
" />
<path d="M37.2440 91.2330
L37.6820 91.1460
" />
<path d="M37.2500 86.4130
L36.9760 86.5830
" />
<path d="M37.5600 86.3540
L37.2500 86.4130
" />
<path d="M37.6820 91.1460
L40.4820 91.1460
" />
<path d="M40.4820 91.1460
L40.8090 91.0810
" />
<path d="M40.8090 91.0810
L41.0920 90.8920
" />
<path d="M41.0920 90.8920
L41.2810 90.6090
" />
<path d="M41.2810 90.6090
L41.3660 90.1820
" />
<path d="M41.2830 87.2960
L41.6460 87.2960
" />
<path d="M41.6460 86.3540
L37.5600 86.3540
" />
<path d="M41.6460 87.2960
L41.6460 86.3540
" />
<path d="M65.5840 109.4090
L66.5210 110.3460
" />
<path d="M66.5210 105.5540
L65.5000 106.5750
" />
<path d="M66.5210 110.3460
L69.2680 110.3460
" />
<path d="M69.1680 105.5540
L66.5210 105.5540
" />
<path d="M69.2680 110.3460
L69.6710 110.2660
" />
<path d="M69.6710 110.2660
L70.0130 110.0370
" />
<path d="M69.7300 105.4490
L69.1680 105.5540
" />
<path d="M70.0130 110.0370
L70.5460 109.5040
" />
<path d="M70.2090 105.1500
L69.7300 105.4490
" />
<path d="M70.5460 109.2820
L70.6330 108.8440
" />
<path d="M70.5460 109.5040
L70.5460 109.2820
" />
<path d="M70.5470 104.6970
L70.2090 105.1500
" />
<path d="M70.6330 108.8440
L70.8770 108.4770
" />
<path d="M70.7010 104.1390
L70.5470 104.6970
" />
<path d="M70.7830 103.8410
L70.7010 104.1390
" />
<path d="M70.8770 108.4770
L71.2440 108.2330
" />
<path d="M70.9760 103.5830
L70.7830 103.8410
" />
<path d="M71.2440 108.2330
L71.6820 108.1460
" />
<path d="M71.2500 103.4130
L70.9760 103.5830
" />
<path d="M71.5600 103.3540
L71.2500 103.4130
" />
<path d="M71.6820 108.1460
L74.4820 108.1460
" />
<path d="M74.4820 108.1460
L74.8090 108.0810
" />
<path d="M74.8090 108.0810
L75.0920 107.8920
" />
<path d="M75.0920 107.8920
L75.2810 107.6090
" />
<path d="M75.2810 107.6090
L75.3660 107.1820
" />
<path d="M75.2830 104.2960
L75.6460 104.2960
" />
<path d="M75.6460 103.3540
L71.5600 103.3540
" />
<path d="M75.6460 104.2960
L75.6460 103.3540
" />
<path d="M82.5840 58.4090
L83.5210 59.3460
" />
<path d="M83.5210 54.5540
L82.5000 55.5750
" />
<path d="M83.5210 59.3460
L86.2680 59.3460
" />
<path d="M86.1680 54.5540
L83.5210 54.5540
" />
<path d="M86.2680 59.3460
L86.6710 59.2660
" />
<path d="M86.6710 59.2660
L87.0130 59.0370
" />
<path d="M86.7300 54.4490
L86.1680 54.5540
" />
<path d="M87.0130 59.0370
L87.5460 58.5040
" />
<path d="M87.2090 54.1500
L86.7300 54.4490
" />
<path d="M87.5460 58.2820
L87.6330 57.8440
" />
<path d="M87.5460 58.5040
L87.5460 58.2820
" />
<path d="M87.5470 53.6970
L87.2090 54.1500
" />
<path d="M87.6330 57.8440
L87.8770 57.4770
" />
<path d="M87.7010 53.1390
L87.5470 53.6970
" />
<path d="M87.7830 52.8410
L87.7010 53.1390
" />
<path d="M87.8770 57.4770
L88.2440 57.2330
" />
<path d="M87.9760 52.5830
L87.7830 52.8410
" />
<path d="M88.2440 57.2330
L88.6820 57.1460
" />
<path d="M88.2500 52.4130
L87.9760 52.5830
" />
<path d="M88.5600 52.3540
L88.2500 52.4130
" />
<path d="M88.6820 57.1460
L91.4820 57.1460
" />
<path d="M91.4820 57.1460
L91.8090 57.0810
" />
<path d="M91.8090 57.0810
L92.0920 56.8920
" />
<path d="M92.0920 56.8920
L92.2810 56.6090
" />
<path d="M92.2810 56.6090
L92.3660 56.1820
" />
<path d="M92.2830 53.2960
L92.6460 53.2960
" />
<path d="M92.6460 52.3540
L88.5600 52.3540
" />
<path d="M92.6460 53.2960
L92.6460 52.3540
" />
<path d="M31.5840 109.4090
L32.5210 110.3460
" />
<path d="M32.5210 105.5540
L31.5000 106.5750
" />
<path d="M32.5210 110.3460
L35.2680 110.3460
" />
<path d="M35.1680 105.5540
L32.5210 105.5540
" />
<path d="M35.2680 110.3460
L35.6710 110.2660
" />
<path d="M35.6710 110.2660
L36.0130 110.0370
" />
<path d="M35.7300 105.4490
L35.1680 105.5540
" />
<path d="M36.0130 110.0370
L36.5460 109.5040
" />
<path d="M36.2090 105.1500
L35.7300 105.4490
" />
<path d="M36.5460 109.2820
L36.6330 108.8440
" />
<path d="M36.5460 109.5040
L36.5460 109.2820
" />
<path d="M36.5470 104.6970
L36.2090 105.1500
" />
<path d="M36.6330 108.8440
L36.8770 108.4770
" />
<path d="M36.7010 104.1390
L36.5470 104.6970
" />
<path d="M36.7830 103.8410
L36.7010 104.1390
" />
<path d="M36.8770 108.4770
L37.2440 108.2330
" />
<path d="M36.9760 103.5830
L36.7830 103.8410
" />
<path d="M37.2440 108.2330
L37.6820 108.1460
" />
<path d="M37.2500 103.4130
L36.9760 103.5830
" />
<path d="M37.5600 103.3540
L37.2500 103.4130
" />
<path d="M37.6820 108.1460
L40.4820 108.1460
" />
<path d="M40.4820 108.1460
L40.8090 108.0810
" />
<path d="M40.8090 108.0810
L41.0920 107.8920
" />
<path d="M41.0920 107.8920
L41.2810 107.6090
" />
<path d="M41.2810 107.6090
L41.3660 107.1820
" />
<path d="M41.2830 104.2960
L41.6460 104.2960
" />
<path d="M41.6460 103.3540
L37.5600 103.3540
" />
<path d="M41.6460 104.2960
L41.6460 103.3540
" />
<path d="M82.5840 75.4090
L83.5210 76.3460
" />
<path d="M83.5210 71.5540
L82.5000 72.5750
" />
<path d="M83.5210 76.3460
L86.2680 76.3460
" />
<path d="M86.1680 71.5540
L83.5210 71.5540
" />
<path d="M86.2680 76.3460
L86.6710 76.2660
" />
<path d="M86.6710 76.2660
L87.0130 76.0370
" />
<path d="M86.7300 71.4490
L86.1680 71.5540
" />
<path d="M87.0130 76.0370
L87.5460 75.5040
" />
<path d="M87.2090 71.1500
L86.7300 71.4490
" />
<path d="M87.5460 75.2820
L87.6330 74.8440
" />
<path d="M87.5460 75.5040
L87.5460 75.2820
" />
<path d="M87.5470 70.6970
L87.2090 71.1500
" />
<path d="M87.6330 74.8440
L87.8770 74.4770
" />
<path d="M87.7010 70.1390
L87.5470 70.6970
" />
<path d="M87.7830 69.8410
L87.7010 70.1390
" />
<path d="M87.8770 74.4770
L88.2440 74.2330
" />
<path d="M87.9760 69.5830
L87.7830 69.8410
" />
<path d="M88.2440 74.2330
L88.6820 74.1460
" />
<path d="M88.2500 69.4130
L87.9760 69.5830
" />
<path d="M88.5600 69.3540
L88.2500 69.4130
" />
<path d="M88.6820 74.1460
L91.4820 74.1460
" />
<path d="M91.4820 74.1460
L91.8090 74.0810
" />
<path d="M91.8090 74.0810
L92.0920 73.8920
" />
<path d="M92.0920 73.8920
L92.2810 73.6090
" />
<path d="M92.2810 73.6090
L92.3660 73.1820
" />
<path d="M92.2830 70.2960
L92.6460 70.2960
" />
<path d="M92.6460 69.3540
L88.5600 69.3540
" />
<path d="M92.6460 70.2960
L92.6460 69.3540
" />
<path d="M65.5840 58.4090
L66.5210 59.3460
" />
<path d="M66.5210 54.5540
L65.5000 55.5750
" />
<path d="M66.5210 59.3460
L69.2680 59.3460
" />
<path d="M69.1680 54.5540
L66.5210 54.5540
" />
<path d="M69.2680 59.3460
L69.6710 59.2660
" />
<path d="M69.6710 59.2660
L70.0130 59.0370
" />
<path d="M69.7300 54.4490
L69.1680 54.5540
" />
<path d="M70.0130 59.0370
L70.5460 58.5040
" />
<path d="M70.2090 54.1500
L69.7300 54.4490
" />
<path d="M70.5460 58.2820
L70.6330 57.8440
" />
<path d="M70.5460 58.5040
L70.5460 58.2820
" />
<path d="M70.5470 53.6970
L70.2090 54.1500
" />
<path d="M70.6330 57.8440
L70.8770 57.4770
" />
<path d="M70.7010 53.1390
L70.5470 53.6970
" />
<path d="M70.7830 52.8410
L70.7010 53.1390
" />
<path d="M70.8770 57.4770
L71.2440 57.2330
" />
<path d="M70.9760 52.5830
L70.7830 52.8410
" />
<path d="M71.2440 57.2330
L71.6820 57.1460
" />
<path d="M71.2500 52.4130
L70.9760 52.5830
" />
<path d="M71.5600 52.3540
L71.2500 52.4130
" />
<path d="M71.6820 57.1460
L74.4820 57.1460
" />
<path d="M74.4820 57.1460
L74.8090 57.0810
" />
<path d="M74.8090 57.0810
L75.0920 56.8920
" />
<path d="M75.0920 56.8920
L75.2810 56.6090
" />
<path d="M75.2810 56.6090
L75.3660 56.1820
" />
<path d="M75.2830 53.2960
L75.6460 53.2960
" />
<path d="M75.6460 52.3540
L71.5600 52.3540
" />
<path d="M75.6460 53.2960
L75.6460 52.3540
" />
<path d="M48.5840 41.4090
L49.5210 42.3460
" />
<path d="M49.5210 37.5540
L48.5000 38.5750
" />
<path d="M49.5210 42.3460
L52.2680 42.3460
" />
<path d="M52.1680 37.5540
L49.5210 37.5540
" />
<path d="M52.2680 42.3460
L52.6710 42.2660
" />
<path d="M52.6710 42.2660
L53.0130 42.0370
" />
<path d="M52.7300 37.4490
L52.1680 37.5540
" />
<path d="M53.0130 42.0370
L53.5460 41.5040
" />
<path d="M53.2090 37.1500
L52.7300 37.4490
" />
<path d="M53.5460 41.2820
L53.6330 40.8440
" />
<path d="M53.5460 41.5040
L53.5460 41.2820
" />
<path d="M53.5470 36.6970
L53.2090 37.1500
" />
<path d="M53.6330 40.8440
L53.8770 40.4770
" />
<path d="M53.7010 36.1390
L53.5470 36.6970
" />
<path d="M53.7830 35.8410
L53.7010 36.1390
" />
<path d="M53.8770 40.4770
L54.2440 40.2330
" />
<path d="M53.9760 35.5830
L53.7830 35.8410
" />
<path d="M54.2440 40.2330
L54.6820 40.1460
" />
<path d="M54.2500 35.4130
L53.9760 35.5830
" />
<path d="M54.5600 35.3540
L54.2500 35.4130
" />
<path d="M54.6820 40.1460
L57.4820 40.1460
" />
<path d="M57.4820 40.1460
L57.8090 40.0810
" />
<path d="M57.8090 40.0810
L58.0920 39.8920
" />
<path d="M58.0920 39.8920
L58.2810 39.6090
" />
<path d="M58.2810 39.6090
L58.3660 39.1820
" />
<path d="M58.2830 36.2960
L58.6460 36.2960
" />
<path d="M58.6460 35.3540
L54.5600 35.3540
" />
<path d="M58.6460 36.2960
L58.6460 35.3540
" />
<path d="M116.5840 92.4090
L117.5210 93.3460
" />
<path d="M117.5210 88.5540
L116.5000 89.5750
" />
<path d="M117.5210 93.3460
L120.2680 93.3460
" />
<path d="M120.1680 88.5540
L117.5210 88.5540
" />
<path d="M120.2680 93.3460
L120.6710 93.2660
" />
<path d="M120.6710 93.2660
L121.0130 93.0370
" />
<path d="M120.7300 88.4490
L120.1680 88.5540
" />
<path d="M121.0130 93.0370
L121.5460 92.5040
" />
<path d="M121.2090 88.1500
L120.7300 88.4490
" />
<path d="M121.5460 92.2820
L121.6330 91.8440
" />
<path d="M121.5460 92.5040
L121.5460 92.2820
" />
<path d="M121.5470 87.6970
L121.2090 88.1500
" />
<path d="M121.6330 91.8440
L121.8770 91.4770
" />
<path d="M121.7010 87.1390
L121.5470 87.6970
" />
<path d="M121.7830 86.8410
L121.7010 87.1390
" />
<path d="M121.8770 91.4770
L122.2440 91.2330
" />
<path d="M121.9760 86.5830
L121.7830 86.8410
" />
<path d="M122.2440 91.2330
L122.6820 91.1460
" />
<path d="M122.2500 86.4130
L121.9760 86.5830
" />
<path d="M122.5600 86.3540
L122.2500 86.4130
" />
<path d="M122.6820 91.1460
L125.4820 91.1460
" />
<path d="M125.4820 91.1460
L125.8090 91.0810
" />
<path d="M125.8090 91.0810
L126.0920 90.8920
" />
<path d="M126.0920 90.8920
L126.2810 90.6090
" />
<path d="M126.2810 90.6090
L126.3660 90.1820
" />
<path d="M126.2830 87.2960
L126.6460 87.2960
" />
<path d="M126.6460 86.3540
L122.5600 86.3540
" />
<path d="M126.6460 87.2960
L126.6460 86.3540
" />
<path d="M99.5840 109.4090
L100.5210 110.3460
" />
<path d="M100.5210 105.5540
L99.5000 106.5750
" />
<path d="M100.5210 110.3460
L103.2680 110.3460
" />
<path d="M103.1680 105.5540
L100.5210 105.5540
" />
<path d="M103.2680 110.3460
L103.6710 110.2660
" />
<path d="M103.6710 110.2660
L104.0130 110.0370
" />
<path d="M103.7300 105.4490
L103.1680 105.5540
" />
<path d="M104.0130 110.0370
L104.5460 109.5040
" />
<path d="M104.2090 105.1500
L103.7300 105.4490
" />
<path d="M104.5460 109.2820
L104.6330 108.8440
" />
<path d="M104.5460 109.5040
L104.5460 109.2820
" />
<path d="M104.5470 104.6970
L104.2090 105.1500
" />
<path d="M104.6330 108.8440
L104.8770 108.4770
" />
<path d="M104.7010 104.1390
L104.5470 104.6970
" />
<path d="M104.7830 103.8410
L104.7010 104.1390
" />
<path d="M104.8770 108.4770
L105.2440 108.2330
" />
<path d="M104.9760 103.5830
L104.7830 103.8410
" />
<path d="M105.2440 108.2330
L105.6820 108.1460
" />
<path d="M105.2500 103.4130
L104.9760 103.5830
" />
<path d="M105.5600 103.3540
L105.2500 103.4130
" />
<path d="M105.6820 108.1460
L108.4820 108.1460
" />
<path d="M108.4820 108.1460
L108.8090 108.0810
" />
<path d="M108.8090 108.0810
L109.0920 107.8920
" />
<path d="M109.0920 107.8920
L109.2810 107.6090
" />
<path d="M109.2810 107.6090
L109.3660 107.1820
" />
<path d="M109.2830 104.2960
L109.6460 104.2960
" />
<path d="M109.6460 103.3540
L105.5600 103.3540
" />
<path d="M109.6460 104.2960
L109.6460 103.3540
" />
<path d="M99.5840 41.4090
L100.5210 42.3460
" />
<path d="M100.5210 37.5540
L99.5000 38.5750
" />
<path d="M100.5210 42.3460
L103.2680 42.3460
" />
<path d="M103.1680 37.5540
L100.5210 37.5540
" />
<path d="M103.2680 42.3460
L103.6710 42.2660
" />
<path d="M103.6710 42.2660
L104.0130 42.0370
" />
<path d="M103.7300 37.4490
L103.1680 37.5540
" />
<path d="M104.0130 42.0370
L104.5460 41.5040
" />
<path d="M104.2090 37.1500
L103.7300 37.4490
" />
<path d="M104.5460 41.2820
L104.6330 40.8440
" />
<path d="M104.5460 41.5040
L104.5460 41.2820
" />
<path d="M104.5470 36.6970
L104.2090 37.1500
" />
<path d="M104.6330 40.8440
L104.8770 40.4770
" />
<path d="M104.7010 36.1390
L104.5470 36.6970
" />
<path d="M104.7830 35.8410
L104.7010 36.1390
" />
<path d="M104.8770 40.4770
L105.2440 40.2330
" />
<path d="M104.9760 35.5830
L104.7830 35.8410
" />
<path d="M105.2440 40.2330
L105.6820 40.1460
" />
<path d="M105.2500 35.4130
L104.9760 35.5830
" />
<path d="M105.5600 35.3540
L105.2500 35.4130
" />
<path d="M105.6820 40.1460
L108.4820 40.1460
" />
<path d="M108.4820 40.1460
L108.8090 40.0810
" />
<path d="M108.8090 40.0810
L109.0920 39.8920
" />
<path d="M109.0920 39.8920
L109.2810 39.6090
" />
<path d="M109.2810 39.6090
L109.3660 39.1820
" />
<path d="M109.2830 36.2960
L109.6460 36.2960
" />
<path d="M109.6460 35.3540
L105.5600 35.3540
" />
<path d="M109.6460 36.2960
L109.6460 35.3540
" />
<path d="M48.5840 58.4090
L49.5210 59.3460
" />
<path d="M49.5210 54.5540
L48.5000 55.5750
" />
<path d="M49.5210 59.3460
L52.2680 59.3460
" />
<path d="M52.1680 54.5540
L49.5210 54.5540
" />
<path d="M52.2680 59.3460
L52.6710 59.2660
" />
<path d="M52.6710 59.2660
L53.0130 59.0370
" />
<path d="M52.7300 54.4490
L52.1680 54.5540
" />
<path d="M53.0130 59.0370
L53.5460 58.5040
" />
<path d="M53.2090 54.1500
L52.7300 54.4490
" />
<path d="M53.5460 58.2820
L53.6330 57.8440
" />
<path d="M53.5460 58.5040
L53.5460 58.2820
" />
<path d="M53.5470 53.6970
L53.2090 54.1500
" />
<path d="M53.6330 57.8440
L53.8770 57.4770
" />
<path d="M53.7010 53.1390
L53.5470 53.6970
" />
<path d="M53.7830 52.8410
L53.7010 53.1390
" />
<path d="M53.8770 57.4770
L54.2440 57.2330
" />
<path d="M53.9760 52.5830
L53.7830 52.8410
" />
<path d="M54.2440 57.2330
L54.6820 57.1460
" />
<path d="M54.2500 52.4130
L53.9760 52.5830
" />
<path d="M54.5600 52.3540
L54.2500 52.4130
" />
<path d="M54.6820 57.1460
L57.4820 57.1460
" />
<path d="M57.4820 57.1460
L57.8090 57.0810
" />
<path d="M57.8090 57.0810
L58.0920 56.8920
" />
<path d="M58.0920 56.8920
L58.2810 56.6090
" />
<path d="M58.2810 56.6090
L58.3660 56.1820
" />
<path d="M58.2830 53.2960
L58.6460 53.2960
" />
<path d="M58.6460 52.3540
L54.5600 52.3540
" />
<path d="M58.6460 53.2960
L58.6460 52.3540
" />
<path d="M99.5840 92.4090
L100.5210 93.3460
" />
<path d="M100.5210 88.5540
L99.5000 89.5750
" />
<path d="M100.5210 93.3460
L103.2680 93.3460
" />
<path d="M103.1680 88.5540
L100.5210 88.5540
" />
<path d="M103.2680 93.3460
L103.6710 93.2660
" />
<path d="M103.6710 93.2660
L104.0130 93.0370
" />
<path d="M103.7300 88.4490
L103.1680 88.5540
" />
<path d="M104.0130 93.0370
L104.5460 92.5040
" />
<path d="M104.2090 88.1500
L103.7300 88.4490
" />
<path d="M104.5460 92.2820
L104.6330 91.8440
" />
<path d="M104.5460 92.5040
L104.5460 92.2820
" />
<path d="M104.5470 87.6970
L104.2090 88.1500
" />
<path d="M104.6330 91.8440
L104.8770 91.4770
" />
<path d="M104.7010 87.1390
L104.5470 87.6970
" />
<path d="M104.7830 86.8410
L104.7010 87.1390
" />
<path d="M104.8770 91.4770
L105.2440 91.2330
" />
<path d="M104.9760 86.5830
L104.7830 86.8410
" />
<path d="M105.2440 91.2330
L105.6820 91.1460
" />
<path d="M105.2500 86.4130
L104.9760 86.5830
" />
<path d="M105.5600 86.3540
L105.2500 86.4130
" />
<path d="M105.6820 91.1460
L108.4820 91.1460
" />
<path d="M108.4820 91.1460
L108.8090 91.0810
" />
<path d="M108.8090 91.0810
L109.0920 90.8920
" />
<path d="M109.0920 90.8920
L109.2810 90.6090
" />
<path d="M109.2810 90.6090
L109.3660 90.1820
" />
<path d="M109.2830 87.2960
L109.6460 87.2960
" />
<path d="M109.6460 86.3540
L105.5600 86.3540
" />
<path d="M109.6460 87.2960
L109.6460 86.3540
" />
<path d="M31.5840 75.4090
L32.5210 76.3460
" />
<path d="M32.5210 71.5540
L31.5000 72.5750
" />
<path d="M32.5210 76.3460
L35.2680 76.3460
" />
<path d="M35.1680 71.5540
L32.5210 71.5540
" />
<path d="M35.2680 76.3460
L35.6710 76.2660
" />
<path d="M35.6710 76.2660
L36.0130 76.0370
" />
<path d="M35.7300 71.4490
L35.1680 71.5540
" />
<path d="M36.0130 76.0370
L36.5460 75.5040
" />
<path d="M36.2090 71.1500
L35.7300 71.4490
" />
<path d="M36.5460 75.2820
L36.6330 74.8440
" />
<path d="M36.5460 75.5040
L36.5460 75.2820
" />
<path d="M36.5470 70.6970
L36.2090 71.1500
" />
<path d="M36.6330 74.8440
L36.8770 74.4770
" />
<path d="M36.7010 70.1390
L36.5470 70.6970
" />
<path d="M36.7830 69.8410
L36.7010 70.1390
" />
<path d="M36.8770 74.4770
L37.2440 74.2330
" />
<path d="M36.9760 69.5830
L36.7830 69.8410
" />
<path d="M37.2440 74.2330
L37.6820 74.1460
" />
<path d="M37.2500 69.4130
L36.9760 69.5830
" />
<path d="M37.5600 69.3540
L37.2500 69.4130
" />
<path d="M37.6820 74.1460
L40.4820 74.1460
" />
<path d="M40.4820 74.1460
L40.8090 74.0810
" />
<path d="M40.8090 74.0810
L41.0920 73.8920
" />
<path d="M41.0920 73.8920
L41.2810 73.6090
" />
<path d="M41.2810 73.6090
L41.3660 73.1820
" />
<path d="M41.2830 70.2960
L41.6460 70.2960
" />
<path d="M41.6460 69.3540
L37.5600 69.3540
" />
<path d="M41.6460 70.2960
L41.6460 69.3540
" />
<path d="M36.2100 47.0000
L36.2100 45.0000
" />
<path d="M36.2100 47.0000
L32.2000 47.0000
" />
<path d="M36.2100 45.0000
L32.2000 45.0000
" />
<path d="M65.5840 92.4090
L66.5210 93.3460
" />
<path d="M66.5210 88.5540
L65.5000 89.5750
" />
<path d="M66.5210 93.3460
L69.2680 93.3460
" />
<path d="M69.1680 88.5540
L66.5210 88.5540
" />
<path d="M69.2680 93.3460
L69.6710 93.2660
" />
<path d="M69.6710 93.2660
L70.0130 93.0370
" />
<path d="M69.7300 88.4490
L69.1680 88.5540
" />
<path d="M70.0130 93.0370
L70.5460 92.5040
" />
<path d="M70.2090 88.1500
L69.7300 88.4490
" />
<path d="M70.5460 92.2820
L70.6330 91.8440
" />
<path d="M70.5460 92.5040
L70.5460 92.2820
" />
<path d="M70.5470 87.6970
L70.2090 88.1500
" />
<path d="M70.6330 91.8440
L70.8770 91.4770
" />
<path d="M70.7010 87.1390
L70.5470 87.6970
" />
<path d="M70.7830 86.8410
L70.7010 87.1390
" />
<path d="M70.8770 91.4770
L71.2440 91.2330
" />
<path d="M70.9760 86.5830
L70.7830 86.8410
" />
<path d="M71.2440 91.2330
L71.6820 91.1460
" />
<path d="M71.2500 86.4130
L70.9760 86.5830
" />
<path d="M71.5600 86.3540
L71.2500 86.4130
" />
<path d="M71.6820 91.1460
L74.4820 91.1460
" />
<path d="M74.4820 91.1460
L74.8090 91.0810
" />
<path d="M74.8090 91.0810
L75.0920 90.8920
" />
<path d="M75.0920 90.8920
L75.2810 90.6090
" />
<path d="M75.2810 90.6090
L75.3660 90.1820
" />
<path d="M75.2830 87.2960
L75.6460 87.2960
" />
<path d="M75.6460 86.3540
L71.5600 86.3540
" />
<path d="M75.6460 87.2960
L75.6460 86.3540
" />
<path d="M116.5840 109.4090
L117.5210 110.3460
" />
<path d="M117.5210 105.5540
L116.5000 106.5750
" />
<path d="M117.5210 110.3460
L120.2680 110.3460
" />
<path d="M120.1680 105.5540
L117.5210 105.5540
" />
<path d="M120.2680 110.3460
L120.6710 110.2660
" />
<path d="M120.6710 110.2660
L121.0130 110.0370
" />
<path d="M120.7300 105.4490
L120.1680 105.5540
" />
<path d="M121.0130 110.0370
L121.5460 109.5040
" />
<path d="M121.2090 105.1500
L120.7300 105.4490
" />
<path d="M121.5460 109.2820
L121.6330 108.8440
" />
<path d="M121.5460 109.5040
L121.5460 109.2820
" />
<path d="M121.5470 104.6970
L121.2090 105.1500
" />
<path d="M121.6330 108.8440
L121.8770 108.4770
" />
<path d="M121.7010 104.1390
L121.5470 104.6970
" />
<path d="M121.7830 103.8410
L121.7010 104.1390
" />
<path d="M121.8770 108.4770
L122.2440 108.2330
" />
<path d="M121.9760 103.5830
L121.7830 103.8410
" />
<path d="M122.2440 108.2330
L122.6820 108.1460
" />
<path d="M122.2500 103.4130
L121.9760 103.5830
" />
<path d="M122.5600 103.3540
L122.2500 103.4130
" />
<path d="M122.6820 108.1460
L125.4820 108.1460
" />
<path d="M125.4820 108.1460
L125.8090 108.0810
" />
<path d="M125.8090 108.0810
L126.0920 107.8920
" />
<path d="M126.0920 107.8920
L126.2810 107.6090
" />
<path d="M126.2810 107.6090
L126.3660 107.1820
" />
<path d="M126.2830 104.2960
L126.6460 104.2960
" />
<path d="M126.6460 103.3540
L122.5600 103.3540
" />
<path d="M126.6460 104.2960
L126.6460 103.3540
" />
<path d="M65.5840 41.4090
L66.5210 42.3460
" />
<path d="M66.5210 37.5540
L65.5000 38.5750
" />
<path d="M66.5210 42.3460
L69.2680 42.3460
" />
<path d="M69.1680 37.5540
L66.5210 37.5540
" />
<path d="M69.2680 42.3460
L69.6710 42.2660
" />
<path d="M69.6710 42.2660
L70.0130 42.0370
" />
<path d="M69.7300 37.4490
L69.1680 37.5540
" />
<path d="M70.0130 42.0370
L70.5460 41.5040
" />
<path d="M70.2090 37.1500
L69.7300 37.4490
" />
<path d="M70.5460 41.2820
L70.6330 40.8440
" />
<path d="M70.5460 41.5040
L70.5460 41.2820
" />
<path d="M70.5470 36.6970
L70.2090 37.1500
" />
<path d="M70.6330 40.8440
L70.8770 40.4770
" />
<path d="M70.7010 36.1390
L70.5470 36.6970
" />
<path d="M70.7830 35.8410
L70.7010 36.1390
" />
<path d="M70.8770 40.4770
L71.2440 40.2330
" />
<path d="M70.9760 35.5830
L70.7830 35.8410
" />
<path d="M71.2440 40.2330
L71.6820 40.1460
" />
<path d="M71.2500 35.4130
L70.9760 35.5830
" />
<path d="M71.5600 35.3540
L71.2500 35.4130
" />
<path d="M71.6820 40.1460
L74.4820 40.1460
" />
<path d="M74.4820 40.1460
L74.8090 40.0810
" />
<path d="M74.8090 40.0810
L75.0920 39.8920
" />
<path d="M75.0920 39.8920
L75.2810 39.6090
" />
<path d="M75.2810 39.6090
L75.3660 39.1820
" />
<path d="M75.2830 36.2960
L75.6460 36.2960
" />
<path d="M75.6460 35.3540
L71.5600 35.3540
" />
<path d="M75.6460 36.2960
L75.6460 35.3540
" />
<path d="M82.5840 41.4090
L83.5210 42.3460
" />
<path d="M83.5210 37.5540
L82.5000 38.5750
" />
<path d="M83.5210 42.3460
L86.2680 42.3460
" />
<path d="M86.1680 37.5540
L83.5210 37.5540
" />
<path d="M86.2680 42.3460
L86.6710 42.2660
" />
<path d="M86.6710 42.2660
L87.0130 42.0370
" />
<path d="M86.7300 37.4490
L86.1680 37.5540
" />
<path d="M87.0130 42.0370
L87.5460 41.5040
" />
<path d="M87.2090 37.1500
L86.7300 37.4490
" />
<path d="M87.5460 41.2820
L87.6330 40.8440
" />
<path d="M87.5460 41.5040
L87.5460 41.2820
" />
<path d="M87.5470 36.6970
L87.2090 37.1500
" />
<path d="M87.6330 40.8440
L87.8770 40.4770
" />
<path d="M87.7010 36.1390
L87.5470 36.6970
" />
<path d="M87.7830 35.8410
L87.7010 36.1390
" />
<path d="M87.8770 40.4770
L88.2440 40.2330
" />
<path d="M87.9760 35.5830
L87.7830 35.8410
" />
<path d="M88.2440 40.2330
L88.6820 40.1460
" />
<path d="M88.2500 35.4130
L87.9760 35.5830
" />
<path d="M88.5600 35.3540
L88.2500 35.4130
" />
<path d="M88.6820 40.1460
L91.4820 40.1460
" />
<path d="M91.4820 40.1460
L91.8090 40.0810
" />
<path d="M91.8090 40.0810
L92.0920 39.8920
" />
<path d="M92.0920 39.8920
L92.2810 39.6090
" />
<path d="M92.2810 39.6090
L92.3660 39.1820
" />
<path d="M92.2830 36.2960
L92.6460 36.2960
" />
<path d="M92.6460 35.3540
L88.5600 35.3540
" />
<path d="M92.6460 36.2960
L92.6460 35.3540
" />
<path d="M82.5840 92.4090
L83.5210 93.3460
" />
<path d="M83.5210 88.5540
L82.5000 89.5750
" />
<path d="M83.5210 93.3460
L86.2680 93.3460
" />
<path d="M86.1680 88.5540
L83.5210 88.5540
" />
<path d="M86.2680 93.3460
L86.6710 93.2660
" />
<path d="M86.6710 93.2660
L87.0130 93.0370
" />
<path d="M86.7300 88.4490
L86.1680 88.5540
" />
<path d="M87.0130 93.0370
L87.5460 92.5040
" />
<path d="M87.2090 88.1500
L86.7300 88.4490
" />
<path d="M87.5460 92.2820
L87.6330 91.8440
" />
<path d="M87.5460 92.5040
L87.5460 92.2820
" />
<path d="M87.5470 87.6970
L87.2090 88.1500
" />
<path d="M87.6330 91.8440
L87.8770 91.4770
" />
<path d="M87.7010 87.1390
L87.5470 87.6970
" />
<path d="M87.7830 86.8410
L87.7010 87.1390
" />
<path d="M87.8770 91.4770
L88.2440 91.2330
" />
<path d="M87.9760 86.5830
L87.7830 86.8410
" />
<path d="M88.2440 91.2330
L88.6820 91.1460
" />
<path d="M88.2500 86.4130
L87.9760 86.5830
" />
<path d="M88.5600 86.3540
L88.2500 86.4130
" />
<path d="M88.6820 91.1460
L91.4820 91.1460
" />
<path d="M91.4820 91.1460
L91.8090 91.0810
" />
<path d="M91.8090 91.0810
L92.0920 90.8920
" />
<path d="M92.0920 90.8920
L92.2810 90.6090
" />
<path d="M92.2810 90.6090
L92.3660 90.1820
" />
<path d="M92.2830 87.2960
L92.6460 87.2960
" />
<path d="M92.6460 86.3540
L88.5600 86.3540
" />
<path d="M92.6460 87.2960
L92.6460 86.3540
" />
<path d="M99.5840 58.4090
L100.5210 59.3460
" />
<path d="M100.5210 54.5540
L99.5000 55.5750
" />
<path d="M100.5210 59.3460
L103.2680 59.3460
" />
<path d="M103.1680 54.5540
L100.5210 54.5540
" />
<path d="M103.2680 59.3460
L103.6710 59.2660
" />
<path d="M103.6710 59.2660
L104.0130 59.0370
" />
<path d="M103.7300 54.4490
L103.1680 54.5540
" />
<path d="M104.0130 59.0370
L104.5460 58.5040
" />
<path d="M104.2090 54.1500
L103.7300 54.4490
" />
<path d="M104.5460 58.2820
L104.6330 57.8440
" />
<path d="M104.5460 58.5040
L104.5460 58.2820
" />
<path d="M104.5470 53.6970
L104.2090 54.1500
" />
<path d="M104.6330 57.8440
L104.8770 57.4770
" />
<path d="M104.7010 53.1390
L104.5470 53.6970
" />
<path d="M104.7830 52.8410
L104.7010 53.1390
" />
<path d="M104.8770 57.4770
L105.2440 57.2330
" />
<path d="M104.9760 52.5830
L104.7830 52.8410
" />
<path d="M105.2440 57.2330
L105.6820 57.1460
" />
<path d="M105.2500 52.4130
L104.9760 52.5830
" />
<path d="M105.5600 52.3540
L105.2500 52.4130
" />
<path d="M105.6820 57.1460
L108.4820 57.1460
" />
<path d="M108.4820 57.1460
L108.8090 57.0810
" />
<path d="M108.8090 57.0810
L109.0920 56.8920
" />
<path d="M109.0920 56.8920
L109.2810 56.6090
" />
<path d="M109.2810 56.6090
L109.3660 56.1820
" />
<path d="M109.2830 53.2960
L109.6460 53.2960
" />
<path d="M109.6460 52.3540
L105.5600 52.3540
" />
<path d="M109.6460 53.2960
L109.6460 52.3540
" />
<path d="M82.5840 109.4090
L83.5210 110.3460
" />
<path d="M83.5210 105.5540
L82.5000 106.5750
" />
<path d="M83.5210 110.3460
L86.2680 110.3460
" />
<path d="M86.1680 105.5540
L83.5210 105.5540
" />
<path d="M86.2680 110.3460
L86.6710 110.2660
" />
<path d="M86.6710 110.2660
L87.0130 110.0370
" />
<path d="M86.7300 105.4490
L86.1680 105.5540
" />
<path d="M87.0130 110.0370
L87.5460 109.5040
" />
<path d="M87.2090 105.1500
L86.7300 105.4490
" />
<path d="M87.5460 109.2820
L87.6330 108.8440
" />
<path d="M87.5460 109.5040
L87.5460 109.2820
" />
<path d="M87.5470 104.6970
L87.2090 105.1500
" />
<path d="M87.6330 108.8440
L87.8770 108.4770
" />
<path d="M87.7010 104.1390
L87.5470 104.6970
" />
<path d="M87.7830 103.8410
L87.7010 104.1390
" />
<path d="M87.8770 108.4770
L88.2440 108.2330
" />
<path d="M87.9760 103.5830
L87.7830 103.8410
" />
<path d="M88.2440 108.2330
L88.6820 108.1460
" />
<path d="M88.2500 103.4130
L87.9760 103.5830
" />
<path d="M88.5600 103.3540
L88.2500 103.4130
" />
<path d="M88.6820 108.1460
L91.4820 108.1460
" />
<path d="M91.4820 108.1460
L91.8090 108.0810
" />
<path d="M91.8090 108.0810
L92.0920 107.8920
" />
<path d="M92.0920 107.8920
L92.2810 107.6090
" />
<path d="M92.2810 107.6090
L92.3660 107.1820
" />
<path d="M92.2830 104.2960
L92.6460 104.2960
" />
<path d="M92.6460 103.3540
L88.5600 103.3540
" />
<path d="M92.6460 104.2960
L92.6460 103.3540
" />
<path d="M99.5840 75.4090
L100.5210 76.3460
" />
<path d="M100.5210 71.5540
L99.5000 72.5750
" />
<path d="M100.5210 76.3460
L103.2680 76.3460
" />
<path d="M103.1680 71.5540
L100.5210 71.5540
" />
<path d="M103.2680 76.3460
L103.6710 76.2660
" />
<path d="M103.6710 76.2660
L104.0130 76.0370
" />
<path d="M103.7300 71.4490
L103.1680 71.5540
" />
<path d="M104.0130 76.0370
L104.5460 75.5040
" />
<path d="M104.2090 71.1500
L103.7300 71.4490
" />
<path d="M104.5460 75.2820
L104.6330 74.8440
" />
<path d="M104.5460 75.5040
L104.5460 75.2820
" />
<path d="M104.5470 70.6970
L104.2090 71.1500
" />
<path d="M104.6330 74.8440
L104.8770 74.4770
" />
<path d="M104.7010 70.1390
L104.5470 70.6970
" />
<path d="M104.7830 69.8410
L104.7010 70.1390
" />
<path d="M104.8770 74.4770
L105.2440 74.2330
" />
<path d="M104.9760 69.5830
L104.7830 69.8410
" />
<path d="M105.2440 74.2330
L105.6820 74.1460
" />
<path d="M105.2500 69.4130
L104.9760 69.5830
" />
<path d="M105.5600 69.3540
L105.2500 69.4130
" />
<path d="M105.6820 74.1460
L108.4820 74.1460
" />
<path d="M108.4820 74.1460
L108.8090 74.0810
" />
<path d="M108.8090 74.0810
L109.0920 73.8920
" />
<path d="M109.0920 73.8920
L109.2810 73.6090
" />
<path d="M109.2810 73.6090
L109.3660 73.1820
" />
<path d="M109.2830 70.2960
L109.6460 70.2960
" />
<path d="M109.6460 69.3540
L105.5600 69.3540
" />
<path d="M109.6460 70.2960
L109.6460 69.3540
" />
<path d="M31.5840 41.4090
L32.5210 42.3460
" />
<path d="M32.5210 37.5540
L31.5000 38.5750
" />
<path d="M32.5210 42.3460
L35.2680 42.3460
" />
<path d="M35.1680 37.5540
L32.5210 37.5540
" />
<path d="M35.2680 42.3460
L35.6710 42.2660
" />
<path d="M35.6710 42.2660
L36.0130 42.0370
" />
<path d="M35.7300 37.4490
L35.1680 37.5540
" />
<path d="M36.0130 42.0370
L36.5460 41.5040
" />
<path d="M36.2090 37.1500
L35.7300 37.4490
" />
<path d="M36.5460 41.2820
L36.6330 40.8440
" />
<path d="M36.5460 41.5040
L36.5460 41.2820
" />
<path d="M36.5470 36.6970
L36.2090 37.1500
" />
<path d="M36.6330 40.8440
L36.8770 40.4770
" />
<path d="M36.7010 36.1390
L36.5470 36.6970
" />
<path d="M36.7830 35.8410
L36.7010 36.1390
" />
<path d="M36.8770 40.4770
L37.2440 40.2330
" />
<path d="M36.9760 35.5830
L36.7830 35.8410
" />
<path d="M37.2440 40.2330
L37.6820 40.1460
" />
<path d="M37.2500 35.4130
L36.9760 35.5830
" />
<path d="M37.5600 35.3540
L37.2500 35.4130
" />
<path d="M37.6820 40.1460
L40.4820 40.1460
" />
<path d="M40.4820 40.1460
L40.8090 40.0810
" />
<path d="M40.8090 40.0810
L41.0920 39.8920
" />
<path d="M41.0920 39.8920
L41.2810 39.6090
" />
<path d="M41.2810 39.6090
L41.3660 39.1820
" />
<path d="M41.2830 36.2960
L41.6460 36.2960
" />
<path d="M41.6460 35.3540
L37.5600 35.3540
" />
<path d="M41.6460 36.2960
L41.6460 35.3540
" />
<path d="M48.5840 75.4090
L49.5210 76.3460
" />
<path d="M49.5210 71.5540
L48.5000 72.5750
" />
<path d="M49.5210 76.3460
L52.2680 76.3460
" />
<path d="M52.1680 71.5540
L49.5210 71.5540
" />
<path d="M52.2680 76.3460
L52.6710 76.2660
" />
<path d="M52.6710 76.2660
L53.0130 76.0370
" />
<path d="M52.7300 71.4490
L52.1680 71.5540
" />
<path d="M53.0130 76.0370
L53.5460 75.5040
" />
<path d="M53.2090 71.1500
L52.7300 71.4490
" />
<path d="M53.5460 75.2820
L53.6330 74.8440
" />
<path d="M53.5460 75.5040
L53.5460 75.2820
" />
<path d="M53.5470 70.6970
L53.2090 71.1500
" />
<path d="M53.6330 74.8440
L53.8770 74.4770
" />
<path d="M53.7010 70.1390
L53.5470 70.6970
" />
<path d="M53.7830 69.8410
L53.7010 70.1390
" />
<path d="M53.8770 74.4770
L54.2440 74.2330
" />
<path d="M53.9760 69.5830
L53.7830 69.8410
" />
<path d="M54.2440 74.2330
L54.6820 74.1460
" />
<path d="M54.2500 69.4130
L53.9760 69.5830
" />
<path d="M54.5600 69.3540
L54.2500 69.4130
" />
<path d="M54.6820 74.1460
L57.4820 74.1460
" />
<path d="M57.4820 74.1460
L57.8090 74.0810
" />
<path d="M57.8090 74.0810
L58.0920 73.8920
" />
<path d="M58.0920 73.8920
L58.2810 73.6090
" />
<path d="M58.2810 73.6090
L58.3660 73.1820
" />
<path d="M58.2830 70.2960
L58.6460 70.2960
" />
<path d="M58.6460 69.3540
L54.5600 69.3540
" />
<path d="M58.6460 70.2960
L58.6460 69.3540
" />
<path d="M48.5840 92.4090
L49.5210 93.3460
" />
<path d="M49.5210 88.5540
L48.5000 89.5750
" />
<path d="M49.5210 93.3460
L52.2680 93.3460
" />
<path d="M52.1680 88.5540
L49.5210 88.5540
" />
<path d="M52.2680 93.3460
L52.6710 93.2660
" />
<path d="M52.6710 93.2660
L53.0130 93.0370
" />
<path d="M52.7300 88.4490
L52.1680 88.5540
" />
<path d="M53.0130 93.0370
L53.5460 92.5040
" />
<path d="M53.2090 88.1500
L52.7300 88.4490
" />
<path d="M53.5460 92.2820
L53.6330 91.8440
" />
<path d="M53.5460 92.5040
L53.5460 92.2820
" />
<path d="M53.5470 87.6970
L53.2090 88.1500
" />
<path d="M53.6330 91.8440
L53.8770 91.4770
" />
<path d="M53.7010 87.1390
L53.5470 87.6970
" />
<path d="M53.7830 86.8410
L53.7010 87.1390
" />
<path d="M53.8770 91.4770
L54.2440 91.2330
" />
<path d="M53.9760 86.5830
L53.7830 86.8410
" />
<path d="M54.2440 91.2330
L54.6820 91.1460
" />
<path d="M54.2500 86.4130
L53.9760 86.5830
" />
<path d="M54.5600 86.3540
L54.2500 86.4130
" />
<path d="M54.6820 91.1460
L57.4820 91.1460
" />
<path d="M57.4820 91.1460
L57.8090 91.0810
" />
<path d="M57.8090 91.0810
L58.0920 90.8920
" />
<path d="M58.0920 90.8920
L58.2810 90.6090
" />
<path d="M58.2810 90.6090
L58.3660 90.1820
" />
<path d="M58.2830 87.2960
L58.6460 87.2960
" />
<path d="M58.6460 86.3540
L54.5600 86.3540
" />
<path d="M58.6460 87.2960
L58.6460 86.3540
" />
<path d="M48.5840 109.4090
L49.5210 110.3460
" />
<path d="M49.5210 105.5540
L48.5000 106.5750
" />
<path d="M49.5210 110.3460
L52.2680 110.3460
" />
<path d="M52.1680 105.5540
L49.5210 105.5540
" />
<path d="M52.2680 110.3460
L52.6710 110.2660
" />
<path d="M52.6710 110.2660
L53.0130 110.0370
" />
<path d="M52.7300 105.4490
L52.1680 105.5540
" />
<path d="M53.0130 110.0370
L53.5460 109.5040
" />
<path d="M53.2090 105.1500
L52.7300 105.4490
" />
<path d="M53.5460 109.2820
L53.6330 108.8440
" />
<path d="M53.5460 109.5040
L53.5460 109.2820
" />
<path d="M53.5470 104.6970
L53.2090 105.1500
" />
<path d="M53.6330 108.8440
L53.8770 108.4770
" />
<path d="M53.7010 104.1390
L53.5470 104.6970
" />
<path d="M53.7830 103.8410
L53.7010 104.1390
" />
<path d="M53.8770 108.4770
L54.2440 108.2330
" />
<path d="M53.9760 103.5830
L53.7830 103.8410
" />
<path d="M54.2440 108.2330
L54.6820 108.1460
" />
<path d="M54.2500 103.4130
L53.9760 103.5830
" />
<path d="M54.5600 103.3540
L54.2500 103.4130
" />
<path d="M54.6820 108.1460
L57.4820 108.1460
" />
<path d="M57.4820 108.1460
L57.8090 108.0810
" />
<path d="M57.8090 108.0810
L58.0920 107.8920
" />
<path d="M58.0920 107.8920
L58.2810 107.6090
" />
<path d="M58.2810 107.6090
L58.3660 107.1820
" />
<path d="M58.2830 104.2960
L58.6460 104.2960
" />
<path d="M58.6460 103.3540
L54.5600 103.3540
" />
<path d="M58.6460 104.2960
L58.6460 103.3540
" />
<path d="M65.5840 75.4090
L66.5210 76.3460
" />
<path d="M66.5210 71.5540
L65.5000 72.5750
" />
<path d="M66.5210 76.3460
L69.2680 76.3460
" />
<path d="M69.1680 71.5540
L66.5210 71.5540
" />
<path d="M69.2680 76.3460
L69.6710 76.2660
" />
<path d="M69.6710 76.2660
L70.0130 76.0370
" />
<path d="M69.7300 71.4490
L69.1680 71.5540
" />
<path d="M70.0130 76.0370
L70.5460 75.5040
" />
<path d="M70.2090 71.1500
L69.7300 71.4490
" />
<path d="M70.5460 75.2820
L70.6330 74.8440
" />
<path d="M70.5460 75.5040
L70.5460 75.2820
" />
<path d="M70.5470 70.6970
L70.2090 71.1500
" />
<path d="M70.6330 74.8440
L70.8770 74.4770
" />
<path d="M70.7010 70.1390
L70.5470 70.6970
" />
<path d="M70.7830 69.8410
L70.7010 70.1390
" />
<path d="M70.8770 74.4770
L71.2440 74.2330
" />
<path d="M70.9760 69.5830
L70.7830 69.8410
" />
<path d="M71.2440 74.2330
L71.6820 74.1460
" />
<path d="M71.2500 69.4130
L70.9760 69.5830
" />
<path d="M71.5600 69.3540
L71.2500 69.4130
" />
<path d="M71.6820 74.1460
L74.4820 74.1460
" />
<path d="M74.4820 74.1460
L74.8090 74.0810
" />
<path d="M74.8090 74.0810
L75.0920 73.8920
" />
<path d="M75.0920 73.8920
L75.2810 73.6090
" />
<path d="M75.2810 73.6090
L75.3660 73.1820
" />
<path d="M75.2830 70.2960
L75.6460 70.2960
" />
<path d="M75.6460 69.3540
L71.5600 69.3540
" />
<path d="M75.6460 70.2960
L75.6460 69.3540
" />
<path d="M70.2100 98.0000
L70.2100 96.0000
" />
<path d="M70.2100 98.0000
L66.2000 98.0000
" />
<path d="M70.2100 96.0000
L66.2000 96.0000
" />
<path d="M121.2100 64.0000
L121.2100 62.0000
" />
<path d="M121.2100 64.0000
L117.2000 64.0000
" />
<path d="M121.2100 62.0000
L117.2000 62.0000
" />
<path d="M70.2100 47.0000
L70.2100 45.0000
" />
<path d="M70.2100 47.0000
L66.2000 47.0000
" />
<path d="M70.2100 45.0000
L66.2000 45.0000
" />
<path d="M87.2100 47.0000
L87.2100 45.0000
" />
<path d="M87.2100 47.0000
L83.2000 47.0000
" />
<path d="M87.2100 45.0000
L83.2000 45.0000
" />
<path d="M70.2100 64.0000
L70.2100 62.0000
" />
<path d="M70.2100 64.0000
L66.2000 64.0000
" />
<path d="M70.2100 62.0000
L66.2000 62.0000
" />
<path d="M87.2100 81.0000
L87.2100 79.0000
" />
<path d="M87.2100 81.0000
L83.2000 81.0000
" />
<path d="M87.2100 79.0000
L83.2000 79.0000
" />
<path d="M53.2100 64.0000
L53.2100 62.0000
" />
<path d="M53.2100 64.0000
L49.2000 64.0000
" />
<path d="M53.2100 62.0000
L49.2000 62.0000
" />
<path d="M87.2100 64.0000
L87.2100 62.0000
" />
<path d="M87.2100 64.0000
L83.2000 64.0000
" />
<path d="M87.2100 62.0000
L83.2000 62.0000
" />
<path d="M104.2100 30.0000
L104.2100 28.0000
" />
<path d="M104.2100 30.0000
L100.2000 30.0000
" />
<path d="M104.2100 28.0000
L100.2000 28.0000
" />
<path d="M36.2100 64.0000
L36.2100 62.0000
" />
<path d="M36.2100 64.0000
L32.2000 64.0000
" />
<path d="M36.2100 62.0000
L32.2000 62.0000
" />
<path d="M53.2100 47.0000
L53.2100 45.0000
" />
<path d="M53.2100 47.0000
L49.2000 47.0000
" />
<path d="M53.2100 45.0000
L49.2000 45.0000
" />
<path d="M104.2100 98.0000
L104.2100 96.0000
" />
<path d="M104.2100 98.0000
L100.2000 98.0000
" />
<path d="M104.2100 96.0000
L100.2000 96.0000
" />
<path d="M53.2100 30.0000
L53.2100 28.0000
" />
<path d="M53.2100 30.0000
L49.2000 30.0000
" />
<path d="M53.2100 28.0000
L49.2000 28.0000
" />
<path d="M87.2100 30.0000
L87.2100 28.0000
" />
<path d="M87.2100 30.0000
L83.2000 30.0000
" />
<path d="M87.2100 28.0000
L83.2000 28.0000
" />
<path d="M53.2100 98.0000
L53.2100 96.0000
" />
<path d="M53.2100 98.0000
L49.2000 98.0000
" />
<path d="M53.2100 96.0000
L49.2000 96.0000
" />
<path d="M70.2100 30.0000
L70.2100 28.0000
" />
<path d="M70.2100 30.0000
L66.2000 30.0000
" />
<path d="M70.2100 28.0000
L66.2000 28.0000
" />
<path d="M87.2100 98.0000
L87.2100 96.0000
" />
<path d="M87.2100 98.0000
L83.2000 98.0000
" />
<path d="M87.2100 96.0000
L83.2000 96.0000
" />
<path d="M121.2100 30.0000
L121.2100 28.0000
" />
<path d="M121.2100 30.0000
L117.2000 30.0000
" />
<path d="M121.2100 28.0000
L117.2000 28.0000
" />
<path d="M104.2100 81.0000
L104.2100 79.0000
" />
<path d="M104.2100 81.0000
L100.2000 81.0000
" />
<path d="M104.2100 79.0000
L100.2000 79.0000
" />
<path d="M121.2100 47.0000
L121.2100 45.0000
" />
<path d="M121.2100 47.0000
L117.2000 47.0000
" />
<path d="M121.2100 45.0000
L117.2000 45.0000
" />
<path d="M121.2100 81.0000
L121.2100 79.0000
" />
<path d="M121.2100 81.0000
L117.2000 81.0000
" />
<path d="M121.2100 79.0000
L117.2000 79.0000
" />
<path d="M121.2100 98.0000
L121.2100 96.0000
" />
<path d="M121.2100 98.0000
L117.2000 98.0000
" />
<path d="M121.2100 96.0000
L117.2000 96.0000
" />
<path d="M53.2100 81.0000
L53.2100 79.0000
" />
<path d="M53.2100 81.0000
L49.2000 81.0000
" />
<path d="M53.2100 79.0000
L49.2000 79.0000
" />
<path d="M104.2100 47.0000
L104.2100 45.0000
" />
<path d="M104.2100 47.0000
L100.2000 47.0000
" />
<path d="M104.2100 45.0000
L100.2000 45.0000
" />
<path d="M36.2100 30.0000
L36.2100 28.0000
" />
<path d="M36.2100 30.0000
L32.2000 30.0000
" />
<path d="M36.2100 28.0000
L32.2000 28.0000
" />
<path d="M104.2100 64.0000
L104.2100 62.0000
" />
<path d="M104.2100 64.0000
L100.2000 64.0000
" />
<path d="M104.2100 62.0000
L100.2000 62.0000
" />
<path d="M36.2100 81.0000
L36.2100 79.0000
" />
<path d="M36.2100 81.0000
L32.2000 81.0000
" />
<path d="M36.2100 79.0000
L32.2000 79.0000
" />
<path d="M70.2100 81.0000
L70.2100 79.0000
" />
<path d="M70.2100 81.0000
L66.2000 81.0000
" />
<path d="M70.2100 79.0000
L66.2000 79.0000
" />
<path d="M36.2100 98.0000
L36.2100 96.0000
" />
<path d="M36.2100 98.0000
L32.2000 98.0000
" />
<path d="M36.2100 96.0000
L32.2000 96.0000
" />
</g> 
</svg>
