M48
; DRILL file {KiCad 9.0.7} date 2026-01-26T14:59:22-0600
; FORMAT={-:-/ absolute / metric / decimal}
; #@! TF.CreationDate,2026-01-26T14:59:22-06:00
; #@! TF.GenerationSoftware,Kicad,Pcbnew,9.0.7
; #@! TF.FileFunction,NonPlated,1,2,NPTH
FMAT,2
METRIC
; #@! TA.AperFunction,NonPlated,NPTH,ComponentDrill
T1C1.600
; #@! TA.AperFunction,NonPlated,NPTH,ComponentDrill
T2C1.900
; #@! TA.AperFunction,NonPlated,NPTH,ComponentDrill
T3C3.050
; #@! TA.AperFunction,NonPlated,NPTH,ComponentDrill
T4C5.050
%
G90
G05
T1
X28.85Y-29.0
X28.85Y-46.0
X28.85Y-63.0
X28.85Y-80.0
X28.85Y-97.0
X39.0Y-28.85
X39.0Y-45.85
X39.0Y-62.85
X39.0Y-79.85
X39.0Y-96.85
X45.85Y-29.0
X45.85Y-46.0
X45.85Y-63.0
X45.85Y-80.0
X45.85Y-97.0
X56.0Y-28.85
X56.0Y-45.85
X56.0Y-62.85
X56.0Y-79.85
X56.0Y-96.85
X62.85Y-29.0
X62.85Y-46.0
X62.85Y-63.0
X62.85Y-80.0
X62.85Y-97.0
X73.0Y-28.85
X73.0Y-45.85
X73.0Y-62.85
X73.0Y-79.85
X73.0Y-96.85
X79.85Y-29.0
X79.85Y-46.0
X79.85Y-63.0
X79.85Y-80.0
X79.85Y-97.0
X90.0Y-28.85
X90.0Y-45.85
X90.0Y-62.85
X90.0Y-79.85
X90.0Y-96.85
X96.85Y-29.0
X96.85Y-46.0
X96.85Y-63.0
X96.85Y-80.0
X96.85Y-97.0
X107.0Y-28.85
X107.0Y-45.85
X107.0Y-62.85
X107.0Y-79.85
X107.0Y-96.85
X113.85Y-29.0
X113.85Y-46.0
X113.85Y-63.0
X113.85Y-80.0
X113.85Y-97.0
X124.0Y-28.85
X124.0Y-45.85
X124.0Y-62.85
X124.0Y-79.85
X124.0Y-96.85
T2
X28.5Y-34.0
X28.5Y-51.0
X28.5Y-68.0
X28.5Y-85.0
X28.5Y-102.0
X39.5Y-34.0
X39.5Y-51.0
X39.5Y-68.0
X39.5Y-85.0
X39.5Y-102.0
X45.5Y-34.0
X45.5Y-51.0
X45.5Y-68.0
X45.5Y-85.0
X45.5Y-102.0
X56.5Y-34.0
X56.5Y-51.0
X56.5Y-68.0
X56.5Y-85.0
X56.5Y-102.0
X62.5Y-34.0
X62.5Y-51.0
X62.5Y-68.0
X62.5Y-85.0
X62.5Y-102.0
X73.5Y-34.0
X73.5Y-51.0
X73.5Y-68.0
X73.5Y-85.0
X73.5Y-102.0
X79.5Y-34.0
X79.5Y-51.0
X79.5Y-68.0
X79.5Y-85.0
X79.5Y-102.0
X90.5Y-34.0
X90.5Y-51.0
X90.5Y-68.0
X90.5Y-85.0
X90.5Y-102.0
X96.5Y-34.0
X96.5Y-51.0
X96.5Y-68.0
X96.5Y-85.0
X96.5Y-102.0
X107.5Y-34.0
X107.5Y-51.0
X107.5Y-68.0
X107.5Y-85.0
X107.5Y-102.0
X113.5Y-34.0
X113.5Y-51.0
X113.5Y-68.0
X113.5Y-85.0
X113.5Y-102.0
X124.5Y-34.0
X124.5Y-51.0
X124.5Y-68.0
X124.5Y-85.0
X124.5Y-102.0
T3
X29.0Y-37.8
X29.0Y-54.8
X29.0Y-71.8
X29.0Y-88.8
X29.0Y-105.8
X34.0Y-39.9
X34.0Y-56.9
X34.0Y-73.9
X34.0Y-90.9
X34.0Y-107.9
X39.0Y-37.8
X39.0Y-54.8
X39.0Y-71.8
X39.0Y-88.8
X39.0Y-105.8
X46.0Y-37.8
X46.0Y-54.8
X46.0Y-71.8
X46.0Y-88.8
X46.0Y-105.8
X51.0Y-39.9
X51.0Y-56.9
X51.0Y-73.9
X51.0Y-90.9
X51.0Y-107.9
X56.0Y-37.8
X56.0Y-54.8
X56.0Y-71.8
X56.0Y-88.8
X56.0Y-105.8
X63.0Y-37.8
X63.0Y-54.8
X63.0Y-71.8
X63.0Y-88.8
X63.0Y-105.8
X68.0Y-39.9
X68.0Y-56.9
X68.0Y-73.9
X68.0Y-90.9
X68.0Y-107.9
X73.0Y-37.8
X73.0Y-54.8
X73.0Y-71.8
X73.0Y-88.8
X73.0Y-105.8
X80.0Y-37.8
X80.0Y-54.8
X80.0Y-71.8
X80.0Y-88.8
X80.0Y-105.8
X85.0Y-39.9
X85.0Y-56.9
X85.0Y-73.9
X85.0Y-90.9
X85.0Y-107.9
X90.0Y-37.8
X90.0Y-54.8
X90.0Y-71.8
X90.0Y-88.8
X90.0Y-105.8
X97.0Y-37.8
X97.0Y-54.8
X97.0Y-71.8
X97.0Y-88.8
X97.0Y-105.8
X102.0Y-39.9
X102.0Y-56.9
X102.0Y-73.9
X102.0Y-90.9
X102.0Y-107.9
X107.0Y-37.8
X107.0Y-54.8
X107.0Y-71.8
X107.0Y-88.8
X107.0Y-105.8
X114.0Y-37.8
X114.0Y-54.8
X114.0Y-71.8
X114.0Y-88.8
X114.0Y-105.8
X119.0Y-39.9
X119.0Y-56.9
X119.0Y-73.9
X119.0Y-90.9
X119.0Y-107.9
X124.0Y-37.8
X124.0Y-54.8
X124.0Y-71.8
X124.0Y-88.8
X124.0Y-105.8
T4
X34.0Y-34.0
X34.0Y-51.0
X34.0Y-68.0
X34.0Y-85.0
X34.0Y-102.0
X51.0Y-34.0
X51.0Y-51.0
X51.0Y-68.0
X51.0Y-85.0
X51.0Y-102.0
X68.0Y-34.0
X68.0Y-51.0
X68.0Y-68.0
X68.0Y-85.0
X68.0Y-102.0
X85.0Y-34.0
X85.0Y-51.0
X85.0Y-68.0
X85.0Y-85.0
X85.0Y-102.0
X102.0Y-34.0
X102.0Y-51.0
X102.0Y-68.0
X102.0Y-85.0
X102.0Y-102.0
X119.0Y-34.0
X119.0Y-51.0
X119.0Y-68.0
X119.0Y-85.0
X119.0Y-102.0
M30
