%TF.GenerationSoftware,KiCad,Pcbnew,9.0.7*%
%TF.CreationDate,2026-01-26T14:59:15-06:00*%
%TF.ProjectId,LillyKey,4c696c6c-794b-4657-992e-6b696361645f,rev?*%
%TF.SameCoordinates,Original*%
%TF.FileFunction,Copper,L1,Top*%
%TF.FilePolarity,Positive*%
%FSLAX46Y46*%
G04 Gerber Fmt 4.6, Leading zero omitted, Abs format (unit mm)*
G04 Created by KiCad (PCBNEW 9.0.7) date 2026-01-26 14:59:15*
%MOMM*%
%LPD*%
G01*
G04 APERTURE LIST*
G04 Aperture macros list*
%AMRoundRect*
0 Rectangle with rounded corners*
0 $1 Rounding radius*
0 $2 $3 $4 $5 $6 $7 $8 $9 X,Y pos of 4 corners*
0 Add a 4 corners polygon primitive as box body*
4,1,4,$2,$3,$4,$5,$6,$7,$8,$9,$2,$3,0*
0 Add four circle primitives for the rounded corners*
1,1,$1+$1,$2,$3*
1,1,$1+$1,$4,$5*
1,1,$1+$1,$6,$7*
1,1,$1+$1,$8,$9*
0 Add four rect primitives between the rounded corners*
20,1,$1+$1,$2,$3,$4,$5,0*
20,1,$1+$1,$4,$5,$6,$7,0*
20,1,$1+$1,$6,$7,$8,$9,0*
20,1,$1+$1,$8,$9,$2,$3,0*%
G04 Aperture macros list end*
%TA.AperFunction,SMDPad,CuDef*%
%ADD10RoundRect,0.250000X1.025000X1.000000X-1.025000X1.000000X-1.025000X-1.000000X1.025000X-1.000000X0*%
%TD*%
%TA.AperFunction,SMDPad,CuDef*%
%ADD11RoundRect,0.225000X0.225000X0.375000X-0.225000X0.375000X-0.225000X-0.375000X0.225000X-0.375000X0*%
%TD*%
%TA.AperFunction,SMDPad,CuDef*%
%ADD12R,0.990600X3.505200*%
%TD*%
%TA.AperFunction,SMDPad,CuDef*%
%ADD13R,1.498600X3.403600*%
%TD*%
%TA.AperFunction,ComponentPad*%
%ADD14C,3.800000*%
%TD*%
%TA.AperFunction,SMDPad,CuDef*%
%ADD15O,2.750000X1.800000*%
%TD*%
%TA.AperFunction,ComponentPad*%
%ADD16C,1.600000*%
%TD*%
%TA.AperFunction,ViaPad*%
%ADD17C,0.600000*%
%TD*%
%TA.AperFunction,Conductor*%
%ADD18C,0.200000*%
%TD*%
G04 APERTURE END LIST*
D10*
%TO.P,SW10,1,1*%
%TO.N,/COL3*%
X81500000Y-57000000D03*
%TO.P,SW10,2,2*%
%TO.N,Net-(D10-A)*%
X93500000Y-54800000D03*
%TD*%
%TO.P,SW30,1,1*%
%TO.N,/COL5*%
X115500000Y-108000000D03*
%TO.P,SW30,2,2*%
%TO.N,Net-(D30-A)*%
X127500000Y-105800000D03*
%TD*%
%TO.P,SW29,1,1*%
%TO.N,/COL4*%
X98500000Y-108000000D03*
%TO.P,SW29,2,2*%
%TO.N,Net-(D29-A)*%
X110500000Y-105800000D03*
%TD*%
%TO.P,SW28,1,1*%
%TO.N,/COL3*%
X81500000Y-108000000D03*
%TO.P,SW28,2,2*%
%TO.N,Net-(D28-A)*%
X93500000Y-105800000D03*
%TD*%
%TO.P,SW27,1,1*%
%TO.N,/COL2*%
X64500000Y-108000000D03*
%TO.P,SW27,2,2*%
%TO.N,Net-(D27-A)*%
X76500000Y-105800000D03*
%TD*%
%TO.P,SW26,1,1*%
%TO.N,/COL1*%
X47500000Y-108000000D03*
%TO.P,SW26,2,2*%
%TO.N,Net-(D26-A)*%
X59500000Y-105800000D03*
%TD*%
%TO.P,SW25,1,1*%
%TO.N,/COL0*%
X30500000Y-108000000D03*
%TO.P,SW25,2,2*%
%TO.N,Net-(D25-A)*%
X42500000Y-105800000D03*
%TD*%
%TO.P,SW24,1,1*%
%TO.N,/COL5*%
X115500000Y-91000000D03*
%TO.P,SW24,2,2*%
%TO.N,Net-(D24-A)*%
X127500000Y-88800000D03*
%TD*%
%TO.P,SW23,1,1*%
%TO.N,/COL4*%
X98500000Y-91000000D03*
%TO.P,SW23,2,2*%
%TO.N,Net-(D23-A)*%
X110500000Y-88800000D03*
%TD*%
%TO.P,SW22,1,1*%
%TO.N,/COL3*%
X81500000Y-91000000D03*
%TO.P,SW22,2,2*%
%TO.N,Net-(D22-A)*%
X93500000Y-88800000D03*
%TD*%
%TO.P,SW21,1,1*%
%TO.N,/COL2*%
X64500000Y-91000000D03*
%TO.P,SW21,2,2*%
%TO.N,Net-(D21-A)*%
X76500000Y-88800000D03*
%TD*%
%TO.P,SW20,1,1*%
%TO.N,/COL1*%
X47500000Y-91000000D03*
%TO.P,SW20,2,2*%
%TO.N,Net-(D20-A)*%
X59500000Y-88800000D03*
%TD*%
%TO.P,SW19,1,1*%
%TO.N,/COL0*%
X30500000Y-91000000D03*
%TO.P,SW19,2,2*%
%TO.N,Net-(D19-A)*%
X42500000Y-88800000D03*
%TD*%
%TO.P,SW18,1,1*%
%TO.N,/COL5*%
X115500000Y-74000000D03*
%TO.P,SW18,2,2*%
%TO.N,Net-(D18-A)*%
X127500000Y-71800000D03*
%TD*%
%TO.P,SW17,1,1*%
%TO.N,/COL4*%
X98500000Y-74000000D03*
%TO.P,SW17,2,2*%
%TO.N,Net-(D17-A)*%
X110500000Y-71800000D03*
%TD*%
%TO.P,SW16,1,1*%
%TO.N,/COL3*%
X81500000Y-74000000D03*
%TO.P,SW16,2,2*%
%TO.N,Net-(D16-A)*%
X93500000Y-71800000D03*
%TD*%
%TO.P,SW15,1,1*%
%TO.N,/COL2*%
X64500000Y-74000000D03*
%TO.P,SW15,2,2*%
%TO.N,Net-(D15-A)*%
X76500000Y-71800000D03*
%TD*%
%TO.P,SW14,1,1*%
%TO.N,/COL1*%
X47500000Y-74000000D03*
%TO.P,SW14,2,2*%
%TO.N,Net-(D14-A)*%
X59500000Y-71800000D03*
%TD*%
%TO.P,SW13,1,1*%
%TO.N,/COL0*%
X30500000Y-74000000D03*
%TO.P,SW13,2,2*%
%TO.N,Net-(D13-A)*%
X42500000Y-71800000D03*
%TD*%
%TO.P,SW12,1,1*%
%TO.N,/COL5*%
X115500000Y-57000000D03*
%TO.P,SW12,2,2*%
%TO.N,Net-(D12-A)*%
X127500000Y-54800000D03*
%TD*%
%TO.P,SW11,1,1*%
%TO.N,/COL4*%
X98500000Y-57000000D03*
%TO.P,SW11,2,2*%
%TO.N,Net-(D11-A)*%
X110500000Y-54800000D03*
%TD*%
%TO.P,SW9,1,1*%
%TO.N,/COL2*%
X64500000Y-57000000D03*
%TO.P,SW9,2,2*%
%TO.N,Net-(D9-A)*%
X76500000Y-54800000D03*
%TD*%
%TO.P,SW8,1,1*%
%TO.N,/COL1*%
X47500000Y-57000000D03*
%TO.P,SW8,2,2*%
%TO.N,Net-(D8-A)*%
X59500000Y-54800000D03*
%TD*%
%TO.P,SW7,1,1*%
%TO.N,/COL0*%
X30500000Y-57000000D03*
%TO.P,SW7,2,2*%
%TO.N,Net-(D7-A)*%
X42500000Y-54800000D03*
%TD*%
%TO.P,SW6,1,1*%
%TO.N,/COL5*%
X115500000Y-40000000D03*
%TO.P,SW6,2,2*%
%TO.N,Net-(D6-A)*%
X127500000Y-37800000D03*
%TD*%
%TO.P,SW5,1,1*%
%TO.N,/COL4*%
X98500000Y-40000000D03*
%TO.P,SW5,2,2*%
%TO.N,Net-(D5-A)*%
X110500000Y-37800000D03*
%TD*%
%TO.P,SW4,1,1*%
%TO.N,/COL3*%
X81500000Y-40000000D03*
%TO.P,SW4,2,2*%
%TO.N,Net-(D4-A)*%
X93500000Y-37800000D03*
%TD*%
%TO.P,SW3,1,1*%
%TO.N,/COL2*%
X64500000Y-40000000D03*
%TO.P,SW3,2,2*%
%TO.N,Net-(D3-A)*%
X76500000Y-37800000D03*
%TD*%
%TO.P,SW2,1,1*%
%TO.N,/COL1*%
X47500000Y-40000000D03*
%TO.P,SW2,2,2*%
%TO.N,Net-(D2-A)*%
X59500000Y-37800000D03*
%TD*%
%TO.P,SW1,1,1*%
%TO.N,/COL0*%
X30500000Y-40000000D03*
%TO.P,SW1,2,2*%
%TO.N,Net-(D1-A)*%
X42500000Y-37800000D03*
%TD*%
D11*
%TO.P,D2,2,A*%
%TO.N,Net-(D2-A)*%
X49200000Y-29000000D03*
%TO.P,D2,1,K*%
%TO.N,/ROW0*%
X52500000Y-29000000D03*
%TD*%
D12*
%TO.P,J1,1,Pin_1*%
%TO.N,/VBAT*%
X145999999Y-49809999D03*
D13*
%TO.P,J1,3*%
%TO.N,N/C*%
X143649999Y-55560000D03*
D12*
%TO.P,J1,2,Pin_2*%
%TO.N,GND*%
X148000001Y-49809999D03*
D13*
%TO.P,J1,4*%
%TO.N,N/C*%
X150350001Y-55560000D03*
%TD*%
D11*
%TO.P,D30,1,K*%
%TO.N,/ROW4*%
X120500000Y-97000000D03*
%TO.P,D30,2,A*%
%TO.N,Net-(D30-A)*%
X117200000Y-97000000D03*
%TD*%
%TO.P,D29,1,K*%
%TO.N,/ROW4*%
X103500000Y-97000000D03*
%TO.P,D29,2,A*%
%TO.N,Net-(D29-A)*%
X100200000Y-97000000D03*
%TD*%
%TO.P,D28,1,K*%
%TO.N,/ROW4*%
X86500000Y-97000000D03*
%TO.P,D28,2,A*%
%TO.N,Net-(D28-A)*%
X83200000Y-97000000D03*
%TD*%
%TO.P,D27,1,K*%
%TO.N,/ROW4*%
X69500000Y-97000000D03*
%TO.P,D27,2,A*%
%TO.N,Net-(D27-A)*%
X66200000Y-97000000D03*
%TD*%
%TO.P,D26,1,K*%
%TO.N,/ROW4*%
X52500000Y-97000000D03*
%TO.P,D26,2,A*%
%TO.N,Net-(D26-A)*%
X49200000Y-97000000D03*
%TD*%
%TO.P,D25,1,K*%
%TO.N,/ROW4*%
X35500000Y-97000000D03*
%TO.P,D25,2,A*%
%TO.N,Net-(D25-A)*%
X32200000Y-97000000D03*
%TD*%
%TO.P,D24,1,K*%
%TO.N,/ROW3*%
X120500000Y-80000000D03*
%TO.P,D24,2,A*%
%TO.N,Net-(D24-A)*%
X117200000Y-80000000D03*
%TD*%
%TO.P,D23,1,K*%
%TO.N,/ROW3*%
X103500000Y-80000000D03*
%TO.P,D23,2,A*%
%TO.N,Net-(D23-A)*%
X100200000Y-80000000D03*
%TD*%
%TO.P,D22,1,K*%
%TO.N,/ROW3*%
X86500000Y-80000000D03*
%TO.P,D22,2,A*%
%TO.N,Net-(D22-A)*%
X83200000Y-80000000D03*
%TD*%
%TO.P,D21,1,K*%
%TO.N,/ROW3*%
X69500000Y-80000000D03*
%TO.P,D21,2,A*%
%TO.N,Net-(D21-A)*%
X66200000Y-80000000D03*
%TD*%
%TO.P,D20,1,K*%
%TO.N,/ROW3*%
X52500000Y-80000000D03*
%TO.P,D20,2,A*%
%TO.N,Net-(D20-A)*%
X49200000Y-80000000D03*
%TD*%
%TO.P,D19,1,K*%
%TO.N,/ROW3*%
X35500000Y-80000000D03*
%TO.P,D19,2,A*%
%TO.N,Net-(D19-A)*%
X32200000Y-80000000D03*
%TD*%
%TO.P,D18,1,K*%
%TO.N,/ROW2*%
X120500000Y-63000000D03*
%TO.P,D18,2,A*%
%TO.N,Net-(D18-A)*%
X117200000Y-63000000D03*
%TD*%
%TO.P,D17,1,K*%
%TO.N,/ROW2*%
X103500000Y-63000000D03*
%TO.P,D17,2,A*%
%TO.N,Net-(D17-A)*%
X100200000Y-63000000D03*
%TD*%
%TO.P,D16,1,K*%
%TO.N,/ROW2*%
X86500000Y-63000000D03*
%TO.P,D16,2,A*%
%TO.N,Net-(D16-A)*%
X83200000Y-63000000D03*
%TD*%
%TO.P,D15,1,K*%
%TO.N,/ROW2*%
X69500000Y-63000000D03*
%TO.P,D15,2,A*%
%TO.N,Net-(D15-A)*%
X66200000Y-63000000D03*
%TD*%
%TO.P,D14,1,K*%
%TO.N,/ROW2*%
X52500000Y-63000000D03*
%TO.P,D14,2,A*%
%TO.N,Net-(D14-A)*%
X49200000Y-63000000D03*
%TD*%
%TO.P,D13,1,K*%
%TO.N,/ROW2*%
X35500000Y-63000000D03*
%TO.P,D13,2,A*%
%TO.N,Net-(D13-A)*%
X32200000Y-63000000D03*
%TD*%
%TO.P,D12,1,K*%
%TO.N,/ROW1*%
X120500000Y-46000000D03*
%TO.P,D12,2,A*%
%TO.N,Net-(D12-A)*%
X117200000Y-46000000D03*
%TD*%
%TO.P,D11,1,K*%
%TO.N,/ROW1*%
X103500000Y-46000000D03*
%TO.P,D11,2,A*%
%TO.N,Net-(D11-A)*%
X100200000Y-46000000D03*
%TD*%
%TO.P,D10,1,K*%
%TO.N,/ROW1*%
X86500000Y-46000000D03*
%TO.P,D10,2,A*%
%TO.N,Net-(D10-A)*%
X83200000Y-46000000D03*
%TD*%
%TO.P,D9,1,K*%
%TO.N,/ROW1*%
X69500000Y-46000000D03*
%TO.P,D9,2,A*%
%TO.N,Net-(D9-A)*%
X66200000Y-46000000D03*
%TD*%
%TO.P,D8,1,K*%
%TO.N,/ROW1*%
X52500000Y-46000000D03*
%TO.P,D8,2,A*%
%TO.N,Net-(D8-A)*%
X49200000Y-46000000D03*
%TD*%
%TO.P,D7,1,K*%
%TO.N,/ROW1*%
X35500000Y-46000000D03*
%TO.P,D7,2,A*%
%TO.N,Net-(D7-A)*%
X32200000Y-46000000D03*
%TD*%
%TO.P,D6,1,K*%
%TO.N,/ROW0*%
X120500000Y-29000000D03*
%TO.P,D6,2,A*%
%TO.N,Net-(D6-A)*%
X117200000Y-29000000D03*
%TD*%
%TO.P,D5,1,K*%
%TO.N,/ROW0*%
X103500000Y-29000000D03*
%TO.P,D5,2,A*%
%TO.N,Net-(D5-A)*%
X100200000Y-29000000D03*
%TD*%
%TO.P,D4,1,K*%
%TO.N,/ROW0*%
X86500000Y-29000000D03*
%TO.P,D4,2,A*%
%TO.N,Net-(D4-A)*%
X83200000Y-29000000D03*
%TD*%
%TO.P,D3,1,K*%
%TO.N,/ROW0*%
X69500000Y-29000000D03*
%TO.P,D3,2,A*%
%TO.N,Net-(D3-A)*%
X66200000Y-29000000D03*
%TD*%
%TO.P,D1,1,K*%
%TO.N,/ROW0*%
X35500000Y-29000000D03*
%TO.P,D1,2,A*%
%TO.N,Net-(D1-A)*%
X32200000Y-29000000D03*
%TD*%
D14*
%TO.P,REF\u002A\u002A,1*%
%TO.N,N/C*%
X25000000Y-111000000D03*
%TD*%
%TO.P,REF\u002A\u002A,1*%
%TO.N,N/C*%
X159000000Y-111000000D03*
%TD*%
%TO.P,REF\u002A\u002A,1*%
%TO.N,N/C*%
X159000000Y-25000000D03*
%TD*%
%TO.P,REF\u002A\u002A,1*%
%TO.N,N/C*%
X25000000Y-25000000D03*
%TD*%
D15*
%TO.P,U2,8,P1.12_D7_RX*%
%TO.N,/ROW1*%
X153204960Y-40120000D03*
%TO.P,U2,9,P1.13_D8_SCK*%
%TO.N,/ROW2*%
X153204960Y-37580000D03*
%TO.P,U2,10,P1.14_D9_MISO*%
%TO.N,/ROW3*%
X153204960Y-35040000D03*
%TO.P,U2,11,P1.15_D10_MOSI*%
%TO.N,/ROW4*%
X153204960Y-32500000D03*
%TO.P,U2,12,3V3*%
%TO.N,unconnected-(U2-3V3-Pad12)*%
X153204960Y-29960000D03*
%TO.P,U2,13,GND*%
%TO.N,GND*%
X153204960Y-27420000D03*
%TO.P,U2,14,5V*%
%TO.N,unconnected-(U2-5V-Pad14)*%
X153204960Y-24880000D03*
D16*
%TO.P,U2,32,BAT*%
%TO.N,/VBAT*%
X149555000Y-32183000D03*
%TO.P,U2,20*%
%TO.N,N/C*%
X149555000Y-30278000D03*
D15*
%TO.P,U2,1,P0.02_A0_D0*%
%TO.N,/COL5*%
X137015040Y-24880000D03*
%TO.P,U2,2,P0.03_A1_D1*%
%TO.N,/COL4*%
X137015040Y-27420000D03*
%TO.P,U2,3,P0.28_A2_D2*%
%TO.N,/COL3*%
X137015040Y-29960000D03*
%TO.P,U2,4,P0.29_A3_D3*%
%TO.N,/COL2*%
X137015040Y-32500000D03*
%TO.P,U2,5,P0.04_A4_D4_SDA*%
%TO.N,/COL1*%
X137015040Y-35040000D03*
%TO.P,U2,6,P0.05_A5_D5_SCL*%
%TO.N,/COL0*%
X137015040Y-37580000D03*
%TO.P,U2,7,P1.11_D6_TX*%
%TO.N,/ROW0*%
X137015040Y-40120000D03*
D16*
%TO.P,U2,32,BAT*%
%TO.N,/VBAT*%
X140665000Y-32183000D03*
%TO.P,U2,20*%
%TO.N,N/C*%
X140665000Y-30278000D03*
%TD*%
D17*
%TO.N,Net-(D2-A)*%
X50216000Y-29000000D03*
%TO.N,Net-(D1-A)*%
X33216000Y-29000000D03*
%TO.N,Net-(D3-A)*%
X67216000Y-29000000D03*
%TO.N,Net-(D4-A)*%
X84216000Y-29000000D03*
%TO.N,Net-(D5-A)*%
X101216000Y-29000000D03*
%TO.N,Net-(D6-A)*%
X118216000Y-29000000D03*
%TO.N,Net-(D8-A)*%
X50216000Y-46000000D03*
%TO.N,Net-(D9-A)*%
X67216000Y-46000000D03*
%TO.N,Net-(D10-A)*%
X84216000Y-46000000D03*
%TO.N,Net-(D11-A)*%
X101216000Y-46000000D03*
%TO.N,Net-(D12-A)*%
X118216000Y-46000000D03*
%TO.N,Net-(D13-A)*%
X33216000Y-63000000D03*
%TO.N,Net-(D15-A)*%
X67216000Y-63000000D03*
%TO.N,Net-(D16-A)*%
X84216000Y-63000000D03*
%TO.N,Net-(D17-A)*%
X101216000Y-63000000D03*
%TO.N,Net-(D18-A)*%
X118216000Y-63000000D03*
%TO.N,Net-(D19-A)*%
X33216000Y-80000000D03*
%TO.N,Net-(D20-A)*%
X50216000Y-80000000D03*
%TO.N,Net-(D22-A)*%
X84216000Y-80000000D03*
%TO.N,Net-(D23-A)*%
X101216000Y-80000000D03*
%TO.N,Net-(D24-A)*%
X118216000Y-80000000D03*
%TO.N,Net-(D7-A)*%
X33216000Y-46000000D03*
%TO.N,Net-(D14-A)*%
X50216000Y-63000000D03*
%TO.N,Net-(D21-A)*%
X67216000Y-80000000D03*
%TO.N,GND*%
X150476002Y-51031999D03*
X139220000Y-27940000D03*
%TO.N,unconnected-(U2-5V-Pad14)*%
X139220000Y-25400000D03*
%TO.N,unconnected-(U2-3V3-Pad12)*%
X139080040Y-29140000D03*
%TO.N,Net-(D25-A)*%
X33216000Y-97000000D03*
%TO.N,Net-(D26-A)*%
X50216000Y-97000000D03*
%TO.N,Net-(D27-A)*%
X67216000Y-97000000D03*
%TO.N,Net-(D28-A)*%
X84216000Y-97000000D03*
%TO.N,Net-(D29-A)*%
X101216000Y-97000000D03*
%TO.N,Net-(D30-A)*%
X118216000Y-97000000D03*
%TO.N,/ROW0*%
X35500000Y-27750000D03*
X69500000Y-27750000D03*
X120500000Y-27750000D03*
X52500000Y-27750000D03*
X86500000Y-27750000D03*
X151000000Y-39600000D03*
X103500000Y-27750000D03*
X134299265Y-40049265D03*
%TO.N,/ROW1*%
X120500000Y-44750000D03*
X86500000Y-44750000D03*
X35500000Y-44750000D03*
X69500000Y-44750000D03*
X52500000Y-44750000D03*
X103500000Y-44750000D03*
X139220000Y-40640000D03*
%TO.N,/ROW2*%
X86500000Y-61750000D03*
X103500000Y-61750000D03*
X139220000Y-38100000D03*
X35500000Y-61750000D03*
X120500000Y-61750000D03*
X52500000Y-61750000D03*
X69500000Y-61750000D03*
X134250000Y-50750000D03*
%TO.N,/ROW3*%
X86500000Y-78750000D03*
X35500000Y-78750000D03*
X103500000Y-78750000D03*
X69500000Y-78750000D03*
X134250000Y-67750000D03*
X120500000Y-78750000D03*
X52500000Y-78750000D03*
X139220000Y-35560000D03*
%TO.N,/ROW4*%
X134250000Y-84750000D03*
X103500000Y-95750000D03*
X52500000Y-95750000D03*
X86500000Y-95750000D03*
X69500000Y-95750000D03*
X120500000Y-95750000D03*
X138947960Y-33920000D03*
X35500000Y-95750000D03*
%TO.N,/VBAT*%
X152158002Y-48809999D03*
%TO.N,/COL0*%
X151000000Y-37060000D03*
X33978000Y-93208000D03*
X33978000Y-42208000D03*
X33978000Y-110208000D03*
X33978000Y-59208000D03*
X33978000Y-76208000D03*
%TO.N,/COL1*%
X50978000Y-110208000D03*
X151000000Y-34520000D03*
X50978000Y-59208000D03*
X50978000Y-42208000D03*
X50978000Y-76208000D03*
X50978000Y-93208000D03*
%TO.N,/COL2*%
X151139960Y-33320000D03*
X67978000Y-59208000D03*
X67978000Y-93208000D03*
X67978000Y-42208000D03*
X67978000Y-110208000D03*
X67978000Y-76208000D03*
%TO.N,/COL3*%
X151272040Y-28540000D03*
X84978000Y-93208000D03*
X84978000Y-76208000D03*
X84978000Y-59208000D03*
X84978000Y-110208000D03*
X84978000Y-42208000D03*
%TO.N,/COL4*%
X101978000Y-42208000D03*
X101978000Y-110208000D03*
X151000000Y-26900000D03*
X101978000Y-59208000D03*
X101978000Y-76208000D03*
X101978000Y-93208000D03*
%TO.N,/COL5*%
X118978000Y-59208000D03*
X118978000Y-42208000D03*
X118978000Y-76208000D03*
X118978000Y-93208000D03*
X151000000Y-24360000D03*
X118978000Y-110208000D03*
%TD*%
D18*
%TO.N,/COL0*%
X30500000Y-108000000D02*
X35750000Y-113250000D01*
X35750000Y-113250000D02*
X128899000Y-113250000D01*
X128899000Y-113250000D02*
X133191950Y-108957050D01*
%TO.N,/COL1*%
X47500000Y-108000000D02*
X52250000Y-112750000D01*
X52250000Y-112750000D02*
X128831900Y-112750000D01*
X128831900Y-112750000D02*
X132790950Y-108790950D01*
X132790950Y-108790950D02*
X132790950Y-38209050D01*
X132790950Y-38209050D02*
X135960000Y-35040000D01*
X135960000Y-35040000D02*
X136540040Y-35040000D01*
%TO.N,/COL2*%
X64500000Y-108000000D02*
X68750000Y-112250000D01*
X68750000Y-112250000D02*
X128764800Y-112250000D01*
X128764800Y-112250000D02*
X132389950Y-108624850D01*
X132389950Y-108624850D02*
X132389950Y-36650090D01*
X132389950Y-36650090D02*
X136540040Y-32500000D01*
%TO.N,/COL3*%
X81500000Y-108000000D02*
X85250000Y-111750000D01*
X85250000Y-111750000D02*
X128697700Y-111750000D01*
X128697700Y-111750000D02*
X131988950Y-108458750D01*
X131988950Y-108458750D02*
X131988950Y-34511090D01*
X131988950Y-34511090D02*
X136540040Y-29960000D01*
%TO.N,/COL4*%
X98500000Y-108000000D02*
X101750000Y-111250000D01*
X101750000Y-111250000D02*
X128630600Y-111250000D01*
X131565300Y-108315300D02*
X131565300Y-32394740D01*
X131565300Y-32394740D02*
X136540040Y-27420000D01*
X128630600Y-111250000D02*
X131565300Y-108315300D01*
%TO.N,/COL5*%
X115500000Y-108000000D02*
X118250000Y-110750000D01*
X118250000Y-110750000D02*
X128563500Y-110750000D01*
X128563500Y-110750000D02*
X131164300Y-108149200D01*
X131164300Y-108149200D02*
X131164300Y-30255740D01*
X131164300Y-30255740D02*
X136540040Y-24880000D01*
%TO.N,/COL0*%
X133191950Y-108957050D02*
X133191950Y-108941950D01*
X135920000Y-37580000D02*
X136540040Y-37580000D01*
X133191950Y-108957050D02*
X133191950Y-40308050D01*
X133191950Y-40308050D02*
X135920000Y-37580000D01*
%TO.N,Net-(D2-A)*%
X49200000Y-29000000D02*
X50216000Y-29000000D01*
%TO.N,Net-(D1-A)*%
X33922000Y-30722000D02*
X32200000Y-29000000D01*
X42500000Y-35160108D02*
X38061892Y-30722000D01*
X38061892Y-30722000D02*
X33922000Y-30722000D01*
X32200000Y-29000000D02*
X33216000Y-29000000D01*
X42500000Y-37800000D02*
X42500000Y-35160108D01*
%TO.N,Net-(D2-A)*%
X59500000Y-35160108D02*
X55061892Y-30722000D01*
X50922000Y-30722000D02*
X49200000Y-29000000D01*
X55061892Y-30722000D02*
X50922000Y-30722000D01*
X59500000Y-37800000D02*
X59500000Y-35160108D01*
%TO.N,Net-(D3-A)*%
X66200000Y-29000000D02*
X67216000Y-29000000D01*
X72061892Y-30722000D02*
X67922000Y-30722000D01*
X67922000Y-30722000D02*
X66200000Y-29000000D01*
X76500000Y-35160108D02*
X72061892Y-30722000D01*
X76500000Y-37800000D02*
X76500000Y-35160108D01*
%TO.N,Net-(D4-A)*%
X83200000Y-29000000D02*
X84216000Y-29000000D01*
X93500000Y-37800000D02*
X93500000Y-35160108D01*
X89061892Y-30722000D02*
X84922000Y-30722000D01*
X93500000Y-35160108D02*
X89061892Y-30722000D01*
X84922000Y-30722000D02*
X83200000Y-29000000D01*
%TO.N,Net-(D5-A)*%
X110500000Y-37800000D02*
X110500000Y-35160108D01*
X106061892Y-30722000D02*
X101922000Y-30722000D01*
X100200000Y-29000000D02*
X101216000Y-29000000D01*
X101922000Y-30722000D02*
X100200000Y-29000000D01*
X110500000Y-35160108D02*
X106061892Y-30722000D01*
%TO.N,Net-(D6-A)*%
X118922000Y-30722000D02*
X117200000Y-29000000D01*
X127500000Y-37800000D02*
X127500000Y-35160108D01*
X127500000Y-35160108D02*
X123061892Y-30722000D01*
X123061892Y-30722000D02*
X118922000Y-30722000D01*
X117200000Y-29000000D02*
X118216000Y-29000000D01*
%TO.N,Net-(D8-A)*%
X50922000Y-47722000D02*
X49200000Y-46000000D01*
X59500000Y-54800000D02*
X59500000Y-52160108D01*
X55061892Y-47722000D02*
X50922000Y-47722000D01*
X59500000Y-52160108D02*
X55061892Y-47722000D01*
X49200000Y-46000000D02*
X50216000Y-46000000D01*
%TO.N,Net-(D9-A)*%
X76500000Y-54800000D02*
X76500000Y-52160108D01*
X72061892Y-47722000D02*
X67922000Y-47722000D01*
X76500000Y-52160108D02*
X72061892Y-47722000D01*
X67922000Y-47722000D02*
X66200000Y-46000000D01*
X66200000Y-46000000D02*
X67216000Y-46000000D01*
%TO.N,Net-(D10-A)*%
X84922000Y-47722000D02*
X83200000Y-46000000D01*
X93500000Y-52160108D02*
X89061892Y-47722000D01*
X93500000Y-54800000D02*
X93500000Y-52160108D01*
X89061892Y-47722000D02*
X84922000Y-47722000D01*
X83200000Y-46000000D02*
X84216000Y-46000000D01*
%TO.N,Net-(D11-A)*%
X110500000Y-52160108D02*
X106061892Y-47722000D01*
X110500000Y-54800000D02*
X110500000Y-52160108D01*
X100200000Y-46000000D02*
X101216000Y-46000000D01*
X101922000Y-47722000D02*
X100200000Y-46000000D01*
X106061892Y-47722000D02*
X101922000Y-47722000D01*
%TO.N,Net-(D12-A)*%
X127500000Y-52160108D02*
X123061892Y-47722000D01*
X127500000Y-54800000D02*
X127500000Y-52160108D01*
X123061892Y-47722000D02*
X118922000Y-47722000D01*
X117200000Y-46000000D02*
X118216000Y-46000000D01*
X118922000Y-47722000D02*
X117200000Y-46000000D01*
%TO.N,Net-(D13-A)*%
X42500000Y-69160108D02*
X38061892Y-64722000D01*
X38061892Y-64722000D02*
X33922000Y-64722000D01*
X33922000Y-64722000D02*
X32200000Y-63000000D01*
X42500000Y-71800000D02*
X42500000Y-69160108D01*
X32200000Y-63000000D02*
X33216000Y-63000000D01*
%TO.N,Net-(D15-A)*%
X76500000Y-69160108D02*
X72061892Y-64722000D01*
X76500000Y-71800000D02*
X76500000Y-69160108D01*
X72061892Y-64722000D02*
X67922000Y-64722000D01*
X67922000Y-64722000D02*
X66200000Y-63000000D01*
X66200000Y-63000000D02*
X67216000Y-63000000D01*
%TO.N,Net-(D16-A)*%
X93500000Y-71800000D02*
X93500000Y-69160108D01*
X93500000Y-69160108D02*
X89061892Y-64722000D01*
X89061892Y-64722000D02*
X84922000Y-64722000D01*
X83200000Y-63000000D02*
X84216000Y-63000000D01*
X84922000Y-64722000D02*
X83200000Y-63000000D01*
%TO.N,Net-(D17-A)*%
X110500000Y-69160108D02*
X106061892Y-64722000D01*
X100200000Y-63000000D02*
X101216000Y-63000000D01*
X101922000Y-64722000D02*
X100200000Y-63000000D01*
X106061892Y-64722000D02*
X101922000Y-64722000D01*
X110500000Y-71800000D02*
X110500000Y-69160108D01*
%TO.N,Net-(D18-A)*%
X127500000Y-71800000D02*
X127500000Y-69160108D01*
X127500000Y-69160108D02*
X123061892Y-64722000D01*
X123061892Y-64722000D02*
X118922000Y-64722000D01*
X117200000Y-63000000D02*
X118216000Y-63000000D01*
X118922000Y-64722000D02*
X117200000Y-63000000D01*
%TO.N,Net-(D19-A)*%
X42500000Y-88800000D02*
X42500000Y-86160108D01*
X32200000Y-80000000D02*
X33216000Y-80000000D01*
X42500000Y-86160108D02*
X38061892Y-81722000D01*
X33922000Y-81722000D02*
X32200000Y-80000000D01*
X38061892Y-81722000D02*
X33922000Y-81722000D01*
%TO.N,Net-(D20-A)*%
X49200000Y-80000000D02*
X50216000Y-80000000D01*
X55061892Y-81722000D02*
X50922000Y-81722000D01*
X59500000Y-88800000D02*
X59500000Y-86160108D01*
X59500000Y-86160108D02*
X55061892Y-81722000D01*
X50922000Y-81722000D02*
X49200000Y-80000000D01*
%TO.N,Net-(D22-A)*%
X93500000Y-88800000D02*
X93500000Y-86160108D01*
X83200000Y-80000000D02*
X84216000Y-80000000D01*
X93500000Y-86160108D02*
X89061892Y-81722000D01*
X84922000Y-81722000D02*
X83200000Y-80000000D01*
X89061892Y-81722000D02*
X84922000Y-81722000D01*
%TO.N,Net-(D23-A)*%
X106061892Y-81722000D02*
X101922000Y-81722000D01*
X100200000Y-80000000D02*
X101216000Y-80000000D01*
X101922000Y-81722000D02*
X100200000Y-80000000D01*
X110500000Y-86160108D02*
X106061892Y-81722000D01*
X110500000Y-88800000D02*
X110500000Y-86160108D01*
%TO.N,Net-(D24-A)*%
X127500000Y-86160108D02*
X123061892Y-81722000D01*
X117200000Y-80000000D02*
X118216000Y-80000000D01*
X127500000Y-88800000D02*
X127500000Y-86160108D01*
X118922000Y-81722000D02*
X117200000Y-80000000D01*
X123061892Y-81722000D02*
X118922000Y-81722000D01*
%TO.N,Net-(D7-A)*%
X42500000Y-54800000D02*
X42500000Y-52160108D01*
X42500000Y-52160108D02*
X38061892Y-47722000D01*
X32200000Y-46000000D02*
X33216000Y-46000000D01*
X38061892Y-47722000D02*
X33922000Y-47722000D01*
X33922000Y-47722000D02*
X32200000Y-46000000D01*
%TO.N,Net-(D14-A)*%
X55061892Y-64722000D02*
X50922000Y-64722000D01*
X49200000Y-63000000D02*
X50216000Y-63000000D01*
X50922000Y-64722000D02*
X49200000Y-63000000D01*
X59500000Y-69160108D02*
X55061892Y-64722000D01*
X59500000Y-71800000D02*
X59500000Y-69160108D01*
%TO.N,Net-(D21-A)*%
X72061892Y-81722000D02*
X67922000Y-81722000D01*
X76500000Y-86160108D02*
X72061892Y-81722000D01*
X67922000Y-81722000D02*
X66200000Y-80000000D01*
X76500000Y-88800000D02*
X76500000Y-86160108D01*
X66200000Y-80000000D02*
X67216000Y-80000000D01*
%TO.N,GND*%
X149254002Y-49809999D02*
X148000001Y-49809999D01*
X154949960Y-27420000D02*
X153679960Y-27420000D01*
X150476002Y-51031999D02*
X151313102Y-51031999D01*
X157997960Y-30468000D02*
X154949960Y-27420000D01*
X139220000Y-27940000D02*
X153159960Y-27940000D01*
X151313102Y-51031999D02*
X157997960Y-44347141D01*
X153159960Y-27940000D02*
X153679960Y-27420000D01*
X150476002Y-51031999D02*
X149254002Y-49809999D01*
X157997960Y-44347141D02*
X157997960Y-30468000D01*
%TO.N,unconnected-(U2-5V-Pad14)*%
X139220000Y-25400000D02*
X153159960Y-25400000D01*
X153159960Y-25400000D02*
X153679960Y-24880000D01*
%TO.N,unconnected-(U2-3V3-Pad12)*%
X152859960Y-29140000D02*
X153679960Y-29960000D01*
X139080040Y-29140000D02*
X152859960Y-29140000D01*
%TO.N,Net-(D25-A)*%
X42500000Y-103160108D02*
X38061892Y-98722000D01*
X32200000Y-97000000D02*
X33216000Y-97000000D01*
X38061892Y-98722000D02*
X33922000Y-98722000D01*
X33922000Y-98722000D02*
X32200000Y-97000000D01*
X42500000Y-105800000D02*
X42500000Y-103160108D01*
%TO.N,Net-(D26-A)*%
X50922000Y-98722000D02*
X49200000Y-97000000D01*
X59500000Y-103160108D02*
X55061892Y-98722000D01*
X59500000Y-105800000D02*
X59500000Y-103160108D01*
X49200000Y-97000000D02*
X50216000Y-97000000D01*
X55061892Y-98722000D02*
X50922000Y-98722000D01*
%TO.N,Net-(D27-A)*%
X76500000Y-103160108D02*
X72061892Y-98722000D01*
X72061892Y-98722000D02*
X67922000Y-98722000D01*
X66200000Y-97000000D02*
X67216000Y-97000000D01*
X76500000Y-105800000D02*
X76500000Y-103160108D01*
X67922000Y-98722000D02*
X66200000Y-97000000D01*
%TO.N,Net-(D28-A)*%
X93500000Y-103160108D02*
X89061892Y-98722000D01*
X89061892Y-98722000D02*
X84922000Y-98722000D01*
X93500000Y-105800000D02*
X93500000Y-103160108D01*
X84922000Y-98722000D02*
X83200000Y-97000000D01*
X83200000Y-97000000D02*
X84216000Y-97000000D01*
%TO.N,Net-(D29-A)*%
X106061892Y-98722000D02*
X101922000Y-98722000D01*
X101922000Y-98722000D02*
X100200000Y-97000000D01*
X110500000Y-105800000D02*
X110500000Y-103160108D01*
X110500000Y-103160108D02*
X106061892Y-98722000D01*
X100200000Y-97000000D02*
X101216000Y-97000000D01*
%TO.N,Net-(D30-A)*%
X118922000Y-98722000D02*
X117200000Y-97000000D01*
X127500000Y-105800000D02*
X127500000Y-103160108D01*
X127500000Y-103160108D02*
X123061892Y-98722000D01*
X117200000Y-97000000D02*
X118216000Y-97000000D01*
X123061892Y-98722000D02*
X118922000Y-98722000D01*
%TO.N,/ROW0*%
X134299265Y-40049265D02*
X136469305Y-40049265D01*
X69500000Y-29000000D02*
X69500000Y-27750000D01*
X103500000Y-29000000D02*
X103500000Y-27750000D01*
X86500000Y-29000000D02*
X86500000Y-27750000D01*
X136469305Y-40049265D02*
X136540040Y-40120000D01*
X151000000Y-39600000D02*
X137060040Y-39600000D01*
X35500000Y-29000000D02*
X35500000Y-27750000D01*
X52500000Y-29000000D02*
X52500000Y-27750000D01*
X137060040Y-39600000D02*
X136540040Y-40120000D01*
X120500000Y-29000000D02*
X120500000Y-27750000D01*
%TO.N,/ROW1*%
X103500000Y-46000000D02*
X103500000Y-44750000D01*
X154120000Y-40120000D02*
X153679960Y-40120000D01*
X153159960Y-40640000D02*
X153679960Y-40120000D01*
X35500000Y-46000000D02*
X35500000Y-44750000D01*
X86500000Y-46000000D02*
X86500000Y-44750000D01*
X69500000Y-46000000D02*
X69500000Y-44750000D01*
X52500000Y-46000000D02*
X52500000Y-44750000D01*
X139220000Y-40640000D02*
X153159960Y-40640000D01*
X120500000Y-46000000D02*
X120500000Y-44750000D01*
%TO.N,/ROW2*%
X69500000Y-63000000D02*
X69500000Y-61750000D01*
X35500000Y-63000000D02*
X35500000Y-61750000D01*
X156393960Y-40294000D02*
X153679960Y-37580000D01*
X86500000Y-63000000D02*
X86500000Y-61750000D01*
X134250000Y-50750000D02*
X134698000Y-50302000D01*
X137615800Y-43948000D02*
X154167800Y-43948000D01*
X52500000Y-63000000D02*
X52500000Y-61750000D01*
X154167800Y-43948000D02*
X156393960Y-41721840D01*
X139220000Y-38100000D02*
X153159960Y-38100000D01*
X120500000Y-63000000D02*
X120500000Y-61750000D01*
X156393960Y-41721840D02*
X156393960Y-40294000D01*
X103500000Y-63000000D02*
X103500000Y-61750000D01*
X134698000Y-46865800D02*
X137615800Y-43948000D01*
X153159960Y-38100000D02*
X153679960Y-37580000D01*
X134698000Y-50302000D02*
X134698000Y-46865800D01*
%TO.N,/ROW3*%
X120500000Y-80000000D02*
X120500000Y-78750000D01*
X134250000Y-67750000D02*
X135099000Y-66901000D01*
X153159960Y-35560000D02*
X153679960Y-35040000D01*
X137781900Y-44349000D02*
X154333900Y-44349000D01*
X69500000Y-80000000D02*
X69500000Y-78750000D01*
X103500000Y-80000000D02*
X103500000Y-78750000D01*
X52500000Y-80000000D02*
X52500000Y-78750000D01*
X154333900Y-44349000D02*
X156794960Y-41887940D01*
X135099000Y-47031900D02*
X137781900Y-44349000D01*
X139220000Y-35560000D02*
X153159960Y-35560000D01*
X86500000Y-80000000D02*
X86500000Y-78750000D01*
X156794960Y-41887940D02*
X156794960Y-38155000D01*
X35500000Y-80000000D02*
X35500000Y-78750000D01*
X156794960Y-38155000D02*
X153679960Y-35040000D01*
X135099000Y-66901000D02*
X135099000Y-47031900D01*
%TO.N,/ROW4*%
X35500000Y-97000000D02*
X35500000Y-95750000D01*
X152259960Y-33920000D02*
X153679960Y-32500000D01*
X69500000Y-97000000D02*
X69500000Y-95750000D01*
X135500000Y-83500000D02*
X135500000Y-47198000D01*
X138947960Y-33920000D02*
X152259960Y-33920000D01*
X103500000Y-97000000D02*
X103500000Y-95750000D01*
X52500000Y-97000000D02*
X52500000Y-95750000D01*
X86500000Y-97000000D02*
X86500000Y-95750000D01*
X157195960Y-42054040D02*
X157195960Y-36016000D01*
X134250000Y-84750000D02*
X135500000Y-83500000D01*
X137948000Y-44750000D02*
X154500000Y-44750000D01*
X135500000Y-47198000D02*
X137948000Y-44750000D01*
X157195960Y-36016000D02*
X153679960Y-32500000D01*
X120500000Y-97000000D02*
X120500000Y-95750000D01*
X154500000Y-44750000D02*
X157195960Y-42054040D01*
%TO.N,/VBAT*%
X147203701Y-47756399D02*
X145999999Y-48960101D01*
X149555000Y-32183000D02*
X140665000Y-32183000D01*
X150577000Y-31161000D02*
X149555000Y-32183000D01*
X152158002Y-48809999D02*
X151104402Y-47756399D01*
X151104402Y-47756399D02*
X147203701Y-47756399D01*
X152158002Y-48809999D02*
X152968002Y-48809999D01*
X154880960Y-31161000D02*
X150577000Y-31161000D01*
X152968002Y-48809999D02*
X157596960Y-44181041D01*
X157596960Y-44181041D02*
X157596960Y-33877000D01*
X145999999Y-48960101D02*
X145999999Y-49809999D01*
X157596960Y-33877000D02*
X154880960Y-31161000D01*
%TO.N,/COL0*%
X30500000Y-74000000D02*
X32708000Y-76208000D01*
X30876000Y-107624000D02*
X30500000Y-108000000D01*
X32708000Y-59208000D02*
X33978000Y-59208000D01*
X30500000Y-74000000D02*
X30876000Y-74376000D01*
X30500000Y-91000000D02*
X32708000Y-93208000D01*
X30876000Y-40376000D02*
X30500000Y-40000000D01*
X30876000Y-74376000D02*
X30876000Y-90624000D01*
X30500000Y-57000000D02*
X32708000Y-59208000D01*
X30500000Y-91000000D02*
X30876000Y-91376000D01*
X30876000Y-91376000D02*
X30876000Y-107624000D01*
X30500000Y-40000000D02*
X32708000Y-42208000D01*
X30876000Y-57376000D02*
X30876000Y-73624000D01*
X30876000Y-56624000D02*
X30876000Y-40376000D01*
X30876000Y-73624000D02*
X30500000Y-74000000D01*
X30500000Y-57000000D02*
X30876000Y-56624000D01*
X30876000Y-90624000D02*
X30500000Y-91000000D01*
X151000000Y-37060000D02*
X137060040Y-37060000D01*
X30500000Y-108000000D02*
X32708000Y-110208000D01*
X32708000Y-42208000D02*
X33978000Y-42208000D01*
X32708000Y-93208000D02*
X33978000Y-93208000D01*
X137060040Y-37060000D02*
X136540040Y-37580000D01*
X30500000Y-57000000D02*
X30876000Y-57376000D01*
X32708000Y-76208000D02*
X33978000Y-76208000D01*
X32708000Y-110208000D02*
X33978000Y-110208000D01*
%TO.N,/COL1*%
X47876000Y-91376000D02*
X47876000Y-107624000D01*
X47500000Y-91000000D02*
X47876000Y-91376000D01*
X47500000Y-91000000D02*
X49708000Y-93208000D01*
X49708000Y-59208000D02*
X50978000Y-59208000D01*
X47500000Y-108000000D02*
X49708000Y-110208000D01*
X47876000Y-40376000D02*
X47876000Y-56624000D01*
X151000000Y-34520000D02*
X137060040Y-34520000D01*
X47500000Y-74000000D02*
X47876000Y-74376000D01*
X137060040Y-34520000D02*
X136540040Y-35040000D01*
X47500000Y-74000000D02*
X49708000Y-76208000D01*
X47500000Y-40000000D02*
X49708000Y-42208000D01*
X49708000Y-76208000D02*
X50978000Y-76208000D01*
X47876000Y-107624000D02*
X47500000Y-108000000D01*
X47500000Y-57000000D02*
X47876000Y-57376000D01*
X47876000Y-74376000D02*
X47876000Y-90624000D01*
X47876000Y-57376000D02*
X47876000Y-73624000D01*
X49708000Y-93208000D02*
X50978000Y-93208000D01*
X47876000Y-73624000D02*
X47500000Y-74000000D01*
X47500000Y-40000000D02*
X47876000Y-40376000D01*
X47500000Y-57000000D02*
X49708000Y-59208000D01*
X49708000Y-110208000D02*
X50978000Y-110208000D01*
X49708000Y-42208000D02*
X50978000Y-42208000D01*
X47876000Y-90624000D02*
X47500000Y-91000000D01*
X47876000Y-56624000D02*
X47500000Y-57000000D01*
%TO.N,/COL2*%
X66708000Y-42208000D02*
X67978000Y-42208000D01*
X64500000Y-91000000D02*
X64876000Y-91376000D01*
X64500000Y-74000000D02*
X66708000Y-76208000D01*
X65124000Y-107376000D02*
X64500000Y-108000000D01*
X64876000Y-107624000D02*
X64500000Y-108000000D01*
X151139960Y-33320000D02*
X137360040Y-33320000D01*
X64500000Y-40000000D02*
X66708000Y-42208000D01*
X66708000Y-93208000D02*
X67978000Y-93208000D01*
X64500000Y-57000000D02*
X64876000Y-57376000D01*
X64876000Y-56624000D02*
X64500000Y-57000000D01*
X64500000Y-74000000D02*
X64876000Y-74376000D01*
X64876000Y-74376000D02*
X64876000Y-90624000D01*
X64876000Y-91376000D02*
X64876000Y-107624000D01*
X64876000Y-73624000D02*
X64500000Y-74000000D01*
X137360040Y-33320000D02*
X136540040Y-32500000D01*
X64500000Y-40000000D02*
X65124000Y-40624000D01*
X66708000Y-110208000D02*
X67978000Y-110208000D01*
X65124000Y-90376000D02*
X64500000Y-91000000D01*
X64500000Y-108000000D02*
X66708000Y-110208000D01*
X64500000Y-91000000D02*
X66708000Y-93208000D01*
X64876000Y-57376000D02*
X64876000Y-73624000D01*
X64500000Y-40000000D02*
X64876000Y-40376000D01*
X64500000Y-57000000D02*
X66708000Y-59208000D01*
X64876000Y-90624000D02*
X64500000Y-91000000D01*
X65124000Y-73376000D02*
X64500000Y-74000000D01*
X64876000Y-40376000D02*
X64876000Y-56624000D01*
X66708000Y-76208000D02*
X67978000Y-76208000D01*
X66708000Y-59208000D02*
X67978000Y-59208000D01*
%TO.N,/COL3*%
X83708000Y-93208000D02*
X84978000Y-93208000D01*
X81500000Y-40000000D02*
X83708000Y-42208000D01*
X81876000Y-40376000D02*
X81876000Y-107624000D01*
X83708000Y-59208000D02*
X84978000Y-59208000D01*
X83708000Y-76208000D02*
X84978000Y-76208000D01*
X81876000Y-107624000D02*
X81500000Y-108000000D01*
X81500000Y-74000000D02*
X83708000Y-76208000D01*
X81500000Y-108000000D02*
X83708000Y-110208000D01*
X137960040Y-28540000D02*
X136540040Y-29960000D01*
X81876000Y-40376000D02*
X81876000Y-73624000D01*
X82000000Y-40500000D02*
X82000000Y-90500000D01*
X81876000Y-40376000D02*
X81876000Y-56624000D01*
X81876000Y-73624000D02*
X81500000Y-74000000D01*
X151272040Y-28540000D02*
X137960040Y-28540000D01*
X81500000Y-91000000D02*
X83708000Y-93208000D01*
X82000000Y-90500000D02*
X81500000Y-91000000D01*
X81500000Y-57000000D02*
X83708000Y-59208000D01*
X81876000Y-56624000D02*
X81500000Y-57000000D01*
X81500000Y-40000000D02*
X81876000Y-40376000D01*
X83708000Y-110208000D02*
X84978000Y-110208000D01*
X81500000Y-40000000D02*
X82000000Y-40500000D01*
X83708000Y-42208000D02*
X84978000Y-42208000D01*
%TO.N,/COL4*%
X98876000Y-73624000D02*
X98500000Y-74000000D01*
X98876000Y-91376000D02*
X98876000Y-107624000D01*
X98500000Y-74000000D02*
X98876000Y-74376000D01*
X100708000Y-59208000D02*
X101978000Y-59208000D01*
X98876000Y-40376000D02*
X98876000Y-56624000D01*
X98876000Y-90624000D02*
X98500000Y-91000000D01*
X100708000Y-93208000D02*
X101978000Y-93208000D01*
X98876000Y-74376000D02*
X98876000Y-90624000D01*
X98500000Y-40000000D02*
X100708000Y-42208000D01*
X98500000Y-91000000D02*
X100708000Y-93208000D01*
X98500000Y-57000000D02*
X100708000Y-59208000D01*
X98876000Y-107624000D02*
X98500000Y-108000000D01*
X100708000Y-42208000D02*
X101978000Y-42208000D01*
X98500000Y-74000000D02*
X100708000Y-76208000D01*
X98500000Y-40000000D02*
X98876000Y-40376000D01*
X151000000Y-26900000D02*
X137060040Y-26900000D01*
X100708000Y-76208000D02*
X101978000Y-76208000D01*
X98876000Y-57376000D02*
X98876000Y-73624000D01*
X100708000Y-110208000D02*
X101978000Y-110208000D01*
X98500000Y-57000000D02*
X98876000Y-57376000D01*
X98500000Y-108000000D02*
X100708000Y-110208000D01*
X98500000Y-91000000D02*
X98876000Y-91376000D01*
X137060040Y-26900000D02*
X136540040Y-27420000D01*
X98876000Y-56624000D02*
X98500000Y-57000000D01*
%TO.N,/COL5*%
X115500000Y-40000000D02*
X115876000Y-40376000D01*
X115500000Y-40000000D02*
X117708000Y-42208000D01*
X115876000Y-91376000D02*
X115876000Y-107624000D01*
X115500000Y-108000000D02*
X117708000Y-110208000D01*
X115876000Y-40376000D02*
X115876000Y-73624000D01*
X116124000Y-74624000D02*
X115500000Y-74000000D01*
X115876000Y-107624000D02*
X115500000Y-108000000D01*
X117708000Y-93208000D02*
X118978000Y-93208000D01*
X115500000Y-57000000D02*
X117708000Y-59208000D01*
X115500000Y-91000000D02*
X115876000Y-91376000D01*
X117708000Y-42208000D02*
X118978000Y-42208000D01*
X115500000Y-91000000D02*
X117708000Y-93208000D01*
X117708000Y-59208000D02*
X118978000Y-59208000D01*
X115876000Y-40376000D02*
X115876000Y-56624000D01*
X115500000Y-91000000D02*
X116124000Y-90376000D01*
X117708000Y-76208000D02*
X118978000Y-76208000D01*
X115876000Y-73624000D02*
X115500000Y-74000000D01*
X115876000Y-56624000D02*
X115500000Y-57000000D01*
X137060040Y-24360000D02*
X136540040Y-24880000D01*
X117708000Y-110208000D02*
X118978000Y-110208000D01*
X116124000Y-90376000D02*
X116124000Y-74624000D01*
X115500000Y-74000000D02*
X117708000Y-76208000D01*
X151000000Y-24360000D02*
X137060040Y-24360000D01*
%TD*%
M02*
