<?xml version="1.0" standalone="no"?>
 <!DOCTYPE svg PUBLIC "-//W3C//DTD SVG 1.1//EN" 
 "http://www.w3.org/Graphics/SVG/1.1/DTD/svg11.dtd"> 
<svg
  xmlns:svg="http://www.w3.org/2000/svg"
  xmlns="http://www.w3.org/2000/svg"
  xmlns:xlink="http://www.w3.org/1999/xlink"
  version="1.1"
  width="297.0022mm" height="210.0072mm" viewBox="0.0000 0.0000 297.0022 210.0072">
<title>SVG Image created as LillyKey-B_Silkscreen.svg date 2026/01/26 13:50:19 </title>
  <desc>Image generated by PCBNEW </desc>
<g style="fill:#000000; fill-opacity:1.0000;stroke:#000000; stroke-opacity:1.0000;
stroke-linecap:round; stroke-linejoin:round;"
 transform="translate(0 0) scale(1 1)">
<path style="fill:#000000; fill-opacity:1.0000; 
stroke:#000000; stroke-width:0.0485; stroke-opacity:1; 
stroke-linecap:round; stroke-linejoin:round;fill-rule:evenodd;"
d="M 144.8432,97.5070
144.8940,97.5102
144.9436,97.5156
144.9920,97.5231
145.0391,97.5327
145.0849,97.5445
145.1296,97.5584
145.1730,97.5744
145.2151,97.5926
145.2560,97.6129
145.2957,97.6353
145.3341,97.6599
145.3713,97.6867
145.4072,97.7155
145.4420,97.7465
145.4754,97.7797
145.5066,97.8146
145.5357,97.8511
145.5629,97.8891
145.5880,97.9285
145.6111,97.9695
145.6322,98.0119
145.6513,98.0558
145.6684,98.1013
145.6835,98.1482
145.6965,98.1967
145.7076,98.2466
145.7166,98.2980
145.7237,98.3509
145.7287,98.4054
145.7317,98.4613
145.7327,98.5187
145.7327,98.5187
145.7321,98.5667
145.7302,98.6135
145.7271,98.6591
145.7228,98.7034
145.7172,98.7466
145.7104,98.7886
145.7023,98.8294
145.6930,98.8690
145.6825,98.9074
145.6707,98.9447
145.6577,98.9807
145.6434,99.0155
145.6279,99.0491
145.6112,99.0815
145.5932,99.1127
145.5739,99.1428
145.5530,99.1714
145.5311,99.1986
145.5083,99.2243
145.4846,99.2485
145.4601,99.2712
145.4346,99.2924
145.4082,99.3121
145.3810,99.3303
145.3528,99.3470
145.3238,99.3622
145.2938,99.3759
145.2629,99.3881
145.2312,99.3988
145.1985,99.4080
145.1650,99.4157
145.1305,99.4219
145.1305,99.4329
145.6780,99.4329
145.6780,99.9201
143.6087,99.9201
143.5507,99.9190
143.4942,99.9155
143.4395,99.9097
143.3863,99.9016
143.3348,99.8912
143.2849,99.8785
143.2366,99.8635
143.1899,99.8462
143.1449,99.8266
143.1015,99.8046
143.0597,99.7804
143.0195,99.7538
142.9810,99.7250
142.9441,99.6938
142.9088,99.6603
142.8751,99.6245
142.8433,99.5872
142.8136,99.5479
142.7858,99.5067
142.7602,99.4634
142.7366,99.4180
142.7150,99.3707
142.6955,99.3214
142.6781,99.2700
142.6627,99.2167
142.6493,99.1613
142.6380,99.1040
142.6288,99.0446
142.6216,98.9832
142.6165,98.9198
142.6134,98.8544
142.6124,98.7869
142.6133,98.7248
142.6161,98.6641
142.6206,98.6050
142.6271,98.5474
142.6354,98.4914
142.6455,98.4369
142.6574,98.3840
142.6712,98.3326
142.6869,98.2827
142.7043,98.2344
142.7236,98.1876
142.7448,98.1423
142.7678,98.0986
142.7926,98.0565
142.8193,98.0158
142.8478,97.9767
142.8770,97.9402
142.9072,97.9058
142.9384,97.8735
142.9706,97.8433
143.0038,97.8153
143.0379,97.7894
143.0730,97.7657
143.1092,97.7441
143.1463,97.7246
143.1844,97.7073
143.2234,97.6921
143.2635,97.6791
143.3045,97.6682
143.3465,97.6594
143.3895,97.6528
143.4335,97.6483
143.4335,98.1410
143.4106,98.1430
143.3883,98.1463
143.3666,98.1509
143.3456,98.1567
143.3252,98.1639
143.3153,98.1679
143.3055,98.1723
143.2958,98.1770
143.2864,98.1820
143.2679,98.1930
143.2501,98.2053
143.2329,98.2188
143.2164,98.2337
143.2005,98.2498
143.1853,98.2672
143.1707,98.2859
143.1567,98.3059
143.1434,98.3271
143.1308,98.3494
143.1190,98.3726
143.1080,98.3966
143.0979,98.4215
143.0885,98.4473
143.0800,98.4739
143.0723,98.5013
143.0654,98.5297
143.0593,98.5588
143.0540,98.5888
143.0495,98.6197
143.0459,98.6515
143.0430,98.6840
143.0410,98.7175
143.0398,98.7518
143.0394,98.7869
143.0399,98.8264
143.0417,98.8645
143.0445,98.9014
143.0485,98.9371
143.0537,98.9715
143.0600,99.0046
143.0674,99.0365
143.0760,99.0672
143.0857,99.0966
143.0966,99.1247
143.1086,99.1516
143.1217,99.1772
143.1360,99.2016
143.1515,99.2248
143.1681,99.2467
143.1858,99.2673
143.2047,99.2867
143.2247,99.3048
143.2459,99.3217
143.2682,99.3374
143.2916,99.3518
143.3162,99.3649
143.3420,99.3768
143.3689,99.3874
143.3969,99.3968
143.4261,99.4049
143.4564,99.4118
143.4878,99.4174
143.5204,99.4218
143.5542,99.4249
143.5891,99.4268
143.6251,99.4274
143.8605,99.4274
143.8605,98.5516
144.2437,98.5516
144.2437,99.4274
144.6652,99.4274
144.7024,99.4266
144.7385,99.4241
144.7737,99.4199
144.8079,99.4141
144.8411,99.4066
144.8733,99.3974
144.9046,99.3866
144.9348,99.3741
144.9641,99.3599
144.9924,99.3440
145.0197,99.3265
145.0460,99.3073
145.0714,99.2865
145.0957,99.2640
145.1191,99.2398
145.1415,99.2139
145.1627,99.1867
145.1825,99.1583
145.2010,99.1287
145.2181,99.0979
145.2339,99.0661
145.2482,99.0330
145.2612,98.9988
145.2729,98.9635
145.2831,98.9270
145.2920,98.8893
145.2996,98.8505
145.3057,98.8105
145.3105,98.7694
145.3139,98.7272
145.3160,98.6837
145.3167,98.6391
145.3167,98.6391
145.3161,98.6027
145.3144,98.5672
145.3117,98.5327
145.3078,98.4992
145.3028,98.4667
145.2966,98.4351
145.2894,98.4046
145.2811,98.3750
145.2716,98.3464
145.2611,98.3188
145.2494,98.2922
145.2366,98.2665
145.2227,98.2419
145.2077,98.2182
145.1916,98.1955
145.1743,98.1738
145.1554,98.1539
145.1357,98.1353
145.1152,98.1180
145.0939,98.1020
145.0718,98.0872
145.0488,98.0737
145.0251,98.0616
145.0005,98.0507
144.9751,98.0410
144.9489,98.0327
144.9219,98.0256
144.8941,98.0199
144.8655,98.0154
144.8360,98.0122
144.8058,98.0102
144.7747,98.0096
144.7450,98.0102
144.7160,98.0119
144.6878,98.0148
144.6604,98.0188
144.6338,98.0240
144.6079,98.0304
144.5828,98.0379
144.5585,98.0465
144.5349,98.0564
144.5121,98.0673
144.4901,98.0795
144.4688,98.0927
144.4483,98.1072
144.4286,98.1228
144.4097,98.1395
144.3915,98.1574
144.3736,98.1769
144.3569,98.1971
144.3413,98.2180
144.3268,98.2395
144.3136,98.2618
144.3014,98.2847
144.2905,98.3083
144.2806,98.3326
144.2720,98.3576
144.2645,98.3832
144.2581,98.4096
144.2529,98.4366
144.2489,98.4643
144.2460,98.4927
144.2443,98.5218
144.2437,98.5516
143.8605,98.5516
143.8605,98.4968
143.8610,98.4608
143.8624,98.4253
143.8647,98.3903
143.8680,98.3558
143.8723,98.3219
143.8774,98.2884
143.8836,98.2555
143.8906,98.2231
143.8986,98.1912
143.9076,98.1598
143.9174,98.1289
143.9283,98.0986
143.9400,98.0687
143.9527,98.0394
143.9664,98.0105
143.9809,97.9822
143.9957,97.9546
144.0111,97.9277
144.0273,97.9015
144.0442,97.8762
144.0619,97.8516
144.0803,97.8277
144.0994,97.8047
144.1192,97.7824
144.1397,97.7609
144.1610,97.7402
144.1830,97.7202
144.2057,97.7010
144.2292,97.6826
144.2534,97.6649
144.2783,97.6480
144.3039,97.6319
144.3302,97.6166
144.3570,97.6024
144.3844,97.5891
144.4124,97.5768
144.4409,97.5655
144.4699,97.5551
144.4996,97.5458
144.5297,97.5374
144.5605,97.5301
144.5918,97.5237
144.6236,97.5183
144.6560,97.5138
144.6889,97.5104
144.7224,97.5079
144.7565,97.5065
144.7747,97.5062
144.7911,97.5060
Z" /> 
<path style="fill:#000000; fill-opacity:1.0000; 
stroke:#000000; stroke-width:0.0485; stroke-opacity:1; 
stroke-linecap:round; stroke-linejoin:round;fill-rule:evenodd;"
d="M 144.6794,100.9011
144.7413,100.9042
144.8014,100.9094
144.8599,100.9168
144.9167,100.9262
144.9719,100.9377
145.0253,100.9513
145.0772,100.9671
145.1273,100.9849
145.1758,101.0048
145.2226,101.0268
145.2677,101.0509
145.3112,101.0771
145.3530,101.1054
145.3931,101.1358
145.4316,101.1682
145.4681,101.2031
145.5022,101.2394
145.5339,101.2770
145.5633,101.3161
145.5904,101.3564
145.6151,101.3982
145.6374,101.4413
145.6574,101.4858
145.6751,101.5316
145.6904,101.5788
145.7033,101.6274
145.7139,101.6774
145.7221,101.7287
145.7280,101.7814
145.7315,101.8354
145.7327,101.8909
145.7327,101.8909
145.7321,101.9328
145.7301,101.9738
145.7269,102.0139
145.7224,102.0530
145.7167,102.0912
145.7096,102.1285
145.7013,102.1648
145.6916,102.2001
145.6807,102.2346
145.6685,102.2681
145.6551,102.3006
145.6403,102.3322
145.6243,102.3629
145.6070,102.3926
145.5884,102.4214
145.5685,102.4492
145.5468,102.4759
145.5241,102.5011
145.5004,102.5250
145.4758,102.5474
145.4501,102.5684
145.4235,102.5880
145.3959,102.6062
145.3673,102.6230
145.3377,102.6384
145.3072,102.6524
145.2756,102.6649
145.2431,102.6761
145.2096,102.6858
145.1751,102.6941
145.1396,102.7010
145.1032,102.7065
145.1032,102.7120
145.6780,102.7120
145.6780,103.2046
141.6817,103.2046
141.6817,102.7120
142.5576,102.7120
143.2419,102.7229
143.2419,102.7175
143.2061,102.7113
143.1713,102.7037
143.1373,102.6947
143.1044,102.6843
143.0723,102.6725
143.0412,102.6592
143.0111,102.6446
142.9819,102.6285
142.9536,102.6110
142.9263,102.5922
142.8999,102.5719
142.8744,102.5502
142.8499,102.5270
142.8264,102.5025
142.8038,102.4766
142.7821,102.4492
142.7615,102.4214
142.7423,102.3926
142.7244,102.3629
142.7078,102.3322
142.6926,102.3006
142.6787,102.2681
142.6661,102.2346
142.6548,102.2001
142.6449,102.1648
142.6362,102.1285
142.6289,102.0912
142.6233,102.0551
143.0394,102.0551
143.0401,102.0929
143.0424,102.1297
143.0461,102.1654
143.0513,102.2001
143.0581,102.2338
143.0663,102.2665
143.0760,102.2982
143.0873,102.3288
143.1000,102.3584
143.1142,102.3870
143.1299,102.4145
143.1471,102.4410
143.1659,102.4665
143.1861,102.4910
143.2078,102.5144
143.2310,102.5368
143.2555,102.5580
143.2812,102.5779
143.3080,102.5963
143.3360,102.6135
143.3652,102.6292
143.3955,102.6436
143.4269,102.6566
143.4595,102.6682
143.4933,102.6785
143.5282,102.6874
143.5643,102.6949
143.6015,102.7010
143.6399,102.7058
143.6794,102.7093
143.7201,102.7113
143.7620,102.7120
144.5831,102.7120
144.6250,102.7113
144.6656,102.7093
144.7052,102.7058
144.7436,102.7010
144.7808,102.6949
144.8169,102.6874
144.8518,102.6785
144.8856,102.6682
144.9182,102.6566
144.9496,102.6436
144.9799,102.6292
145.0091,102.6135
145.0371,102.5963
145.0639,102.5779
145.0896,102.5580
145.1141,102.5368
145.1373,102.5144
145.1590,102.4910
145.1792,102.4665
145.1979,102.4410
145.2152,102.4145
145.2309,102.3870
145.2451,102.3584
145.2578,102.3288
145.2690,102.2982
145.2788,102.2665
145.2870,102.2338
145.2937,102.2001
145.2990,102.1654
145.3027,102.1297
145.3050,102.0929
145.3057,102.0551
145.3051,102.0166
145.3031,101.9792
145.2999,101.9429
145.2955,101.9076
145.2897,101.8734
145.2826,101.8403
145.2743,101.8082
145.2647,101.7773
145.2538,101.7473
145.2416,101.7185
145.2281,101.6907
145.2133,101.6640
145.1973,101.6384
145.1800,101.6138
145.1614,101.5903
145.1415,101.5679
145.1202,101.5467
145.0973,101.5268
145.0728,101.5083
145.0467,101.4912
145.0191,101.4755
144.9898,101.4611
144.9590,101.4481
144.9266,101.4365
144.8926,101.4262
144.8571,101.4173
144.8199,101.4098
144.7812,101.4036
144.7409,101.3989
144.6990,101.3954
144.6555,101.3934
144.6105,101.3927
143.7346,101.3927
143.6889,101.3934
143.6449,101.3954
143.6025,101.3989
143.5618,101.4036
143.5228,101.4098
143.4854,101.4173
143.4497,101.4262
143.4157,101.4365
143.3834,101.4481
143.3527,101.4611
143.3237,101.4755
143.2963,101.4912
143.2706,101.5083
143.2466,101.5268
143.2243,101.5467
143.2036,101.5679
143.1837,101.5903
143.1651,101.6138
143.1478,101.6384
143.1317,101.6640
143.1170,101.6907
143.1035,101.7185
143.0913,101.7473
143.0804,101.7773
143.0708,101.8082
143.0625,101.8403
143.0554,101.8734
143.0496,101.9076
143.0451,101.9429
143.0419,101.9792
143.0400,102.0166
143.0394,102.0551
142.6233,102.0551
142.6230,102.0530
142.6183,102.0139
142.6150,101.9738
142.6130,101.9328
142.6124,101.8909
142.6135,101.8348
142.6171,101.7802
142.6230,101.7270
142.6312,101.6753
142.6418,101.6251
142.6547,101.5763
142.6700,101.5289
142.6876,101.4830
142.7076,101.4386
142.7300,101.3956
142.7547,101.3541
142.7817,101.3140
142.8111,101.2754
142.8429,101.2382
142.8770,101.2025
142.9135,101.1682
142.9519,101.1358
142.9921,101.1054
143.0341,101.0771
143.0777,101.0509
143.1230,101.0268
143.1701,101.0048
143.2188,100.9849
143.2693,100.9671
143.3215,100.9513
143.3753,100.9377
143.4309,100.9262
143.4883,100.9168
143.5473,100.9094
143.6080,100.9042
143.6704,100.9011
143.7346,100.9000
144.6160,100.9000
Z" /> 
<path style="fill:#000000; fill-opacity:1.0000; 
stroke:#000000; stroke-width:0.0485; stroke-opacity:1; 
stroke-linecap:round; stroke-linejoin:round;fill-rule:evenodd;"
d="M 141.7999,85.3371
141.8190,85.3383
141.8375,85.3403
141.8556,85.3432
141.8731,85.3468
141.8901,85.3513
141.9066,85.3566
141.9226,85.3627
141.9381,85.3696
141.9531,85.3773
141.9675,85.3858
141.9815,85.3952
141.9949,85.4053
142.0078,85.4163
142.0202,85.4281
142.0321,85.4407
142.0434,85.4540
142.0539,85.4679
142.0637,85.4824
142.0728,85.4975
142.0812,85.5132
142.0888,85.5295
142.0957,85.5464
142.1019,85.5638
142.1074,85.5819
142.1121,85.6006
142.1161,85.6199
142.1194,85.6398
142.1219,85.6603
142.1237,85.6814
142.1248,85.7031
142.1252,85.7253
142.1248,85.7476
142.1237,85.7693
142.1219,85.7904
142.1194,85.8109
142.1161,85.8308
142.1121,85.8501
142.1074,85.8687
142.1019,85.8868
142.0957,85.9043
142.0888,85.9212
142.0812,85.9375
142.0728,85.9532
142.0637,85.9683
142.0539,85.9828
142.0434,85.9967
142.0321,86.0100
142.0202,86.0226
142.0078,86.0344
141.9949,86.0453
141.9815,86.0555
141.9675,86.0649
141.9531,86.0734
141.9381,86.0811
141.9226,86.0880
141.9066,86.0941
141.8901,86.0994
141.8731,86.1039
141.8556,86.1075
141.8375,86.1104
141.8190,86.1124
141.7999,86.1136
141.7803,86.1140
141.7600,86.1136
141.7403,86.1124
141.7212,86.1104
141.7026,86.1075
141.6846,86.1039
141.6671,86.0994
141.6502,86.0941
141.6339,86.0880
141.6181,86.0811
141.6028,86.0734
141.5881,86.0649
141.5740,86.0555
141.5604,86.0453
141.5474,86.0344
141.5349,86.0226
141.5230,86.0100
141.5111,85.9967
141.4999,85.9828
141.4895,85.9683
141.4799,85.9532
141.4710,85.9375
141.4630,85.9212
141.4556,85.9043
141.4491,85.8868
141.4433,85.8687
141.4383,85.8501
141.4341,85.8308
141.4306,85.8109
141.4279,85.7904
141.4260,85.7693
141.4249,85.7476
141.4245,85.7253
141.4249,85.7031
141.4260,85.6814
141.4279,85.6603
141.4306,85.6398
141.4341,85.6199
141.4383,85.6006
141.4433,85.5819
141.4491,85.5638
141.4556,85.5464
141.4630,85.5295
141.4710,85.5132
141.4799,85.4975
141.4895,85.4824
141.4999,85.4679
141.5111,85.4540
141.5230,85.4407
141.5349,85.4281
141.5474,85.4163
141.5604,85.4053
141.5740,85.3952
141.5881,85.3858
141.6028,85.3773
141.6181,85.3696
141.6339,85.3627
141.6502,85.3566
141.6671,85.3513
141.6846,85.3468
141.7026,85.3432
141.7212,85.3403
141.7403,85.3383
141.7600,85.3371
141.7803,85.3367
Z" /> 
</g>
<g style="fill:none; 
stroke:#000000; stroke-width:0.5948; stroke-opacity:1; 
stroke-linecap:round; stroke-linejoin:round;">
<path d="M152.3055 81.3981
L152.4090 102.9315
" />
<path style="fill:#000000; fill-opacity:1.0000; 
stroke:#000000; stroke-width:0.0485; stroke-opacity:1; 
stroke-linecap:round; stroke-linejoin:round;fill-rule:evenodd;"
d="M 149.2362,87.7892
151.1522,87.7892
151.1522,88.2819
150.5774,88.2819
150.5774,88.2873
150.6139,88.2928
150.6494,88.2997
150.6839,88.3080
150.7174,88.3178
150.7499,88.3289
150.7814,88.3414
150.8120,88.3554
150.8416,88.3708
150.8702,88.3876
150.8978,88.4058
150.9244,88.4254
150.9500,88.4464
150.9747,88.4688
150.9983,88.4927
151.0210,88.5179
151.0427,88.5446
151.0626,88.5724
151.0812,88.6012
151.0986,88.6309
151.1146,88.6616
151.1293,88.6932
151.1428,88.7258
151.1550,88.7592
151.1659,88.7937
151.1755,88.8290
151.1839,88.8653
151.1909,88.9026
151.1967,88.9408
151.2012,88.9799
151.2044,89.0200
151.2063,89.0610
151.2070,89.1030
151.2070,89.1030
151.2058,89.1590
151.2023,89.2137
151.1964,89.2668
151.1882,89.3185
151.1776,89.3688
151.1646,89.4176
151.1493,89.4649
151.1317,89.5108
151.1117,89.5552
151.0894,89.5982
151.0647,89.6397
151.0376,89.6798
151.0082,89.7184
150.9765,89.7556
150.9423,89.7913
150.9059,89.8256
150.8674,89.8581
150.8273,89.8884
150.7855,89.9167
150.7420,89.9429
150.6969,89.9670
150.6500,89.9890
150.6016,90.0089
150.5514,90.0268
150.4996,90.0425
150.4461,90.0561
150.3910,90.0676
150.3342,90.0770
150.2757,90.0844
150.2155,90.0896
150.1537,90.0928
150.0902,90.0938
149.2089,90.0938
149.1447,90.0928
149.0823,90.0896
149.0215,90.0844
148.9625,90.0770
148.9052,90.0676
148.8496,90.0561
148.7957,90.0425
148.7435,90.0268
148.6931,90.0089
148.6443,89.9890
148.5973,89.9670
148.5519,89.9429
148.5083,89.9167
148.4664,89.8884
148.4262,89.8581
148.3877,89.8256
148.3513,89.7913
148.3171,89.7556
148.2854,89.7184
148.2560,89.6798
148.2289,89.6397
148.2042,89.5982
148.1819,89.5552
148.1619,89.5108
148.1443,89.4649
148.1290,89.4176
148.1160,89.3688
148.1054,89.3185
148.0972,89.2668
148.0913,89.2137
148.0878,89.1590
148.0866,89.1030
148.0873,89.0610
148.0893,89.0199
148.0926,88.9797
148.0972,88.9405
148.0975,88.9387
148.5136,88.9387
148.5143,88.9772
148.5162,89.0146
148.5194,89.0509
148.5239,89.0862
148.5297,89.1204
148.5367,89.1535
148.5451,89.1856
148.5547,89.2166
148.5656,89.2465
148.5778,89.2753
148.5912,89.3031
148.6060,89.3298
148.6220,89.3554
148.6394,89.3800
148.6580,89.4035
148.6778,89.4259
148.6985,89.4472
148.7209,89.4670
148.7449,89.4855
148.7706,89.5026
148.7979,89.5183
148.8269,89.5327
148.8576,89.5457
148.8900,89.5573
148.9240,89.5676
148.9597,89.5765
148.9970,89.5840
149.0361,89.5902
149.0768,89.5950
149.1191,89.5984
149.1632,89.6004
149.2089,89.6011
150.0847,89.6011
150.1298,89.6004
150.1733,89.5984
150.2152,89.5950
150.2555,89.5902
150.2942,89.5840
150.3313,89.5765
150.3669,89.5676
150.4009,89.5573
150.4333,89.5457
150.4641,89.5327
150.4933,89.5183
150.5210,89.5026
150.5470,89.4855
150.5715,89.4670
150.5944,89.4472
150.6157,89.4259
150.6356,89.4035
150.6542,89.3800
150.6716,89.3554
150.6876,89.3298
150.7023,89.3031
150.7158,89.2753
150.7280,89.2465
150.7389,89.2166
150.7485,89.1856
150.7569,89.1535
150.7639,89.1204
150.7697,89.0862
150.7742,89.0509
150.7774,89.0146
150.7793,88.9772
150.7800,88.9387
150.7800,88.9387
150.7792,88.9016
150.7770,88.8653
150.7732,88.8301
150.7680,88.7957
150.7613,88.7623
150.7530,88.7299
150.7433,88.6983
150.7321,88.6678
150.7194,88.6381
150.7051,88.6094
150.6894,88.5817
150.6722,88.5549
150.6535,88.5290
150.6333,88.5040
150.6116,88.4801
150.5884,88.4570
150.5639,88.4358
150.5382,88.4159
150.5113,88.3975
150.4833,88.3804
150.4542,88.3646
150.4239,88.3503
150.3924,88.3373
150.3598,88.3256
150.3261,88.3154
150.2911,88.3065
150.2551,88.2989
150.2178,88.2928
150.1795,88.2880
150.1399,88.2846
150.0992,88.2825
150.0574,88.2818
149.2362,88.2818
149.1944,88.2825
149.1537,88.2846
149.1141,88.2880
149.0758,88.2928
149.0385,88.2989
149.0025,88.3065
148.9675,88.3154
148.9338,88.3256
148.9012,88.3373
148.8697,88.3503
148.8394,88.3646
148.8103,88.3804
148.7823,88.3975
148.7554,88.4159
148.7297,88.4358
148.7052,88.4570
148.6820,88.4801
148.6603,88.5040
148.6401,88.5290
148.6214,88.5549
148.6042,88.5817
148.5885,88.6094
148.5742,88.6381
148.5615,88.6678
148.5503,88.6983
148.5406,88.7299
148.5323,88.7623
148.5256,88.7957
148.5204,88.8301
148.5166,88.8653
148.5144,88.9016
148.5136,88.9387
148.0975,88.9387
148.1032,88.9021
148.1105,88.8646
148.1191,88.8280
148.1291,88.7923
148.1403,88.7575
148.1529,88.7236
148.1668,88.6906
148.1821,88.6585
148.1987,88.6273
148.2166,88.5970
148.2358,88.5676
148.2563,88.5391
148.2780,88.5124
148.3006,88.4871
148.3242,88.4632
148.3487,88.4406
148.3742,88.4194
148.4005,88.3995
148.4279,88.3811
148.4561,88.3639
148.4854,88.3482
148.5155,88.3338
148.5466,88.3208
148.5786,88.3092
148.6116,88.2989
148.6455,88.2900
148.6804,88.2825
148.7162,88.2764
148.7162,88.2709
148.0319,88.2819
147.1560,88.2819
147.1560,87.7892
Z" /> 
<path style="fill:#000000; fill-opacity:1.0000; 
stroke:#000000; stroke-width:0.0485; stroke-opacity:1; 
stroke-linecap:round; stroke-linejoin:round;fill-rule:evenodd;"
d="M 145.6780,83.7272
145.2291,83.7272
145.2291,81.9207
141.6818,81.9207
141.6818,81.4280
145.6780,81.4280
Z" /> 
<path style="fill:#000000; fill-opacity:1.0000; 
stroke:#000000; stroke-width:0.0485; stroke-opacity:1; 
stroke-linecap:round; stroke-linejoin:round;fill-rule:evenodd;"
d="M 151.1522,83.7272
150.7033,83.7272
150.7033,81.9207
147.1560,81.9207
147.1560,81.4280
151.1522,81.4280
Z" /> 
<path style="fill:#000000; fill-opacity:1.0000; 
stroke:#000000; stroke-width:0.0485; stroke-opacity:1; 
stroke-linecap:round; stroke-linejoin:round;fill-rule:evenodd;"
d="M 145.4918,91.9879
146.6633,91.5445
146.6633,92.0591
142.6671,93.5590
142.6671,93.0390
144.5284,92.3766
144.5838,92.3574
144.6406,92.3383
144.6988,92.3191
144.7583,92.2999
144.7879,92.2907
144.8165,92.2821
144.8440,92.2743
144.8705,92.2671
144.8960,92.2606
144.9205,92.2548
144.9439,92.2496
144.9663,92.2452
144.9439,92.2407
144.9205,92.2356
144.8960,92.2298
144.8705,92.2233
144.8440,92.2161
144.8165,92.2082
144.7879,92.1997
144.7583,92.1904
144.6988,92.1709
144.6406,92.1508
144.5838,92.1299
144.5284,92.1083
142.6671,91.3967
142.6671,90.8657
Z" /> 
</g>
<g style="fill:none; 
stroke:#000000; stroke-width:0.1000; stroke-opacity:1; 
stroke-linecap:round; stroke-linejoin:round;">
<path d="M152.3055 81.3981
L152.4090 102.9315
" />
<path style="fill:#000000; fill-opacity:1.0000; 
stroke:#000000; stroke-width:0.0485; stroke-opacity:1; 
stroke-linecap:round; stroke-linejoin:round;fill-rule:evenodd;"
d="M 143.5923,94.3583
145.6780,94.3583
145.6780,94.8509
144.0357,94.8509
144.0357,95.6447
144.0344,95.7136
144.0307,95.7807
144.0245,95.8460
144.0158,95.9095
144.0047,95.9712
143.9910,96.0312
143.9749,96.0893
143.9563,96.1456
143.9352,96.2001
143.9117,96.2529
143.8856,96.3038
143.8571,96.3529
143.8261,96.4003
143.7926,96.4458
143.7566,96.4896
143.7182,96.5315
143.6770,96.5720
143.6341,96.6098
143.5896,96.6450
143.5433,96.6776
143.4955,96.7076
143.4459,96.7350
143.3947,96.7598
143.3418,96.7820
143.2873,96.8016
143.2311,96.8185
143.1732,96.8329
143.1136,96.8446
143.0524,96.8537
142.9895,96.8603
142.9249,96.8642
142.8587,96.8655
142.7925,96.8642
142.7280,96.8603
142.6652,96.8537
142.6042,96.8446
142.5448,96.8329
142.4872,96.8185
142.4312,96.8016
142.3770,96.7820
142.3245,96.7598
142.2737,96.7350
142.2246,96.7076
142.1772,96.6776
142.1315,96.6450
142.0875,96.6098
142.0453,96.5720
142.0047,96.5315
141.9656,96.4896
141.9290,96.4458
141.8950,96.4003
141.8634,96.3529
141.8344,96.3038
141.8079,96.2529
141.7839,96.2001
141.7625,96.1456
141.7436,96.0893
141.7272,96.0312
141.7133,95.9712
141.7019,95.9095
141.6931,95.8460
141.6868,95.7807
141.6830,95.7136
141.6818,95.6447
141.6818,94.8509
142.1252,94.8509
142.1252,95.6447
142.1259,95.6846
142.1282,95.7234
142.1321,95.7612
142.1375,95.7980
142.1444,95.8337
142.1529,95.8685
142.1629,95.9022
142.1744,95.9348
142.1875,95.9665
142.2022,95.9971
142.2183,96.0267
142.2360,96.0553
142.2553,96.0828
142.2761,96.1093
142.2984,96.1348
142.3222,96.1593
142.3474,96.1832
142.3737,96.2055
142.4011,96.2263
142.4297,96.2455
142.4593,96.2632
142.4901,96.2794
142.5219,96.2940
142.5549,96.3071
142.5890,96.3186
142.6242,96.3287
142.6605,96.3371
142.6979,96.3440
142.7364,96.3494
142.7761,96.3533
142.8168,96.3556
142.8587,96.3564
142.8999,96.3556
142.9401,96.3533
142.9793,96.3494
143.0175,96.3440
143.0546,96.3371
143.0907,96.3287
143.1258,96.3186
143.1598,96.3071
143.1928,96.2940
143.2248,96.2794
143.2558,96.2632
143.2857,96.2455
143.3146,96.2263
143.3425,96.2055
143.3694,96.1832
143.3952,96.1593
143.4191,96.1348
143.4414,96.1093
143.4622,96.0828
143.4814,96.0553
143.4991,96.0267
143.5153,95.9971
143.5299,95.9665
143.5430,95.9348
143.5545,95.9022
143.5646,95.8685
143.5730,95.8337
143.5800,95.7980
143.5853,95.7612
143.5892,95.7234
143.5915,95.6846
143.5923,95.6447
143.5923,94.8509
142.1252,94.8509
141.6818,94.8509
141.6818,94.3583
Z" /> 
<path style="fill:#000000; fill-opacity:1.0000; 
stroke:#000000; stroke-width:0.0485; stroke-opacity:1; 
stroke-linecap:round; stroke-linejoin:round;fill-rule:evenodd;"
d="M 145.6780,87.0392
145.2291,87.0392
145.2291,86.0264
142.6671,86.0264
142.6671,84.5757
143.1160,84.5757
143.1160,85.5337
145.2291,85.5337
145.2291,84.4663
145.6780,84.4663
Z" /> 
<path style="fill:#000000; fill-opacity:1.0000; 
stroke:#000000; stroke-width:0.0485; stroke-opacity:1; 
stroke-linecap:round; stroke-linejoin:round;fill-rule:evenodd;"
d="M 142.1306,88.4898
144.8295,88.4898
144.8768,88.4908
144.9229,88.4935
144.9680,88.4981
145.0118,88.5046
145.0545,88.5128
145.0961,88.5229
145.1365,88.5349
145.1757,88.5487
145.2138,88.5643
145.2507,88.5818
145.2865,88.6011
145.3211,88.6223
145.3546,88.6452
145.3869,88.6701
145.4180,88.6967
145.4480,88.7252
145.4759,88.7560
145.5019,88.7879
145.5262,88.8211
145.5486,88.8556
145.5693,88.8913
145.5882,88.9282
145.6052,88.9664
145.6205,89.0058
145.6340,89.0464
145.6456,89.0883
145.6555,89.1315
145.6636,89.1758
145.6699,89.2214
145.6744,89.2683
145.6771,89.3164
145.6780,89.3657
145.6780,90.2964
145.2291,90.2964
145.2291,89.3657
145.2287,89.3441
145.2275,89.3230
145.2254,89.3025
145.2226,89.2826
145.2189,89.2632
145.2145,89.2444
145.2092,89.2261
145.2031,89.2083
145.1962,89.1912
145.1885,89.1746
145.1799,89.1585
145.1706,89.1430
145.1604,89.1280
145.1494,89.1137
145.1377,89.0998
145.1251,89.0865
145.1111,89.0739
145.0965,89.0622
145.0813,89.0512
145.0655,89.0410
145.0492,89.0317
145.0322,89.0232
145.0146,89.0154
144.9964,89.0085
144.9776,89.0024
144.9583,88.9972
144.9383,88.9927
144.9177,88.9890
144.8966,88.9862
144.8748,88.9842
144.8524,88.9829
144.8295,88.9825
141.6818,88.9825
141.6818,87.4497
142.1306,87.4497
Z" /> 
<path style="fill:#000000; fill-opacity:1.0000; 
stroke:#000000; stroke-width:0.0485; stroke-opacity:1; 
stroke-linecap:round; stroke-linejoin:round;fill-rule:evenodd;"
d="M 150.3175,84.3688
150.3683,84.3720
150.4179,84.3773
150.4662,84.3848
150.5133,84.3945
150.5592,84.4062
150.6038,84.4201
150.6472,84.4362
150.6894,84.4543
150.7303,84.4746
150.7699,84.4971
150.8084,84.5217
150.8456,84.5484
150.8815,84.5773
150.9162,84.6083
150.9497,84.6414
150.9808,84.6764
151.0100,84.7129
151.0371,84.7508
151.0622,84.7903
151.0854,84.8312
151.1065,84.8737
151.1256,84.9176
151.1426,84.9630
151.1577,85.0100
151.1708,85.0584
151.1818,85.1084
151.1909,85.1598
151.1979,85.2127
151.2030,85.2671
151.2060,85.3230
151.2070,85.3805
151.2064,85.4284
151.2045,85.4752
151.2014,85.5208
151.1970,85.5652
151.1915,85.6084
151.1846,85.6504
151.1766,85.6912
151.1673,85.7308
151.1567,85.7692
151.1450,85.8064
151.1319,85.8424
151.1177,85.8772
151.1022,85.9109
151.0854,85.9433
151.0674,85.9745
151.0482,86.0045
151.0272,86.0332
151.0054,86.0604
150.9826,86.0861
150.9589,86.1102
150.9343,86.1329
150.9089,86.1541
150.8825,86.1738
150.8552,86.1920
150.8271,86.2087
150.7980,86.2239
150.7681,86.2376
150.7372,86.2498
150.7055,86.2606
150.6728,86.2698
150.6392,86.2775
150.6048,86.2837
150.6048,86.2947
151.1522,86.2947
151.1522,86.7819
149.0830,86.7819
149.0249,86.7807
148.9685,86.7773
148.9137,86.7715
148.8606,86.7634
148.8090,86.7530
148.7591,86.7403
148.7108,86.7253
148.6642,86.7080
148.6191,86.6883
148.5757,86.6664
148.5339,86.6422
148.4938,86.6156
148.4553,86.5867
148.4183,86.5555
148.3831,86.5221
148.3494,86.4863
148.3176,86.4490
148.2878,86.4097
148.2601,86.3684
148.2344,86.3251
148.2108,86.2798
148.1893,86.2325
148.1698,86.1831
148.1523,86.1318
148.1369,86.0785
148.1236,86.0231
148.1123,85.9657
148.1031,85.9063
148.0959,85.8449
148.0907,85.7815
148.0877,85.7161
148.0866,85.6487
148.0876,85.5865
148.0903,85.5259
148.0949,85.4668
148.1013,85.4092
148.1096,85.3532
148.1197,85.2987
148.1317,85.2457
148.1455,85.1943
148.1611,85.1445
148.1786,85.0961
148.1979,85.0494
148.2190,85.0041
148.2420,84.9604
148.2669,84.9182
148.2935,84.8776
148.3220,84.8385
148.3513,84.8019
148.3815,84.7675
148.4127,84.7352
148.4449,84.7051
148.4780,84.6771
148.5122,84.6512
148.5473,84.6275
148.5834,84.6059
148.6205,84.5864
148.6586,84.5691
148.6977,84.5539
148.7377,84.5408
148.7788,84.5299
148.8208,84.5212
148.8638,84.5145
148.9078,84.5101
148.9078,85.0027
148.8848,85.0048
148.8625,85.0080
148.8409,85.0126
148.8199,85.0185
148.7995,85.0256
148.7895,85.0297
148.7797,85.0340
148.7701,85.0387
148.7606,85.0438
148.7422,85.0547
148.7244,85.0670
148.7072,85.0806
148.6907,85.0954
148.6748,85.1115
148.6595,85.1289
148.6449,85.1476
148.6310,85.1676
148.6176,85.1889
148.6050,85.2112
148.5933,85.2344
148.5823,85.2584
148.5721,85.2833
148.5628,85.3090
148.5543,85.3356
148.5465,85.3631
148.5396,85.3914
148.5335,85.4206
148.5283,85.4506
148.5238,85.4815
148.5201,85.5132
148.5173,85.5458
148.5153,85.5793
148.5140,85.6135
148.5136,85.6487
148.5142,85.6881
148.5159,85.7263
148.5188,85.7632
148.5228,85.7988
148.5279,85.8332
148.5342,85.8664
148.5417,85.8983
148.5502,85.9289
148.5600,85.9583
148.5708,85.9865
148.5828,86.0134
148.5960,86.0390
148.6103,86.0634
148.6257,86.0865
148.6423,86.1084
148.6601,86.1291
148.6789,86.1485
148.6990,86.1666
148.7201,86.1835
148.7424,86.1991
148.7659,86.2135
148.7905,86.2266
148.8162,86.2385
148.8431,86.2492
148.8711,86.2585
148.9003,86.2667
148.9306,86.2736
148.9621,86.2792
148.9947,86.2836
149.0285,86.2867
149.0633,86.2886
149.0994,86.2892
149.3348,86.2892
149.3348,85.4133
149.7180,85.4133
149.7180,86.2892
150.1395,86.2892
150.1766,86.2884
150.2128,86.2859
150.2480,86.2817
150.2822,86.2758
150.3154,86.2683
150.3476,86.2592
150.3788,86.2483
150.4091,86.2358
150.4384,86.2216
150.4667,86.2058
150.4940,86.1883
150.5203,86.1691
150.5456,86.1482
150.5700,86.1257
150.5934,86.1015
150.6157,86.0757
150.6370,86.0484
150.6568,86.0200
150.6753,85.9904
150.6924,85.9597
150.7081,85.9278
150.7225,85.8948
150.7355,85.8606
150.7471,85.8252
150.7574,85.7887
150.7663,85.7511
150.7738,85.7123
150.7800,85.6723
150.7848,85.6312
150.7882,85.5889
150.7902,85.5455
150.7909,85.5009
150.7904,85.4644
150.7887,85.4290
150.7859,85.3945
150.7820,85.3610
150.7770,85.3284
150.7709,85.2969
150.7637,85.2663
150.7553,85.2368
150.7459,85.2082
150.7353,85.1806
150.7237,85.1539
150.7109,85.1283
150.6970,85.1036
150.6820,85.0800
150.6658,85.0573
150.6486,85.0356
150.6297,85.0157
150.6100,84.9971
150.5895,84.9798
150.5682,84.9637
150.5461,84.9490
150.5231,84.9355
150.4994,84.9233
150.4748,84.9124
150.4494,84.9028
150.4232,84.8945
150.3962,84.8874
150.3684,84.8816
150.3397,84.8771
150.3103,84.8739
150.2800,84.8720
150.2490,84.8714
150.2192,84.8719
150.1903,84.8737
150.1621,84.8766
150.1347,84.8806
150.1081,84.8858
150.0822,84.8921
150.0571,84.8996
150.0327,84.9083
150.0092,84.9181
149.9864,84.9291
149.9644,84.9412
149.9431,84.9545
149.9226,84.9689
149.9029,84.9845
149.8839,85.0013
149.8658,85.0192
149.8479,85.0387
149.8311,85.0589
149.8155,85.0797
149.8011,85.1013
149.7878,85.1235
149.7757,85.1464
149.7647,85.1700
149.7549,85.1943
149.7463,85.2193
149.7388,85.2450
149.7324,85.2713
149.7272,85.2984
149.7232,85.3261
149.7203,85.3545
149.7185,85.3835
149.7180,85.4133
149.3348,85.4133
149.3348,85.3586
149.3352,85.3226
149.3367,85.2871
149.3390,85.2521
149.3423,85.2176
149.3465,85.1836
149.3517,85.1502
149.3578,85.1173
149.3649,85.0849
149.3729,85.0530
149.3818,85.0216
149.3917,84.9907
149.4025,84.9603
149.4143,84.9305
149.4270,84.9011
149.4406,84.8723
149.4552,84.8440
149.4699,84.8163
149.4854,84.7894
149.5016,84.7633
149.5185,84.7379
149.5361,84.7133
149.5545,84.6895
149.5736,84.6665
149.5934,84.6442
149.6140,84.6227
149.6353,84.6019
149.6573,84.5819
149.6800,84.5627
149.7035,84.5443
149.7276,84.5266
149.7525,84.5098
149.7782,84.4936
149.8045,84.4784
149.8313,84.4641
149.8587,84.4508
149.8866,84.4385
149.9151,84.4272
149.9442,84.4169
149.9738,84.4076
150.0040,84.3992
150.0347,84.3918
150.0660,84.3854
150.0979,84.3800
150.1302,84.3756
150.1632,84.3721
150.1967,84.3697
150.2308,84.3682
150.2490,84.3680
150.2654,84.3677
Z" /> 
</g>
<g style="fill:none; 
stroke:#000000; stroke-width:0.1200; stroke-opacity:1; 
stroke-linecap:round; stroke-linejoin:round;">
<path d="M121.4160 58.4090
L120.4790 59.3460
" />
<path d="M120.4790 59.3460
L117.7320 59.3460
" />
<path d="M120.4790 54.5540
L121.5000 55.5750
" />
<path d="M117.8320 54.5540
L120.4790 54.5540
" />
<path d="M117.7320 59.3460
L117.3290 59.2660
" />
<path d="M117.3290 59.2660
L116.9870 59.0370
" />
<path d="M117.2700 54.4490
L117.8320 54.5540
" />
<path d="M116.9870 59.0370
L116.4540 58.5040
" />
<path d="M116.7910 54.1500
L117.2700 54.4490
" />
<path d="M116.4540 58.5040
L116.4540 58.2820
" />
<path d="M116.4540 58.2820
L116.3670 57.8440
" />
<path d="M116.4530 53.6970
L116.7910 54.1500
" />
<path d="M116.3670 57.8440
L116.1230 57.4770
" />
<path d="M116.2990 53.1390
L116.4530 53.6970
" />
<path d="M116.2170 52.8410
L116.2990 53.1390
" />
<path d="M116.1230 57.4770
L115.7560 57.2330
" />
<path d="M116.0240 52.5830
L116.2170 52.8410
" />
<path d="M115.7560 57.2330
L115.3180 57.1460
" />
<path d="M115.7500 52.4130
L116.0240 52.5830
" />
<path d="M115.4400 52.3540
L115.7500 52.4130
" />
<path d="M115.3180 57.1460
L112.5180 57.1460
" />
<path d="M112.5180 57.1460
L112.1910 57.0810
" />
<path d="M112.1910 57.0810
L111.9080 56.8920
" />
<path d="M111.9080 56.8920
L111.7190 56.6090
" />
<path d="M111.7190 56.6090
L111.6340 56.1820
" />
<path d="M111.7170 53.2960
L111.3540 53.2960
" />
<path d="M111.3540 53.2960
L111.3540 52.3540
" />
<path d="M111.3540 52.3540
L115.4400 52.3540
" />
<path d="M121.4160 75.4090
L120.4790 76.3460
" />
<path d="M120.4790 76.3460
L117.7320 76.3460
" />
<path d="M120.4790 71.5540
L121.5000 72.5750
" />
<path d="M117.8320 71.5540
L120.4790 71.5540
" />
<path d="M117.7320 76.3460
L117.3290 76.2660
" />
<path d="M117.3290 76.2660
L116.9870 76.0370
" />
<path d="M117.2700 71.4490
L117.8320 71.5540
" />
<path d="M116.9870 76.0370
L116.4540 75.5040
" />
<path d="M116.7910 71.1500
L117.2700 71.4490
" />
<path d="M116.4540 75.5040
L116.4540 75.2820
" />
<path d="M116.4540 75.2820
L116.3670 74.8440
" />
<path d="M116.4530 70.6970
L116.7910 71.1500
" />
<path d="M116.3670 74.8440
L116.1230 74.4770
" />
<path d="M116.2990 70.1390
L116.4530 70.6970
" />
<path d="M116.2170 69.8410
L116.2990 70.1390
" />
<path d="M116.1230 74.4770
L115.7560 74.2330
" />
<path d="M116.0240 69.5830
L116.2170 69.8410
" />
<path d="M115.7560 74.2330
L115.3180 74.1460
" />
<path d="M115.7500 69.4130
L116.0240 69.5830
" />
<path d="M115.4400 69.3540
L115.7500 69.4130
" />
<path d="M115.3180 74.1460
L112.5180 74.1460
" />
<path d="M112.5180 74.1460
L112.1910 74.0810
" />
<path d="M112.1910 74.0810
L111.9080 73.8920
" />
<path d="M111.9080 73.8920
L111.7190 73.6090
" />
<path d="M111.7190 73.6090
L111.6340 73.1820
" />
<path d="M111.7170 70.2960
L111.3540 70.2960
" />
<path d="M111.3540 70.2960
L111.3540 69.3540
" />
<path d="M111.3540 69.3540
L115.4400 69.3540
" />
</g>
<g style="fill:none; 
stroke:#000000; stroke-width:0.1524; stroke-opacity:1; 
stroke-linecap:round; stroke-linejoin:round;">
<path d="M151.0767 48.3330
L151.0767 53.5255
" />
<path d="M149.2680 57.1976
L144.7320 57.1976
" />
<path d="M148.8280 48.3330
L151.0767 48.3330
" />
<path d="M142.9233 53.5255
L142.9233 48.3330
" />
<path d="M142.9233 48.3330
L145.1720 48.3330
" />
</g>
<g style="fill:none; 
stroke:#000000; stroke-width:0.1200; stroke-opacity:1; 
stroke-linecap:round; stroke-linejoin:round;">
<path d="M26.3540 52.3540
L30.4400 52.3540
" />
<path d="M26.3540 53.2960
L26.3540 52.3540
" />
<path d="M26.7170 53.2960
L26.3540 53.2960
" />
<path d="M26.7190 56.6090
L26.6340 56.1820
" />
<path d="M26.9080 56.8920
L26.7190 56.6090
" />
<path d="M27.1910 57.0810
L26.9080 56.8920
" />
<path d="M27.5180 57.1460
L27.1910 57.0810
" />
<path d="M30.3180 57.1460
L27.5180 57.1460
" />
<path d="M30.4400 52.3540
L30.7500 52.4130
" />
<path d="M30.7500 52.4130
L31.0240 52.5830
" />
<path d="M30.7560 57.2330
L30.3180 57.1460
" />
<path d="M31.0240 52.5830
L31.2170 52.8410
" />
<path d="M31.1230 57.4770
L30.7560 57.2330
" />
<path d="M31.2170 52.8410
L31.2990 53.1390
" />
<path d="M31.2990 53.1390
L31.4530 53.6970
" />
<path d="M31.3670 57.8440
L31.1230 57.4770
" />
<path d="M31.4530 53.6970
L31.7910 54.1500
" />
<path d="M31.4540 58.2820
L31.3670 57.8440
" />
<path d="M31.4540 58.5040
L31.4540 58.2820
" />
<path d="M31.7910 54.1500
L32.2700 54.4490
" />
<path d="M31.9870 59.0370
L31.4540 58.5040
" />
<path d="M32.2700 54.4490
L32.8320 54.5540
" />
<path d="M32.3290 59.2660
L31.9870 59.0370
" />
<path d="M32.7320 59.3460
L32.3290 59.2660
" />
<path d="M32.8320 54.5540
L35.4790 54.5540
" />
<path d="M35.4790 54.5540
L36.5000 55.5750
" />
<path d="M35.4790 59.3460
L32.7320 59.3460
" />
<path d="M36.4160 58.4090
L35.4790 59.3460
" />
<path d="M111.3540 35.3540
L115.4400 35.3540
" />
<path d="M111.3540 36.2960
L111.3540 35.3540
" />
<path d="M111.7170 36.2960
L111.3540 36.2960
" />
<path d="M111.7190 39.6090
L111.6340 39.1820
" />
<path d="M111.9080 39.8920
L111.7190 39.6090
" />
<path d="M112.1910 40.0810
L111.9080 39.8920
" />
<path d="M112.5180 40.1460
L112.1910 40.0810
" />
<path d="M115.3180 40.1460
L112.5180 40.1460
" />
<path d="M115.4400 35.3540
L115.7500 35.4130
" />
<path d="M115.7500 35.4130
L116.0240 35.5830
" />
<path d="M115.7560 40.2330
L115.3180 40.1460
" />
<path d="M116.0240 35.5830
L116.2170 35.8410
" />
<path d="M116.1230 40.4770
L115.7560 40.2330
" />
<path d="M116.2170 35.8410
L116.2990 36.1390
" />
<path d="M116.2990 36.1390
L116.4530 36.6970
" />
<path d="M116.3670 40.8440
L116.1230 40.4770
" />
<path d="M116.4530 36.6970
L116.7910 37.1500
" />
<path d="M116.4540 41.2820
L116.3670 40.8440
" />
<path d="M116.4540 41.5040
L116.4540 41.2820
" />
<path d="M116.7910 37.1500
L117.2700 37.4490
" />
<path d="M116.9870 42.0370
L116.4540 41.5040
" />
<path d="M117.2700 37.4490
L117.8320 37.5540
" />
<path d="M117.3290 42.2660
L116.9870 42.0370
" />
<path d="M117.7320 42.3460
L117.3290 42.2660
" />
<path d="M117.8320 37.5540
L120.4790 37.5540
" />
<path d="M120.4790 37.5540
L121.5000 38.5750
" />
<path d="M120.4790 42.3460
L117.7320 42.3460
" />
<path d="M121.4160 41.4090
L120.4790 42.3460
" />
<path d="M26.3540 86.3540
L30.4400 86.3540
" />
<path d="M26.3540 87.2960
L26.3540 86.3540
" />
<path d="M26.7170 87.2960
L26.3540 87.2960
" />
<path d="M26.7190 90.6090
L26.6340 90.1820
" />
<path d="M26.9080 90.8920
L26.7190 90.6090
" />
<path d="M27.1910 91.0810
L26.9080 90.8920
" />
<path d="M27.5180 91.1460
L27.1910 91.0810
" />
<path d="M30.3180 91.1460
L27.5180 91.1460
" />
<path d="M30.4400 86.3540
L30.7500 86.4130
" />
<path d="M30.7500 86.4130
L31.0240 86.5830
" />
<path d="M30.7560 91.2330
L30.3180 91.1460
" />
<path d="M31.0240 86.5830
L31.2170 86.8410
" />
<path d="M31.1230 91.4770
L30.7560 91.2330
" />
<path d="M31.2170 86.8410
L31.2990 87.1390
" />
<path d="M31.2990 87.1390
L31.4530 87.6970
" />
<path d="M31.3670 91.8440
L31.1230 91.4770
" />
<path d="M31.4530 87.6970
L31.7910 88.1500
" />
<path d="M31.4540 92.2820
L31.3670 91.8440
" />
<path d="M31.4540 92.5040
L31.4540 92.2820
" />
<path d="M31.7910 88.1500
L32.2700 88.4490
" />
<path d="M31.9870 93.0370
L31.4540 92.5040
" />
<path d="M32.2700 88.4490
L32.8320 88.5540
" />
<path d="M32.3290 93.2660
L31.9870 93.0370
" />
<path d="M32.7320 93.3460
L32.3290 93.2660
" />
<path d="M32.8320 88.5540
L35.4790 88.5540
" />
<path d="M35.4790 88.5540
L36.5000 89.5750
" />
<path d="M35.4790 93.3460
L32.7320 93.3460
" />
<path d="M36.4160 92.4090
L35.4790 93.3460
" />
<path d="M60.3540 103.3540
L64.4400 103.3540
" />
<path d="M60.3540 104.2960
L60.3540 103.3540
" />
<path d="M60.7170 104.2960
L60.3540 104.2960
" />
<path d="M60.7190 107.6090
L60.6340 107.1820
" />
<path d="M60.9080 107.8920
L60.7190 107.6090
" />
<path d="M61.1910 108.0810
L60.9080 107.8920
" />
<path d="M61.5180 108.1460
L61.1910 108.0810
" />
<path d="M64.3180 108.1460
L61.5180 108.1460
" />
<path d="M64.4400 103.3540
L64.7500 103.4130
" />
<path d="M64.7500 103.4130
L65.0240 103.5830
" />
<path d="M64.7560 108.2330
L64.3180 108.1460
" />
<path d="M65.0240 103.5830
L65.2170 103.8410
" />
<path d="M65.1230 108.4770
L64.7560 108.2330
" />
<path d="M65.2170 103.8410
L65.2990 104.1390
" />
<path d="M65.2990 104.1390
L65.4530 104.6970
" />
<path d="M65.3670 108.8440
L65.1230 108.4770
" />
<path d="M65.4530 104.6970
L65.7910 105.1500
" />
<path d="M65.4540 109.2820
L65.3670 108.8440
" />
<path d="M65.4540 109.5040
L65.4540 109.2820
" />
<path d="M65.7910 105.1500
L66.2700 105.4490
" />
<path d="M65.9870 110.0370
L65.4540 109.5040
" />
<path d="M66.2700 105.4490
L66.8320 105.5540
" />
<path d="M66.3290 110.2660
L65.9870 110.0370
" />
<path d="M66.7320 110.3460
L66.3290 110.2660
" />
<path d="M66.8320 105.5540
L69.4790 105.5540
" />
<path d="M69.4790 105.5540
L70.5000 106.5750
" />
<path d="M69.4790 110.3460
L66.7320 110.3460
" />
<path d="M70.4160 109.4090
L69.4790 110.3460
" />
<path d="M77.3540 52.3540
L81.4400 52.3540
" />
<path d="M77.3540 53.2960
L77.3540 52.3540
" />
<path d="M77.7170 53.2960
L77.3540 53.2960
" />
<path d="M77.7190 56.6090
L77.6340 56.1820
" />
<path d="M77.9080 56.8920
L77.7190 56.6090
" />
<path d="M78.1910 57.0810
L77.9080 56.8920
" />
<path d="M78.5180 57.1460
L78.1910 57.0810
" />
<path d="M81.3180 57.1460
L78.5180 57.1460
" />
<path d="M81.4400 52.3540
L81.7500 52.4130
" />
<path d="M81.7500 52.4130
L82.0240 52.5830
" />
<path d="M81.7560 57.2330
L81.3180 57.1460
" />
<path d="M82.0240 52.5830
L82.2170 52.8410
" />
<path d="M82.1230 57.4770
L81.7560 57.2330
" />
<path d="M82.2170 52.8410
L82.2990 53.1390
" />
<path d="M82.2990 53.1390
L82.4530 53.6970
" />
<path d="M82.3670 57.8440
L82.1230 57.4770
" />
<path d="M82.4530 53.6970
L82.7910 54.1500
" />
<path d="M82.4540 58.2820
L82.3670 57.8440
" />
<path d="M82.4540 58.5040
L82.4540 58.2820
" />
<path d="M82.7910 54.1500
L83.2700 54.4490
" />
<path d="M82.9870 59.0370
L82.4540 58.5040
" />
<path d="M83.2700 54.4490
L83.8320 54.5540
" />
<path d="M83.3290 59.2660
L82.9870 59.0370
" />
<path d="M83.7320 59.3460
L83.3290 59.2660
" />
<path d="M83.8320 54.5540
L86.4790 54.5540
" />
<path d="M86.4790 54.5540
L87.5000 55.5750
" />
<path d="M86.4790 59.3460
L83.7320 59.3460
" />
<path d="M87.4160 58.4090
L86.4790 59.3460
" />
<path d="M26.3540 103.3540
L30.4400 103.3540
" />
<path d="M26.3540 104.2960
L26.3540 103.3540
" />
<path d="M26.7170 104.2960
L26.3540 104.2960
" />
<path d="M26.7190 107.6090
L26.6340 107.1820
" />
<path d="M26.9080 107.8920
L26.7190 107.6090
" />
<path d="M27.1910 108.0810
L26.9080 107.8920
" />
<path d="M27.5180 108.1460
L27.1910 108.0810
" />
<path d="M30.3180 108.1460
L27.5180 108.1460
" />
<path d="M30.4400 103.3540
L30.7500 103.4130
" />
<path d="M30.7500 103.4130
L31.0240 103.5830
" />
<path d="M30.7560 108.2330
L30.3180 108.1460
" />
<path d="M31.0240 103.5830
L31.2170 103.8410
" />
<path d="M31.1230 108.4770
L30.7560 108.2330
" />
<path d="M31.2170 103.8410
L31.2990 104.1390
" />
<path d="M31.2990 104.1390
L31.4530 104.6970
" />
<path d="M31.3670 108.8440
L31.1230 108.4770
" />
<path d="M31.4530 104.6970
L31.7910 105.1500
" />
<path d="M31.4540 109.2820
L31.3670 108.8440
" />
<path d="M31.4540 109.5040
L31.4540 109.2820
" />
<path d="M31.7910 105.1500
L32.2700 105.4490
" />
<path d="M31.9870 110.0370
L31.4540 109.5040
" />
<path d="M32.2700 105.4490
L32.8320 105.5540
" />
<path d="M32.3290 110.2660
L31.9870 110.0370
" />
<path d="M32.7320 110.3460
L32.3290 110.2660
" />
<path d="M32.8320 105.5540
L35.4790 105.5540
" />
<path d="M35.4790 105.5540
L36.5000 106.5750
" />
<path d="M35.4790 110.3460
L32.7320 110.3460
" />
<path d="M36.4160 109.4090
L35.4790 110.3460
" />
<path d="M77.3540 69.3540
L81.4400 69.3540
" />
<path d="M77.3540 70.2960
L77.3540 69.3540
" />
<path d="M77.7170 70.2960
L77.3540 70.2960
" />
<path d="M77.7190 73.6090
L77.6340 73.1820
" />
<path d="M77.9080 73.8920
L77.7190 73.6090
" />
<path d="M78.1910 74.0810
L77.9080 73.8920
" />
<path d="M78.5180 74.1460
L78.1910 74.0810
" />
<path d="M81.3180 74.1460
L78.5180 74.1460
" />
<path d="M81.4400 69.3540
L81.7500 69.4130
" />
<path d="M81.7500 69.4130
L82.0240 69.5830
" />
<path d="M81.7560 74.2330
L81.3180 74.1460
" />
<path d="M82.0240 69.5830
L82.2170 69.8410
" />
<path d="M82.1230 74.4770
L81.7560 74.2330
" />
<path d="M82.2170 69.8410
L82.2990 70.1390
" />
<path d="M82.2990 70.1390
L82.4530 70.6970
" />
<path d="M82.3670 74.8440
L82.1230 74.4770
" />
<path d="M82.4530 70.6970
L82.7910 71.1500
" />
<path d="M82.4540 75.2820
L82.3670 74.8440
" />
<path d="M82.4540 75.5040
L82.4540 75.2820
" />
<path d="M82.7910 71.1500
L83.2700 71.4490
" />
<path d="M82.9870 76.0370
L82.4540 75.5040
" />
<path d="M83.2700 71.4490
L83.8320 71.5540
" />
<path d="M83.3290 76.2660
L82.9870 76.0370
" />
<path d="M83.7320 76.3460
L83.3290 76.2660
" />
<path d="M83.8320 71.5540
L86.4790 71.5540
" />
<path d="M86.4790 71.5540
L87.5000 72.5750
" />
<path d="M86.4790 76.3460
L83.7320 76.3460
" />
<path d="M87.4160 75.4090
L86.4790 76.3460
" />
<path d="M60.3540 52.3540
L64.4400 52.3540
" />
<path d="M60.3540 53.2960
L60.3540 52.3540
" />
<path d="M60.7170 53.2960
L60.3540 53.2960
" />
<path d="M60.7190 56.6090
L60.6340 56.1820
" />
<path d="M60.9080 56.8920
L60.7190 56.6090
" />
<path d="M61.1910 57.0810
L60.9080 56.8920
" />
<path d="M61.5180 57.1460
L61.1910 57.0810
" />
<path d="M64.3180 57.1460
L61.5180 57.1460
" />
<path d="M64.4400 52.3540
L64.7500 52.4130
" />
<path d="M64.7500 52.4130
L65.0240 52.5830
" />
<path d="M64.7560 57.2330
L64.3180 57.1460
" />
<path d="M65.0240 52.5830
L65.2170 52.8410
" />
<path d="M65.1230 57.4770
L64.7560 57.2330
" />
<path d="M65.2170 52.8410
L65.2990 53.1390
" />
<path d="M65.2990 53.1390
L65.4530 53.6970
" />
<path d="M65.3670 57.8440
L65.1230 57.4770
" />
<path d="M65.4530 53.6970
L65.7910 54.1500
" />
<path d="M65.4540 58.2820
L65.3670 57.8440
" />
<path d="M65.4540 58.5040
L65.4540 58.2820
" />
<path d="M65.7910 54.1500
L66.2700 54.4490
" />
<path d="M65.9870 59.0370
L65.4540 58.5040
" />
<path d="M66.2700 54.4490
L66.8320 54.5540
" />
<path d="M66.3290 59.2660
L65.9870 59.0370
" />
<path d="M66.7320 59.3460
L66.3290 59.2660
" />
<path d="M66.8320 54.5540
L69.4790 54.5540
" />
<path d="M69.4790 54.5540
L70.5000 55.5750
" />
<path d="M69.4790 59.3460
L66.7320 59.3460
" />
<path d="M70.4160 58.4090
L69.4790 59.3460
" />
<path d="M43.3540 35.3540
L47.4400 35.3540
" />
<path d="M43.3540 36.2960
L43.3540 35.3540
" />
<path d="M43.7170 36.2960
L43.3540 36.2960
" />
<path d="M43.7190 39.6090
L43.6340 39.1820
" />
<path d="M43.9080 39.8920
L43.7190 39.6090
" />
<path d="M44.1910 40.0810
L43.9080 39.8920
" />
<path d="M44.5180 40.1460
L44.1910 40.0810
" />
<path d="M47.3180 40.1460
L44.5180 40.1460
" />
<path d="M47.4400 35.3540
L47.7500 35.4130
" />
<path d="M47.7500 35.4130
L48.0240 35.5830
" />
<path d="M47.7560 40.2330
L47.3180 40.1460
" />
<path d="M48.0240 35.5830
L48.2170 35.8410
" />
<path d="M48.1230 40.4770
L47.7560 40.2330
" />
<path d="M48.2170 35.8410
L48.2990 36.1390
" />
<path d="M48.2990 36.1390
L48.4530 36.6970
" />
<path d="M48.3670 40.8440
L48.1230 40.4770
" />
<path d="M48.4530 36.6970
L48.7910 37.1500
" />
<path d="M48.4540 41.2820
L48.3670 40.8440
" />
<path d="M48.4540 41.5040
L48.4540 41.2820
" />
<path d="M48.7910 37.1500
L49.2700 37.4490
" />
<path d="M48.9870 42.0370
L48.4540 41.5040
" />
<path d="M49.2700 37.4490
L49.8320 37.5540
" />
<path d="M49.3290 42.2660
L48.9870 42.0370
" />
<path d="M49.7320 42.3460
L49.3290 42.2660
" />
<path d="M49.8320 37.5540
L52.4790 37.5540
" />
<path d="M52.4790 37.5540
L53.5000 38.5750
" />
<path d="M52.4790 42.3460
L49.7320 42.3460
" />
<path d="M53.4160 41.4090
L52.4790 42.3460
" />
<path d="M111.3540 86.3540
L115.4400 86.3540
" />
<path d="M111.3540 87.2960
L111.3540 86.3540
" />
<path d="M111.7170 87.2960
L111.3540 87.2960
" />
<path d="M111.7190 90.6090
L111.6340 90.1820
" />
<path d="M111.9080 90.8920
L111.7190 90.6090
" />
<path d="M112.1910 91.0810
L111.9080 90.8920
" />
<path d="M112.5180 91.1460
L112.1910 91.0810
" />
<path d="M115.3180 91.1460
L112.5180 91.1460
" />
<path d="M115.4400 86.3540
L115.7500 86.4130
" />
<path d="M115.7500 86.4130
L116.0240 86.5830
" />
<path d="M115.7560 91.2330
L115.3180 91.1460
" />
<path d="M116.0240 86.5830
L116.2170 86.8410
" />
<path d="M116.1230 91.4770
L115.7560 91.2330
" />
<path d="M116.2170 86.8410
L116.2990 87.1390
" />
<path d="M116.2990 87.1390
L116.4530 87.6970
" />
<path d="M116.3670 91.8440
L116.1230 91.4770
" />
<path d="M116.4530 87.6970
L116.7910 88.1500
" />
<path d="M116.4540 92.2820
L116.3670 91.8440
" />
<path d="M116.4540 92.5040
L116.4540 92.2820
" />
<path d="M116.7910 88.1500
L117.2700 88.4490
" />
<path d="M116.9870 93.0370
L116.4540 92.5040
" />
<path d="M117.2700 88.4490
L117.8320 88.5540
" />
<path d="M117.3290 93.2660
L116.9870 93.0370
" />
<path d="M117.7320 93.3460
L117.3290 93.2660
" />
<path d="M117.8320 88.5540
L120.4790 88.5540
" />
<path d="M120.4790 88.5540
L121.5000 89.5750
" />
<path d="M120.4790 93.3460
L117.7320 93.3460
" />
<path d="M121.4160 92.4090
L120.4790 93.3460
" />
<path d="M94.3540 103.3540
L98.4400 103.3540
" />
<path d="M94.3540 104.2960
L94.3540 103.3540
" />
<path d="M94.7170 104.2960
L94.3540 104.2960
" />
<path d="M94.7190 107.6090
L94.6340 107.1820
" />
<path d="M94.9080 107.8920
L94.7190 107.6090
" />
<path d="M95.1910 108.0810
L94.9080 107.8920
" />
<path d="M95.5180 108.1460
L95.1910 108.0810
" />
<path d="M98.3180 108.1460
L95.5180 108.1460
" />
<path d="M98.4400 103.3540
L98.7500 103.4130
" />
<path d="M98.7500 103.4130
L99.0240 103.5830
" />
<path d="M98.7560 108.2330
L98.3180 108.1460
" />
<path d="M99.0240 103.5830
L99.2170 103.8410
" />
<path d="M99.1230 108.4770
L98.7560 108.2330
" />
<path d="M99.2170 103.8410
L99.2990 104.1390
" />
<path d="M99.2990 104.1390
L99.4530 104.6970
" />
<path d="M99.3670 108.8440
L99.1230 108.4770
" />
<path d="M99.4530 104.6970
L99.7910 105.1500
" />
<path d="M99.4540 109.2820
L99.3670 108.8440
" />
<path d="M99.4540 109.5040
L99.4540 109.2820
" />
<path d="M99.7910 105.1500
L100.2700 105.4490
" />
<path d="M99.9870 110.0370
L99.4540 109.5040
" />
<path d="M100.2700 105.4490
L100.8320 105.5540
" />
<path d="M100.3290 110.2660
L99.9870 110.0370
" />
<path d="M100.7320 110.3460
L100.3290 110.2660
" />
<path d="M100.8320 105.5540
L103.4790 105.5540
" />
<path d="M103.4790 105.5540
L104.5000 106.5750
" />
<path d="M103.4790 110.3460
L100.7320 110.3460
" />
<path d="M104.4160 109.4090
L103.4790 110.3460
" />
<path d="M94.3540 35.3540
L98.4400 35.3540
" />
<path d="M94.3540 36.2960
L94.3540 35.3540
" />
<path d="M94.7170 36.2960
L94.3540 36.2960
" />
<path d="M94.7190 39.6090
L94.6340 39.1820
" />
<path d="M94.9080 39.8920
L94.7190 39.6090
" />
<path d="M95.1910 40.0810
L94.9080 39.8920
" />
<path d="M95.5180 40.1460
L95.1910 40.0810
" />
<path d="M98.3180 40.1460
L95.5180 40.1460
" />
<path d="M98.4400 35.3540
L98.7500 35.4130
" />
<path d="M98.7500 35.4130
L99.0240 35.5830
" />
<path d="M98.7560 40.2330
L98.3180 40.1460
" />
<path d="M99.0240 35.5830
L99.2170 35.8410
" />
<path d="M99.1230 40.4770
L98.7560 40.2330
" />
<path d="M99.2170 35.8410
L99.2990 36.1390
" />
<path d="M99.2990 36.1390
L99.4530 36.6970
" />
<path d="M99.3670 40.8440
L99.1230 40.4770
" />
<path d="M99.4530 36.6970
L99.7910 37.1500
" />
<path d="M99.4540 41.2820
L99.3670 40.8440
" />
<path d="M99.4540 41.5040
L99.4540 41.2820
" />
<path d="M99.7910 37.1500
L100.2700 37.4490
" />
<path d="M99.9870 42.0370
L99.4540 41.5040
" />
<path d="M100.2700 37.4490
L100.8320 37.5540
" />
<path d="M100.3290 42.2660
L99.9870 42.0370
" />
<path d="M100.7320 42.3460
L100.3290 42.2660
" />
<path d="M100.8320 37.5540
L103.4790 37.5540
" />
<path d="M103.4790 37.5540
L104.5000 38.5750
" />
<path d="M103.4790 42.3460
L100.7320 42.3460
" />
<path d="M104.4160 41.4090
L103.4790 42.3460
" />
<path d="M43.3540 52.3540
L47.4400 52.3540
" />
<path d="M43.3540 53.2960
L43.3540 52.3540
" />
<path d="M43.7170 53.2960
L43.3540 53.2960
" />
<path d="M43.7190 56.6090
L43.6340 56.1820
" />
<path d="M43.9080 56.8920
L43.7190 56.6090
" />
<path d="M44.1910 57.0810
L43.9080 56.8920
" />
<path d="M44.5180 57.1460
L44.1910 57.0810
" />
<path d="M47.3180 57.1460
L44.5180 57.1460
" />
<path d="M47.4400 52.3540
L47.7500 52.4130
" />
<path d="M47.7500 52.4130
L48.0240 52.5830
" />
<path d="M47.7560 57.2330
L47.3180 57.1460
" />
<path d="M48.0240 52.5830
L48.2170 52.8410
" />
<path d="M48.1230 57.4770
L47.7560 57.2330
" />
<path d="M48.2170 52.8410
L48.2990 53.1390
" />
<path d="M48.2990 53.1390
L48.4530 53.6970
" />
<path d="M48.3670 57.8440
L48.1230 57.4770
" />
<path d="M48.4530 53.6970
L48.7910 54.1500
" />
<path d="M48.4540 58.2820
L48.3670 57.8440
" />
<path d="M48.4540 58.5040
L48.4540 58.2820
" />
<path d="M48.7910 54.1500
L49.2700 54.4490
" />
<path d="M48.9870 59.0370
L48.4540 58.5040
" />
<path d="M49.2700 54.4490
L49.8320 54.5540
" />
<path d="M49.3290 59.2660
L48.9870 59.0370
" />
<path d="M49.7320 59.3460
L49.3290 59.2660
" />
<path d="M49.8320 54.5540
L52.4790 54.5540
" />
<path d="M52.4790 54.5540
L53.5000 55.5750
" />
<path d="M52.4790 59.3460
L49.7320 59.3460
" />
<path d="M53.4160 58.4090
L52.4790 59.3460
" />
<path d="M94.3540 86.3540
L98.4400 86.3540
" />
<path d="M94.3540 87.2960
L94.3540 86.3540
" />
<path d="M94.7170 87.2960
L94.3540 87.2960
" />
<path d="M94.7190 90.6090
L94.6340 90.1820
" />
<path d="M94.9080 90.8920
L94.7190 90.6090
" />
<path d="M95.1910 91.0810
L94.9080 90.8920
" />
<path d="M95.5180 91.1460
L95.1910 91.0810
" />
<path d="M98.3180 91.1460
L95.5180 91.1460
" />
<path d="M98.4400 86.3540
L98.7500 86.4130
" />
<path d="M98.7500 86.4130
L99.0240 86.5830
" />
<path d="M98.7560 91.2330
L98.3180 91.1460
" />
<path d="M99.0240 86.5830
L99.2170 86.8410
" />
<path d="M99.1230 91.4770
L98.7560 91.2330
" />
<path d="M99.2170 86.8410
L99.2990 87.1390
" />
<path d="M99.2990 87.1390
L99.4530 87.6970
" />
<path d="M99.3670 91.8440
L99.1230 91.4770
" />
<path d="M99.4530 87.6970
L99.7910 88.1500
" />
<path d="M99.4540 92.2820
L99.3670 91.8440
" />
<path d="M99.4540 92.5040
L99.4540 92.2820
" />
<path d="M99.7910 88.1500
L100.2700 88.4490
" />
<path d="M99.9870 93.0370
L99.4540 92.5040
" />
<path d="M100.2700 88.4490
L100.8320 88.5540
" />
<path d="M100.3290 93.2660
L99.9870 93.0370
" />
<path d="M100.7320 93.3460
L100.3290 93.2660
" />
<path d="M100.8320 88.5540
L103.4790 88.5540
" />
<path d="M103.4790 88.5540
L104.5000 89.5750
" />
<path d="M103.4790 93.3460
L100.7320 93.3460
" />
<path d="M104.4160 92.4090
L103.4790 93.3460
" />
<path d="M26.3540 69.3540
L30.4400 69.3540
" />
<path d="M26.3540 70.2960
L26.3540 69.3540
" />
<path d="M26.7170 70.2960
L26.3540 70.2960
" />
<path d="M26.7190 73.6090
L26.6340 73.1820
" />
<path d="M26.9080 73.8920
L26.7190 73.6090
" />
<path d="M27.1910 74.0810
L26.9080 73.8920
" />
<path d="M27.5180 74.1460
L27.1910 74.0810
" />
<path d="M30.3180 74.1460
L27.5180 74.1460
" />
<path d="M30.4400 69.3540
L30.7500 69.4130
" />
<path d="M30.7500 69.4130
L31.0240 69.5830
" />
<path d="M30.7560 74.2330
L30.3180 74.1460
" />
<path d="M31.0240 69.5830
L31.2170 69.8410
" />
<path d="M31.1230 74.4770
L30.7560 74.2330
" />
<path d="M31.2170 69.8410
L31.2990 70.1390
" />
<path d="M31.2990 70.1390
L31.4530 70.6970
" />
<path d="M31.3670 74.8440
L31.1230 74.4770
" />
<path d="M31.4530 70.6970
L31.7910 71.1500
" />
<path d="M31.4540 75.2820
L31.3670 74.8440
" />
<path d="M31.4540 75.5040
L31.4540 75.2820
" />
<path d="M31.7910 71.1500
L32.2700 71.4490
" />
<path d="M31.9870 76.0370
L31.4540 75.5040
" />
<path d="M32.2700 71.4490
L32.8320 71.5540
" />
<path d="M32.3290 76.2660
L31.9870 76.0370
" />
<path d="M32.7320 76.3460
L32.3290 76.2660
" />
<path d="M32.8320 71.5540
L35.4790 71.5540
" />
<path d="M35.4790 71.5540
L36.5000 72.5750
" />
<path d="M35.4790 76.3460
L32.7320 76.3460
" />
<path d="M36.4160 75.4090
L35.4790 76.3460
" />
<path d="M36.2100 47.0000
L32.2000 47.0000
" />
<path d="M36.2100 45.0000
L36.2100 47.0000
" />
<path d="M36.2100 45.0000
L32.2000 45.0000
" />
<path d="M60.3540 86.3540
L64.4400 86.3540
" />
<path d="M60.3540 87.2960
L60.3540 86.3540
" />
<path d="M60.7170 87.2960
L60.3540 87.2960
" />
<path d="M60.7190 90.6090
L60.6340 90.1820
" />
<path d="M60.9080 90.8920
L60.7190 90.6090
" />
<path d="M61.1910 91.0810
L60.9080 90.8920
" />
<path d="M61.5180 91.1460
L61.1910 91.0810
" />
<path d="M64.3180 91.1460
L61.5180 91.1460
" />
<path d="M64.4400 86.3540
L64.7500 86.4130
" />
<path d="M64.7500 86.4130
L65.0240 86.5830
" />
<path d="M64.7560 91.2330
L64.3180 91.1460
" />
<path d="M65.0240 86.5830
L65.2170 86.8410
" />
<path d="M65.1230 91.4770
L64.7560 91.2330
" />
<path d="M65.2170 86.8410
L65.2990 87.1390
" />
<path d="M65.2990 87.1390
L65.4530 87.6970
" />
<path d="M65.3670 91.8440
L65.1230 91.4770
" />
<path d="M65.4530 87.6970
L65.7910 88.1500
" />
<path d="M65.4540 92.2820
L65.3670 91.8440
" />
<path d="M65.4540 92.5040
L65.4540 92.2820
" />
<path d="M65.7910 88.1500
L66.2700 88.4490
" />
<path d="M65.9870 93.0370
L65.4540 92.5040
" />
<path d="M66.2700 88.4490
L66.8320 88.5540
" />
<path d="M66.3290 93.2660
L65.9870 93.0370
" />
<path d="M66.7320 93.3460
L66.3290 93.2660
" />
<path d="M66.8320 88.5540
L69.4790 88.5540
" />
<path d="M69.4790 88.5540
L70.5000 89.5750
" />
<path d="M69.4790 93.3460
L66.7320 93.3460
" />
<path d="M70.4160 92.4090
L69.4790 93.3460
" />
<path d="M111.3540 103.3540
L115.4400 103.3540
" />
<path d="M111.3540 104.2960
L111.3540 103.3540
" />
<path d="M111.7170 104.2960
L111.3540 104.2960
" />
<path d="M111.7190 107.6090
L111.6340 107.1820
" />
<path d="M111.9080 107.8920
L111.7190 107.6090
" />
<path d="M112.1910 108.0810
L111.9080 107.8920
" />
<path d="M112.5180 108.1460
L112.1910 108.0810
" />
<path d="M115.3180 108.1460
L112.5180 108.1460
" />
<path d="M115.4400 103.3540
L115.7500 103.4130
" />
<path d="M115.7500 103.4130
L116.0240 103.5830
" />
<path d="M115.7560 108.2330
L115.3180 108.1460
" />
<path d="M116.0240 103.5830
L116.2170 103.8410
" />
<path d="M116.1230 108.4770
L115.7560 108.2330
" />
<path d="M116.2170 103.8410
L116.2990 104.1390
" />
<path d="M116.2990 104.1390
L116.4530 104.6970
" />
<path d="M116.3670 108.8440
L116.1230 108.4770
" />
<path d="M116.4530 104.6970
L116.7910 105.1500
" />
<path d="M116.4540 109.2820
L116.3670 108.8440
" />
<path d="M116.4540 109.5040
L116.4540 109.2820
" />
<path d="M116.7910 105.1500
L117.2700 105.4490
" />
<path d="M116.9870 110.0370
L116.4540 109.5040
" />
<path d="M117.2700 105.4490
L117.8320 105.5540
" />
<path d="M117.3290 110.2660
L116.9870 110.0370
" />
<path d="M117.7320 110.3460
L117.3290 110.2660
" />
<path d="M117.8320 105.5540
L120.4790 105.5540
" />
<path d="M120.4790 105.5540
L121.5000 106.5750
" />
<path d="M120.4790 110.3460
L117.7320 110.3460
" />
<path d="M121.4160 109.4090
L120.4790 110.3460
" />
<path d="M60.3540 35.3540
L64.4400 35.3540
" />
<path d="M60.3540 36.2960
L60.3540 35.3540
" />
<path d="M60.7170 36.2960
L60.3540 36.2960
" />
<path d="M60.7190 39.6090
L60.6340 39.1820
" />
<path d="M60.9080 39.8920
L60.7190 39.6090
" />
<path d="M61.1910 40.0810
L60.9080 39.8920
" />
<path d="M61.5180 40.1460
L61.1910 40.0810
" />
<path d="M64.3180 40.1460
L61.5180 40.1460
" />
<path d="M64.4400 35.3540
L64.7500 35.4130
" />
<path d="M64.7500 35.4130
L65.0240 35.5830
" />
<path d="M64.7560 40.2330
L64.3180 40.1460
" />
<path d="M65.0240 35.5830
L65.2170 35.8410
" />
<path d="M65.1230 40.4770
L64.7560 40.2330
" />
<path d="M65.2170 35.8410
L65.2990 36.1390
" />
<path d="M65.2990 36.1390
L65.4530 36.6970
" />
<path d="M65.3670 40.8440
L65.1230 40.4770
" />
<path d="M65.4530 36.6970
L65.7910 37.1500
" />
<path d="M65.4540 41.2820
L65.3670 40.8440
" />
<path d="M65.4540 41.5040
L65.4540 41.2820
" />
<path d="M65.7910 37.1500
L66.2700 37.4490
" />
<path d="M65.9870 42.0370
L65.4540 41.5040
" />
<path d="M66.2700 37.4490
L66.8320 37.5540
" />
<path d="M66.3290 42.2660
L65.9870 42.0370
" />
<path d="M66.7320 42.3460
L66.3290 42.2660
" />
<path d="M66.8320 37.5540
L69.4790 37.5540
" />
<path d="M69.4790 37.5540
L70.5000 38.5750
" />
<path d="M69.4790 42.3460
L66.7320 42.3460
" />
<path d="M70.4160 41.4090
L69.4790 42.3460
" />
<path d="M77.3540 35.3540
L81.4400 35.3540
" />
<path d="M77.3540 36.2960
L77.3540 35.3540
" />
<path d="M77.7170 36.2960
L77.3540 36.2960
" />
<path d="M77.7190 39.6090
L77.6340 39.1820
" />
<path d="M77.9080 39.8920
L77.7190 39.6090
" />
<path d="M78.1910 40.0810
L77.9080 39.8920
" />
<path d="M78.5180 40.1460
L78.1910 40.0810
" />
<path d="M81.3180 40.1460
L78.5180 40.1460
" />
<path d="M81.4400 35.3540
L81.7500 35.4130
" />
<path d="M81.7500 35.4130
L82.0240 35.5830
" />
<path d="M81.7560 40.2330
L81.3180 40.1460
" />
<path d="M82.0240 35.5830
L82.2170 35.8410
" />
<path d="M82.1230 40.4770
L81.7560 40.2330
" />
<path d="M82.2170 35.8410
L82.2990 36.1390
" />
<path d="M82.2990 36.1390
L82.4530 36.6970
" />
<path d="M82.3670 40.8440
L82.1230 40.4770
" />
<path d="M82.4530 36.6970
L82.7910 37.1500
" />
<path d="M82.4540 41.2820
L82.3670 40.8440
" />
<path d="M82.4540 41.5040
L82.4540 41.2820
" />
<path d="M82.7910 37.1500
L83.2700 37.4490
" />
<path d="M82.9870 42.0370
L82.4540 41.5040
" />
<path d="M83.2700 37.4490
L83.8320 37.5540
" />
<path d="M83.3290 42.2660
L82.9870 42.0370
" />
<path d="M83.7320 42.3460
L83.3290 42.2660
" />
<path d="M83.8320 37.5540
L86.4790 37.5540
" />
<path d="M86.4790 37.5540
L87.5000 38.5750
" />
<path d="M86.4790 42.3460
L83.7320 42.3460
" />
<path d="M87.4160 41.4090
L86.4790 42.3460
" />
<path d="M77.3540 86.3540
L81.4400 86.3540
" />
<path d="M77.3540 87.2960
L77.3540 86.3540
" />
<path d="M77.7170 87.2960
L77.3540 87.2960
" />
<path d="M77.7190 90.6090
L77.6340 90.1820
" />
<path d="M77.9080 90.8920
L77.7190 90.6090
" />
<path d="M78.1910 91.0810
L77.9080 90.8920
" />
<path d="M78.5180 91.1460
L78.1910 91.0810
" />
<path d="M81.3180 91.1460
L78.5180 91.1460
" />
<path d="M81.4400 86.3540
L81.7500 86.4130
" />
<path d="M81.7500 86.4130
L82.0240 86.5830
" />
<path d="M81.7560 91.2330
L81.3180 91.1460
" />
<path d="M82.0240 86.5830
L82.2170 86.8410
" />
<path d="M82.1230 91.4770
L81.7560 91.2330
" />
<path d="M82.2170 86.8410
L82.2990 87.1390
" />
<path d="M82.2990 87.1390
L82.4530 87.6970
" />
<path d="M82.3670 91.8440
L82.1230 91.4770
" />
<path d="M82.4530 87.6970
L82.7910 88.1500
" />
<path d="M82.4540 92.2820
L82.3670 91.8440
" />
<path d="M82.4540 92.5040
L82.4540 92.2820
" />
<path d="M82.7910 88.1500
L83.2700 88.4490
" />
<path d="M82.9870 93.0370
L82.4540 92.5040
" />
<path d="M83.2700 88.4490
L83.8320 88.5540
" />
<path d="M83.3290 93.2660
L82.9870 93.0370
" />
<path d="M83.7320 93.3460
L83.3290 93.2660
" />
<path d="M83.8320 88.5540
L86.4790 88.5540
" />
<path d="M86.4790 88.5540
L87.5000 89.5750
" />
<path d="M86.4790 93.3460
L83.7320 93.3460
" />
<path d="M87.4160 92.4090
L86.4790 93.3460
" />
<path d="M94.3540 52.3540
L98.4400 52.3540
" />
<path d="M94.3540 53.2960
L94.3540 52.3540
" />
<path d="M94.7170 53.2960
L94.3540 53.2960
" />
<path d="M94.7190 56.6090
L94.6340 56.1820
" />
<path d="M94.9080 56.8920
L94.7190 56.6090
" />
<path d="M95.1910 57.0810
L94.9080 56.8920
" />
<path d="M95.5180 57.1460
L95.1910 57.0810
" />
<path d="M98.3180 57.1460
L95.5180 57.1460
" />
<path d="M98.4400 52.3540
L98.7500 52.4130
" />
<path d="M98.7500 52.4130
L99.0240 52.5830
" />
<path d="M98.7560 57.2330
L98.3180 57.1460
" />
<path d="M99.0240 52.5830
L99.2170 52.8410
" />
<path d="M99.1230 57.4770
L98.7560 57.2330
" />
<path d="M99.2170 52.8410
L99.2990 53.1390
" />
<path d="M99.2990 53.1390
L99.4530 53.6970
" />
<path d="M99.3670 57.8440
L99.1230 57.4770
" />
<path d="M99.4530 53.6970
L99.7910 54.1500
" />
<path d="M99.4540 58.2820
L99.3670 57.8440
" />
<path d="M99.4540 58.5040
L99.4540 58.2820
" />
<path d="M99.7910 54.1500
L100.2700 54.4490
" />
<path d="M99.9870 59.0370
L99.4540 58.5040
" />
<path d="M100.2700 54.4490
L100.8320 54.5540
" />
<path d="M100.3290 59.2660
L99.9870 59.0370
" />
<path d="M100.7320 59.3460
L100.3290 59.2660
" />
<path d="M100.8320 54.5540
L103.4790 54.5540
" />
<path d="M103.4790 54.5540
L104.5000 55.5750
" />
<path d="M103.4790 59.3460
L100.7320 59.3460
" />
<path d="M104.4160 58.4090
L103.4790 59.3460
" />
<path d="M77.3540 103.3540
L81.4400 103.3540
" />
<path d="M77.3540 104.2960
L77.3540 103.3540
" />
<path d="M77.7170 104.2960
L77.3540 104.2960
" />
<path d="M77.7190 107.6090
L77.6340 107.1820
" />
<path d="M77.9080 107.8920
L77.7190 107.6090
" />
<path d="M78.1910 108.0810
L77.9080 107.8920
" />
<path d="M78.5180 108.1460
L78.1910 108.0810
" />
<path d="M81.3180 108.1460
L78.5180 108.1460
" />
<path d="M81.4400 103.3540
L81.7500 103.4130
" />
<path d="M81.7500 103.4130
L82.0240 103.5830
" />
<path d="M81.7560 108.2330
L81.3180 108.1460
" />
<path d="M82.0240 103.5830
L82.2170 103.8410
" />
<path d="M82.1230 108.4770
L81.7560 108.2330
" />
<path d="M82.2170 103.8410
L82.2990 104.1390
" />
<path d="M82.2990 104.1390
L82.4530 104.6970
" />
<path d="M82.3670 108.8440
L82.1230 108.4770
" />
<path d="M82.4530 104.6970
L82.7910 105.1500
" />
<path d="M82.4540 109.2820
L82.3670 108.8440
" />
<path d="M82.4540 109.5040
L82.4540 109.2820
" />
<path d="M82.7910 105.1500
L83.2700 105.4490
" />
<path d="M82.9870 110.0370
L82.4540 109.5040
" />
<path d="M83.2700 105.4490
L83.8320 105.5540
" />
<path d="M83.3290 110.2660
L82.9870 110.0370
" />
<path d="M83.7320 110.3460
L83.3290 110.2660
" />
<path d="M83.8320 105.5540
L86.4790 105.5540
" />
<path d="M86.4790 105.5540
L87.5000 106.5750
" />
<path d="M86.4790 110.3460
L83.7320 110.3460
" />
<path d="M87.4160 109.4090
L86.4790 110.3460
" />
<path d="M94.3540 69.3540
L98.4400 69.3540
" />
<path d="M94.3540 70.2960
L94.3540 69.3540
" />
<path d="M94.7170 70.2960
L94.3540 70.2960
" />
<path d="M94.7190 73.6090
L94.6340 73.1820
" />
<path d="M94.9080 73.8920
L94.7190 73.6090
" />
<path d="M95.1910 74.0810
L94.9080 73.8920
" />
<path d="M95.5180 74.1460
L95.1910 74.0810
" />
<path d="M98.3180 74.1460
L95.5180 74.1460
" />
<path d="M98.4400 69.3540
L98.7500 69.4130
" />
<path d="M98.7500 69.4130
L99.0240 69.5830
" />
<path d="M98.7560 74.2330
L98.3180 74.1460
" />
<path d="M99.0240 69.5830
L99.2170 69.8410
" />
<path d="M99.1230 74.4770
L98.7560 74.2330
" />
<path d="M99.2170 69.8410
L99.2990 70.1390
" />
<path d="M99.2990 70.1390
L99.4530 70.6970
" />
<path d="M99.3670 74.8440
L99.1230 74.4770
" />
<path d="M99.4530 70.6970
L99.7910 71.1500
" />
<path d="M99.4540 75.2820
L99.3670 74.8440
" />
<path d="M99.4540 75.5040
L99.4540 75.2820
" />
<path d="M99.7910 71.1500
L100.2700 71.4490
" />
<path d="M99.9870 76.0370
L99.4540 75.5040
" />
<path d="M100.2700 71.4490
L100.8320 71.5540
" />
<path d="M100.3290 76.2660
L99.9870 76.0370
" />
<path d="M100.7320 76.3460
L100.3290 76.2660
" />
<path d="M100.8320 71.5540
L103.4790 71.5540
" />
<path d="M103.4790 71.5540
L104.5000 72.5750
" />
<path d="M103.4790 76.3460
L100.7320 76.3460
" />
<path d="M104.4160 75.4090
L103.4790 76.3460
" />
<path d="M26.3540 35.3540
L30.4400 35.3540
" />
<path d="M26.3540 36.2960
L26.3540 35.3540
" />
<path d="M26.7170 36.2960
L26.3540 36.2960
" />
<path d="M26.7190 39.6090
L26.6340 39.1820
" />
<path d="M26.9080 39.8920
L26.7190 39.6090
" />
<path d="M27.1910 40.0810
L26.9080 39.8920
" />
<path d="M27.5180 40.1460
L27.1910 40.0810
" />
<path d="M30.3180 40.1460
L27.5180 40.1460
" />
<path d="M30.4400 35.3540
L30.7500 35.4130
" />
<path d="M30.7500 35.4130
L31.0240 35.5830
" />
<path d="M30.7560 40.2330
L30.3180 40.1460
" />
<path d="M31.0240 35.5830
L31.2170 35.8410
" />
<path d="M31.1230 40.4770
L30.7560 40.2330
" />
<path d="M31.2170 35.8410
L31.2990 36.1390
" />
<path d="M31.2990 36.1390
L31.4530 36.6970
" />
<path d="M31.3670 40.8440
L31.1230 40.4770
" />
<path d="M31.4530 36.6970
L31.7910 37.1500
" />
<path d="M31.4540 41.2820
L31.3670 40.8440
" />
<path d="M31.4540 41.5040
L31.4540 41.2820
" />
<path d="M31.7910 37.1500
L32.2700 37.4490
" />
<path d="M31.9870 42.0370
L31.4540 41.5040
" />
<path d="M32.2700 37.4490
L32.8320 37.5540
" />
<path d="M32.3290 42.2660
L31.9870 42.0370
" />
<path d="M32.7320 42.3460
L32.3290 42.2660
" />
<path d="M32.8320 37.5540
L35.4790 37.5540
" />
<path d="M35.4790 37.5540
L36.5000 38.5750
" />
<path d="M35.4790 42.3460
L32.7320 42.3460
" />
<path d="M36.4160 41.4090
L35.4790 42.3460
" />
<path d="M43.3540 69.3540
L47.4400 69.3540
" />
<path d="M43.3540 70.2960
L43.3540 69.3540
" />
<path d="M43.7170 70.2960
L43.3540 70.2960
" />
<path d="M43.7190 73.6090
L43.6340 73.1820
" />
<path d="M43.9080 73.8920
L43.7190 73.6090
" />
<path d="M44.1910 74.0810
L43.9080 73.8920
" />
<path d="M44.5180 74.1460
L44.1910 74.0810
" />
<path d="M47.3180 74.1460
L44.5180 74.1460
" />
<path d="M47.4400 69.3540
L47.7500 69.4130
" />
<path d="M47.7500 69.4130
L48.0240 69.5830
" />
<path d="M47.7560 74.2330
L47.3180 74.1460
" />
<path d="M48.0240 69.5830
L48.2170 69.8410
" />
<path d="M48.1230 74.4770
L47.7560 74.2330
" />
<path d="M48.2170 69.8410
L48.2990 70.1390
" />
<path d="M48.2990 70.1390
L48.4530 70.6970
" />
<path d="M48.3670 74.8440
L48.1230 74.4770
" />
<path d="M48.4530 70.6970
L48.7910 71.1500
" />
<path d="M48.4540 75.2820
L48.3670 74.8440
" />
<path d="M48.4540 75.5040
L48.4540 75.2820
" />
<path d="M48.7910 71.1500
L49.2700 71.4490
" />
<path d="M48.9870 76.0370
L48.4540 75.5040
" />
<path d="M49.2700 71.4490
L49.8320 71.5540
" />
<path d="M49.3290 76.2660
L48.9870 76.0370
" />
<path d="M49.7320 76.3460
L49.3290 76.2660
" />
<path d="M49.8320 71.5540
L52.4790 71.5540
" />
<path d="M52.4790 71.5540
L53.5000 72.5750
" />
<path d="M52.4790 76.3460
L49.7320 76.3460
" />
<path d="M53.4160 75.4090
L52.4790 76.3460
" />
<path d="M43.3540 86.3540
L47.4400 86.3540
" />
<path d="M43.3540 87.2960
L43.3540 86.3540
" />
<path d="M43.7170 87.2960
L43.3540 87.2960
" />
<path d="M43.7190 90.6090
L43.6340 90.1820
" />
<path d="M43.9080 90.8920
L43.7190 90.6090
" />
<path d="M44.1910 91.0810
L43.9080 90.8920
" />
<path d="M44.5180 91.1460
L44.1910 91.0810
" />
<path d="M47.3180 91.1460
L44.5180 91.1460
" />
<path d="M47.4400 86.3540
L47.7500 86.4130
" />
<path d="M47.7500 86.4130
L48.0240 86.5830
" />
<path d="M47.7560 91.2330
L47.3180 91.1460
" />
<path d="M48.0240 86.5830
L48.2170 86.8410
" />
<path d="M48.1230 91.4770
L47.7560 91.2330
" />
<path d="M48.2170 86.8410
L48.2990 87.1390
" />
<path d="M48.2990 87.1390
L48.4530 87.6970
" />
<path d="M48.3670 91.8440
L48.1230 91.4770
" />
<path d="M48.4530 87.6970
L48.7910 88.1500
" />
<path d="M48.4540 92.2820
L48.3670 91.8440
" />
<path d="M48.4540 92.5040
L48.4540 92.2820
" />
<path d="M48.7910 88.1500
L49.2700 88.4490
" />
<path d="M48.9870 93.0370
L48.4540 92.5040
" />
<path d="M49.2700 88.4490
L49.8320 88.5540
" />
<path d="M49.3290 93.2660
L48.9870 93.0370
" />
<path d="M49.7320 93.3460
L49.3290 93.2660
" />
<path d="M49.8320 88.5540
L52.4790 88.5540
" />
<path d="M52.4790 88.5540
L53.5000 89.5750
" />
<path d="M52.4790 93.3460
L49.7320 93.3460
" />
<path d="M53.4160 92.4090
L52.4790 93.3460
" />
<path d="M43.3540 103.3540
L47.4400 103.3540
" />
<path d="M43.3540 104.2960
L43.3540 103.3540
" />
<path d="M43.7170 104.2960
L43.3540 104.2960
" />
<path d="M43.7190 107.6090
L43.6340 107.1820
" />
<path d="M43.9080 107.8920
L43.7190 107.6090
" />
<path d="M44.1910 108.0810
L43.9080 107.8920
" />
<path d="M44.5180 108.1460
L44.1910 108.0810
" />
<path d="M47.3180 108.1460
L44.5180 108.1460
" />
<path d="M47.4400 103.3540
L47.7500 103.4130
" />
<path d="M47.7500 103.4130
L48.0240 103.5830
" />
<path d="M47.7560 108.2330
L47.3180 108.1460
" />
<path d="M48.0240 103.5830
L48.2170 103.8410
" />
<path d="M48.1230 108.4770
L47.7560 108.2330
" />
<path d="M48.2170 103.8410
L48.2990 104.1390
" />
<path d="M48.2990 104.1390
L48.4530 104.6970
" />
<path d="M48.3670 108.8440
L48.1230 108.4770
" />
<path d="M48.4530 104.6970
L48.7910 105.1500
" />
<path d="M48.4540 109.2820
L48.3670 108.8440
" />
<path d="M48.4540 109.5040
L48.4540 109.2820
" />
<path d="M48.7910 105.1500
L49.2700 105.4490
" />
<path d="M48.9870 110.0370
L48.4540 109.5040
" />
<path d="M49.2700 105.4490
L49.8320 105.5540
" />
<path d="M49.3290 110.2660
L48.9870 110.0370
" />
<path d="M49.7320 110.3460
L49.3290 110.2660
" />
<path d="M49.8320 105.5540
L52.4790 105.5540
" />
<path d="M52.4790 105.5540
L53.5000 106.5750
" />
<path d="M52.4790 110.3460
L49.7320 110.3460
" />
<path d="M53.4160 109.4090
L52.4790 110.3460
" />
<path d="M60.3540 69.3540
L64.4400 69.3540
" />
<path d="M60.3540 70.2960
L60.3540 69.3540
" />
<path d="M60.7170 70.2960
L60.3540 70.2960
" />
<path d="M60.7190 73.6090
L60.6340 73.1820
" />
<path d="M60.9080 73.8920
L60.7190 73.6090
" />
<path d="M61.1910 74.0810
L60.9080 73.8920
" />
<path d="M61.5180 74.1460
L61.1910 74.0810
" />
<path d="M64.3180 74.1460
L61.5180 74.1460
" />
<path d="M64.4400 69.3540
L64.7500 69.4130
" />
<path d="M64.7500 69.4130
L65.0240 69.5830
" />
<path d="M64.7560 74.2330
L64.3180 74.1460
" />
<path d="M65.0240 69.5830
L65.2170 69.8410
" />
<path d="M65.1230 74.4770
L64.7560 74.2330
" />
<path d="M65.2170 69.8410
L65.2990 70.1390
" />
<path d="M65.2990 70.1390
L65.4530 70.6970
" />
<path d="M65.3670 74.8440
L65.1230 74.4770
" />
<path d="M65.4530 70.6970
L65.7910 71.1500
" />
<path d="M65.4540 75.2820
L65.3670 74.8440
" />
<path d="M65.4540 75.5040
L65.4540 75.2820
" />
<path d="M65.7910 71.1500
L66.2700 71.4490
" />
<path d="M65.9870 76.0370
L65.4540 75.5040
" />
<path d="M66.2700 71.4490
L66.8320 71.5540
" />
<path d="M66.3290 76.2660
L65.9870 76.0370
" />
<path d="M66.7320 76.3460
L66.3290 76.2660
" />
<path d="M66.8320 71.5540
L69.4790 71.5540
" />
<path d="M69.4790 71.5540
L70.5000 72.5750
" />
<path d="M69.4790 76.3460
L66.7320 76.3460
" />
<path d="M70.4160 75.4090
L69.4790 76.3460
" />
<path d="M70.2100 98.0000
L66.2000 98.0000
" />
<path d="M70.2100 96.0000
L70.2100 98.0000
" />
<path d="M70.2100 96.0000
L66.2000 96.0000
" />
<path d="M121.2100 64.0000
L117.2000 64.0000
" />
<path d="M121.2100 62.0000
L121.2100 64.0000
" />
<path d="M121.2100 62.0000
L117.2000 62.0000
" />
<path d="M70.2100 47.0000
L66.2000 47.0000
" />
<path d="M70.2100 45.0000
L70.2100 47.0000
" />
<path d="M70.2100 45.0000
L66.2000 45.0000
" />
<path d="M87.2100 47.0000
L83.2000 47.0000
" />
<path d="M87.2100 45.0000
L87.2100 47.0000
" />
<path d="M87.2100 45.0000
L83.2000 45.0000
" />
<path d="M70.2100 64.0000
L66.2000 64.0000
" />
<path d="M70.2100 62.0000
L70.2100 64.0000
" />
<path d="M70.2100 62.0000
L66.2000 62.0000
" />
<path d="M87.2100 81.0000
L83.2000 81.0000
" />
<path d="M87.2100 79.0000
L87.2100 81.0000
" />
<path d="M87.2100 79.0000
L83.2000 79.0000
" />
<path d="M53.2100 64.0000
L49.2000 64.0000
" />
<path d="M53.2100 62.0000
L53.2100 64.0000
" />
<path d="M53.2100 62.0000
L49.2000 62.0000
" />
<path d="M87.2100 64.0000
L83.2000 64.0000
" />
<path d="M87.2100 62.0000
L87.2100 64.0000
" />
<path d="M87.2100 62.0000
L83.2000 62.0000
" />
<path d="M104.2100 30.0000
L100.2000 30.0000
" />
<path d="M104.2100 28.0000
L104.2100 30.0000
" />
<path d="M104.2100 28.0000
L100.2000 28.0000
" />
<path d="M36.2100 64.0000
L32.2000 64.0000
" />
<path d="M36.2100 62.0000
L36.2100 64.0000
" />
<path d="M36.2100 62.0000
L32.2000 62.0000
" />
<path d="M53.2100 47.0000
L49.2000 47.0000
" />
<path d="M53.2100 45.0000
L53.2100 47.0000
" />
<path d="M53.2100 45.0000
L49.2000 45.0000
" />
<path d="M104.2100 98.0000
L100.2000 98.0000
" />
<path d="M104.2100 96.0000
L104.2100 98.0000
" />
<path d="M104.2100 96.0000
L100.2000 96.0000
" />
<path d="M53.2100 30.0000
L49.2000 30.0000
" />
<path d="M53.2100 28.0000
L53.2100 30.0000
" />
<path d="M53.2100 28.0000
L49.2000 28.0000
" />
<path d="M87.2100 30.0000
L83.2000 30.0000
" />
<path d="M87.2100 28.0000
L87.2100 30.0000
" />
<path d="M87.2100 28.0000
L83.2000 28.0000
" />
<path d="M53.2100 98.0000
L49.2000 98.0000
" />
<path d="M53.2100 96.0000
L53.2100 98.0000
" />
<path d="M53.2100 96.0000
L49.2000 96.0000
" />
<path d="M70.2100 30.0000
L66.2000 30.0000
" />
<path d="M70.2100 28.0000
L70.2100 30.0000
" />
<path d="M70.2100 28.0000
L66.2000 28.0000
" />
<path d="M87.2100 98.0000
L83.2000 98.0000
" />
<path d="M87.2100 96.0000
L87.2100 98.0000
" />
<path d="M87.2100 96.0000
L83.2000 96.0000
" />
<path d="M121.2100 30.0000
L117.2000 30.0000
" />
<path d="M121.2100 28.0000
L121.2100 30.0000
" />
<path d="M121.2100 28.0000
L117.2000 28.0000
" />
<path d="M104.2100 81.0000
L100.2000 81.0000
" />
<path d="M104.2100 79.0000
L104.2100 81.0000
" />
<path d="M104.2100 79.0000
L100.2000 79.0000
" />
<path d="M121.2100 47.0000
L117.2000 47.0000
" />
<path d="M121.2100 45.0000
L121.2100 47.0000
" />
<path d="M121.2100 45.0000
L117.2000 45.0000
" />
<path d="M121.2100 81.0000
L117.2000 81.0000
" />
<path d="M121.2100 79.0000
L121.2100 81.0000
" />
<path d="M121.2100 79.0000
L117.2000 79.0000
" />
<path d="M121.2100 98.0000
L117.2000 98.0000
" />
<path d="M121.2100 96.0000
L121.2100 98.0000
" />
<path d="M121.2100 96.0000
L117.2000 96.0000
" />
<path d="M53.2100 81.0000
L49.2000 81.0000
" />
<path d="M53.2100 79.0000
L53.2100 81.0000
" />
<path d="M53.2100 79.0000
L49.2000 79.0000
" />
<path d="M104.2100 47.0000
L100.2000 47.0000
" />
<path d="M104.2100 45.0000
L104.2100 47.0000
" />
<path d="M104.2100 45.0000
L100.2000 45.0000
" />
<path d="M36.2100 30.0000
L32.2000 30.0000
" />
<path d="M36.2100 28.0000
L36.2100 30.0000
" />
<path d="M36.2100 28.0000
L32.2000 28.0000
" />
<path d="M104.2100 64.0000
L100.2000 64.0000
" />
<path d="M104.2100 62.0000
L104.2100 64.0000
" />
<path d="M104.2100 62.0000
L100.2000 62.0000
" />
<path d="M36.2100 81.0000
L32.2000 81.0000
" />
<path d="M36.2100 79.0000
L36.2100 81.0000
" />
<path d="M36.2100 79.0000
L32.2000 79.0000
" />
<path d="M70.2100 81.0000
L66.2000 81.0000
" />
<path d="M70.2100 79.0000
L70.2100 81.0000
" />
<path d="M70.2100 79.0000
L66.2000 79.0000
" />
<path d="M36.2100 98.0000
L32.2000 98.0000
" />
<path d="M36.2100 96.0000
L36.2100 98.0000
" />
<path d="M36.2100 96.0000
L32.2000 96.0000
" />
</g> 
</svg>
