<?xml version="1.0" standalone="no"?>
 <!DOCTYPE svg PUBLIC "-//W3C//DTD SVG 1.1//EN" 
 "http://www.w3.org/Graphics/SVG/1.1/DTD/svg11.dtd"> 
<svg
  xmlns:svg="http://www.w3.org/2000/svg"
  xmlns="http://www.w3.org/2000/svg"
  xmlns:xlink="http://www.w3.org/1999/xlink"
  version="1.1"
  width="297.0022mm" height="210.0072mm" viewBox="0.0000 0.0000 297.0022 210.0072">
<title>SVG Image created as LillyKey-B_Mask.svg date 2026/01/26 13:50:20 </title>
  <desc>Image generated by PCBNEW </desc>
<g style="fill:#000000; fill-opacity:1.0000;stroke:#000000; stroke-opacity:1.0000;
stroke-linecap:round; stroke-linejoin:round;"
 transform="translate(0 0) scale(1 1)">
<path style="fill:none; 
stroke:#000000; stroke-width:1.2123; stroke-opacity:1; 
stroke-linecap:round; stroke-linejoin:round;fill:none"
d="M 150.4267,60.4944
150.5670,60.5013
150.7073,60.5150
150.8478,60.5362
150.9884,60.5653
151.1292,60.6029
151.2704,60.6497
151.4120,60.7059
151.5542,60.7724
151.6969,60.8495
151.8351,60.9345
151.9637,61.0244
152.0832,61.1189
152.1943,61.2179
152.2973,61.3210
152.3928,61.4282
152.4814,61.5392
152.5634,61.6539
152.7102,61.8934
152.8371,62.1451
152.9483,62.4075
153.0479,62.6790
153.4113,63.8251
153.5139,64.1188
153.6293,64.4123
153.7617,64.7040
153.9150,64.9924
153.9996,65.1331
154.0881,65.2694
154.2745,65.5298
154.4710,65.7765
154.6741,66.0122
155.4849,66.9000
155.6702,67.1220
155.8419,67.3495
155.9215,67.4662
155.9964,67.5853
156.0662,67.7072
156.1304,67.8321
156.1887,67.9605
156.2406,68.0927
156.2857,68.2290
156.3235,68.3699
156.3536,68.5155
156.3757,68.6663
156.3892,68.8226
156.3938,68.9848
156.3892,69.1469
156.3757,69.3032
156.3536,69.4540
156.3235,69.5997
156.2857,69.7405
156.2406,69.8768
156.1887,70.0090
156.1304,70.1374
156.0662,70.2624
155.9964,70.3842
155.9215,70.5033
155.8419,70.6200
155.6702,70.8475
155.4849,71.0695
154.6741,71.9573
154.4710,72.1930
154.2745,72.4397
154.0881,72.7002
153.9996,72.8364
153.9150,72.9771
153.8355,73.1208
153.7617,73.2655
153.6293,73.5572
153.5139,73.8507
153.4113,74.1444
153.0479,75.2905
152.9483,75.5620
152.8371,75.8244
152.7758,75.9517
152.7102,76.0761
152.6395,76.1975
152.5634,76.3156
152.4814,76.4303
152.3928,76.5413
152.2973,76.6485
152.1943,76.7517
152.0832,76.8506
151.9637,76.9451
151.8351,77.0350
151.6969,77.1201
151.5542,77.1972
151.4120,77.2636
151.2704,77.3199
151.1292,77.3666
150.9884,77.4042
150.8478,77.4334
150.7073,77.4545
150.5670,77.4683
150.4267,77.4751
150.2862,77.4756
150.0048,77.4597
149.7219,77.4248
149.4370,77.3752
148.2627,77.1170
147.9571,77.0589
147.6452,77.0121
147.3264,76.9809
147.0000,76.9695
146.6736,76.9809
146.3548,77.0121
146.0429,77.0589
145.7373,77.1170
144.5630,77.3752
144.2781,77.4248
143.9952,77.4597
143.7138,77.4756
143.5733,77.4751
143.4330,77.4683
143.2927,77.4545
143.1522,77.4334
143.0116,77.4042
142.8708,77.3666
142.7296,77.3199
142.5880,77.2636
142.4458,77.1972
142.3031,77.1201
142.1649,77.0350
142.0363,76.9451
141.9168,76.8506
141.8057,76.7517
141.7027,76.6485
141.6072,76.5413
141.5186,76.4303
141.4366,76.3156
141.2898,76.0761
141.1629,75.8244
141.0517,75.5620
140.9521,75.2905
140.5887,74.1444
140.4861,73.8507
140.3707,73.5572
140.2383,73.2655
140.0850,72.9771
140.0004,72.8364
139.9119,72.7002
139.7255,72.4397
139.5290,72.1930
139.3259,71.9573
138.5152,71.0695
138.3298,70.8475
138.1581,70.6200
138.0785,70.5033
138.0036,70.3842
137.9338,70.2624
137.8696,70.1374
137.8113,70.0090
137.7594,69.8768
137.7143,69.7405
137.6765,69.5997
137.6464,69.4540
137.6243,69.3032
137.6108,69.1469
137.6062,68.9848
137.6108,68.8226
137.6243,68.6663
137.6464,68.5155
137.6765,68.3699
137.7143,68.2290
137.7594,68.0927
137.8113,67.9605
137.8696,67.8321
137.9338,67.7072
138.0036,67.5853
138.0785,67.4662
138.1581,67.3495
138.3298,67.1220
138.5152,66.9000
139.3259,66.0122
139.5290,65.7765
139.7255,65.5298
139.9119,65.2694
140.0004,65.1331
140.0850,64.9924
140.1645,64.8487
140.2383,64.7040
140.3707,64.4123
140.4861,64.1188
140.5887,63.8251
140.9521,62.6790
141.0517,62.4075
141.1629,62.1451
141.2242,62.0178
141.2898,61.8934
141.3605,61.7720
141.4366,61.6539
141.5186,61.5392
141.6072,61.4282
141.7027,61.3210
141.8057,61.2179
141.9168,61.1189
142.0363,61.0244
142.1649,60.9345
142.3031,60.8495
142.4458,60.7724
142.5880,60.7059
142.7296,60.6497
142.8708,60.6029
143.0116,60.5653
143.1522,60.5362
143.2927,60.5150
143.4330,60.5013
143.5733,60.4944
143.7138,60.4939
143.9952,60.5099
144.2781,60.5448
144.5630,60.5943
145.7373,60.8526
146.0429,60.9106
146.3548,60.9574
146.6736,60.9886
147.0000,61.0000
147.3264,60.9886
147.6452,60.9574
147.9571,60.9106
148.2627,60.8526
149.4370,60.5943
149.7219,60.5448
150.0048,60.5099
150.2862,60.4939
Z" /> 
<path style="fill:#000000; fill-opacity:1.0000; stroke:none;fill-rule:evenodd;"
d="M 111.7750,55.8000
111.7560,55.8957
111.7018,55.9768
111.6207,56.0310
111.5250,56.0500
109.4750,56.0500
109.3793,56.0310
109.2982,55.9768
109.2440,55.8957
109.2250,55.8000
109.2250,53.8000
109.2440,53.7043
109.2982,53.6232
109.3793,53.5690
109.4750,53.5500
111.5250,53.5500
111.6207,53.5690
111.7018,53.6232
111.7560,53.7043
111.7750,53.8000
Z" /> 
<path style="fill:#000000; fill-opacity:1.0000; stroke:none;fill-rule:evenodd;"
d="M 123.7750,58.0000
123.7560,58.0957
123.7018,58.1768
123.6207,58.2310
123.5250,58.2500
121.4750,58.2500
121.3793,58.2310
121.2982,58.1768
121.2440,58.0957
121.2250,58.0000
121.2250,56.0000
121.2440,55.9043
121.2982,55.8232
121.3793,55.7690
121.4750,55.7500
123.5250,55.7500
123.6207,55.7690
123.7018,55.8232
123.7560,55.9043
123.7750,56.0000
Z" /> 
</g>
<g style="fill:#000000; fill-opacity:1.0000; stroke:none;">
<circle cx="124.5000" cy="51.0000" r="0.9500" /> 
</g>
<g style="fill:#000000; fill-opacity:1.0000; stroke:none;">
<circle cx="124.0000" cy="54.8000" r="1.5250" /> 
</g>
<g style="fill:#000000; fill-opacity:1.0000; stroke:none;">
<circle cx="124.0000" cy="45.8500" r="0.8000" /> 
</g>
<g style="fill:#000000; fill-opacity:1.0000; stroke:none;">
<circle cx="119.0000" cy="56.9000" r="1.5250" /> 
</g>
<g style="fill:#000000; fill-opacity:1.0000; stroke:none;">
<circle cx="119.0000" cy="51.0000" r="2.5250" /> 
</g>
<g style="fill:#000000; fill-opacity:1.0000; stroke:none;">
<circle cx="114.0000" cy="54.8000" r="1.5250" /> 
</g>
<g style="fill:#000000; fill-opacity:1.0000; stroke:none;">
<circle cx="113.8500" cy="46.0000" r="0.8000" /> 
</g>
<g style="fill:#000000; fill-opacity:1.0000; stroke:none;">
<circle cx="113.5000" cy="51.0000" r="0.9500" /> 
</g>
<g style="fill:#000000; fill-opacity:1.0000; stroke:none;">
<circle cx="124.0000" cy="62.8500" r="0.8000" /> 
<path style="fill:#000000; fill-opacity:1.0000; stroke:none;fill-rule:evenodd;"
d="M 111.7750,72.8000
111.7560,72.8957
111.7018,72.9768
111.6207,73.0310
111.5250,73.0500
109.4750,73.0500
109.3793,73.0310
109.2982,72.9768
109.2440,72.8957
109.2250,72.8000
109.2250,70.8000
109.2440,70.7043
109.2982,70.6232
109.3793,70.5690
109.4750,70.5500
111.5250,70.5500
111.6207,70.5690
111.7018,70.6232
111.7560,70.7043
111.7750,70.8000
Z" /> 
<path style="fill:#000000; fill-opacity:1.0000; stroke:none;fill-rule:evenodd;"
d="M 123.7750,75.0000
123.7560,75.0957
123.7018,75.1768
123.6207,75.2310
123.5250,75.2500
121.4750,75.2500
121.3793,75.2310
121.2982,75.1768
121.2440,75.0957
121.2250,75.0000
121.2250,73.0000
121.2440,72.9043
121.2982,72.8232
121.3793,72.7690
121.4750,72.7500
123.5250,72.7500
123.6207,72.7690
123.7018,72.8232
123.7560,72.9043
123.7750,73.0000
Z" /> 
</g>
<g style="fill:#000000; fill-opacity:1.0000; stroke:none;">
<circle cx="124.5000" cy="68.0000" r="0.9500" /> 
</g>
<g style="fill:#000000; fill-opacity:1.0000; stroke:none;">
<circle cx="124.0000" cy="71.8000" r="1.5250" /> 
</g>
<g style="fill:#000000; fill-opacity:1.0000; stroke:none;">
<circle cx="119.0000" cy="73.9000" r="1.5250" /> 
</g>
<g style="fill:#000000; fill-opacity:1.0000; stroke:none;">
<circle cx="119.0000" cy="68.0000" r="2.5250" /> 
</g>
<g style="fill:#000000; fill-opacity:1.0000; stroke:none;">
<circle cx="114.0000" cy="71.8000" r="1.5250" /> 
</g>
<g style="fill:#000000; fill-opacity:1.0000; stroke:none;">
<circle cx="113.8500" cy="63.0000" r="0.8000" /> 
</g>
<g style="fill:#000000; fill-opacity:1.0000; stroke:none;">
<circle cx="113.5000" cy="68.0000" r="0.9500" /> 
<path style="fill:#000000; fill-opacity:1.0000; stroke:none;fill-rule:evenodd;"
d="M 142.9007,57.2618
142.9007,53.8582
144.3993,53.8582
144.3993,57.2618
Z" /> 
<path style="fill:#000000; fill-opacity:1.0000; stroke:none;fill-rule:evenodd;"
d="M 149.6007,57.2618
149.6007,53.8582
151.0993,53.8582
151.0993,57.2618
Z" /> 
<path style="fill:#000000; fill-opacity:1.0000; stroke:none;fill-rule:evenodd;"
d="M 145.5047,51.5626
145.5047,48.0574
146.4953,48.0574
146.4953,51.5626
Z" /> 
<path style="fill:#000000; fill-opacity:1.0000; stroke:none;fill-rule:evenodd;"
d="M 147.5047,51.5626
147.5047,48.0574
148.4953,48.0574
148.4953,51.5626
Z" /> 
</g>
<g style="fill:#000000; fill-opacity:1.0000; stroke:none;">
<circle cx="25.0000" cy="111.0000" r="1.9000" /> 
</g>
<g style="fill:#000000; fill-opacity:1.0000; stroke:none;">
<circle cx="28.5000" cy="51.0000" r="0.9500" /> 
</g>
<g style="fill:#000000; fill-opacity:1.0000; stroke:none;">
<circle cx="28.8500" cy="46.0000" r="0.8000" /> 
</g>
<g style="fill:#000000; fill-opacity:1.0000; stroke:none;">
<circle cx="29.0000" cy="54.8000" r="1.5250" /> 
</g>
<g style="fill:#000000; fill-opacity:1.0000; stroke:none;">
<circle cx="34.0000" cy="51.0000" r="2.5250" /> 
</g>
<g style="fill:#000000; fill-opacity:1.0000; stroke:none;">
<circle cx="34.0000" cy="56.9000" r="1.5250" /> 
</g>
<g style="fill:#000000; fill-opacity:1.0000; stroke:none;">
<circle cx="39.0000" cy="45.8500" r="0.8000" /> 
</g>
<g style="fill:#000000; fill-opacity:1.0000; stroke:none;">
<circle cx="39.0000" cy="54.8000" r="1.5250" /> 
</g>
<g style="fill:#000000; fill-opacity:1.0000; stroke:none;">
<circle cx="39.5000" cy="51.0000" r="0.9500" /> 
<path style="fill:#000000; fill-opacity:1.0000; stroke:none;fill-rule:evenodd;"
d="M 38.7750,58.0000
38.7560,58.0957
38.7018,58.1768
38.6207,58.2310
38.5250,58.2500
36.4750,58.2500
36.3793,58.2310
36.2982,58.1768
36.2440,58.0957
36.2250,58.0000
36.2250,56.0000
36.2440,55.9043
36.2982,55.8232
36.3793,55.7690
36.4750,55.7500
38.5250,55.7500
38.6207,55.7690
38.7018,55.8232
38.7560,55.9043
38.7750,56.0000
Z" /> 
<path style="fill:#000000; fill-opacity:1.0000; stroke:none;fill-rule:evenodd;"
d="M 26.7750,55.8000
26.7560,55.8957
26.7018,55.9768
26.6207,56.0310
26.5250,56.0500
24.4750,56.0500
24.3793,56.0310
24.2982,55.9768
24.2440,55.8957
24.2250,55.8000
24.2250,53.8000
24.2440,53.7043
24.2982,53.6232
24.3793,53.5690
24.4750,53.5500
26.5250,53.5500
26.6207,53.5690
26.7018,53.6232
26.7560,53.7043
26.7750,53.8000
Z" /> 
</g>
<g style="fill:#000000; fill-opacity:1.0000; stroke:none;">
<circle cx="113.5000" cy="34.0000" r="0.9500" /> 
</g>
<g style="fill:#000000; fill-opacity:1.0000; stroke:none;">
<circle cx="113.8500" cy="29.0000" r="0.8000" /> 
</g>
<g style="fill:#000000; fill-opacity:1.0000; stroke:none;">
<circle cx="114.0000" cy="37.8000" r="1.5250" /> 
</g>
<g style="fill:#000000; fill-opacity:1.0000; stroke:none;">
<circle cx="119.0000" cy="34.0000" r="2.5250" /> 
</g>
<g style="fill:#000000; fill-opacity:1.0000; stroke:none;">
<circle cx="119.0000" cy="39.9000" r="1.5250" /> 
</g>
<g style="fill:#000000; fill-opacity:1.0000; stroke:none;">
<circle cx="124.0000" cy="28.8500" r="0.8000" /> 
</g>
<g style="fill:#000000; fill-opacity:1.0000; stroke:none;">
<circle cx="124.0000" cy="37.8000" r="1.5250" /> 
</g>
<g style="fill:#000000; fill-opacity:1.0000; stroke:none;">
<circle cx="124.5000" cy="34.0000" r="0.9500" /> 
<path style="fill:#000000; fill-opacity:1.0000; stroke:none;fill-rule:evenodd;"
d="M 123.7750,41.0000
123.7560,41.0957
123.7018,41.1768
123.6207,41.2310
123.5250,41.2500
121.4750,41.2500
121.3793,41.2310
121.2982,41.1768
121.2440,41.0957
121.2250,41.0000
121.2250,39.0000
121.2440,38.9043
121.2982,38.8232
121.3793,38.7690
121.4750,38.7500
123.5250,38.7500
123.6207,38.7690
123.7018,38.8232
123.7560,38.9043
123.7750,39.0000
Z" /> 
<path style="fill:#000000; fill-opacity:1.0000; stroke:none;fill-rule:evenodd;"
d="M 111.7750,38.8000
111.7560,38.8957
111.7018,38.9768
111.6207,39.0310
111.5250,39.0500
109.4750,39.0500
109.3793,39.0310
109.2982,38.9768
109.2440,38.8957
109.2250,38.8000
109.2250,36.8000
109.2440,36.7043
109.2982,36.6232
109.3793,36.5690
109.4750,36.5500
111.5250,36.5500
111.6207,36.5690
111.7018,36.6232
111.7560,36.7043
111.7750,36.8000
Z" /> 
</g>
<g style="fill:#000000; fill-opacity:1.0000; stroke:none;">
<circle cx="28.5000" cy="85.0000" r="0.9500" /> 
</g>
<g style="fill:#000000; fill-opacity:1.0000; stroke:none;">
<circle cx="28.8500" cy="80.0000" r="0.8000" /> 
</g>
<g style="fill:#000000; fill-opacity:1.0000; stroke:none;">
<circle cx="29.0000" cy="88.8000" r="1.5250" /> 
</g>
<g style="fill:#000000; fill-opacity:1.0000; stroke:none;">
<circle cx="34.0000" cy="85.0000" r="2.5250" /> 
</g>
<g style="fill:#000000; fill-opacity:1.0000; stroke:none;">
<circle cx="34.0000" cy="90.9000" r="1.5250" /> 
</g>
<g style="fill:#000000; fill-opacity:1.0000; stroke:none;">
<circle cx="39.0000" cy="79.8500" r="0.8000" /> 
</g>
<g style="fill:#000000; fill-opacity:1.0000; stroke:none;">
<circle cx="39.0000" cy="88.8000" r="1.5250" /> 
</g>
<g style="fill:#000000; fill-opacity:1.0000; stroke:none;">
<circle cx="39.5000" cy="85.0000" r="0.9500" /> 
<path style="fill:#000000; fill-opacity:1.0000; stroke:none;fill-rule:evenodd;"
d="M 38.7750,92.0000
38.7560,92.0957
38.7018,92.1768
38.6207,92.2310
38.5250,92.2500
36.4750,92.2500
36.3793,92.2310
36.2982,92.1768
36.2440,92.0957
36.2250,92.0000
36.2250,90.0000
36.2440,89.9043
36.2982,89.8232
36.3793,89.7690
36.4750,89.7500
38.5250,89.7500
38.6207,89.7690
38.7018,89.8232
38.7560,89.9043
38.7750,90.0000
Z" /> 
<path style="fill:#000000; fill-opacity:1.0000; stroke:none;fill-rule:evenodd;"
d="M 26.7750,89.8000
26.7560,89.8957
26.7018,89.9768
26.6207,90.0310
26.5250,90.0500
24.4750,90.0500
24.3793,90.0310
24.2982,89.9768
24.2440,89.8957
24.2250,89.8000
24.2250,87.8000
24.2440,87.7043
24.2982,87.6232
24.3793,87.5690
24.4750,87.5500
26.5250,87.5500
26.6207,87.5690
26.7018,87.6232
26.7560,87.7043
26.7750,87.8000
Z" /> 
</g>
<g style="fill:#000000; fill-opacity:1.0000; stroke:none;">
<circle cx="62.5000" cy="102.0000" r="0.9500" /> 
</g>
<g style="fill:#000000; fill-opacity:1.0000; stroke:none;">
<circle cx="62.8500" cy="97.0000" r="0.8000" /> 
</g>
<g style="fill:#000000; fill-opacity:1.0000; stroke:none;">
<circle cx="63.0000" cy="105.8000" r="1.5250" /> 
</g>
<g style="fill:#000000; fill-opacity:1.0000; stroke:none;">
<circle cx="68.0000" cy="102.0000" r="2.5250" /> 
</g>
<g style="fill:#000000; fill-opacity:1.0000; stroke:none;">
<circle cx="68.0000" cy="107.9000" r="1.5250" /> 
</g>
<g style="fill:#000000; fill-opacity:1.0000; stroke:none;">
<circle cx="73.0000" cy="96.8500" r="0.8000" /> 
</g>
<g style="fill:#000000; fill-opacity:1.0000; stroke:none;">
<circle cx="73.0000" cy="105.8000" r="1.5250" /> 
</g>
<g style="fill:#000000; fill-opacity:1.0000; stroke:none;">
<circle cx="73.5000" cy="102.0000" r="0.9500" /> 
<path style="fill:#000000; fill-opacity:1.0000; stroke:none;fill-rule:evenodd;"
d="M 72.7750,109.0000
72.7560,109.0957
72.7018,109.1768
72.6207,109.2310
72.5250,109.2500
70.4750,109.2500
70.3793,109.2310
70.2982,109.1768
70.2440,109.0957
70.2250,109.0000
70.2250,107.0000
70.2440,106.9043
70.2982,106.8232
70.3793,106.7690
70.4750,106.7500
72.5250,106.7500
72.6207,106.7690
72.7018,106.8232
72.7560,106.9043
72.7750,107.0000
Z" /> 
<path style="fill:#000000; fill-opacity:1.0000; stroke:none;fill-rule:evenodd;"
d="M 60.7750,106.8000
60.7560,106.8957
60.7018,106.9768
60.6207,107.0310
60.5250,107.0500
58.4750,107.0500
58.3793,107.0310
58.2982,106.9768
58.2440,106.8957
58.2250,106.8000
58.2250,104.8000
58.2440,104.7043
58.2982,104.6232
58.3793,104.5690
58.4750,104.5500
60.5250,104.5500
60.6207,104.5690
60.7018,104.6232
60.7560,104.7043
60.7750,104.8000
Z" /> 
</g>
<g style="fill:#000000; fill-opacity:1.0000; stroke:none;">
<circle cx="79.5000" cy="51.0000" r="0.9500" /> 
</g>
<g style="fill:#000000; fill-opacity:1.0000; stroke:none;">
<circle cx="79.8500" cy="46.0000" r="0.8000" /> 
</g>
<g style="fill:#000000; fill-opacity:1.0000; stroke:none;">
<circle cx="80.0000" cy="54.8000" r="1.5250" /> 
</g>
<g style="fill:#000000; fill-opacity:1.0000; stroke:none;">
<circle cx="85.0000" cy="51.0000" r="2.5250" /> 
</g>
<g style="fill:#000000; fill-opacity:1.0000; stroke:none;">
<circle cx="85.0000" cy="56.9000" r="1.5250" /> 
</g>
<g style="fill:#000000; fill-opacity:1.0000; stroke:none;">
<circle cx="90.0000" cy="45.8500" r="0.8000" /> 
</g>
<g style="fill:#000000; fill-opacity:1.0000; stroke:none;">
<circle cx="90.0000" cy="54.8000" r="1.5250" /> 
</g>
<g style="fill:#000000; fill-opacity:1.0000; stroke:none;">
<circle cx="90.5000" cy="51.0000" r="0.9500" /> 
<path style="fill:#000000; fill-opacity:1.0000; stroke:none;fill-rule:evenodd;"
d="M 89.7750,58.0000
89.7560,58.0957
89.7018,58.1768
89.6207,58.2310
89.5250,58.2500
87.4750,58.2500
87.3793,58.2310
87.2982,58.1768
87.2440,58.0957
87.2250,58.0000
87.2250,56.0000
87.2440,55.9043
87.2982,55.8232
87.3793,55.7690
87.4750,55.7500
89.5250,55.7500
89.6207,55.7690
89.7018,55.8232
89.7560,55.9043
89.7750,56.0000
Z" /> 
<path style="fill:#000000; fill-opacity:1.0000; stroke:none;fill-rule:evenodd;"
d="M 77.7750,55.8000
77.7560,55.8957
77.7018,55.9768
77.6207,56.0310
77.5250,56.0500
75.4750,56.0500
75.3793,56.0310
75.2982,55.9768
75.2440,55.8957
75.2250,55.8000
75.2250,53.8000
75.2440,53.7043
75.2982,53.6232
75.3793,53.5690
75.4750,53.5500
77.5250,53.5500
77.6207,53.5690
77.7018,53.6232
77.7560,53.7043
77.7750,53.8000
Z" /> 
</g>
<g style="fill:#000000; fill-opacity:1.0000; stroke:none;">
<circle cx="28.5000" cy="102.0000" r="0.9500" /> 
</g>
<g style="fill:#000000; fill-opacity:1.0000; stroke:none;">
<circle cx="28.8500" cy="97.0000" r="0.8000" /> 
</g>
<g style="fill:#000000; fill-opacity:1.0000; stroke:none;">
<circle cx="29.0000" cy="105.8000" r="1.5250" /> 
</g>
<g style="fill:#000000; fill-opacity:1.0000; stroke:none;">
<circle cx="34.0000" cy="102.0000" r="2.5250" /> 
</g>
<g style="fill:#000000; fill-opacity:1.0000; stroke:none;">
<circle cx="34.0000" cy="107.9000" r="1.5250" /> 
</g>
<g style="fill:#000000; fill-opacity:1.0000; stroke:none;">
<circle cx="39.0000" cy="96.8500" r="0.8000" /> 
</g>
<g style="fill:#000000; fill-opacity:1.0000; stroke:none;">
<circle cx="39.0000" cy="105.8000" r="1.5250" /> 
</g>
<g style="fill:#000000; fill-opacity:1.0000; stroke:none;">
<circle cx="39.5000" cy="102.0000" r="0.9500" /> 
<path style="fill:#000000; fill-opacity:1.0000; stroke:none;fill-rule:evenodd;"
d="M 38.7750,109.0000
38.7560,109.0957
38.7018,109.1768
38.6207,109.2310
38.5250,109.2500
36.4750,109.2500
36.3793,109.2310
36.2982,109.1768
36.2440,109.0957
36.2250,109.0000
36.2250,107.0000
36.2440,106.9043
36.2982,106.8232
36.3793,106.7690
36.4750,106.7500
38.5250,106.7500
38.6207,106.7690
38.7018,106.8232
38.7560,106.9043
38.7750,107.0000
Z" /> 
<path style="fill:#000000; fill-opacity:1.0000; stroke:none;fill-rule:evenodd;"
d="M 26.7750,106.8000
26.7560,106.8957
26.7018,106.9768
26.6207,107.0310
26.5250,107.0500
24.4750,107.0500
24.3793,107.0310
24.2982,106.9768
24.2440,106.8957
24.2250,106.8000
24.2250,104.8000
24.2440,104.7043
24.2982,104.6232
24.3793,104.5690
24.4750,104.5500
26.5250,104.5500
26.6207,104.5690
26.7018,104.6232
26.7560,104.7043
26.7750,104.8000
Z" /> 
</g>
<g style="fill:#000000; fill-opacity:1.0000; stroke:none;">
<circle cx="79.5000" cy="68.0000" r="0.9500" /> 
</g>
<g style="fill:#000000; fill-opacity:1.0000; stroke:none;">
<circle cx="79.8500" cy="63.0000" r="0.8000" /> 
</g>
<g style="fill:#000000; fill-opacity:1.0000; stroke:none;">
<circle cx="80.0000" cy="71.8000" r="1.5250" /> 
</g>
<g style="fill:#000000; fill-opacity:1.0000; stroke:none;">
<circle cx="85.0000" cy="68.0000" r="2.5250" /> 
</g>
<g style="fill:#000000; fill-opacity:1.0000; stroke:none;">
<circle cx="85.0000" cy="73.9000" r="1.5250" /> 
</g>
<g style="fill:#000000; fill-opacity:1.0000; stroke:none;">
<circle cx="90.0000" cy="62.8500" r="0.8000" /> 
</g>
<g style="fill:#000000; fill-opacity:1.0000; stroke:none;">
<circle cx="90.0000" cy="71.8000" r="1.5250" /> 
</g>
<g style="fill:#000000; fill-opacity:1.0000; stroke:none;">
<circle cx="90.5000" cy="68.0000" r="0.9500" /> 
<path style="fill:#000000; fill-opacity:1.0000; stroke:none;fill-rule:evenodd;"
d="M 89.7750,75.0000
89.7560,75.0957
89.7018,75.1768
89.6207,75.2310
89.5250,75.2500
87.4750,75.2500
87.3793,75.2310
87.2982,75.1768
87.2440,75.0957
87.2250,75.0000
87.2250,73.0000
87.2440,72.9043
87.2982,72.8232
87.3793,72.7690
87.4750,72.7500
89.5250,72.7500
89.6207,72.7690
89.7018,72.8232
89.7560,72.9043
89.7750,73.0000
Z" /> 
<path style="fill:#000000; fill-opacity:1.0000; stroke:none;fill-rule:evenodd;"
d="M 77.7750,72.8000
77.7560,72.8957
77.7018,72.9768
77.6207,73.0310
77.5250,73.0500
75.4750,73.0500
75.3793,73.0310
75.2982,72.9768
75.2440,72.8957
75.2250,72.8000
75.2250,70.8000
75.2440,70.7043
75.2982,70.6232
75.3793,70.5690
75.4750,70.5500
77.5250,70.5500
77.6207,70.5690
77.7018,70.6232
77.7560,70.7043
77.7750,70.8000
Z" /> 
</g>
<g style="fill:#000000; fill-opacity:1.0000; stroke:none;">
<circle cx="62.5000" cy="51.0000" r="0.9500" /> 
</g>
<g style="fill:#000000; fill-opacity:1.0000; stroke:none;">
<circle cx="62.8500" cy="46.0000" r="0.8000" /> 
</g>
<g style="fill:#000000; fill-opacity:1.0000; stroke:none;">
<circle cx="63.0000" cy="54.8000" r="1.5250" /> 
</g>
<g style="fill:#000000; fill-opacity:1.0000; stroke:none;">
<circle cx="68.0000" cy="51.0000" r="2.5250" /> 
</g>
<g style="fill:#000000; fill-opacity:1.0000; stroke:none;">
<circle cx="68.0000" cy="56.9000" r="1.5250" /> 
</g>
<g style="fill:#000000; fill-opacity:1.0000; stroke:none;">
<circle cx="73.0000" cy="45.8500" r="0.8000" /> 
</g>
<g style="fill:#000000; fill-opacity:1.0000; stroke:none;">
<circle cx="73.0000" cy="54.8000" r="1.5250" /> 
</g>
<g style="fill:#000000; fill-opacity:1.0000; stroke:none;">
<circle cx="73.5000" cy="51.0000" r="0.9500" /> 
<path style="fill:#000000; fill-opacity:1.0000; stroke:none;fill-rule:evenodd;"
d="M 72.7750,58.0000
72.7560,58.0957
72.7018,58.1768
72.6207,58.2310
72.5250,58.2500
70.4750,58.2500
70.3793,58.2310
70.2982,58.1768
70.2440,58.0957
70.2250,58.0000
70.2250,56.0000
70.2440,55.9043
70.2982,55.8232
70.3793,55.7690
70.4750,55.7500
72.5250,55.7500
72.6207,55.7690
72.7018,55.8232
72.7560,55.9043
72.7750,56.0000
Z" /> 
<path style="fill:#000000; fill-opacity:1.0000; stroke:none;fill-rule:evenodd;"
d="M 60.7750,55.8000
60.7560,55.8957
60.7018,55.9768
60.6207,56.0310
60.5250,56.0500
58.4750,56.0500
58.3793,56.0310
58.2982,55.9768
58.2440,55.8957
58.2250,55.8000
58.2250,53.8000
58.2440,53.7043
58.2982,53.6232
58.3793,53.5690
58.4750,53.5500
60.5250,53.5500
60.6207,53.5690
60.7018,53.6232
60.7560,53.7043
60.7750,53.8000
Z" /> 
</g>
<g style="fill:#000000; fill-opacity:1.0000; stroke:none;">
<circle cx="45.5000" cy="34.0000" r="0.9500" /> 
</g>
<g style="fill:#000000; fill-opacity:1.0000; stroke:none;">
<circle cx="45.8500" cy="29.0000" r="0.8000" /> 
</g>
<g style="fill:#000000; fill-opacity:1.0000; stroke:none;">
<circle cx="46.0000" cy="37.8000" r="1.5250" /> 
</g>
<g style="fill:#000000; fill-opacity:1.0000; stroke:none;">
<circle cx="51.0000" cy="34.0000" r="2.5250" /> 
</g>
<g style="fill:#000000; fill-opacity:1.0000; stroke:none;">
<circle cx="51.0000" cy="39.9000" r="1.5250" /> 
</g>
<g style="fill:#000000; fill-opacity:1.0000; stroke:none;">
<circle cx="56.0000" cy="28.8500" r="0.8000" /> 
</g>
<g style="fill:#000000; fill-opacity:1.0000; stroke:none;">
<circle cx="56.0000" cy="37.8000" r="1.5250" /> 
</g>
<g style="fill:#000000; fill-opacity:1.0000; stroke:none;">
<circle cx="56.5000" cy="34.0000" r="0.9500" /> 
<path style="fill:#000000; fill-opacity:1.0000; stroke:none;fill-rule:evenodd;"
d="M 55.7750,41.0000
55.7560,41.0957
55.7018,41.1768
55.6207,41.2310
55.5250,41.2500
53.4750,41.2500
53.3793,41.2310
53.2982,41.1768
53.2440,41.0957
53.2250,41.0000
53.2250,39.0000
53.2440,38.9043
53.2982,38.8232
53.3793,38.7690
53.4750,38.7500
55.5250,38.7500
55.6207,38.7690
55.7018,38.8232
55.7560,38.9043
55.7750,39.0000
Z" /> 
<path style="fill:#000000; fill-opacity:1.0000; stroke:none;fill-rule:evenodd;"
d="M 43.7750,38.8000
43.7560,38.8957
43.7018,38.9768
43.6207,39.0310
43.5250,39.0500
41.4750,39.0500
41.3793,39.0310
41.2982,38.9768
41.2440,38.8957
41.2250,38.8000
41.2250,36.8000
41.2440,36.7043
41.2982,36.6232
41.3793,36.5690
41.4750,36.5500
43.5250,36.5500
43.6207,36.5690
43.7018,36.6232
43.7560,36.7043
43.7750,36.8000
Z" /> 
</g>
<g style="fill:#000000; fill-opacity:1.0000; stroke:none;">
<circle cx="113.5000" cy="85.0000" r="0.9500" /> 
</g>
<g style="fill:#000000; fill-opacity:1.0000; stroke:none;">
<circle cx="113.8500" cy="80.0000" r="0.8000" /> 
</g>
<g style="fill:#000000; fill-opacity:1.0000; stroke:none;">
<circle cx="114.0000" cy="88.8000" r="1.5250" /> 
</g>
<g style="fill:#000000; fill-opacity:1.0000; stroke:none;">
<circle cx="119.0000" cy="85.0000" r="2.5250" /> 
</g>
<g style="fill:#000000; fill-opacity:1.0000; stroke:none;">
<circle cx="119.0000" cy="90.9000" r="1.5250" /> 
</g>
<g style="fill:#000000; fill-opacity:1.0000; stroke:none;">
<circle cx="124.0000" cy="79.8500" r="0.8000" /> 
</g>
<g style="fill:#000000; fill-opacity:1.0000; stroke:none;">
<circle cx="124.0000" cy="88.8000" r="1.5250" /> 
</g>
<g style="fill:#000000; fill-opacity:1.0000; stroke:none;">
<circle cx="124.5000" cy="85.0000" r="0.9500" /> 
<path style="fill:#000000; fill-opacity:1.0000; stroke:none;fill-rule:evenodd;"
d="M 123.7750,92.0000
123.7560,92.0957
123.7018,92.1768
123.6207,92.2310
123.5250,92.2500
121.4750,92.2500
121.3793,92.2310
121.2982,92.1768
121.2440,92.0957
121.2250,92.0000
121.2250,90.0000
121.2440,89.9043
121.2982,89.8232
121.3793,89.7690
121.4750,89.7500
123.5250,89.7500
123.6207,89.7690
123.7018,89.8232
123.7560,89.9043
123.7750,90.0000
Z" /> 
<path style="fill:#000000; fill-opacity:1.0000; stroke:none;fill-rule:evenodd;"
d="M 111.7750,89.8000
111.7560,89.8957
111.7018,89.9768
111.6207,90.0310
111.5250,90.0500
109.4750,90.0500
109.3793,90.0310
109.2982,89.9768
109.2440,89.8957
109.2250,89.8000
109.2250,87.8000
109.2440,87.7043
109.2982,87.6232
109.3793,87.5690
109.4750,87.5500
111.5250,87.5500
111.6207,87.5690
111.7018,87.6232
111.7560,87.7043
111.7750,87.8000
Z" /> 
</g>
<g style="fill:#000000; fill-opacity:1.0000; stroke:none;">
<circle cx="96.5000" cy="102.0000" r="0.9500" /> 
</g>
<g style="fill:#000000; fill-opacity:1.0000; stroke:none;">
<circle cx="96.8500" cy="97.0000" r="0.8000" /> 
</g>
<g style="fill:#000000; fill-opacity:1.0000; stroke:none;">
<circle cx="97.0000" cy="105.8000" r="1.5250" /> 
</g>
<g style="fill:#000000; fill-opacity:1.0000; stroke:none;">
<circle cx="102.0000" cy="102.0000" r="2.5250" /> 
</g>
<g style="fill:#000000; fill-opacity:1.0000; stroke:none;">
<circle cx="102.0000" cy="107.9000" r="1.5250" /> 
</g>
<g style="fill:#000000; fill-opacity:1.0000; stroke:none;">
<circle cx="107.0000" cy="96.8500" r="0.8000" /> 
</g>
<g style="fill:#000000; fill-opacity:1.0000; stroke:none;">
<circle cx="107.0000" cy="105.8000" r="1.5250" /> 
</g>
<g style="fill:#000000; fill-opacity:1.0000; stroke:none;">
<circle cx="107.5000" cy="102.0000" r="0.9500" /> 
<path style="fill:#000000; fill-opacity:1.0000; stroke:none;fill-rule:evenodd;"
d="M 106.7750,109.0000
106.7560,109.0957
106.7018,109.1768
106.6207,109.2310
106.5250,109.2500
104.4750,109.2500
104.3793,109.2310
104.2982,109.1768
104.2440,109.0957
104.2250,109.0000
104.2250,107.0000
104.2440,106.9043
104.2982,106.8232
104.3793,106.7690
104.4750,106.7500
106.5250,106.7500
106.6207,106.7690
106.7018,106.8232
106.7560,106.9043
106.7750,107.0000
Z" /> 
<path style="fill:#000000; fill-opacity:1.0000; stroke:none;fill-rule:evenodd;"
d="M 94.7750,106.8000
94.7560,106.8957
94.7018,106.9768
94.6207,107.0310
94.5250,107.0500
92.4750,107.0500
92.3793,107.0310
92.2982,106.9768
92.2440,106.8957
92.2250,106.8000
92.2250,104.8000
92.2440,104.7043
92.2982,104.6232
92.3793,104.5690
92.4750,104.5500
94.5250,104.5500
94.6207,104.5690
94.7018,104.6232
94.7560,104.7043
94.7750,104.8000
Z" /> 
</g>
<g style="fill:#000000; fill-opacity:1.0000; stroke:none;">
<circle cx="96.5000" cy="34.0000" r="0.9500" /> 
</g>
<g style="fill:#000000; fill-opacity:1.0000; stroke:none;">
<circle cx="96.8500" cy="29.0000" r="0.8000" /> 
</g>
<g style="fill:#000000; fill-opacity:1.0000; stroke:none;">
<circle cx="97.0000" cy="37.8000" r="1.5250" /> 
</g>
<g style="fill:#000000; fill-opacity:1.0000; stroke:none;">
<circle cx="102.0000" cy="34.0000" r="2.5250" /> 
</g>
<g style="fill:#000000; fill-opacity:1.0000; stroke:none;">
<circle cx="102.0000" cy="39.9000" r="1.5250" /> 
</g>
<g style="fill:#000000; fill-opacity:1.0000; stroke:none;">
<circle cx="107.0000" cy="28.8500" r="0.8000" /> 
</g>
<g style="fill:#000000; fill-opacity:1.0000; stroke:none;">
<circle cx="107.0000" cy="37.8000" r="1.5250" /> 
</g>
<g style="fill:#000000; fill-opacity:1.0000; stroke:none;">
<circle cx="107.5000" cy="34.0000" r="0.9500" /> 
<path style="fill:#000000; fill-opacity:1.0000; stroke:none;fill-rule:evenodd;"
d="M 106.7750,41.0000
106.7560,41.0957
106.7018,41.1768
106.6207,41.2310
106.5250,41.2500
104.4750,41.2500
104.3793,41.2310
104.2982,41.1768
104.2440,41.0957
104.2250,41.0000
104.2250,39.0000
104.2440,38.9043
104.2982,38.8232
104.3793,38.7690
104.4750,38.7500
106.5250,38.7500
106.6207,38.7690
106.7018,38.8232
106.7560,38.9043
106.7750,39.0000
Z" /> 
<path style="fill:#000000; fill-opacity:1.0000; stroke:none;fill-rule:evenodd;"
d="M 94.7750,38.8000
94.7560,38.8957
94.7018,38.9768
94.6207,39.0310
94.5250,39.0500
92.4750,39.0500
92.3793,39.0310
92.2982,38.9768
92.2440,38.8957
92.2250,38.8000
92.2250,36.8000
92.2440,36.7043
92.2982,36.6232
92.3793,36.5690
92.4750,36.5500
94.5250,36.5500
94.6207,36.5690
94.7018,36.6232
94.7560,36.7043
94.7750,36.8000
Z" /> 
</g>
<g style="fill:#000000; fill-opacity:1.0000; stroke:none;">
<circle cx="45.5000" cy="51.0000" r="0.9500" /> 
</g>
<g style="fill:#000000; fill-opacity:1.0000; stroke:none;">
<circle cx="45.8500" cy="46.0000" r="0.8000" /> 
</g>
<g style="fill:#000000; fill-opacity:1.0000; stroke:none;">
<circle cx="46.0000" cy="54.8000" r="1.5250" /> 
</g>
<g style="fill:#000000; fill-opacity:1.0000; stroke:none;">
<circle cx="51.0000" cy="51.0000" r="2.5250" /> 
</g>
<g style="fill:#000000; fill-opacity:1.0000; stroke:none;">
<circle cx="51.0000" cy="56.9000" r="1.5250" /> 
</g>
<g style="fill:#000000; fill-opacity:1.0000; stroke:none;">
<circle cx="56.0000" cy="45.8500" r="0.8000" /> 
</g>
<g style="fill:#000000; fill-opacity:1.0000; stroke:none;">
<circle cx="56.0000" cy="54.8000" r="1.5250" /> 
</g>
<g style="fill:#000000; fill-opacity:1.0000; stroke:none;">
<circle cx="56.5000" cy="51.0000" r="0.9500" /> 
<path style="fill:#000000; fill-opacity:1.0000; stroke:none;fill-rule:evenodd;"
d="M 55.7750,58.0000
55.7560,58.0957
55.7018,58.1768
55.6207,58.2310
55.5250,58.2500
53.4750,58.2500
53.3793,58.2310
53.2982,58.1768
53.2440,58.0957
53.2250,58.0000
53.2250,56.0000
53.2440,55.9043
53.2982,55.8232
53.3793,55.7690
53.4750,55.7500
55.5250,55.7500
55.6207,55.7690
55.7018,55.8232
55.7560,55.9043
55.7750,56.0000
Z" /> 
<path style="fill:#000000; fill-opacity:1.0000; stroke:none;fill-rule:evenodd;"
d="M 43.7750,55.8000
43.7560,55.8957
43.7018,55.9768
43.6207,56.0310
43.5250,56.0500
41.4750,56.0500
41.3793,56.0310
41.2982,55.9768
41.2440,55.8957
41.2250,55.8000
41.2250,53.8000
41.2440,53.7043
41.2982,53.6232
41.3793,53.5690
41.4750,53.5500
43.5250,53.5500
43.6207,53.5690
43.7018,53.6232
43.7560,53.7043
43.7750,53.8000
Z" /> 
</g>
<g style="fill:#000000; fill-opacity:1.0000; stroke:none;">
<circle cx="96.5000" cy="85.0000" r="0.9500" /> 
</g>
<g style="fill:#000000; fill-opacity:1.0000; stroke:none;">
<circle cx="96.8500" cy="80.0000" r="0.8000" /> 
</g>
<g style="fill:#000000; fill-opacity:1.0000; stroke:none;">
<circle cx="97.0000" cy="88.8000" r="1.5250" /> 
</g>
<g style="fill:#000000; fill-opacity:1.0000; stroke:none;">
<circle cx="102.0000" cy="85.0000" r="2.5250" /> 
</g>
<g style="fill:#000000; fill-opacity:1.0000; stroke:none;">
<circle cx="102.0000" cy="90.9000" r="1.5250" /> 
</g>
<g style="fill:#000000; fill-opacity:1.0000; stroke:none;">
<circle cx="107.0000" cy="79.8500" r="0.8000" /> 
</g>
<g style="fill:#000000; fill-opacity:1.0000; stroke:none;">
<circle cx="107.0000" cy="88.8000" r="1.5250" /> 
</g>
<g style="fill:#000000; fill-opacity:1.0000; stroke:none;">
<circle cx="107.5000" cy="85.0000" r="0.9500" /> 
<path style="fill:#000000; fill-opacity:1.0000; stroke:none;fill-rule:evenodd;"
d="M 106.7750,92.0000
106.7560,92.0957
106.7018,92.1768
106.6207,92.2310
106.5250,92.2500
104.4750,92.2500
104.3793,92.2310
104.2982,92.1768
104.2440,92.0957
104.2250,92.0000
104.2250,90.0000
104.2440,89.9043
104.2982,89.8232
104.3793,89.7690
104.4750,89.7500
106.5250,89.7500
106.6207,89.7690
106.7018,89.8232
106.7560,89.9043
106.7750,90.0000
Z" /> 
<path style="fill:#000000; fill-opacity:1.0000; stroke:none;fill-rule:evenodd;"
d="M 94.7750,89.8000
94.7560,89.8957
94.7018,89.9768
94.6207,90.0310
94.5250,90.0500
92.4750,90.0500
92.3793,90.0310
92.2982,89.9768
92.2440,89.8957
92.2250,89.8000
92.2250,87.8000
92.2440,87.7043
92.2982,87.6232
92.3793,87.5690
92.4750,87.5500
94.5250,87.5500
94.6207,87.5690
94.7018,87.6232
94.7560,87.7043
94.7750,87.8000
Z" /> 
</g>
<g style="fill:#000000; fill-opacity:1.0000; stroke:none;">
<circle cx="28.5000" cy="68.0000" r="0.9500" /> 
</g>
<g style="fill:#000000; fill-opacity:1.0000; stroke:none;">
<circle cx="28.8500" cy="63.0000" r="0.8000" /> 
</g>
<g style="fill:#000000; fill-opacity:1.0000; stroke:none;">
<circle cx="29.0000" cy="71.8000" r="1.5250" /> 
</g>
<g style="fill:#000000; fill-opacity:1.0000; stroke:none;">
<circle cx="34.0000" cy="68.0000" r="2.5250" /> 
</g>
<g style="fill:#000000; fill-opacity:1.0000; stroke:none;">
<circle cx="34.0000" cy="73.9000" r="1.5250" /> 
</g>
<g style="fill:#000000; fill-opacity:1.0000; stroke:none;">
<circle cx="39.0000" cy="62.8500" r="0.8000" /> 
</g>
<g style="fill:#000000; fill-opacity:1.0000; stroke:none;">
<circle cx="39.0000" cy="71.8000" r="1.5250" /> 
</g>
<g style="fill:#000000; fill-opacity:1.0000; stroke:none;">
<circle cx="39.5000" cy="68.0000" r="0.9500" /> 
<path style="fill:#000000; fill-opacity:1.0000; stroke:none;fill-rule:evenodd;"
d="M 38.7750,75.0000
38.7560,75.0957
38.7018,75.1768
38.6207,75.2310
38.5250,75.2500
36.4750,75.2500
36.3793,75.2310
36.2982,75.1768
36.2440,75.0957
36.2250,75.0000
36.2250,73.0000
36.2440,72.9043
36.2982,72.8232
36.3793,72.7690
36.4750,72.7500
38.5250,72.7500
38.6207,72.7690
38.7018,72.8232
38.7560,72.9043
38.7750,73.0000
Z" /> 
<path style="fill:#000000; fill-opacity:1.0000; stroke:none;fill-rule:evenodd;"
d="M 26.7750,72.8000
26.7560,72.8957
26.7018,72.9768
26.6207,73.0310
26.5250,73.0500
24.4750,73.0500
24.3793,73.0310
24.2982,72.9768
24.2440,72.8957
24.2250,72.8000
24.2250,70.8000
24.2440,70.7043
24.2982,70.6232
24.3793,70.5690
24.4750,70.5500
26.5250,70.5500
26.6207,70.5690
26.7018,70.6232
26.7560,70.7043
26.7750,70.8000
Z" /> 
<path style="fill:#000000; fill-opacity:1.0000; stroke:none;fill-rule:evenodd;"
d="M 35.0500,45.6250
35.0671,45.5389
35.1159,45.4659
35.1889,45.4171
35.2750,45.4000
35.7250,45.4000
35.8111,45.4171
35.8841,45.4659
35.9329,45.5389
35.9500,45.6250
35.9500,46.3750
35.9329,46.4611
35.8841,46.5341
35.8111,46.5829
35.7250,46.6000
35.2750,46.6000
35.1889,46.5829
35.1159,46.5341
35.0671,46.4611
35.0500,46.3750
Z" /> 
<path style="fill:#000000; fill-opacity:1.0000; stroke:none;fill-rule:evenodd;"
d="M 31.7500,45.6250
31.7671,45.5389
31.8159,45.4659
31.8889,45.4171
31.9750,45.4000
32.4250,45.4000
32.5111,45.4171
32.5841,45.4659
32.6329,45.5389
32.6500,45.6250
32.6500,46.3750
32.6329,46.4611
32.5841,46.5341
32.5111,46.5829
32.4250,46.6000
31.9750,46.6000
31.8889,46.5829
31.8159,46.5341
31.7671,46.4611
31.7500,46.3750
Z" /> 
</g>
<g style="fill:#000000; fill-opacity:1.0000; stroke:none;">
<circle cx="62.5000" cy="85.0000" r="0.9500" /> 
</g>
<g style="fill:#000000; fill-opacity:1.0000; stroke:none;">
<circle cx="62.8500" cy="80.0000" r="0.8000" /> 
</g>
<g style="fill:#000000; fill-opacity:1.0000; stroke:none;">
<circle cx="63.0000" cy="88.8000" r="1.5250" /> 
</g>
<g style="fill:#000000; fill-opacity:1.0000; stroke:none;">
<circle cx="68.0000" cy="85.0000" r="2.5250" /> 
</g>
<g style="fill:#000000; fill-opacity:1.0000; stroke:none;">
<circle cx="68.0000" cy="90.9000" r="1.5250" /> 
</g>
<g style="fill:#000000; fill-opacity:1.0000; stroke:none;">
<circle cx="73.0000" cy="79.8500" r="0.8000" /> 
</g>
<g style="fill:#000000; fill-opacity:1.0000; stroke:none;">
<circle cx="73.0000" cy="88.8000" r="1.5250" /> 
</g>
<g style="fill:#000000; fill-opacity:1.0000; stroke:none;">
<circle cx="73.5000" cy="85.0000" r="0.9500" /> 
<path style="fill:#000000; fill-opacity:1.0000; stroke:none;fill-rule:evenodd;"
d="M 72.7750,92.0000
72.7560,92.0957
72.7018,92.1768
72.6207,92.2310
72.5250,92.2500
70.4750,92.2500
70.3793,92.2310
70.2982,92.1768
70.2440,92.0957
70.2250,92.0000
70.2250,90.0000
70.2440,89.9043
70.2982,89.8232
70.3793,89.7690
70.4750,89.7500
72.5250,89.7500
72.6207,89.7690
72.7018,89.8232
72.7560,89.9043
72.7750,90.0000
Z" /> 
<path style="fill:#000000; fill-opacity:1.0000; stroke:none;fill-rule:evenodd;"
d="M 60.7750,89.8000
60.7560,89.8957
60.7018,89.9768
60.6207,90.0310
60.5250,90.0500
58.4750,90.0500
58.3793,90.0310
58.2982,89.9768
58.2440,89.8957
58.2250,89.8000
58.2250,87.8000
58.2440,87.7043
58.2982,87.6232
58.3793,87.5690
58.4750,87.5500
60.5250,87.5500
60.6207,87.5690
60.7018,87.6232
60.7560,87.7043
60.7750,87.8000
Z" /> 
</g>
<g style="fill:#000000; fill-opacity:1.0000; stroke:none;">
<circle cx="159.0000" cy="25.0000" r="1.9000" /> 
</g>
<g style="fill:#000000; fill-opacity:1.0000; stroke:none;">
<circle cx="113.5000" cy="102.0000" r="0.9500" /> 
</g>
<g style="fill:#000000; fill-opacity:1.0000; stroke:none;">
<circle cx="113.8500" cy="97.0000" r="0.8000" /> 
</g>
<g style="fill:#000000; fill-opacity:1.0000; stroke:none;">
<circle cx="114.0000" cy="105.8000" r="1.5250" /> 
</g>
<g style="fill:#000000; fill-opacity:1.0000; stroke:none;">
<circle cx="119.0000" cy="102.0000" r="2.5250" /> 
</g>
<g style="fill:#000000; fill-opacity:1.0000; stroke:none;">
<circle cx="119.0000" cy="107.9000" r="1.5250" /> 
</g>
<g style="fill:#000000; fill-opacity:1.0000; stroke:none;">
<circle cx="124.0000" cy="96.8500" r="0.8000" /> 
</g>
<g style="fill:#000000; fill-opacity:1.0000; stroke:none;">
<circle cx="124.0000" cy="105.8000" r="1.5250" /> 
</g>
<g style="fill:#000000; fill-opacity:1.0000; stroke:none;">
<circle cx="124.5000" cy="102.0000" r="0.9500" /> 
<path style="fill:#000000; fill-opacity:1.0000; stroke:none;fill-rule:evenodd;"
d="M 123.7750,109.0000
123.7560,109.0957
123.7018,109.1768
123.6207,109.2310
123.5250,109.2500
121.4750,109.2500
121.3793,109.2310
121.2982,109.1768
121.2440,109.0957
121.2250,109.0000
121.2250,107.0000
121.2440,106.9043
121.2982,106.8232
121.3793,106.7690
121.4750,106.7500
123.5250,106.7500
123.6207,106.7690
123.7018,106.8232
123.7560,106.9043
123.7750,107.0000
Z" /> 
<path style="fill:#000000; fill-opacity:1.0000; stroke:none;fill-rule:evenodd;"
d="M 111.7750,106.8000
111.7560,106.8957
111.7018,106.9768
111.6207,107.0310
111.5250,107.0500
109.4750,107.0500
109.3793,107.0310
109.2982,106.9768
109.2440,106.8957
109.2250,106.8000
109.2250,104.8000
109.2440,104.7043
109.2982,104.6232
109.3793,104.5690
109.4750,104.5500
111.5250,104.5500
111.6207,104.5690
111.7018,104.6232
111.7560,104.7043
111.7750,104.8000
Z" /> 
</g>
<g style="fill:#000000; fill-opacity:1.0000; stroke:none;">
<circle cx="62.5000" cy="34.0000" r="0.9500" /> 
</g>
<g style="fill:#000000; fill-opacity:1.0000; stroke:none;">
<circle cx="62.8500" cy="29.0000" r="0.8000" /> 
</g>
<g style="fill:#000000; fill-opacity:1.0000; stroke:none;">
<circle cx="63.0000" cy="37.8000" r="1.5250" /> 
</g>
<g style="fill:#000000; fill-opacity:1.0000; stroke:none;">
<circle cx="68.0000" cy="34.0000" r="2.5250" /> 
</g>
<g style="fill:#000000; fill-opacity:1.0000; stroke:none;">
<circle cx="68.0000" cy="39.9000" r="1.5250" /> 
</g>
<g style="fill:#000000; fill-opacity:1.0000; stroke:none;">
<circle cx="73.0000" cy="28.8500" r="0.8000" /> 
</g>
<g style="fill:#000000; fill-opacity:1.0000; stroke:none;">
<circle cx="73.0000" cy="37.8000" r="1.5250" /> 
</g>
<g style="fill:#000000; fill-opacity:1.0000; stroke:none;">
<circle cx="73.5000" cy="34.0000" r="0.9500" /> 
<path style="fill:#000000; fill-opacity:1.0000; stroke:none;fill-rule:evenodd;"
d="M 72.7750,41.0000
72.7560,41.0957
72.7018,41.1768
72.6207,41.2310
72.5250,41.2500
70.4750,41.2500
70.3793,41.2310
70.2982,41.1768
70.2440,41.0957
70.2250,41.0000
70.2250,39.0000
70.2440,38.9043
70.2982,38.8232
70.3793,38.7690
70.4750,38.7500
72.5250,38.7500
72.6207,38.7690
72.7018,38.8232
72.7560,38.9043
72.7750,39.0000
Z" /> 
<path style="fill:#000000; fill-opacity:1.0000; stroke:none;fill-rule:evenodd;"
d="M 60.7750,38.8000
60.7560,38.8957
60.7018,38.9768
60.6207,39.0310
60.5250,39.0500
58.4750,39.0500
58.3793,39.0310
58.2982,38.9768
58.2440,38.8957
58.2250,38.8000
58.2250,36.8000
58.2440,36.7043
58.2982,36.6232
58.3793,36.5690
58.4750,36.5500
60.5250,36.5500
60.6207,36.5690
60.7018,36.6232
60.7560,36.7043
60.7750,36.8000
Z" /> 
</g>
<g style="fill:#000000; fill-opacity:1.0000; stroke:none;">
<circle cx="79.5000" cy="34.0000" r="0.9500" /> 
</g>
<g style="fill:#000000; fill-opacity:1.0000; stroke:none;">
<circle cx="79.8500" cy="29.0000" r="0.8000" /> 
</g>
<g style="fill:#000000; fill-opacity:1.0000; stroke:none;">
<circle cx="80.0000" cy="37.8000" r="1.5250" /> 
</g>
<g style="fill:#000000; fill-opacity:1.0000; stroke:none;">
<circle cx="85.0000" cy="34.0000" r="2.5250" /> 
</g>
<g style="fill:#000000; fill-opacity:1.0000; stroke:none;">
<circle cx="85.0000" cy="39.9000" r="1.5250" /> 
</g>
<g style="fill:#000000; fill-opacity:1.0000; stroke:none;">
<circle cx="90.0000" cy="28.8500" r="0.8000" /> 
</g>
<g style="fill:#000000; fill-opacity:1.0000; stroke:none;">
<circle cx="90.0000" cy="37.8000" r="1.5250" /> 
</g>
<g style="fill:#000000; fill-opacity:1.0000; stroke:none;">
<circle cx="90.5000" cy="34.0000" r="0.9500" /> 
<path style="fill:#000000; fill-opacity:1.0000; stroke:none;fill-rule:evenodd;"
d="M 89.7750,41.0000
89.7560,41.0957
89.7018,41.1768
89.6207,41.2310
89.5250,41.2500
87.4750,41.2500
87.3793,41.2310
87.2982,41.1768
87.2440,41.0957
87.2250,41.0000
87.2250,39.0000
87.2440,38.9043
87.2982,38.8232
87.3793,38.7690
87.4750,38.7500
89.5250,38.7500
89.6207,38.7690
89.7018,38.8232
89.7560,38.9043
89.7750,39.0000
Z" /> 
<path style="fill:#000000; fill-opacity:1.0000; stroke:none;fill-rule:evenodd;"
d="M 77.7750,38.8000
77.7560,38.8957
77.7018,38.9768
77.6207,39.0310
77.5250,39.0500
75.4750,39.0500
75.3793,39.0310
75.2982,38.9768
75.2440,38.8957
75.2250,38.8000
75.2250,36.8000
75.2440,36.7043
75.2982,36.6232
75.3793,36.5690
75.4750,36.5500
77.5250,36.5500
77.6207,36.5690
77.7018,36.6232
77.7560,36.7043
77.7750,36.8000
Z" /> 
</g>
<g style="fill:#000000; fill-opacity:1.0000; stroke:none;">
<circle cx="79.5000" cy="85.0000" r="0.9500" /> 
</g>
<g style="fill:#000000; fill-opacity:1.0000; stroke:none;">
<circle cx="79.8500" cy="80.0000" r="0.8000" /> 
</g>
<g style="fill:#000000; fill-opacity:1.0000; stroke:none;">
<circle cx="80.0000" cy="88.8000" r="1.5250" /> 
</g>
<g style="fill:#000000; fill-opacity:1.0000; stroke:none;">
<circle cx="85.0000" cy="85.0000" r="2.5250" /> 
</g>
<g style="fill:#000000; fill-opacity:1.0000; stroke:none;">
<circle cx="85.0000" cy="90.9000" r="1.5250" /> 
</g>
<g style="fill:#000000; fill-opacity:1.0000; stroke:none;">
<circle cx="90.0000" cy="79.8500" r="0.8000" /> 
</g>
<g style="fill:#000000; fill-opacity:1.0000; stroke:none;">
<circle cx="90.0000" cy="88.8000" r="1.5250" /> 
</g>
<g style="fill:#000000; fill-opacity:1.0000; stroke:none;">
<circle cx="90.5000" cy="85.0000" r="0.9500" /> 
<path style="fill:#000000; fill-opacity:1.0000; stroke:none;fill-rule:evenodd;"
d="M 89.7750,92.0000
89.7560,92.0957
89.7018,92.1768
89.6207,92.2310
89.5250,92.2500
87.4750,92.2500
87.3793,92.2310
87.2982,92.1768
87.2440,92.0957
87.2250,92.0000
87.2250,90.0000
87.2440,89.9043
87.2982,89.8232
87.3793,89.7690
87.4750,89.7500
89.5250,89.7500
89.6207,89.7690
89.7018,89.8232
89.7560,89.9043
89.7750,90.0000
Z" /> 
<path style="fill:#000000; fill-opacity:1.0000; stroke:none;fill-rule:evenodd;"
d="M 77.7750,89.8000
77.7560,89.8957
77.7018,89.9768
77.6207,90.0310
77.5250,90.0500
75.4750,90.0500
75.3793,90.0310
75.2982,89.9768
75.2440,89.8957
75.2250,89.8000
75.2250,87.8000
75.2440,87.7043
75.2982,87.6232
75.3793,87.5690
75.4750,87.5500
77.5250,87.5500
77.6207,87.5690
77.7018,87.6232
77.7560,87.7043
77.7750,87.8000
Z" /> 
</g>
<g style="fill:#000000; fill-opacity:1.0000; stroke:none;">
<circle cx="96.5000" cy="51.0000" r="0.9500" /> 
</g>
<g style="fill:#000000; fill-opacity:1.0000; stroke:none;">
<circle cx="96.8500" cy="46.0000" r="0.8000" /> 
</g>
<g style="fill:#000000; fill-opacity:1.0000; stroke:none;">
<circle cx="97.0000" cy="54.8000" r="1.5250" /> 
</g>
<g style="fill:#000000; fill-opacity:1.0000; stroke:none;">
<circle cx="102.0000" cy="51.0000" r="2.5250" /> 
</g>
<g style="fill:#000000; fill-opacity:1.0000; stroke:none;">
<circle cx="102.0000" cy="56.9000" r="1.5250" /> 
</g>
<g style="fill:#000000; fill-opacity:1.0000; stroke:none;">
<circle cx="107.0000" cy="45.8500" r="0.8000" /> 
</g>
<g style="fill:#000000; fill-opacity:1.0000; stroke:none;">
<circle cx="107.0000" cy="54.8000" r="1.5250" /> 
</g>
<g style="fill:#000000; fill-opacity:1.0000; stroke:none;">
<circle cx="107.5000" cy="51.0000" r="0.9500" /> 
<path style="fill:#000000; fill-opacity:1.0000; stroke:none;fill-rule:evenodd;"
d="M 106.7750,58.0000
106.7560,58.0957
106.7018,58.1768
106.6207,58.2310
106.5250,58.2500
104.4750,58.2500
104.3793,58.2310
104.2982,58.1768
104.2440,58.0957
104.2250,58.0000
104.2250,56.0000
104.2440,55.9043
104.2982,55.8232
104.3793,55.7690
104.4750,55.7500
106.5250,55.7500
106.6207,55.7690
106.7018,55.8232
106.7560,55.9043
106.7750,56.0000
Z" /> 
<path style="fill:#000000; fill-opacity:1.0000; stroke:none;fill-rule:evenodd;"
d="M 94.7750,55.8000
94.7560,55.8957
94.7018,55.9768
94.6207,56.0310
94.5250,56.0500
92.4750,56.0500
92.3793,56.0310
92.2982,55.9768
92.2440,55.8957
92.2250,55.8000
92.2250,53.8000
92.2440,53.7043
92.2982,53.6232
92.3793,53.5690
92.4750,53.5500
94.5250,53.5500
94.6207,53.5690
94.7018,53.6232
94.7560,53.7043
94.7750,53.8000
Z" /> 
</g>
<g style="fill:#000000; fill-opacity:1.0000; stroke:none;">
<circle cx="79.5000" cy="102.0000" r="0.9500" /> 
</g>
<g style="fill:#000000; fill-opacity:1.0000; stroke:none;">
<circle cx="79.8500" cy="97.0000" r="0.8000" /> 
</g>
<g style="fill:#000000; fill-opacity:1.0000; stroke:none;">
<circle cx="80.0000" cy="105.8000" r="1.5250" /> 
</g>
<g style="fill:#000000; fill-opacity:1.0000; stroke:none;">
<circle cx="85.0000" cy="102.0000" r="2.5250" /> 
</g>
<g style="fill:#000000; fill-opacity:1.0000; stroke:none;">
<circle cx="85.0000" cy="107.9000" r="1.5250" /> 
</g>
<g style="fill:#000000; fill-opacity:1.0000; stroke:none;">
<circle cx="90.0000" cy="96.8500" r="0.8000" /> 
</g>
<g style="fill:#000000; fill-opacity:1.0000; stroke:none;">
<circle cx="90.0000" cy="105.8000" r="1.5250" /> 
</g>
<g style="fill:#000000; fill-opacity:1.0000; stroke:none;">
<circle cx="90.5000" cy="102.0000" r="0.9500" /> 
<path style="fill:#000000; fill-opacity:1.0000; stroke:none;fill-rule:evenodd;"
d="M 89.7750,109.0000
89.7560,109.0957
89.7018,109.1768
89.6207,109.2310
89.5250,109.2500
87.4750,109.2500
87.3793,109.2310
87.2982,109.1768
87.2440,109.0957
87.2250,109.0000
87.2250,107.0000
87.2440,106.9043
87.2982,106.8232
87.3793,106.7690
87.4750,106.7500
89.5250,106.7500
89.6207,106.7690
89.7018,106.8232
89.7560,106.9043
89.7750,107.0000
Z" /> 
<path style="fill:#000000; fill-opacity:1.0000; stroke:none;fill-rule:evenodd;"
d="M 77.7750,106.8000
77.7560,106.8957
77.7018,106.9768
77.6207,107.0310
77.5250,107.0500
75.4750,107.0500
75.3793,107.0310
75.2982,106.9768
75.2440,106.8957
75.2250,106.8000
75.2250,104.8000
75.2440,104.7043
75.2982,104.6232
75.3793,104.5690
75.4750,104.5500
77.5250,104.5500
77.6207,104.5690
77.7018,104.6232
77.7560,104.7043
77.7750,104.8000
Z" /> 
</g>
<g style="fill:#000000; fill-opacity:1.0000; stroke:none;">
<circle cx="96.5000" cy="68.0000" r="0.9500" /> 
</g>
<g style="fill:#000000; fill-opacity:1.0000; stroke:none;">
<circle cx="96.8500" cy="63.0000" r="0.8000" /> 
</g>
<g style="fill:#000000; fill-opacity:1.0000; stroke:none;">
<circle cx="97.0000" cy="71.8000" r="1.5250" /> 
</g>
<g style="fill:#000000; fill-opacity:1.0000; stroke:none;">
<circle cx="102.0000" cy="68.0000" r="2.5250" /> 
</g>
<g style="fill:#000000; fill-opacity:1.0000; stroke:none;">
<circle cx="102.0000" cy="73.9000" r="1.5250" /> 
</g>
<g style="fill:#000000; fill-opacity:1.0000; stroke:none;">
<circle cx="107.0000" cy="62.8500" r="0.8000" /> 
</g>
<g style="fill:#000000; fill-opacity:1.0000; stroke:none;">
<circle cx="107.0000" cy="71.8000" r="1.5250" /> 
</g>
<g style="fill:#000000; fill-opacity:1.0000; stroke:none;">
<circle cx="107.5000" cy="68.0000" r="0.9500" /> 
<path style="fill:#000000; fill-opacity:1.0000; stroke:none;fill-rule:evenodd;"
d="M 106.7750,75.0000
106.7560,75.0957
106.7018,75.1768
106.6207,75.2310
106.5250,75.2500
104.4750,75.2500
104.3793,75.2310
104.2982,75.1768
104.2440,75.0957
104.2250,75.0000
104.2250,73.0000
104.2440,72.9043
104.2982,72.8232
104.3793,72.7690
104.4750,72.7500
106.5250,72.7500
106.6207,72.7690
106.7018,72.8232
106.7560,72.9043
106.7750,73.0000
Z" /> 
<path style="fill:#000000; fill-opacity:1.0000; stroke:none;fill-rule:evenodd;"
d="M 94.7750,72.8000
94.7560,72.8957
94.7018,72.9768
94.6207,73.0310
94.5250,73.0500
92.4750,73.0500
92.3793,73.0310
92.2982,72.9768
92.2440,72.8957
92.2250,72.8000
92.2250,70.8000
92.2440,70.7043
92.2982,70.6232
92.3793,70.5690
92.4750,70.5500
94.5250,70.5500
94.6207,70.5690
94.7018,70.6232
94.7560,70.7043
94.7750,70.8000
Z" /> 
</g>
<g style="fill:#000000; fill-opacity:1.0000; stroke:none;">
<circle cx="28.5000" cy="34.0000" r="0.9500" /> 
</g>
<g style="fill:#000000; fill-opacity:1.0000; stroke:none;">
<circle cx="28.8500" cy="29.0000" r="0.8000" /> 
</g>
<g style="fill:#000000; fill-opacity:1.0000; stroke:none;">
<circle cx="29.0000" cy="37.8000" r="1.5250" /> 
</g>
<g style="fill:#000000; fill-opacity:1.0000; stroke:none;">
<circle cx="34.0000" cy="34.0000" r="2.5250" /> 
</g>
<g style="fill:#000000; fill-opacity:1.0000; stroke:none;">
<circle cx="34.0000" cy="39.9000" r="1.5250" /> 
</g>
<g style="fill:#000000; fill-opacity:1.0000; stroke:none;">
<circle cx="39.0000" cy="28.8500" r="0.8000" /> 
</g>
<g style="fill:#000000; fill-opacity:1.0000; stroke:none;">
<circle cx="39.0000" cy="37.8000" r="1.5250" /> 
</g>
<g style="fill:#000000; fill-opacity:1.0000; stroke:none;">
<circle cx="39.5000" cy="34.0000" r="0.9500" /> 
<path style="fill:#000000; fill-opacity:1.0000; stroke:none;fill-rule:evenodd;"
d="M 38.7750,41.0000
38.7560,41.0957
38.7018,41.1768
38.6207,41.2310
38.5250,41.2500
36.4750,41.2500
36.3793,41.2310
36.2982,41.1768
36.2440,41.0957
36.2250,41.0000
36.2250,39.0000
36.2440,38.9043
36.2982,38.8232
36.3793,38.7690
36.4750,38.7500
38.5250,38.7500
38.6207,38.7690
38.7018,38.8232
38.7560,38.9043
38.7750,39.0000
Z" /> 
<path style="fill:#000000; fill-opacity:1.0000; stroke:none;fill-rule:evenodd;"
d="M 26.7750,38.8000
26.7560,38.8957
26.7018,38.9768
26.6207,39.0310
26.5250,39.0500
24.4750,39.0500
24.3793,39.0310
24.2982,38.9768
24.2440,38.8957
24.2250,38.8000
24.2250,36.8000
24.2440,36.7043
24.2982,36.6232
24.3793,36.5690
24.4750,36.5500
26.5250,36.5500
26.6207,36.5690
26.7018,36.6232
26.7560,36.7043
26.7750,36.8000
Z" /> 
</g>
<g style="fill:#000000; fill-opacity:1.0000; stroke:none;">
<circle cx="25.0000" cy="25.0000" r="1.9000" /> 
</g>
<g style="fill:#000000; fill-opacity:1.0000; stroke:none;">
<circle cx="45.5000" cy="68.0000" r="0.9500" /> 
</g>
<g style="fill:#000000; fill-opacity:1.0000; stroke:none;">
<circle cx="45.8500" cy="63.0000" r="0.8000" /> 
</g>
<g style="fill:#000000; fill-opacity:1.0000; stroke:none;">
<circle cx="46.0000" cy="71.8000" r="1.5250" /> 
</g>
<g style="fill:#000000; fill-opacity:1.0000; stroke:none;">
<circle cx="51.0000" cy="68.0000" r="2.5250" /> 
</g>
<g style="fill:#000000; fill-opacity:1.0000; stroke:none;">
<circle cx="51.0000" cy="73.9000" r="1.5250" /> 
</g>
<g style="fill:#000000; fill-opacity:1.0000; stroke:none;">
<circle cx="56.0000" cy="62.8500" r="0.8000" /> 
</g>
<g style="fill:#000000; fill-opacity:1.0000; stroke:none;">
<circle cx="56.0000" cy="71.8000" r="1.5250" /> 
</g>
<g style="fill:#000000; fill-opacity:1.0000; stroke:none;">
<circle cx="56.5000" cy="68.0000" r="0.9500" /> 
<path style="fill:#000000; fill-opacity:1.0000; stroke:none;fill-rule:evenodd;"
d="M 55.7750,75.0000
55.7560,75.0957
55.7018,75.1768
55.6207,75.2310
55.5250,75.2500
53.4750,75.2500
53.3793,75.2310
53.2982,75.1768
53.2440,75.0957
53.2250,75.0000
53.2250,73.0000
53.2440,72.9043
53.2982,72.8232
53.3793,72.7690
53.4750,72.7500
55.5250,72.7500
55.6207,72.7690
55.7018,72.8232
55.7560,72.9043
55.7750,73.0000
Z" /> 
<path style="fill:#000000; fill-opacity:1.0000; stroke:none;fill-rule:evenodd;"
d="M 43.7750,72.8000
43.7560,72.8957
43.7018,72.9768
43.6207,73.0310
43.5250,73.0500
41.4750,73.0500
41.3793,73.0310
41.2982,72.9768
41.2440,72.8957
41.2250,72.8000
41.2250,70.8000
41.2440,70.7043
41.2982,70.6232
41.3793,70.5690
41.4750,70.5500
43.5250,70.5500
43.6207,70.5690
43.7018,70.6232
43.7560,70.7043
43.7750,70.8000
Z" /> 
</g>
<g style="fill:#000000; fill-opacity:1.0000; stroke:none;">
<circle cx="45.5000" cy="85.0000" r="0.9500" /> 
</g>
<g style="fill:#000000; fill-opacity:1.0000; stroke:none;">
<circle cx="45.8500" cy="80.0000" r="0.8000" /> 
</g>
<g style="fill:#000000; fill-opacity:1.0000; stroke:none;">
<circle cx="46.0000" cy="88.8000" r="1.5250" /> 
</g>
<g style="fill:#000000; fill-opacity:1.0000; stroke:none;">
<circle cx="51.0000" cy="85.0000" r="2.5250" /> 
</g>
<g style="fill:#000000; fill-opacity:1.0000; stroke:none;">
<circle cx="51.0000" cy="90.9000" r="1.5250" /> 
</g>
<g style="fill:#000000; fill-opacity:1.0000; stroke:none;">
<circle cx="56.0000" cy="79.8500" r="0.8000" /> 
</g>
<g style="fill:#000000; fill-opacity:1.0000; stroke:none;">
<circle cx="56.0000" cy="88.8000" r="1.5250" /> 
</g>
<g style="fill:#000000; fill-opacity:1.0000; stroke:none;">
<circle cx="56.5000" cy="85.0000" r="0.9500" /> 
<path style="fill:#000000; fill-opacity:1.0000; stroke:none;fill-rule:evenodd;"
d="M 55.7750,92.0000
55.7560,92.0957
55.7018,92.1768
55.6207,92.2310
55.5250,92.2500
53.4750,92.2500
53.3793,92.2310
53.2982,92.1768
53.2440,92.0957
53.2250,92.0000
53.2250,90.0000
53.2440,89.9043
53.2982,89.8232
53.3793,89.7690
53.4750,89.7500
55.5250,89.7500
55.6207,89.7690
55.7018,89.8232
55.7560,89.9043
55.7750,90.0000
Z" /> 
<path style="fill:#000000; fill-opacity:1.0000; stroke:none;fill-rule:evenodd;"
d="M 43.7750,89.8000
43.7560,89.8957
43.7018,89.9768
43.6207,90.0310
43.5250,90.0500
41.4750,90.0500
41.3793,90.0310
41.2982,89.9768
41.2440,89.8957
41.2250,89.8000
41.2250,87.8000
41.2440,87.7043
41.2982,87.6232
41.3793,87.5690
41.4750,87.5500
43.5250,87.5500
43.6207,87.5690
43.7018,87.6232
43.7560,87.7043
43.7750,87.8000
Z" /> 
</g>
<g style="fill:#000000; fill-opacity:1.0000; stroke:none;">
<circle cx="45.5000" cy="102.0000" r="0.9500" /> 
</g>
<g style="fill:#000000; fill-opacity:1.0000; stroke:none;">
<circle cx="45.8500" cy="97.0000" r="0.8000" /> 
</g>
<g style="fill:#000000; fill-opacity:1.0000; stroke:none;">
<circle cx="46.0000" cy="105.8000" r="1.5250" /> 
</g>
<g style="fill:#000000; fill-opacity:1.0000; stroke:none;">
<circle cx="51.0000" cy="102.0000" r="2.5250" /> 
</g>
<g style="fill:#000000; fill-opacity:1.0000; stroke:none;">
<circle cx="51.0000" cy="107.9000" r="1.5250" /> 
</g>
<g style="fill:#000000; fill-opacity:1.0000; stroke:none;">
<circle cx="56.0000" cy="96.8500" r="0.8000" /> 
</g>
<g style="fill:#000000; fill-opacity:1.0000; stroke:none;">
<circle cx="56.0000" cy="105.8000" r="1.5250" /> 
</g>
<g style="fill:#000000; fill-opacity:1.0000; stroke:none;">
<circle cx="56.5000" cy="102.0000" r="0.9500" /> 
<path style="fill:#000000; fill-opacity:1.0000; stroke:none;fill-rule:evenodd;"
d="M 55.7750,109.0000
55.7560,109.0957
55.7018,109.1768
55.6207,109.2310
55.5250,109.2500
53.4750,109.2500
53.3793,109.2310
53.2982,109.1768
53.2440,109.0957
53.2250,109.0000
53.2250,107.0000
53.2440,106.9043
53.2982,106.8232
53.3793,106.7690
53.4750,106.7500
55.5250,106.7500
55.6207,106.7690
55.7018,106.8232
55.7560,106.9043
55.7750,107.0000
Z" /> 
<path style="fill:#000000; fill-opacity:1.0000; stroke:none;fill-rule:evenodd;"
d="M 43.7750,106.8000
43.7560,106.8957
43.7018,106.9768
43.6207,107.0310
43.5250,107.0500
41.4750,107.0500
41.3793,107.0310
41.2982,106.9768
41.2440,106.8957
41.2250,106.8000
41.2250,104.8000
41.2440,104.7043
41.2982,104.6232
41.3793,104.5690
41.4750,104.5500
43.5250,104.5500
43.6207,104.5690
43.7018,104.6232
43.7560,104.7043
43.7750,104.8000
Z" /> 
</g>
<g style="fill:#000000; fill-opacity:1.0000; stroke:none;">
<circle cx="62.5000" cy="68.0000" r="0.9500" /> 
</g>
<g style="fill:#000000; fill-opacity:1.0000; stroke:none;">
<circle cx="62.8500" cy="63.0000" r="0.8000" /> 
</g>
<g style="fill:#000000; fill-opacity:1.0000; stroke:none;">
<circle cx="63.0000" cy="71.8000" r="1.5250" /> 
</g>
<g style="fill:#000000; fill-opacity:1.0000; stroke:none;">
<circle cx="68.0000" cy="68.0000" r="2.5250" /> 
</g>
<g style="fill:#000000; fill-opacity:1.0000; stroke:none;">
<circle cx="68.0000" cy="73.9000" r="1.5250" /> 
</g>
<g style="fill:#000000; fill-opacity:1.0000; stroke:none;">
<circle cx="73.0000" cy="62.8500" r="0.8000" /> 
</g>
<g style="fill:#000000; fill-opacity:1.0000; stroke:none;">
<circle cx="73.0000" cy="71.8000" r="1.5250" /> 
</g>
<g style="fill:#000000; fill-opacity:1.0000; stroke:none;">
<circle cx="73.5000" cy="68.0000" r="0.9500" /> 
<path style="fill:#000000; fill-opacity:1.0000; stroke:none;fill-rule:evenodd;"
d="M 72.7750,75.0000
72.7560,75.0957
72.7018,75.1768
72.6207,75.2310
72.5250,75.2500
70.4750,75.2500
70.3793,75.2310
70.2982,75.1768
70.2440,75.0957
70.2250,75.0000
70.2250,73.0000
70.2440,72.9043
70.2982,72.8232
70.3793,72.7690
70.4750,72.7500
72.5250,72.7500
72.6207,72.7690
72.7018,72.8232
72.7560,72.9043
72.7750,73.0000
Z" /> 
<path style="fill:#000000; fill-opacity:1.0000; stroke:none;fill-rule:evenodd;"
d="M 60.7750,72.8000
60.7560,72.8957
60.7018,72.9768
60.6207,73.0310
60.5250,73.0500
58.4750,73.0500
58.3793,73.0310
58.2982,72.9768
58.2440,72.8957
58.2250,72.8000
58.2250,70.8000
58.2440,70.7043
58.2982,70.6232
58.3793,70.5690
58.4750,70.5500
60.5250,70.5500
60.6207,70.5690
60.7018,70.6232
60.7560,70.7043
60.7750,70.8000
Z" /> 
<path style="fill:#000000; fill-opacity:1.0000; stroke:none;fill-rule:evenodd;"
d="M 69.0500,96.6250
69.0671,96.5389
69.1159,96.4659
69.1889,96.4171
69.2750,96.4000
69.7250,96.4000
69.8111,96.4171
69.8841,96.4659
69.9329,96.5389
69.9500,96.6250
69.9500,97.3750
69.9329,97.4611
69.8841,97.5341
69.8111,97.5829
69.7250,97.6000
69.2750,97.6000
69.1889,97.5829
69.1159,97.5341
69.0671,97.4611
69.0500,97.3750
Z" /> 
<path style="fill:#000000; fill-opacity:1.0000; stroke:none;fill-rule:evenodd;"
d="M 65.7500,96.6250
65.7671,96.5389
65.8159,96.4659
65.8889,96.4171
65.9750,96.4000
66.4250,96.4000
66.5111,96.4171
66.5841,96.4659
66.6329,96.5389
66.6500,96.6250
66.6500,97.3750
66.6329,97.4611
66.5841,97.5341
66.5111,97.5829
66.4250,97.6000
65.9750,97.6000
65.8889,97.5829
65.8159,97.5341
65.7671,97.4611
65.7500,97.3750
Z" /> 
<path style="fill:#000000; fill-opacity:1.0000; stroke:none;fill-rule:evenodd;"
d="M 120.0500,62.6250
120.0671,62.5389
120.1159,62.4659
120.1889,62.4171
120.2750,62.4000
120.7250,62.4000
120.8111,62.4171
120.8841,62.4659
120.9329,62.5389
120.9500,62.6250
120.9500,63.3750
120.9329,63.4611
120.8841,63.5341
120.8111,63.5829
120.7250,63.6000
120.2750,63.6000
120.1889,63.5829
120.1159,63.5341
120.0671,63.4611
120.0500,63.3750
Z" /> 
<path style="fill:#000000; fill-opacity:1.0000; stroke:none;fill-rule:evenodd;"
d="M 116.7500,62.6250
116.7671,62.5389
116.8159,62.4659
116.8889,62.4171
116.9750,62.4000
117.4250,62.4000
117.5111,62.4171
117.5841,62.4659
117.6329,62.5389
117.6500,62.6250
117.6500,63.3750
117.6329,63.4611
117.5841,63.5341
117.5111,63.5829
117.4250,63.6000
116.9750,63.6000
116.8889,63.5829
116.8159,63.5341
116.7671,63.4611
116.7500,63.3750
Z" /> 
<path style="fill:#000000; fill-opacity:1.0000; stroke:none;fill-rule:evenodd;"
d="M 69.0500,45.6250
69.0671,45.5389
69.1159,45.4659
69.1889,45.4171
69.2750,45.4000
69.7250,45.4000
69.8111,45.4171
69.8841,45.4659
69.9329,45.5389
69.9500,45.6250
69.9500,46.3750
69.9329,46.4611
69.8841,46.5341
69.8111,46.5829
69.7250,46.6000
69.2750,46.6000
69.1889,46.5829
69.1159,46.5341
69.0671,46.4611
69.0500,46.3750
Z" /> 
<path style="fill:#000000; fill-opacity:1.0000; stroke:none;fill-rule:evenodd;"
d="M 65.7500,45.6250
65.7671,45.5389
65.8159,45.4659
65.8889,45.4171
65.9750,45.4000
66.4250,45.4000
66.5111,45.4171
66.5841,45.4659
66.6329,45.5389
66.6500,45.6250
66.6500,46.3750
66.6329,46.4611
66.5841,46.5341
66.5111,46.5829
66.4250,46.6000
65.9750,46.6000
65.8889,46.5829
65.8159,46.5341
65.7671,46.4611
65.7500,46.3750
Z" /> 
<path style="fill:#000000; fill-opacity:1.0000; stroke:none;fill-rule:evenodd;"
d="M 86.0500,45.6250
86.0671,45.5389
86.1159,45.4659
86.1889,45.4171
86.2750,45.4000
86.7250,45.4000
86.8111,45.4171
86.8841,45.4659
86.9329,45.5389
86.9500,45.6250
86.9500,46.3750
86.9329,46.4611
86.8841,46.5341
86.8111,46.5829
86.7250,46.6000
86.2750,46.6000
86.1889,46.5829
86.1159,46.5341
86.0671,46.4611
86.0500,46.3750
Z" /> 
<path style="fill:#000000; fill-opacity:1.0000; stroke:none;fill-rule:evenodd;"
d="M 82.7500,45.6250
82.7671,45.5389
82.8159,45.4659
82.8889,45.4171
82.9750,45.4000
83.4250,45.4000
83.5111,45.4171
83.5841,45.4659
83.6329,45.5389
83.6500,45.6250
83.6500,46.3750
83.6329,46.4611
83.5841,46.5341
83.5111,46.5829
83.4250,46.6000
82.9750,46.6000
82.8889,46.5829
82.8159,46.5341
82.7671,46.4611
82.7500,46.3750
Z" /> 
<path style="fill:#000000; fill-opacity:1.0000; stroke:none;fill-rule:evenodd;"
d="M 69.0500,62.6250
69.0671,62.5389
69.1159,62.4659
69.1889,62.4171
69.2750,62.4000
69.7250,62.4000
69.8111,62.4171
69.8841,62.4659
69.9329,62.5389
69.9500,62.6250
69.9500,63.3750
69.9329,63.4611
69.8841,63.5341
69.8111,63.5829
69.7250,63.6000
69.2750,63.6000
69.1889,63.5829
69.1159,63.5341
69.0671,63.4611
69.0500,63.3750
Z" /> 
<path style="fill:#000000; fill-opacity:1.0000; stroke:none;fill-rule:evenodd;"
d="M 65.7500,62.6250
65.7671,62.5389
65.8159,62.4659
65.8889,62.4171
65.9750,62.4000
66.4250,62.4000
66.5111,62.4171
66.5841,62.4659
66.6329,62.5389
66.6500,62.6250
66.6500,63.3750
66.6329,63.4611
66.5841,63.5341
66.5111,63.5829
66.4250,63.6000
65.9750,63.6000
65.8889,63.5829
65.8159,63.5341
65.7671,63.4611
65.7500,63.3750
Z" /> 
<path style="fill:#000000; fill-opacity:1.0000; stroke:none;fill-rule:evenodd;"
d="M 86.0500,79.6250
86.0671,79.5389
86.1159,79.4659
86.1889,79.4171
86.2750,79.4000
86.7250,79.4000
86.8111,79.4171
86.8841,79.4659
86.9329,79.5389
86.9500,79.6250
86.9500,80.3750
86.9329,80.4611
86.8841,80.5341
86.8111,80.5829
86.7250,80.6000
86.2750,80.6000
86.1889,80.5829
86.1159,80.5341
86.0671,80.4611
86.0500,80.3750
Z" /> 
<path style="fill:#000000; fill-opacity:1.0000; stroke:none;fill-rule:evenodd;"
d="M 82.7500,79.6250
82.7671,79.5389
82.8159,79.4659
82.8889,79.4171
82.9750,79.4000
83.4250,79.4000
83.5111,79.4171
83.5841,79.4659
83.6329,79.5389
83.6500,79.6250
83.6500,80.3750
83.6329,80.4611
83.5841,80.5341
83.5111,80.5829
83.4250,80.6000
82.9750,80.6000
82.8889,80.5829
82.8159,80.5341
82.7671,80.4611
82.7500,80.3750
Z" /> 
<path style="fill:#000000; fill-opacity:1.0000; stroke:none;fill-rule:evenodd;"
d="M 52.0500,62.6250
52.0671,62.5389
52.1159,62.4659
52.1889,62.4171
52.2750,62.4000
52.7250,62.4000
52.8111,62.4171
52.8841,62.4659
52.9329,62.5389
52.9500,62.6250
52.9500,63.3750
52.9329,63.4611
52.8841,63.5341
52.8111,63.5829
52.7250,63.6000
52.2750,63.6000
52.1889,63.5829
52.1159,63.5341
52.0671,63.4611
52.0500,63.3750
Z" /> 
<path style="fill:#000000; fill-opacity:1.0000; stroke:none;fill-rule:evenodd;"
d="M 48.7500,62.6250
48.7671,62.5389
48.8159,62.4659
48.8889,62.4171
48.9750,62.4000
49.4250,62.4000
49.5111,62.4171
49.5841,62.4659
49.6329,62.5389
49.6500,62.6250
49.6500,63.3750
49.6329,63.4611
49.5841,63.5341
49.5111,63.5829
49.4250,63.6000
48.9750,63.6000
48.8889,63.5829
48.8159,63.5341
48.7671,63.4611
48.7500,63.3750
Z" /> 
<path style="fill:#000000; fill-opacity:1.0000; stroke:none;fill-rule:evenodd;"
d="M 86.0500,62.6250
86.0671,62.5389
86.1159,62.4659
86.1889,62.4171
86.2750,62.4000
86.7250,62.4000
86.8111,62.4171
86.8841,62.4659
86.9329,62.5389
86.9500,62.6250
86.9500,63.3750
86.9329,63.4611
86.8841,63.5341
86.8111,63.5829
86.7250,63.6000
86.2750,63.6000
86.1889,63.5829
86.1159,63.5341
86.0671,63.4611
86.0500,63.3750
Z" /> 
<path style="fill:#000000; fill-opacity:1.0000; stroke:none;fill-rule:evenodd;"
d="M 82.7500,62.6250
82.7671,62.5389
82.8159,62.4659
82.8889,62.4171
82.9750,62.4000
83.4250,62.4000
83.5111,62.4171
83.5841,62.4659
83.6329,62.5389
83.6500,62.6250
83.6500,63.3750
83.6329,63.4611
83.5841,63.5341
83.5111,63.5829
83.4250,63.6000
82.9750,63.6000
82.8889,63.5829
82.8159,63.5341
82.7671,63.4611
82.7500,63.3750
Z" /> 
<path style="fill:#000000; fill-opacity:1.0000; stroke:none;fill-rule:evenodd;"
d="M 103.0500,28.6250
103.0671,28.5389
103.1159,28.4659
103.1889,28.4171
103.2750,28.4000
103.7250,28.4000
103.8111,28.4171
103.8841,28.4659
103.9329,28.5389
103.9500,28.6250
103.9500,29.3750
103.9329,29.4611
103.8841,29.5341
103.8111,29.5829
103.7250,29.6000
103.2750,29.6000
103.1889,29.5829
103.1159,29.5341
103.0671,29.4611
103.0500,29.3750
Z" /> 
<path style="fill:#000000; fill-opacity:1.0000; stroke:none;fill-rule:evenodd;"
d="M 99.7500,28.6250
99.7671,28.5389
99.8159,28.4659
99.8889,28.4171
99.9750,28.4000
100.4250,28.4000
100.5111,28.4171
100.5841,28.4659
100.6329,28.5389
100.6500,28.6250
100.6500,29.3750
100.6329,29.4611
100.5841,29.5341
100.5111,29.5829
100.4250,29.6000
99.9750,29.6000
99.8889,29.5829
99.8159,29.5341
99.7671,29.4611
99.7500,29.3750
Z" /> 
<path style="fill:#000000; fill-opacity:1.0000; stroke:none;fill-rule:evenodd;"
d="M 35.0500,62.6250
35.0671,62.5389
35.1159,62.4659
35.1889,62.4171
35.2750,62.4000
35.7250,62.4000
35.8111,62.4171
35.8841,62.4659
35.9329,62.5389
35.9500,62.6250
35.9500,63.3750
35.9329,63.4611
35.8841,63.5341
35.8111,63.5829
35.7250,63.6000
35.2750,63.6000
35.1889,63.5829
35.1159,63.5341
35.0671,63.4611
35.0500,63.3750
Z" /> 
<path style="fill:#000000; fill-opacity:1.0000; stroke:none;fill-rule:evenodd;"
d="M 31.7500,62.6250
31.7671,62.5389
31.8159,62.4659
31.8889,62.4171
31.9750,62.4000
32.4250,62.4000
32.5111,62.4171
32.5841,62.4659
32.6329,62.5389
32.6500,62.6250
32.6500,63.3750
32.6329,63.4611
32.5841,63.5341
32.5111,63.5829
32.4250,63.6000
31.9750,63.6000
31.8889,63.5829
31.8159,63.5341
31.7671,63.4611
31.7500,63.3750
Z" /> 
<path style="fill:#000000; fill-opacity:1.0000; stroke:none;fill-rule:evenodd;"
d="M 52.0500,45.6250
52.0671,45.5389
52.1159,45.4659
52.1889,45.4171
52.2750,45.4000
52.7250,45.4000
52.8111,45.4171
52.8841,45.4659
52.9329,45.5389
52.9500,45.6250
52.9500,46.3750
52.9329,46.4611
52.8841,46.5341
52.8111,46.5829
52.7250,46.6000
52.2750,46.6000
52.1889,46.5829
52.1159,46.5341
52.0671,46.4611
52.0500,46.3750
Z" /> 
<path style="fill:#000000; fill-opacity:1.0000; stroke:none;fill-rule:evenodd;"
d="M 48.7500,45.6250
48.7671,45.5389
48.8159,45.4659
48.8889,45.4171
48.9750,45.4000
49.4250,45.4000
49.5111,45.4171
49.5841,45.4659
49.6329,45.5389
49.6500,45.6250
49.6500,46.3750
49.6329,46.4611
49.5841,46.5341
49.5111,46.5829
49.4250,46.6000
48.9750,46.6000
48.8889,46.5829
48.8159,46.5341
48.7671,46.4611
48.7500,46.3750
Z" /> 
<path style="fill:#000000; fill-opacity:1.0000; stroke:none;fill-rule:evenodd;"
d="M 103.0500,96.6250
103.0671,96.5389
103.1159,96.4659
103.1889,96.4171
103.2750,96.4000
103.7250,96.4000
103.8111,96.4171
103.8841,96.4659
103.9329,96.5389
103.9500,96.6250
103.9500,97.3750
103.9329,97.4611
103.8841,97.5341
103.8111,97.5829
103.7250,97.6000
103.2750,97.6000
103.1889,97.5829
103.1159,97.5341
103.0671,97.4611
103.0500,97.3750
Z" /> 
<path style="fill:#000000; fill-opacity:1.0000; stroke:none;fill-rule:evenodd;"
d="M 99.7500,96.6250
99.7671,96.5389
99.8159,96.4659
99.8889,96.4171
99.9750,96.4000
100.4250,96.4000
100.5111,96.4171
100.5841,96.4659
100.6329,96.5389
100.6500,96.6250
100.6500,97.3750
100.6329,97.4611
100.5841,97.5341
100.5111,97.5829
100.4250,97.6000
99.9750,97.6000
99.8889,97.5829
99.8159,97.5341
99.7671,97.4611
99.7500,97.3750
Z" /> 
<path style="fill:#000000; fill-opacity:1.0000; stroke:none;fill-rule:evenodd;"
d="M 52.0500,28.6250
52.0671,28.5389
52.1159,28.4659
52.1889,28.4171
52.2750,28.4000
52.7250,28.4000
52.8111,28.4171
52.8841,28.4659
52.9329,28.5389
52.9500,28.6250
52.9500,29.3750
52.9329,29.4611
52.8841,29.5341
52.8111,29.5829
52.7250,29.6000
52.2750,29.6000
52.1889,29.5829
52.1159,29.5341
52.0671,29.4611
52.0500,29.3750
Z" /> 
<path style="fill:#000000; fill-opacity:1.0000; stroke:none;fill-rule:evenodd;"
d="M 48.7500,28.6250
48.7671,28.5389
48.8159,28.4659
48.8889,28.4171
48.9750,28.4000
49.4250,28.4000
49.5111,28.4171
49.5841,28.4659
49.6329,28.5389
49.6500,28.6250
49.6500,29.3750
49.6329,29.4611
49.5841,29.5341
49.5111,29.5829
49.4250,29.6000
48.9750,29.6000
48.8889,29.5829
48.8159,29.5341
48.7671,29.4611
48.7500,29.3750
Z" /> 
<path style="fill:#000000; fill-opacity:1.0000; stroke:none;fill-rule:evenodd;"
d="M 86.0500,28.6250
86.0671,28.5389
86.1159,28.4659
86.1889,28.4171
86.2750,28.4000
86.7250,28.4000
86.8111,28.4171
86.8841,28.4659
86.9329,28.5389
86.9500,28.6250
86.9500,29.3750
86.9329,29.4611
86.8841,29.5341
86.8111,29.5829
86.7250,29.6000
86.2750,29.6000
86.1889,29.5829
86.1159,29.5341
86.0671,29.4611
86.0500,29.3750
Z" /> 
<path style="fill:#000000; fill-opacity:1.0000; stroke:none;fill-rule:evenodd;"
d="M 82.7500,28.6250
82.7671,28.5389
82.8159,28.4659
82.8889,28.4171
82.9750,28.4000
83.4250,28.4000
83.5111,28.4171
83.5841,28.4659
83.6329,28.5389
83.6500,28.6250
83.6500,29.3750
83.6329,29.4611
83.5841,29.5341
83.5111,29.5829
83.4250,29.6000
82.9750,29.6000
82.8889,29.5829
82.8159,29.5341
82.7671,29.4611
82.7500,29.3750
Z" /> 
<path style="fill:#000000; fill-opacity:1.0000; stroke:none;fill-rule:evenodd;"
d="M 52.0500,96.6250
52.0671,96.5389
52.1159,96.4659
52.1889,96.4171
52.2750,96.4000
52.7250,96.4000
52.8111,96.4171
52.8841,96.4659
52.9329,96.5389
52.9500,96.6250
52.9500,97.3750
52.9329,97.4611
52.8841,97.5341
52.8111,97.5829
52.7250,97.6000
52.2750,97.6000
52.1889,97.5829
52.1159,97.5341
52.0671,97.4611
52.0500,97.3750
Z" /> 
<path style="fill:#000000; fill-opacity:1.0000; stroke:none;fill-rule:evenodd;"
d="M 48.7500,96.6250
48.7671,96.5389
48.8159,96.4659
48.8889,96.4171
48.9750,96.4000
49.4250,96.4000
49.5111,96.4171
49.5841,96.4659
49.6329,96.5389
49.6500,96.6250
49.6500,97.3750
49.6329,97.4611
49.5841,97.5341
49.5111,97.5829
49.4250,97.6000
48.9750,97.6000
48.8889,97.5829
48.8159,97.5341
48.7671,97.4611
48.7500,97.3750
Z" /> 
<path style="fill:#000000; fill-opacity:1.0000; stroke:none;fill-rule:evenodd;"
d="M 69.0500,28.6250
69.0671,28.5389
69.1159,28.4659
69.1889,28.4171
69.2750,28.4000
69.7250,28.4000
69.8111,28.4171
69.8841,28.4659
69.9329,28.5389
69.9500,28.6250
69.9500,29.3750
69.9329,29.4611
69.8841,29.5341
69.8111,29.5829
69.7250,29.6000
69.2750,29.6000
69.1889,29.5829
69.1159,29.5341
69.0671,29.4611
69.0500,29.3750
Z" /> 
<path style="fill:#000000; fill-opacity:1.0000; stroke:none;fill-rule:evenodd;"
d="M 65.7500,28.6250
65.7671,28.5389
65.8159,28.4659
65.8889,28.4171
65.9750,28.4000
66.4250,28.4000
66.5111,28.4171
66.5841,28.4659
66.6329,28.5389
66.6500,28.6250
66.6500,29.3750
66.6329,29.4611
66.5841,29.5341
66.5111,29.5829
66.4250,29.6000
65.9750,29.6000
65.8889,29.5829
65.8159,29.5341
65.7671,29.4611
65.7500,29.3750
Z" /> 
<path style="fill:#000000; fill-opacity:1.0000; stroke:none;fill-rule:evenodd;"
d="M 86.0500,96.6250
86.0671,96.5389
86.1159,96.4659
86.1889,96.4171
86.2750,96.4000
86.7250,96.4000
86.8111,96.4171
86.8841,96.4659
86.9329,96.5389
86.9500,96.6250
86.9500,97.3750
86.9329,97.4611
86.8841,97.5341
86.8111,97.5829
86.7250,97.6000
86.2750,97.6000
86.1889,97.5829
86.1159,97.5341
86.0671,97.4611
86.0500,97.3750
Z" /> 
<path style="fill:#000000; fill-opacity:1.0000; stroke:none;fill-rule:evenodd;"
d="M 82.7500,96.6250
82.7671,96.5389
82.8159,96.4659
82.8889,96.4171
82.9750,96.4000
83.4250,96.4000
83.5111,96.4171
83.5841,96.4659
83.6329,96.5389
83.6500,96.6250
83.6500,97.3750
83.6329,97.4611
83.5841,97.5341
83.5111,97.5829
83.4250,97.6000
82.9750,97.6000
82.8889,97.5829
82.8159,97.5341
82.7671,97.4611
82.7500,97.3750
Z" /> 
<path style="fill:#000000; fill-opacity:1.0000; stroke:none;fill-rule:evenodd;"
d="M 120.0500,28.6250
120.0671,28.5389
120.1159,28.4659
120.1889,28.4171
120.2750,28.4000
120.7250,28.4000
120.8111,28.4171
120.8841,28.4659
120.9329,28.5389
120.9500,28.6250
120.9500,29.3750
120.9329,29.4611
120.8841,29.5341
120.8111,29.5829
120.7250,29.6000
120.2750,29.6000
120.1889,29.5829
120.1159,29.5341
120.0671,29.4611
120.0500,29.3750
Z" /> 
<path style="fill:#000000; fill-opacity:1.0000; stroke:none;fill-rule:evenodd;"
d="M 116.7500,28.6250
116.7671,28.5389
116.8159,28.4659
116.8889,28.4171
116.9750,28.4000
117.4250,28.4000
117.5111,28.4171
117.5841,28.4659
117.6329,28.5389
117.6500,28.6250
117.6500,29.3750
117.6329,29.4611
117.5841,29.5341
117.5111,29.5829
117.4250,29.6000
116.9750,29.6000
116.8889,29.5829
116.8159,29.5341
116.7671,29.4611
116.7500,29.3750
Z" /> 
<path style="fill:#000000; fill-opacity:1.0000; stroke:none;fill-rule:evenodd;"
d="M 103.0500,79.6250
103.0671,79.5389
103.1159,79.4659
103.1889,79.4171
103.2750,79.4000
103.7250,79.4000
103.8111,79.4171
103.8841,79.4659
103.9329,79.5389
103.9500,79.6250
103.9500,80.3750
103.9329,80.4611
103.8841,80.5341
103.8111,80.5829
103.7250,80.6000
103.2750,80.6000
103.1889,80.5829
103.1159,80.5341
103.0671,80.4611
103.0500,80.3750
Z" /> 
<path style="fill:#000000; fill-opacity:1.0000; stroke:none;fill-rule:evenodd;"
d="M 99.7500,79.6250
99.7671,79.5389
99.8159,79.4659
99.8889,79.4171
99.9750,79.4000
100.4250,79.4000
100.5111,79.4171
100.5841,79.4659
100.6329,79.5389
100.6500,79.6250
100.6500,80.3750
100.6329,80.4611
100.5841,80.5341
100.5111,80.5829
100.4250,80.6000
99.9750,80.6000
99.8889,80.5829
99.8159,80.5341
99.7671,80.4611
99.7500,80.3750
Z" /> 
<path style="fill:#000000; fill-opacity:1.0000; stroke:none;fill-rule:evenodd;"
d="M 120.0500,45.6250
120.0671,45.5389
120.1159,45.4659
120.1889,45.4171
120.2750,45.4000
120.7250,45.4000
120.8111,45.4171
120.8841,45.4659
120.9329,45.5389
120.9500,45.6250
120.9500,46.3750
120.9329,46.4611
120.8841,46.5341
120.8111,46.5829
120.7250,46.6000
120.2750,46.6000
120.1889,46.5829
120.1159,46.5341
120.0671,46.4611
120.0500,46.3750
Z" /> 
<path style="fill:#000000; fill-opacity:1.0000; stroke:none;fill-rule:evenodd;"
d="M 116.7500,45.6250
116.7671,45.5389
116.8159,45.4659
116.8889,45.4171
116.9750,45.4000
117.4250,45.4000
117.5111,45.4171
117.5841,45.4659
117.6329,45.5389
117.6500,45.6250
117.6500,46.3750
117.6329,46.4611
117.5841,46.5341
117.5111,46.5829
117.4250,46.6000
116.9750,46.6000
116.8889,46.5829
116.8159,46.5341
116.7671,46.4611
116.7500,46.3750
Z" /> 
<path style="fill:#000000; fill-opacity:1.0000; stroke:none;fill-rule:evenodd;"
d="M 120.0500,79.6250
120.0671,79.5389
120.1159,79.4659
120.1889,79.4171
120.2750,79.4000
120.7250,79.4000
120.8111,79.4171
120.8841,79.4659
120.9329,79.5389
120.9500,79.6250
120.9500,80.3750
120.9329,80.4611
120.8841,80.5341
120.8111,80.5829
120.7250,80.6000
120.2750,80.6000
120.1889,80.5829
120.1159,80.5341
120.0671,80.4611
120.0500,80.3750
Z" /> 
<path style="fill:#000000; fill-opacity:1.0000; stroke:none;fill-rule:evenodd;"
d="M 116.7500,79.6250
116.7671,79.5389
116.8159,79.4659
116.8889,79.4171
116.9750,79.4000
117.4250,79.4000
117.5111,79.4171
117.5841,79.4659
117.6329,79.5389
117.6500,79.6250
117.6500,80.3750
117.6329,80.4611
117.5841,80.5341
117.5111,80.5829
117.4250,80.6000
116.9750,80.6000
116.8889,80.5829
116.8159,80.5341
116.7671,80.4611
116.7500,80.3750
Z" /> 
<path style="fill:#000000; fill-opacity:1.0000; stroke:none;fill-rule:evenodd;"
d="M 120.0500,96.6250
120.0671,96.5389
120.1159,96.4659
120.1889,96.4171
120.2750,96.4000
120.7250,96.4000
120.8111,96.4171
120.8841,96.4659
120.9329,96.5389
120.9500,96.6250
120.9500,97.3750
120.9329,97.4611
120.8841,97.5341
120.8111,97.5829
120.7250,97.6000
120.2750,97.6000
120.1889,97.5829
120.1159,97.5341
120.0671,97.4611
120.0500,97.3750
Z" /> 
<path style="fill:#000000; fill-opacity:1.0000; stroke:none;fill-rule:evenodd;"
d="M 116.7500,96.6250
116.7671,96.5389
116.8159,96.4659
116.8889,96.4171
116.9750,96.4000
117.4250,96.4000
117.5111,96.4171
117.5841,96.4659
117.6329,96.5389
117.6500,96.6250
117.6500,97.3750
117.6329,97.4611
117.5841,97.5341
117.5111,97.5829
117.4250,97.6000
116.9750,97.6000
116.8889,97.5829
116.8159,97.5341
116.7671,97.4611
116.7500,97.3750
Z" /> 
<path style="fill:#000000; fill-opacity:1.0000; stroke:none;fill-rule:evenodd;"
d="M 52.0500,79.6250
52.0671,79.5389
52.1159,79.4659
52.1889,79.4171
52.2750,79.4000
52.7250,79.4000
52.8111,79.4171
52.8841,79.4659
52.9329,79.5389
52.9500,79.6250
52.9500,80.3750
52.9329,80.4611
52.8841,80.5341
52.8111,80.5829
52.7250,80.6000
52.2750,80.6000
52.1889,80.5829
52.1159,80.5341
52.0671,80.4611
52.0500,80.3750
Z" /> 
<path style="fill:#000000; fill-opacity:1.0000; stroke:none;fill-rule:evenodd;"
d="M 48.7500,79.6250
48.7671,79.5389
48.8159,79.4659
48.8889,79.4171
48.9750,79.4000
49.4250,79.4000
49.5111,79.4171
49.5841,79.4659
49.6329,79.5389
49.6500,79.6250
49.6500,80.3750
49.6329,80.4611
49.5841,80.5341
49.5111,80.5829
49.4250,80.6000
48.9750,80.6000
48.8889,80.5829
48.8159,80.5341
48.7671,80.4611
48.7500,80.3750
Z" /> 
<path style="fill:#000000; fill-opacity:1.0000; stroke:none;fill-rule:evenodd;"
d="M 103.0500,45.6250
103.0671,45.5389
103.1159,45.4659
103.1889,45.4171
103.2750,45.4000
103.7250,45.4000
103.8111,45.4171
103.8841,45.4659
103.9329,45.5389
103.9500,45.6250
103.9500,46.3750
103.9329,46.4611
103.8841,46.5341
103.8111,46.5829
103.7250,46.6000
103.2750,46.6000
103.1889,46.5829
103.1159,46.5341
103.0671,46.4611
103.0500,46.3750
Z" /> 
<path style="fill:#000000; fill-opacity:1.0000; stroke:none;fill-rule:evenodd;"
d="M 99.7500,45.6250
99.7671,45.5389
99.8159,45.4659
99.8889,45.4171
99.9750,45.4000
100.4250,45.4000
100.5111,45.4171
100.5841,45.4659
100.6329,45.5389
100.6500,45.6250
100.6500,46.3750
100.6329,46.4611
100.5841,46.5341
100.5111,46.5829
100.4250,46.6000
99.9750,46.6000
99.8889,46.5829
99.8159,46.5341
99.7671,46.4611
99.7500,46.3750
Z" /> 
<path style="fill:#000000; fill-opacity:1.0000; stroke:none;fill-rule:evenodd;"
d="M 35.0500,28.6250
35.0671,28.5389
35.1159,28.4659
35.1889,28.4171
35.2750,28.4000
35.7250,28.4000
35.8111,28.4171
35.8841,28.4659
35.9329,28.5389
35.9500,28.6250
35.9500,29.3750
35.9329,29.4611
35.8841,29.5341
35.8111,29.5829
35.7250,29.6000
35.2750,29.6000
35.1889,29.5829
35.1159,29.5341
35.0671,29.4611
35.0500,29.3750
Z" /> 
<path style="fill:#000000; fill-opacity:1.0000; stroke:none;fill-rule:evenodd;"
d="M 31.7500,28.6250
31.7671,28.5389
31.8159,28.4659
31.8889,28.4171
31.9750,28.4000
32.4250,28.4000
32.5111,28.4171
32.5841,28.4659
32.6329,28.5389
32.6500,28.6250
32.6500,29.3750
32.6329,29.4611
32.5841,29.5341
32.5111,29.5829
32.4250,29.6000
31.9750,29.6000
31.8889,29.5829
31.8159,29.5341
31.7671,29.4611
31.7500,29.3750
Z" /> 
<path style="fill:#000000; fill-opacity:1.0000; stroke:none;fill-rule:evenodd;"
d="M 103.0500,62.6250
103.0671,62.5389
103.1159,62.4659
103.1889,62.4171
103.2750,62.4000
103.7250,62.4000
103.8111,62.4171
103.8841,62.4659
103.9329,62.5389
103.9500,62.6250
103.9500,63.3750
103.9329,63.4611
103.8841,63.5341
103.8111,63.5829
103.7250,63.6000
103.2750,63.6000
103.1889,63.5829
103.1159,63.5341
103.0671,63.4611
103.0500,63.3750
Z" /> 
<path style="fill:#000000; fill-opacity:1.0000; stroke:none;fill-rule:evenodd;"
d="M 99.7500,62.6250
99.7671,62.5389
99.8159,62.4659
99.8889,62.4171
99.9750,62.4000
100.4250,62.4000
100.5111,62.4171
100.5841,62.4659
100.6329,62.5389
100.6500,62.6250
100.6500,63.3750
100.6329,63.4611
100.5841,63.5341
100.5111,63.5829
100.4250,63.6000
99.9750,63.6000
99.8889,63.5829
99.8159,63.5341
99.7671,63.4611
99.7500,63.3750
Z" /> 
<path style="fill:#000000; fill-opacity:1.0000; stroke:none;fill-rule:evenodd;"
d="M 35.0500,79.6250
35.0671,79.5389
35.1159,79.4659
35.1889,79.4171
35.2750,79.4000
35.7250,79.4000
35.8111,79.4171
35.8841,79.4659
35.9329,79.5389
35.9500,79.6250
35.9500,80.3750
35.9329,80.4611
35.8841,80.5341
35.8111,80.5829
35.7250,80.6000
35.2750,80.6000
35.1889,80.5829
35.1159,80.5341
35.0671,80.4611
35.0500,80.3750
Z" /> 
<path style="fill:#000000; fill-opacity:1.0000; stroke:none;fill-rule:evenodd;"
d="M 31.7500,79.6250
31.7671,79.5389
31.8159,79.4659
31.8889,79.4171
31.9750,79.4000
32.4250,79.4000
32.5111,79.4171
32.5841,79.4659
32.6329,79.5389
32.6500,79.6250
32.6500,80.3750
32.6329,80.4611
32.5841,80.5341
32.5111,80.5829
32.4250,80.6000
31.9750,80.6000
31.8889,80.5829
31.8159,80.5341
31.7671,80.4611
31.7500,80.3750
Z" /> 
<path style="fill:#000000; fill-opacity:1.0000; stroke:none;fill-rule:evenodd;"
d="M 69.0500,79.6250
69.0671,79.5389
69.1159,79.4659
69.1889,79.4171
69.2750,79.4000
69.7250,79.4000
69.8111,79.4171
69.8841,79.4659
69.9329,79.5389
69.9500,79.6250
69.9500,80.3750
69.9329,80.4611
69.8841,80.5341
69.8111,80.5829
69.7250,80.6000
69.2750,80.6000
69.1889,80.5829
69.1159,80.5341
69.0671,80.4611
69.0500,80.3750
Z" /> 
<path style="fill:#000000; fill-opacity:1.0000; stroke:none;fill-rule:evenodd;"
d="M 65.7500,79.6250
65.7671,79.5389
65.8159,79.4659
65.8889,79.4171
65.9750,79.4000
66.4250,79.4000
66.5111,79.4171
66.5841,79.4659
66.6329,79.5389
66.6500,79.6250
66.6500,80.3750
66.6329,80.4611
66.5841,80.5341
66.5111,80.5829
66.4250,80.6000
65.9750,80.6000
65.8889,80.5829
65.8159,80.5341
65.7671,80.4611
65.7500,80.3750
Z" /> 
<path style="fill:#000000; fill-opacity:1.0000; stroke:none;fill-rule:evenodd;"
d="M 35.0500,96.6250
35.0671,96.5389
35.1159,96.4659
35.1889,96.4171
35.2750,96.4000
35.7250,96.4000
35.8111,96.4171
35.8841,96.4659
35.9329,96.5389
35.9500,96.6250
35.9500,97.3750
35.9329,97.4611
35.8841,97.5341
35.8111,97.5829
35.7250,97.6000
35.2750,97.6000
35.1889,97.5829
35.1159,97.5341
35.0671,97.4611
35.0500,97.3750
Z" /> 
<path style="fill:#000000; fill-opacity:1.0000; stroke:none;fill-rule:evenodd;"
d="M 31.7500,96.6250
31.7671,96.5389
31.8159,96.4659
31.8889,96.4171
31.9750,96.4000
32.4250,96.4000
32.5111,96.4171
32.5841,96.4659
32.6329,96.5389
32.6500,96.6250
32.6500,97.3750
32.6329,97.4611
32.5841,97.5341
32.5111,97.5829
32.4250,97.6000
31.9750,97.6000
31.8889,97.5829
31.8159,97.5341
31.7671,97.4611
31.7500,97.3750
Z" /> 
</g>
<g style="fill:none; 
stroke:#000000; stroke-width:1.8000; stroke-opacity:1; 
stroke-linecap:round; stroke-linejoin:round;">
<path d="M152.7300 24.8800
L153.6800 24.8800
" />
<path d="M152.7300 27.4200
L153.6800 27.4200
" />
<path d="M152.7300 29.9600
L153.6800 29.9600
" />
<path d="M152.7300 32.5000
L153.6800 32.5000
" />
<path d="M152.7300 35.0400
L153.6800 35.0400
" />
<path d="M152.7300 37.5800
L153.6800 37.5800
" />
<path d="M152.7300 40.1200
L153.6800 40.1200
" />
<path d="M137.4900 40.1200
L136.5400 40.1200
" />
<path d="M137.4900 37.5800
L136.5400 37.5800
" />
<path d="M137.4900 35.0400
L136.5400 35.0400
" />
<path d="M137.4900 32.5000
L136.5400 32.5000
" />
<path d="M137.4900 29.9600
L136.5400 29.9600
" />
<path d="M137.4900 27.4200
L136.5400 27.4200
" />
<path d="M137.4900 24.8800
L136.5400 24.8800
" />
</g>
<g style="fill:#000000; fill-opacity:1.0000; stroke:none;">
<circle cx="149.5550" cy="32.1830" r="0.8000" /> 
</g>
<g style="fill:#000000; fill-opacity:1.0000; stroke:none;">
<circle cx="140.6650" cy="32.1830" r="0.8000" /> 
</g>
<g style="fill:#000000; fill-opacity:1.0000; stroke:none;">
<circle cx="149.5550" cy="30.2780" r="0.8000" /> 
</g>
<g style="fill:#000000; fill-opacity:1.0000; stroke:none;">
<circle cx="140.6650" cy="30.2780" r="0.8000" /> 
</g>
<g style="fill:#000000; fill-opacity:1.0000; stroke:none;">
<circle cx="159.0000" cy="111.0000" r="1.9000" /> 
</g> 
</svg>
