M48
; DRILL file {KiCad 9.0.7} date 2026-01-26T14:59:22-0600
; FORMAT={-:-/ absolute / metric / decimal}
; #@! TF.CreationDate,2026-01-26T14:59:22-06:00
; #@! TF.GenerationSoftware,Kicad,Pcbnew,9.0.7
; #@! TF.FileFunction,Plated,1,2,PTH
FMAT,2
METRIC
; #@! TA.AperFunction,Plated,PTH,ViaDrill
T1C0.300
; #@! TA.AperFunction,Plated,PTH,ComponentDrill
T2C1.000
; #@! TA.AperFunction,Plated,PTH,ComponentDrill
T3C2.200
%
G90
G05
T1
X33.216Y-29.0
X33.216Y-46.0
X33.216Y-63.0
X33.216Y-80.0
X33.216Y-97.0
X33.978Y-42.208
X33.978Y-59.208
X33.978Y-76.208
X33.978Y-93.208
X33.978Y-110.208
X35.5Y-27.75
X35.5Y-44.75
X35.5Y-61.75
X35.5Y-78.75
X35.5Y-95.75
X50.216Y-29.0
X50.216Y-46.0
X50.216Y-63.0
X50.216Y-80.0
X50.216Y-97.0
X50.978Y-42.208
X50.978Y-59.208
X50.978Y-76.208
X50.978Y-93.208
X50.978Y-110.208
X52.5Y-27.75
X52.5Y-44.75
X52.5Y-61.75
X52.5Y-78.75
X52.5Y-95.75
X67.216Y-29.0
X67.216Y-46.0
X67.216Y-63.0
X67.216Y-80.0
X67.216Y-97.0
X67.978Y-42.208
X67.978Y-59.208
X67.978Y-76.208
X67.978Y-93.208
X67.978Y-110.208
X69.5Y-27.75
X69.5Y-44.75
X69.5Y-61.75
X69.5Y-78.75
X69.5Y-95.75
X84.216Y-29.0
X84.216Y-46.0
X84.216Y-63.0
X84.216Y-80.0
X84.216Y-97.0
X84.978Y-42.208
X84.978Y-59.208
X84.978Y-76.208
X84.978Y-93.208
X84.978Y-110.208
X86.5Y-27.75
X86.5Y-44.75
X86.5Y-61.75
X86.5Y-78.75
X86.5Y-95.75
X101.216Y-29.0
X101.216Y-46.0
X101.216Y-63.0
X101.216Y-80.0
X101.216Y-97.0
X101.978Y-42.208
X101.978Y-59.208
X101.978Y-76.208
X101.978Y-93.208
X101.978Y-110.208
X103.5Y-27.75
X103.5Y-44.75
X103.5Y-61.75
X103.5Y-78.75
X103.5Y-95.75
X118.216Y-29.0
X118.216Y-46.0
X118.216Y-63.0
X118.216Y-80.0
X118.216Y-97.0
X118.978Y-42.208
X118.978Y-59.208
X118.978Y-76.208
X118.978Y-93.208
X118.978Y-110.208
X120.5Y-27.75
X120.5Y-44.75
X120.5Y-61.75
X120.5Y-78.75
X120.5Y-95.75
X134.25Y-50.75
X134.25Y-67.75
X134.25Y-84.75
X134.299Y-40.049
X138.948Y-33.92
X139.08Y-29.14
X139.22Y-25.4
X139.22Y-27.94
X139.22Y-35.56
X139.22Y-38.1
X139.22Y-40.64
X150.476Y-51.032
X151.0Y-24.36
X151.0Y-26.9
X151.0Y-34.52
X151.0Y-37.06
X151.0Y-39.6
X151.14Y-33.32
X151.272Y-28.54
X152.158Y-48.81
T2
X140.665Y-30.278
X140.665Y-32.183
X149.555Y-30.278
X149.555Y-32.183
T3
X25.0Y-25.0
X25.0Y-111.0
X159.0Y-25.0
X159.0Y-111.0
M30
