M48
; DRILL file {KiCad 9.0.7} date 2026-01-13T09:51:03-0600
; FORMAT={-:-/ absolute / metric / decimal}
; #@! TF.CreationDate,2026-01-13T09:51:03-06:00
; #@! TF.GenerationSoftware,Kicad,Pcbnew,9.0.7
; #@! TF.FileFunction,NonPlated,1,2,NPTH
FMAT,2
METRIC
; #@! TA.AperFunction,NonPlated,NPTH,ComponentDrill
T1C1.600
; #@! TA.AperFunction,NonPlated,NPTH,ComponentDrill
T2C1.900
; #@! TA.AperFunction,NonPlated,NPTH,ComponentDrill
T3C3.050
; #@! TA.AperFunction,NonPlated,NPTH,ComponentDrill
T4C5.050
%
G90
G05
T1
X29.0Y-39.15
X29.0Y-56.15
X29.0Y-73.15
X29.0Y-90.15
X46.0Y-39.15
X46.0Y-56.15
X46.0Y-73.15
X46.0Y-90.15
X63.0Y-39.15
X63.0Y-56.15
X63.0Y-73.15
X63.0Y-90.15
X80.0Y-39.15
X80.0Y-56.15
X80.0Y-73.15
X80.0Y-90.15
X97.0Y-39.15
X97.0Y-56.15
X97.0Y-73.15
X97.0Y-90.15
X114.0Y-39.15
X114.0Y-56.15
X114.0Y-73.15
X114.0Y-90.15
T2
X28.5Y-34.0
X28.5Y-51.0
X28.5Y-68.0
X28.5Y-85.0
X39.5Y-34.0
X39.5Y-51.0
X39.5Y-68.0
X39.5Y-85.0
X45.5Y-34.0
X45.5Y-51.0
X45.5Y-68.0
X45.5Y-85.0
X56.5Y-34.0
X56.5Y-51.0
X56.5Y-68.0
X56.5Y-85.0
X62.5Y-34.0
X62.5Y-51.0
X62.5Y-68.0
X62.5Y-85.0
X73.5Y-34.0
X73.5Y-51.0
X73.5Y-68.0
X73.5Y-85.0
X79.5Y-34.0
X79.5Y-51.0
X79.5Y-68.0
X79.5Y-85.0
X90.5Y-34.0
X90.5Y-51.0
X90.5Y-68.0
X90.5Y-85.0
X96.5Y-34.0
X96.5Y-51.0
X96.5Y-68.0
X96.5Y-85.0
X107.5Y-34.0
X107.5Y-51.0
X107.5Y-68.0
X107.5Y-85.0
X113.5Y-34.0
X113.5Y-51.0
X113.5Y-68.0
X113.5Y-85.0
X124.5Y-34.0
X124.5Y-51.0
X124.5Y-68.0
X124.5Y-85.0
T3
X34.0Y-28.1
X34.0Y-45.1
X34.0Y-62.1
X34.0Y-79.1
X39.0Y-30.2
X39.0Y-47.2
X39.0Y-64.2
X39.0Y-81.2
X51.0Y-28.1
X51.0Y-45.1
X51.0Y-62.1
X51.0Y-79.1
X56.0Y-30.2
X56.0Y-47.2
X56.0Y-64.2
X56.0Y-81.2
X68.0Y-28.1
X68.0Y-45.1
X68.0Y-62.1
X68.0Y-79.1
X73.0Y-30.2
X73.0Y-47.2
X73.0Y-64.2
X73.0Y-81.2
X85.0Y-28.1
X85.0Y-45.1
X85.0Y-62.1
X85.0Y-79.1
X90.0Y-30.2
X90.0Y-47.2
X90.0Y-64.2
X90.0Y-81.2
X102.0Y-28.1
X102.0Y-45.1
X102.0Y-62.1
X102.0Y-79.1
X107.0Y-30.2
X107.0Y-47.2
X107.0Y-64.2
X107.0Y-81.2
X119.0Y-28.1
X119.0Y-45.1
X119.0Y-62.1
X119.0Y-79.1
X124.0Y-30.2
X124.0Y-47.2
X124.0Y-64.2
X124.0Y-81.2
T4
X34.0Y-34.0
X34.0Y-51.0
X34.0Y-68.0
X34.0Y-85.0
X51.0Y-34.0
X51.0Y-51.0
X51.0Y-68.0
X51.0Y-85.0
X68.0Y-34.0
X68.0Y-51.0
X68.0Y-68.0
X68.0Y-85.0
X85.0Y-34.0
X85.0Y-51.0
X85.0Y-68.0
X85.0Y-85.0
X102.0Y-34.0
X102.0Y-51.0
X102.0Y-68.0
X102.0Y-85.0
X119.0Y-34.0
X119.0Y-51.0
X119.0Y-68.0
X119.0Y-85.0
M30
