<?xml version="1.0" standalone="no"?>
 <!DOCTYPE svg PUBLIC "-//W3C//DTD SVG 1.1//EN" 
 "http://www.w3.org/Graphics/SVG/1.1/DTD/svg11.dtd"> 
<svg
  xmlns:svg="http://www.w3.org/2000/svg"
  xmlns="http://www.w3.org/2000/svg"
  xmlns:xlink="http://www.w3.org/1999/xlink"
  version="1.1"
  width="297.0022mm" height="210.0072mm" viewBox="0.0000 0.0000 297.0022 210.0072">
<title>SVG Image created as LillyKey-F_Paste.svg date 2026/01/26 13:50:18 </title>
  <desc>Image generated by PCBNEW </desc>
<g style="fill:#000000; fill-opacity:1.0000;stroke:#000000; stroke-opacity:1.0000;
stroke-linecap:round; stroke-linejoin:round;"
 transform="translate(0 0) scale(1 1)">
<path style="fill:#000000; fill-opacity:1.0000; stroke:none;fill-rule:evenodd;"
d="M 128.7750,55.8000
128.7560,55.8957
128.7018,55.9768
128.6207,56.0310
128.5250,56.0500
126.4750,56.0500
126.3793,56.0310
126.2982,55.9768
126.2440,55.8957
126.2250,55.8000
126.2250,53.8000
126.2440,53.7043
126.2982,53.6232
126.3793,53.5690
126.4750,53.5500
128.5250,53.5500
128.6207,53.5690
128.7018,53.6232
128.7560,53.7043
128.7750,53.8000
Z" /> 
<path style="fill:#000000; fill-opacity:1.0000; stroke:none;fill-rule:evenodd;"
d="M 116.7750,58.0000
116.7560,58.0957
116.7018,58.1768
116.6207,58.2310
116.5250,58.2500
114.4750,58.2500
114.3793,58.2310
114.2982,58.1768
114.2440,58.0957
114.2250,58.0000
114.2250,56.0000
114.2440,55.9043
114.2982,55.8232
114.3793,55.7690
114.4750,55.7500
116.5250,55.7500
116.6207,55.7690
116.7018,55.8232
116.7560,55.9043
116.7750,56.0000
Z" /> 
<path style="fill:#000000; fill-opacity:1.0000; stroke:none;fill-rule:evenodd;"
d="M 128.7750,72.8000
128.7560,72.8957
128.7018,72.9768
128.6207,73.0310
128.5250,73.0500
126.4750,73.0500
126.3793,73.0310
126.2982,72.9768
126.2440,72.8957
126.2250,72.8000
126.2250,70.8000
126.2440,70.7043
126.2982,70.6232
126.3793,70.5690
126.4750,70.5500
128.5250,70.5500
128.6207,70.5690
128.7018,70.6232
128.7560,70.7043
128.7750,70.8000
Z" /> 
<path style="fill:#000000; fill-opacity:1.0000; stroke:none;fill-rule:evenodd;"
d="M 116.7750,75.0000
116.7560,75.0957
116.7018,75.1768
116.6207,75.2310
116.5250,75.2500
114.4750,75.2500
114.3793,75.2310
114.2982,75.1768
114.2440,75.0957
114.2250,75.0000
114.2250,73.0000
114.2440,72.9043
114.2982,72.8232
114.3793,72.7690
114.4750,72.7500
116.5250,72.7500
116.6207,72.7690
116.7018,72.8232
116.7560,72.9043
116.7750,73.0000
Z" /> 
<path style="fill:#000000; fill-opacity:1.0000; stroke:none;fill-rule:evenodd;"
d="M 149.6007,57.2618
149.6007,53.8582
151.0993,53.8582
151.0993,57.2618
Z" /> 
<path style="fill:#000000; fill-opacity:1.0000; stroke:none;fill-rule:evenodd;"
d="M 142.9007,57.2618
142.9007,53.8582
144.3993,53.8582
144.3993,57.2618
Z" /> 
<path style="fill:#000000; fill-opacity:1.0000; stroke:none;fill-rule:evenodd;"
d="M 147.5047,51.5626
147.5047,48.0574
148.4953,48.0574
148.4953,51.5626
Z" /> 
<path style="fill:#000000; fill-opacity:1.0000; stroke:none;fill-rule:evenodd;"
d="M 145.5047,51.5626
145.5047,48.0574
146.4953,48.0574
146.4953,51.5626
Z" /> 
<path style="fill:#000000; fill-opacity:1.0000; stroke:none;fill-rule:evenodd;"
d="M 31.7750,58.0000
31.7560,58.0957
31.7018,58.1768
31.6207,58.2310
31.5250,58.2500
29.4750,58.2500
29.3793,58.2310
29.2982,58.1768
29.2440,58.0957
29.2250,58.0000
29.2250,56.0000
29.2440,55.9043
29.2982,55.8232
29.3793,55.7690
29.4750,55.7500
31.5250,55.7500
31.6207,55.7690
31.7018,55.8232
31.7560,55.9043
31.7750,56.0000
Z" /> 
<path style="fill:#000000; fill-opacity:1.0000; stroke:none;fill-rule:evenodd;"
d="M 43.7750,55.8000
43.7560,55.8957
43.7018,55.9768
43.6207,56.0310
43.5250,56.0500
41.4750,56.0500
41.3793,56.0310
41.2982,55.9768
41.2440,55.8957
41.2250,55.8000
41.2250,53.8000
41.2440,53.7043
41.2982,53.6232
41.3793,53.5690
41.4750,53.5500
43.5250,53.5500
43.6207,53.5690
43.7018,53.6232
43.7560,53.7043
43.7750,53.8000
Z" /> 
<path style="fill:#000000; fill-opacity:1.0000; stroke:none;fill-rule:evenodd;"
d="M 116.7750,41.0000
116.7560,41.0957
116.7018,41.1768
116.6207,41.2310
116.5250,41.2500
114.4750,41.2500
114.3793,41.2310
114.2982,41.1768
114.2440,41.0957
114.2250,41.0000
114.2250,39.0000
114.2440,38.9043
114.2982,38.8232
114.3793,38.7690
114.4750,38.7500
116.5250,38.7500
116.6207,38.7690
116.7018,38.8232
116.7560,38.9043
116.7750,39.0000
Z" /> 
<path style="fill:#000000; fill-opacity:1.0000; stroke:none;fill-rule:evenodd;"
d="M 128.7750,38.8000
128.7560,38.8957
128.7018,38.9768
128.6207,39.0310
128.5250,39.0500
126.4750,39.0500
126.3793,39.0310
126.2982,38.9768
126.2440,38.8957
126.2250,38.8000
126.2250,36.8000
126.2440,36.7043
126.2982,36.6232
126.3793,36.5690
126.4750,36.5500
128.5250,36.5500
128.6207,36.5690
128.7018,36.6232
128.7560,36.7043
128.7750,36.8000
Z" /> 
<path style="fill:#000000; fill-opacity:1.0000; stroke:none;fill-rule:evenodd;"
d="M 31.7750,92.0000
31.7560,92.0957
31.7018,92.1768
31.6207,92.2310
31.5250,92.2500
29.4750,92.2500
29.3793,92.2310
29.2982,92.1768
29.2440,92.0957
29.2250,92.0000
29.2250,90.0000
29.2440,89.9043
29.2982,89.8232
29.3793,89.7690
29.4750,89.7500
31.5250,89.7500
31.6207,89.7690
31.7018,89.8232
31.7560,89.9043
31.7750,90.0000
Z" /> 
<path style="fill:#000000; fill-opacity:1.0000; stroke:none;fill-rule:evenodd;"
d="M 43.7750,89.8000
43.7560,89.8957
43.7018,89.9768
43.6207,90.0310
43.5250,90.0500
41.4750,90.0500
41.3793,90.0310
41.2982,89.9768
41.2440,89.8957
41.2250,89.8000
41.2250,87.8000
41.2440,87.7043
41.2982,87.6232
41.3793,87.5690
41.4750,87.5500
43.5250,87.5500
43.6207,87.5690
43.7018,87.6232
43.7560,87.7043
43.7750,87.8000
Z" /> 
<path style="fill:#000000; fill-opacity:1.0000; stroke:none;fill-rule:evenodd;"
d="M 65.7750,109.0000
65.7560,109.0957
65.7018,109.1768
65.6207,109.2310
65.5250,109.2500
63.4750,109.2500
63.3793,109.2310
63.2982,109.1768
63.2440,109.0957
63.2250,109.0000
63.2250,107.0000
63.2440,106.9043
63.2982,106.8232
63.3793,106.7690
63.4750,106.7500
65.5250,106.7500
65.6207,106.7690
65.7018,106.8232
65.7560,106.9043
65.7750,107.0000
Z" /> 
<path style="fill:#000000; fill-opacity:1.0000; stroke:none;fill-rule:evenodd;"
d="M 77.7750,106.8000
77.7560,106.8957
77.7018,106.9768
77.6207,107.0310
77.5250,107.0500
75.4750,107.0500
75.3793,107.0310
75.2982,106.9768
75.2440,106.8957
75.2250,106.8000
75.2250,104.8000
75.2440,104.7043
75.2982,104.6232
75.3793,104.5690
75.4750,104.5500
77.5250,104.5500
77.6207,104.5690
77.7018,104.6232
77.7560,104.7043
77.7750,104.8000
Z" /> 
<path style="fill:#000000; fill-opacity:1.0000; stroke:none;fill-rule:evenodd;"
d="M 82.7750,58.0000
82.7560,58.0957
82.7018,58.1768
82.6207,58.2310
82.5250,58.2500
80.4750,58.2500
80.3793,58.2310
80.2982,58.1768
80.2440,58.0957
80.2250,58.0000
80.2250,56.0000
80.2440,55.9043
80.2982,55.8232
80.3793,55.7690
80.4750,55.7500
82.5250,55.7500
82.6207,55.7690
82.7018,55.8232
82.7560,55.9043
82.7750,56.0000
Z" /> 
<path style="fill:#000000; fill-opacity:1.0000; stroke:none;fill-rule:evenodd;"
d="M 94.7750,55.8000
94.7560,55.8957
94.7018,55.9768
94.6207,56.0310
94.5250,56.0500
92.4750,56.0500
92.3793,56.0310
92.2982,55.9768
92.2440,55.8957
92.2250,55.8000
92.2250,53.8000
92.2440,53.7043
92.2982,53.6232
92.3793,53.5690
92.4750,53.5500
94.5250,53.5500
94.6207,53.5690
94.7018,53.6232
94.7560,53.7043
94.7750,53.8000
Z" /> 
<path style="fill:#000000; fill-opacity:1.0000; stroke:none;fill-rule:evenodd;"
d="M 31.7750,109.0000
31.7560,109.0957
31.7018,109.1768
31.6207,109.2310
31.5250,109.2500
29.4750,109.2500
29.3793,109.2310
29.2982,109.1768
29.2440,109.0957
29.2250,109.0000
29.2250,107.0000
29.2440,106.9043
29.2982,106.8232
29.3793,106.7690
29.4750,106.7500
31.5250,106.7500
31.6207,106.7690
31.7018,106.8232
31.7560,106.9043
31.7750,107.0000
Z" /> 
<path style="fill:#000000; fill-opacity:1.0000; stroke:none;fill-rule:evenodd;"
d="M 43.7750,106.8000
43.7560,106.8957
43.7018,106.9768
43.6207,107.0310
43.5250,107.0500
41.4750,107.0500
41.3793,107.0310
41.2982,106.9768
41.2440,106.8957
41.2250,106.8000
41.2250,104.8000
41.2440,104.7043
41.2982,104.6232
41.3793,104.5690
41.4750,104.5500
43.5250,104.5500
43.6207,104.5690
43.7018,104.6232
43.7560,104.7043
43.7750,104.8000
Z" /> 
<path style="fill:#000000; fill-opacity:1.0000; stroke:none;fill-rule:evenodd;"
d="M 82.7750,75.0000
82.7560,75.0957
82.7018,75.1768
82.6207,75.2310
82.5250,75.2500
80.4750,75.2500
80.3793,75.2310
80.2982,75.1768
80.2440,75.0957
80.2250,75.0000
80.2250,73.0000
80.2440,72.9043
80.2982,72.8232
80.3793,72.7690
80.4750,72.7500
82.5250,72.7500
82.6207,72.7690
82.7018,72.8232
82.7560,72.9043
82.7750,73.0000
Z" /> 
<path style="fill:#000000; fill-opacity:1.0000; stroke:none;fill-rule:evenodd;"
d="M 94.7750,72.8000
94.7560,72.8957
94.7018,72.9768
94.6207,73.0310
94.5250,73.0500
92.4750,73.0500
92.3793,73.0310
92.2982,72.9768
92.2440,72.8957
92.2250,72.8000
92.2250,70.8000
92.2440,70.7043
92.2982,70.6232
92.3793,70.5690
92.4750,70.5500
94.5250,70.5500
94.6207,70.5690
94.7018,70.6232
94.7560,70.7043
94.7750,70.8000
Z" /> 
<path style="fill:#000000; fill-opacity:1.0000; stroke:none;fill-rule:evenodd;"
d="M 65.7750,58.0000
65.7560,58.0957
65.7018,58.1768
65.6207,58.2310
65.5250,58.2500
63.4750,58.2500
63.3793,58.2310
63.2982,58.1768
63.2440,58.0957
63.2250,58.0000
63.2250,56.0000
63.2440,55.9043
63.2982,55.8232
63.3793,55.7690
63.4750,55.7500
65.5250,55.7500
65.6207,55.7690
65.7018,55.8232
65.7560,55.9043
65.7750,56.0000
Z" /> 
<path style="fill:#000000; fill-opacity:1.0000; stroke:none;fill-rule:evenodd;"
d="M 77.7750,55.8000
77.7560,55.8957
77.7018,55.9768
77.6207,56.0310
77.5250,56.0500
75.4750,56.0500
75.3793,56.0310
75.2982,55.9768
75.2440,55.8957
75.2250,55.8000
75.2250,53.8000
75.2440,53.7043
75.2982,53.6232
75.3793,53.5690
75.4750,53.5500
77.5250,53.5500
77.6207,53.5690
77.7018,53.6232
77.7560,53.7043
77.7750,53.8000
Z" /> 
<path style="fill:#000000; fill-opacity:1.0000; stroke:none;fill-rule:evenodd;"
d="M 48.7750,41.0000
48.7560,41.0957
48.7018,41.1768
48.6207,41.2310
48.5250,41.2500
46.4750,41.2500
46.3793,41.2310
46.2982,41.1768
46.2440,41.0957
46.2250,41.0000
46.2250,39.0000
46.2440,38.9043
46.2982,38.8232
46.3793,38.7690
46.4750,38.7500
48.5250,38.7500
48.6207,38.7690
48.7018,38.8232
48.7560,38.9043
48.7750,39.0000
Z" /> 
<path style="fill:#000000; fill-opacity:1.0000; stroke:none;fill-rule:evenodd;"
d="M 60.7750,38.8000
60.7560,38.8957
60.7018,38.9768
60.6207,39.0310
60.5250,39.0500
58.4750,39.0500
58.3793,39.0310
58.2982,38.9768
58.2440,38.8957
58.2250,38.8000
58.2250,36.8000
58.2440,36.7043
58.2982,36.6232
58.3793,36.5690
58.4750,36.5500
60.5250,36.5500
60.6207,36.5690
60.7018,36.6232
60.7560,36.7043
60.7750,36.8000
Z" /> 
<path style="fill:#000000; fill-opacity:1.0000; stroke:none;fill-rule:evenodd;"
d="M 116.7750,92.0000
116.7560,92.0957
116.7018,92.1768
116.6207,92.2310
116.5250,92.2500
114.4750,92.2500
114.3793,92.2310
114.2982,92.1768
114.2440,92.0957
114.2250,92.0000
114.2250,90.0000
114.2440,89.9043
114.2982,89.8232
114.3793,89.7690
114.4750,89.7500
116.5250,89.7500
116.6207,89.7690
116.7018,89.8232
116.7560,89.9043
116.7750,90.0000
Z" /> 
<path style="fill:#000000; fill-opacity:1.0000; stroke:none;fill-rule:evenodd;"
d="M 128.7750,89.8000
128.7560,89.8957
128.7018,89.9768
128.6207,90.0310
128.5250,90.0500
126.4750,90.0500
126.3793,90.0310
126.2982,89.9768
126.2440,89.8957
126.2250,89.8000
126.2250,87.8000
126.2440,87.7043
126.2982,87.6232
126.3793,87.5690
126.4750,87.5500
128.5250,87.5500
128.6207,87.5690
128.7018,87.6232
128.7560,87.7043
128.7750,87.8000
Z" /> 
<path style="fill:#000000; fill-opacity:1.0000; stroke:none;fill-rule:evenodd;"
d="M 99.7750,109.0000
99.7560,109.0957
99.7018,109.1768
99.6207,109.2310
99.5250,109.2500
97.4750,109.2500
97.3793,109.2310
97.2982,109.1768
97.2440,109.0957
97.2250,109.0000
97.2250,107.0000
97.2440,106.9043
97.2982,106.8232
97.3793,106.7690
97.4750,106.7500
99.5250,106.7500
99.6207,106.7690
99.7018,106.8232
99.7560,106.9043
99.7750,107.0000
Z" /> 
<path style="fill:#000000; fill-opacity:1.0000; stroke:none;fill-rule:evenodd;"
d="M 111.7750,106.8000
111.7560,106.8957
111.7018,106.9768
111.6207,107.0310
111.5250,107.0500
109.4750,107.0500
109.3793,107.0310
109.2982,106.9768
109.2440,106.8957
109.2250,106.8000
109.2250,104.8000
109.2440,104.7043
109.2982,104.6232
109.3793,104.5690
109.4750,104.5500
111.5250,104.5500
111.6207,104.5690
111.7018,104.6232
111.7560,104.7043
111.7750,104.8000
Z" /> 
<path style="fill:#000000; fill-opacity:1.0000; stroke:none;fill-rule:evenodd;"
d="M 99.7750,41.0000
99.7560,41.0957
99.7018,41.1768
99.6207,41.2310
99.5250,41.2500
97.4750,41.2500
97.3793,41.2310
97.2982,41.1768
97.2440,41.0957
97.2250,41.0000
97.2250,39.0000
97.2440,38.9043
97.2982,38.8232
97.3793,38.7690
97.4750,38.7500
99.5250,38.7500
99.6207,38.7690
99.7018,38.8232
99.7560,38.9043
99.7750,39.0000
Z" /> 
<path style="fill:#000000; fill-opacity:1.0000; stroke:none;fill-rule:evenodd;"
d="M 111.7750,38.8000
111.7560,38.8957
111.7018,38.9768
111.6207,39.0310
111.5250,39.0500
109.4750,39.0500
109.3793,39.0310
109.2982,38.9768
109.2440,38.8957
109.2250,38.8000
109.2250,36.8000
109.2440,36.7043
109.2982,36.6232
109.3793,36.5690
109.4750,36.5500
111.5250,36.5500
111.6207,36.5690
111.7018,36.6232
111.7560,36.7043
111.7750,36.8000
Z" /> 
<path style="fill:#000000; fill-opacity:1.0000; stroke:none;fill-rule:evenodd;"
d="M 48.7750,58.0000
48.7560,58.0957
48.7018,58.1768
48.6207,58.2310
48.5250,58.2500
46.4750,58.2500
46.3793,58.2310
46.2982,58.1768
46.2440,58.0957
46.2250,58.0000
46.2250,56.0000
46.2440,55.9043
46.2982,55.8232
46.3793,55.7690
46.4750,55.7500
48.5250,55.7500
48.6207,55.7690
48.7018,55.8232
48.7560,55.9043
48.7750,56.0000
Z" /> 
<path style="fill:#000000; fill-opacity:1.0000; stroke:none;fill-rule:evenodd;"
d="M 60.7750,55.8000
60.7560,55.8957
60.7018,55.9768
60.6207,56.0310
60.5250,56.0500
58.4750,56.0500
58.3793,56.0310
58.2982,55.9768
58.2440,55.8957
58.2250,55.8000
58.2250,53.8000
58.2440,53.7043
58.2982,53.6232
58.3793,53.5690
58.4750,53.5500
60.5250,53.5500
60.6207,53.5690
60.7018,53.6232
60.7560,53.7043
60.7750,53.8000
Z" /> 
<path style="fill:#000000; fill-opacity:1.0000; stroke:none;fill-rule:evenodd;"
d="M 99.7750,92.0000
99.7560,92.0957
99.7018,92.1768
99.6207,92.2310
99.5250,92.2500
97.4750,92.2500
97.3793,92.2310
97.2982,92.1768
97.2440,92.0957
97.2250,92.0000
97.2250,90.0000
97.2440,89.9043
97.2982,89.8232
97.3793,89.7690
97.4750,89.7500
99.5250,89.7500
99.6207,89.7690
99.7018,89.8232
99.7560,89.9043
99.7750,90.0000
Z" /> 
<path style="fill:#000000; fill-opacity:1.0000; stroke:none;fill-rule:evenodd;"
d="M 111.7750,89.8000
111.7560,89.8957
111.7018,89.9768
111.6207,90.0310
111.5250,90.0500
109.4750,90.0500
109.3793,90.0310
109.2982,89.9768
109.2440,89.8957
109.2250,89.8000
109.2250,87.8000
109.2440,87.7043
109.2982,87.6232
109.3793,87.5690
109.4750,87.5500
111.5250,87.5500
111.6207,87.5690
111.7018,87.6232
111.7560,87.7043
111.7750,87.8000
Z" /> 
<path style="fill:#000000; fill-opacity:1.0000; stroke:none;fill-rule:evenodd;"
d="M 31.7750,75.0000
31.7560,75.0957
31.7018,75.1768
31.6207,75.2310
31.5250,75.2500
29.4750,75.2500
29.3793,75.2310
29.2982,75.1768
29.2440,75.0957
29.2250,75.0000
29.2250,73.0000
29.2440,72.9043
29.2982,72.8232
29.3793,72.7690
29.4750,72.7500
31.5250,72.7500
31.6207,72.7690
31.7018,72.8232
31.7560,72.9043
31.7750,73.0000
Z" /> 
<path style="fill:#000000; fill-opacity:1.0000; stroke:none;fill-rule:evenodd;"
d="M 43.7750,72.8000
43.7560,72.8957
43.7018,72.9768
43.6207,73.0310
43.5250,73.0500
41.4750,73.0500
41.3793,73.0310
41.2982,72.9768
41.2440,72.8957
41.2250,72.8000
41.2250,70.8000
41.2440,70.7043
41.2982,70.6232
41.3793,70.5690
41.4750,70.5500
43.5250,70.5500
43.6207,70.5690
43.7018,70.6232
43.7560,70.7043
43.7750,70.8000
Z" /> 
<path style="fill:#000000; fill-opacity:1.0000; stroke:none;fill-rule:evenodd;"
d="M 35.9500,46.3750
35.9329,46.4611
35.8841,46.5341
35.8111,46.5829
35.7250,46.6000
35.2750,46.6000
35.1889,46.5829
35.1159,46.5341
35.0671,46.4611
35.0500,46.3750
35.0500,45.6250
35.0671,45.5389
35.1159,45.4659
35.1889,45.4171
35.2750,45.4000
35.7250,45.4000
35.8111,45.4171
35.8841,45.4659
35.9329,45.5389
35.9500,45.6250
Z" /> 
<path style="fill:#000000; fill-opacity:1.0000; stroke:none;fill-rule:evenodd;"
d="M 32.6500,46.3750
32.6329,46.4611
32.5841,46.5341
32.5111,46.5829
32.4250,46.6000
31.9750,46.6000
31.8889,46.5829
31.8159,46.5341
31.7671,46.4611
31.7500,46.3750
31.7500,45.6250
31.7671,45.5389
31.8159,45.4659
31.8889,45.4171
31.9750,45.4000
32.4250,45.4000
32.5111,45.4171
32.5841,45.4659
32.6329,45.5389
32.6500,45.6250
Z" /> 
<path style="fill:#000000; fill-opacity:1.0000; stroke:none;fill-rule:evenodd;"
d="M 65.7750,92.0000
65.7560,92.0957
65.7018,92.1768
65.6207,92.2310
65.5250,92.2500
63.4750,92.2500
63.3793,92.2310
63.2982,92.1768
63.2440,92.0957
63.2250,92.0000
63.2250,90.0000
63.2440,89.9043
63.2982,89.8232
63.3793,89.7690
63.4750,89.7500
65.5250,89.7500
65.6207,89.7690
65.7018,89.8232
65.7560,89.9043
65.7750,90.0000
Z" /> 
<path style="fill:#000000; fill-opacity:1.0000; stroke:none;fill-rule:evenodd;"
d="M 77.7750,89.8000
77.7560,89.8957
77.7018,89.9768
77.6207,90.0310
77.5250,90.0500
75.4750,90.0500
75.3793,90.0310
75.2982,89.9768
75.2440,89.8957
75.2250,89.8000
75.2250,87.8000
75.2440,87.7043
75.2982,87.6232
75.3793,87.5690
75.4750,87.5500
77.5250,87.5500
77.6207,87.5690
77.7018,87.6232
77.7560,87.7043
77.7750,87.8000
Z" /> 
<path style="fill:#000000; fill-opacity:1.0000; stroke:none;fill-rule:evenodd;"
d="M 116.7750,109.0000
116.7560,109.0957
116.7018,109.1768
116.6207,109.2310
116.5250,109.2500
114.4750,109.2500
114.3793,109.2310
114.2982,109.1768
114.2440,109.0957
114.2250,109.0000
114.2250,107.0000
114.2440,106.9043
114.2982,106.8232
114.3793,106.7690
114.4750,106.7500
116.5250,106.7500
116.6207,106.7690
116.7018,106.8232
116.7560,106.9043
116.7750,107.0000
Z" /> 
<path style="fill:#000000; fill-opacity:1.0000; stroke:none;fill-rule:evenodd;"
d="M 128.7750,106.8000
128.7560,106.8957
128.7018,106.9768
128.6207,107.0310
128.5250,107.0500
126.4750,107.0500
126.3793,107.0310
126.2982,106.9768
126.2440,106.8957
126.2250,106.8000
126.2250,104.8000
126.2440,104.7043
126.2982,104.6232
126.3793,104.5690
126.4750,104.5500
128.5250,104.5500
128.6207,104.5690
128.7018,104.6232
128.7560,104.7043
128.7750,104.8000
Z" /> 
<path style="fill:#000000; fill-opacity:1.0000; stroke:none;fill-rule:evenodd;"
d="M 65.7750,41.0000
65.7560,41.0957
65.7018,41.1768
65.6207,41.2310
65.5250,41.2500
63.4750,41.2500
63.3793,41.2310
63.2982,41.1768
63.2440,41.0957
63.2250,41.0000
63.2250,39.0000
63.2440,38.9043
63.2982,38.8232
63.3793,38.7690
63.4750,38.7500
65.5250,38.7500
65.6207,38.7690
65.7018,38.8232
65.7560,38.9043
65.7750,39.0000
Z" /> 
<path style="fill:#000000; fill-opacity:1.0000; stroke:none;fill-rule:evenodd;"
d="M 77.7750,38.8000
77.7560,38.8957
77.7018,38.9768
77.6207,39.0310
77.5250,39.0500
75.4750,39.0500
75.3793,39.0310
75.2982,38.9768
75.2440,38.8957
75.2250,38.8000
75.2250,36.8000
75.2440,36.7043
75.2982,36.6232
75.3793,36.5690
75.4750,36.5500
77.5250,36.5500
77.6207,36.5690
77.7018,36.6232
77.7560,36.7043
77.7750,36.8000
Z" /> 
<path style="fill:#000000; fill-opacity:1.0000; stroke:none;fill-rule:evenodd;"
d="M 82.7750,41.0000
82.7560,41.0957
82.7018,41.1768
82.6207,41.2310
82.5250,41.2500
80.4750,41.2500
80.3793,41.2310
80.2982,41.1768
80.2440,41.0957
80.2250,41.0000
80.2250,39.0000
80.2440,38.9043
80.2982,38.8232
80.3793,38.7690
80.4750,38.7500
82.5250,38.7500
82.6207,38.7690
82.7018,38.8232
82.7560,38.9043
82.7750,39.0000
Z" /> 
<path style="fill:#000000; fill-opacity:1.0000; stroke:none;fill-rule:evenodd;"
d="M 94.7750,38.8000
94.7560,38.8957
94.7018,38.9768
94.6207,39.0310
94.5250,39.0500
92.4750,39.0500
92.3793,39.0310
92.2982,38.9768
92.2440,38.8957
92.2250,38.8000
92.2250,36.8000
92.2440,36.7043
92.2982,36.6232
92.3793,36.5690
92.4750,36.5500
94.5250,36.5500
94.6207,36.5690
94.7018,36.6232
94.7560,36.7043
94.7750,36.8000
Z" /> 
<path style="fill:#000000; fill-opacity:1.0000; stroke:none;fill-rule:evenodd;"
d="M 82.7750,92.0000
82.7560,92.0957
82.7018,92.1768
82.6207,92.2310
82.5250,92.2500
80.4750,92.2500
80.3793,92.2310
80.2982,92.1768
80.2440,92.0957
80.2250,92.0000
80.2250,90.0000
80.2440,89.9043
80.2982,89.8232
80.3793,89.7690
80.4750,89.7500
82.5250,89.7500
82.6207,89.7690
82.7018,89.8232
82.7560,89.9043
82.7750,90.0000
Z" /> 
<path style="fill:#000000; fill-opacity:1.0000; stroke:none;fill-rule:evenodd;"
d="M 94.7750,89.8000
94.7560,89.8957
94.7018,89.9768
94.6207,90.0310
94.5250,90.0500
92.4750,90.0500
92.3793,90.0310
92.2982,89.9768
92.2440,89.8957
92.2250,89.8000
92.2250,87.8000
92.2440,87.7043
92.2982,87.6232
92.3793,87.5690
92.4750,87.5500
94.5250,87.5500
94.6207,87.5690
94.7018,87.6232
94.7560,87.7043
94.7750,87.8000
Z" /> 
<path style="fill:#000000; fill-opacity:1.0000; stroke:none;fill-rule:evenodd;"
d="M 99.7750,58.0000
99.7560,58.0957
99.7018,58.1768
99.6207,58.2310
99.5250,58.2500
97.4750,58.2500
97.3793,58.2310
97.2982,58.1768
97.2440,58.0957
97.2250,58.0000
97.2250,56.0000
97.2440,55.9043
97.2982,55.8232
97.3793,55.7690
97.4750,55.7500
99.5250,55.7500
99.6207,55.7690
99.7018,55.8232
99.7560,55.9043
99.7750,56.0000
Z" /> 
<path style="fill:#000000; fill-opacity:1.0000; stroke:none;fill-rule:evenodd;"
d="M 111.7750,55.8000
111.7560,55.8957
111.7018,55.9768
111.6207,56.0310
111.5250,56.0500
109.4750,56.0500
109.3793,56.0310
109.2982,55.9768
109.2440,55.8957
109.2250,55.8000
109.2250,53.8000
109.2440,53.7043
109.2982,53.6232
109.3793,53.5690
109.4750,53.5500
111.5250,53.5500
111.6207,53.5690
111.7018,53.6232
111.7560,53.7043
111.7750,53.8000
Z" /> 
<path style="fill:#000000; fill-opacity:1.0000; stroke:none;fill-rule:evenodd;"
d="M 82.7750,109.0000
82.7560,109.0957
82.7018,109.1768
82.6207,109.2310
82.5250,109.2500
80.4750,109.2500
80.3793,109.2310
80.2982,109.1768
80.2440,109.0957
80.2250,109.0000
80.2250,107.0000
80.2440,106.9043
80.2982,106.8232
80.3793,106.7690
80.4750,106.7500
82.5250,106.7500
82.6207,106.7690
82.7018,106.8232
82.7560,106.9043
82.7750,107.0000
Z" /> 
<path style="fill:#000000; fill-opacity:1.0000; stroke:none;fill-rule:evenodd;"
d="M 94.7750,106.8000
94.7560,106.8957
94.7018,106.9768
94.6207,107.0310
94.5250,107.0500
92.4750,107.0500
92.3793,107.0310
92.2982,106.9768
92.2440,106.8957
92.2250,106.8000
92.2250,104.8000
92.2440,104.7043
92.2982,104.6232
92.3793,104.5690
92.4750,104.5500
94.5250,104.5500
94.6207,104.5690
94.7018,104.6232
94.7560,104.7043
94.7750,104.8000
Z" /> 
<path style="fill:#000000; fill-opacity:1.0000; stroke:none;fill-rule:evenodd;"
d="M 99.7750,75.0000
99.7560,75.0957
99.7018,75.1768
99.6207,75.2310
99.5250,75.2500
97.4750,75.2500
97.3793,75.2310
97.2982,75.1768
97.2440,75.0957
97.2250,75.0000
97.2250,73.0000
97.2440,72.9043
97.2982,72.8232
97.3793,72.7690
97.4750,72.7500
99.5250,72.7500
99.6207,72.7690
99.7018,72.8232
99.7560,72.9043
99.7750,73.0000
Z" /> 
<path style="fill:#000000; fill-opacity:1.0000; stroke:none;fill-rule:evenodd;"
d="M 111.7750,72.8000
111.7560,72.8957
111.7018,72.9768
111.6207,73.0310
111.5250,73.0500
109.4750,73.0500
109.3793,73.0310
109.2982,72.9768
109.2440,72.8957
109.2250,72.8000
109.2250,70.8000
109.2440,70.7043
109.2982,70.6232
109.3793,70.5690
109.4750,70.5500
111.5250,70.5500
111.6207,70.5690
111.7018,70.6232
111.7560,70.7043
111.7750,70.8000
Z" /> 
<path style="fill:#000000; fill-opacity:1.0000; stroke:none;fill-rule:evenodd;"
d="M 31.7750,41.0000
31.7560,41.0957
31.7018,41.1768
31.6207,41.2310
31.5250,41.2500
29.4750,41.2500
29.3793,41.2310
29.2982,41.1768
29.2440,41.0957
29.2250,41.0000
29.2250,39.0000
29.2440,38.9043
29.2982,38.8232
29.3793,38.7690
29.4750,38.7500
31.5250,38.7500
31.6207,38.7690
31.7018,38.8232
31.7560,38.9043
31.7750,39.0000
Z" /> 
<path style="fill:#000000; fill-opacity:1.0000; stroke:none;fill-rule:evenodd;"
d="M 43.7750,38.8000
43.7560,38.8957
43.7018,38.9768
43.6207,39.0310
43.5250,39.0500
41.4750,39.0500
41.3793,39.0310
41.2982,38.9768
41.2440,38.8957
41.2250,38.8000
41.2250,36.8000
41.2440,36.7043
41.2982,36.6232
41.3793,36.5690
41.4750,36.5500
43.5250,36.5500
43.6207,36.5690
43.7018,36.6232
43.7560,36.7043
43.7750,36.8000
Z" /> 
<path style="fill:#000000; fill-opacity:1.0000; stroke:none;fill-rule:evenodd;"
d="M 48.7750,75.0000
48.7560,75.0957
48.7018,75.1768
48.6207,75.2310
48.5250,75.2500
46.4750,75.2500
46.3793,75.2310
46.2982,75.1768
46.2440,75.0957
46.2250,75.0000
46.2250,73.0000
46.2440,72.9043
46.2982,72.8232
46.3793,72.7690
46.4750,72.7500
48.5250,72.7500
48.6207,72.7690
48.7018,72.8232
48.7560,72.9043
48.7750,73.0000
Z" /> 
<path style="fill:#000000; fill-opacity:1.0000; stroke:none;fill-rule:evenodd;"
d="M 60.7750,72.8000
60.7560,72.8957
60.7018,72.9768
60.6207,73.0310
60.5250,73.0500
58.4750,73.0500
58.3793,73.0310
58.2982,72.9768
58.2440,72.8957
58.2250,72.8000
58.2250,70.8000
58.2440,70.7043
58.2982,70.6232
58.3793,70.5690
58.4750,70.5500
60.5250,70.5500
60.6207,70.5690
60.7018,70.6232
60.7560,70.7043
60.7750,70.8000
Z" /> 
<path style="fill:#000000; fill-opacity:1.0000; stroke:none;fill-rule:evenodd;"
d="M 48.7750,92.0000
48.7560,92.0957
48.7018,92.1768
48.6207,92.2310
48.5250,92.2500
46.4750,92.2500
46.3793,92.2310
46.2982,92.1768
46.2440,92.0957
46.2250,92.0000
46.2250,90.0000
46.2440,89.9043
46.2982,89.8232
46.3793,89.7690
46.4750,89.7500
48.5250,89.7500
48.6207,89.7690
48.7018,89.8232
48.7560,89.9043
48.7750,90.0000
Z" /> 
<path style="fill:#000000; fill-opacity:1.0000; stroke:none;fill-rule:evenodd;"
d="M 60.7750,89.8000
60.7560,89.8957
60.7018,89.9768
60.6207,90.0310
60.5250,90.0500
58.4750,90.0500
58.3793,90.0310
58.2982,89.9768
58.2440,89.8957
58.2250,89.8000
58.2250,87.8000
58.2440,87.7043
58.2982,87.6232
58.3793,87.5690
58.4750,87.5500
60.5250,87.5500
60.6207,87.5690
60.7018,87.6232
60.7560,87.7043
60.7750,87.8000
Z" /> 
<path style="fill:#000000; fill-opacity:1.0000; stroke:none;fill-rule:evenodd;"
d="M 48.7750,109.0000
48.7560,109.0957
48.7018,109.1768
48.6207,109.2310
48.5250,109.2500
46.4750,109.2500
46.3793,109.2310
46.2982,109.1768
46.2440,109.0957
46.2250,109.0000
46.2250,107.0000
46.2440,106.9043
46.2982,106.8232
46.3793,106.7690
46.4750,106.7500
48.5250,106.7500
48.6207,106.7690
48.7018,106.8232
48.7560,106.9043
48.7750,107.0000
Z" /> 
<path style="fill:#000000; fill-opacity:1.0000; stroke:none;fill-rule:evenodd;"
d="M 60.7750,106.8000
60.7560,106.8957
60.7018,106.9768
60.6207,107.0310
60.5250,107.0500
58.4750,107.0500
58.3793,107.0310
58.2982,106.9768
58.2440,106.8957
58.2250,106.8000
58.2250,104.8000
58.2440,104.7043
58.2982,104.6232
58.3793,104.5690
58.4750,104.5500
60.5250,104.5500
60.6207,104.5690
60.7018,104.6232
60.7560,104.7043
60.7750,104.8000
Z" /> 
<path style="fill:#000000; fill-opacity:1.0000; stroke:none;fill-rule:evenodd;"
d="M 65.7750,75.0000
65.7560,75.0957
65.7018,75.1768
65.6207,75.2310
65.5250,75.2500
63.4750,75.2500
63.3793,75.2310
63.2982,75.1768
63.2440,75.0957
63.2250,75.0000
63.2250,73.0000
63.2440,72.9043
63.2982,72.8232
63.3793,72.7690
63.4750,72.7500
65.5250,72.7500
65.6207,72.7690
65.7018,72.8232
65.7560,72.9043
65.7750,73.0000
Z" /> 
<path style="fill:#000000; fill-opacity:1.0000; stroke:none;fill-rule:evenodd;"
d="M 77.7750,72.8000
77.7560,72.8957
77.7018,72.9768
77.6207,73.0310
77.5250,73.0500
75.4750,73.0500
75.3793,73.0310
75.2982,72.9768
75.2440,72.8957
75.2250,72.8000
75.2250,70.8000
75.2440,70.7043
75.2982,70.6232
75.3793,70.5690
75.4750,70.5500
77.5250,70.5500
77.6207,70.5690
77.7018,70.6232
77.7560,70.7043
77.7750,70.8000
Z" /> 
<path style="fill:#000000; fill-opacity:1.0000; stroke:none;fill-rule:evenodd;"
d="M 69.9500,97.3750
69.9329,97.4611
69.8841,97.5341
69.8111,97.5829
69.7250,97.6000
69.2750,97.6000
69.1889,97.5829
69.1159,97.5341
69.0671,97.4611
69.0500,97.3750
69.0500,96.6250
69.0671,96.5389
69.1159,96.4659
69.1889,96.4171
69.2750,96.4000
69.7250,96.4000
69.8111,96.4171
69.8841,96.4659
69.9329,96.5389
69.9500,96.6250
Z" /> 
<path style="fill:#000000; fill-opacity:1.0000; stroke:none;fill-rule:evenodd;"
d="M 66.6500,97.3750
66.6329,97.4611
66.5841,97.5341
66.5111,97.5829
66.4250,97.6000
65.9750,97.6000
65.8889,97.5829
65.8159,97.5341
65.7671,97.4611
65.7500,97.3750
65.7500,96.6250
65.7671,96.5389
65.8159,96.4659
65.8889,96.4171
65.9750,96.4000
66.4250,96.4000
66.5111,96.4171
66.5841,96.4659
66.6329,96.5389
66.6500,96.6250
Z" /> 
<path style="fill:#000000; fill-opacity:1.0000; stroke:none;fill-rule:evenodd;"
d="M 120.9500,63.3750
120.9329,63.4611
120.8841,63.5341
120.8111,63.5829
120.7250,63.6000
120.2750,63.6000
120.1889,63.5829
120.1159,63.5341
120.0671,63.4611
120.0500,63.3750
120.0500,62.6250
120.0671,62.5389
120.1159,62.4659
120.1889,62.4171
120.2750,62.4000
120.7250,62.4000
120.8111,62.4171
120.8841,62.4659
120.9329,62.5389
120.9500,62.6250
Z" /> 
<path style="fill:#000000; fill-opacity:1.0000; stroke:none;fill-rule:evenodd;"
d="M 117.6500,63.3750
117.6329,63.4611
117.5841,63.5341
117.5111,63.5829
117.4250,63.6000
116.9750,63.6000
116.8889,63.5829
116.8159,63.5341
116.7671,63.4611
116.7500,63.3750
116.7500,62.6250
116.7671,62.5389
116.8159,62.4659
116.8889,62.4171
116.9750,62.4000
117.4250,62.4000
117.5111,62.4171
117.5841,62.4659
117.6329,62.5389
117.6500,62.6250
Z" /> 
<path style="fill:#000000; fill-opacity:1.0000; stroke:none;fill-rule:evenodd;"
d="M 69.9500,46.3750
69.9329,46.4611
69.8841,46.5341
69.8111,46.5829
69.7250,46.6000
69.2750,46.6000
69.1889,46.5829
69.1159,46.5341
69.0671,46.4611
69.0500,46.3750
69.0500,45.6250
69.0671,45.5389
69.1159,45.4659
69.1889,45.4171
69.2750,45.4000
69.7250,45.4000
69.8111,45.4171
69.8841,45.4659
69.9329,45.5389
69.9500,45.6250
Z" /> 
<path style="fill:#000000; fill-opacity:1.0000; stroke:none;fill-rule:evenodd;"
d="M 66.6500,46.3750
66.6329,46.4611
66.5841,46.5341
66.5111,46.5829
66.4250,46.6000
65.9750,46.6000
65.8889,46.5829
65.8159,46.5341
65.7671,46.4611
65.7500,46.3750
65.7500,45.6250
65.7671,45.5389
65.8159,45.4659
65.8889,45.4171
65.9750,45.4000
66.4250,45.4000
66.5111,45.4171
66.5841,45.4659
66.6329,45.5389
66.6500,45.6250
Z" /> 
<path style="fill:#000000; fill-opacity:1.0000; stroke:none;fill-rule:evenodd;"
d="M 86.9500,46.3750
86.9329,46.4611
86.8841,46.5341
86.8111,46.5829
86.7250,46.6000
86.2750,46.6000
86.1889,46.5829
86.1159,46.5341
86.0671,46.4611
86.0500,46.3750
86.0500,45.6250
86.0671,45.5389
86.1159,45.4659
86.1889,45.4171
86.2750,45.4000
86.7250,45.4000
86.8111,45.4171
86.8841,45.4659
86.9329,45.5389
86.9500,45.6250
Z" /> 
<path style="fill:#000000; fill-opacity:1.0000; stroke:none;fill-rule:evenodd;"
d="M 83.6500,46.3750
83.6329,46.4611
83.5841,46.5341
83.5111,46.5829
83.4250,46.6000
82.9750,46.6000
82.8889,46.5829
82.8159,46.5341
82.7671,46.4611
82.7500,46.3750
82.7500,45.6250
82.7671,45.5389
82.8159,45.4659
82.8889,45.4171
82.9750,45.4000
83.4250,45.4000
83.5111,45.4171
83.5841,45.4659
83.6329,45.5389
83.6500,45.6250
Z" /> 
<path style="fill:#000000; fill-opacity:1.0000; stroke:none;fill-rule:evenodd;"
d="M 69.9500,63.3750
69.9329,63.4611
69.8841,63.5341
69.8111,63.5829
69.7250,63.6000
69.2750,63.6000
69.1889,63.5829
69.1159,63.5341
69.0671,63.4611
69.0500,63.3750
69.0500,62.6250
69.0671,62.5389
69.1159,62.4659
69.1889,62.4171
69.2750,62.4000
69.7250,62.4000
69.8111,62.4171
69.8841,62.4659
69.9329,62.5389
69.9500,62.6250
Z" /> 
<path style="fill:#000000; fill-opacity:1.0000; stroke:none;fill-rule:evenodd;"
d="M 66.6500,63.3750
66.6329,63.4611
66.5841,63.5341
66.5111,63.5829
66.4250,63.6000
65.9750,63.6000
65.8889,63.5829
65.8159,63.5341
65.7671,63.4611
65.7500,63.3750
65.7500,62.6250
65.7671,62.5389
65.8159,62.4659
65.8889,62.4171
65.9750,62.4000
66.4250,62.4000
66.5111,62.4171
66.5841,62.4659
66.6329,62.5389
66.6500,62.6250
Z" /> 
<path style="fill:#000000; fill-opacity:1.0000; stroke:none;fill-rule:evenodd;"
d="M 86.9500,80.3750
86.9329,80.4611
86.8841,80.5341
86.8111,80.5829
86.7250,80.6000
86.2750,80.6000
86.1889,80.5829
86.1159,80.5341
86.0671,80.4611
86.0500,80.3750
86.0500,79.6250
86.0671,79.5389
86.1159,79.4659
86.1889,79.4171
86.2750,79.4000
86.7250,79.4000
86.8111,79.4171
86.8841,79.4659
86.9329,79.5389
86.9500,79.6250
Z" /> 
<path style="fill:#000000; fill-opacity:1.0000; stroke:none;fill-rule:evenodd;"
d="M 83.6500,80.3750
83.6329,80.4611
83.5841,80.5341
83.5111,80.5829
83.4250,80.6000
82.9750,80.6000
82.8889,80.5829
82.8159,80.5341
82.7671,80.4611
82.7500,80.3750
82.7500,79.6250
82.7671,79.5389
82.8159,79.4659
82.8889,79.4171
82.9750,79.4000
83.4250,79.4000
83.5111,79.4171
83.5841,79.4659
83.6329,79.5389
83.6500,79.6250
Z" /> 
<path style="fill:#000000; fill-opacity:1.0000; stroke:none;fill-rule:evenodd;"
d="M 52.9500,63.3750
52.9329,63.4611
52.8841,63.5341
52.8111,63.5829
52.7250,63.6000
52.2750,63.6000
52.1889,63.5829
52.1159,63.5341
52.0671,63.4611
52.0500,63.3750
52.0500,62.6250
52.0671,62.5389
52.1159,62.4659
52.1889,62.4171
52.2750,62.4000
52.7250,62.4000
52.8111,62.4171
52.8841,62.4659
52.9329,62.5389
52.9500,62.6250
Z" /> 
<path style="fill:#000000; fill-opacity:1.0000; stroke:none;fill-rule:evenodd;"
d="M 49.6500,63.3750
49.6329,63.4611
49.5841,63.5341
49.5111,63.5829
49.4250,63.6000
48.9750,63.6000
48.8889,63.5829
48.8159,63.5341
48.7671,63.4611
48.7500,63.3750
48.7500,62.6250
48.7671,62.5389
48.8159,62.4659
48.8889,62.4171
48.9750,62.4000
49.4250,62.4000
49.5111,62.4171
49.5841,62.4659
49.6329,62.5389
49.6500,62.6250
Z" /> 
<path style="fill:#000000; fill-opacity:1.0000; stroke:none;fill-rule:evenodd;"
d="M 86.9500,63.3750
86.9329,63.4611
86.8841,63.5341
86.8111,63.5829
86.7250,63.6000
86.2750,63.6000
86.1889,63.5829
86.1159,63.5341
86.0671,63.4611
86.0500,63.3750
86.0500,62.6250
86.0671,62.5389
86.1159,62.4659
86.1889,62.4171
86.2750,62.4000
86.7250,62.4000
86.8111,62.4171
86.8841,62.4659
86.9329,62.5389
86.9500,62.6250
Z" /> 
<path style="fill:#000000; fill-opacity:1.0000; stroke:none;fill-rule:evenodd;"
d="M 83.6500,63.3750
83.6329,63.4611
83.5841,63.5341
83.5111,63.5829
83.4250,63.6000
82.9750,63.6000
82.8889,63.5829
82.8159,63.5341
82.7671,63.4611
82.7500,63.3750
82.7500,62.6250
82.7671,62.5389
82.8159,62.4659
82.8889,62.4171
82.9750,62.4000
83.4250,62.4000
83.5111,62.4171
83.5841,62.4659
83.6329,62.5389
83.6500,62.6250
Z" /> 
<path style="fill:#000000; fill-opacity:1.0000; stroke:none;fill-rule:evenodd;"
d="M 103.9500,29.3750
103.9329,29.4611
103.8841,29.5341
103.8111,29.5829
103.7250,29.6000
103.2750,29.6000
103.1889,29.5829
103.1159,29.5341
103.0671,29.4611
103.0500,29.3750
103.0500,28.6250
103.0671,28.5389
103.1159,28.4659
103.1889,28.4171
103.2750,28.4000
103.7250,28.4000
103.8111,28.4171
103.8841,28.4659
103.9329,28.5389
103.9500,28.6250
Z" /> 
<path style="fill:#000000; fill-opacity:1.0000; stroke:none;fill-rule:evenodd;"
d="M 100.6500,29.3750
100.6329,29.4611
100.5841,29.5341
100.5111,29.5829
100.4250,29.6000
99.9750,29.6000
99.8889,29.5829
99.8159,29.5341
99.7671,29.4611
99.7500,29.3750
99.7500,28.6250
99.7671,28.5389
99.8159,28.4659
99.8889,28.4171
99.9750,28.4000
100.4250,28.4000
100.5111,28.4171
100.5841,28.4659
100.6329,28.5389
100.6500,28.6250
Z" /> 
<path style="fill:#000000; fill-opacity:1.0000; stroke:none;fill-rule:evenodd;"
d="M 35.9500,63.3750
35.9329,63.4611
35.8841,63.5341
35.8111,63.5829
35.7250,63.6000
35.2750,63.6000
35.1889,63.5829
35.1159,63.5341
35.0671,63.4611
35.0500,63.3750
35.0500,62.6250
35.0671,62.5389
35.1159,62.4659
35.1889,62.4171
35.2750,62.4000
35.7250,62.4000
35.8111,62.4171
35.8841,62.4659
35.9329,62.5389
35.9500,62.6250
Z" /> 
<path style="fill:#000000; fill-opacity:1.0000; stroke:none;fill-rule:evenodd;"
d="M 32.6500,63.3750
32.6329,63.4611
32.5841,63.5341
32.5111,63.5829
32.4250,63.6000
31.9750,63.6000
31.8889,63.5829
31.8159,63.5341
31.7671,63.4611
31.7500,63.3750
31.7500,62.6250
31.7671,62.5389
31.8159,62.4659
31.8889,62.4171
31.9750,62.4000
32.4250,62.4000
32.5111,62.4171
32.5841,62.4659
32.6329,62.5389
32.6500,62.6250
Z" /> 
<path style="fill:#000000; fill-opacity:1.0000; stroke:none;fill-rule:evenodd;"
d="M 52.9500,46.3750
52.9329,46.4611
52.8841,46.5341
52.8111,46.5829
52.7250,46.6000
52.2750,46.6000
52.1889,46.5829
52.1159,46.5341
52.0671,46.4611
52.0500,46.3750
52.0500,45.6250
52.0671,45.5389
52.1159,45.4659
52.1889,45.4171
52.2750,45.4000
52.7250,45.4000
52.8111,45.4171
52.8841,45.4659
52.9329,45.5389
52.9500,45.6250
Z" /> 
<path style="fill:#000000; fill-opacity:1.0000; stroke:none;fill-rule:evenodd;"
d="M 49.6500,46.3750
49.6329,46.4611
49.5841,46.5341
49.5111,46.5829
49.4250,46.6000
48.9750,46.6000
48.8889,46.5829
48.8159,46.5341
48.7671,46.4611
48.7500,46.3750
48.7500,45.6250
48.7671,45.5389
48.8159,45.4659
48.8889,45.4171
48.9750,45.4000
49.4250,45.4000
49.5111,45.4171
49.5841,45.4659
49.6329,45.5389
49.6500,45.6250
Z" /> 
<path style="fill:#000000; fill-opacity:1.0000; stroke:none;fill-rule:evenodd;"
d="M 103.9500,97.3750
103.9329,97.4611
103.8841,97.5341
103.8111,97.5829
103.7250,97.6000
103.2750,97.6000
103.1889,97.5829
103.1159,97.5341
103.0671,97.4611
103.0500,97.3750
103.0500,96.6250
103.0671,96.5389
103.1159,96.4659
103.1889,96.4171
103.2750,96.4000
103.7250,96.4000
103.8111,96.4171
103.8841,96.4659
103.9329,96.5389
103.9500,96.6250
Z" /> 
<path style="fill:#000000; fill-opacity:1.0000; stroke:none;fill-rule:evenodd;"
d="M 100.6500,97.3750
100.6329,97.4611
100.5841,97.5341
100.5111,97.5829
100.4250,97.6000
99.9750,97.6000
99.8889,97.5829
99.8159,97.5341
99.7671,97.4611
99.7500,97.3750
99.7500,96.6250
99.7671,96.5389
99.8159,96.4659
99.8889,96.4171
99.9750,96.4000
100.4250,96.4000
100.5111,96.4171
100.5841,96.4659
100.6329,96.5389
100.6500,96.6250
Z" /> 
<path style="fill:#000000; fill-opacity:1.0000; stroke:none;fill-rule:evenodd;"
d="M 52.9500,29.3750
52.9329,29.4611
52.8841,29.5341
52.8111,29.5829
52.7250,29.6000
52.2750,29.6000
52.1889,29.5829
52.1159,29.5341
52.0671,29.4611
52.0500,29.3750
52.0500,28.6250
52.0671,28.5389
52.1159,28.4659
52.1889,28.4171
52.2750,28.4000
52.7250,28.4000
52.8111,28.4171
52.8841,28.4659
52.9329,28.5389
52.9500,28.6250
Z" /> 
<path style="fill:#000000; fill-opacity:1.0000; stroke:none;fill-rule:evenodd;"
d="M 49.6500,29.3750
49.6329,29.4611
49.5841,29.5341
49.5111,29.5829
49.4250,29.6000
48.9750,29.6000
48.8889,29.5829
48.8159,29.5341
48.7671,29.4611
48.7500,29.3750
48.7500,28.6250
48.7671,28.5389
48.8159,28.4659
48.8889,28.4171
48.9750,28.4000
49.4250,28.4000
49.5111,28.4171
49.5841,28.4659
49.6329,28.5389
49.6500,28.6250
Z" /> 
<path style="fill:#000000; fill-opacity:1.0000; stroke:none;fill-rule:evenodd;"
d="M 86.9500,29.3750
86.9329,29.4611
86.8841,29.5341
86.8111,29.5829
86.7250,29.6000
86.2750,29.6000
86.1889,29.5829
86.1159,29.5341
86.0671,29.4611
86.0500,29.3750
86.0500,28.6250
86.0671,28.5389
86.1159,28.4659
86.1889,28.4171
86.2750,28.4000
86.7250,28.4000
86.8111,28.4171
86.8841,28.4659
86.9329,28.5389
86.9500,28.6250
Z" /> 
<path style="fill:#000000; fill-opacity:1.0000; stroke:none;fill-rule:evenodd;"
d="M 83.6500,29.3750
83.6329,29.4611
83.5841,29.5341
83.5111,29.5829
83.4250,29.6000
82.9750,29.6000
82.8889,29.5829
82.8159,29.5341
82.7671,29.4611
82.7500,29.3750
82.7500,28.6250
82.7671,28.5389
82.8159,28.4659
82.8889,28.4171
82.9750,28.4000
83.4250,28.4000
83.5111,28.4171
83.5841,28.4659
83.6329,28.5389
83.6500,28.6250
Z" /> 
<path style="fill:#000000; fill-opacity:1.0000; stroke:none;fill-rule:evenodd;"
d="M 52.9500,97.3750
52.9329,97.4611
52.8841,97.5341
52.8111,97.5829
52.7250,97.6000
52.2750,97.6000
52.1889,97.5829
52.1159,97.5341
52.0671,97.4611
52.0500,97.3750
52.0500,96.6250
52.0671,96.5389
52.1159,96.4659
52.1889,96.4171
52.2750,96.4000
52.7250,96.4000
52.8111,96.4171
52.8841,96.4659
52.9329,96.5389
52.9500,96.6250
Z" /> 
<path style="fill:#000000; fill-opacity:1.0000; stroke:none;fill-rule:evenodd;"
d="M 49.6500,97.3750
49.6329,97.4611
49.5841,97.5341
49.5111,97.5829
49.4250,97.6000
48.9750,97.6000
48.8889,97.5829
48.8159,97.5341
48.7671,97.4611
48.7500,97.3750
48.7500,96.6250
48.7671,96.5389
48.8159,96.4659
48.8889,96.4171
48.9750,96.4000
49.4250,96.4000
49.5111,96.4171
49.5841,96.4659
49.6329,96.5389
49.6500,96.6250
Z" /> 
<path style="fill:#000000; fill-opacity:1.0000; stroke:none;fill-rule:evenodd;"
d="M 69.9500,29.3750
69.9329,29.4611
69.8841,29.5341
69.8111,29.5829
69.7250,29.6000
69.2750,29.6000
69.1889,29.5829
69.1159,29.5341
69.0671,29.4611
69.0500,29.3750
69.0500,28.6250
69.0671,28.5389
69.1159,28.4659
69.1889,28.4171
69.2750,28.4000
69.7250,28.4000
69.8111,28.4171
69.8841,28.4659
69.9329,28.5389
69.9500,28.6250
Z" /> 
<path style="fill:#000000; fill-opacity:1.0000; stroke:none;fill-rule:evenodd;"
d="M 66.6500,29.3750
66.6329,29.4611
66.5841,29.5341
66.5111,29.5829
66.4250,29.6000
65.9750,29.6000
65.8889,29.5829
65.8159,29.5341
65.7671,29.4611
65.7500,29.3750
65.7500,28.6250
65.7671,28.5389
65.8159,28.4659
65.8889,28.4171
65.9750,28.4000
66.4250,28.4000
66.5111,28.4171
66.5841,28.4659
66.6329,28.5389
66.6500,28.6250
Z" /> 
<path style="fill:#000000; fill-opacity:1.0000; stroke:none;fill-rule:evenodd;"
d="M 86.9500,97.3750
86.9329,97.4611
86.8841,97.5341
86.8111,97.5829
86.7250,97.6000
86.2750,97.6000
86.1889,97.5829
86.1159,97.5341
86.0671,97.4611
86.0500,97.3750
86.0500,96.6250
86.0671,96.5389
86.1159,96.4659
86.1889,96.4171
86.2750,96.4000
86.7250,96.4000
86.8111,96.4171
86.8841,96.4659
86.9329,96.5389
86.9500,96.6250
Z" /> 
<path style="fill:#000000; fill-opacity:1.0000; stroke:none;fill-rule:evenodd;"
d="M 83.6500,97.3750
83.6329,97.4611
83.5841,97.5341
83.5111,97.5829
83.4250,97.6000
82.9750,97.6000
82.8889,97.5829
82.8159,97.5341
82.7671,97.4611
82.7500,97.3750
82.7500,96.6250
82.7671,96.5389
82.8159,96.4659
82.8889,96.4171
82.9750,96.4000
83.4250,96.4000
83.5111,96.4171
83.5841,96.4659
83.6329,96.5389
83.6500,96.6250
Z" /> 
<path style="fill:#000000; fill-opacity:1.0000; stroke:none;fill-rule:evenodd;"
d="M 120.9500,29.3750
120.9329,29.4611
120.8841,29.5341
120.8111,29.5829
120.7250,29.6000
120.2750,29.6000
120.1889,29.5829
120.1159,29.5341
120.0671,29.4611
120.0500,29.3750
120.0500,28.6250
120.0671,28.5389
120.1159,28.4659
120.1889,28.4171
120.2750,28.4000
120.7250,28.4000
120.8111,28.4171
120.8841,28.4659
120.9329,28.5389
120.9500,28.6250
Z" /> 
<path style="fill:#000000; fill-opacity:1.0000; stroke:none;fill-rule:evenodd;"
d="M 117.6500,29.3750
117.6329,29.4611
117.5841,29.5341
117.5111,29.5829
117.4250,29.6000
116.9750,29.6000
116.8889,29.5829
116.8159,29.5341
116.7671,29.4611
116.7500,29.3750
116.7500,28.6250
116.7671,28.5389
116.8159,28.4659
116.8889,28.4171
116.9750,28.4000
117.4250,28.4000
117.5111,28.4171
117.5841,28.4659
117.6329,28.5389
117.6500,28.6250
Z" /> 
<path style="fill:#000000; fill-opacity:1.0000; stroke:none;fill-rule:evenodd;"
d="M 103.9500,80.3750
103.9329,80.4611
103.8841,80.5341
103.8111,80.5829
103.7250,80.6000
103.2750,80.6000
103.1889,80.5829
103.1159,80.5341
103.0671,80.4611
103.0500,80.3750
103.0500,79.6250
103.0671,79.5389
103.1159,79.4659
103.1889,79.4171
103.2750,79.4000
103.7250,79.4000
103.8111,79.4171
103.8841,79.4659
103.9329,79.5389
103.9500,79.6250
Z" /> 
<path style="fill:#000000; fill-opacity:1.0000; stroke:none;fill-rule:evenodd;"
d="M 100.6500,80.3750
100.6329,80.4611
100.5841,80.5341
100.5111,80.5829
100.4250,80.6000
99.9750,80.6000
99.8889,80.5829
99.8159,80.5341
99.7671,80.4611
99.7500,80.3750
99.7500,79.6250
99.7671,79.5389
99.8159,79.4659
99.8889,79.4171
99.9750,79.4000
100.4250,79.4000
100.5111,79.4171
100.5841,79.4659
100.6329,79.5389
100.6500,79.6250
Z" /> 
<path style="fill:#000000; fill-opacity:1.0000; stroke:none;fill-rule:evenodd;"
d="M 120.9500,46.3750
120.9329,46.4611
120.8841,46.5341
120.8111,46.5829
120.7250,46.6000
120.2750,46.6000
120.1889,46.5829
120.1159,46.5341
120.0671,46.4611
120.0500,46.3750
120.0500,45.6250
120.0671,45.5389
120.1159,45.4659
120.1889,45.4171
120.2750,45.4000
120.7250,45.4000
120.8111,45.4171
120.8841,45.4659
120.9329,45.5389
120.9500,45.6250
Z" /> 
<path style="fill:#000000; fill-opacity:1.0000; stroke:none;fill-rule:evenodd;"
d="M 117.6500,46.3750
117.6329,46.4611
117.5841,46.5341
117.5111,46.5829
117.4250,46.6000
116.9750,46.6000
116.8889,46.5829
116.8159,46.5341
116.7671,46.4611
116.7500,46.3750
116.7500,45.6250
116.7671,45.5389
116.8159,45.4659
116.8889,45.4171
116.9750,45.4000
117.4250,45.4000
117.5111,45.4171
117.5841,45.4659
117.6329,45.5389
117.6500,45.6250
Z" /> 
<path style="fill:#000000; fill-opacity:1.0000; stroke:none;fill-rule:evenodd;"
d="M 120.9500,80.3750
120.9329,80.4611
120.8841,80.5341
120.8111,80.5829
120.7250,80.6000
120.2750,80.6000
120.1889,80.5829
120.1159,80.5341
120.0671,80.4611
120.0500,80.3750
120.0500,79.6250
120.0671,79.5389
120.1159,79.4659
120.1889,79.4171
120.2750,79.4000
120.7250,79.4000
120.8111,79.4171
120.8841,79.4659
120.9329,79.5389
120.9500,79.6250
Z" /> 
<path style="fill:#000000; fill-opacity:1.0000; stroke:none;fill-rule:evenodd;"
d="M 117.6500,80.3750
117.6329,80.4611
117.5841,80.5341
117.5111,80.5829
117.4250,80.6000
116.9750,80.6000
116.8889,80.5829
116.8159,80.5341
116.7671,80.4611
116.7500,80.3750
116.7500,79.6250
116.7671,79.5389
116.8159,79.4659
116.8889,79.4171
116.9750,79.4000
117.4250,79.4000
117.5111,79.4171
117.5841,79.4659
117.6329,79.5389
117.6500,79.6250
Z" /> 
<path style="fill:#000000; fill-opacity:1.0000; stroke:none;fill-rule:evenodd;"
d="M 120.9500,97.3750
120.9329,97.4611
120.8841,97.5341
120.8111,97.5829
120.7250,97.6000
120.2750,97.6000
120.1889,97.5829
120.1159,97.5341
120.0671,97.4611
120.0500,97.3750
120.0500,96.6250
120.0671,96.5389
120.1159,96.4659
120.1889,96.4171
120.2750,96.4000
120.7250,96.4000
120.8111,96.4171
120.8841,96.4659
120.9329,96.5389
120.9500,96.6250
Z" /> 
<path style="fill:#000000; fill-opacity:1.0000; stroke:none;fill-rule:evenodd;"
d="M 117.6500,97.3750
117.6329,97.4611
117.5841,97.5341
117.5111,97.5829
117.4250,97.6000
116.9750,97.6000
116.8889,97.5829
116.8159,97.5341
116.7671,97.4611
116.7500,97.3750
116.7500,96.6250
116.7671,96.5389
116.8159,96.4659
116.8889,96.4171
116.9750,96.4000
117.4250,96.4000
117.5111,96.4171
117.5841,96.4659
117.6329,96.5389
117.6500,96.6250
Z" /> 
<path style="fill:#000000; fill-opacity:1.0000; stroke:none;fill-rule:evenodd;"
d="M 52.9500,80.3750
52.9329,80.4611
52.8841,80.5341
52.8111,80.5829
52.7250,80.6000
52.2750,80.6000
52.1889,80.5829
52.1159,80.5341
52.0671,80.4611
52.0500,80.3750
52.0500,79.6250
52.0671,79.5389
52.1159,79.4659
52.1889,79.4171
52.2750,79.4000
52.7250,79.4000
52.8111,79.4171
52.8841,79.4659
52.9329,79.5389
52.9500,79.6250
Z" /> 
<path style="fill:#000000; fill-opacity:1.0000; stroke:none;fill-rule:evenodd;"
d="M 49.6500,80.3750
49.6329,80.4611
49.5841,80.5341
49.5111,80.5829
49.4250,80.6000
48.9750,80.6000
48.8889,80.5829
48.8159,80.5341
48.7671,80.4611
48.7500,80.3750
48.7500,79.6250
48.7671,79.5389
48.8159,79.4659
48.8889,79.4171
48.9750,79.4000
49.4250,79.4000
49.5111,79.4171
49.5841,79.4659
49.6329,79.5389
49.6500,79.6250
Z" /> 
<path style="fill:#000000; fill-opacity:1.0000; stroke:none;fill-rule:evenodd;"
d="M 103.9500,46.3750
103.9329,46.4611
103.8841,46.5341
103.8111,46.5829
103.7250,46.6000
103.2750,46.6000
103.1889,46.5829
103.1159,46.5341
103.0671,46.4611
103.0500,46.3750
103.0500,45.6250
103.0671,45.5389
103.1159,45.4659
103.1889,45.4171
103.2750,45.4000
103.7250,45.4000
103.8111,45.4171
103.8841,45.4659
103.9329,45.5389
103.9500,45.6250
Z" /> 
<path style="fill:#000000; fill-opacity:1.0000; stroke:none;fill-rule:evenodd;"
d="M 100.6500,46.3750
100.6329,46.4611
100.5841,46.5341
100.5111,46.5829
100.4250,46.6000
99.9750,46.6000
99.8889,46.5829
99.8159,46.5341
99.7671,46.4611
99.7500,46.3750
99.7500,45.6250
99.7671,45.5389
99.8159,45.4659
99.8889,45.4171
99.9750,45.4000
100.4250,45.4000
100.5111,45.4171
100.5841,45.4659
100.6329,45.5389
100.6500,45.6250
Z" /> 
<path style="fill:#000000; fill-opacity:1.0000; stroke:none;fill-rule:evenodd;"
d="M 35.9500,29.3750
35.9329,29.4611
35.8841,29.5341
35.8111,29.5829
35.7250,29.6000
35.2750,29.6000
35.1889,29.5829
35.1159,29.5341
35.0671,29.4611
35.0500,29.3750
35.0500,28.6250
35.0671,28.5389
35.1159,28.4659
35.1889,28.4171
35.2750,28.4000
35.7250,28.4000
35.8111,28.4171
35.8841,28.4659
35.9329,28.5389
35.9500,28.6250
Z" /> 
<path style="fill:#000000; fill-opacity:1.0000; stroke:none;fill-rule:evenodd;"
d="M 32.6500,29.3750
32.6329,29.4611
32.5841,29.5341
32.5111,29.5829
32.4250,29.6000
31.9750,29.6000
31.8889,29.5829
31.8159,29.5341
31.7671,29.4611
31.7500,29.3750
31.7500,28.6250
31.7671,28.5389
31.8159,28.4659
31.8889,28.4171
31.9750,28.4000
32.4250,28.4000
32.5111,28.4171
32.5841,28.4659
32.6329,28.5389
32.6500,28.6250
Z" /> 
<path style="fill:#000000; fill-opacity:1.0000; stroke:none;fill-rule:evenodd;"
d="M 103.9500,63.3750
103.9329,63.4611
103.8841,63.5341
103.8111,63.5829
103.7250,63.6000
103.2750,63.6000
103.1889,63.5829
103.1159,63.5341
103.0671,63.4611
103.0500,63.3750
103.0500,62.6250
103.0671,62.5389
103.1159,62.4659
103.1889,62.4171
103.2750,62.4000
103.7250,62.4000
103.8111,62.4171
103.8841,62.4659
103.9329,62.5389
103.9500,62.6250
Z" /> 
<path style="fill:#000000; fill-opacity:1.0000; stroke:none;fill-rule:evenodd;"
d="M 100.6500,63.3750
100.6329,63.4611
100.5841,63.5341
100.5111,63.5829
100.4250,63.6000
99.9750,63.6000
99.8889,63.5829
99.8159,63.5341
99.7671,63.4611
99.7500,63.3750
99.7500,62.6250
99.7671,62.5389
99.8159,62.4659
99.8889,62.4171
99.9750,62.4000
100.4250,62.4000
100.5111,62.4171
100.5841,62.4659
100.6329,62.5389
100.6500,62.6250
Z" /> 
<path style="fill:#000000; fill-opacity:1.0000; stroke:none;fill-rule:evenodd;"
d="M 35.9500,80.3750
35.9329,80.4611
35.8841,80.5341
35.8111,80.5829
35.7250,80.6000
35.2750,80.6000
35.1889,80.5829
35.1159,80.5341
35.0671,80.4611
35.0500,80.3750
35.0500,79.6250
35.0671,79.5389
35.1159,79.4659
35.1889,79.4171
35.2750,79.4000
35.7250,79.4000
35.8111,79.4171
35.8841,79.4659
35.9329,79.5389
35.9500,79.6250
Z" /> 
<path style="fill:#000000; fill-opacity:1.0000; stroke:none;fill-rule:evenodd;"
d="M 32.6500,80.3750
32.6329,80.4611
32.5841,80.5341
32.5111,80.5829
32.4250,80.6000
31.9750,80.6000
31.8889,80.5829
31.8159,80.5341
31.7671,80.4611
31.7500,80.3750
31.7500,79.6250
31.7671,79.5389
31.8159,79.4659
31.8889,79.4171
31.9750,79.4000
32.4250,79.4000
32.5111,79.4171
32.5841,79.4659
32.6329,79.5389
32.6500,79.6250
Z" /> 
<path style="fill:#000000; fill-opacity:1.0000; stroke:none;fill-rule:evenodd;"
d="M 69.9500,80.3750
69.9329,80.4611
69.8841,80.5341
69.8111,80.5829
69.7250,80.6000
69.2750,80.6000
69.1889,80.5829
69.1159,80.5341
69.0671,80.4611
69.0500,80.3750
69.0500,79.6250
69.0671,79.5389
69.1159,79.4659
69.1889,79.4171
69.2750,79.4000
69.7250,79.4000
69.8111,79.4171
69.8841,79.4659
69.9329,79.5389
69.9500,79.6250
Z" /> 
<path style="fill:#000000; fill-opacity:1.0000; stroke:none;fill-rule:evenodd;"
d="M 66.6500,80.3750
66.6329,80.4611
66.5841,80.5341
66.5111,80.5829
66.4250,80.6000
65.9750,80.6000
65.8889,80.5829
65.8159,80.5341
65.7671,80.4611
65.7500,80.3750
65.7500,79.6250
65.7671,79.5389
65.8159,79.4659
65.8889,79.4171
65.9750,79.4000
66.4250,79.4000
66.5111,79.4171
66.5841,79.4659
66.6329,79.5389
66.6500,79.6250
Z" /> 
<path style="fill:#000000; fill-opacity:1.0000; stroke:none;fill-rule:evenodd;"
d="M 35.9500,97.3750
35.9329,97.4611
35.8841,97.5341
35.8111,97.5829
35.7250,97.6000
35.2750,97.6000
35.1889,97.5829
35.1159,97.5341
35.0671,97.4611
35.0500,97.3750
35.0500,96.6250
35.0671,96.5389
35.1159,96.4659
35.1889,96.4171
35.2750,96.4000
35.7250,96.4000
35.8111,96.4171
35.8841,96.4659
35.9329,96.5389
35.9500,96.6250
Z" /> 
<path style="fill:#000000; fill-opacity:1.0000; stroke:none;fill-rule:evenodd;"
d="M 32.6500,97.3750
32.6329,97.4611
32.5841,97.5341
32.5111,97.5829
32.4250,97.6000
31.9750,97.6000
31.8889,97.5829
31.8159,97.5341
31.7671,97.4611
31.7500,97.3750
31.7500,96.6250
31.7671,96.5389
31.8159,96.4659
31.8889,96.4171
31.9750,96.4000
32.4250,96.4000
32.5111,96.4171
32.5841,96.4659
32.6329,96.5389
32.6500,96.6250
Z" /> 
</g>
<g style="fill:none; 
stroke:#000000; stroke-width:1.8000; stroke-opacity:1; 
stroke-linecap:round; stroke-linejoin:round;">
<path d="M136.5400 24.8800
L137.4900 24.8800
" />
<path d="M136.5400 27.4200
L137.4900 27.4200
" />
<path d="M136.5400 29.9600
L137.4900 29.9600
" />
<path d="M136.5400 32.5000
L137.4900 32.5000
" />
<path d="M136.5400 35.0400
L137.4900 35.0400
" />
<path d="M136.5400 37.5800
L137.4900 37.5800
" />
<path d="M136.5400 40.1200
L137.4900 40.1200
" />
<path d="M153.6800 40.1200
L152.7300 40.1200
" />
<path d="M153.6800 37.5800
L152.7300 37.5800
" />
<path d="M153.6800 35.0400
L152.7300 35.0400
" />
<path d="M153.6800 32.5000
L152.7300 32.5000
" />
<path d="M153.6800 29.9600
L152.7300 29.9600
" />
<path d="M153.6800 27.4200
L152.7300 27.4200
" />
<path d="M153.6800 24.8800
L152.7300 24.8800
" />
</g> 
</svg>
